G04 #@! TF.GenerationSoftware,KiCad,Pcbnew,(5.1.4)-1*
G04 #@! TF.CreationDate,2020-08-13T23:55:05-07:00*
G04 #@! TF.ProjectId,Kicad_LFOV_RigidFlex_Assembly,4b696361-645f-44c4-964f-565f52696769,rev?*
G04 #@! TF.SameCoordinates,Original*
G04 #@! TF.FileFunction,Paste,Top*
G04 #@! TF.FilePolarity,Positive*
%FSLAX46Y46*%
G04 Gerber Fmt 4.6, Leading zero omitted, Abs format (unit mm)*
G04 Created by KiCad (PCBNEW (5.1.4)-1) date 2020-08-13 23:55:05*
%MOMM*%
%LPD*%
G04 APERTURE LIST*
%ADD10R,0.680000X0.260000*%
%ADD11R,0.260000X0.680000*%
%ADD12R,1.350000X1.350000*%
%ADD13R,1.060000X0.650000*%
%ADD14C,0.350000*%
%ADD15R,0.630000X0.580000*%
%ADD16R,0.310000X0.340000*%
%ADD17R,1.270000X2.620000*%
%ADD18R,0.870000X0.810000*%
%ADD19R,0.580000X0.630000*%
%ADD20R,1.060000X0.540000*%
%ADD21R,0.710000X0.770000*%
%ADD22R,1.050000X2.200000*%
%ADD23R,1.000000X1.050000*%
%ADD24R,2.500000X2.500000*%
%ADD25R,0.920000X0.890000*%
%ADD26R,0.340000X0.310000*%
%ADD27R,0.560000X0.490000*%
%ADD28R,0.640000X2.390000*%
%ADD29R,0.640000X0.270000*%
%ADD30R,0.220000X0.610000*%
%ADD31R,0.610000X0.220000*%
%ADD32R,0.830000X0.880000*%
%ADD33C,0.508000*%
G04 APERTURE END LIST*
D10*
X110173900Y-91265640D03*
X110173900Y-90765640D03*
X110173900Y-90265640D03*
X110173900Y-89765640D03*
X110173900Y-89265640D03*
X110173900Y-88765640D03*
X110173900Y-88265640D03*
X110173900Y-87765640D03*
D11*
X109588900Y-87180640D03*
X109088900Y-87180640D03*
X108588900Y-87180640D03*
X108088900Y-87180640D03*
X107588900Y-87180640D03*
X107088900Y-87180640D03*
X106588900Y-87180640D03*
X106088900Y-87180640D03*
D10*
X105503900Y-87765640D03*
X105503900Y-88265640D03*
X105503900Y-88765640D03*
X105503900Y-89265640D03*
X105503900Y-89765640D03*
X105503900Y-90265640D03*
X105503900Y-90765640D03*
X105503900Y-91265640D03*
D11*
X106088900Y-91850640D03*
X106588900Y-91850640D03*
X107088900Y-91850640D03*
X107588900Y-91850640D03*
X108088900Y-91850640D03*
X108588900Y-91850640D03*
X109088900Y-91850640D03*
X109588900Y-91850640D03*
D12*
X108613900Y-88740640D03*
X107063900Y-88740640D03*
X108613900Y-90290640D03*
X107063900Y-90290640D03*
D13*
X106931980Y-116368200D03*
X106931980Y-114468200D03*
X109131980Y-114468200D03*
X109131980Y-115418200D03*
X109131980Y-116368200D03*
D14*
X126882700Y-92032980D03*
X126882700Y-91532980D03*
X126882700Y-91032980D03*
X126882700Y-90532980D03*
X126882700Y-90032980D03*
X127382700Y-92032980D03*
X127382700Y-91532980D03*
X127382700Y-91032980D03*
X127382700Y-90532980D03*
X127382700Y-90032980D03*
X127882700Y-92032980D03*
X127882700Y-91532980D03*
X127882700Y-91032980D03*
X127882700Y-90532980D03*
X127882700Y-90032980D03*
D15*
X129544000Y-92926280D03*
X129544000Y-92036280D03*
D16*
X129719000Y-90847560D03*
X129169000Y-90847560D03*
D17*
X126014860Y-86016480D03*
X128754860Y-86016480D03*
D18*
X129394000Y-89907040D03*
X129394000Y-88547040D03*
D16*
X104258180Y-85893600D03*
X103708180Y-85893600D03*
D15*
X111740380Y-115836800D03*
X111740380Y-116726800D03*
X108463780Y-110731400D03*
X108463780Y-111621400D03*
X108463780Y-113348600D03*
X108463780Y-112458600D03*
D16*
X111142220Y-71141400D03*
X110592220Y-71141400D03*
D15*
X107523980Y-111621400D03*
X107523980Y-110731400D03*
X107523980Y-112484000D03*
X107523980Y-113374000D03*
X106406380Y-118936600D03*
X106406380Y-118046600D03*
X110876780Y-114109600D03*
X110876780Y-114999600D03*
D16*
X103646180Y-71830980D03*
X103096180Y-71830980D03*
D15*
X107320780Y-118046600D03*
X107320780Y-118936600D03*
X111740380Y-114999600D03*
X111740380Y-114109600D03*
X110876780Y-113297800D03*
X110876780Y-112407800D03*
X111740380Y-112407800D03*
X111740380Y-113297800D03*
X102520180Y-111875400D03*
X102520180Y-110985400D03*
D19*
X104642780Y-77405980D03*
X103752780Y-77405980D03*
D15*
X103459980Y-110985400D03*
X103459980Y-111875400D03*
D16*
X111142220Y-69994220D03*
X110592220Y-69994220D03*
X110592220Y-71820820D03*
X111142220Y-71820820D03*
D15*
X105745980Y-114897000D03*
X105745980Y-115787000D03*
X108641580Y-118072000D03*
X108641580Y-118962000D03*
D19*
X109727780Y-77380980D03*
X110617780Y-77380980D03*
D16*
X103091100Y-71125960D03*
X103641100Y-71125960D03*
D15*
X109403580Y-112458600D03*
X109403580Y-113348600D03*
X105491980Y-118021200D03*
X105491980Y-118911200D03*
D20*
X127552500Y-88541240D03*
X125492500Y-88541240D03*
D21*
X111714980Y-111474600D03*
X111714980Y-110014600D03*
D22*
X100920680Y-88525040D03*
X103870680Y-88525040D03*
D23*
X102395680Y-87025040D03*
D24*
X102347420Y-91057420D03*
D25*
X125465100Y-91350480D03*
X125465100Y-90020480D03*
D26*
X125530000Y-92227680D03*
X125530000Y-92777680D03*
X125514760Y-93925760D03*
X125514760Y-93375760D03*
D27*
X110851380Y-115826800D03*
X110851380Y-116736800D03*
X109431480Y-111596200D03*
X109431480Y-110686200D03*
X102494780Y-113587200D03*
X102494780Y-112677200D03*
D16*
X104905540Y-71125960D03*
X104355540Y-71125960D03*
X104360620Y-69994220D03*
X104910620Y-69994220D03*
X103646180Y-69994220D03*
X103096180Y-69994220D03*
X109827060Y-69994220D03*
X109277060Y-69994220D03*
X109827060Y-71153900D03*
X109277060Y-71153900D03*
D28*
X104197780Y-74530980D03*
D29*
X103357780Y-75530980D03*
X103357780Y-75030980D03*
X103357780Y-74530980D03*
X103357780Y-74030980D03*
X103357780Y-73530980D03*
X105037780Y-73530980D03*
X105037780Y-74030980D03*
X105037780Y-74530980D03*
X105037780Y-75030980D03*
X105037780Y-75530980D03*
X109332780Y-73505980D03*
X109332780Y-74005980D03*
X109332780Y-74505980D03*
X109332780Y-75005980D03*
X109332780Y-75505980D03*
X111012780Y-75505980D03*
X111012780Y-75005980D03*
X111012780Y-74505980D03*
X111012780Y-74005980D03*
X111012780Y-73505980D03*
D28*
X110172780Y-74505980D03*
D30*
X106397780Y-71800980D03*
X106797780Y-71800980D03*
X107197780Y-71800980D03*
X107597780Y-71800980D03*
X107997780Y-71800980D03*
D31*
X108042780Y-71155980D03*
X108042780Y-70755980D03*
D30*
X107997780Y-70110980D03*
X107597780Y-70110980D03*
X107197780Y-70110980D03*
X106797780Y-70110980D03*
X106397780Y-70110980D03*
D31*
X106352780Y-70755980D03*
X106352780Y-71155980D03*
D32*
X102638380Y-116276600D03*
X102638380Y-118166600D03*
X104078380Y-118166600D03*
X104078380Y-116276600D03*
D16*
X108065640Y-77097580D03*
X107515640Y-77097580D03*
X106780400Y-77102660D03*
X106230400Y-77102660D03*
X109827060Y-71820820D03*
X109277060Y-71820820D03*
X104895720Y-71819460D03*
X104345720Y-71819460D03*
D33*
X112832540Y-91697502D03*
X113442140Y-92180102D03*
X112832540Y-92662701D03*
X113442140Y-93145301D03*
X112832540Y-93627900D03*
M02*
