G04 #@! TF.GenerationSoftware,KiCad,Pcbnew,(5.1.4)-1*
G04 #@! TF.CreationDate,2020-08-13T23:55:03-07:00*
G04 #@! TF.ProjectId,Kicad_LFOV_RigidFlex_Assembly,4b696361-645f-44c4-964f-565f52696769,rev?*
G04 #@! TF.SameCoordinates,Original*
G04 #@! TF.FileFunction,Copper,L3,Inr*
G04 #@! TF.FilePolarity,Positive*
%FSLAX46Y46*%
G04 Gerber Fmt 4.6, Leading zero omitted, Abs format (unit mm)*
G04 Created by KiCad (PCBNEW (5.1.4)-1) date 2020-08-13 23:55:03*
%MOMM*%
%LPD*%
G04 APERTURE LIST*
%ADD10C,0.350000*%
%ADD11C,0.300000*%
%ADD12C,0.450000*%
%ADD13C,0.381000*%
%ADD14C,0.304800*%
%ADD15C,0.203200*%
%ADD16C,0.254000*%
%ADD17C,0.152400*%
G04 APERTURE END LIST*
D10*
X103973020Y-87867180D03*
D11*
X105753560Y-114910560D03*
X109113980Y-115428720D03*
X126876200Y-91532400D03*
D12*
X100897080Y-89259100D03*
D11*
X100541480Y-92357900D03*
D12*
X102545580Y-118999600D03*
X129147620Y-85086840D03*
X129147620Y-85965680D03*
X129147620Y-86844520D03*
D11*
X127943660Y-87824960D03*
D12*
X110172780Y-75255980D03*
X110172780Y-73755980D03*
X104197780Y-73780980D03*
X104197780Y-75280980D03*
D11*
X107221680Y-73960680D03*
D10*
X105378910Y-87314730D03*
X111962980Y-109913598D03*
D12*
X129394000Y-88547040D03*
X112835080Y-91697502D03*
D11*
X126881280Y-90028720D03*
D12*
X108821880Y-90032100D03*
X107602680Y-88878100D03*
D11*
X108463780Y-111621400D03*
X106881320Y-91081359D03*
X103139900Y-92431560D03*
X106406380Y-118046600D03*
X110876780Y-114999600D03*
X111703980Y-117526400D03*
X109403580Y-112458600D03*
X107532920Y-113365060D03*
X109592460Y-118973600D03*
X110793780Y-112407800D03*
D10*
X108538960Y-109803600D03*
X103091100Y-71125960D03*
X110617780Y-77380980D03*
D12*
X107169570Y-70955980D03*
D10*
X107997780Y-71800980D03*
X103091100Y-69999300D03*
X109850580Y-86297460D03*
X111012780Y-74505980D03*
X111012780Y-75005980D03*
D11*
X129544000Y-92926280D03*
X126995130Y-93462350D03*
D10*
X102449020Y-108900920D03*
D11*
X109827060Y-71820820D03*
D12*
X100719280Y-90376700D03*
D11*
X109131980Y-114468200D03*
X109431480Y-110686200D03*
X111298380Y-92456960D03*
X110859320Y-116739000D03*
X104052980Y-118127520D03*
D10*
X103271980Y-75548180D03*
D12*
X125611940Y-85086840D03*
X125611940Y-86844520D03*
X125611940Y-85965680D03*
D11*
X126246940Y-87824960D03*
D10*
X103762200Y-86769900D03*
D11*
X112581080Y-86322860D03*
X125171098Y-91350480D03*
D10*
X104910620Y-69994220D03*
D11*
X100541480Y-93369500D03*
X111967080Y-89589300D03*
D10*
X111012780Y-73505980D03*
X106222780Y-77080980D03*
X108065640Y-77097580D03*
X111177780Y-69994220D03*
X129719000Y-90847560D03*
D11*
X125585491Y-93996491D03*
X109827060Y-69994220D03*
X107160720Y-75413560D03*
X105824429Y-86238789D03*
D10*
X105822780Y-77953446D03*
D11*
X105364940Y-86241580D03*
D10*
X105037780Y-74030980D03*
X104910620Y-71855980D03*
X108093440Y-71155980D03*
D11*
X127890798Y-91524882D03*
X127882700Y-92032980D03*
D10*
X111425380Y-87305840D03*
X108844700Y-86315667D03*
D11*
X101735280Y-93018300D03*
X107523980Y-112484000D03*
X103396440Y-112756640D03*
X110885220Y-114109600D03*
X107704280Y-92002300D03*
D10*
X102649680Y-86642900D03*
X110750420Y-87292460D03*
X109335167Y-86315667D03*
X106942280Y-86315667D03*
X104807410Y-92436202D03*
X104807410Y-92436202D03*
X104807410Y-92436202D03*
X104807410Y-92436202D03*
D12*
X112835080Y-92662701D03*
D11*
X110173900Y-90265640D03*
D10*
X104897580Y-115459200D03*
D11*
X110173900Y-90765640D03*
D10*
X110687060Y-110693607D03*
D11*
X110173900Y-91265640D03*
D10*
X110282380Y-111243400D03*
X110904680Y-89182900D03*
D11*
X125083732Y-93998748D03*
D10*
X124587498Y-88593870D03*
D11*
X110281180Y-109803600D03*
D10*
X107515640Y-77097580D03*
X107595060Y-69718880D03*
X107810295Y-86307867D03*
D11*
X111407600Y-89591840D03*
X127389280Y-92037860D03*
X110174620Y-89765640D03*
X107197780Y-70110980D03*
D10*
X106805379Y-77113579D03*
X110500820Y-108885680D03*
X111427920Y-87862780D03*
D11*
X103332980Y-115443600D03*
D10*
X104807410Y-88776500D03*
X104807410Y-89361970D03*
X103644976Y-114738600D03*
D11*
X105817060Y-89767100D03*
X103637780Y-113970400D03*
X105806900Y-90262400D03*
D10*
X104275280Y-115035020D03*
D11*
X105814520Y-90762780D03*
D10*
X105705300Y-113970760D03*
D11*
X104944709Y-91286020D03*
D10*
X106088840Y-113577060D03*
D11*
X106294580Y-92477280D03*
D10*
X107564580Y-108875520D03*
X107048960Y-92472200D03*
X107048960Y-108882678D03*
X106609540Y-113150340D03*
X107798260Y-92500140D03*
X106091380Y-112721080D03*
X108611981Y-92452801D03*
X111689540Y-86325400D03*
D11*
X106083080Y-92002300D03*
X106931980Y-116368200D03*
X110851380Y-115826800D03*
X107494320Y-110731400D03*
X102520180Y-112609280D03*
X105761040Y-115787000D03*
X110839180Y-113335400D03*
X107516180Y-118936600D03*
D10*
X106781180Y-109803600D03*
D11*
X111308540Y-91852440D03*
D10*
X108332297Y-86315667D03*
X104242510Y-86769900D03*
X105011880Y-75520240D03*
X103646180Y-71830980D03*
X109332780Y-74005980D03*
X109703360Y-77356560D03*
D11*
X107211580Y-73219060D03*
D10*
X104355540Y-71125960D03*
X109332780Y-75505980D03*
D13*
X127762660Y-99238760D02*
X127760120Y-99238760D01*
X127125120Y-99876300D02*
X127762660Y-99238760D01*
X127099720Y-98578360D02*
X127135280Y-98578360D01*
X127747420Y-100511300D02*
X127112420Y-99876300D01*
X126896520Y-101669540D02*
X126896520Y-101362200D01*
X127135280Y-98578360D02*
X127780440Y-97933200D01*
X127760120Y-99238760D02*
X127099720Y-98578360D01*
X127780440Y-97933200D02*
X127780440Y-97902720D01*
X127780440Y-97902720D02*
X127092100Y-97214380D01*
X126896520Y-95639580D02*
X126896520Y-95832620D01*
X127092100Y-97214380D02*
X127102260Y-97214380D01*
X127112420Y-99876300D02*
X127125120Y-99876300D01*
X127785520Y-96528580D02*
X126896520Y-95639580D01*
X127102260Y-97214380D02*
X127788060Y-96528580D01*
X127788060Y-96528580D02*
X127785520Y-96528580D01*
X127915438Y-95639580D02*
X127985560Y-95709702D01*
X126896520Y-95639580D02*
X127915438Y-95639580D01*
D14*
X103139900Y-92431560D02*
X103139900Y-92431560D01*
X107831280Y-78558080D02*
X107831280Y-85695480D01*
X108398759Y-77990601D02*
X107831280Y-78558080D01*
X110407899Y-77990601D02*
X108398759Y-77990601D01*
X110617780Y-77380980D02*
X110617780Y-77780720D01*
X110617780Y-77780720D02*
X110407899Y-77990601D01*
X102624280Y-92947180D02*
X103139900Y-92431560D01*
X107831280Y-85695480D02*
X108022466Y-85886666D01*
X109850580Y-86196158D02*
X109850580Y-86297460D01*
X108022466Y-85886666D02*
X109541088Y-85886666D01*
X109541088Y-85886666D02*
X109850580Y-86196158D01*
D13*
X129544000Y-94151262D02*
X129544000Y-92926280D01*
X127985560Y-95709702D02*
X129544000Y-94151262D01*
X126929540Y-103630420D02*
X127985560Y-103630420D01*
X126896520Y-103597400D02*
X126929540Y-103630420D01*
X126896520Y-103597400D02*
X126896520Y-103483100D01*
X127929680Y-100423020D02*
X126896520Y-101456180D01*
X127985560Y-100423020D02*
X127929680Y-100423020D01*
X126896520Y-101456180D02*
X126896520Y-101669540D01*
X126896520Y-95832620D02*
X126896520Y-101456180D01*
X127985560Y-95709702D02*
X127985560Y-100423020D01*
X127013360Y-101456180D02*
X127985560Y-102428380D01*
X126896520Y-101456180D02*
X127013360Y-101456180D01*
X127985560Y-100423020D02*
X127985560Y-102428380D01*
X127985560Y-102428380D02*
X127985560Y-103630420D01*
X127941080Y-102428380D02*
X126896520Y-103472940D01*
X127985560Y-102428380D02*
X127941080Y-102428380D01*
X126896520Y-101669540D02*
X126896520Y-103472940D01*
X126896520Y-103472940D02*
X126896520Y-103597400D01*
D14*
X102624280Y-108725660D02*
X102624280Y-92947180D01*
X102449020Y-108900920D02*
X102624280Y-108725660D01*
X126246940Y-87824960D02*
X126246940Y-89222880D01*
X124788320Y-90681500D02*
X123390400Y-90681500D01*
X126246940Y-89222880D02*
X124788320Y-90681500D01*
X124788320Y-90967702D02*
X125171098Y-91350480D01*
X124788320Y-90681500D02*
X124788320Y-90967702D01*
D15*
X100541480Y-92972842D02*
X100541480Y-93369500D01*
X103478779Y-90035543D02*
X100541480Y-92972842D01*
X103741880Y-86769900D02*
X103478779Y-87033001D01*
X103478779Y-87033001D02*
X103478779Y-90035543D01*
D14*
X112584480Y-90681500D02*
X113160200Y-90681500D01*
X111967080Y-90064100D02*
X112584480Y-90681500D01*
X111967080Y-89589300D02*
X111967080Y-90064100D01*
X113160200Y-90681500D02*
X123390400Y-90681500D01*
X105037780Y-74470780D02*
X105037780Y-74030980D01*
X105615411Y-75048411D02*
X105037780Y-74470780D01*
X105615411Y-75724901D02*
X105615411Y-75048411D01*
X105364940Y-75975372D02*
X105615411Y-75724901D01*
X105364940Y-86241580D02*
X105364940Y-75975372D01*
D15*
X105684980Y-93285495D02*
X104840634Y-92441149D01*
X105684980Y-108278620D02*
X105684980Y-93285495D01*
D14*
X105684980Y-93313772D02*
X105684980Y-108278620D01*
X104807410Y-92436202D02*
X105684980Y-93313772D01*
X105255969Y-115100811D02*
X104897580Y-115459200D01*
X105684980Y-108278620D02*
X105255969Y-108707631D01*
X105255969Y-108707631D02*
X105255969Y-115100811D01*
X110173900Y-92875320D02*
X109561020Y-93488200D01*
X110173900Y-91265640D02*
X110173900Y-92875320D01*
X109561020Y-93488200D02*
X109561020Y-110114640D01*
X110282380Y-110836000D02*
X110282380Y-111243400D01*
X109561020Y-110114640D02*
X110282380Y-110836000D01*
D16*
X112534299Y-89407899D02*
X112822380Y-89695980D01*
D17*
X110524638Y-89007901D02*
X107832404Y-86315667D01*
X110904680Y-89182900D02*
X110729681Y-89007901D01*
X110729681Y-89007901D02*
X110524638Y-89007901D01*
D14*
X112309300Y-89182900D02*
X112822380Y-89695980D01*
X110904680Y-89182900D02*
X112309300Y-89182900D01*
X123485388Y-89695980D02*
X124412499Y-88768869D01*
X124412499Y-88768869D02*
X124587498Y-88593870D01*
X112822380Y-89695980D02*
X123485388Y-89695980D01*
D15*
X107597780Y-70305980D02*
X107597780Y-70110980D01*
X107515640Y-77097580D02*
X107597780Y-77015440D01*
X107597780Y-77015440D02*
X107597780Y-70305980D01*
X107597780Y-70110980D02*
X107597780Y-69721600D01*
X107597780Y-69721600D02*
X107595060Y-69718880D01*
D17*
X107832404Y-86315667D02*
X107818095Y-86315667D01*
X107818095Y-86315667D02*
X107810295Y-86307867D01*
D15*
X110498280Y-93196100D02*
X110498280Y-93196100D01*
X110498280Y-93196100D02*
X110498280Y-108267903D01*
X107197780Y-70305980D02*
X107197780Y-70110980D01*
X106467300Y-71036460D02*
X107197780Y-70305980D01*
D14*
X110174620Y-89765640D02*
X109757331Y-89765640D01*
X109757331Y-89765640D02*
X106513279Y-86521588D01*
D17*
X110174620Y-89765640D02*
X110174620Y-89781214D01*
D14*
X106513279Y-77405679D02*
X106805379Y-77113579D01*
X106513279Y-86521588D02*
X106513279Y-77405679D01*
D15*
X106467300Y-76775500D02*
X106805379Y-77113579D01*
X106467300Y-71036460D02*
X106467300Y-76775500D01*
D14*
X110386752Y-89765640D02*
X110174620Y-89765640D01*
X110716720Y-92907250D02*
X110716720Y-90095608D01*
X110498280Y-93125690D02*
X110716720Y-92907250D01*
X110498280Y-108267903D02*
X110498280Y-93125690D01*
X110716720Y-90095608D02*
X110386752Y-89765640D01*
X110498280Y-108267903D02*
X110498280Y-108883140D01*
X110498280Y-108883140D02*
X110500820Y-108885680D01*
X104378409Y-88958014D02*
X104559923Y-88776500D01*
X104559923Y-88776500D02*
X104807410Y-88776500D01*
X103749503Y-109633191D02*
X103749503Y-90445548D01*
X103749503Y-90445548D02*
X104378409Y-89816642D01*
X104378409Y-89816642D02*
X104378409Y-88958014D01*
X103182981Y-115293601D02*
X103332980Y-115443600D01*
X102924181Y-115034801D02*
X103182981Y-115293601D01*
X102924181Y-111995199D02*
X102924181Y-115034801D01*
X103749503Y-111169877D02*
X102924181Y-111995199D01*
X103749503Y-109633191D02*
X103749503Y-111169877D01*
D17*
X104808680Y-89360700D02*
X104807410Y-89361970D01*
D14*
X104714702Y-93198640D02*
X104717270Y-93201208D01*
X104807410Y-89609457D02*
X104807410Y-89361970D01*
X104807410Y-89962391D02*
X104807410Y-89609457D01*
X104378409Y-90391392D02*
X104807410Y-89962391D01*
X104378409Y-92862347D02*
X104378409Y-90391392D01*
X104717270Y-93201208D02*
X104378409Y-92862347D01*
X103863118Y-114738600D02*
X103644976Y-114738600D01*
X104717270Y-113884448D02*
X103863118Y-114738600D01*
X104717270Y-93201208D02*
X104717270Y-113884448D01*
X104944709Y-91286020D02*
X104944709Y-91946054D01*
X104944709Y-91946054D02*
X106642560Y-93643905D01*
X106642560Y-93643905D02*
X106642560Y-108598660D01*
X105913841Y-113402061D02*
X106088840Y-113577060D01*
X105662379Y-113150599D02*
X105913841Y-113402061D01*
X105662379Y-109578841D02*
X105662379Y-113150599D01*
X106642560Y-108598660D02*
X105662379Y-109578841D01*
X107564580Y-93747280D02*
X106294580Y-92477280D01*
X107564580Y-108875520D02*
X107564580Y-93747280D01*
X106093920Y-111306734D02*
X106093920Y-112247542D01*
X108441969Y-108958685D02*
X106093920Y-111306734D01*
X108441969Y-92622813D02*
X108441969Y-108958685D01*
X108628580Y-92436202D02*
X108611981Y-92452801D01*
X106091380Y-112250082D02*
X106091380Y-112721080D01*
X106093920Y-112247542D02*
X106091380Y-112250082D01*
X108611981Y-92452801D02*
X108441969Y-92622813D01*
X111267900Y-112906680D02*
X110839180Y-113335400D01*
X111267900Y-93678541D02*
X111267900Y-112906680D01*
X111702381Y-93244060D02*
X111267900Y-93678541D01*
X111702381Y-92246281D02*
X111702381Y-93244060D01*
X111308540Y-91852440D02*
X111702381Y-92246281D01*
D17*
X109528361Y-77181561D02*
X109703360Y-77356560D01*
X108979979Y-76633179D02*
X109528361Y-77181561D01*
X108979979Y-74646181D02*
X108979979Y-76633179D01*
X109332780Y-74293380D02*
X108979979Y-74646181D01*
X109332780Y-74005980D02*
X109332780Y-74293380D01*
G36*
X103368503Y-109614479D02*
G01*
X103368504Y-111012060D01*
X102668012Y-111712554D01*
X102653470Y-111724488D01*
X102621847Y-111763022D01*
X102605859Y-111782503D01*
X102570481Y-111848691D01*
X102570480Y-111848692D01*
X102548694Y-111920511D01*
X102545109Y-111956911D01*
X102541338Y-111995199D01*
X102543181Y-112013909D01*
X102543182Y-115016081D01*
X102541338Y-115034801D01*
X102547840Y-115100811D01*
X102548695Y-115109490D01*
X102551739Y-115119524D01*
X102570480Y-115181308D01*
X102605859Y-115247497D01*
X102635191Y-115283238D01*
X102653471Y-115305512D01*
X102668008Y-115317442D01*
X102926805Y-115576240D01*
X102926810Y-115576244D01*
X103076805Y-115726240D01*
X103120284Y-115761922D01*
X103186472Y-115797301D01*
X103258291Y-115819086D01*
X103332980Y-115826443D01*
X103407669Y-115819086D01*
X103479487Y-115797301D01*
X103545676Y-115761922D01*
X103603691Y-115714311D01*
X103651302Y-115656296D01*
X103686681Y-115590107D01*
X103708466Y-115518289D01*
X103715823Y-115443600D01*
X103708466Y-115368911D01*
X103686681Y-115297092D01*
X103651302Y-115230904D01*
X103615620Y-115187425D01*
X103561746Y-115133552D01*
X103605225Y-115142200D01*
X103684727Y-115142200D01*
X103762702Y-115126690D01*
X103779819Y-115119600D01*
X103844408Y-115119600D01*
X103863118Y-115121443D01*
X103880621Y-115119719D01*
X103887190Y-115152746D01*
X103917614Y-115226196D01*
X103961783Y-115292300D01*
X104018000Y-115348517D01*
X104084104Y-115392686D01*
X104157554Y-115423110D01*
X104235529Y-115438620D01*
X104315031Y-115438620D01*
X104393006Y-115423110D01*
X104466456Y-115392686D01*
X104504338Y-115367374D01*
X104493980Y-115419449D01*
X104493980Y-115498951D01*
X104509490Y-115576926D01*
X104539914Y-115650376D01*
X104584083Y-115716480D01*
X104640300Y-115772697D01*
X104706404Y-115816866D01*
X104779854Y-115847290D01*
X104857829Y-115862800D01*
X104937331Y-115862800D01*
X105015306Y-115847290D01*
X105088756Y-115816866D01*
X105154860Y-115772697D01*
X105211077Y-115716480D01*
X105255246Y-115650376D01*
X105262336Y-115633258D01*
X105504164Y-115391431D01*
X108735380Y-115391431D01*
X108735380Y-115466009D01*
X108749929Y-115539154D01*
X108778469Y-115608054D01*
X108819902Y-115670064D01*
X108872636Y-115722798D01*
X108934646Y-115764231D01*
X109003546Y-115792771D01*
X109076691Y-115807320D01*
X109151269Y-115807320D01*
X109224414Y-115792771D01*
X109293314Y-115764231D01*
X109355324Y-115722798D01*
X109408058Y-115670064D01*
X109449491Y-115608054D01*
X109478031Y-115539154D01*
X109492580Y-115466009D01*
X109492580Y-115391431D01*
X109478031Y-115318286D01*
X109449491Y-115249386D01*
X109408058Y-115187376D01*
X109355324Y-115134642D01*
X109293314Y-115093209D01*
X109224414Y-115064669D01*
X109151269Y-115050120D01*
X109076691Y-115050120D01*
X109003546Y-115064669D01*
X108934646Y-115093209D01*
X108872636Y-115134642D01*
X108819902Y-115187376D01*
X108778469Y-115249386D01*
X108749929Y-115318286D01*
X108735380Y-115391431D01*
X105504164Y-115391431D01*
X105512148Y-115383448D01*
X105526680Y-115371522D01*
X105538606Y-115356990D01*
X105538609Y-115356987D01*
X105574291Y-115313508D01*
X105603791Y-115258318D01*
X105643126Y-115274611D01*
X105716271Y-115289160D01*
X105790849Y-115289160D01*
X105863994Y-115274611D01*
X105932894Y-115246071D01*
X105994904Y-115204638D01*
X106047638Y-115151904D01*
X106089071Y-115089894D01*
X106117611Y-115020994D01*
X106129283Y-114962311D01*
X110498180Y-114962311D01*
X110498180Y-115036889D01*
X110512729Y-115110034D01*
X110541269Y-115178934D01*
X110582702Y-115240944D01*
X110635436Y-115293678D01*
X110697446Y-115335111D01*
X110766346Y-115363651D01*
X110839491Y-115378200D01*
X110914069Y-115378200D01*
X110987214Y-115363651D01*
X111056114Y-115335111D01*
X111118124Y-115293678D01*
X111170858Y-115240944D01*
X111212291Y-115178934D01*
X111240831Y-115110034D01*
X111255380Y-115036889D01*
X111255380Y-114962311D01*
X111240831Y-114889166D01*
X111212291Y-114820266D01*
X111170858Y-114758256D01*
X111118124Y-114705522D01*
X111056114Y-114664089D01*
X110987214Y-114635549D01*
X110914069Y-114621000D01*
X110839491Y-114621000D01*
X110766346Y-114635549D01*
X110697446Y-114664089D01*
X110635436Y-114705522D01*
X110582702Y-114758256D01*
X110541269Y-114820266D01*
X110512729Y-114889166D01*
X110498180Y-114962311D01*
X106129283Y-114962311D01*
X106132160Y-114947849D01*
X106132160Y-114873271D01*
X106117611Y-114800126D01*
X106089071Y-114731226D01*
X106047638Y-114669216D01*
X105994904Y-114616482D01*
X105932894Y-114575049D01*
X105863994Y-114546509D01*
X105790849Y-114531960D01*
X105716271Y-114531960D01*
X105643126Y-114546509D01*
X105636969Y-114549059D01*
X105636969Y-114430911D01*
X108753380Y-114430911D01*
X108753380Y-114505489D01*
X108767929Y-114578634D01*
X108796469Y-114647534D01*
X108837902Y-114709544D01*
X108890636Y-114762278D01*
X108952646Y-114803711D01*
X109021546Y-114832251D01*
X109094691Y-114846800D01*
X109169269Y-114846800D01*
X109242414Y-114832251D01*
X109311314Y-114803711D01*
X109373324Y-114762278D01*
X109426058Y-114709544D01*
X109467491Y-114647534D01*
X109496031Y-114578634D01*
X109510580Y-114505489D01*
X109510580Y-114430911D01*
X109496031Y-114357766D01*
X109467491Y-114288866D01*
X109426058Y-114226856D01*
X109373324Y-114174122D01*
X109311314Y-114132689D01*
X109242414Y-114104149D01*
X109169269Y-114089600D01*
X109094691Y-114089600D01*
X109021546Y-114104149D01*
X108952646Y-114132689D01*
X108890636Y-114174122D01*
X108837902Y-114226856D01*
X108796469Y-114288866D01*
X108767929Y-114357766D01*
X108753380Y-114430911D01*
X105636969Y-114430911D01*
X105636969Y-114368675D01*
X105665549Y-114374360D01*
X105745051Y-114374360D01*
X105823026Y-114358850D01*
X105896476Y-114328426D01*
X105962580Y-114284257D01*
X106018797Y-114228040D01*
X106062966Y-114161936D01*
X106093390Y-114088486D01*
X106096607Y-114072311D01*
X110506620Y-114072311D01*
X110506620Y-114146889D01*
X110521169Y-114220034D01*
X110549709Y-114288934D01*
X110591142Y-114350944D01*
X110643876Y-114403678D01*
X110705886Y-114445111D01*
X110774786Y-114473651D01*
X110847931Y-114488200D01*
X110922509Y-114488200D01*
X110995654Y-114473651D01*
X111064554Y-114445111D01*
X111126564Y-114403678D01*
X111179298Y-114350944D01*
X111220731Y-114288934D01*
X111249271Y-114220034D01*
X111263820Y-114146889D01*
X111263820Y-114072311D01*
X111249271Y-113999166D01*
X111220731Y-113930266D01*
X111179298Y-113868256D01*
X111126564Y-113815522D01*
X111064554Y-113774089D01*
X110995654Y-113745549D01*
X110922509Y-113731000D01*
X110847931Y-113731000D01*
X110774786Y-113745549D01*
X110705886Y-113774089D01*
X110643876Y-113815522D01*
X110591142Y-113868256D01*
X110549709Y-113930266D01*
X110521169Y-113999166D01*
X110506620Y-114072311D01*
X106096607Y-114072311D01*
X106108900Y-114010511D01*
X106108900Y-113980660D01*
X106128591Y-113980660D01*
X106206566Y-113965150D01*
X106280016Y-113934726D01*
X106346120Y-113890557D01*
X106402337Y-113834340D01*
X106446506Y-113768236D01*
X106476930Y-113694786D01*
X106492440Y-113616811D01*
X106492440Y-113538555D01*
X106569789Y-113553940D01*
X106649291Y-113553940D01*
X106727266Y-113538430D01*
X106800716Y-113508006D01*
X106866820Y-113463837D01*
X106923037Y-113407620D01*
X106967206Y-113341516D01*
X106972899Y-113327771D01*
X107154320Y-113327771D01*
X107154320Y-113402349D01*
X107168869Y-113475494D01*
X107197409Y-113544394D01*
X107238842Y-113606404D01*
X107291576Y-113659138D01*
X107353586Y-113700571D01*
X107422486Y-113729111D01*
X107495631Y-113743660D01*
X107570209Y-113743660D01*
X107643354Y-113729111D01*
X107712254Y-113700571D01*
X107774264Y-113659138D01*
X107826998Y-113606404D01*
X107868431Y-113544394D01*
X107896971Y-113475494D01*
X107911520Y-113402349D01*
X107911520Y-113327771D01*
X107896971Y-113254626D01*
X107868431Y-113185726D01*
X107826998Y-113123716D01*
X107774264Y-113070982D01*
X107712254Y-113029549D01*
X107643354Y-113001009D01*
X107570209Y-112986460D01*
X107495631Y-112986460D01*
X107422486Y-113001009D01*
X107353586Y-113029549D01*
X107291576Y-113070982D01*
X107238842Y-113123716D01*
X107197409Y-113185726D01*
X107168869Y-113254626D01*
X107154320Y-113327771D01*
X106972899Y-113327771D01*
X106997630Y-113268066D01*
X107013140Y-113190091D01*
X107013140Y-113110589D01*
X106997630Y-113032614D01*
X106967206Y-112959164D01*
X106923037Y-112893060D01*
X106866820Y-112836843D01*
X106800716Y-112792674D01*
X106727266Y-112762250D01*
X106649291Y-112746740D01*
X106569789Y-112746740D01*
X106494817Y-112761653D01*
X106494980Y-112760831D01*
X106494980Y-112681329D01*
X106479470Y-112603354D01*
X106472380Y-112586237D01*
X106472380Y-112446711D01*
X107145380Y-112446711D01*
X107145380Y-112521289D01*
X107159929Y-112594434D01*
X107188469Y-112663334D01*
X107229902Y-112725344D01*
X107282636Y-112778078D01*
X107344646Y-112819511D01*
X107413546Y-112848051D01*
X107486691Y-112862600D01*
X107561269Y-112862600D01*
X107634414Y-112848051D01*
X107703314Y-112819511D01*
X107765324Y-112778078D01*
X107818058Y-112725344D01*
X107859491Y-112663334D01*
X107888031Y-112594434D01*
X107902580Y-112521289D01*
X107902580Y-112446711D01*
X107897528Y-112421311D01*
X109024980Y-112421311D01*
X109024980Y-112495889D01*
X109039529Y-112569034D01*
X109068069Y-112637934D01*
X109109502Y-112699944D01*
X109162236Y-112752678D01*
X109224246Y-112794111D01*
X109293146Y-112822651D01*
X109366291Y-112837200D01*
X109440869Y-112837200D01*
X109514014Y-112822651D01*
X109582914Y-112794111D01*
X109644924Y-112752678D01*
X109697658Y-112699944D01*
X109739091Y-112637934D01*
X109767631Y-112569034D01*
X109782180Y-112495889D01*
X109782180Y-112421311D01*
X109772076Y-112370511D01*
X110415180Y-112370511D01*
X110415180Y-112445089D01*
X110429729Y-112518234D01*
X110458269Y-112587134D01*
X110499702Y-112649144D01*
X110552436Y-112701878D01*
X110614446Y-112743311D01*
X110683346Y-112771851D01*
X110756491Y-112786400D01*
X110831069Y-112786400D01*
X110904214Y-112771851D01*
X110973114Y-112743311D01*
X111035124Y-112701878D01*
X111087858Y-112649144D01*
X111129291Y-112587134D01*
X111157831Y-112518234D01*
X111172380Y-112445089D01*
X111172380Y-112370511D01*
X111157831Y-112297366D01*
X111129291Y-112228466D01*
X111087858Y-112166456D01*
X111035124Y-112113722D01*
X110973114Y-112072289D01*
X110904214Y-112043749D01*
X110831069Y-112029200D01*
X110756491Y-112029200D01*
X110683346Y-112043749D01*
X110614446Y-112072289D01*
X110552436Y-112113722D01*
X110499702Y-112166456D01*
X110458269Y-112228466D01*
X110429729Y-112297366D01*
X110415180Y-112370511D01*
X109772076Y-112370511D01*
X109767631Y-112348166D01*
X109739091Y-112279266D01*
X109697658Y-112217256D01*
X109644924Y-112164522D01*
X109582914Y-112123089D01*
X109514014Y-112094549D01*
X109440869Y-112080000D01*
X109366291Y-112080000D01*
X109293146Y-112094549D01*
X109224246Y-112123089D01*
X109162236Y-112164522D01*
X109109502Y-112217256D01*
X109068069Y-112279266D01*
X109039529Y-112348166D01*
X109024980Y-112421311D01*
X107897528Y-112421311D01*
X107888031Y-112373566D01*
X107859491Y-112304666D01*
X107818058Y-112242656D01*
X107765324Y-112189922D01*
X107703314Y-112148489D01*
X107634414Y-112119949D01*
X107561269Y-112105400D01*
X107486691Y-112105400D01*
X107413546Y-112119949D01*
X107344646Y-112148489D01*
X107282636Y-112189922D01*
X107229902Y-112242656D01*
X107188469Y-112304666D01*
X107159929Y-112373566D01*
X107145380Y-112446711D01*
X106472380Y-112446711D01*
X106472380Y-112292045D01*
X106474920Y-112266255D01*
X106474920Y-112266253D01*
X106476763Y-112247543D01*
X106474920Y-112228833D01*
X106474920Y-111584111D01*
X108085180Y-111584111D01*
X108085180Y-111658689D01*
X108099729Y-111731834D01*
X108128269Y-111800734D01*
X108169702Y-111862744D01*
X108222436Y-111915478D01*
X108284446Y-111956911D01*
X108353346Y-111985451D01*
X108426491Y-112000000D01*
X108501069Y-112000000D01*
X108574214Y-111985451D01*
X108643114Y-111956911D01*
X108705124Y-111915478D01*
X108757858Y-111862744D01*
X108799291Y-111800734D01*
X108827831Y-111731834D01*
X108842380Y-111658689D01*
X108842380Y-111584111D01*
X108827831Y-111510966D01*
X108799291Y-111442066D01*
X108757858Y-111380056D01*
X108705124Y-111327322D01*
X108643114Y-111285889D01*
X108574214Y-111257349D01*
X108501069Y-111242800D01*
X108426491Y-111242800D01*
X108353346Y-111257349D01*
X108284446Y-111285889D01*
X108222436Y-111327322D01*
X108169702Y-111380056D01*
X108128269Y-111442066D01*
X108099729Y-111510966D01*
X108085180Y-111584111D01*
X106474920Y-111584111D01*
X106474920Y-111464548D01*
X108135360Y-109804109D01*
X108135360Y-109843351D01*
X108150870Y-109921326D01*
X108181294Y-109994776D01*
X108225463Y-110060880D01*
X108281680Y-110117097D01*
X108347784Y-110161266D01*
X108421234Y-110191690D01*
X108499209Y-110207200D01*
X108578711Y-110207200D01*
X108656686Y-110191690D01*
X108730136Y-110161266D01*
X108796240Y-110117097D01*
X108852457Y-110060880D01*
X108896626Y-109994776D01*
X108927050Y-109921326D01*
X108942560Y-109843351D01*
X108942560Y-109763849D01*
X108927050Y-109685874D01*
X108896626Y-109612424D01*
X108852457Y-109546320D01*
X108796240Y-109490103D01*
X108730136Y-109445934D01*
X108656686Y-109415510D01*
X108578711Y-109400000D01*
X108539469Y-109400000D01*
X108698143Y-109241326D01*
X108712680Y-109229396D01*
X108737480Y-109199177D01*
X108760291Y-109171382D01*
X108795670Y-109105193D01*
X108800820Y-109088215D01*
X108817456Y-109033374D01*
X108822969Y-108977398D01*
X108822969Y-108977395D01*
X108824812Y-108958685D01*
X108822969Y-108939975D01*
X108822969Y-108210040D01*
X109180021Y-108210040D01*
X109180021Y-110095920D01*
X109178177Y-110114640D01*
X109185534Y-110189328D01*
X109207319Y-110261147D01*
X109242698Y-110327336D01*
X109259398Y-110347685D01*
X109252146Y-110350689D01*
X109190136Y-110392122D01*
X109137402Y-110444856D01*
X109095969Y-110506866D01*
X109067429Y-110575766D01*
X109052880Y-110648911D01*
X109052880Y-110723489D01*
X109067429Y-110796634D01*
X109095969Y-110865534D01*
X109137402Y-110927544D01*
X109190136Y-110980278D01*
X109252146Y-111021711D01*
X109321046Y-111050251D01*
X109394191Y-111064800D01*
X109468769Y-111064800D01*
X109541914Y-111050251D01*
X109610814Y-111021711D01*
X109672824Y-110980278D01*
X109725558Y-110927544D01*
X109766991Y-110865534D01*
X109768780Y-110861215D01*
X109901380Y-110993815D01*
X109901380Y-111108557D01*
X109894290Y-111125674D01*
X109878780Y-111203649D01*
X109878780Y-111283151D01*
X109894290Y-111361126D01*
X109924714Y-111434576D01*
X109968883Y-111500680D01*
X110025100Y-111556897D01*
X110091204Y-111601066D01*
X110164654Y-111631490D01*
X110242629Y-111647000D01*
X110322131Y-111647000D01*
X110400106Y-111631490D01*
X110473556Y-111601066D01*
X110539660Y-111556897D01*
X110595877Y-111500680D01*
X110640046Y-111434576D01*
X110670470Y-111361126D01*
X110685980Y-111283151D01*
X110685980Y-111203649D01*
X110670470Y-111125674D01*
X110663380Y-111108557D01*
X110663380Y-111097207D01*
X110726811Y-111097207D01*
X110804786Y-111081697D01*
X110878236Y-111051273D01*
X110944340Y-111007104D01*
X111000557Y-110950887D01*
X111044726Y-110884783D01*
X111075150Y-110811333D01*
X111090660Y-110733358D01*
X111090660Y-110653856D01*
X111075150Y-110575881D01*
X111044726Y-110502431D01*
X111000557Y-110436327D01*
X110944340Y-110380110D01*
X110878236Y-110335941D01*
X110804786Y-110305517D01*
X110726811Y-110290007D01*
X110647309Y-110290007D01*
X110569334Y-110305517D01*
X110495884Y-110335941D01*
X110429780Y-110380110D01*
X110397542Y-110412348D01*
X110140187Y-110154993D01*
X110170746Y-110167651D01*
X110243891Y-110182200D01*
X110318469Y-110182200D01*
X110391614Y-110167651D01*
X110460514Y-110139111D01*
X110522524Y-110097678D01*
X110575258Y-110044944D01*
X110616691Y-109982934D01*
X110645231Y-109914034D01*
X110659780Y-109840889D01*
X110659780Y-109766311D01*
X110645231Y-109693166D01*
X110616691Y-109624266D01*
X110575258Y-109562256D01*
X110522524Y-109509522D01*
X110460514Y-109468089D01*
X110391614Y-109439549D01*
X110318469Y-109425000D01*
X110243891Y-109425000D01*
X110170746Y-109439549D01*
X110101846Y-109468089D01*
X110039836Y-109509522D01*
X109987102Y-109562256D01*
X109945669Y-109624266D01*
X109942020Y-109633075D01*
X109942020Y-108210040D01*
X110117280Y-108210040D01*
X110117280Y-108249191D01*
X110117281Y-108756967D01*
X110112730Y-108767954D01*
X110097220Y-108845929D01*
X110097220Y-108925431D01*
X110112730Y-109003406D01*
X110143154Y-109076856D01*
X110187323Y-109142960D01*
X110243540Y-109199177D01*
X110309644Y-109243346D01*
X110383094Y-109273770D01*
X110461069Y-109289280D01*
X110540571Y-109289280D01*
X110618546Y-109273770D01*
X110691996Y-109243346D01*
X110758100Y-109199177D01*
X110814317Y-109142960D01*
X110858486Y-109076856D01*
X110888910Y-109003406D01*
X110904420Y-108925431D01*
X110904420Y-108845929D01*
X110888910Y-108767954D01*
X110879280Y-108744705D01*
X110879280Y-108210040D01*
X112106100Y-108210040D01*
X112106100Y-109536027D01*
X112080706Y-109525508D01*
X112002731Y-109509998D01*
X111923229Y-109509998D01*
X111845254Y-109525508D01*
X111771804Y-109555932D01*
X111705700Y-109600101D01*
X111649483Y-109656318D01*
X111605314Y-109722422D01*
X111574890Y-109795872D01*
X111559380Y-109873847D01*
X111559380Y-109953349D01*
X111574890Y-110031324D01*
X111605314Y-110104774D01*
X111649483Y-110170878D01*
X111705700Y-110227095D01*
X111771804Y-110271264D01*
X111845254Y-110301688D01*
X111923229Y-110317198D01*
X112002731Y-110317198D01*
X112080706Y-110301688D01*
X112106100Y-110291169D01*
X112106100Y-119373340D01*
X102802697Y-119373340D01*
X102834733Y-119351934D01*
X102897914Y-119288753D01*
X102947555Y-119214460D01*
X102981749Y-119131910D01*
X102999180Y-119044276D01*
X102999180Y-118954924D01*
X102995478Y-118936311D01*
X109213860Y-118936311D01*
X109213860Y-119010889D01*
X109228409Y-119084034D01*
X109256949Y-119152934D01*
X109298382Y-119214944D01*
X109351116Y-119267678D01*
X109413126Y-119309111D01*
X109482026Y-119337651D01*
X109555171Y-119352200D01*
X109629749Y-119352200D01*
X109702894Y-119337651D01*
X109771794Y-119309111D01*
X109833804Y-119267678D01*
X109886538Y-119214944D01*
X109927971Y-119152934D01*
X109956511Y-119084034D01*
X109971060Y-119010889D01*
X109971060Y-118936311D01*
X109956511Y-118863166D01*
X109927971Y-118794266D01*
X109886538Y-118732256D01*
X109833804Y-118679522D01*
X109771794Y-118638089D01*
X109702894Y-118609549D01*
X109629749Y-118595000D01*
X109555171Y-118595000D01*
X109482026Y-118609549D01*
X109413126Y-118638089D01*
X109351116Y-118679522D01*
X109298382Y-118732256D01*
X109256949Y-118794266D01*
X109228409Y-118863166D01*
X109213860Y-118936311D01*
X102995478Y-118936311D01*
X102981749Y-118867290D01*
X102947555Y-118784740D01*
X102897914Y-118710447D01*
X102834733Y-118647266D01*
X102760440Y-118597625D01*
X102677890Y-118563431D01*
X102590256Y-118546000D01*
X102500904Y-118546000D01*
X102413270Y-118563431D01*
X102330720Y-118597625D01*
X102256427Y-118647266D01*
X102212800Y-118690893D01*
X102212800Y-118090231D01*
X103674380Y-118090231D01*
X103674380Y-118164809D01*
X103688929Y-118237954D01*
X103717469Y-118306854D01*
X103758902Y-118368864D01*
X103811636Y-118421598D01*
X103873646Y-118463031D01*
X103942546Y-118491571D01*
X104015691Y-118506120D01*
X104090269Y-118506120D01*
X104163414Y-118491571D01*
X104232314Y-118463031D01*
X104294324Y-118421598D01*
X104347058Y-118368864D01*
X104388491Y-118306854D01*
X104417031Y-118237954D01*
X104431580Y-118164809D01*
X104431580Y-118090231D01*
X104417031Y-118017086D01*
X104413811Y-118009311D01*
X106027780Y-118009311D01*
X106027780Y-118083889D01*
X106042329Y-118157034D01*
X106070869Y-118225934D01*
X106112302Y-118287944D01*
X106165036Y-118340678D01*
X106227046Y-118382111D01*
X106295946Y-118410651D01*
X106369091Y-118425200D01*
X106443669Y-118425200D01*
X106516814Y-118410651D01*
X106585714Y-118382111D01*
X106647724Y-118340678D01*
X106700458Y-118287944D01*
X106741891Y-118225934D01*
X106770431Y-118157034D01*
X106784980Y-118083889D01*
X106784980Y-118009311D01*
X106770431Y-117936166D01*
X106741891Y-117867266D01*
X106700458Y-117805256D01*
X106647724Y-117752522D01*
X106585714Y-117711089D01*
X106516814Y-117682549D01*
X106443669Y-117668000D01*
X106369091Y-117668000D01*
X106295946Y-117682549D01*
X106227046Y-117711089D01*
X106165036Y-117752522D01*
X106112302Y-117805256D01*
X106070869Y-117867266D01*
X106042329Y-117936166D01*
X106027780Y-118009311D01*
X104413811Y-118009311D01*
X104388491Y-117948186D01*
X104347058Y-117886176D01*
X104294324Y-117833442D01*
X104232314Y-117792009D01*
X104163414Y-117763469D01*
X104090269Y-117748920D01*
X104015691Y-117748920D01*
X103942546Y-117763469D01*
X103873646Y-117792009D01*
X103811636Y-117833442D01*
X103758902Y-117886176D01*
X103717469Y-117948186D01*
X103688929Y-118017086D01*
X103674380Y-118090231D01*
X102212800Y-118090231D01*
X102212800Y-117489111D01*
X111325380Y-117489111D01*
X111325380Y-117563689D01*
X111339929Y-117636834D01*
X111368469Y-117705734D01*
X111409902Y-117767744D01*
X111462636Y-117820478D01*
X111524646Y-117861911D01*
X111593546Y-117890451D01*
X111666691Y-117905000D01*
X111741269Y-117905000D01*
X111814414Y-117890451D01*
X111883314Y-117861911D01*
X111945324Y-117820478D01*
X111998058Y-117767744D01*
X112039491Y-117705734D01*
X112068031Y-117636834D01*
X112082580Y-117563689D01*
X112082580Y-117489111D01*
X112068031Y-117415966D01*
X112039491Y-117347066D01*
X111998058Y-117285056D01*
X111945324Y-117232322D01*
X111883314Y-117190889D01*
X111814414Y-117162349D01*
X111741269Y-117147800D01*
X111666691Y-117147800D01*
X111593546Y-117162349D01*
X111524646Y-117190889D01*
X111462636Y-117232322D01*
X111409902Y-117285056D01*
X111368469Y-117347066D01*
X111339929Y-117415966D01*
X111325380Y-117489111D01*
X102212800Y-117489111D01*
X102212800Y-116701711D01*
X110480720Y-116701711D01*
X110480720Y-116776289D01*
X110495269Y-116849434D01*
X110523809Y-116918334D01*
X110565242Y-116980344D01*
X110617976Y-117033078D01*
X110679986Y-117074511D01*
X110748886Y-117103051D01*
X110822031Y-117117600D01*
X110896609Y-117117600D01*
X110969754Y-117103051D01*
X111038654Y-117074511D01*
X111100664Y-117033078D01*
X111153398Y-116980344D01*
X111194831Y-116918334D01*
X111223371Y-116849434D01*
X111237920Y-116776289D01*
X111237920Y-116701711D01*
X111223371Y-116628566D01*
X111194831Y-116559666D01*
X111153398Y-116497656D01*
X111100664Y-116444922D01*
X111038654Y-116403489D01*
X110969754Y-116374949D01*
X110896609Y-116360400D01*
X110822031Y-116360400D01*
X110748886Y-116374949D01*
X110679986Y-116403489D01*
X110617976Y-116444922D01*
X110565242Y-116497656D01*
X110523809Y-116559666D01*
X110495269Y-116628566D01*
X110480720Y-116701711D01*
X102212800Y-116701711D01*
X102212800Y-109228489D01*
X102257844Y-109258586D01*
X102331294Y-109289010D01*
X102409269Y-109304520D01*
X102488771Y-109304520D01*
X102566746Y-109289010D01*
X102640196Y-109258586D01*
X102706300Y-109214417D01*
X102762517Y-109158200D01*
X102806686Y-109092096D01*
X102813777Y-109074977D01*
X102880449Y-109008305D01*
X102894991Y-108996371D01*
X102942602Y-108938356D01*
X102977981Y-108872168D01*
X102999767Y-108800349D01*
X103005280Y-108744373D01*
X103005280Y-108744371D01*
X103007123Y-108725661D01*
X103005280Y-108706951D01*
X103005280Y-108210040D01*
X103368503Y-108210040D01*
X103368503Y-109614479D01*
X103368503Y-109614479D01*
G37*
X103368503Y-109614479D02*
X103368504Y-111012060D01*
X102668012Y-111712554D01*
X102653470Y-111724488D01*
X102621847Y-111763022D01*
X102605859Y-111782503D01*
X102570481Y-111848691D01*
X102570480Y-111848692D01*
X102548694Y-111920511D01*
X102545109Y-111956911D01*
X102541338Y-111995199D01*
X102543181Y-112013909D01*
X102543182Y-115016081D01*
X102541338Y-115034801D01*
X102547840Y-115100811D01*
X102548695Y-115109490D01*
X102551739Y-115119524D01*
X102570480Y-115181308D01*
X102605859Y-115247497D01*
X102635191Y-115283238D01*
X102653471Y-115305512D01*
X102668008Y-115317442D01*
X102926805Y-115576240D01*
X102926810Y-115576244D01*
X103076805Y-115726240D01*
X103120284Y-115761922D01*
X103186472Y-115797301D01*
X103258291Y-115819086D01*
X103332980Y-115826443D01*
X103407669Y-115819086D01*
X103479487Y-115797301D01*
X103545676Y-115761922D01*
X103603691Y-115714311D01*
X103651302Y-115656296D01*
X103686681Y-115590107D01*
X103708466Y-115518289D01*
X103715823Y-115443600D01*
X103708466Y-115368911D01*
X103686681Y-115297092D01*
X103651302Y-115230904D01*
X103615620Y-115187425D01*
X103561746Y-115133552D01*
X103605225Y-115142200D01*
X103684727Y-115142200D01*
X103762702Y-115126690D01*
X103779819Y-115119600D01*
X103844408Y-115119600D01*
X103863118Y-115121443D01*
X103880621Y-115119719D01*
X103887190Y-115152746D01*
X103917614Y-115226196D01*
X103961783Y-115292300D01*
X104018000Y-115348517D01*
X104084104Y-115392686D01*
X104157554Y-115423110D01*
X104235529Y-115438620D01*
X104315031Y-115438620D01*
X104393006Y-115423110D01*
X104466456Y-115392686D01*
X104504338Y-115367374D01*
X104493980Y-115419449D01*
X104493980Y-115498951D01*
X104509490Y-115576926D01*
X104539914Y-115650376D01*
X104584083Y-115716480D01*
X104640300Y-115772697D01*
X104706404Y-115816866D01*
X104779854Y-115847290D01*
X104857829Y-115862800D01*
X104937331Y-115862800D01*
X105015306Y-115847290D01*
X105088756Y-115816866D01*
X105154860Y-115772697D01*
X105211077Y-115716480D01*
X105255246Y-115650376D01*
X105262336Y-115633258D01*
X105504164Y-115391431D01*
X108735380Y-115391431D01*
X108735380Y-115466009D01*
X108749929Y-115539154D01*
X108778469Y-115608054D01*
X108819902Y-115670064D01*
X108872636Y-115722798D01*
X108934646Y-115764231D01*
X109003546Y-115792771D01*
X109076691Y-115807320D01*
X109151269Y-115807320D01*
X109224414Y-115792771D01*
X109293314Y-115764231D01*
X109355324Y-115722798D01*
X109408058Y-115670064D01*
X109449491Y-115608054D01*
X109478031Y-115539154D01*
X109492580Y-115466009D01*
X109492580Y-115391431D01*
X109478031Y-115318286D01*
X109449491Y-115249386D01*
X109408058Y-115187376D01*
X109355324Y-115134642D01*
X109293314Y-115093209D01*
X109224414Y-115064669D01*
X109151269Y-115050120D01*
X109076691Y-115050120D01*
X109003546Y-115064669D01*
X108934646Y-115093209D01*
X108872636Y-115134642D01*
X108819902Y-115187376D01*
X108778469Y-115249386D01*
X108749929Y-115318286D01*
X108735380Y-115391431D01*
X105504164Y-115391431D01*
X105512148Y-115383448D01*
X105526680Y-115371522D01*
X105538606Y-115356990D01*
X105538609Y-115356987D01*
X105574291Y-115313508D01*
X105603791Y-115258318D01*
X105643126Y-115274611D01*
X105716271Y-115289160D01*
X105790849Y-115289160D01*
X105863994Y-115274611D01*
X105932894Y-115246071D01*
X105994904Y-115204638D01*
X106047638Y-115151904D01*
X106089071Y-115089894D01*
X106117611Y-115020994D01*
X106129283Y-114962311D01*
X110498180Y-114962311D01*
X110498180Y-115036889D01*
X110512729Y-115110034D01*
X110541269Y-115178934D01*
X110582702Y-115240944D01*
X110635436Y-115293678D01*
X110697446Y-115335111D01*
X110766346Y-115363651D01*
X110839491Y-115378200D01*
X110914069Y-115378200D01*
X110987214Y-115363651D01*
X111056114Y-115335111D01*
X111118124Y-115293678D01*
X111170858Y-115240944D01*
X111212291Y-115178934D01*
X111240831Y-115110034D01*
X111255380Y-115036889D01*
X111255380Y-114962311D01*
X111240831Y-114889166D01*
X111212291Y-114820266D01*
X111170858Y-114758256D01*
X111118124Y-114705522D01*
X111056114Y-114664089D01*
X110987214Y-114635549D01*
X110914069Y-114621000D01*
X110839491Y-114621000D01*
X110766346Y-114635549D01*
X110697446Y-114664089D01*
X110635436Y-114705522D01*
X110582702Y-114758256D01*
X110541269Y-114820266D01*
X110512729Y-114889166D01*
X110498180Y-114962311D01*
X106129283Y-114962311D01*
X106132160Y-114947849D01*
X106132160Y-114873271D01*
X106117611Y-114800126D01*
X106089071Y-114731226D01*
X106047638Y-114669216D01*
X105994904Y-114616482D01*
X105932894Y-114575049D01*
X105863994Y-114546509D01*
X105790849Y-114531960D01*
X105716271Y-114531960D01*
X105643126Y-114546509D01*
X105636969Y-114549059D01*
X105636969Y-114430911D01*
X108753380Y-114430911D01*
X108753380Y-114505489D01*
X108767929Y-114578634D01*
X108796469Y-114647534D01*
X108837902Y-114709544D01*
X108890636Y-114762278D01*
X108952646Y-114803711D01*
X109021546Y-114832251D01*
X109094691Y-114846800D01*
X109169269Y-114846800D01*
X109242414Y-114832251D01*
X109311314Y-114803711D01*
X109373324Y-114762278D01*
X109426058Y-114709544D01*
X109467491Y-114647534D01*
X109496031Y-114578634D01*
X109510580Y-114505489D01*
X109510580Y-114430911D01*
X109496031Y-114357766D01*
X109467491Y-114288866D01*
X109426058Y-114226856D01*
X109373324Y-114174122D01*
X109311314Y-114132689D01*
X109242414Y-114104149D01*
X109169269Y-114089600D01*
X109094691Y-114089600D01*
X109021546Y-114104149D01*
X108952646Y-114132689D01*
X108890636Y-114174122D01*
X108837902Y-114226856D01*
X108796469Y-114288866D01*
X108767929Y-114357766D01*
X108753380Y-114430911D01*
X105636969Y-114430911D01*
X105636969Y-114368675D01*
X105665549Y-114374360D01*
X105745051Y-114374360D01*
X105823026Y-114358850D01*
X105896476Y-114328426D01*
X105962580Y-114284257D01*
X106018797Y-114228040D01*
X106062966Y-114161936D01*
X106093390Y-114088486D01*
X106096607Y-114072311D01*
X110506620Y-114072311D01*
X110506620Y-114146889D01*
X110521169Y-114220034D01*
X110549709Y-114288934D01*
X110591142Y-114350944D01*
X110643876Y-114403678D01*
X110705886Y-114445111D01*
X110774786Y-114473651D01*
X110847931Y-114488200D01*
X110922509Y-114488200D01*
X110995654Y-114473651D01*
X111064554Y-114445111D01*
X111126564Y-114403678D01*
X111179298Y-114350944D01*
X111220731Y-114288934D01*
X111249271Y-114220034D01*
X111263820Y-114146889D01*
X111263820Y-114072311D01*
X111249271Y-113999166D01*
X111220731Y-113930266D01*
X111179298Y-113868256D01*
X111126564Y-113815522D01*
X111064554Y-113774089D01*
X110995654Y-113745549D01*
X110922509Y-113731000D01*
X110847931Y-113731000D01*
X110774786Y-113745549D01*
X110705886Y-113774089D01*
X110643876Y-113815522D01*
X110591142Y-113868256D01*
X110549709Y-113930266D01*
X110521169Y-113999166D01*
X110506620Y-114072311D01*
X106096607Y-114072311D01*
X106108900Y-114010511D01*
X106108900Y-113980660D01*
X106128591Y-113980660D01*
X106206566Y-113965150D01*
X106280016Y-113934726D01*
X106346120Y-113890557D01*
X106402337Y-113834340D01*
X106446506Y-113768236D01*
X106476930Y-113694786D01*
X106492440Y-113616811D01*
X106492440Y-113538555D01*
X106569789Y-113553940D01*
X106649291Y-113553940D01*
X106727266Y-113538430D01*
X106800716Y-113508006D01*
X106866820Y-113463837D01*
X106923037Y-113407620D01*
X106967206Y-113341516D01*
X106972899Y-113327771D01*
X107154320Y-113327771D01*
X107154320Y-113402349D01*
X107168869Y-113475494D01*
X107197409Y-113544394D01*
X107238842Y-113606404D01*
X107291576Y-113659138D01*
X107353586Y-113700571D01*
X107422486Y-113729111D01*
X107495631Y-113743660D01*
X107570209Y-113743660D01*
X107643354Y-113729111D01*
X107712254Y-113700571D01*
X107774264Y-113659138D01*
X107826998Y-113606404D01*
X107868431Y-113544394D01*
X107896971Y-113475494D01*
X107911520Y-113402349D01*
X107911520Y-113327771D01*
X107896971Y-113254626D01*
X107868431Y-113185726D01*
X107826998Y-113123716D01*
X107774264Y-113070982D01*
X107712254Y-113029549D01*
X107643354Y-113001009D01*
X107570209Y-112986460D01*
X107495631Y-112986460D01*
X107422486Y-113001009D01*
X107353586Y-113029549D01*
X107291576Y-113070982D01*
X107238842Y-113123716D01*
X107197409Y-113185726D01*
X107168869Y-113254626D01*
X107154320Y-113327771D01*
X106972899Y-113327771D01*
X106997630Y-113268066D01*
X107013140Y-113190091D01*
X107013140Y-113110589D01*
X106997630Y-113032614D01*
X106967206Y-112959164D01*
X106923037Y-112893060D01*
X106866820Y-112836843D01*
X106800716Y-112792674D01*
X106727266Y-112762250D01*
X106649291Y-112746740D01*
X106569789Y-112746740D01*
X106494817Y-112761653D01*
X106494980Y-112760831D01*
X106494980Y-112681329D01*
X106479470Y-112603354D01*
X106472380Y-112586237D01*
X106472380Y-112446711D01*
X107145380Y-112446711D01*
X107145380Y-112521289D01*
X107159929Y-112594434D01*
X107188469Y-112663334D01*
X107229902Y-112725344D01*
X107282636Y-112778078D01*
X107344646Y-112819511D01*
X107413546Y-112848051D01*
X107486691Y-112862600D01*
X107561269Y-112862600D01*
X107634414Y-112848051D01*
X107703314Y-112819511D01*
X107765324Y-112778078D01*
X107818058Y-112725344D01*
X107859491Y-112663334D01*
X107888031Y-112594434D01*
X107902580Y-112521289D01*
X107902580Y-112446711D01*
X107897528Y-112421311D01*
X109024980Y-112421311D01*
X109024980Y-112495889D01*
X109039529Y-112569034D01*
X109068069Y-112637934D01*
X109109502Y-112699944D01*
X109162236Y-112752678D01*
X109224246Y-112794111D01*
X109293146Y-112822651D01*
X109366291Y-112837200D01*
X109440869Y-112837200D01*
X109514014Y-112822651D01*
X109582914Y-112794111D01*
X109644924Y-112752678D01*
X109697658Y-112699944D01*
X109739091Y-112637934D01*
X109767631Y-112569034D01*
X109782180Y-112495889D01*
X109782180Y-112421311D01*
X109772076Y-112370511D01*
X110415180Y-112370511D01*
X110415180Y-112445089D01*
X110429729Y-112518234D01*
X110458269Y-112587134D01*
X110499702Y-112649144D01*
X110552436Y-112701878D01*
X110614446Y-112743311D01*
X110683346Y-112771851D01*
X110756491Y-112786400D01*
X110831069Y-112786400D01*
X110904214Y-112771851D01*
X110973114Y-112743311D01*
X111035124Y-112701878D01*
X111087858Y-112649144D01*
X111129291Y-112587134D01*
X111157831Y-112518234D01*
X111172380Y-112445089D01*
X111172380Y-112370511D01*
X111157831Y-112297366D01*
X111129291Y-112228466D01*
X111087858Y-112166456D01*
X111035124Y-112113722D01*
X110973114Y-112072289D01*
X110904214Y-112043749D01*
X110831069Y-112029200D01*
X110756491Y-112029200D01*
X110683346Y-112043749D01*
X110614446Y-112072289D01*
X110552436Y-112113722D01*
X110499702Y-112166456D01*
X110458269Y-112228466D01*
X110429729Y-112297366D01*
X110415180Y-112370511D01*
X109772076Y-112370511D01*
X109767631Y-112348166D01*
X109739091Y-112279266D01*
X109697658Y-112217256D01*
X109644924Y-112164522D01*
X109582914Y-112123089D01*
X109514014Y-112094549D01*
X109440869Y-112080000D01*
X109366291Y-112080000D01*
X109293146Y-112094549D01*
X109224246Y-112123089D01*
X109162236Y-112164522D01*
X109109502Y-112217256D01*
X109068069Y-112279266D01*
X109039529Y-112348166D01*
X109024980Y-112421311D01*
X107897528Y-112421311D01*
X107888031Y-112373566D01*
X107859491Y-112304666D01*
X107818058Y-112242656D01*
X107765324Y-112189922D01*
X107703314Y-112148489D01*
X107634414Y-112119949D01*
X107561269Y-112105400D01*
X107486691Y-112105400D01*
X107413546Y-112119949D01*
X107344646Y-112148489D01*
X107282636Y-112189922D01*
X107229902Y-112242656D01*
X107188469Y-112304666D01*
X107159929Y-112373566D01*
X107145380Y-112446711D01*
X106472380Y-112446711D01*
X106472380Y-112292045D01*
X106474920Y-112266255D01*
X106474920Y-112266253D01*
X106476763Y-112247543D01*
X106474920Y-112228833D01*
X106474920Y-111584111D01*
X108085180Y-111584111D01*
X108085180Y-111658689D01*
X108099729Y-111731834D01*
X108128269Y-111800734D01*
X108169702Y-111862744D01*
X108222436Y-111915478D01*
X108284446Y-111956911D01*
X108353346Y-111985451D01*
X108426491Y-112000000D01*
X108501069Y-112000000D01*
X108574214Y-111985451D01*
X108643114Y-111956911D01*
X108705124Y-111915478D01*
X108757858Y-111862744D01*
X108799291Y-111800734D01*
X108827831Y-111731834D01*
X108842380Y-111658689D01*
X108842380Y-111584111D01*
X108827831Y-111510966D01*
X108799291Y-111442066D01*
X108757858Y-111380056D01*
X108705124Y-111327322D01*
X108643114Y-111285889D01*
X108574214Y-111257349D01*
X108501069Y-111242800D01*
X108426491Y-111242800D01*
X108353346Y-111257349D01*
X108284446Y-111285889D01*
X108222436Y-111327322D01*
X108169702Y-111380056D01*
X108128269Y-111442066D01*
X108099729Y-111510966D01*
X108085180Y-111584111D01*
X106474920Y-111584111D01*
X106474920Y-111464548D01*
X108135360Y-109804109D01*
X108135360Y-109843351D01*
X108150870Y-109921326D01*
X108181294Y-109994776D01*
X108225463Y-110060880D01*
X108281680Y-110117097D01*
X108347784Y-110161266D01*
X108421234Y-110191690D01*
X108499209Y-110207200D01*
X108578711Y-110207200D01*
X108656686Y-110191690D01*
X108730136Y-110161266D01*
X108796240Y-110117097D01*
X108852457Y-110060880D01*
X108896626Y-109994776D01*
X108927050Y-109921326D01*
X108942560Y-109843351D01*
X108942560Y-109763849D01*
X108927050Y-109685874D01*
X108896626Y-109612424D01*
X108852457Y-109546320D01*
X108796240Y-109490103D01*
X108730136Y-109445934D01*
X108656686Y-109415510D01*
X108578711Y-109400000D01*
X108539469Y-109400000D01*
X108698143Y-109241326D01*
X108712680Y-109229396D01*
X108737480Y-109199177D01*
X108760291Y-109171382D01*
X108795670Y-109105193D01*
X108800820Y-109088215D01*
X108817456Y-109033374D01*
X108822969Y-108977398D01*
X108822969Y-108977395D01*
X108824812Y-108958685D01*
X108822969Y-108939975D01*
X108822969Y-108210040D01*
X109180021Y-108210040D01*
X109180021Y-110095920D01*
X109178177Y-110114640D01*
X109185534Y-110189328D01*
X109207319Y-110261147D01*
X109242698Y-110327336D01*
X109259398Y-110347685D01*
X109252146Y-110350689D01*
X109190136Y-110392122D01*
X109137402Y-110444856D01*
X109095969Y-110506866D01*
X109067429Y-110575766D01*
X109052880Y-110648911D01*
X109052880Y-110723489D01*
X109067429Y-110796634D01*
X109095969Y-110865534D01*
X109137402Y-110927544D01*
X109190136Y-110980278D01*
X109252146Y-111021711D01*
X109321046Y-111050251D01*
X109394191Y-111064800D01*
X109468769Y-111064800D01*
X109541914Y-111050251D01*
X109610814Y-111021711D01*
X109672824Y-110980278D01*
X109725558Y-110927544D01*
X109766991Y-110865534D01*
X109768780Y-110861215D01*
X109901380Y-110993815D01*
X109901380Y-111108557D01*
X109894290Y-111125674D01*
X109878780Y-111203649D01*
X109878780Y-111283151D01*
X109894290Y-111361126D01*
X109924714Y-111434576D01*
X109968883Y-111500680D01*
X110025100Y-111556897D01*
X110091204Y-111601066D01*
X110164654Y-111631490D01*
X110242629Y-111647000D01*
X110322131Y-111647000D01*
X110400106Y-111631490D01*
X110473556Y-111601066D01*
X110539660Y-111556897D01*
X110595877Y-111500680D01*
X110640046Y-111434576D01*
X110670470Y-111361126D01*
X110685980Y-111283151D01*
X110685980Y-111203649D01*
X110670470Y-111125674D01*
X110663380Y-111108557D01*
X110663380Y-111097207D01*
X110726811Y-111097207D01*
X110804786Y-111081697D01*
X110878236Y-111051273D01*
X110944340Y-111007104D01*
X111000557Y-110950887D01*
X111044726Y-110884783D01*
X111075150Y-110811333D01*
X111090660Y-110733358D01*
X111090660Y-110653856D01*
X111075150Y-110575881D01*
X111044726Y-110502431D01*
X111000557Y-110436327D01*
X110944340Y-110380110D01*
X110878236Y-110335941D01*
X110804786Y-110305517D01*
X110726811Y-110290007D01*
X110647309Y-110290007D01*
X110569334Y-110305517D01*
X110495884Y-110335941D01*
X110429780Y-110380110D01*
X110397542Y-110412348D01*
X110140187Y-110154993D01*
X110170746Y-110167651D01*
X110243891Y-110182200D01*
X110318469Y-110182200D01*
X110391614Y-110167651D01*
X110460514Y-110139111D01*
X110522524Y-110097678D01*
X110575258Y-110044944D01*
X110616691Y-109982934D01*
X110645231Y-109914034D01*
X110659780Y-109840889D01*
X110659780Y-109766311D01*
X110645231Y-109693166D01*
X110616691Y-109624266D01*
X110575258Y-109562256D01*
X110522524Y-109509522D01*
X110460514Y-109468089D01*
X110391614Y-109439549D01*
X110318469Y-109425000D01*
X110243891Y-109425000D01*
X110170746Y-109439549D01*
X110101846Y-109468089D01*
X110039836Y-109509522D01*
X109987102Y-109562256D01*
X109945669Y-109624266D01*
X109942020Y-109633075D01*
X109942020Y-108210040D01*
X110117280Y-108210040D01*
X110117280Y-108249191D01*
X110117281Y-108756967D01*
X110112730Y-108767954D01*
X110097220Y-108845929D01*
X110097220Y-108925431D01*
X110112730Y-109003406D01*
X110143154Y-109076856D01*
X110187323Y-109142960D01*
X110243540Y-109199177D01*
X110309644Y-109243346D01*
X110383094Y-109273770D01*
X110461069Y-109289280D01*
X110540571Y-109289280D01*
X110618546Y-109273770D01*
X110691996Y-109243346D01*
X110758100Y-109199177D01*
X110814317Y-109142960D01*
X110858486Y-109076856D01*
X110888910Y-109003406D01*
X110904420Y-108925431D01*
X110904420Y-108845929D01*
X110888910Y-108767954D01*
X110879280Y-108744705D01*
X110879280Y-108210040D01*
X112106100Y-108210040D01*
X112106100Y-109536027D01*
X112080706Y-109525508D01*
X112002731Y-109509998D01*
X111923229Y-109509998D01*
X111845254Y-109525508D01*
X111771804Y-109555932D01*
X111705700Y-109600101D01*
X111649483Y-109656318D01*
X111605314Y-109722422D01*
X111574890Y-109795872D01*
X111559380Y-109873847D01*
X111559380Y-109953349D01*
X111574890Y-110031324D01*
X111605314Y-110104774D01*
X111649483Y-110170878D01*
X111705700Y-110227095D01*
X111771804Y-110271264D01*
X111845254Y-110301688D01*
X111923229Y-110317198D01*
X112002731Y-110317198D01*
X112080706Y-110301688D01*
X112106100Y-110291169D01*
X112106100Y-119373340D01*
X102802697Y-119373340D01*
X102834733Y-119351934D01*
X102897914Y-119288753D01*
X102947555Y-119214460D01*
X102981749Y-119131910D01*
X102999180Y-119044276D01*
X102999180Y-118954924D01*
X102995478Y-118936311D01*
X109213860Y-118936311D01*
X109213860Y-119010889D01*
X109228409Y-119084034D01*
X109256949Y-119152934D01*
X109298382Y-119214944D01*
X109351116Y-119267678D01*
X109413126Y-119309111D01*
X109482026Y-119337651D01*
X109555171Y-119352200D01*
X109629749Y-119352200D01*
X109702894Y-119337651D01*
X109771794Y-119309111D01*
X109833804Y-119267678D01*
X109886538Y-119214944D01*
X109927971Y-119152934D01*
X109956511Y-119084034D01*
X109971060Y-119010889D01*
X109971060Y-118936311D01*
X109956511Y-118863166D01*
X109927971Y-118794266D01*
X109886538Y-118732256D01*
X109833804Y-118679522D01*
X109771794Y-118638089D01*
X109702894Y-118609549D01*
X109629749Y-118595000D01*
X109555171Y-118595000D01*
X109482026Y-118609549D01*
X109413126Y-118638089D01*
X109351116Y-118679522D01*
X109298382Y-118732256D01*
X109256949Y-118794266D01*
X109228409Y-118863166D01*
X109213860Y-118936311D01*
X102995478Y-118936311D01*
X102981749Y-118867290D01*
X102947555Y-118784740D01*
X102897914Y-118710447D01*
X102834733Y-118647266D01*
X102760440Y-118597625D01*
X102677890Y-118563431D01*
X102590256Y-118546000D01*
X102500904Y-118546000D01*
X102413270Y-118563431D01*
X102330720Y-118597625D01*
X102256427Y-118647266D01*
X102212800Y-118690893D01*
X102212800Y-118090231D01*
X103674380Y-118090231D01*
X103674380Y-118164809D01*
X103688929Y-118237954D01*
X103717469Y-118306854D01*
X103758902Y-118368864D01*
X103811636Y-118421598D01*
X103873646Y-118463031D01*
X103942546Y-118491571D01*
X104015691Y-118506120D01*
X104090269Y-118506120D01*
X104163414Y-118491571D01*
X104232314Y-118463031D01*
X104294324Y-118421598D01*
X104347058Y-118368864D01*
X104388491Y-118306854D01*
X104417031Y-118237954D01*
X104431580Y-118164809D01*
X104431580Y-118090231D01*
X104417031Y-118017086D01*
X104413811Y-118009311D01*
X106027780Y-118009311D01*
X106027780Y-118083889D01*
X106042329Y-118157034D01*
X106070869Y-118225934D01*
X106112302Y-118287944D01*
X106165036Y-118340678D01*
X106227046Y-118382111D01*
X106295946Y-118410651D01*
X106369091Y-118425200D01*
X106443669Y-118425200D01*
X106516814Y-118410651D01*
X106585714Y-118382111D01*
X106647724Y-118340678D01*
X106700458Y-118287944D01*
X106741891Y-118225934D01*
X106770431Y-118157034D01*
X106784980Y-118083889D01*
X106784980Y-118009311D01*
X106770431Y-117936166D01*
X106741891Y-117867266D01*
X106700458Y-117805256D01*
X106647724Y-117752522D01*
X106585714Y-117711089D01*
X106516814Y-117682549D01*
X106443669Y-117668000D01*
X106369091Y-117668000D01*
X106295946Y-117682549D01*
X106227046Y-117711089D01*
X106165036Y-117752522D01*
X106112302Y-117805256D01*
X106070869Y-117867266D01*
X106042329Y-117936166D01*
X106027780Y-118009311D01*
X104413811Y-118009311D01*
X104388491Y-117948186D01*
X104347058Y-117886176D01*
X104294324Y-117833442D01*
X104232314Y-117792009D01*
X104163414Y-117763469D01*
X104090269Y-117748920D01*
X104015691Y-117748920D01*
X103942546Y-117763469D01*
X103873646Y-117792009D01*
X103811636Y-117833442D01*
X103758902Y-117886176D01*
X103717469Y-117948186D01*
X103688929Y-118017086D01*
X103674380Y-118090231D01*
X102212800Y-118090231D01*
X102212800Y-117489111D01*
X111325380Y-117489111D01*
X111325380Y-117563689D01*
X111339929Y-117636834D01*
X111368469Y-117705734D01*
X111409902Y-117767744D01*
X111462636Y-117820478D01*
X111524646Y-117861911D01*
X111593546Y-117890451D01*
X111666691Y-117905000D01*
X111741269Y-117905000D01*
X111814414Y-117890451D01*
X111883314Y-117861911D01*
X111945324Y-117820478D01*
X111998058Y-117767744D01*
X112039491Y-117705734D01*
X112068031Y-117636834D01*
X112082580Y-117563689D01*
X112082580Y-117489111D01*
X112068031Y-117415966D01*
X112039491Y-117347066D01*
X111998058Y-117285056D01*
X111945324Y-117232322D01*
X111883314Y-117190889D01*
X111814414Y-117162349D01*
X111741269Y-117147800D01*
X111666691Y-117147800D01*
X111593546Y-117162349D01*
X111524646Y-117190889D01*
X111462636Y-117232322D01*
X111409902Y-117285056D01*
X111368469Y-117347066D01*
X111339929Y-117415966D01*
X111325380Y-117489111D01*
X102212800Y-117489111D01*
X102212800Y-116701711D01*
X110480720Y-116701711D01*
X110480720Y-116776289D01*
X110495269Y-116849434D01*
X110523809Y-116918334D01*
X110565242Y-116980344D01*
X110617976Y-117033078D01*
X110679986Y-117074511D01*
X110748886Y-117103051D01*
X110822031Y-117117600D01*
X110896609Y-117117600D01*
X110969754Y-117103051D01*
X111038654Y-117074511D01*
X111100664Y-117033078D01*
X111153398Y-116980344D01*
X111194831Y-116918334D01*
X111223371Y-116849434D01*
X111237920Y-116776289D01*
X111237920Y-116701711D01*
X111223371Y-116628566D01*
X111194831Y-116559666D01*
X111153398Y-116497656D01*
X111100664Y-116444922D01*
X111038654Y-116403489D01*
X110969754Y-116374949D01*
X110896609Y-116360400D01*
X110822031Y-116360400D01*
X110748886Y-116374949D01*
X110679986Y-116403489D01*
X110617976Y-116444922D01*
X110565242Y-116497656D01*
X110523809Y-116559666D01*
X110495269Y-116628566D01*
X110480720Y-116701711D01*
X102212800Y-116701711D01*
X102212800Y-109228489D01*
X102257844Y-109258586D01*
X102331294Y-109289010D01*
X102409269Y-109304520D01*
X102488771Y-109304520D01*
X102566746Y-109289010D01*
X102640196Y-109258586D01*
X102706300Y-109214417D01*
X102762517Y-109158200D01*
X102806686Y-109092096D01*
X102813777Y-109074977D01*
X102880449Y-109008305D01*
X102894991Y-108996371D01*
X102942602Y-108938356D01*
X102977981Y-108872168D01*
X102999767Y-108800349D01*
X103005280Y-108744373D01*
X103005280Y-108744371D01*
X103007123Y-108725661D01*
X103005280Y-108706951D01*
X103005280Y-108210040D01*
X103368503Y-108210040D01*
X103368503Y-109614479D01*
G36*
X106735463Y-109139958D02*
G01*
X106791680Y-109196175D01*
X106857784Y-109240344D01*
X106931234Y-109270768D01*
X107009209Y-109286278D01*
X107088711Y-109286278D01*
X107166686Y-109270768D01*
X107240136Y-109240344D01*
X107306240Y-109196175D01*
X107310955Y-109191460D01*
X107373404Y-109233186D01*
X107446854Y-109263610D01*
X107524829Y-109279120D01*
X107582719Y-109279120D01*
X106043379Y-110818461D01*
X106043379Y-109736655D01*
X106697257Y-109082778D01*
X106735463Y-109139958D01*
X106735463Y-109139958D01*
G37*
X106735463Y-109139958D02*
X106791680Y-109196175D01*
X106857784Y-109240344D01*
X106931234Y-109270768D01*
X107009209Y-109286278D01*
X107088711Y-109286278D01*
X107166686Y-109270768D01*
X107240136Y-109240344D01*
X107306240Y-109196175D01*
X107310955Y-109191460D01*
X107373404Y-109233186D01*
X107446854Y-109263610D01*
X107524829Y-109279120D01*
X107582719Y-109279120D01*
X106043379Y-110818461D01*
X106043379Y-109736655D01*
X106697257Y-109082778D01*
X106735463Y-109139958D01*
M02*
