G04 #@! TF.GenerationSoftware,KiCad,Pcbnew,(5.1.4)-1*
G04 #@! TF.CreationDate,2020-08-13T23:55:06-07:00*
G04 #@! TF.ProjectId,Kicad_LFOV_RigidFlex_Assembly,4b696361-645f-44c4-964f-565f52696769,rev?*
G04 #@! TF.SameCoordinates,Original*
G04 #@! TF.FileFunction,Soldermask,Top*
G04 #@! TF.FilePolarity,Negative*
%FSLAX46Y46*%
G04 Gerber Fmt 4.6, Leading zero omitted, Abs format (unit mm)*
G04 Created by KiCad (PCBNEW (5.1.4)-1) date 2020-08-13 23:55:06*
%MOMM*%
%LPD*%
G04 APERTURE LIST*
%ADD10C,0.050000*%
%ADD11C,0.100000*%
G04 APERTURE END LIST*
D10*
X101303480Y-91189500D02*
X101786080Y-91189500D01*
X101305500Y-91456840D02*
X101303480Y-91189500D01*
X111411180Y-119428600D02*
X112171180Y-119428600D01*
X112171180Y-119428600D02*
X112171180Y-118668600D01*
X102851180Y-119428600D02*
X102091180Y-119428600D01*
X102091180Y-119428600D02*
X102091180Y-118668600D01*
X102851180Y-109348600D02*
X102091180Y-109348600D01*
X102091180Y-109348600D02*
X102091180Y-110108600D01*
X111411180Y-109348600D02*
X112171180Y-109348600D01*
X112171180Y-109348600D02*
X112171180Y-110108600D01*
X125047700Y-88947280D02*
G75*
G03X125047700Y-88947280I-100000J0D01*
G01*
X103034480Y-88039700D02*
X103034480Y-89919700D01*
X100334480Y-88039700D02*
X100334480Y-89919700D01*
X100950280Y-91425500D02*
X100950280Y-92985500D01*
X102520280Y-91425500D02*
X102520280Y-92985500D01*
X109521880Y-91057100D02*
X109521880Y-90647100D01*
X108121880Y-91057100D02*
X108121880Y-90647100D01*
X107431780Y-75071100D02*
G75*
G03X107431780Y-75071100I-20000J0D01*
G01*
X106981780Y-73593860D02*
G75*
G03X106981780Y-73593860I-20000J0D01*
G01*
D11*
G36*
X108981980Y-119277400D02*
G01*
X108301180Y-119277400D01*
X108301180Y-118646600D01*
X108981980Y-118646600D01*
X108981980Y-119277400D01*
X108981980Y-119277400D01*
G37*
G36*
X107661180Y-119252000D02*
G01*
X106980380Y-119252000D01*
X106980380Y-118621200D01*
X107661180Y-118621200D01*
X107661180Y-119252000D01*
X107661180Y-119252000D01*
G37*
G36*
X106746780Y-119252000D02*
G01*
X106065980Y-119252000D01*
X106065980Y-118621200D01*
X106746780Y-118621200D01*
X106746780Y-119252000D01*
X106746780Y-119252000D01*
G37*
G36*
X105832380Y-119226600D02*
G01*
X105151580Y-119226600D01*
X105151580Y-118595800D01*
X105832380Y-118595800D01*
X105832380Y-119226600D01*
X105832380Y-119226600D01*
G37*
G36*
X104518780Y-118632000D02*
G01*
X103637980Y-118632000D01*
X103637980Y-117701200D01*
X104518780Y-117701200D01*
X104518780Y-118632000D01*
X104518780Y-118632000D01*
G37*
G36*
X103078780Y-118632000D02*
G01*
X102197980Y-118632000D01*
X102197980Y-117701200D01*
X103078780Y-117701200D01*
X103078780Y-118632000D01*
X103078780Y-118632000D01*
G37*
G36*
X108981980Y-118387400D02*
G01*
X108301180Y-118387400D01*
X108301180Y-117756600D01*
X108981980Y-117756600D01*
X108981980Y-118387400D01*
X108981980Y-118387400D01*
G37*
G36*
X106746780Y-118362000D02*
G01*
X106065980Y-118362000D01*
X106065980Y-117731200D01*
X106746780Y-117731200D01*
X106746780Y-118362000D01*
X106746780Y-118362000D01*
G37*
G36*
X107661180Y-118362000D02*
G01*
X106980380Y-118362000D01*
X106980380Y-117731200D01*
X107661180Y-117731200D01*
X107661180Y-118362000D01*
X107661180Y-118362000D01*
G37*
G36*
X105832380Y-118336600D02*
G01*
X105151580Y-118336600D01*
X105151580Y-117705800D01*
X105832380Y-117705800D01*
X105832380Y-118336600D01*
X105832380Y-118336600D01*
G37*
G36*
X112080780Y-117042200D02*
G01*
X111399980Y-117042200D01*
X111399980Y-116411400D01*
X112080780Y-116411400D01*
X112080780Y-117042200D01*
X112080780Y-117042200D01*
G37*
G36*
X111156780Y-117007200D02*
G01*
X110545980Y-117007200D01*
X110545980Y-116466400D01*
X111156780Y-116466400D01*
X111156780Y-117007200D01*
X111156780Y-117007200D01*
G37*
G36*
X104518780Y-116742000D02*
G01*
X103637980Y-116742000D01*
X103637980Y-115811200D01*
X104518780Y-115811200D01*
X104518780Y-116742000D01*
X104518780Y-116742000D01*
G37*
G36*
X103078780Y-116742000D02*
G01*
X102197980Y-116742000D01*
X102197980Y-115811200D01*
X103078780Y-115811200D01*
X103078780Y-116742000D01*
X103078780Y-116742000D01*
G37*
G36*
X107487380Y-116718600D02*
G01*
X106376580Y-116718600D01*
X106376580Y-116017800D01*
X107487380Y-116017800D01*
X107487380Y-116718600D01*
X107487380Y-116718600D01*
G37*
G36*
X109687380Y-116718600D02*
G01*
X108576580Y-116718600D01*
X108576580Y-116017800D01*
X109687380Y-116017800D01*
X109687380Y-116718600D01*
X109687380Y-116718600D01*
G37*
G36*
X112080780Y-116152200D02*
G01*
X111399980Y-116152200D01*
X111399980Y-115521400D01*
X112080780Y-115521400D01*
X112080780Y-116152200D01*
X112080780Y-116152200D01*
G37*
G36*
X106086380Y-116102400D02*
G01*
X105405580Y-116102400D01*
X105405580Y-115471600D01*
X106086380Y-115471600D01*
X106086380Y-116102400D01*
X106086380Y-116102400D01*
G37*
G36*
X111156780Y-116097200D02*
G01*
X110545980Y-116097200D01*
X110545980Y-115556400D01*
X111156780Y-115556400D01*
X111156780Y-116097200D01*
X111156780Y-116097200D01*
G37*
G36*
X109687380Y-115768600D02*
G01*
X108576580Y-115768600D01*
X108576580Y-115067800D01*
X109687380Y-115067800D01*
X109687380Y-115768600D01*
X109687380Y-115768600D01*
G37*
G36*
X111217180Y-115315000D02*
G01*
X110536380Y-115315000D01*
X110536380Y-114684200D01*
X111217180Y-114684200D01*
X111217180Y-115315000D01*
X111217180Y-115315000D01*
G37*
G36*
X112080780Y-115315000D02*
G01*
X111399980Y-115315000D01*
X111399980Y-114684200D01*
X112080780Y-114684200D01*
X112080780Y-115315000D01*
X112080780Y-115315000D01*
G37*
G36*
X106086380Y-115212400D02*
G01*
X105405580Y-115212400D01*
X105405580Y-114581600D01*
X106086380Y-114581600D01*
X106086380Y-115212400D01*
X106086380Y-115212400D01*
G37*
G36*
X109687380Y-114818600D02*
G01*
X108576580Y-114818600D01*
X108576580Y-114117800D01*
X109687380Y-114117800D01*
X109687380Y-114818600D01*
X109687380Y-114818600D01*
G37*
G36*
X107487380Y-114818600D02*
G01*
X106376580Y-114818600D01*
X106376580Y-114117800D01*
X107487380Y-114117800D01*
X107487380Y-114818600D01*
X107487380Y-114818600D01*
G37*
G36*
X111217180Y-114425000D02*
G01*
X110536380Y-114425000D01*
X110536380Y-113794200D01*
X111217180Y-113794200D01*
X111217180Y-114425000D01*
X111217180Y-114425000D01*
G37*
G36*
X112080780Y-114425000D02*
G01*
X111399980Y-114425000D01*
X111399980Y-113794200D01*
X112080780Y-113794200D01*
X112080780Y-114425000D01*
X112080780Y-114425000D01*
G37*
G36*
X114253254Y-113328391D02*
G01*
X114348868Y-113367995D01*
X114383291Y-113390996D01*
X114434923Y-113425495D01*
X114508105Y-113498677D01*
X114542604Y-113550309D01*
X114565605Y-113584732D01*
X114605209Y-113680346D01*
X114625400Y-113781852D01*
X114625400Y-113885348D01*
X114605209Y-113986854D01*
X114565605Y-114082468D01*
X114542604Y-114116891D01*
X114508105Y-114168523D01*
X114434923Y-114241705D01*
X114383291Y-114276204D01*
X114348868Y-114299205D01*
X114253254Y-114338809D01*
X114151748Y-114359000D01*
X114048252Y-114359000D01*
X113946746Y-114338809D01*
X113851132Y-114299205D01*
X113816709Y-114276204D01*
X113765077Y-114241705D01*
X113691895Y-114168523D01*
X113657396Y-114116891D01*
X113634395Y-114082468D01*
X113594791Y-113986854D01*
X113574600Y-113885348D01*
X113574600Y-113781852D01*
X113594791Y-113680346D01*
X113634395Y-113584732D01*
X113657396Y-113550309D01*
X113691895Y-113498677D01*
X113765077Y-113425495D01*
X113816709Y-113390996D01*
X113851132Y-113367995D01*
X113946746Y-113328391D01*
X114048252Y-113308200D01*
X114151748Y-113308200D01*
X114253254Y-113328391D01*
X114253254Y-113328391D01*
G37*
G36*
X100306114Y-113328391D02*
G01*
X100401728Y-113367995D01*
X100436151Y-113390996D01*
X100487783Y-113425495D01*
X100560965Y-113498677D01*
X100595464Y-113550309D01*
X100618465Y-113584732D01*
X100658069Y-113680346D01*
X100678260Y-113781852D01*
X100678260Y-113885348D01*
X100658069Y-113986854D01*
X100618465Y-114082468D01*
X100595464Y-114116891D01*
X100560965Y-114168523D01*
X100487783Y-114241705D01*
X100436151Y-114276204D01*
X100401728Y-114299205D01*
X100306114Y-114338809D01*
X100204608Y-114359000D01*
X100101112Y-114359000D01*
X99999606Y-114338809D01*
X99903992Y-114299205D01*
X99869569Y-114276204D01*
X99817937Y-114241705D01*
X99744755Y-114168523D01*
X99710256Y-114116891D01*
X99687255Y-114082468D01*
X99647651Y-113986854D01*
X99627460Y-113885348D01*
X99627460Y-113781852D01*
X99647651Y-113680346D01*
X99687255Y-113584732D01*
X99710256Y-113550309D01*
X99744755Y-113498677D01*
X99817937Y-113425495D01*
X99869569Y-113390996D01*
X99903992Y-113367995D01*
X99999606Y-113328391D01*
X100101112Y-113308200D01*
X100204608Y-113308200D01*
X100306114Y-113328391D01*
X100306114Y-113328391D01*
G37*
G36*
X102800180Y-113857600D02*
G01*
X102189380Y-113857600D01*
X102189380Y-113316800D01*
X102800180Y-113316800D01*
X102800180Y-113857600D01*
X102800180Y-113857600D01*
G37*
G36*
X107864380Y-113689400D02*
G01*
X107183580Y-113689400D01*
X107183580Y-113058600D01*
X107864380Y-113058600D01*
X107864380Y-113689400D01*
X107864380Y-113689400D01*
G37*
G36*
X108804180Y-113664000D02*
G01*
X108123380Y-113664000D01*
X108123380Y-113033200D01*
X108804180Y-113033200D01*
X108804180Y-113664000D01*
X108804180Y-113664000D01*
G37*
G36*
X109743980Y-113664000D02*
G01*
X109063180Y-113664000D01*
X109063180Y-113033200D01*
X109743980Y-113033200D01*
X109743980Y-113664000D01*
X109743980Y-113664000D01*
G37*
G36*
X111217180Y-113613200D02*
G01*
X110536380Y-113613200D01*
X110536380Y-112982400D01*
X111217180Y-112982400D01*
X111217180Y-113613200D01*
X111217180Y-113613200D01*
G37*
G36*
X112080780Y-113613200D02*
G01*
X111399980Y-113613200D01*
X111399980Y-112982400D01*
X112080780Y-112982400D01*
X112080780Y-113613200D01*
X112080780Y-113613200D01*
G37*
G36*
X102800180Y-112947600D02*
G01*
X102189380Y-112947600D01*
X102189380Y-112406800D01*
X102800180Y-112406800D01*
X102800180Y-112947600D01*
X102800180Y-112947600D01*
G37*
G36*
X107864380Y-112799400D02*
G01*
X107183580Y-112799400D01*
X107183580Y-112168600D01*
X107864380Y-112168600D01*
X107864380Y-112799400D01*
X107864380Y-112799400D01*
G37*
G36*
X108804180Y-112774000D02*
G01*
X108123380Y-112774000D01*
X108123380Y-112143200D01*
X108804180Y-112143200D01*
X108804180Y-112774000D01*
X108804180Y-112774000D01*
G37*
G36*
X109743980Y-112774000D02*
G01*
X109063180Y-112774000D01*
X109063180Y-112143200D01*
X109743980Y-112143200D01*
X109743980Y-112774000D01*
X109743980Y-112774000D01*
G37*
G36*
X111217180Y-112723200D02*
G01*
X110536380Y-112723200D01*
X110536380Y-112092400D01*
X111217180Y-112092400D01*
X111217180Y-112723200D01*
X111217180Y-112723200D01*
G37*
G36*
X112080780Y-112723200D02*
G01*
X111399980Y-112723200D01*
X111399980Y-112092400D01*
X112080780Y-112092400D01*
X112080780Y-112723200D01*
X112080780Y-112723200D01*
G37*
G36*
X103800380Y-112190800D02*
G01*
X103119580Y-112190800D01*
X103119580Y-111560000D01*
X103800380Y-111560000D01*
X103800380Y-112190800D01*
X103800380Y-112190800D01*
G37*
G36*
X102860580Y-112190800D02*
G01*
X102179780Y-112190800D01*
X102179780Y-111560000D01*
X102860580Y-111560000D01*
X102860580Y-112190800D01*
X102860580Y-112190800D01*
G37*
G36*
X107864380Y-111936800D02*
G01*
X107183580Y-111936800D01*
X107183580Y-111306000D01*
X107864380Y-111306000D01*
X107864380Y-111936800D01*
X107864380Y-111936800D01*
G37*
G36*
X108804180Y-111936800D02*
G01*
X108123380Y-111936800D01*
X108123380Y-111306000D01*
X108804180Y-111306000D01*
X108804180Y-111936800D01*
X108804180Y-111936800D01*
G37*
G36*
X112095380Y-111885000D02*
G01*
X111334580Y-111885000D01*
X111334580Y-111064200D01*
X112095380Y-111064200D01*
X112095380Y-111885000D01*
X112095380Y-111885000D01*
G37*
G36*
X109736880Y-111866600D02*
G01*
X109126080Y-111866600D01*
X109126080Y-111325800D01*
X109736880Y-111325800D01*
X109736880Y-111866600D01*
X109736880Y-111866600D01*
G37*
G36*
X102860580Y-111300800D02*
G01*
X102179780Y-111300800D01*
X102179780Y-110670000D01*
X102860580Y-110670000D01*
X102860580Y-111300800D01*
X102860580Y-111300800D01*
G37*
G36*
X103800380Y-111300800D02*
G01*
X103119580Y-111300800D01*
X103119580Y-110670000D01*
X103800380Y-110670000D01*
X103800380Y-111300800D01*
X103800380Y-111300800D01*
G37*
G36*
X108804180Y-111046800D02*
G01*
X108123380Y-111046800D01*
X108123380Y-110416000D01*
X108804180Y-110416000D01*
X108804180Y-111046800D01*
X108804180Y-111046800D01*
G37*
G36*
X107864380Y-111046800D02*
G01*
X107183580Y-111046800D01*
X107183580Y-110416000D01*
X107864380Y-110416000D01*
X107864380Y-111046800D01*
X107864380Y-111046800D01*
G37*
G36*
X109736880Y-110956600D02*
G01*
X109126080Y-110956600D01*
X109126080Y-110415800D01*
X109736880Y-110415800D01*
X109736880Y-110956600D01*
X109736880Y-110956600D01*
G37*
G36*
X112095380Y-110425000D02*
G01*
X111334580Y-110425000D01*
X111334580Y-109604200D01*
X112095380Y-109604200D01*
X112095380Y-110425000D01*
X112095380Y-110425000D01*
G37*
G36*
X125710160Y-94106160D02*
G01*
X125319360Y-94106160D01*
X125319360Y-93745360D01*
X125710160Y-93745360D01*
X125710160Y-94106160D01*
X125710160Y-94106160D01*
G37*
G36*
X112914039Y-93359237D02*
G01*
X112964886Y-93380298D01*
X113010649Y-93410876D01*
X113049564Y-93449791D01*
X113080142Y-93495554D01*
X113101203Y-93546401D01*
X113111940Y-93600381D01*
X113111940Y-93655419D01*
X113101203Y-93709399D01*
X113080142Y-93760246D01*
X113049564Y-93806009D01*
X113010649Y-93844924D01*
X112964886Y-93875502D01*
X112914039Y-93896563D01*
X112860059Y-93907300D01*
X112805021Y-93907300D01*
X112751041Y-93896563D01*
X112700194Y-93875502D01*
X112654431Y-93844924D01*
X112615516Y-93806009D01*
X112584938Y-93760246D01*
X112563877Y-93709399D01*
X112553140Y-93655419D01*
X112553140Y-93600381D01*
X112563877Y-93546401D01*
X112584938Y-93495554D01*
X112615516Y-93449791D01*
X112654431Y-93410876D01*
X112700194Y-93380298D01*
X112751041Y-93359237D01*
X112805021Y-93348500D01*
X112860059Y-93348500D01*
X112914039Y-93359237D01*
X112914039Y-93359237D01*
G37*
G36*
X125710160Y-93556160D02*
G01*
X125319360Y-93556160D01*
X125319360Y-93195360D01*
X125710160Y-93195360D01*
X125710160Y-93556160D01*
X125710160Y-93556160D01*
G37*
G36*
X113523639Y-92876638D02*
G01*
X113574486Y-92897699D01*
X113620249Y-92928277D01*
X113659164Y-92967192D01*
X113689742Y-93012955D01*
X113710803Y-93063802D01*
X113721540Y-93117782D01*
X113721540Y-93172820D01*
X113710803Y-93226800D01*
X113689742Y-93277647D01*
X113659164Y-93323410D01*
X113620249Y-93362325D01*
X113574486Y-93392903D01*
X113523639Y-93413964D01*
X113469659Y-93424701D01*
X113414621Y-93424701D01*
X113360641Y-93413964D01*
X113309794Y-93392903D01*
X113264031Y-93362325D01*
X113225116Y-93323410D01*
X113194538Y-93277647D01*
X113173477Y-93226800D01*
X113162740Y-93172820D01*
X113162740Y-93117782D01*
X113173477Y-93063802D01*
X113194538Y-93012955D01*
X113225116Y-92967192D01*
X113264031Y-92928277D01*
X113309794Y-92897699D01*
X113360641Y-92876638D01*
X113414621Y-92865901D01*
X113469659Y-92865901D01*
X113523639Y-92876638D01*
X113523639Y-92876638D01*
G37*
G36*
X129884400Y-93241680D02*
G01*
X129203600Y-93241680D01*
X129203600Y-92610880D01*
X129884400Y-92610880D01*
X129884400Y-93241680D01*
X129884400Y-93241680D01*
G37*
G36*
X125725400Y-92958080D02*
G01*
X125334600Y-92958080D01*
X125334600Y-92597280D01*
X125725400Y-92597280D01*
X125725400Y-92958080D01*
X125725400Y-92958080D01*
G37*
G36*
X112914039Y-92394038D02*
G01*
X112964886Y-92415099D01*
X113010649Y-92445677D01*
X113049564Y-92484592D01*
X113080142Y-92530355D01*
X113101203Y-92581202D01*
X113111940Y-92635182D01*
X113111940Y-92690220D01*
X113101203Y-92744200D01*
X113080142Y-92795047D01*
X113049564Y-92840810D01*
X113010649Y-92879725D01*
X112964886Y-92910303D01*
X112914039Y-92931364D01*
X112860059Y-92942101D01*
X112805021Y-92942101D01*
X112751041Y-92931364D01*
X112700194Y-92910303D01*
X112654431Y-92879725D01*
X112615516Y-92840810D01*
X112584938Y-92795047D01*
X112563877Y-92744200D01*
X112553140Y-92690220D01*
X112553140Y-92635182D01*
X112563877Y-92581202D01*
X112584938Y-92530355D01*
X112615516Y-92484592D01*
X112654431Y-92445677D01*
X112700194Y-92415099D01*
X112751041Y-92394038D01*
X112805021Y-92383301D01*
X112860059Y-92383301D01*
X112914039Y-92394038D01*
X112914039Y-92394038D01*
G37*
G36*
X113523639Y-91911439D02*
G01*
X113574486Y-91932500D01*
X113620249Y-91963078D01*
X113659164Y-92001993D01*
X113689742Y-92047756D01*
X113710803Y-92098603D01*
X113721540Y-92152583D01*
X113721540Y-92207621D01*
X113710803Y-92261601D01*
X113689742Y-92312448D01*
X113659164Y-92358211D01*
X113620249Y-92397126D01*
X113574486Y-92427704D01*
X113523639Y-92448765D01*
X113469659Y-92459502D01*
X113414621Y-92459502D01*
X113360641Y-92448765D01*
X113309794Y-92427704D01*
X113264031Y-92397126D01*
X113225116Y-92358211D01*
X113194538Y-92312448D01*
X113173477Y-92261601D01*
X113162740Y-92207621D01*
X113162740Y-92152583D01*
X113173477Y-92098603D01*
X113194538Y-92047756D01*
X113225116Y-92001993D01*
X113264031Y-91963078D01*
X113309794Y-91932500D01*
X113360641Y-91911439D01*
X113414621Y-91900702D01*
X113469659Y-91900702D01*
X113523639Y-91911439D01*
X113523639Y-91911439D01*
G37*
G36*
X125725400Y-92408080D02*
G01*
X125334600Y-92408080D01*
X125334600Y-92047280D01*
X125725400Y-92047280D01*
X125725400Y-92408080D01*
X125725400Y-92408080D01*
G37*
G36*
X129884400Y-92351680D02*
G01*
X129203600Y-92351680D01*
X129203600Y-91720880D01*
X129884400Y-91720880D01*
X129884400Y-92351680D01*
X129884400Y-92351680D01*
G37*
G36*
X103622820Y-92332820D02*
G01*
X101072020Y-92332820D01*
X101072020Y-89782020D01*
X103622820Y-89782020D01*
X103622820Y-92332820D01*
X103622820Y-92332820D01*
G37*
G36*
X127885246Y-91825218D02*
G01*
X127894029Y-91829912D01*
X127903553Y-91832802D01*
X127941155Y-91840281D01*
X127977625Y-91855388D01*
X128010448Y-91877319D01*
X128038361Y-91905232D01*
X128060292Y-91938055D01*
X128075399Y-91974525D01*
X128083100Y-92013242D01*
X128083100Y-92052718D01*
X128075399Y-92091435D01*
X128060292Y-92127905D01*
X128038361Y-92160728D01*
X128010448Y-92188641D01*
X127977625Y-92210572D01*
X127941155Y-92225679D01*
X127902438Y-92233380D01*
X127862962Y-92233380D01*
X127824245Y-92225679D01*
X127787775Y-92210572D01*
X127754952Y-92188641D01*
X127727039Y-92160728D01*
X127705108Y-92127905D01*
X127690001Y-92091435D01*
X127682522Y-92053833D01*
X127679632Y-92044308D01*
X127674938Y-92035525D01*
X127672849Y-92032980D01*
X127674938Y-92030434D01*
X127679632Y-92021651D01*
X127682523Y-92012123D01*
X127690001Y-91974525D01*
X127705108Y-91938055D01*
X127727039Y-91905232D01*
X127754952Y-91877319D01*
X127787775Y-91855388D01*
X127824245Y-91840281D01*
X127861847Y-91832802D01*
X127871372Y-91829912D01*
X127880155Y-91825218D01*
X127882700Y-91823129D01*
X127885246Y-91825218D01*
X127885246Y-91825218D01*
G37*
G36*
X127385246Y-91825218D02*
G01*
X127394029Y-91829912D01*
X127403553Y-91832802D01*
X127441155Y-91840281D01*
X127477625Y-91855388D01*
X127510448Y-91877319D01*
X127538361Y-91905232D01*
X127560292Y-91938055D01*
X127575399Y-91974525D01*
X127582877Y-92012123D01*
X127585768Y-92021652D01*
X127590462Y-92030435D01*
X127592551Y-92032980D01*
X127590462Y-92035526D01*
X127585768Y-92044309D01*
X127582878Y-92053833D01*
X127575399Y-92091435D01*
X127560292Y-92127905D01*
X127538361Y-92160728D01*
X127510448Y-92188641D01*
X127477625Y-92210572D01*
X127441155Y-92225679D01*
X127402438Y-92233380D01*
X127362962Y-92233380D01*
X127324245Y-92225679D01*
X127287775Y-92210572D01*
X127254952Y-92188641D01*
X127227039Y-92160728D01*
X127205108Y-92127905D01*
X127190001Y-92091435D01*
X127182522Y-92053833D01*
X127179632Y-92044308D01*
X127174938Y-92035525D01*
X127172849Y-92032980D01*
X127174938Y-92030434D01*
X127179632Y-92021651D01*
X127182523Y-92012123D01*
X127190001Y-91974525D01*
X127205108Y-91938055D01*
X127227039Y-91905232D01*
X127254952Y-91877319D01*
X127287775Y-91855388D01*
X127324245Y-91840281D01*
X127361847Y-91832802D01*
X127371372Y-91829912D01*
X127380155Y-91825218D01*
X127382700Y-91823129D01*
X127385246Y-91825218D01*
X127385246Y-91825218D01*
G37*
G36*
X126885246Y-91825218D02*
G01*
X126894029Y-91829912D01*
X126903553Y-91832802D01*
X126941155Y-91840281D01*
X126977625Y-91855388D01*
X127010448Y-91877319D01*
X127038361Y-91905232D01*
X127060292Y-91938055D01*
X127075399Y-91974525D01*
X127082877Y-92012123D01*
X127085768Y-92021652D01*
X127090462Y-92030435D01*
X127092551Y-92032980D01*
X127090462Y-92035526D01*
X127085768Y-92044309D01*
X127082878Y-92053833D01*
X127075399Y-92091435D01*
X127060292Y-92127905D01*
X127038361Y-92160728D01*
X127010448Y-92188641D01*
X126977625Y-92210572D01*
X126941155Y-92225679D01*
X126902438Y-92233380D01*
X126862962Y-92233380D01*
X126824245Y-92225679D01*
X126787775Y-92210572D01*
X126754952Y-92188641D01*
X126727039Y-92160728D01*
X126705108Y-92127905D01*
X126690001Y-92091435D01*
X126682300Y-92052718D01*
X126682300Y-92013242D01*
X126690001Y-91974525D01*
X126705108Y-91938055D01*
X126727039Y-91905232D01*
X126754952Y-91877319D01*
X126787775Y-91855388D01*
X126824245Y-91840281D01*
X126861847Y-91832802D01*
X126871372Y-91829912D01*
X126880155Y-91825218D01*
X126882700Y-91823129D01*
X126885246Y-91825218D01*
X126885246Y-91825218D01*
G37*
G36*
X107244300Y-92216040D02*
G01*
X106933500Y-92216040D01*
X106933500Y-91485240D01*
X107244300Y-91485240D01*
X107244300Y-92216040D01*
X107244300Y-92216040D01*
G37*
G36*
X107744300Y-92216040D02*
G01*
X107433500Y-92216040D01*
X107433500Y-91485240D01*
X107744300Y-91485240D01*
X107744300Y-92216040D01*
X107744300Y-92216040D01*
G37*
G36*
X108244300Y-92216040D02*
G01*
X107933500Y-92216040D01*
X107933500Y-91485240D01*
X108244300Y-91485240D01*
X108244300Y-92216040D01*
X108244300Y-92216040D01*
G37*
G36*
X108744300Y-92216040D02*
G01*
X108433500Y-92216040D01*
X108433500Y-91485240D01*
X108744300Y-91485240D01*
X108744300Y-92216040D01*
X108744300Y-92216040D01*
G37*
G36*
X106244300Y-92216040D02*
G01*
X105933500Y-92216040D01*
X105933500Y-91485240D01*
X106244300Y-91485240D01*
X106244300Y-92216040D01*
X106244300Y-92216040D01*
G37*
G36*
X109744300Y-92216040D02*
G01*
X109433500Y-92216040D01*
X109433500Y-91485240D01*
X109744300Y-91485240D01*
X109744300Y-92216040D01*
X109744300Y-92216040D01*
G37*
G36*
X106744300Y-92216040D02*
G01*
X106433500Y-92216040D01*
X106433500Y-91485240D01*
X106744300Y-91485240D01*
X106744300Y-92216040D01*
X106744300Y-92216040D01*
G37*
G36*
X109244300Y-92216040D02*
G01*
X108933500Y-92216040D01*
X108933500Y-91485240D01*
X109244300Y-91485240D01*
X109244300Y-92216040D01*
X109244300Y-92216040D01*
G37*
G36*
X112914039Y-91428839D02*
G01*
X112964886Y-91449900D01*
X113010649Y-91480478D01*
X113049564Y-91519393D01*
X113080142Y-91565156D01*
X113101203Y-91616003D01*
X113111940Y-91669983D01*
X113111940Y-91725021D01*
X113101203Y-91779001D01*
X113080142Y-91829848D01*
X113049564Y-91875611D01*
X113010649Y-91914526D01*
X112964886Y-91945104D01*
X112914039Y-91966165D01*
X112860059Y-91976902D01*
X112805021Y-91976902D01*
X112751041Y-91966165D01*
X112700194Y-91945104D01*
X112654431Y-91914526D01*
X112615516Y-91875611D01*
X112584938Y-91829848D01*
X112563877Y-91779001D01*
X112553140Y-91725021D01*
X112553140Y-91669983D01*
X112563877Y-91616003D01*
X112584938Y-91565156D01*
X112615516Y-91519393D01*
X112654431Y-91480478D01*
X112700194Y-91449900D01*
X112751041Y-91428839D01*
X112805021Y-91418102D01*
X112860059Y-91418102D01*
X112914039Y-91428839D01*
X112914039Y-91428839D01*
G37*
G36*
X125950500Y-91820880D02*
G01*
X124979700Y-91820880D01*
X124979700Y-90880080D01*
X125950500Y-90880080D01*
X125950500Y-91820880D01*
X125950500Y-91820880D01*
G37*
G36*
X126885246Y-91325218D02*
G01*
X126894029Y-91329912D01*
X126903553Y-91332802D01*
X126941155Y-91340281D01*
X126977625Y-91355388D01*
X127010448Y-91377319D01*
X127038361Y-91405232D01*
X127060292Y-91438055D01*
X127075399Y-91474525D01*
X127077530Y-91485240D01*
X127082877Y-91512123D01*
X127085768Y-91521652D01*
X127090462Y-91530435D01*
X127092551Y-91532980D01*
X127090462Y-91535526D01*
X127085768Y-91544309D01*
X127082878Y-91553833D01*
X127075399Y-91591435D01*
X127060292Y-91627905D01*
X127038361Y-91660728D01*
X127010448Y-91688641D01*
X126977625Y-91710572D01*
X126941155Y-91725679D01*
X126903553Y-91733158D01*
X126894028Y-91736048D01*
X126885245Y-91740742D01*
X126882700Y-91742831D01*
X126880154Y-91740742D01*
X126871371Y-91736048D01*
X126861847Y-91733158D01*
X126824245Y-91725679D01*
X126787775Y-91710572D01*
X126754952Y-91688641D01*
X126727039Y-91660728D01*
X126705108Y-91627905D01*
X126690001Y-91591435D01*
X126682300Y-91552718D01*
X126682300Y-91513242D01*
X126690001Y-91474525D01*
X126705108Y-91438055D01*
X126727039Y-91405232D01*
X126754952Y-91377319D01*
X126787775Y-91355388D01*
X126824245Y-91340281D01*
X126861847Y-91332802D01*
X126871372Y-91329912D01*
X126880155Y-91325218D01*
X126882700Y-91323129D01*
X126885246Y-91325218D01*
X126885246Y-91325218D01*
G37*
G36*
X127385246Y-91325218D02*
G01*
X127394029Y-91329912D01*
X127403553Y-91332802D01*
X127441155Y-91340281D01*
X127477625Y-91355388D01*
X127510448Y-91377319D01*
X127538361Y-91405232D01*
X127560292Y-91438055D01*
X127575399Y-91474525D01*
X127577530Y-91485240D01*
X127582877Y-91512123D01*
X127585768Y-91521652D01*
X127590462Y-91530435D01*
X127592551Y-91532980D01*
X127590462Y-91535526D01*
X127585768Y-91544309D01*
X127582878Y-91553833D01*
X127575399Y-91591435D01*
X127560292Y-91627905D01*
X127538361Y-91660728D01*
X127510448Y-91688641D01*
X127477625Y-91710572D01*
X127441155Y-91725679D01*
X127403553Y-91733158D01*
X127394028Y-91736048D01*
X127385245Y-91740742D01*
X127382700Y-91742831D01*
X127380154Y-91740742D01*
X127371371Y-91736048D01*
X127361847Y-91733158D01*
X127324245Y-91725679D01*
X127287775Y-91710572D01*
X127254952Y-91688641D01*
X127227039Y-91660728D01*
X127205108Y-91627905D01*
X127190001Y-91591435D01*
X127182522Y-91553833D01*
X127179632Y-91544308D01*
X127174938Y-91535525D01*
X127172849Y-91532980D01*
X127174938Y-91530434D01*
X127179632Y-91521651D01*
X127182523Y-91512123D01*
X127187870Y-91485240D01*
X127190001Y-91474525D01*
X127205108Y-91438055D01*
X127227039Y-91405232D01*
X127254952Y-91377319D01*
X127287775Y-91355388D01*
X127324245Y-91340281D01*
X127361847Y-91332802D01*
X127371372Y-91329912D01*
X127380155Y-91325218D01*
X127382700Y-91323129D01*
X127385246Y-91325218D01*
X127385246Y-91325218D01*
G37*
G36*
X127885246Y-91325218D02*
G01*
X127894029Y-91329912D01*
X127903553Y-91332802D01*
X127941155Y-91340281D01*
X127977625Y-91355388D01*
X128010448Y-91377319D01*
X128038361Y-91405232D01*
X128060292Y-91438055D01*
X128075399Y-91474525D01*
X128083100Y-91513242D01*
X128083100Y-91552718D01*
X128075399Y-91591435D01*
X128060292Y-91627905D01*
X128038361Y-91660728D01*
X128010448Y-91688641D01*
X127977625Y-91710572D01*
X127941155Y-91725679D01*
X127903553Y-91733158D01*
X127894028Y-91736048D01*
X127885245Y-91740742D01*
X127882700Y-91742831D01*
X127880154Y-91740742D01*
X127871371Y-91736048D01*
X127861847Y-91733158D01*
X127824245Y-91725679D01*
X127787775Y-91710572D01*
X127754952Y-91688641D01*
X127727039Y-91660728D01*
X127705108Y-91627905D01*
X127690001Y-91591435D01*
X127682522Y-91553833D01*
X127679632Y-91544308D01*
X127674938Y-91535525D01*
X127672849Y-91532980D01*
X127674938Y-91530434D01*
X127679632Y-91521651D01*
X127682523Y-91512123D01*
X127687870Y-91485240D01*
X127690001Y-91474525D01*
X127705108Y-91438055D01*
X127727039Y-91405232D01*
X127754952Y-91377319D01*
X127787775Y-91355388D01*
X127824245Y-91340281D01*
X127861847Y-91332802D01*
X127871372Y-91329912D01*
X127880155Y-91325218D01*
X127882700Y-91323129D01*
X127885246Y-91325218D01*
X127885246Y-91325218D01*
G37*
G36*
X105869300Y-91421040D02*
G01*
X105138500Y-91421040D01*
X105138500Y-91110240D01*
X105869300Y-91110240D01*
X105869300Y-91421040D01*
X105869300Y-91421040D01*
G37*
G36*
X110539300Y-91421040D02*
G01*
X109808500Y-91421040D01*
X109808500Y-91110240D01*
X110539300Y-91110240D01*
X110539300Y-91421040D01*
X110539300Y-91421040D01*
G37*
G36*
X126885246Y-90825218D02*
G01*
X126894029Y-90829912D01*
X126903553Y-90832802D01*
X126941155Y-90840281D01*
X126977625Y-90855388D01*
X127010448Y-90877319D01*
X127038361Y-90905232D01*
X127060292Y-90938055D01*
X127075399Y-90974525D01*
X127082877Y-91012123D01*
X127085768Y-91021652D01*
X127090462Y-91030435D01*
X127092551Y-91032980D01*
X127090462Y-91035526D01*
X127085768Y-91044309D01*
X127082878Y-91053833D01*
X127075399Y-91091435D01*
X127060292Y-91127905D01*
X127038361Y-91160728D01*
X127010448Y-91188641D01*
X126977625Y-91210572D01*
X126941155Y-91225679D01*
X126903553Y-91233158D01*
X126894028Y-91236048D01*
X126885245Y-91240742D01*
X126882700Y-91242831D01*
X126880154Y-91240742D01*
X126871371Y-91236048D01*
X126861847Y-91233158D01*
X126824245Y-91225679D01*
X126787775Y-91210572D01*
X126754952Y-91188641D01*
X126727039Y-91160728D01*
X126705108Y-91127905D01*
X126690001Y-91091435D01*
X126682300Y-91052718D01*
X126682300Y-91013242D01*
X126690001Y-90974525D01*
X126705108Y-90938055D01*
X126727039Y-90905232D01*
X126754952Y-90877319D01*
X126787775Y-90855388D01*
X126824245Y-90840281D01*
X126861847Y-90832802D01*
X126871372Y-90829912D01*
X126880155Y-90825218D01*
X126882700Y-90823129D01*
X126885246Y-90825218D01*
X126885246Y-90825218D01*
G37*
G36*
X127385246Y-90825218D02*
G01*
X127394029Y-90829912D01*
X127403553Y-90832802D01*
X127441155Y-90840281D01*
X127477625Y-90855388D01*
X127510448Y-90877319D01*
X127538361Y-90905232D01*
X127560292Y-90938055D01*
X127575399Y-90974525D01*
X127582877Y-91012123D01*
X127585768Y-91021652D01*
X127590462Y-91030435D01*
X127592551Y-91032980D01*
X127590462Y-91035526D01*
X127585768Y-91044309D01*
X127582878Y-91053833D01*
X127575399Y-91091435D01*
X127560292Y-91127905D01*
X127538361Y-91160728D01*
X127510448Y-91188641D01*
X127477625Y-91210572D01*
X127441155Y-91225679D01*
X127403553Y-91233158D01*
X127394028Y-91236048D01*
X127385245Y-91240742D01*
X127382700Y-91242831D01*
X127380154Y-91240742D01*
X127371371Y-91236048D01*
X127361847Y-91233158D01*
X127324245Y-91225679D01*
X127287775Y-91210572D01*
X127254952Y-91188641D01*
X127227039Y-91160728D01*
X127205108Y-91127905D01*
X127190001Y-91091435D01*
X127182522Y-91053833D01*
X127179632Y-91044308D01*
X127174938Y-91035525D01*
X127172849Y-91032980D01*
X127174938Y-91030434D01*
X127179632Y-91021651D01*
X127182523Y-91012123D01*
X127190001Y-90974525D01*
X127205108Y-90938055D01*
X127227039Y-90905232D01*
X127254952Y-90877319D01*
X127287775Y-90855388D01*
X127324245Y-90840281D01*
X127361847Y-90832802D01*
X127371372Y-90829912D01*
X127380155Y-90825218D01*
X127382700Y-90823129D01*
X127385246Y-90825218D01*
X127385246Y-90825218D01*
G37*
G36*
X127885246Y-90825218D02*
G01*
X127894029Y-90829912D01*
X127903553Y-90832802D01*
X127941155Y-90840281D01*
X127977625Y-90855388D01*
X128010448Y-90877319D01*
X128038361Y-90905232D01*
X128060292Y-90938055D01*
X128075399Y-90974525D01*
X128083100Y-91013242D01*
X128083100Y-91052718D01*
X128075399Y-91091435D01*
X128060292Y-91127905D01*
X128038361Y-91160728D01*
X128010448Y-91188641D01*
X127977625Y-91210572D01*
X127941155Y-91225679D01*
X127903553Y-91233158D01*
X127894028Y-91236048D01*
X127885245Y-91240742D01*
X127882700Y-91242831D01*
X127880154Y-91240742D01*
X127871371Y-91236048D01*
X127861847Y-91233158D01*
X127824245Y-91225679D01*
X127787775Y-91210572D01*
X127754952Y-91188641D01*
X127727039Y-91160728D01*
X127705108Y-91127905D01*
X127690001Y-91091435D01*
X127682522Y-91053833D01*
X127679632Y-91044308D01*
X127674938Y-91035525D01*
X127672849Y-91032980D01*
X127674938Y-91030434D01*
X127679632Y-91021651D01*
X127682523Y-91012123D01*
X127690001Y-90974525D01*
X127705108Y-90938055D01*
X127727039Y-90905232D01*
X127754952Y-90877319D01*
X127787775Y-90855388D01*
X127824245Y-90840281D01*
X127861847Y-90832802D01*
X127871372Y-90829912D01*
X127880155Y-90825218D01*
X127882700Y-90823129D01*
X127885246Y-90825218D01*
X127885246Y-90825218D01*
G37*
G36*
X109414300Y-91091040D02*
G01*
X106263500Y-91091040D01*
X106263500Y-87940240D01*
X109414300Y-87940240D01*
X109414300Y-91091040D01*
X109414300Y-91091040D01*
G37*
G36*
X129349400Y-91042960D02*
G01*
X128988600Y-91042960D01*
X128988600Y-90652160D01*
X129349400Y-90652160D01*
X129349400Y-91042960D01*
X129349400Y-91042960D01*
G37*
G36*
X129899400Y-91042960D02*
G01*
X129538600Y-91042960D01*
X129538600Y-90652160D01*
X129899400Y-90652160D01*
X129899400Y-91042960D01*
X129899400Y-91042960D01*
G37*
G36*
X110539300Y-90921040D02*
G01*
X109808500Y-90921040D01*
X109808500Y-90610240D01*
X110539300Y-90610240D01*
X110539300Y-90921040D01*
X110539300Y-90921040D01*
G37*
G36*
X105869300Y-90921040D02*
G01*
X105138500Y-90921040D01*
X105138500Y-90610240D01*
X105869300Y-90610240D01*
X105869300Y-90921040D01*
X105869300Y-90921040D01*
G37*
G36*
X131913874Y-89810531D02*
G01*
X132009488Y-89850135D01*
X132043911Y-89873136D01*
X132095543Y-89907635D01*
X132168725Y-89980817D01*
X132201878Y-90030434D01*
X132226225Y-90066872D01*
X132265829Y-90162486D01*
X132286020Y-90263992D01*
X132286020Y-90367488D01*
X132265829Y-90468994D01*
X132226225Y-90564608D01*
X132208299Y-90591435D01*
X132168725Y-90650663D01*
X132095543Y-90723845D01*
X132043911Y-90758344D01*
X132009488Y-90781345D01*
X131913874Y-90820949D01*
X131812368Y-90841140D01*
X131708872Y-90841140D01*
X131607366Y-90820949D01*
X131511752Y-90781345D01*
X131477329Y-90758344D01*
X131425697Y-90723845D01*
X131352515Y-90650663D01*
X131312941Y-90591435D01*
X131295015Y-90564608D01*
X131255411Y-90468994D01*
X131235220Y-90367488D01*
X131235220Y-90263992D01*
X131255411Y-90162486D01*
X131295015Y-90066872D01*
X131319362Y-90030434D01*
X131352515Y-89980817D01*
X131425697Y-89907635D01*
X131477329Y-89873136D01*
X131511752Y-89850135D01*
X131607366Y-89810531D01*
X131708872Y-89790340D01*
X131812368Y-89790340D01*
X131913874Y-89810531D01*
X131913874Y-89810531D01*
G37*
G36*
X126885246Y-90325218D02*
G01*
X126894029Y-90329912D01*
X126903553Y-90332802D01*
X126941155Y-90340281D01*
X126977625Y-90355388D01*
X127010448Y-90377319D01*
X127038361Y-90405232D01*
X127060292Y-90438055D01*
X127075399Y-90474525D01*
X127082877Y-90512123D01*
X127085768Y-90521652D01*
X127090462Y-90530435D01*
X127092551Y-90532980D01*
X127090462Y-90535526D01*
X127085768Y-90544309D01*
X127082878Y-90553833D01*
X127075399Y-90591435D01*
X127060292Y-90627905D01*
X127038361Y-90660728D01*
X127010448Y-90688641D01*
X126977625Y-90710572D01*
X126941155Y-90725679D01*
X126903553Y-90733158D01*
X126894028Y-90736048D01*
X126885245Y-90740742D01*
X126882700Y-90742831D01*
X126880154Y-90740742D01*
X126871371Y-90736048D01*
X126861847Y-90733158D01*
X126824245Y-90725679D01*
X126787775Y-90710572D01*
X126754952Y-90688641D01*
X126727039Y-90660728D01*
X126705108Y-90627905D01*
X126690001Y-90591435D01*
X126682300Y-90552718D01*
X126682300Y-90513242D01*
X126690001Y-90474525D01*
X126705108Y-90438055D01*
X126727039Y-90405232D01*
X126754952Y-90377319D01*
X126787775Y-90355388D01*
X126824245Y-90340281D01*
X126861847Y-90332802D01*
X126871372Y-90329912D01*
X126880155Y-90325218D01*
X126882700Y-90323129D01*
X126885246Y-90325218D01*
X126885246Y-90325218D01*
G37*
G36*
X127385246Y-90325218D02*
G01*
X127394029Y-90329912D01*
X127403553Y-90332802D01*
X127441155Y-90340281D01*
X127477625Y-90355388D01*
X127510448Y-90377319D01*
X127538361Y-90405232D01*
X127560292Y-90438055D01*
X127575399Y-90474525D01*
X127582877Y-90512123D01*
X127585768Y-90521652D01*
X127590462Y-90530435D01*
X127592551Y-90532980D01*
X127590462Y-90535526D01*
X127585768Y-90544309D01*
X127582878Y-90553833D01*
X127575399Y-90591435D01*
X127560292Y-90627905D01*
X127538361Y-90660728D01*
X127510448Y-90688641D01*
X127477625Y-90710572D01*
X127441155Y-90725679D01*
X127403553Y-90733158D01*
X127394028Y-90736048D01*
X127385245Y-90740742D01*
X127382700Y-90742831D01*
X127380154Y-90740742D01*
X127371371Y-90736048D01*
X127361847Y-90733158D01*
X127324245Y-90725679D01*
X127287775Y-90710572D01*
X127254952Y-90688641D01*
X127227039Y-90660728D01*
X127205108Y-90627905D01*
X127190001Y-90591435D01*
X127182522Y-90553833D01*
X127179632Y-90544308D01*
X127174938Y-90535525D01*
X127172849Y-90532980D01*
X127174938Y-90530434D01*
X127179632Y-90521651D01*
X127182523Y-90512123D01*
X127190001Y-90474525D01*
X127205108Y-90438055D01*
X127227039Y-90405232D01*
X127254952Y-90377319D01*
X127287775Y-90355388D01*
X127324245Y-90340281D01*
X127361847Y-90332802D01*
X127371372Y-90329912D01*
X127380155Y-90325218D01*
X127382700Y-90323129D01*
X127385246Y-90325218D01*
X127385246Y-90325218D01*
G37*
G36*
X127885246Y-90325218D02*
G01*
X127894029Y-90329912D01*
X127903553Y-90332802D01*
X127941155Y-90340281D01*
X127977625Y-90355388D01*
X128010448Y-90377319D01*
X128038361Y-90405232D01*
X128060292Y-90438055D01*
X128075399Y-90474525D01*
X128083100Y-90513242D01*
X128083100Y-90552718D01*
X128075399Y-90591435D01*
X128060292Y-90627905D01*
X128038361Y-90660728D01*
X128010448Y-90688641D01*
X127977625Y-90710572D01*
X127941155Y-90725679D01*
X127903553Y-90733158D01*
X127894028Y-90736048D01*
X127885245Y-90740742D01*
X127882700Y-90742831D01*
X127880154Y-90740742D01*
X127871371Y-90736048D01*
X127861847Y-90733158D01*
X127824245Y-90725679D01*
X127787775Y-90710572D01*
X127754952Y-90688641D01*
X127727039Y-90660728D01*
X127705108Y-90627905D01*
X127690001Y-90591435D01*
X127682522Y-90553833D01*
X127679632Y-90544308D01*
X127674938Y-90535525D01*
X127672849Y-90532980D01*
X127674938Y-90530434D01*
X127679632Y-90521651D01*
X127682523Y-90512123D01*
X127690001Y-90474525D01*
X127705108Y-90438055D01*
X127727039Y-90405232D01*
X127754952Y-90377319D01*
X127787775Y-90355388D01*
X127824245Y-90340281D01*
X127861847Y-90332802D01*
X127871372Y-90329912D01*
X127880155Y-90325218D01*
X127882700Y-90323129D01*
X127885246Y-90325218D01*
X127885246Y-90325218D01*
G37*
G36*
X125950500Y-90490880D02*
G01*
X124979700Y-90490880D01*
X124979700Y-89550080D01*
X125950500Y-89550080D01*
X125950500Y-90490880D01*
X125950500Y-90490880D01*
G37*
G36*
X105869300Y-90421040D02*
G01*
X105138500Y-90421040D01*
X105138500Y-90110240D01*
X105869300Y-90110240D01*
X105869300Y-90421040D01*
X105869300Y-90421040D01*
G37*
G36*
X110539300Y-90421040D02*
G01*
X109808500Y-90421040D01*
X109808500Y-90110240D01*
X110539300Y-90110240D01*
X110539300Y-90421040D01*
X110539300Y-90421040D01*
G37*
G36*
X129854400Y-90337440D02*
G01*
X128933600Y-90337440D01*
X128933600Y-89476640D01*
X129854400Y-89476640D01*
X129854400Y-90337440D01*
X129854400Y-90337440D01*
G37*
G36*
X126941155Y-89840281D02*
G01*
X126977625Y-89855388D01*
X127010448Y-89877319D01*
X127038361Y-89905232D01*
X127060292Y-89938055D01*
X127075399Y-89974525D01*
X127082877Y-90012123D01*
X127085768Y-90021652D01*
X127090462Y-90030435D01*
X127092551Y-90032980D01*
X127090462Y-90035526D01*
X127085768Y-90044309D01*
X127082878Y-90053833D01*
X127075399Y-90091435D01*
X127060292Y-90127905D01*
X127038361Y-90160728D01*
X127010448Y-90188641D01*
X126977625Y-90210572D01*
X126941155Y-90225679D01*
X126903553Y-90233158D01*
X126894028Y-90236048D01*
X126885245Y-90240742D01*
X126882700Y-90242831D01*
X126880154Y-90240742D01*
X126871371Y-90236048D01*
X126861847Y-90233158D01*
X126824245Y-90225679D01*
X126787775Y-90210572D01*
X126754952Y-90188641D01*
X126727039Y-90160728D01*
X126705108Y-90127905D01*
X126690001Y-90091435D01*
X126682300Y-90052718D01*
X126682300Y-90013242D01*
X126690001Y-89974525D01*
X126705108Y-89938055D01*
X126727039Y-89905232D01*
X126754952Y-89877319D01*
X126787775Y-89855388D01*
X126824245Y-89840281D01*
X126862962Y-89832580D01*
X126902438Y-89832580D01*
X126941155Y-89840281D01*
X126941155Y-89840281D01*
G37*
G36*
X127441155Y-89840281D02*
G01*
X127477625Y-89855388D01*
X127510448Y-89877319D01*
X127538361Y-89905232D01*
X127560292Y-89938055D01*
X127575399Y-89974525D01*
X127582877Y-90012123D01*
X127585768Y-90021652D01*
X127590462Y-90030435D01*
X127592551Y-90032980D01*
X127590462Y-90035526D01*
X127585768Y-90044309D01*
X127582878Y-90053833D01*
X127575399Y-90091435D01*
X127560292Y-90127905D01*
X127538361Y-90160728D01*
X127510448Y-90188641D01*
X127477625Y-90210572D01*
X127441155Y-90225679D01*
X127403553Y-90233158D01*
X127394028Y-90236048D01*
X127385245Y-90240742D01*
X127382700Y-90242831D01*
X127380154Y-90240742D01*
X127371371Y-90236048D01*
X127361847Y-90233158D01*
X127324245Y-90225679D01*
X127287775Y-90210572D01*
X127254952Y-90188641D01*
X127227039Y-90160728D01*
X127205108Y-90127905D01*
X127190001Y-90091435D01*
X127182522Y-90053833D01*
X127179632Y-90044308D01*
X127174938Y-90035525D01*
X127172849Y-90032980D01*
X127174938Y-90030434D01*
X127179632Y-90021651D01*
X127182523Y-90012123D01*
X127190001Y-89974525D01*
X127205108Y-89938055D01*
X127227039Y-89905232D01*
X127254952Y-89877319D01*
X127287775Y-89855388D01*
X127324245Y-89840281D01*
X127362962Y-89832580D01*
X127402438Y-89832580D01*
X127441155Y-89840281D01*
X127441155Y-89840281D01*
G37*
G36*
X127941155Y-89840281D02*
G01*
X127977625Y-89855388D01*
X128010448Y-89877319D01*
X128038361Y-89905232D01*
X128060292Y-89938055D01*
X128075399Y-89974525D01*
X128083100Y-90013242D01*
X128083100Y-90052718D01*
X128075399Y-90091435D01*
X128060292Y-90127905D01*
X128038361Y-90160728D01*
X128010448Y-90188641D01*
X127977625Y-90210572D01*
X127941155Y-90225679D01*
X127903553Y-90233158D01*
X127894028Y-90236048D01*
X127885245Y-90240742D01*
X127882700Y-90242831D01*
X127880154Y-90240742D01*
X127871371Y-90236048D01*
X127861847Y-90233158D01*
X127824245Y-90225679D01*
X127787775Y-90210572D01*
X127754952Y-90188641D01*
X127727039Y-90160728D01*
X127705108Y-90127905D01*
X127690001Y-90091435D01*
X127682522Y-90053833D01*
X127679632Y-90044308D01*
X127674938Y-90035525D01*
X127672849Y-90032980D01*
X127674938Y-90030434D01*
X127679632Y-90021651D01*
X127682523Y-90012123D01*
X127690001Y-89974525D01*
X127705108Y-89938055D01*
X127727039Y-89905232D01*
X127754952Y-89877319D01*
X127787775Y-89855388D01*
X127824245Y-89840281D01*
X127862962Y-89832580D01*
X127902438Y-89832580D01*
X127941155Y-89840281D01*
X127941155Y-89840281D01*
G37*
G36*
X98609394Y-89129811D02*
G01*
X98705008Y-89169415D01*
X98739431Y-89192416D01*
X98791063Y-89226915D01*
X98864245Y-89300097D01*
X98898744Y-89351729D01*
X98921745Y-89386152D01*
X98961349Y-89481766D01*
X98981540Y-89583272D01*
X98981540Y-89686768D01*
X98961349Y-89788274D01*
X98921745Y-89883888D01*
X98898744Y-89918311D01*
X98864245Y-89969943D01*
X98791063Y-90043125D01*
X98739431Y-90077624D01*
X98705008Y-90100625D01*
X98609394Y-90140229D01*
X98507888Y-90160420D01*
X98404392Y-90160420D01*
X98302886Y-90140229D01*
X98207272Y-90100625D01*
X98172849Y-90077624D01*
X98121217Y-90043125D01*
X98048035Y-89969943D01*
X98013536Y-89918311D01*
X97990535Y-89883888D01*
X97950931Y-89788274D01*
X97930740Y-89686768D01*
X97930740Y-89583272D01*
X97950931Y-89481766D01*
X97990535Y-89386152D01*
X98013536Y-89351729D01*
X98048035Y-89300097D01*
X98121217Y-89226915D01*
X98172849Y-89192416D01*
X98207272Y-89169415D01*
X98302886Y-89129811D01*
X98404392Y-89109620D01*
X98507888Y-89109620D01*
X98609394Y-89129811D01*
X98609394Y-89129811D01*
G37*
G36*
X105869300Y-89921040D02*
G01*
X105138500Y-89921040D01*
X105138500Y-89610240D01*
X105869300Y-89610240D01*
X105869300Y-89921040D01*
X105869300Y-89921040D01*
G37*
G36*
X110539300Y-89921040D02*
G01*
X109808500Y-89921040D01*
X109808500Y-89610240D01*
X110539300Y-89610240D01*
X110539300Y-89921040D01*
X110539300Y-89921040D01*
G37*
G36*
X101471080Y-89650440D02*
G01*
X100370280Y-89650440D01*
X100370280Y-87399640D01*
X101471080Y-87399640D01*
X101471080Y-89650440D01*
X101471080Y-89650440D01*
G37*
G36*
X104421080Y-89650440D02*
G01*
X103320280Y-89650440D01*
X103320280Y-87399640D01*
X104421080Y-87399640D01*
X104421080Y-89650440D01*
X104421080Y-89650440D01*
G37*
G36*
X105869300Y-89421040D02*
G01*
X105138500Y-89421040D01*
X105138500Y-89110240D01*
X105869300Y-89110240D01*
X105869300Y-89421040D01*
X105869300Y-89421040D01*
G37*
G36*
X110539300Y-89421040D02*
G01*
X109808500Y-89421040D01*
X109808500Y-89110240D01*
X110539300Y-89110240D01*
X110539300Y-89421040D01*
X110539300Y-89421040D01*
G37*
G36*
X129854400Y-88977440D02*
G01*
X128933600Y-88977440D01*
X128933600Y-88116640D01*
X129854400Y-88116640D01*
X129854400Y-88977440D01*
X129854400Y-88977440D01*
G37*
G36*
X110539300Y-88921040D02*
G01*
X109808500Y-88921040D01*
X109808500Y-88610240D01*
X110539300Y-88610240D01*
X110539300Y-88921040D01*
X110539300Y-88921040D01*
G37*
G36*
X105869300Y-88921040D02*
G01*
X105138500Y-88921040D01*
X105138500Y-88610240D01*
X105869300Y-88610240D01*
X105869300Y-88921040D01*
X105869300Y-88921040D01*
G37*
G36*
X128107900Y-88836640D02*
G01*
X126997100Y-88836640D01*
X126997100Y-88245840D01*
X128107900Y-88245840D01*
X128107900Y-88836640D01*
X128107900Y-88836640D01*
G37*
G36*
X126047900Y-88836640D02*
G01*
X124937100Y-88836640D01*
X124937100Y-88245840D01*
X126047900Y-88245840D01*
X126047900Y-88836640D01*
X126047900Y-88836640D01*
G37*
G36*
X105869300Y-88421040D02*
G01*
X105138500Y-88421040D01*
X105138500Y-88110240D01*
X105869300Y-88110240D01*
X105869300Y-88421040D01*
X105869300Y-88421040D01*
G37*
G36*
X110539300Y-88421040D02*
G01*
X109808500Y-88421040D01*
X109808500Y-88110240D01*
X110539300Y-88110240D01*
X110539300Y-88421040D01*
X110539300Y-88421040D01*
G37*
G36*
X105869300Y-87921040D02*
G01*
X105138500Y-87921040D01*
X105138500Y-87610240D01*
X105869300Y-87610240D01*
X105869300Y-87921040D01*
X105869300Y-87921040D01*
G37*
G36*
X110539300Y-87921040D02*
G01*
X109808500Y-87921040D01*
X109808500Y-87610240D01*
X110539300Y-87610240D01*
X110539300Y-87921040D01*
X110539300Y-87921040D01*
G37*
G36*
X102921080Y-87575440D02*
G01*
X101870280Y-87575440D01*
X101870280Y-86474640D01*
X102921080Y-86474640D01*
X102921080Y-87575440D01*
X102921080Y-87575440D01*
G37*
G36*
X107244300Y-87546040D02*
G01*
X106933500Y-87546040D01*
X106933500Y-86815240D01*
X107244300Y-86815240D01*
X107244300Y-87546040D01*
X107244300Y-87546040D01*
G37*
G36*
X109244300Y-87546040D02*
G01*
X108933500Y-87546040D01*
X108933500Y-86815240D01*
X109244300Y-86815240D01*
X109244300Y-87546040D01*
X109244300Y-87546040D01*
G37*
G36*
X108744300Y-87546040D02*
G01*
X108433500Y-87546040D01*
X108433500Y-86815240D01*
X108744300Y-86815240D01*
X108744300Y-87546040D01*
X108744300Y-87546040D01*
G37*
G36*
X108244300Y-87546040D02*
G01*
X107933500Y-87546040D01*
X107933500Y-86815240D01*
X108244300Y-86815240D01*
X108244300Y-87546040D01*
X108244300Y-87546040D01*
G37*
G36*
X106744300Y-87546040D02*
G01*
X106433500Y-87546040D01*
X106433500Y-86815240D01*
X106744300Y-86815240D01*
X106744300Y-87546040D01*
X106744300Y-87546040D01*
G37*
G36*
X109744300Y-87546040D02*
G01*
X109433500Y-87546040D01*
X109433500Y-86815240D01*
X109744300Y-86815240D01*
X109744300Y-87546040D01*
X109744300Y-87546040D01*
G37*
G36*
X107744300Y-87546040D02*
G01*
X107433500Y-87546040D01*
X107433500Y-86815240D01*
X107744300Y-86815240D01*
X107744300Y-87546040D01*
X107744300Y-87546040D01*
G37*
G36*
X106244300Y-87546040D02*
G01*
X105933500Y-87546040D01*
X105933500Y-86815240D01*
X106244300Y-86815240D01*
X106244300Y-87546040D01*
X106244300Y-87546040D01*
G37*
G36*
X129415260Y-87351880D02*
G01*
X128094460Y-87351880D01*
X128094460Y-84681080D01*
X129415260Y-84681080D01*
X129415260Y-87351880D01*
X129415260Y-87351880D01*
G37*
G36*
X126675260Y-87351880D02*
G01*
X125354460Y-87351880D01*
X125354460Y-84681080D01*
X126675260Y-84681080D01*
X126675260Y-87351880D01*
X126675260Y-87351880D01*
G37*
G36*
X104438580Y-86089000D02*
G01*
X104077780Y-86089000D01*
X104077780Y-85698200D01*
X104438580Y-85698200D01*
X104438580Y-86089000D01*
X104438580Y-86089000D01*
G37*
G36*
X103888580Y-86089000D02*
G01*
X103527780Y-86089000D01*
X103527780Y-85698200D01*
X103888580Y-85698200D01*
X103888580Y-86089000D01*
X103888580Y-86089000D01*
G37*
G36*
X127578094Y-82655351D02*
G01*
X127673708Y-82694955D01*
X127708131Y-82717956D01*
X127759763Y-82752455D01*
X127832945Y-82825637D01*
X127867444Y-82877269D01*
X127890445Y-82911692D01*
X127930049Y-83007306D01*
X127950240Y-83108812D01*
X127950240Y-83212308D01*
X127930049Y-83313814D01*
X127890445Y-83409428D01*
X127867444Y-83443851D01*
X127832945Y-83495483D01*
X127759763Y-83568665D01*
X127708131Y-83603164D01*
X127673708Y-83626165D01*
X127578094Y-83665769D01*
X127476588Y-83685960D01*
X127373092Y-83685960D01*
X127271586Y-83665769D01*
X127175972Y-83626165D01*
X127141549Y-83603164D01*
X127089917Y-83568665D01*
X127016735Y-83495483D01*
X126982236Y-83443851D01*
X126959235Y-83409428D01*
X126919631Y-83313814D01*
X126899440Y-83212308D01*
X126899440Y-83108812D01*
X126919631Y-83007306D01*
X126959235Y-82911692D01*
X126982236Y-82877269D01*
X127016735Y-82825637D01*
X127089917Y-82752455D01*
X127141549Y-82717956D01*
X127175972Y-82694955D01*
X127271586Y-82655351D01*
X127373092Y-82635160D01*
X127476588Y-82635160D01*
X127578094Y-82655351D01*
X127578094Y-82655351D01*
G37*
G36*
X104068180Y-77746380D02*
G01*
X103437380Y-77746380D01*
X103437380Y-77065580D01*
X104068180Y-77065580D01*
X104068180Y-77746380D01*
X104068180Y-77746380D01*
G37*
G36*
X104958180Y-77746380D02*
G01*
X104327380Y-77746380D01*
X104327380Y-77065580D01*
X104958180Y-77065580D01*
X104958180Y-77746380D01*
X104958180Y-77746380D01*
G37*
G36*
X110043180Y-77721380D02*
G01*
X109412380Y-77721380D01*
X109412380Y-77040580D01*
X110043180Y-77040580D01*
X110043180Y-77721380D01*
X110043180Y-77721380D01*
G37*
G36*
X110933180Y-77721380D02*
G01*
X110302380Y-77721380D01*
X110302380Y-77040580D01*
X110933180Y-77040580D01*
X110933180Y-77721380D01*
X110933180Y-77721380D01*
G37*
G36*
X106960800Y-77298060D02*
G01*
X106600000Y-77298060D01*
X106600000Y-76907260D01*
X106960800Y-76907260D01*
X106960800Y-77298060D01*
X106960800Y-77298060D01*
G37*
G36*
X106410800Y-77298060D02*
G01*
X106050000Y-77298060D01*
X106050000Y-76907260D01*
X106410800Y-76907260D01*
X106410800Y-77298060D01*
X106410800Y-77298060D01*
G37*
G36*
X108246040Y-77292980D02*
G01*
X107885240Y-77292980D01*
X107885240Y-76902180D01*
X108246040Y-76902180D01*
X108246040Y-77292980D01*
X108246040Y-77292980D01*
G37*
G36*
X107696040Y-77292980D02*
G01*
X107335240Y-77292980D01*
X107335240Y-76902180D01*
X107696040Y-76902180D01*
X107696040Y-77292980D01*
X107696040Y-77292980D01*
G37*
G36*
X104543180Y-75751380D02*
G01*
X103852380Y-75751380D01*
X103852380Y-73310580D01*
X104543180Y-73310580D01*
X104543180Y-75751380D01*
X104543180Y-75751380D01*
G37*
G36*
X110518180Y-75726380D02*
G01*
X109827380Y-75726380D01*
X109827380Y-73285580D01*
X110518180Y-73285580D01*
X110518180Y-75726380D01*
X110518180Y-75726380D01*
G37*
G36*
X103703180Y-75691380D02*
G01*
X103012380Y-75691380D01*
X103012380Y-75370580D01*
X103703180Y-75370580D01*
X103703180Y-75691380D01*
X103703180Y-75691380D01*
G37*
G36*
X105383180Y-75691380D02*
G01*
X104692380Y-75691380D01*
X104692380Y-75370580D01*
X105383180Y-75370580D01*
X105383180Y-75691380D01*
X105383180Y-75691380D01*
G37*
G36*
X111358180Y-75666380D02*
G01*
X110667380Y-75666380D01*
X110667380Y-75345580D01*
X111358180Y-75345580D01*
X111358180Y-75666380D01*
X111358180Y-75666380D01*
G37*
G36*
X109678180Y-75666380D02*
G01*
X108987380Y-75666380D01*
X108987380Y-75345580D01*
X109678180Y-75345580D01*
X109678180Y-75666380D01*
X109678180Y-75666380D01*
G37*
G36*
X105383180Y-75191380D02*
G01*
X104692380Y-75191380D01*
X104692380Y-74870580D01*
X105383180Y-74870580D01*
X105383180Y-75191380D01*
X105383180Y-75191380D01*
G37*
G36*
X103703180Y-75191380D02*
G01*
X103012380Y-75191380D01*
X103012380Y-74870580D01*
X103703180Y-74870580D01*
X103703180Y-75191380D01*
X103703180Y-75191380D01*
G37*
G36*
X111358180Y-75166380D02*
G01*
X110667380Y-75166380D01*
X110667380Y-74845580D01*
X111358180Y-74845580D01*
X111358180Y-75166380D01*
X111358180Y-75166380D01*
G37*
G36*
X109678180Y-75166380D02*
G01*
X108987380Y-75166380D01*
X108987380Y-74845580D01*
X109678180Y-74845580D01*
X109678180Y-75166380D01*
X109678180Y-75166380D01*
G37*
G36*
X100913174Y-73790751D02*
G01*
X101008788Y-73830355D01*
X101031573Y-73845580D01*
X101094843Y-73887855D01*
X101168025Y-73961037D01*
X101202524Y-74012669D01*
X101225525Y-74047092D01*
X101265129Y-74142706D01*
X101285320Y-74244212D01*
X101285320Y-74347708D01*
X101265129Y-74449214D01*
X101225525Y-74544828D01*
X101202524Y-74579251D01*
X101168025Y-74630883D01*
X101094843Y-74704065D01*
X101043211Y-74738564D01*
X101008788Y-74761565D01*
X100913174Y-74801169D01*
X100811668Y-74821360D01*
X100708172Y-74821360D01*
X100606666Y-74801169D01*
X100511052Y-74761565D01*
X100476629Y-74738564D01*
X100424997Y-74704065D01*
X100351815Y-74630883D01*
X100317316Y-74579251D01*
X100294315Y-74544828D01*
X100254711Y-74449214D01*
X100234520Y-74347708D01*
X100234520Y-74244212D01*
X100254711Y-74142706D01*
X100294315Y-74047092D01*
X100317316Y-74012669D01*
X100351815Y-73961037D01*
X100424997Y-73887855D01*
X100488267Y-73845580D01*
X100511052Y-73830355D01*
X100606666Y-73790751D01*
X100708172Y-73770560D01*
X100811668Y-73770560D01*
X100913174Y-73790751D01*
X100913174Y-73790751D01*
G37*
G36*
X113597934Y-73790751D02*
G01*
X113693548Y-73830355D01*
X113716333Y-73845580D01*
X113779603Y-73887855D01*
X113852785Y-73961037D01*
X113887284Y-74012669D01*
X113910285Y-74047092D01*
X113949889Y-74142706D01*
X113970080Y-74244212D01*
X113970080Y-74347708D01*
X113949889Y-74449214D01*
X113910285Y-74544828D01*
X113887284Y-74579251D01*
X113852785Y-74630883D01*
X113779603Y-74704065D01*
X113727971Y-74738564D01*
X113693548Y-74761565D01*
X113597934Y-74801169D01*
X113496428Y-74821360D01*
X113392932Y-74821360D01*
X113291426Y-74801169D01*
X113195812Y-74761565D01*
X113161389Y-74738564D01*
X113109757Y-74704065D01*
X113036575Y-74630883D01*
X113002076Y-74579251D01*
X112979075Y-74544828D01*
X112939471Y-74449214D01*
X112919280Y-74347708D01*
X112919280Y-74244212D01*
X112939471Y-74142706D01*
X112979075Y-74047092D01*
X113002076Y-74012669D01*
X113036575Y-73961037D01*
X113109757Y-73887855D01*
X113173027Y-73845580D01*
X113195812Y-73830355D01*
X113291426Y-73790751D01*
X113392932Y-73770560D01*
X113496428Y-73770560D01*
X113597934Y-73790751D01*
X113597934Y-73790751D01*
G37*
G36*
X105383180Y-74691380D02*
G01*
X104692380Y-74691380D01*
X104692380Y-74370580D01*
X105383180Y-74370580D01*
X105383180Y-74691380D01*
X105383180Y-74691380D01*
G37*
G36*
X103703180Y-74691380D02*
G01*
X103012380Y-74691380D01*
X103012380Y-74370580D01*
X103703180Y-74370580D01*
X103703180Y-74691380D01*
X103703180Y-74691380D01*
G37*
G36*
X109678180Y-74666380D02*
G01*
X108987380Y-74666380D01*
X108987380Y-74345580D01*
X109678180Y-74345580D01*
X109678180Y-74666380D01*
X109678180Y-74666380D01*
G37*
G36*
X111358180Y-74666380D02*
G01*
X110667380Y-74666380D01*
X110667380Y-74345580D01*
X111358180Y-74345580D01*
X111358180Y-74666380D01*
X111358180Y-74666380D01*
G37*
G36*
X105383180Y-74191380D02*
G01*
X104692380Y-74191380D01*
X104692380Y-73870580D01*
X105383180Y-73870580D01*
X105383180Y-74191380D01*
X105383180Y-74191380D01*
G37*
G36*
X103703180Y-74191380D02*
G01*
X103012380Y-74191380D01*
X103012380Y-73870580D01*
X103703180Y-73870580D01*
X103703180Y-74191380D01*
X103703180Y-74191380D01*
G37*
G36*
X111358180Y-74166380D02*
G01*
X110667380Y-74166380D01*
X110667380Y-73845580D01*
X111358180Y-73845580D01*
X111358180Y-74166380D01*
X111358180Y-74166380D01*
G37*
G36*
X109678180Y-74166380D02*
G01*
X108987380Y-74166380D01*
X108987380Y-73845580D01*
X109678180Y-73845580D01*
X109678180Y-74166380D01*
X109678180Y-74166380D01*
G37*
G36*
X103703180Y-73691380D02*
G01*
X103012380Y-73691380D01*
X103012380Y-73370580D01*
X103703180Y-73370580D01*
X103703180Y-73691380D01*
X103703180Y-73691380D01*
G37*
G36*
X105383180Y-73691380D02*
G01*
X104692380Y-73691380D01*
X104692380Y-73370580D01*
X105383180Y-73370580D01*
X105383180Y-73691380D01*
X105383180Y-73691380D01*
G37*
G36*
X109678180Y-73666380D02*
G01*
X108987380Y-73666380D01*
X108987380Y-73345580D01*
X109678180Y-73345580D01*
X109678180Y-73666380D01*
X109678180Y-73666380D01*
G37*
G36*
X111358180Y-73666380D02*
G01*
X110667380Y-73666380D01*
X110667380Y-73345580D01*
X111358180Y-73345580D01*
X111358180Y-73666380D01*
X111358180Y-73666380D01*
G37*
G36*
X108133180Y-72131380D02*
G01*
X107862380Y-72131380D01*
X107862380Y-71470580D01*
X108133180Y-71470580D01*
X108133180Y-72131380D01*
X108133180Y-72131380D01*
G37*
G36*
X107733180Y-72131380D02*
G01*
X107462380Y-72131380D01*
X107462380Y-71470580D01*
X107733180Y-71470580D01*
X107733180Y-72131380D01*
X107733180Y-72131380D01*
G37*
G36*
X107333180Y-72131380D02*
G01*
X107062380Y-72131380D01*
X107062380Y-71470580D01*
X107333180Y-71470580D01*
X107333180Y-72131380D01*
X107333180Y-72131380D01*
G37*
G36*
X106933180Y-72131380D02*
G01*
X106662380Y-72131380D01*
X106662380Y-71470580D01*
X106933180Y-71470580D01*
X106933180Y-72131380D01*
X106933180Y-72131380D01*
G37*
G36*
X106533180Y-72131380D02*
G01*
X106262380Y-72131380D01*
X106262380Y-71470580D01*
X106533180Y-71470580D01*
X106533180Y-72131380D01*
X106533180Y-72131380D01*
G37*
G36*
X103276580Y-72026380D02*
G01*
X102915780Y-72026380D01*
X102915780Y-71635580D01*
X103276580Y-71635580D01*
X103276580Y-72026380D01*
X103276580Y-72026380D01*
G37*
G36*
X103826580Y-72026380D02*
G01*
X103465780Y-72026380D01*
X103465780Y-71635580D01*
X103826580Y-71635580D01*
X103826580Y-72026380D01*
X103826580Y-72026380D01*
G37*
G36*
X111322620Y-72016220D02*
G01*
X110961820Y-72016220D01*
X110961820Y-71625420D01*
X111322620Y-71625420D01*
X111322620Y-72016220D01*
X111322620Y-72016220D01*
G37*
G36*
X110772620Y-72016220D02*
G01*
X110411820Y-72016220D01*
X110411820Y-71625420D01*
X110772620Y-71625420D01*
X110772620Y-72016220D01*
X110772620Y-72016220D01*
G37*
G36*
X110007460Y-72016220D02*
G01*
X109646660Y-72016220D01*
X109646660Y-71625420D01*
X110007460Y-71625420D01*
X110007460Y-72016220D01*
X110007460Y-72016220D01*
G37*
G36*
X109457460Y-72016220D02*
G01*
X109096660Y-72016220D01*
X109096660Y-71625420D01*
X109457460Y-71625420D01*
X109457460Y-72016220D01*
X109457460Y-72016220D01*
G37*
G36*
X105076120Y-72014860D02*
G01*
X104715320Y-72014860D01*
X104715320Y-71624060D01*
X105076120Y-71624060D01*
X105076120Y-72014860D01*
X105076120Y-72014860D01*
G37*
G36*
X104526120Y-72014860D02*
G01*
X104165320Y-72014860D01*
X104165320Y-71624060D01*
X104526120Y-71624060D01*
X104526120Y-72014860D01*
X104526120Y-72014860D01*
G37*
G36*
X109457460Y-71349300D02*
G01*
X109096660Y-71349300D01*
X109096660Y-70958500D01*
X109457460Y-70958500D01*
X109457460Y-71349300D01*
X109457460Y-71349300D01*
G37*
G36*
X110007460Y-71349300D02*
G01*
X109646660Y-71349300D01*
X109646660Y-70958500D01*
X110007460Y-70958500D01*
X110007460Y-71349300D01*
X110007460Y-71349300D01*
G37*
G36*
X111322620Y-71336800D02*
G01*
X110961820Y-71336800D01*
X110961820Y-70946000D01*
X111322620Y-70946000D01*
X111322620Y-71336800D01*
X111322620Y-71336800D01*
G37*
G36*
X110772620Y-71336800D02*
G01*
X110411820Y-71336800D01*
X110411820Y-70946000D01*
X110772620Y-70946000D01*
X110772620Y-71336800D01*
X110772620Y-71336800D01*
G37*
G36*
X103271500Y-71321360D02*
G01*
X102910700Y-71321360D01*
X102910700Y-70930560D01*
X103271500Y-70930560D01*
X103271500Y-71321360D01*
X103271500Y-71321360D01*
G37*
G36*
X105085940Y-71321360D02*
G01*
X104725140Y-71321360D01*
X104725140Y-70930560D01*
X105085940Y-70930560D01*
X105085940Y-71321360D01*
X105085940Y-71321360D01*
G37*
G36*
X104535940Y-71321360D02*
G01*
X104175140Y-71321360D01*
X104175140Y-70930560D01*
X104535940Y-70930560D01*
X104535940Y-71321360D01*
X104535940Y-71321360D01*
G37*
G36*
X103821500Y-71321360D02*
G01*
X103460700Y-71321360D01*
X103460700Y-70930560D01*
X103821500Y-70930560D01*
X103821500Y-71321360D01*
X103821500Y-71321360D01*
G37*
G36*
X106683180Y-71291380D02*
G01*
X106022380Y-71291380D01*
X106022380Y-71020580D01*
X106683180Y-71020580D01*
X106683180Y-71291380D01*
X106683180Y-71291380D01*
G37*
G36*
X108373180Y-71291380D02*
G01*
X107712380Y-71291380D01*
X107712380Y-71020580D01*
X108373180Y-71020580D01*
X108373180Y-71291380D01*
X108373180Y-71291380D01*
G37*
G36*
X108373180Y-70891380D02*
G01*
X107712380Y-70891380D01*
X107712380Y-70620580D01*
X108373180Y-70620580D01*
X108373180Y-70891380D01*
X108373180Y-70891380D01*
G37*
G36*
X106683180Y-70891380D02*
G01*
X106022380Y-70891380D01*
X106022380Y-70620580D01*
X106683180Y-70620580D01*
X106683180Y-70891380D01*
X106683180Y-70891380D01*
G37*
G36*
X107333180Y-70441380D02*
G01*
X107062380Y-70441380D01*
X107062380Y-69780580D01*
X107333180Y-69780580D01*
X107333180Y-70441380D01*
X107333180Y-70441380D01*
G37*
G36*
X106933180Y-70441380D02*
G01*
X106662380Y-70441380D01*
X106662380Y-69780580D01*
X106933180Y-69780580D01*
X106933180Y-70441380D01*
X106933180Y-70441380D01*
G37*
G36*
X106533180Y-70441380D02*
G01*
X106262380Y-70441380D01*
X106262380Y-69780580D01*
X106533180Y-69780580D01*
X106533180Y-70441380D01*
X106533180Y-70441380D01*
G37*
G36*
X107733180Y-70441380D02*
G01*
X107462380Y-70441380D01*
X107462380Y-69780580D01*
X107733180Y-69780580D01*
X107733180Y-70441380D01*
X107733180Y-70441380D01*
G37*
G36*
X108133180Y-70441380D02*
G01*
X107862380Y-70441380D01*
X107862380Y-69780580D01*
X108133180Y-69780580D01*
X108133180Y-70441380D01*
X108133180Y-70441380D01*
G37*
G36*
X109457460Y-70189620D02*
G01*
X109096660Y-70189620D01*
X109096660Y-69798820D01*
X109457460Y-69798820D01*
X109457460Y-70189620D01*
X109457460Y-70189620D01*
G37*
G36*
X111322620Y-70189620D02*
G01*
X110961820Y-70189620D01*
X110961820Y-69798820D01*
X111322620Y-69798820D01*
X111322620Y-70189620D01*
X111322620Y-70189620D01*
G37*
G36*
X110772620Y-70189620D02*
G01*
X110411820Y-70189620D01*
X110411820Y-69798820D01*
X110772620Y-69798820D01*
X110772620Y-70189620D01*
X110772620Y-70189620D01*
G37*
G36*
X104541020Y-70189620D02*
G01*
X104180220Y-70189620D01*
X104180220Y-69798820D01*
X104541020Y-69798820D01*
X104541020Y-70189620D01*
X104541020Y-70189620D01*
G37*
G36*
X105091020Y-70189620D02*
G01*
X104730220Y-70189620D01*
X104730220Y-69798820D01*
X105091020Y-69798820D01*
X105091020Y-70189620D01*
X105091020Y-70189620D01*
G37*
G36*
X103826580Y-70189620D02*
G01*
X103465780Y-70189620D01*
X103465780Y-69798820D01*
X103826580Y-69798820D01*
X103826580Y-70189620D01*
X103826580Y-70189620D01*
G37*
G36*
X103276580Y-70189620D02*
G01*
X102915780Y-70189620D01*
X102915780Y-69798820D01*
X103276580Y-69798820D01*
X103276580Y-70189620D01*
X103276580Y-70189620D01*
G37*
G36*
X110007460Y-70189620D02*
G01*
X109646660Y-70189620D01*
X109646660Y-69798820D01*
X110007460Y-69798820D01*
X110007460Y-70189620D01*
X110007460Y-70189620D01*
G37*
M02*
