G04 #@! TF.GenerationSoftware,KiCad,Pcbnew,(5.1.4)-1*
G04 #@! TF.CreationDate,2020-08-13T23:55:02-07:00*
G04 #@! TF.ProjectId,Kicad_LFOV_RigidFlex_Assembly,4b696361-645f-44c4-964f-565f52696769,rev?*
G04 #@! TF.SameCoordinates,Original*
G04 #@! TF.FileFunction,Copper,L2,Inr*
G04 #@! TF.FilePolarity,Positive*
%FSLAX46Y46*%
G04 Gerber Fmt 4.6, Leading zero omitted, Abs format (unit mm)*
G04 Created by KiCad (PCBNEW (5.1.4)-1) date 2020-08-13 23:55:02*
%MOMM*%
%LPD*%
G04 APERTURE LIST*
%ADD10C,0.350000*%
%ADD11C,0.300000*%
%ADD12C,0.450000*%
%ADD13C,0.152400*%
%ADD14C,0.254000*%
G04 APERTURE END LIST*
D10*
X103973020Y-87867180D03*
D11*
X105753560Y-114910560D03*
X109113980Y-115428720D03*
X126876200Y-91532400D03*
D12*
X100897080Y-89259100D03*
D11*
X100541480Y-92357900D03*
D12*
X102545580Y-118999600D03*
X129147620Y-85086840D03*
X129147620Y-85965680D03*
X129147620Y-86844520D03*
D11*
X127943660Y-87824960D03*
D12*
X110172780Y-75255980D03*
X110172780Y-73755980D03*
X104197780Y-73780980D03*
X104197780Y-75280980D03*
D11*
X107221680Y-73960680D03*
D10*
X105378910Y-87314730D03*
X111962980Y-109913598D03*
D12*
X129394000Y-88547040D03*
X112835080Y-91697502D03*
D11*
X126881280Y-90028720D03*
D12*
X108821880Y-90032100D03*
X107602680Y-88878100D03*
D11*
X108463780Y-111621400D03*
X106881320Y-91081359D03*
X103139900Y-92431560D03*
X106406380Y-118046600D03*
X110876780Y-114999600D03*
X111703980Y-117526400D03*
X109403580Y-112458600D03*
X107532920Y-113365060D03*
X109592460Y-118973600D03*
X110793780Y-112407800D03*
D10*
X108538960Y-109803600D03*
X103091100Y-71125960D03*
X110617780Y-77380980D03*
D12*
X107169570Y-70955980D03*
D10*
X107997780Y-71800980D03*
X103091100Y-69999300D03*
X109850580Y-86297460D03*
X111012780Y-74505980D03*
X111012780Y-75005980D03*
D11*
X129544000Y-92926280D03*
X126995130Y-93462350D03*
D10*
X102449020Y-108900920D03*
D11*
X109827060Y-71820820D03*
D12*
X100719280Y-90376700D03*
D11*
X109131980Y-114468200D03*
X109431480Y-110686200D03*
X111298380Y-92456960D03*
X110859320Y-116739000D03*
X104052980Y-118127520D03*
D10*
X103271980Y-75548180D03*
D12*
X125611940Y-85086840D03*
X125611940Y-86844520D03*
X125611940Y-85965680D03*
D11*
X126246940Y-87824960D03*
D10*
X103762200Y-86769900D03*
D11*
X112581080Y-86322860D03*
X125171098Y-91350480D03*
D10*
X104910620Y-69994220D03*
D11*
X100541480Y-93369500D03*
X111967080Y-89589300D03*
D10*
X111012780Y-73505980D03*
X106222780Y-77080980D03*
X108065640Y-77097580D03*
X111177780Y-69994220D03*
X129719000Y-90847560D03*
D11*
X125585491Y-93996491D03*
X109827060Y-69994220D03*
X107160720Y-75413560D03*
X105824429Y-86238789D03*
D10*
X105822780Y-77953446D03*
D11*
X105364940Y-86241580D03*
D10*
X105037780Y-74030980D03*
X104910620Y-71855980D03*
X108093440Y-71155980D03*
D11*
X127890798Y-91524882D03*
X127882700Y-92032980D03*
D10*
X111425380Y-87305840D03*
X108844700Y-86315667D03*
D11*
X101735280Y-93018300D03*
X107523980Y-112484000D03*
X103396440Y-112756640D03*
X110885220Y-114109600D03*
X107704280Y-92002300D03*
D10*
X102649680Y-86642900D03*
X110750420Y-87292460D03*
X109335167Y-86315667D03*
X106942280Y-86315667D03*
X104807410Y-92436202D03*
X104807410Y-92436202D03*
X104807410Y-92436202D03*
X104807410Y-92436202D03*
D12*
X112835080Y-92662701D03*
D11*
X110173900Y-90265640D03*
D10*
X104897580Y-115459200D03*
D11*
X110173900Y-90765640D03*
D10*
X110687060Y-110693607D03*
D11*
X110173900Y-91265640D03*
D10*
X110282380Y-111243400D03*
X110904680Y-89182900D03*
D11*
X125083732Y-93998748D03*
D10*
X124587498Y-88593870D03*
D11*
X110281180Y-109803600D03*
D10*
X107515640Y-77097580D03*
X107595060Y-69718880D03*
X107810295Y-86307867D03*
D11*
X111407600Y-89591840D03*
X127389280Y-92037860D03*
X110174620Y-89765640D03*
X107197780Y-70110980D03*
D10*
X106805379Y-77113579D03*
X110500820Y-108885680D03*
X111427920Y-87862780D03*
D11*
X103332980Y-115443600D03*
D10*
X104807410Y-88776500D03*
X104807410Y-89361970D03*
X103644976Y-114738600D03*
D11*
X105817060Y-89767100D03*
X103637780Y-113970400D03*
X105806900Y-90262400D03*
D10*
X104275280Y-115035020D03*
D11*
X105814520Y-90762780D03*
D10*
X105705300Y-113970760D03*
D11*
X104944709Y-91286020D03*
D10*
X106088840Y-113577060D03*
D11*
X106294580Y-92477280D03*
D10*
X107564580Y-108875520D03*
X107048960Y-92472200D03*
X107048960Y-108882678D03*
X106609540Y-113150340D03*
X107798260Y-92500140D03*
X106091380Y-112721080D03*
X108611981Y-92452801D03*
X111689540Y-86325400D03*
D11*
X106083080Y-92002300D03*
X106931980Y-116368200D03*
X110851380Y-115826800D03*
X107494320Y-110731400D03*
X102520180Y-112609280D03*
X105761040Y-115787000D03*
X110839180Y-113335400D03*
X107516180Y-118936600D03*
D10*
X106781180Y-109803600D03*
D11*
X111308540Y-91852440D03*
D10*
X108332297Y-86315667D03*
X104242510Y-86769900D03*
X105011880Y-75520240D03*
X103646180Y-71830980D03*
X109332780Y-74005980D03*
X109703360Y-77356560D03*
D11*
X107211580Y-73219060D03*
D10*
X104355540Y-71125960D03*
X109332780Y-75505980D03*
D13*
G36*
X112045180Y-119304400D02*
G01*
X107607766Y-119304400D01*
X107626614Y-119300651D01*
X107695514Y-119272111D01*
X107757524Y-119230678D01*
X107810258Y-119177944D01*
X107851691Y-119115934D01*
X107880231Y-119047034D01*
X107894780Y-118973889D01*
X107894780Y-118899311D01*
X107880231Y-118826166D01*
X107851691Y-118757266D01*
X107810258Y-118695256D01*
X107757524Y-118642522D01*
X107695514Y-118601089D01*
X107626614Y-118572549D01*
X107553469Y-118558000D01*
X107478891Y-118558000D01*
X107405746Y-118572549D01*
X107336846Y-118601089D01*
X107274836Y-118642522D01*
X107222102Y-118695256D01*
X107180669Y-118757266D01*
X107152129Y-118826166D01*
X107137580Y-118899311D01*
X107137580Y-118973889D01*
X107152129Y-119047034D01*
X107180669Y-119115934D01*
X107222102Y-119177944D01*
X107274836Y-119230678D01*
X107336846Y-119272111D01*
X107405746Y-119300651D01*
X107424594Y-119304400D01*
X102215380Y-119304400D01*
X102215380Y-118090231D01*
X103674380Y-118090231D01*
X103674380Y-118164809D01*
X103688929Y-118237954D01*
X103717469Y-118306854D01*
X103758902Y-118368864D01*
X103811636Y-118421598D01*
X103873646Y-118463031D01*
X103942546Y-118491571D01*
X104015691Y-118506120D01*
X104090269Y-118506120D01*
X104163414Y-118491571D01*
X104232314Y-118463031D01*
X104294324Y-118421598D01*
X104347058Y-118368864D01*
X104388491Y-118306854D01*
X104417031Y-118237954D01*
X104431580Y-118164809D01*
X104431580Y-118090231D01*
X104417031Y-118017086D01*
X104388491Y-117948186D01*
X104347058Y-117886176D01*
X104294324Y-117833442D01*
X104232314Y-117792009D01*
X104163414Y-117763469D01*
X104090269Y-117748920D01*
X104015691Y-117748920D01*
X103942546Y-117763469D01*
X103873646Y-117792009D01*
X103811636Y-117833442D01*
X103758902Y-117886176D01*
X103717469Y-117948186D01*
X103688929Y-118017086D01*
X103674380Y-118090231D01*
X102215380Y-118090231D01*
X102215380Y-116330911D01*
X106553380Y-116330911D01*
X106553380Y-116405489D01*
X106567929Y-116478634D01*
X106596469Y-116547534D01*
X106637902Y-116609544D01*
X106690636Y-116662278D01*
X106752646Y-116703711D01*
X106821546Y-116732251D01*
X106894691Y-116746800D01*
X106969269Y-116746800D01*
X107042414Y-116732251D01*
X107111314Y-116703711D01*
X107114307Y-116701711D01*
X110480720Y-116701711D01*
X110480720Y-116776289D01*
X110495269Y-116849434D01*
X110523809Y-116918334D01*
X110565242Y-116980344D01*
X110617976Y-117033078D01*
X110679986Y-117074511D01*
X110748886Y-117103051D01*
X110822031Y-117117600D01*
X110896609Y-117117600D01*
X110969754Y-117103051D01*
X111038654Y-117074511D01*
X111100664Y-117033078D01*
X111153398Y-116980344D01*
X111194831Y-116918334D01*
X111223371Y-116849434D01*
X111237920Y-116776289D01*
X111237920Y-116701711D01*
X111223371Y-116628566D01*
X111194831Y-116559666D01*
X111153398Y-116497656D01*
X111100664Y-116444922D01*
X111038654Y-116403489D01*
X110969754Y-116374949D01*
X110896609Y-116360400D01*
X110822031Y-116360400D01*
X110748886Y-116374949D01*
X110679986Y-116403489D01*
X110617976Y-116444922D01*
X110565242Y-116497656D01*
X110523809Y-116559666D01*
X110495269Y-116628566D01*
X110480720Y-116701711D01*
X107114307Y-116701711D01*
X107173324Y-116662278D01*
X107226058Y-116609544D01*
X107267491Y-116547534D01*
X107296031Y-116478634D01*
X107310580Y-116405489D01*
X107310580Y-116330911D01*
X107296031Y-116257766D01*
X107267491Y-116188866D01*
X107226058Y-116126856D01*
X107173324Y-116074122D01*
X107111314Y-116032689D01*
X107042414Y-116004149D01*
X106969269Y-115989600D01*
X106894691Y-115989600D01*
X106821546Y-116004149D01*
X106752646Y-116032689D01*
X106690636Y-116074122D01*
X106637902Y-116126856D01*
X106596469Y-116188866D01*
X106567929Y-116257766D01*
X106553380Y-116330911D01*
X102215380Y-116330911D01*
X102215380Y-115406311D01*
X102954380Y-115406311D01*
X102954380Y-115480889D01*
X102968929Y-115554034D01*
X102997469Y-115622934D01*
X103038902Y-115684944D01*
X103091636Y-115737678D01*
X103153646Y-115779111D01*
X103222546Y-115807651D01*
X103295691Y-115822200D01*
X103370269Y-115822200D01*
X103443414Y-115807651D01*
X103512314Y-115779111D01*
X103574324Y-115737678D01*
X103627058Y-115684944D01*
X103668491Y-115622934D01*
X103697031Y-115554034D01*
X103711580Y-115480889D01*
X103711580Y-115406311D01*
X103697031Y-115333166D01*
X103668491Y-115264266D01*
X103627058Y-115202256D01*
X103574324Y-115149522D01*
X103545622Y-115130344D01*
X103605225Y-115142200D01*
X103684727Y-115142200D01*
X103762702Y-115126690D01*
X103836152Y-115096266D01*
X103871680Y-115072527D01*
X103871680Y-115074771D01*
X103887190Y-115152746D01*
X103917614Y-115226196D01*
X103961783Y-115292300D01*
X104018000Y-115348517D01*
X104084104Y-115392686D01*
X104157554Y-115423110D01*
X104235529Y-115438620D01*
X104315031Y-115438620D01*
X104393006Y-115423110D01*
X104466456Y-115392686D01*
X104504338Y-115367374D01*
X104493980Y-115419449D01*
X104493980Y-115498951D01*
X104509490Y-115576926D01*
X104539914Y-115650376D01*
X104584083Y-115716480D01*
X104640300Y-115772697D01*
X104706404Y-115816866D01*
X104779854Y-115847290D01*
X104857829Y-115862800D01*
X104937331Y-115862800D01*
X105015306Y-115847290D01*
X105088756Y-115816866D01*
X105154860Y-115772697D01*
X105177846Y-115749711D01*
X105382440Y-115749711D01*
X105382440Y-115824289D01*
X105396989Y-115897434D01*
X105425529Y-115966334D01*
X105466962Y-116028344D01*
X105519696Y-116081078D01*
X105581706Y-116122511D01*
X105650606Y-116151051D01*
X105723751Y-116165600D01*
X105798329Y-116165600D01*
X105871474Y-116151051D01*
X105940374Y-116122511D01*
X106002384Y-116081078D01*
X106055118Y-116028344D01*
X106096551Y-115966334D01*
X106125091Y-115897434D01*
X106139640Y-115824289D01*
X106139640Y-115789511D01*
X110472780Y-115789511D01*
X110472780Y-115864089D01*
X110487329Y-115937234D01*
X110515869Y-116006134D01*
X110557302Y-116068144D01*
X110610036Y-116120878D01*
X110672046Y-116162311D01*
X110740946Y-116190851D01*
X110814091Y-116205400D01*
X110888669Y-116205400D01*
X110961814Y-116190851D01*
X111030714Y-116162311D01*
X111092724Y-116120878D01*
X111145458Y-116068144D01*
X111186891Y-116006134D01*
X111215431Y-115937234D01*
X111229980Y-115864089D01*
X111229980Y-115789511D01*
X111215431Y-115716366D01*
X111186891Y-115647466D01*
X111145458Y-115585456D01*
X111092724Y-115532722D01*
X111030714Y-115491289D01*
X110961814Y-115462749D01*
X110888669Y-115448200D01*
X110814091Y-115448200D01*
X110740946Y-115462749D01*
X110672046Y-115491289D01*
X110610036Y-115532722D01*
X110557302Y-115585456D01*
X110515869Y-115647466D01*
X110487329Y-115716366D01*
X110472780Y-115789511D01*
X106139640Y-115789511D01*
X106139640Y-115749711D01*
X106125091Y-115676566D01*
X106096551Y-115607666D01*
X106055118Y-115545656D01*
X106002384Y-115492922D01*
X105940374Y-115451489D01*
X105871474Y-115422949D01*
X105798329Y-115408400D01*
X105723751Y-115408400D01*
X105650606Y-115422949D01*
X105581706Y-115451489D01*
X105519696Y-115492922D01*
X105466962Y-115545656D01*
X105425529Y-115607666D01*
X105396989Y-115676566D01*
X105382440Y-115749711D01*
X105177846Y-115749711D01*
X105211077Y-115716480D01*
X105255246Y-115650376D01*
X105285670Y-115576926D01*
X105301180Y-115498951D01*
X105301180Y-115419449D01*
X105285670Y-115341474D01*
X105255246Y-115268024D01*
X105211077Y-115201920D01*
X105154860Y-115145703D01*
X105088756Y-115101534D01*
X105015306Y-115071110D01*
X104937331Y-115055600D01*
X104857829Y-115055600D01*
X104779854Y-115071110D01*
X104706404Y-115101534D01*
X104668522Y-115126846D01*
X104678880Y-115074771D01*
X104678880Y-114995269D01*
X104663370Y-114917294D01*
X104632946Y-114843844D01*
X104588777Y-114777740D01*
X104532560Y-114721523D01*
X104466456Y-114677354D01*
X104393006Y-114646930D01*
X104315031Y-114631420D01*
X104235529Y-114631420D01*
X104157554Y-114646930D01*
X104084104Y-114677354D01*
X104048576Y-114701093D01*
X104048576Y-114698849D01*
X104033066Y-114620874D01*
X104002642Y-114547424D01*
X103958473Y-114481320D01*
X103908064Y-114430911D01*
X108753380Y-114430911D01*
X108753380Y-114505489D01*
X108767929Y-114578634D01*
X108796469Y-114647534D01*
X108837902Y-114709544D01*
X108890636Y-114762278D01*
X108952646Y-114803711D01*
X109021546Y-114832251D01*
X109094691Y-114846800D01*
X109169269Y-114846800D01*
X109242414Y-114832251D01*
X109311314Y-114803711D01*
X109373324Y-114762278D01*
X109426058Y-114709544D01*
X109467491Y-114647534D01*
X109496031Y-114578634D01*
X109510580Y-114505489D01*
X109510580Y-114430911D01*
X109496031Y-114357766D01*
X109467491Y-114288866D01*
X109426058Y-114226856D01*
X109373324Y-114174122D01*
X109311314Y-114132689D01*
X109242414Y-114104149D01*
X109169269Y-114089600D01*
X109094691Y-114089600D01*
X109021546Y-114104149D01*
X108952646Y-114132689D01*
X108890636Y-114174122D01*
X108837902Y-114226856D01*
X108796469Y-114288866D01*
X108767929Y-114357766D01*
X108753380Y-114430911D01*
X103908064Y-114430911D01*
X103902256Y-114425103D01*
X103836152Y-114380934D01*
X103762702Y-114350510D01*
X103715090Y-114341040D01*
X103748214Y-114334451D01*
X103817114Y-114305911D01*
X103879124Y-114264478D01*
X103931858Y-114211744D01*
X103973291Y-114149734D01*
X104001831Y-114080834D01*
X104016380Y-114007689D01*
X104016380Y-113933111D01*
X104015962Y-113931009D01*
X105301700Y-113931009D01*
X105301700Y-114010511D01*
X105317210Y-114088486D01*
X105347634Y-114161936D01*
X105391803Y-114228040D01*
X105448020Y-114284257D01*
X105514124Y-114328426D01*
X105587574Y-114358850D01*
X105665549Y-114374360D01*
X105745051Y-114374360D01*
X105823026Y-114358850D01*
X105896476Y-114328426D01*
X105962580Y-114284257D01*
X106018797Y-114228040D01*
X106062966Y-114161936D01*
X106093390Y-114088486D01*
X106096607Y-114072311D01*
X110506620Y-114072311D01*
X110506620Y-114146889D01*
X110521169Y-114220034D01*
X110549709Y-114288934D01*
X110591142Y-114350944D01*
X110643876Y-114403678D01*
X110705886Y-114445111D01*
X110774786Y-114473651D01*
X110847931Y-114488200D01*
X110922509Y-114488200D01*
X110995654Y-114473651D01*
X111064554Y-114445111D01*
X111126564Y-114403678D01*
X111179298Y-114350944D01*
X111220731Y-114288934D01*
X111249271Y-114220034D01*
X111263820Y-114146889D01*
X111263820Y-114072311D01*
X111249271Y-113999166D01*
X111220731Y-113930266D01*
X111179298Y-113868256D01*
X111126564Y-113815522D01*
X111064554Y-113774089D01*
X110995654Y-113745549D01*
X110922509Y-113731000D01*
X110847931Y-113731000D01*
X110774786Y-113745549D01*
X110705886Y-113774089D01*
X110643876Y-113815522D01*
X110591142Y-113868256D01*
X110549709Y-113930266D01*
X110521169Y-113999166D01*
X110506620Y-114072311D01*
X106096607Y-114072311D01*
X106108900Y-114010511D01*
X106108900Y-113980660D01*
X106128591Y-113980660D01*
X106206566Y-113965150D01*
X106280016Y-113934726D01*
X106346120Y-113890557D01*
X106402337Y-113834340D01*
X106446506Y-113768236D01*
X106476930Y-113694786D01*
X106492440Y-113616811D01*
X106492440Y-113538555D01*
X106569789Y-113553940D01*
X106649291Y-113553940D01*
X106727266Y-113538430D01*
X106800716Y-113508006D01*
X106866820Y-113463837D01*
X106923037Y-113407620D01*
X106967206Y-113341516D01*
X106985184Y-113298111D01*
X110460580Y-113298111D01*
X110460580Y-113372689D01*
X110475129Y-113445834D01*
X110503669Y-113514734D01*
X110545102Y-113576744D01*
X110597836Y-113629478D01*
X110659846Y-113670911D01*
X110728746Y-113699451D01*
X110801891Y-113714000D01*
X110876469Y-113714000D01*
X110949614Y-113699451D01*
X111018514Y-113670911D01*
X111080524Y-113629478D01*
X111133258Y-113576744D01*
X111174691Y-113514734D01*
X111203231Y-113445834D01*
X111217780Y-113372689D01*
X111217780Y-113298111D01*
X111203231Y-113224966D01*
X111174691Y-113156066D01*
X111133258Y-113094056D01*
X111080524Y-113041322D01*
X111018514Y-112999889D01*
X110949614Y-112971349D01*
X110876469Y-112956800D01*
X110801891Y-112956800D01*
X110728746Y-112971349D01*
X110659846Y-112999889D01*
X110597836Y-113041322D01*
X110545102Y-113094056D01*
X110503669Y-113156066D01*
X110475129Y-113224966D01*
X110460580Y-113298111D01*
X106985184Y-113298111D01*
X106997630Y-113268066D01*
X107013140Y-113190091D01*
X107013140Y-113110589D01*
X106997630Y-113032614D01*
X106967206Y-112959164D01*
X106923037Y-112893060D01*
X106866820Y-112836843D01*
X106800716Y-112792674D01*
X106727266Y-112762250D01*
X106649291Y-112746740D01*
X106569789Y-112746740D01*
X106494817Y-112761653D01*
X106494980Y-112760831D01*
X106494980Y-112681329D01*
X106479470Y-112603354D01*
X106449046Y-112529904D01*
X106404877Y-112463800D01*
X106387788Y-112446711D01*
X107145380Y-112446711D01*
X107145380Y-112521289D01*
X107159929Y-112594434D01*
X107188469Y-112663334D01*
X107229902Y-112725344D01*
X107282636Y-112778078D01*
X107344646Y-112819511D01*
X107413546Y-112848051D01*
X107486691Y-112862600D01*
X107561269Y-112862600D01*
X107634414Y-112848051D01*
X107703314Y-112819511D01*
X107765324Y-112778078D01*
X107818058Y-112725344D01*
X107859491Y-112663334D01*
X107888031Y-112594434D01*
X107902580Y-112521289D01*
X107902580Y-112446711D01*
X107888031Y-112373566D01*
X107859491Y-112304666D01*
X107818058Y-112242656D01*
X107765324Y-112189922D01*
X107703314Y-112148489D01*
X107634414Y-112119949D01*
X107561269Y-112105400D01*
X107486691Y-112105400D01*
X107413546Y-112119949D01*
X107344646Y-112148489D01*
X107282636Y-112189922D01*
X107229902Y-112242656D01*
X107188469Y-112304666D01*
X107159929Y-112373566D01*
X107145380Y-112446711D01*
X106387788Y-112446711D01*
X106348660Y-112407583D01*
X106282556Y-112363414D01*
X106209106Y-112332990D01*
X106131131Y-112317480D01*
X106051629Y-112317480D01*
X105973654Y-112332990D01*
X105900204Y-112363414D01*
X105834100Y-112407583D01*
X105777883Y-112463800D01*
X105733714Y-112529904D01*
X105703290Y-112603354D01*
X105687780Y-112681329D01*
X105687780Y-112760831D01*
X105703290Y-112838806D01*
X105733714Y-112912256D01*
X105777883Y-112978360D01*
X105834100Y-113034577D01*
X105900204Y-113078746D01*
X105973654Y-113109170D01*
X106051629Y-113124680D01*
X106131131Y-113124680D01*
X106206103Y-113109767D01*
X106205940Y-113110589D01*
X106205940Y-113188845D01*
X106128591Y-113173460D01*
X106049089Y-113173460D01*
X105971114Y-113188970D01*
X105897664Y-113219394D01*
X105831560Y-113263563D01*
X105775343Y-113319780D01*
X105731174Y-113385884D01*
X105700750Y-113459334D01*
X105685240Y-113537309D01*
X105685240Y-113567160D01*
X105665549Y-113567160D01*
X105587574Y-113582670D01*
X105514124Y-113613094D01*
X105448020Y-113657263D01*
X105391803Y-113713480D01*
X105347634Y-113779584D01*
X105317210Y-113853034D01*
X105301700Y-113931009D01*
X104015962Y-113931009D01*
X104001831Y-113859966D01*
X103973291Y-113791066D01*
X103931858Y-113729056D01*
X103879124Y-113676322D01*
X103817114Y-113634889D01*
X103748214Y-113606349D01*
X103675069Y-113591800D01*
X103600491Y-113591800D01*
X103527346Y-113606349D01*
X103458446Y-113634889D01*
X103396436Y-113676322D01*
X103343702Y-113729056D01*
X103302269Y-113791066D01*
X103273729Y-113859966D01*
X103259180Y-113933111D01*
X103259180Y-114007689D01*
X103273729Y-114080834D01*
X103302269Y-114149734D01*
X103343702Y-114211744D01*
X103396436Y-114264478D01*
X103458446Y-114305911D01*
X103527346Y-114334451D01*
X103567666Y-114342471D01*
X103527250Y-114350510D01*
X103453800Y-114380934D01*
X103387696Y-114425103D01*
X103331479Y-114481320D01*
X103287310Y-114547424D01*
X103256886Y-114620874D01*
X103241376Y-114698849D01*
X103241376Y-114778351D01*
X103256886Y-114856326D01*
X103287310Y-114929776D01*
X103331479Y-114995880D01*
X103387696Y-115052097D01*
X103422579Y-115075405D01*
X103370269Y-115065000D01*
X103295691Y-115065000D01*
X103222546Y-115079549D01*
X103153646Y-115108089D01*
X103091636Y-115149522D01*
X103038902Y-115202256D01*
X102997469Y-115264266D01*
X102968929Y-115333166D01*
X102954380Y-115406311D01*
X102215380Y-115406311D01*
X102215380Y-112834577D01*
X102226102Y-112850624D01*
X102278836Y-112903358D01*
X102340846Y-112944791D01*
X102409746Y-112973331D01*
X102482891Y-112987880D01*
X102557469Y-112987880D01*
X102630614Y-112973331D01*
X102699514Y-112944791D01*
X102761524Y-112903358D01*
X102814258Y-112850624D01*
X102855691Y-112788614D01*
X102884231Y-112719714D01*
X102884303Y-112719351D01*
X103017840Y-112719351D01*
X103017840Y-112793929D01*
X103032389Y-112867074D01*
X103060929Y-112935974D01*
X103102362Y-112997984D01*
X103155096Y-113050718D01*
X103217106Y-113092151D01*
X103286006Y-113120691D01*
X103359151Y-113135240D01*
X103433729Y-113135240D01*
X103506874Y-113120691D01*
X103575774Y-113092151D01*
X103637784Y-113050718D01*
X103690518Y-112997984D01*
X103731951Y-112935974D01*
X103760491Y-112867074D01*
X103775040Y-112793929D01*
X103775040Y-112719351D01*
X103760491Y-112646206D01*
X103731951Y-112577306D01*
X103690518Y-112515296D01*
X103637784Y-112462562D01*
X103575774Y-112421129D01*
X103506874Y-112392589D01*
X103433729Y-112378040D01*
X103359151Y-112378040D01*
X103286006Y-112392589D01*
X103217106Y-112421129D01*
X103155096Y-112462562D01*
X103102362Y-112515296D01*
X103060929Y-112577306D01*
X103032389Y-112646206D01*
X103017840Y-112719351D01*
X102884303Y-112719351D01*
X102898780Y-112646569D01*
X102898780Y-112571991D01*
X102884231Y-112498846D01*
X102855691Y-112429946D01*
X102814258Y-112367936D01*
X102761524Y-112315202D01*
X102699514Y-112273769D01*
X102630614Y-112245229D01*
X102557469Y-112230680D01*
X102482891Y-112230680D01*
X102409746Y-112245229D01*
X102340846Y-112273769D01*
X102278836Y-112315202D01*
X102226102Y-112367936D01*
X102215380Y-112383983D01*
X102215380Y-111203649D01*
X109878780Y-111203649D01*
X109878780Y-111283151D01*
X109894290Y-111361126D01*
X109924714Y-111434576D01*
X109968883Y-111500680D01*
X110025100Y-111556897D01*
X110091204Y-111601066D01*
X110164654Y-111631490D01*
X110242629Y-111647000D01*
X110322131Y-111647000D01*
X110400106Y-111631490D01*
X110473556Y-111601066D01*
X110539660Y-111556897D01*
X110595877Y-111500680D01*
X110640046Y-111434576D01*
X110670470Y-111361126D01*
X110685980Y-111283151D01*
X110685980Y-111203649D01*
X110670470Y-111125674D01*
X110658679Y-111097207D01*
X110726811Y-111097207D01*
X110804786Y-111081697D01*
X110878236Y-111051273D01*
X110944340Y-111007104D01*
X111000557Y-110950887D01*
X111044726Y-110884783D01*
X111075150Y-110811333D01*
X111090660Y-110733358D01*
X111090660Y-110653856D01*
X111075150Y-110575881D01*
X111044726Y-110502431D01*
X111000557Y-110436327D01*
X110944340Y-110380110D01*
X110878236Y-110335941D01*
X110804786Y-110305517D01*
X110726811Y-110290007D01*
X110647309Y-110290007D01*
X110569334Y-110305517D01*
X110495884Y-110335941D01*
X110429780Y-110380110D01*
X110373563Y-110436327D01*
X110329394Y-110502431D01*
X110298970Y-110575881D01*
X110283460Y-110653856D01*
X110283460Y-110733358D01*
X110298970Y-110811333D01*
X110310761Y-110839800D01*
X110242629Y-110839800D01*
X110164654Y-110855310D01*
X110091204Y-110885734D01*
X110025100Y-110929903D01*
X109968883Y-110986120D01*
X109924714Y-111052224D01*
X109894290Y-111125674D01*
X109878780Y-111203649D01*
X102215380Y-111203649D01*
X102215380Y-110694111D01*
X107115720Y-110694111D01*
X107115720Y-110768689D01*
X107130269Y-110841834D01*
X107158809Y-110910734D01*
X107200242Y-110972744D01*
X107252976Y-111025478D01*
X107314986Y-111066911D01*
X107383886Y-111095451D01*
X107457031Y-111110000D01*
X107531609Y-111110000D01*
X107604754Y-111095451D01*
X107673654Y-111066911D01*
X107735664Y-111025478D01*
X107788398Y-110972744D01*
X107829831Y-110910734D01*
X107858371Y-110841834D01*
X107872920Y-110768689D01*
X107872920Y-110694111D01*
X107863930Y-110648911D01*
X109052880Y-110648911D01*
X109052880Y-110723489D01*
X109067429Y-110796634D01*
X109095969Y-110865534D01*
X109137402Y-110927544D01*
X109190136Y-110980278D01*
X109252146Y-111021711D01*
X109321046Y-111050251D01*
X109394191Y-111064800D01*
X109468769Y-111064800D01*
X109541914Y-111050251D01*
X109610814Y-111021711D01*
X109672824Y-110980278D01*
X109725558Y-110927544D01*
X109766991Y-110865534D01*
X109795531Y-110796634D01*
X109810080Y-110723489D01*
X109810080Y-110648911D01*
X109795531Y-110575766D01*
X109766991Y-110506866D01*
X109725558Y-110444856D01*
X109672824Y-110392122D01*
X109610814Y-110350689D01*
X109541914Y-110322149D01*
X109468769Y-110307600D01*
X109394191Y-110307600D01*
X109321046Y-110322149D01*
X109252146Y-110350689D01*
X109190136Y-110392122D01*
X109137402Y-110444856D01*
X109095969Y-110506866D01*
X109067429Y-110575766D01*
X109052880Y-110648911D01*
X107863930Y-110648911D01*
X107858371Y-110620966D01*
X107829831Y-110552066D01*
X107788398Y-110490056D01*
X107735664Y-110437322D01*
X107673654Y-110395889D01*
X107604754Y-110367349D01*
X107531609Y-110352800D01*
X107457031Y-110352800D01*
X107383886Y-110367349D01*
X107314986Y-110395889D01*
X107252976Y-110437322D01*
X107200242Y-110490056D01*
X107158809Y-110552066D01*
X107130269Y-110620966D01*
X107115720Y-110694111D01*
X102215380Y-110694111D01*
X102215380Y-109763849D01*
X106377580Y-109763849D01*
X106377580Y-109843351D01*
X106393090Y-109921326D01*
X106423514Y-109994776D01*
X106467683Y-110060880D01*
X106523900Y-110117097D01*
X106590004Y-110161266D01*
X106663454Y-110191690D01*
X106741429Y-110207200D01*
X106820931Y-110207200D01*
X106898906Y-110191690D01*
X106972356Y-110161266D01*
X107038460Y-110117097D01*
X107094677Y-110060880D01*
X107138846Y-109994776D01*
X107169270Y-109921326D01*
X107184780Y-109843351D01*
X107184780Y-109766311D01*
X109902580Y-109766311D01*
X109902580Y-109840889D01*
X109917129Y-109914034D01*
X109945669Y-109982934D01*
X109987102Y-110044944D01*
X110039836Y-110097678D01*
X110101846Y-110139111D01*
X110170746Y-110167651D01*
X110243891Y-110182200D01*
X110318469Y-110182200D01*
X110391614Y-110167651D01*
X110460514Y-110139111D01*
X110522524Y-110097678D01*
X110575258Y-110044944D01*
X110616691Y-109982934D01*
X110645231Y-109914034D01*
X110659780Y-109840889D01*
X110659780Y-109766311D01*
X110645231Y-109693166D01*
X110616691Y-109624266D01*
X110575258Y-109562256D01*
X110522524Y-109509522D01*
X110460514Y-109468089D01*
X110391614Y-109439549D01*
X110318469Y-109425000D01*
X110243891Y-109425000D01*
X110170746Y-109439549D01*
X110101846Y-109468089D01*
X110039836Y-109509522D01*
X109987102Y-109562256D01*
X109945669Y-109624266D01*
X109917129Y-109693166D01*
X109902580Y-109766311D01*
X107184780Y-109766311D01*
X107184780Y-109763849D01*
X107169270Y-109685874D01*
X107138846Y-109612424D01*
X107094677Y-109546320D01*
X107038460Y-109490103D01*
X106972356Y-109445934D01*
X106898906Y-109415510D01*
X106820931Y-109400000D01*
X106741429Y-109400000D01*
X106663454Y-109415510D01*
X106590004Y-109445934D01*
X106523900Y-109490103D01*
X106467683Y-109546320D01*
X106423514Y-109612424D01*
X106393090Y-109685874D01*
X106377580Y-109763849D01*
X102215380Y-109763849D01*
X102215380Y-108842927D01*
X106645360Y-108842927D01*
X106645360Y-108922429D01*
X106660870Y-109000404D01*
X106691294Y-109073854D01*
X106735463Y-109139958D01*
X106791680Y-109196175D01*
X106857784Y-109240344D01*
X106931234Y-109270768D01*
X107009209Y-109286278D01*
X107088711Y-109286278D01*
X107166686Y-109270768D01*
X107240136Y-109240344D01*
X107306240Y-109196175D01*
X107310955Y-109191460D01*
X107373404Y-109233186D01*
X107446854Y-109263610D01*
X107524829Y-109279120D01*
X107604331Y-109279120D01*
X107682306Y-109263610D01*
X107755756Y-109233186D01*
X107821860Y-109189017D01*
X107878077Y-109132800D01*
X107922246Y-109066696D01*
X107952670Y-108993246D01*
X107968180Y-108915271D01*
X107968180Y-108845929D01*
X110097220Y-108845929D01*
X110097220Y-108925431D01*
X110112730Y-109003406D01*
X110143154Y-109076856D01*
X110187323Y-109142960D01*
X110243540Y-109199177D01*
X110309644Y-109243346D01*
X110383094Y-109273770D01*
X110461069Y-109289280D01*
X110540571Y-109289280D01*
X110618546Y-109273770D01*
X110691996Y-109243346D01*
X110758100Y-109199177D01*
X110814317Y-109142960D01*
X110858486Y-109076856D01*
X110888910Y-109003406D01*
X110904420Y-108925431D01*
X110904420Y-108845929D01*
X110888910Y-108767954D01*
X110858486Y-108694504D01*
X110814317Y-108628400D01*
X110758100Y-108572183D01*
X110691996Y-108528014D01*
X110618546Y-108497590D01*
X110540571Y-108482080D01*
X110461069Y-108482080D01*
X110383094Y-108497590D01*
X110309644Y-108528014D01*
X110243540Y-108572183D01*
X110187323Y-108628400D01*
X110143154Y-108694504D01*
X110112730Y-108767954D01*
X110097220Y-108845929D01*
X107968180Y-108845929D01*
X107968180Y-108835769D01*
X107952670Y-108757794D01*
X107922246Y-108684344D01*
X107878077Y-108618240D01*
X107821860Y-108562023D01*
X107755756Y-108517854D01*
X107682306Y-108487430D01*
X107604331Y-108471920D01*
X107524829Y-108471920D01*
X107446854Y-108487430D01*
X107373404Y-108517854D01*
X107307300Y-108562023D01*
X107302585Y-108566738D01*
X107240136Y-108525012D01*
X107166686Y-108494588D01*
X107088711Y-108479078D01*
X107009209Y-108479078D01*
X106931234Y-108494588D01*
X106857784Y-108525012D01*
X106791680Y-108569181D01*
X106735463Y-108625398D01*
X106691294Y-108691502D01*
X106660870Y-108764952D01*
X106645360Y-108842927D01*
X102215380Y-108842927D01*
X102215380Y-108179200D01*
X112045180Y-108179200D01*
X112045180Y-119304400D01*
X112045180Y-119304400D01*
G37*
X112045180Y-119304400D02*
X107607766Y-119304400D01*
X107626614Y-119300651D01*
X107695514Y-119272111D01*
X107757524Y-119230678D01*
X107810258Y-119177944D01*
X107851691Y-119115934D01*
X107880231Y-119047034D01*
X107894780Y-118973889D01*
X107894780Y-118899311D01*
X107880231Y-118826166D01*
X107851691Y-118757266D01*
X107810258Y-118695256D01*
X107757524Y-118642522D01*
X107695514Y-118601089D01*
X107626614Y-118572549D01*
X107553469Y-118558000D01*
X107478891Y-118558000D01*
X107405746Y-118572549D01*
X107336846Y-118601089D01*
X107274836Y-118642522D01*
X107222102Y-118695256D01*
X107180669Y-118757266D01*
X107152129Y-118826166D01*
X107137580Y-118899311D01*
X107137580Y-118973889D01*
X107152129Y-119047034D01*
X107180669Y-119115934D01*
X107222102Y-119177944D01*
X107274836Y-119230678D01*
X107336846Y-119272111D01*
X107405746Y-119300651D01*
X107424594Y-119304400D01*
X102215380Y-119304400D01*
X102215380Y-118090231D01*
X103674380Y-118090231D01*
X103674380Y-118164809D01*
X103688929Y-118237954D01*
X103717469Y-118306854D01*
X103758902Y-118368864D01*
X103811636Y-118421598D01*
X103873646Y-118463031D01*
X103942546Y-118491571D01*
X104015691Y-118506120D01*
X104090269Y-118506120D01*
X104163414Y-118491571D01*
X104232314Y-118463031D01*
X104294324Y-118421598D01*
X104347058Y-118368864D01*
X104388491Y-118306854D01*
X104417031Y-118237954D01*
X104431580Y-118164809D01*
X104431580Y-118090231D01*
X104417031Y-118017086D01*
X104388491Y-117948186D01*
X104347058Y-117886176D01*
X104294324Y-117833442D01*
X104232314Y-117792009D01*
X104163414Y-117763469D01*
X104090269Y-117748920D01*
X104015691Y-117748920D01*
X103942546Y-117763469D01*
X103873646Y-117792009D01*
X103811636Y-117833442D01*
X103758902Y-117886176D01*
X103717469Y-117948186D01*
X103688929Y-118017086D01*
X103674380Y-118090231D01*
X102215380Y-118090231D01*
X102215380Y-116330911D01*
X106553380Y-116330911D01*
X106553380Y-116405489D01*
X106567929Y-116478634D01*
X106596469Y-116547534D01*
X106637902Y-116609544D01*
X106690636Y-116662278D01*
X106752646Y-116703711D01*
X106821546Y-116732251D01*
X106894691Y-116746800D01*
X106969269Y-116746800D01*
X107042414Y-116732251D01*
X107111314Y-116703711D01*
X107114307Y-116701711D01*
X110480720Y-116701711D01*
X110480720Y-116776289D01*
X110495269Y-116849434D01*
X110523809Y-116918334D01*
X110565242Y-116980344D01*
X110617976Y-117033078D01*
X110679986Y-117074511D01*
X110748886Y-117103051D01*
X110822031Y-117117600D01*
X110896609Y-117117600D01*
X110969754Y-117103051D01*
X111038654Y-117074511D01*
X111100664Y-117033078D01*
X111153398Y-116980344D01*
X111194831Y-116918334D01*
X111223371Y-116849434D01*
X111237920Y-116776289D01*
X111237920Y-116701711D01*
X111223371Y-116628566D01*
X111194831Y-116559666D01*
X111153398Y-116497656D01*
X111100664Y-116444922D01*
X111038654Y-116403489D01*
X110969754Y-116374949D01*
X110896609Y-116360400D01*
X110822031Y-116360400D01*
X110748886Y-116374949D01*
X110679986Y-116403489D01*
X110617976Y-116444922D01*
X110565242Y-116497656D01*
X110523809Y-116559666D01*
X110495269Y-116628566D01*
X110480720Y-116701711D01*
X107114307Y-116701711D01*
X107173324Y-116662278D01*
X107226058Y-116609544D01*
X107267491Y-116547534D01*
X107296031Y-116478634D01*
X107310580Y-116405489D01*
X107310580Y-116330911D01*
X107296031Y-116257766D01*
X107267491Y-116188866D01*
X107226058Y-116126856D01*
X107173324Y-116074122D01*
X107111314Y-116032689D01*
X107042414Y-116004149D01*
X106969269Y-115989600D01*
X106894691Y-115989600D01*
X106821546Y-116004149D01*
X106752646Y-116032689D01*
X106690636Y-116074122D01*
X106637902Y-116126856D01*
X106596469Y-116188866D01*
X106567929Y-116257766D01*
X106553380Y-116330911D01*
X102215380Y-116330911D01*
X102215380Y-115406311D01*
X102954380Y-115406311D01*
X102954380Y-115480889D01*
X102968929Y-115554034D01*
X102997469Y-115622934D01*
X103038902Y-115684944D01*
X103091636Y-115737678D01*
X103153646Y-115779111D01*
X103222546Y-115807651D01*
X103295691Y-115822200D01*
X103370269Y-115822200D01*
X103443414Y-115807651D01*
X103512314Y-115779111D01*
X103574324Y-115737678D01*
X103627058Y-115684944D01*
X103668491Y-115622934D01*
X103697031Y-115554034D01*
X103711580Y-115480889D01*
X103711580Y-115406311D01*
X103697031Y-115333166D01*
X103668491Y-115264266D01*
X103627058Y-115202256D01*
X103574324Y-115149522D01*
X103545622Y-115130344D01*
X103605225Y-115142200D01*
X103684727Y-115142200D01*
X103762702Y-115126690D01*
X103836152Y-115096266D01*
X103871680Y-115072527D01*
X103871680Y-115074771D01*
X103887190Y-115152746D01*
X103917614Y-115226196D01*
X103961783Y-115292300D01*
X104018000Y-115348517D01*
X104084104Y-115392686D01*
X104157554Y-115423110D01*
X104235529Y-115438620D01*
X104315031Y-115438620D01*
X104393006Y-115423110D01*
X104466456Y-115392686D01*
X104504338Y-115367374D01*
X104493980Y-115419449D01*
X104493980Y-115498951D01*
X104509490Y-115576926D01*
X104539914Y-115650376D01*
X104584083Y-115716480D01*
X104640300Y-115772697D01*
X104706404Y-115816866D01*
X104779854Y-115847290D01*
X104857829Y-115862800D01*
X104937331Y-115862800D01*
X105015306Y-115847290D01*
X105088756Y-115816866D01*
X105154860Y-115772697D01*
X105177846Y-115749711D01*
X105382440Y-115749711D01*
X105382440Y-115824289D01*
X105396989Y-115897434D01*
X105425529Y-115966334D01*
X105466962Y-116028344D01*
X105519696Y-116081078D01*
X105581706Y-116122511D01*
X105650606Y-116151051D01*
X105723751Y-116165600D01*
X105798329Y-116165600D01*
X105871474Y-116151051D01*
X105940374Y-116122511D01*
X106002384Y-116081078D01*
X106055118Y-116028344D01*
X106096551Y-115966334D01*
X106125091Y-115897434D01*
X106139640Y-115824289D01*
X106139640Y-115789511D01*
X110472780Y-115789511D01*
X110472780Y-115864089D01*
X110487329Y-115937234D01*
X110515869Y-116006134D01*
X110557302Y-116068144D01*
X110610036Y-116120878D01*
X110672046Y-116162311D01*
X110740946Y-116190851D01*
X110814091Y-116205400D01*
X110888669Y-116205400D01*
X110961814Y-116190851D01*
X111030714Y-116162311D01*
X111092724Y-116120878D01*
X111145458Y-116068144D01*
X111186891Y-116006134D01*
X111215431Y-115937234D01*
X111229980Y-115864089D01*
X111229980Y-115789511D01*
X111215431Y-115716366D01*
X111186891Y-115647466D01*
X111145458Y-115585456D01*
X111092724Y-115532722D01*
X111030714Y-115491289D01*
X110961814Y-115462749D01*
X110888669Y-115448200D01*
X110814091Y-115448200D01*
X110740946Y-115462749D01*
X110672046Y-115491289D01*
X110610036Y-115532722D01*
X110557302Y-115585456D01*
X110515869Y-115647466D01*
X110487329Y-115716366D01*
X110472780Y-115789511D01*
X106139640Y-115789511D01*
X106139640Y-115749711D01*
X106125091Y-115676566D01*
X106096551Y-115607666D01*
X106055118Y-115545656D01*
X106002384Y-115492922D01*
X105940374Y-115451489D01*
X105871474Y-115422949D01*
X105798329Y-115408400D01*
X105723751Y-115408400D01*
X105650606Y-115422949D01*
X105581706Y-115451489D01*
X105519696Y-115492922D01*
X105466962Y-115545656D01*
X105425529Y-115607666D01*
X105396989Y-115676566D01*
X105382440Y-115749711D01*
X105177846Y-115749711D01*
X105211077Y-115716480D01*
X105255246Y-115650376D01*
X105285670Y-115576926D01*
X105301180Y-115498951D01*
X105301180Y-115419449D01*
X105285670Y-115341474D01*
X105255246Y-115268024D01*
X105211077Y-115201920D01*
X105154860Y-115145703D01*
X105088756Y-115101534D01*
X105015306Y-115071110D01*
X104937331Y-115055600D01*
X104857829Y-115055600D01*
X104779854Y-115071110D01*
X104706404Y-115101534D01*
X104668522Y-115126846D01*
X104678880Y-115074771D01*
X104678880Y-114995269D01*
X104663370Y-114917294D01*
X104632946Y-114843844D01*
X104588777Y-114777740D01*
X104532560Y-114721523D01*
X104466456Y-114677354D01*
X104393006Y-114646930D01*
X104315031Y-114631420D01*
X104235529Y-114631420D01*
X104157554Y-114646930D01*
X104084104Y-114677354D01*
X104048576Y-114701093D01*
X104048576Y-114698849D01*
X104033066Y-114620874D01*
X104002642Y-114547424D01*
X103958473Y-114481320D01*
X103908064Y-114430911D01*
X108753380Y-114430911D01*
X108753380Y-114505489D01*
X108767929Y-114578634D01*
X108796469Y-114647534D01*
X108837902Y-114709544D01*
X108890636Y-114762278D01*
X108952646Y-114803711D01*
X109021546Y-114832251D01*
X109094691Y-114846800D01*
X109169269Y-114846800D01*
X109242414Y-114832251D01*
X109311314Y-114803711D01*
X109373324Y-114762278D01*
X109426058Y-114709544D01*
X109467491Y-114647534D01*
X109496031Y-114578634D01*
X109510580Y-114505489D01*
X109510580Y-114430911D01*
X109496031Y-114357766D01*
X109467491Y-114288866D01*
X109426058Y-114226856D01*
X109373324Y-114174122D01*
X109311314Y-114132689D01*
X109242414Y-114104149D01*
X109169269Y-114089600D01*
X109094691Y-114089600D01*
X109021546Y-114104149D01*
X108952646Y-114132689D01*
X108890636Y-114174122D01*
X108837902Y-114226856D01*
X108796469Y-114288866D01*
X108767929Y-114357766D01*
X108753380Y-114430911D01*
X103908064Y-114430911D01*
X103902256Y-114425103D01*
X103836152Y-114380934D01*
X103762702Y-114350510D01*
X103715090Y-114341040D01*
X103748214Y-114334451D01*
X103817114Y-114305911D01*
X103879124Y-114264478D01*
X103931858Y-114211744D01*
X103973291Y-114149734D01*
X104001831Y-114080834D01*
X104016380Y-114007689D01*
X104016380Y-113933111D01*
X104015962Y-113931009D01*
X105301700Y-113931009D01*
X105301700Y-114010511D01*
X105317210Y-114088486D01*
X105347634Y-114161936D01*
X105391803Y-114228040D01*
X105448020Y-114284257D01*
X105514124Y-114328426D01*
X105587574Y-114358850D01*
X105665549Y-114374360D01*
X105745051Y-114374360D01*
X105823026Y-114358850D01*
X105896476Y-114328426D01*
X105962580Y-114284257D01*
X106018797Y-114228040D01*
X106062966Y-114161936D01*
X106093390Y-114088486D01*
X106096607Y-114072311D01*
X110506620Y-114072311D01*
X110506620Y-114146889D01*
X110521169Y-114220034D01*
X110549709Y-114288934D01*
X110591142Y-114350944D01*
X110643876Y-114403678D01*
X110705886Y-114445111D01*
X110774786Y-114473651D01*
X110847931Y-114488200D01*
X110922509Y-114488200D01*
X110995654Y-114473651D01*
X111064554Y-114445111D01*
X111126564Y-114403678D01*
X111179298Y-114350944D01*
X111220731Y-114288934D01*
X111249271Y-114220034D01*
X111263820Y-114146889D01*
X111263820Y-114072311D01*
X111249271Y-113999166D01*
X111220731Y-113930266D01*
X111179298Y-113868256D01*
X111126564Y-113815522D01*
X111064554Y-113774089D01*
X110995654Y-113745549D01*
X110922509Y-113731000D01*
X110847931Y-113731000D01*
X110774786Y-113745549D01*
X110705886Y-113774089D01*
X110643876Y-113815522D01*
X110591142Y-113868256D01*
X110549709Y-113930266D01*
X110521169Y-113999166D01*
X110506620Y-114072311D01*
X106096607Y-114072311D01*
X106108900Y-114010511D01*
X106108900Y-113980660D01*
X106128591Y-113980660D01*
X106206566Y-113965150D01*
X106280016Y-113934726D01*
X106346120Y-113890557D01*
X106402337Y-113834340D01*
X106446506Y-113768236D01*
X106476930Y-113694786D01*
X106492440Y-113616811D01*
X106492440Y-113538555D01*
X106569789Y-113553940D01*
X106649291Y-113553940D01*
X106727266Y-113538430D01*
X106800716Y-113508006D01*
X106866820Y-113463837D01*
X106923037Y-113407620D01*
X106967206Y-113341516D01*
X106985184Y-113298111D01*
X110460580Y-113298111D01*
X110460580Y-113372689D01*
X110475129Y-113445834D01*
X110503669Y-113514734D01*
X110545102Y-113576744D01*
X110597836Y-113629478D01*
X110659846Y-113670911D01*
X110728746Y-113699451D01*
X110801891Y-113714000D01*
X110876469Y-113714000D01*
X110949614Y-113699451D01*
X111018514Y-113670911D01*
X111080524Y-113629478D01*
X111133258Y-113576744D01*
X111174691Y-113514734D01*
X111203231Y-113445834D01*
X111217780Y-113372689D01*
X111217780Y-113298111D01*
X111203231Y-113224966D01*
X111174691Y-113156066D01*
X111133258Y-113094056D01*
X111080524Y-113041322D01*
X111018514Y-112999889D01*
X110949614Y-112971349D01*
X110876469Y-112956800D01*
X110801891Y-112956800D01*
X110728746Y-112971349D01*
X110659846Y-112999889D01*
X110597836Y-113041322D01*
X110545102Y-113094056D01*
X110503669Y-113156066D01*
X110475129Y-113224966D01*
X110460580Y-113298111D01*
X106985184Y-113298111D01*
X106997630Y-113268066D01*
X107013140Y-113190091D01*
X107013140Y-113110589D01*
X106997630Y-113032614D01*
X106967206Y-112959164D01*
X106923037Y-112893060D01*
X106866820Y-112836843D01*
X106800716Y-112792674D01*
X106727266Y-112762250D01*
X106649291Y-112746740D01*
X106569789Y-112746740D01*
X106494817Y-112761653D01*
X106494980Y-112760831D01*
X106494980Y-112681329D01*
X106479470Y-112603354D01*
X106449046Y-112529904D01*
X106404877Y-112463800D01*
X106387788Y-112446711D01*
X107145380Y-112446711D01*
X107145380Y-112521289D01*
X107159929Y-112594434D01*
X107188469Y-112663334D01*
X107229902Y-112725344D01*
X107282636Y-112778078D01*
X107344646Y-112819511D01*
X107413546Y-112848051D01*
X107486691Y-112862600D01*
X107561269Y-112862600D01*
X107634414Y-112848051D01*
X107703314Y-112819511D01*
X107765324Y-112778078D01*
X107818058Y-112725344D01*
X107859491Y-112663334D01*
X107888031Y-112594434D01*
X107902580Y-112521289D01*
X107902580Y-112446711D01*
X107888031Y-112373566D01*
X107859491Y-112304666D01*
X107818058Y-112242656D01*
X107765324Y-112189922D01*
X107703314Y-112148489D01*
X107634414Y-112119949D01*
X107561269Y-112105400D01*
X107486691Y-112105400D01*
X107413546Y-112119949D01*
X107344646Y-112148489D01*
X107282636Y-112189922D01*
X107229902Y-112242656D01*
X107188469Y-112304666D01*
X107159929Y-112373566D01*
X107145380Y-112446711D01*
X106387788Y-112446711D01*
X106348660Y-112407583D01*
X106282556Y-112363414D01*
X106209106Y-112332990D01*
X106131131Y-112317480D01*
X106051629Y-112317480D01*
X105973654Y-112332990D01*
X105900204Y-112363414D01*
X105834100Y-112407583D01*
X105777883Y-112463800D01*
X105733714Y-112529904D01*
X105703290Y-112603354D01*
X105687780Y-112681329D01*
X105687780Y-112760831D01*
X105703290Y-112838806D01*
X105733714Y-112912256D01*
X105777883Y-112978360D01*
X105834100Y-113034577D01*
X105900204Y-113078746D01*
X105973654Y-113109170D01*
X106051629Y-113124680D01*
X106131131Y-113124680D01*
X106206103Y-113109767D01*
X106205940Y-113110589D01*
X106205940Y-113188845D01*
X106128591Y-113173460D01*
X106049089Y-113173460D01*
X105971114Y-113188970D01*
X105897664Y-113219394D01*
X105831560Y-113263563D01*
X105775343Y-113319780D01*
X105731174Y-113385884D01*
X105700750Y-113459334D01*
X105685240Y-113537309D01*
X105685240Y-113567160D01*
X105665549Y-113567160D01*
X105587574Y-113582670D01*
X105514124Y-113613094D01*
X105448020Y-113657263D01*
X105391803Y-113713480D01*
X105347634Y-113779584D01*
X105317210Y-113853034D01*
X105301700Y-113931009D01*
X104015962Y-113931009D01*
X104001831Y-113859966D01*
X103973291Y-113791066D01*
X103931858Y-113729056D01*
X103879124Y-113676322D01*
X103817114Y-113634889D01*
X103748214Y-113606349D01*
X103675069Y-113591800D01*
X103600491Y-113591800D01*
X103527346Y-113606349D01*
X103458446Y-113634889D01*
X103396436Y-113676322D01*
X103343702Y-113729056D01*
X103302269Y-113791066D01*
X103273729Y-113859966D01*
X103259180Y-113933111D01*
X103259180Y-114007689D01*
X103273729Y-114080834D01*
X103302269Y-114149734D01*
X103343702Y-114211744D01*
X103396436Y-114264478D01*
X103458446Y-114305911D01*
X103527346Y-114334451D01*
X103567666Y-114342471D01*
X103527250Y-114350510D01*
X103453800Y-114380934D01*
X103387696Y-114425103D01*
X103331479Y-114481320D01*
X103287310Y-114547424D01*
X103256886Y-114620874D01*
X103241376Y-114698849D01*
X103241376Y-114778351D01*
X103256886Y-114856326D01*
X103287310Y-114929776D01*
X103331479Y-114995880D01*
X103387696Y-115052097D01*
X103422579Y-115075405D01*
X103370269Y-115065000D01*
X103295691Y-115065000D01*
X103222546Y-115079549D01*
X103153646Y-115108089D01*
X103091636Y-115149522D01*
X103038902Y-115202256D01*
X102997469Y-115264266D01*
X102968929Y-115333166D01*
X102954380Y-115406311D01*
X102215380Y-115406311D01*
X102215380Y-112834577D01*
X102226102Y-112850624D01*
X102278836Y-112903358D01*
X102340846Y-112944791D01*
X102409746Y-112973331D01*
X102482891Y-112987880D01*
X102557469Y-112987880D01*
X102630614Y-112973331D01*
X102699514Y-112944791D01*
X102761524Y-112903358D01*
X102814258Y-112850624D01*
X102855691Y-112788614D01*
X102884231Y-112719714D01*
X102884303Y-112719351D01*
X103017840Y-112719351D01*
X103017840Y-112793929D01*
X103032389Y-112867074D01*
X103060929Y-112935974D01*
X103102362Y-112997984D01*
X103155096Y-113050718D01*
X103217106Y-113092151D01*
X103286006Y-113120691D01*
X103359151Y-113135240D01*
X103433729Y-113135240D01*
X103506874Y-113120691D01*
X103575774Y-113092151D01*
X103637784Y-113050718D01*
X103690518Y-112997984D01*
X103731951Y-112935974D01*
X103760491Y-112867074D01*
X103775040Y-112793929D01*
X103775040Y-112719351D01*
X103760491Y-112646206D01*
X103731951Y-112577306D01*
X103690518Y-112515296D01*
X103637784Y-112462562D01*
X103575774Y-112421129D01*
X103506874Y-112392589D01*
X103433729Y-112378040D01*
X103359151Y-112378040D01*
X103286006Y-112392589D01*
X103217106Y-112421129D01*
X103155096Y-112462562D01*
X103102362Y-112515296D01*
X103060929Y-112577306D01*
X103032389Y-112646206D01*
X103017840Y-112719351D01*
X102884303Y-112719351D01*
X102898780Y-112646569D01*
X102898780Y-112571991D01*
X102884231Y-112498846D01*
X102855691Y-112429946D01*
X102814258Y-112367936D01*
X102761524Y-112315202D01*
X102699514Y-112273769D01*
X102630614Y-112245229D01*
X102557469Y-112230680D01*
X102482891Y-112230680D01*
X102409746Y-112245229D01*
X102340846Y-112273769D01*
X102278836Y-112315202D01*
X102226102Y-112367936D01*
X102215380Y-112383983D01*
X102215380Y-111203649D01*
X109878780Y-111203649D01*
X109878780Y-111283151D01*
X109894290Y-111361126D01*
X109924714Y-111434576D01*
X109968883Y-111500680D01*
X110025100Y-111556897D01*
X110091204Y-111601066D01*
X110164654Y-111631490D01*
X110242629Y-111647000D01*
X110322131Y-111647000D01*
X110400106Y-111631490D01*
X110473556Y-111601066D01*
X110539660Y-111556897D01*
X110595877Y-111500680D01*
X110640046Y-111434576D01*
X110670470Y-111361126D01*
X110685980Y-111283151D01*
X110685980Y-111203649D01*
X110670470Y-111125674D01*
X110658679Y-111097207D01*
X110726811Y-111097207D01*
X110804786Y-111081697D01*
X110878236Y-111051273D01*
X110944340Y-111007104D01*
X111000557Y-110950887D01*
X111044726Y-110884783D01*
X111075150Y-110811333D01*
X111090660Y-110733358D01*
X111090660Y-110653856D01*
X111075150Y-110575881D01*
X111044726Y-110502431D01*
X111000557Y-110436327D01*
X110944340Y-110380110D01*
X110878236Y-110335941D01*
X110804786Y-110305517D01*
X110726811Y-110290007D01*
X110647309Y-110290007D01*
X110569334Y-110305517D01*
X110495884Y-110335941D01*
X110429780Y-110380110D01*
X110373563Y-110436327D01*
X110329394Y-110502431D01*
X110298970Y-110575881D01*
X110283460Y-110653856D01*
X110283460Y-110733358D01*
X110298970Y-110811333D01*
X110310761Y-110839800D01*
X110242629Y-110839800D01*
X110164654Y-110855310D01*
X110091204Y-110885734D01*
X110025100Y-110929903D01*
X109968883Y-110986120D01*
X109924714Y-111052224D01*
X109894290Y-111125674D01*
X109878780Y-111203649D01*
X102215380Y-111203649D01*
X102215380Y-110694111D01*
X107115720Y-110694111D01*
X107115720Y-110768689D01*
X107130269Y-110841834D01*
X107158809Y-110910734D01*
X107200242Y-110972744D01*
X107252976Y-111025478D01*
X107314986Y-111066911D01*
X107383886Y-111095451D01*
X107457031Y-111110000D01*
X107531609Y-111110000D01*
X107604754Y-111095451D01*
X107673654Y-111066911D01*
X107735664Y-111025478D01*
X107788398Y-110972744D01*
X107829831Y-110910734D01*
X107858371Y-110841834D01*
X107872920Y-110768689D01*
X107872920Y-110694111D01*
X107863930Y-110648911D01*
X109052880Y-110648911D01*
X109052880Y-110723489D01*
X109067429Y-110796634D01*
X109095969Y-110865534D01*
X109137402Y-110927544D01*
X109190136Y-110980278D01*
X109252146Y-111021711D01*
X109321046Y-111050251D01*
X109394191Y-111064800D01*
X109468769Y-111064800D01*
X109541914Y-111050251D01*
X109610814Y-111021711D01*
X109672824Y-110980278D01*
X109725558Y-110927544D01*
X109766991Y-110865534D01*
X109795531Y-110796634D01*
X109810080Y-110723489D01*
X109810080Y-110648911D01*
X109795531Y-110575766D01*
X109766991Y-110506866D01*
X109725558Y-110444856D01*
X109672824Y-110392122D01*
X109610814Y-110350689D01*
X109541914Y-110322149D01*
X109468769Y-110307600D01*
X109394191Y-110307600D01*
X109321046Y-110322149D01*
X109252146Y-110350689D01*
X109190136Y-110392122D01*
X109137402Y-110444856D01*
X109095969Y-110506866D01*
X109067429Y-110575766D01*
X109052880Y-110648911D01*
X107863930Y-110648911D01*
X107858371Y-110620966D01*
X107829831Y-110552066D01*
X107788398Y-110490056D01*
X107735664Y-110437322D01*
X107673654Y-110395889D01*
X107604754Y-110367349D01*
X107531609Y-110352800D01*
X107457031Y-110352800D01*
X107383886Y-110367349D01*
X107314986Y-110395889D01*
X107252976Y-110437322D01*
X107200242Y-110490056D01*
X107158809Y-110552066D01*
X107130269Y-110620966D01*
X107115720Y-110694111D01*
X102215380Y-110694111D01*
X102215380Y-109763849D01*
X106377580Y-109763849D01*
X106377580Y-109843351D01*
X106393090Y-109921326D01*
X106423514Y-109994776D01*
X106467683Y-110060880D01*
X106523900Y-110117097D01*
X106590004Y-110161266D01*
X106663454Y-110191690D01*
X106741429Y-110207200D01*
X106820931Y-110207200D01*
X106898906Y-110191690D01*
X106972356Y-110161266D01*
X107038460Y-110117097D01*
X107094677Y-110060880D01*
X107138846Y-109994776D01*
X107169270Y-109921326D01*
X107184780Y-109843351D01*
X107184780Y-109766311D01*
X109902580Y-109766311D01*
X109902580Y-109840889D01*
X109917129Y-109914034D01*
X109945669Y-109982934D01*
X109987102Y-110044944D01*
X110039836Y-110097678D01*
X110101846Y-110139111D01*
X110170746Y-110167651D01*
X110243891Y-110182200D01*
X110318469Y-110182200D01*
X110391614Y-110167651D01*
X110460514Y-110139111D01*
X110522524Y-110097678D01*
X110575258Y-110044944D01*
X110616691Y-109982934D01*
X110645231Y-109914034D01*
X110659780Y-109840889D01*
X110659780Y-109766311D01*
X110645231Y-109693166D01*
X110616691Y-109624266D01*
X110575258Y-109562256D01*
X110522524Y-109509522D01*
X110460514Y-109468089D01*
X110391614Y-109439549D01*
X110318469Y-109425000D01*
X110243891Y-109425000D01*
X110170746Y-109439549D01*
X110101846Y-109468089D01*
X110039836Y-109509522D01*
X109987102Y-109562256D01*
X109945669Y-109624266D01*
X109917129Y-109693166D01*
X109902580Y-109766311D01*
X107184780Y-109766311D01*
X107184780Y-109763849D01*
X107169270Y-109685874D01*
X107138846Y-109612424D01*
X107094677Y-109546320D01*
X107038460Y-109490103D01*
X106972356Y-109445934D01*
X106898906Y-109415510D01*
X106820931Y-109400000D01*
X106741429Y-109400000D01*
X106663454Y-109415510D01*
X106590004Y-109445934D01*
X106523900Y-109490103D01*
X106467683Y-109546320D01*
X106423514Y-109612424D01*
X106393090Y-109685874D01*
X106377580Y-109763849D01*
X102215380Y-109763849D01*
X102215380Y-108842927D01*
X106645360Y-108842927D01*
X106645360Y-108922429D01*
X106660870Y-109000404D01*
X106691294Y-109073854D01*
X106735463Y-109139958D01*
X106791680Y-109196175D01*
X106857784Y-109240344D01*
X106931234Y-109270768D01*
X107009209Y-109286278D01*
X107088711Y-109286278D01*
X107166686Y-109270768D01*
X107240136Y-109240344D01*
X107306240Y-109196175D01*
X107310955Y-109191460D01*
X107373404Y-109233186D01*
X107446854Y-109263610D01*
X107524829Y-109279120D01*
X107604331Y-109279120D01*
X107682306Y-109263610D01*
X107755756Y-109233186D01*
X107821860Y-109189017D01*
X107878077Y-109132800D01*
X107922246Y-109066696D01*
X107952670Y-108993246D01*
X107968180Y-108915271D01*
X107968180Y-108845929D01*
X110097220Y-108845929D01*
X110097220Y-108925431D01*
X110112730Y-109003406D01*
X110143154Y-109076856D01*
X110187323Y-109142960D01*
X110243540Y-109199177D01*
X110309644Y-109243346D01*
X110383094Y-109273770D01*
X110461069Y-109289280D01*
X110540571Y-109289280D01*
X110618546Y-109273770D01*
X110691996Y-109243346D01*
X110758100Y-109199177D01*
X110814317Y-109142960D01*
X110858486Y-109076856D01*
X110888910Y-109003406D01*
X110904420Y-108925431D01*
X110904420Y-108845929D01*
X110888910Y-108767954D01*
X110858486Y-108694504D01*
X110814317Y-108628400D01*
X110758100Y-108572183D01*
X110691996Y-108528014D01*
X110618546Y-108497590D01*
X110540571Y-108482080D01*
X110461069Y-108482080D01*
X110383094Y-108497590D01*
X110309644Y-108528014D01*
X110243540Y-108572183D01*
X110187323Y-108628400D01*
X110143154Y-108694504D01*
X110112730Y-108767954D01*
X110097220Y-108845929D01*
X107968180Y-108845929D01*
X107968180Y-108835769D01*
X107952670Y-108757794D01*
X107922246Y-108684344D01*
X107878077Y-108618240D01*
X107821860Y-108562023D01*
X107755756Y-108517854D01*
X107682306Y-108487430D01*
X107604331Y-108471920D01*
X107524829Y-108471920D01*
X107446854Y-108487430D01*
X107373404Y-108517854D01*
X107307300Y-108562023D01*
X107302585Y-108566738D01*
X107240136Y-108525012D01*
X107166686Y-108494588D01*
X107088711Y-108479078D01*
X107009209Y-108479078D01*
X106931234Y-108494588D01*
X106857784Y-108525012D01*
X106791680Y-108569181D01*
X106735463Y-108625398D01*
X106691294Y-108691502D01*
X106660870Y-108764952D01*
X106645360Y-108842927D01*
X102215380Y-108842927D01*
X102215380Y-108179200D01*
X112045180Y-108179200D01*
X112045180Y-119304400D01*
G36*
X113619940Y-93757469D02*
G01*
X100306021Y-93762491D01*
X100306958Y-93668136D01*
X100362146Y-93705011D01*
X100431046Y-93733551D01*
X100504191Y-93748100D01*
X100578769Y-93748100D01*
X100651914Y-93733551D01*
X100720814Y-93705011D01*
X100782824Y-93663578D01*
X100835558Y-93610844D01*
X100876991Y-93548834D01*
X100905531Y-93479934D01*
X100920080Y-93406789D01*
X100920080Y-93332211D01*
X100905531Y-93259066D01*
X100876991Y-93190166D01*
X100835558Y-93128156D01*
X100782824Y-93075422D01*
X100720814Y-93033989D01*
X100651914Y-93005449D01*
X100578769Y-92990900D01*
X100504191Y-92990900D01*
X100431046Y-93005449D01*
X100362146Y-93033989D01*
X100312932Y-93066872D01*
X100313784Y-92981011D01*
X101356680Y-92981011D01*
X101356680Y-93055589D01*
X101371229Y-93128734D01*
X101399769Y-93197634D01*
X101441202Y-93259644D01*
X101493936Y-93312378D01*
X101555946Y-93353811D01*
X101624846Y-93382351D01*
X101697991Y-93396900D01*
X101772569Y-93396900D01*
X101845714Y-93382351D01*
X101914614Y-93353811D01*
X101976624Y-93312378D01*
X102029358Y-93259644D01*
X102070791Y-93197634D01*
X102099331Y-93128734D01*
X102113880Y-93055589D01*
X102113880Y-92981011D01*
X102099331Y-92907866D01*
X102070791Y-92838966D01*
X102029358Y-92776956D01*
X101976624Y-92724222D01*
X101914614Y-92682789D01*
X101845714Y-92654249D01*
X101772569Y-92639700D01*
X101697991Y-92639700D01*
X101624846Y-92654249D01*
X101555946Y-92682789D01*
X101493936Y-92724222D01*
X101441202Y-92776956D01*
X101399769Y-92838966D01*
X101371229Y-92907866D01*
X101356680Y-92981011D01*
X100313784Y-92981011D01*
X100319591Y-92396451D01*
X104403810Y-92396451D01*
X104403810Y-92475953D01*
X104419320Y-92553928D01*
X104449744Y-92627378D01*
X104493913Y-92693482D01*
X104550130Y-92749699D01*
X104616234Y-92793868D01*
X104689684Y-92824292D01*
X104767659Y-92839802D01*
X104847161Y-92839802D01*
X104925136Y-92824292D01*
X104998586Y-92793868D01*
X105064690Y-92749699D01*
X105120907Y-92693482D01*
X105165076Y-92627378D01*
X105195500Y-92553928D01*
X105211010Y-92475953D01*
X105211010Y-92396451D01*
X105195500Y-92318476D01*
X105165076Y-92245026D01*
X105120907Y-92178922D01*
X105064690Y-92122705D01*
X104998586Y-92078536D01*
X104925136Y-92048112D01*
X104847161Y-92032602D01*
X104767659Y-92032602D01*
X104689684Y-92048112D01*
X104616234Y-92078536D01*
X104550130Y-92122705D01*
X104493913Y-92178922D01*
X104449744Y-92245026D01*
X104419320Y-92318476D01*
X104403810Y-92396451D01*
X100319591Y-92396451D01*
X100323877Y-91965011D01*
X105704480Y-91965011D01*
X105704480Y-92039589D01*
X105719029Y-92112734D01*
X105747569Y-92181634D01*
X105789002Y-92243644D01*
X105841736Y-92296378D01*
X105903746Y-92337811D01*
X105936872Y-92351533D01*
X105930529Y-92366846D01*
X105915980Y-92439991D01*
X105915980Y-92514569D01*
X105930529Y-92587714D01*
X105959069Y-92656614D01*
X106000502Y-92718624D01*
X106053236Y-92771358D01*
X106115246Y-92812791D01*
X106184146Y-92841331D01*
X106257291Y-92855880D01*
X106331869Y-92855880D01*
X106405014Y-92841331D01*
X106473914Y-92812791D01*
X106535924Y-92771358D01*
X106588658Y-92718624D01*
X106630091Y-92656614D01*
X106658631Y-92587714D01*
X106659530Y-92583192D01*
X106660870Y-92589926D01*
X106691294Y-92663376D01*
X106735463Y-92729480D01*
X106791680Y-92785697D01*
X106857784Y-92829866D01*
X106931234Y-92860290D01*
X107009209Y-92875800D01*
X107088711Y-92875800D01*
X107166686Y-92860290D01*
X107240136Y-92829866D01*
X107306240Y-92785697D01*
X107362457Y-92729480D01*
X107406626Y-92663376D01*
X107417823Y-92636343D01*
X107440594Y-92691316D01*
X107484763Y-92757420D01*
X107540980Y-92813637D01*
X107607084Y-92857806D01*
X107680534Y-92888230D01*
X107758509Y-92903740D01*
X107838011Y-92903740D01*
X107915986Y-92888230D01*
X107989436Y-92857806D01*
X108055540Y-92813637D01*
X108111757Y-92757420D01*
X108155926Y-92691316D01*
X108186350Y-92617866D01*
X108201860Y-92539891D01*
X108201860Y-92460389D01*
X108192444Y-92413050D01*
X108208381Y-92413050D01*
X108208381Y-92492552D01*
X108223891Y-92570527D01*
X108254315Y-92643977D01*
X108298484Y-92710081D01*
X108354701Y-92766298D01*
X108420805Y-92810467D01*
X108494255Y-92840891D01*
X108572230Y-92856401D01*
X108651732Y-92856401D01*
X108729707Y-92840891D01*
X108803157Y-92810467D01*
X108869261Y-92766298D01*
X108925478Y-92710081D01*
X108969647Y-92643977D01*
X109000071Y-92570527D01*
X109015581Y-92492552D01*
X109015581Y-92419671D01*
X110919780Y-92419671D01*
X110919780Y-92494249D01*
X110934329Y-92567394D01*
X110962869Y-92636294D01*
X111004302Y-92698304D01*
X111057036Y-92751038D01*
X111119046Y-92792471D01*
X111187946Y-92821011D01*
X111261091Y-92835560D01*
X111335669Y-92835560D01*
X111408814Y-92821011D01*
X111477714Y-92792471D01*
X111539724Y-92751038D01*
X111592458Y-92698304D01*
X111633891Y-92636294D01*
X111641458Y-92618025D01*
X112381480Y-92618025D01*
X112381480Y-92707377D01*
X112398911Y-92795011D01*
X112433105Y-92877561D01*
X112482746Y-92951854D01*
X112545927Y-93015035D01*
X112620220Y-93064676D01*
X112702770Y-93098870D01*
X112790404Y-93116301D01*
X112879756Y-93116301D01*
X112967390Y-93098870D01*
X113049940Y-93064676D01*
X113124233Y-93015035D01*
X113187414Y-92951854D01*
X113237055Y-92877561D01*
X113271249Y-92795011D01*
X113288680Y-92707377D01*
X113288680Y-92618025D01*
X113271249Y-92530391D01*
X113237055Y-92447841D01*
X113187414Y-92373548D01*
X113124233Y-92310367D01*
X113049940Y-92260726D01*
X112967390Y-92226532D01*
X112879756Y-92209101D01*
X112790404Y-92209101D01*
X112702770Y-92226532D01*
X112620220Y-92260726D01*
X112545927Y-92310367D01*
X112482746Y-92373548D01*
X112433105Y-92447841D01*
X112398911Y-92530391D01*
X112381480Y-92618025D01*
X111641458Y-92618025D01*
X111662431Y-92567394D01*
X111676980Y-92494249D01*
X111676980Y-92419671D01*
X111662431Y-92346526D01*
X111633891Y-92277626D01*
X111592458Y-92215616D01*
X111539724Y-92162882D01*
X111532559Y-92158094D01*
X111549884Y-92146518D01*
X111602618Y-92093784D01*
X111644051Y-92031774D01*
X111672591Y-91962874D01*
X111687140Y-91889729D01*
X111687140Y-91815151D01*
X111672591Y-91742006D01*
X111644051Y-91673106D01*
X111602618Y-91611096D01*
X111549884Y-91558362D01*
X111487874Y-91516929D01*
X111418974Y-91488389D01*
X111345829Y-91473840D01*
X111271251Y-91473840D01*
X111198106Y-91488389D01*
X111129206Y-91516929D01*
X111067196Y-91558362D01*
X111014462Y-91611096D01*
X110973029Y-91673106D01*
X110944489Y-91742006D01*
X110929940Y-91815151D01*
X110929940Y-91889729D01*
X110944489Y-91962874D01*
X110973029Y-92031774D01*
X111014462Y-92093784D01*
X111067196Y-92146518D01*
X111074361Y-92151306D01*
X111057036Y-92162882D01*
X111004302Y-92215616D01*
X110962869Y-92277626D01*
X110934329Y-92346526D01*
X110919780Y-92419671D01*
X109015581Y-92419671D01*
X109015581Y-92413050D01*
X109000071Y-92335075D01*
X108969647Y-92261625D01*
X108925478Y-92195521D01*
X108869261Y-92139304D01*
X108803157Y-92095135D01*
X108729707Y-92064711D01*
X108651732Y-92049201D01*
X108572230Y-92049201D01*
X108494255Y-92064711D01*
X108420805Y-92095135D01*
X108354701Y-92139304D01*
X108298484Y-92195521D01*
X108254315Y-92261625D01*
X108223891Y-92335075D01*
X108208381Y-92413050D01*
X108192444Y-92413050D01*
X108186350Y-92382414D01*
X108155926Y-92308964D01*
X108111757Y-92242860D01*
X108055540Y-92186643D01*
X108041580Y-92177315D01*
X108068331Y-92112734D01*
X108082880Y-92039589D01*
X108082880Y-91965011D01*
X108068331Y-91891866D01*
X108039791Y-91822966D01*
X107998358Y-91760956D01*
X107945624Y-91708222D01*
X107883614Y-91666789D01*
X107814714Y-91638249D01*
X107741569Y-91623700D01*
X107666991Y-91623700D01*
X107593846Y-91638249D01*
X107524946Y-91666789D01*
X107462936Y-91708222D01*
X107410202Y-91760956D01*
X107368769Y-91822966D01*
X107340229Y-91891866D01*
X107325680Y-91965011D01*
X107325680Y-92039589D01*
X107340229Y-92112734D01*
X107368769Y-92181634D01*
X107410202Y-92243644D01*
X107454584Y-92288026D01*
X107440594Y-92308964D01*
X107429397Y-92335997D01*
X107406626Y-92281024D01*
X107362457Y-92214920D01*
X107306240Y-92158703D01*
X107240136Y-92114534D01*
X107166686Y-92084110D01*
X107088711Y-92068600D01*
X107009209Y-92068600D01*
X106931234Y-92084110D01*
X106857784Y-92114534D01*
X106791680Y-92158703D01*
X106735463Y-92214920D01*
X106691294Y-92281024D01*
X106660870Y-92354474D01*
X106658481Y-92366484D01*
X106630091Y-92297946D01*
X106588658Y-92235936D01*
X106535924Y-92183202D01*
X106473914Y-92141769D01*
X106440788Y-92128047D01*
X106447131Y-92112734D01*
X106461680Y-92039589D01*
X106461680Y-91965011D01*
X106447131Y-91891866D01*
X106418591Y-91822966D01*
X106377158Y-91760956D01*
X106324424Y-91708222D01*
X106262414Y-91666789D01*
X106193514Y-91638249D01*
X106120369Y-91623700D01*
X106045791Y-91623700D01*
X105972646Y-91638249D01*
X105903746Y-91666789D01*
X105841736Y-91708222D01*
X105789002Y-91760956D01*
X105747569Y-91822966D01*
X105719029Y-91891866D01*
X105704480Y-91965011D01*
X100323877Y-91965011D01*
X100330994Y-91248731D01*
X104566109Y-91248731D01*
X104566109Y-91323309D01*
X104580658Y-91396454D01*
X104609198Y-91465354D01*
X104650631Y-91527364D01*
X104703365Y-91580098D01*
X104765375Y-91621531D01*
X104834275Y-91650071D01*
X104907420Y-91664620D01*
X104981998Y-91664620D01*
X105055143Y-91650071D01*
X105124043Y-91621531D01*
X105186053Y-91580098D01*
X105238787Y-91527364D01*
X105280220Y-91465354D01*
X105308760Y-91396454D01*
X105323309Y-91323309D01*
X105323309Y-91248731D01*
X105308760Y-91175586D01*
X105280220Y-91106686D01*
X105238787Y-91044676D01*
X105186053Y-90991942D01*
X105124043Y-90950509D01*
X105055143Y-90921969D01*
X104981998Y-90907420D01*
X104907420Y-90907420D01*
X104834275Y-90921969D01*
X104765375Y-90950509D01*
X104703365Y-90991942D01*
X104650631Y-91044676D01*
X104609198Y-91106686D01*
X104580658Y-91175586D01*
X104566109Y-91248731D01*
X100330994Y-91248731D01*
X100337227Y-90621376D01*
X100366946Y-90665853D01*
X100430127Y-90729034D01*
X100504420Y-90778675D01*
X100586970Y-90812869D01*
X100674604Y-90830300D01*
X100763956Y-90830300D01*
X100851590Y-90812869D01*
X100934140Y-90778675D01*
X101008433Y-90729034D01*
X101071614Y-90665853D01*
X101121255Y-90591560D01*
X101155449Y-90509010D01*
X101172880Y-90421376D01*
X101172880Y-90332024D01*
X101155449Y-90244390D01*
X101147464Y-90225111D01*
X105428300Y-90225111D01*
X105428300Y-90299689D01*
X105442849Y-90372834D01*
X105471389Y-90441734D01*
X105512822Y-90503744D01*
X105525478Y-90516400D01*
X105520442Y-90521436D01*
X105479009Y-90583446D01*
X105450469Y-90652346D01*
X105435920Y-90725491D01*
X105435920Y-90800069D01*
X105450469Y-90873214D01*
X105479009Y-90942114D01*
X105520442Y-91004124D01*
X105573176Y-91056858D01*
X105635186Y-91098291D01*
X105704086Y-91126831D01*
X105777231Y-91141380D01*
X105851809Y-91141380D01*
X105924954Y-91126831D01*
X105993854Y-91098291D01*
X106055864Y-91056858D01*
X106108598Y-91004124D01*
X106150031Y-90942114D01*
X106178571Y-90873214D01*
X106193120Y-90800069D01*
X106193120Y-90725491D01*
X106178571Y-90652346D01*
X106150031Y-90583446D01*
X106108598Y-90521436D01*
X106095942Y-90508780D01*
X106100978Y-90503744D01*
X106142411Y-90441734D01*
X106170951Y-90372834D01*
X106185500Y-90299689D01*
X106185500Y-90228351D01*
X109795300Y-90228351D01*
X109795300Y-90302929D01*
X109809849Y-90376074D01*
X109838389Y-90444974D01*
X109879822Y-90506984D01*
X109888478Y-90515640D01*
X109879822Y-90524296D01*
X109838389Y-90586306D01*
X109809849Y-90655206D01*
X109795300Y-90728351D01*
X109795300Y-90802929D01*
X109809849Y-90876074D01*
X109838389Y-90944974D01*
X109879822Y-91006984D01*
X109888478Y-91015640D01*
X109879822Y-91024296D01*
X109838389Y-91086306D01*
X109809849Y-91155206D01*
X109795300Y-91228351D01*
X109795300Y-91302929D01*
X109809849Y-91376074D01*
X109838389Y-91444974D01*
X109879822Y-91506984D01*
X109932556Y-91559718D01*
X109994566Y-91601151D01*
X110063466Y-91629691D01*
X110136611Y-91644240D01*
X110211189Y-91644240D01*
X110284334Y-91629691D01*
X110353234Y-91601151D01*
X110415244Y-91559718D01*
X110467978Y-91506984D01*
X110509411Y-91444974D01*
X110537951Y-91376074D01*
X110552500Y-91302929D01*
X110552500Y-91228351D01*
X110537951Y-91155206D01*
X110509411Y-91086306D01*
X110467978Y-91024296D01*
X110459322Y-91015640D01*
X110467978Y-91006984D01*
X110509411Y-90944974D01*
X110537951Y-90876074D01*
X110552500Y-90802929D01*
X110552500Y-90728351D01*
X110537951Y-90655206D01*
X110509411Y-90586306D01*
X110467978Y-90524296D01*
X110459322Y-90515640D01*
X110467978Y-90506984D01*
X110509411Y-90444974D01*
X110537951Y-90376074D01*
X110552500Y-90302929D01*
X110552500Y-90228351D01*
X110537951Y-90155206D01*
X110509411Y-90086306D01*
X110467978Y-90024296D01*
X110459682Y-90016000D01*
X110468698Y-90006984D01*
X110510131Y-89944974D01*
X110538671Y-89876074D01*
X110553220Y-89802929D01*
X110553220Y-89728351D01*
X110538671Y-89655206D01*
X110510131Y-89586306D01*
X110468698Y-89524296D01*
X110415964Y-89471562D01*
X110353954Y-89430129D01*
X110285054Y-89401589D01*
X110211909Y-89387040D01*
X110137331Y-89387040D01*
X110064186Y-89401589D01*
X109995286Y-89430129D01*
X109933276Y-89471562D01*
X109880542Y-89524296D01*
X109839109Y-89586306D01*
X109810569Y-89655206D01*
X109796020Y-89728351D01*
X109796020Y-89802929D01*
X109810569Y-89876074D01*
X109839109Y-89944974D01*
X109880542Y-90006984D01*
X109888838Y-90015280D01*
X109879822Y-90024296D01*
X109838389Y-90086306D01*
X109809849Y-90155206D01*
X109795300Y-90228351D01*
X106185500Y-90228351D01*
X106185500Y-90225111D01*
X106170951Y-90151966D01*
X106142411Y-90083066D01*
X106100978Y-90021056D01*
X106099752Y-90019830D01*
X106111138Y-90008444D01*
X106152571Y-89946434D01*
X106181111Y-89877534D01*
X106195660Y-89804389D01*
X106195660Y-89729811D01*
X106181111Y-89656666D01*
X106152571Y-89587766D01*
X106111138Y-89525756D01*
X106058404Y-89473022D01*
X105996394Y-89431589D01*
X105927494Y-89403049D01*
X105854349Y-89388500D01*
X105779771Y-89388500D01*
X105706626Y-89403049D01*
X105637726Y-89431589D01*
X105575716Y-89473022D01*
X105522982Y-89525756D01*
X105481549Y-89587766D01*
X105453009Y-89656666D01*
X105438460Y-89729811D01*
X105438460Y-89804389D01*
X105453009Y-89877534D01*
X105481549Y-89946434D01*
X105522982Y-90008444D01*
X105524208Y-90009670D01*
X105512822Y-90021056D01*
X105471389Y-90083066D01*
X105442849Y-90151966D01*
X105428300Y-90225111D01*
X101147464Y-90225111D01*
X101121255Y-90161840D01*
X101071614Y-90087547D01*
X101008433Y-90024366D01*
X100934140Y-89974725D01*
X100851590Y-89940531D01*
X100763956Y-89923100D01*
X100674604Y-89923100D01*
X100586970Y-89940531D01*
X100504420Y-89974725D01*
X100430127Y-90024366D01*
X100366946Y-90087547D01*
X100342162Y-90124639D01*
X100355950Y-88736749D01*
X104403810Y-88736749D01*
X104403810Y-88816251D01*
X104419320Y-88894226D01*
X104449744Y-88967676D01*
X104493913Y-89033780D01*
X104529368Y-89069235D01*
X104493913Y-89104690D01*
X104449744Y-89170794D01*
X104419320Y-89244244D01*
X104403810Y-89322219D01*
X104403810Y-89401721D01*
X104419320Y-89479696D01*
X104449744Y-89553146D01*
X104493913Y-89619250D01*
X104550130Y-89675467D01*
X104616234Y-89719636D01*
X104689684Y-89750060D01*
X104767659Y-89765570D01*
X104847161Y-89765570D01*
X104925136Y-89750060D01*
X104998586Y-89719636D01*
X105064690Y-89675467D01*
X105120907Y-89619250D01*
X105165076Y-89553146D01*
X105195500Y-89479696D01*
X105211010Y-89401721D01*
X105211010Y-89322219D01*
X105195500Y-89244244D01*
X105165076Y-89170794D01*
X105146605Y-89143149D01*
X110501080Y-89143149D01*
X110501080Y-89222651D01*
X110516590Y-89300626D01*
X110547014Y-89374076D01*
X110591183Y-89440180D01*
X110647400Y-89496397D01*
X110713504Y-89540566D01*
X110786954Y-89570990D01*
X110864929Y-89586500D01*
X110944431Y-89586500D01*
X111022406Y-89570990D01*
X111029000Y-89568259D01*
X111029000Y-89629129D01*
X111043549Y-89702274D01*
X111072089Y-89771174D01*
X111113522Y-89833184D01*
X111166256Y-89885918D01*
X111228266Y-89927351D01*
X111297166Y-89955891D01*
X111370311Y-89970440D01*
X111444889Y-89970440D01*
X111518034Y-89955891D01*
X111586934Y-89927351D01*
X111648944Y-89885918D01*
X111688610Y-89846252D01*
X111725736Y-89883378D01*
X111787746Y-89924811D01*
X111856646Y-89953351D01*
X111929791Y-89967900D01*
X112004369Y-89967900D01*
X112077514Y-89953351D01*
X112146414Y-89924811D01*
X112208424Y-89883378D01*
X112261158Y-89830644D01*
X112302591Y-89768634D01*
X112331131Y-89699734D01*
X112345680Y-89626589D01*
X112345680Y-89552011D01*
X112331131Y-89478866D01*
X112302591Y-89409966D01*
X112261158Y-89347956D01*
X112208424Y-89295222D01*
X112146414Y-89253789D01*
X112077514Y-89225249D01*
X112004369Y-89210700D01*
X111929791Y-89210700D01*
X111856646Y-89225249D01*
X111787746Y-89253789D01*
X111725736Y-89295222D01*
X111686070Y-89334888D01*
X111648944Y-89297762D01*
X111586934Y-89256329D01*
X111518034Y-89227789D01*
X111444889Y-89213240D01*
X111370311Y-89213240D01*
X111307674Y-89225699D01*
X111308280Y-89222651D01*
X111308280Y-89143149D01*
X111292770Y-89065174D01*
X111262346Y-88991724D01*
X111218177Y-88925620D01*
X111161960Y-88869403D01*
X111095856Y-88825234D01*
X111022406Y-88794810D01*
X110944431Y-88779300D01*
X110864929Y-88779300D01*
X110786954Y-88794810D01*
X110713504Y-88825234D01*
X110647400Y-88869403D01*
X110591183Y-88925620D01*
X110547014Y-88991724D01*
X110516590Y-89065174D01*
X110501080Y-89143149D01*
X105146605Y-89143149D01*
X105120907Y-89104690D01*
X105085452Y-89069235D01*
X105120907Y-89033780D01*
X105165076Y-88967676D01*
X105195500Y-88894226D01*
X105211010Y-88816251D01*
X105211010Y-88736749D01*
X105195500Y-88658774D01*
X105165076Y-88585324D01*
X105120907Y-88519220D01*
X105064690Y-88463003D01*
X104998586Y-88418834D01*
X104925136Y-88388410D01*
X104847161Y-88372900D01*
X104767659Y-88372900D01*
X104689684Y-88388410D01*
X104616234Y-88418834D01*
X104550130Y-88463003D01*
X104493913Y-88519220D01*
X104449744Y-88585324D01*
X104419320Y-88658774D01*
X104403810Y-88736749D01*
X100355950Y-88736749D01*
X100370693Y-87252709D01*
X110346820Y-87252709D01*
X110346820Y-87332211D01*
X110362330Y-87410186D01*
X110392754Y-87483636D01*
X110436923Y-87549740D01*
X110493140Y-87605957D01*
X110559244Y-87650126D01*
X110632694Y-87680550D01*
X110710669Y-87696060D01*
X110790171Y-87696060D01*
X110868146Y-87680550D01*
X110941596Y-87650126D01*
X111007700Y-87605957D01*
X111063917Y-87549740D01*
X111083430Y-87520537D01*
X111111883Y-87563120D01*
X111134343Y-87585580D01*
X111114423Y-87605500D01*
X111070254Y-87671604D01*
X111039830Y-87745054D01*
X111024320Y-87823029D01*
X111024320Y-87902531D01*
X111039830Y-87980506D01*
X111070254Y-88053956D01*
X111114423Y-88120060D01*
X111170640Y-88176277D01*
X111236744Y-88220446D01*
X111310194Y-88250870D01*
X111388169Y-88266380D01*
X111467671Y-88266380D01*
X111545646Y-88250870D01*
X111619096Y-88220446D01*
X111685200Y-88176277D01*
X111741417Y-88120060D01*
X111785586Y-88053956D01*
X111816010Y-87980506D01*
X111831520Y-87902531D01*
X111831520Y-87823029D01*
X111816010Y-87745054D01*
X111785586Y-87671604D01*
X111741417Y-87605500D01*
X111718957Y-87583040D01*
X111738877Y-87563120D01*
X111783046Y-87497016D01*
X111813470Y-87423566D01*
X111828980Y-87345591D01*
X111828980Y-87266089D01*
X111813470Y-87188114D01*
X111783046Y-87114664D01*
X111738877Y-87048560D01*
X111682660Y-86992343D01*
X111616556Y-86948174D01*
X111543106Y-86917750D01*
X111465131Y-86902240D01*
X111385629Y-86902240D01*
X111307654Y-86917750D01*
X111234204Y-86948174D01*
X111168100Y-86992343D01*
X111111883Y-87048560D01*
X111092370Y-87077763D01*
X111063917Y-87035180D01*
X111007700Y-86978963D01*
X110941596Y-86934794D01*
X110868146Y-86904370D01*
X110790171Y-86888860D01*
X110710669Y-86888860D01*
X110632694Y-86904370D01*
X110559244Y-86934794D01*
X110493140Y-86978963D01*
X110436923Y-87035180D01*
X110392754Y-87101284D01*
X110362330Y-87174734D01*
X110346820Y-87252709D01*
X100370693Y-87252709D01*
X100377147Y-86603149D01*
X102246080Y-86603149D01*
X102246080Y-86682651D01*
X102261590Y-86760626D01*
X102292014Y-86834076D01*
X102336183Y-86900180D01*
X102392400Y-86956397D01*
X102458504Y-87000566D01*
X102531954Y-87030990D01*
X102609929Y-87046500D01*
X102689431Y-87046500D01*
X102767406Y-87030990D01*
X102840856Y-87000566D01*
X102906960Y-86956397D01*
X102963177Y-86900180D01*
X103007346Y-86834076D01*
X103037770Y-86760626D01*
X103043832Y-86730149D01*
X103358600Y-86730149D01*
X103358600Y-86809651D01*
X103374110Y-86887626D01*
X103404534Y-86961076D01*
X103448703Y-87027180D01*
X103504920Y-87083397D01*
X103571024Y-87127566D01*
X103644474Y-87157990D01*
X103722449Y-87173500D01*
X103801951Y-87173500D01*
X103879926Y-87157990D01*
X103953376Y-87127566D01*
X104002355Y-87094839D01*
X104051334Y-87127566D01*
X104124784Y-87157990D01*
X104202759Y-87173500D01*
X104282261Y-87173500D01*
X104360236Y-87157990D01*
X104433686Y-87127566D01*
X104499790Y-87083397D01*
X104556007Y-87027180D01*
X104600176Y-86961076D01*
X104630600Y-86887626D01*
X104646110Y-86809651D01*
X104646110Y-86730149D01*
X104630600Y-86652174D01*
X104600176Y-86578724D01*
X104556007Y-86512620D01*
X104499790Y-86456403D01*
X104433686Y-86412234D01*
X104360236Y-86381810D01*
X104282261Y-86366300D01*
X104202759Y-86366300D01*
X104124784Y-86381810D01*
X104051334Y-86412234D01*
X104002355Y-86444961D01*
X103953376Y-86412234D01*
X103879926Y-86381810D01*
X103801951Y-86366300D01*
X103722449Y-86366300D01*
X103644474Y-86381810D01*
X103571024Y-86412234D01*
X103504920Y-86456403D01*
X103448703Y-86512620D01*
X103404534Y-86578724D01*
X103374110Y-86652174D01*
X103358600Y-86730149D01*
X103043832Y-86730149D01*
X103053280Y-86682651D01*
X103053280Y-86603149D01*
X103037770Y-86525174D01*
X103007346Y-86451724D01*
X102963177Y-86385620D01*
X102906960Y-86329403D01*
X102840856Y-86285234D01*
X102767406Y-86254810D01*
X102689431Y-86239300D01*
X102609929Y-86239300D01*
X102531954Y-86254810D01*
X102458504Y-86285234D01*
X102392400Y-86329403D01*
X102336183Y-86385620D01*
X102292014Y-86451724D01*
X102261590Y-86525174D01*
X102246080Y-86603149D01*
X100377147Y-86603149D01*
X100381109Y-86204291D01*
X104986340Y-86204291D01*
X104986340Y-86278869D01*
X105000889Y-86352014D01*
X105029429Y-86420914D01*
X105070862Y-86482924D01*
X105123596Y-86535658D01*
X105185606Y-86577091D01*
X105254506Y-86605631D01*
X105327651Y-86620180D01*
X105402229Y-86620180D01*
X105475374Y-86605631D01*
X105544274Y-86577091D01*
X105596773Y-86542013D01*
X105645095Y-86574300D01*
X105713995Y-86602840D01*
X105787140Y-86617389D01*
X105861718Y-86617389D01*
X105934863Y-86602840D01*
X106003763Y-86574300D01*
X106065773Y-86532867D01*
X106118507Y-86480133D01*
X106159940Y-86418123D01*
X106188480Y-86349223D01*
X106203029Y-86276078D01*
X106203029Y-86275916D01*
X106538680Y-86275916D01*
X106538680Y-86355418D01*
X106554190Y-86433393D01*
X106584614Y-86506843D01*
X106628783Y-86572947D01*
X106685000Y-86629164D01*
X106751104Y-86673333D01*
X106824554Y-86703757D01*
X106902529Y-86719267D01*
X106982031Y-86719267D01*
X107060006Y-86703757D01*
X107133456Y-86673333D01*
X107199560Y-86629164D01*
X107255777Y-86572947D01*
X107299946Y-86506843D01*
X107330370Y-86433393D01*
X107345880Y-86355418D01*
X107345880Y-86275916D01*
X107344329Y-86268116D01*
X107406695Y-86268116D01*
X107406695Y-86347618D01*
X107422205Y-86425593D01*
X107452629Y-86499043D01*
X107496798Y-86565147D01*
X107553015Y-86621364D01*
X107619119Y-86665533D01*
X107692569Y-86695957D01*
X107770544Y-86711467D01*
X107850046Y-86711467D01*
X107928021Y-86695957D01*
X108001471Y-86665533D01*
X108067360Y-86621507D01*
X108075017Y-86629164D01*
X108141121Y-86673333D01*
X108214571Y-86703757D01*
X108292546Y-86719267D01*
X108372048Y-86719267D01*
X108450023Y-86703757D01*
X108523473Y-86673333D01*
X108588499Y-86629885D01*
X108653524Y-86673333D01*
X108726974Y-86703757D01*
X108804949Y-86719267D01*
X108884451Y-86719267D01*
X108962426Y-86703757D01*
X109035876Y-86673333D01*
X109089934Y-86637213D01*
X109143991Y-86673333D01*
X109217441Y-86703757D01*
X109295416Y-86719267D01*
X109374918Y-86719267D01*
X109452893Y-86703757D01*
X109526343Y-86673333D01*
X109592447Y-86629164D01*
X109648664Y-86572947D01*
X109692833Y-86506843D01*
X109723257Y-86433393D01*
X109738767Y-86355418D01*
X109738767Y-86285649D01*
X111285940Y-86285649D01*
X111285940Y-86365151D01*
X111301450Y-86443126D01*
X111331874Y-86516576D01*
X111376043Y-86582680D01*
X111432260Y-86638897D01*
X111498364Y-86683066D01*
X111571814Y-86713490D01*
X111649789Y-86729000D01*
X111729291Y-86729000D01*
X111807266Y-86713490D01*
X111880716Y-86683066D01*
X111946820Y-86638897D01*
X112003037Y-86582680D01*
X112047206Y-86516576D01*
X112077630Y-86443126D01*
X112093140Y-86365151D01*
X112093140Y-86285649D01*
X112093125Y-86285571D01*
X112202480Y-86285571D01*
X112202480Y-86360149D01*
X112217029Y-86433294D01*
X112245569Y-86502194D01*
X112287002Y-86564204D01*
X112339736Y-86616938D01*
X112401746Y-86658371D01*
X112470646Y-86686911D01*
X112543791Y-86701460D01*
X112618369Y-86701460D01*
X112691514Y-86686911D01*
X112760414Y-86658371D01*
X112822424Y-86616938D01*
X112875158Y-86564204D01*
X112916591Y-86502194D01*
X112945131Y-86433294D01*
X112959680Y-86360149D01*
X112959680Y-86285571D01*
X112945131Y-86212426D01*
X112916591Y-86143526D01*
X112875158Y-86081516D01*
X112822424Y-86028782D01*
X112760414Y-85987349D01*
X112691514Y-85958809D01*
X112618369Y-85944260D01*
X112543791Y-85944260D01*
X112470646Y-85958809D01*
X112401746Y-85987349D01*
X112339736Y-86028782D01*
X112287002Y-86081516D01*
X112245569Y-86143526D01*
X112217029Y-86212426D01*
X112202480Y-86285571D01*
X112093125Y-86285571D01*
X112077630Y-86207674D01*
X112047206Y-86134224D01*
X112003037Y-86068120D01*
X111946820Y-86011903D01*
X111880716Y-85967734D01*
X111807266Y-85937310D01*
X111729291Y-85921800D01*
X111649789Y-85921800D01*
X111571814Y-85937310D01*
X111498364Y-85967734D01*
X111432260Y-86011903D01*
X111376043Y-86068120D01*
X111331874Y-86134224D01*
X111301450Y-86207674D01*
X111285940Y-86285649D01*
X109738767Y-86285649D01*
X109738767Y-86275916D01*
X109723257Y-86197941D01*
X109692833Y-86124491D01*
X109648664Y-86058387D01*
X109592447Y-86002170D01*
X109526343Y-85958001D01*
X109452893Y-85927577D01*
X109374918Y-85912067D01*
X109295416Y-85912067D01*
X109217441Y-85927577D01*
X109143991Y-85958001D01*
X109089933Y-85994121D01*
X109035876Y-85958001D01*
X108962426Y-85927577D01*
X108884451Y-85912067D01*
X108804949Y-85912067D01*
X108726974Y-85927577D01*
X108653524Y-85958001D01*
X108588499Y-86001449D01*
X108523473Y-85958001D01*
X108450023Y-85927577D01*
X108372048Y-85912067D01*
X108292546Y-85912067D01*
X108214571Y-85927577D01*
X108141121Y-85958001D01*
X108075232Y-86002027D01*
X108067575Y-85994370D01*
X108001471Y-85950201D01*
X107928021Y-85919777D01*
X107850046Y-85904267D01*
X107770544Y-85904267D01*
X107692569Y-85919777D01*
X107619119Y-85950201D01*
X107553015Y-85994370D01*
X107496798Y-86050587D01*
X107452629Y-86116691D01*
X107422205Y-86190141D01*
X107406695Y-86268116D01*
X107344329Y-86268116D01*
X107330370Y-86197941D01*
X107299946Y-86124491D01*
X107255777Y-86058387D01*
X107199560Y-86002170D01*
X107133456Y-85958001D01*
X107060006Y-85927577D01*
X106982031Y-85912067D01*
X106902529Y-85912067D01*
X106824554Y-85927577D01*
X106751104Y-85958001D01*
X106685000Y-86002170D01*
X106628783Y-86058387D01*
X106584614Y-86124491D01*
X106554190Y-86197941D01*
X106538680Y-86275916D01*
X106203029Y-86275916D01*
X106203029Y-86201500D01*
X106188480Y-86128355D01*
X106159940Y-86059455D01*
X106118507Y-85997445D01*
X106065773Y-85944711D01*
X106003763Y-85903278D01*
X105934863Y-85874738D01*
X105861718Y-85860189D01*
X105787140Y-85860189D01*
X105713995Y-85874738D01*
X105645095Y-85903278D01*
X105592596Y-85938356D01*
X105544274Y-85906069D01*
X105475374Y-85877529D01*
X105402229Y-85862980D01*
X105327651Y-85862980D01*
X105254506Y-85877529D01*
X105185606Y-85906069D01*
X105123596Y-85947502D01*
X105070862Y-86000236D01*
X105029429Y-86062246D01*
X105000889Y-86131146D01*
X104986340Y-86204291D01*
X100381109Y-86204291D01*
X100385787Y-85733508D01*
X113619940Y-85720952D01*
X113619940Y-93757469D01*
X113619940Y-93757469D01*
G37*
X113619940Y-93757469D02*
X100306021Y-93762491D01*
X100306958Y-93668136D01*
X100362146Y-93705011D01*
X100431046Y-93733551D01*
X100504191Y-93748100D01*
X100578769Y-93748100D01*
X100651914Y-93733551D01*
X100720814Y-93705011D01*
X100782824Y-93663578D01*
X100835558Y-93610844D01*
X100876991Y-93548834D01*
X100905531Y-93479934D01*
X100920080Y-93406789D01*
X100920080Y-93332211D01*
X100905531Y-93259066D01*
X100876991Y-93190166D01*
X100835558Y-93128156D01*
X100782824Y-93075422D01*
X100720814Y-93033989D01*
X100651914Y-93005449D01*
X100578769Y-92990900D01*
X100504191Y-92990900D01*
X100431046Y-93005449D01*
X100362146Y-93033989D01*
X100312932Y-93066872D01*
X100313784Y-92981011D01*
X101356680Y-92981011D01*
X101356680Y-93055589D01*
X101371229Y-93128734D01*
X101399769Y-93197634D01*
X101441202Y-93259644D01*
X101493936Y-93312378D01*
X101555946Y-93353811D01*
X101624846Y-93382351D01*
X101697991Y-93396900D01*
X101772569Y-93396900D01*
X101845714Y-93382351D01*
X101914614Y-93353811D01*
X101976624Y-93312378D01*
X102029358Y-93259644D01*
X102070791Y-93197634D01*
X102099331Y-93128734D01*
X102113880Y-93055589D01*
X102113880Y-92981011D01*
X102099331Y-92907866D01*
X102070791Y-92838966D01*
X102029358Y-92776956D01*
X101976624Y-92724222D01*
X101914614Y-92682789D01*
X101845714Y-92654249D01*
X101772569Y-92639700D01*
X101697991Y-92639700D01*
X101624846Y-92654249D01*
X101555946Y-92682789D01*
X101493936Y-92724222D01*
X101441202Y-92776956D01*
X101399769Y-92838966D01*
X101371229Y-92907866D01*
X101356680Y-92981011D01*
X100313784Y-92981011D01*
X100319591Y-92396451D01*
X104403810Y-92396451D01*
X104403810Y-92475953D01*
X104419320Y-92553928D01*
X104449744Y-92627378D01*
X104493913Y-92693482D01*
X104550130Y-92749699D01*
X104616234Y-92793868D01*
X104689684Y-92824292D01*
X104767659Y-92839802D01*
X104847161Y-92839802D01*
X104925136Y-92824292D01*
X104998586Y-92793868D01*
X105064690Y-92749699D01*
X105120907Y-92693482D01*
X105165076Y-92627378D01*
X105195500Y-92553928D01*
X105211010Y-92475953D01*
X105211010Y-92396451D01*
X105195500Y-92318476D01*
X105165076Y-92245026D01*
X105120907Y-92178922D01*
X105064690Y-92122705D01*
X104998586Y-92078536D01*
X104925136Y-92048112D01*
X104847161Y-92032602D01*
X104767659Y-92032602D01*
X104689684Y-92048112D01*
X104616234Y-92078536D01*
X104550130Y-92122705D01*
X104493913Y-92178922D01*
X104449744Y-92245026D01*
X104419320Y-92318476D01*
X104403810Y-92396451D01*
X100319591Y-92396451D01*
X100323877Y-91965011D01*
X105704480Y-91965011D01*
X105704480Y-92039589D01*
X105719029Y-92112734D01*
X105747569Y-92181634D01*
X105789002Y-92243644D01*
X105841736Y-92296378D01*
X105903746Y-92337811D01*
X105936872Y-92351533D01*
X105930529Y-92366846D01*
X105915980Y-92439991D01*
X105915980Y-92514569D01*
X105930529Y-92587714D01*
X105959069Y-92656614D01*
X106000502Y-92718624D01*
X106053236Y-92771358D01*
X106115246Y-92812791D01*
X106184146Y-92841331D01*
X106257291Y-92855880D01*
X106331869Y-92855880D01*
X106405014Y-92841331D01*
X106473914Y-92812791D01*
X106535924Y-92771358D01*
X106588658Y-92718624D01*
X106630091Y-92656614D01*
X106658631Y-92587714D01*
X106659530Y-92583192D01*
X106660870Y-92589926D01*
X106691294Y-92663376D01*
X106735463Y-92729480D01*
X106791680Y-92785697D01*
X106857784Y-92829866D01*
X106931234Y-92860290D01*
X107009209Y-92875800D01*
X107088711Y-92875800D01*
X107166686Y-92860290D01*
X107240136Y-92829866D01*
X107306240Y-92785697D01*
X107362457Y-92729480D01*
X107406626Y-92663376D01*
X107417823Y-92636343D01*
X107440594Y-92691316D01*
X107484763Y-92757420D01*
X107540980Y-92813637D01*
X107607084Y-92857806D01*
X107680534Y-92888230D01*
X107758509Y-92903740D01*
X107838011Y-92903740D01*
X107915986Y-92888230D01*
X107989436Y-92857806D01*
X108055540Y-92813637D01*
X108111757Y-92757420D01*
X108155926Y-92691316D01*
X108186350Y-92617866D01*
X108201860Y-92539891D01*
X108201860Y-92460389D01*
X108192444Y-92413050D01*
X108208381Y-92413050D01*
X108208381Y-92492552D01*
X108223891Y-92570527D01*
X108254315Y-92643977D01*
X108298484Y-92710081D01*
X108354701Y-92766298D01*
X108420805Y-92810467D01*
X108494255Y-92840891D01*
X108572230Y-92856401D01*
X108651732Y-92856401D01*
X108729707Y-92840891D01*
X108803157Y-92810467D01*
X108869261Y-92766298D01*
X108925478Y-92710081D01*
X108969647Y-92643977D01*
X109000071Y-92570527D01*
X109015581Y-92492552D01*
X109015581Y-92419671D01*
X110919780Y-92419671D01*
X110919780Y-92494249D01*
X110934329Y-92567394D01*
X110962869Y-92636294D01*
X111004302Y-92698304D01*
X111057036Y-92751038D01*
X111119046Y-92792471D01*
X111187946Y-92821011D01*
X111261091Y-92835560D01*
X111335669Y-92835560D01*
X111408814Y-92821011D01*
X111477714Y-92792471D01*
X111539724Y-92751038D01*
X111592458Y-92698304D01*
X111633891Y-92636294D01*
X111641458Y-92618025D01*
X112381480Y-92618025D01*
X112381480Y-92707377D01*
X112398911Y-92795011D01*
X112433105Y-92877561D01*
X112482746Y-92951854D01*
X112545927Y-93015035D01*
X112620220Y-93064676D01*
X112702770Y-93098870D01*
X112790404Y-93116301D01*
X112879756Y-93116301D01*
X112967390Y-93098870D01*
X113049940Y-93064676D01*
X113124233Y-93015035D01*
X113187414Y-92951854D01*
X113237055Y-92877561D01*
X113271249Y-92795011D01*
X113288680Y-92707377D01*
X113288680Y-92618025D01*
X113271249Y-92530391D01*
X113237055Y-92447841D01*
X113187414Y-92373548D01*
X113124233Y-92310367D01*
X113049940Y-92260726D01*
X112967390Y-92226532D01*
X112879756Y-92209101D01*
X112790404Y-92209101D01*
X112702770Y-92226532D01*
X112620220Y-92260726D01*
X112545927Y-92310367D01*
X112482746Y-92373548D01*
X112433105Y-92447841D01*
X112398911Y-92530391D01*
X112381480Y-92618025D01*
X111641458Y-92618025D01*
X111662431Y-92567394D01*
X111676980Y-92494249D01*
X111676980Y-92419671D01*
X111662431Y-92346526D01*
X111633891Y-92277626D01*
X111592458Y-92215616D01*
X111539724Y-92162882D01*
X111532559Y-92158094D01*
X111549884Y-92146518D01*
X111602618Y-92093784D01*
X111644051Y-92031774D01*
X111672591Y-91962874D01*
X111687140Y-91889729D01*
X111687140Y-91815151D01*
X111672591Y-91742006D01*
X111644051Y-91673106D01*
X111602618Y-91611096D01*
X111549884Y-91558362D01*
X111487874Y-91516929D01*
X111418974Y-91488389D01*
X111345829Y-91473840D01*
X111271251Y-91473840D01*
X111198106Y-91488389D01*
X111129206Y-91516929D01*
X111067196Y-91558362D01*
X111014462Y-91611096D01*
X110973029Y-91673106D01*
X110944489Y-91742006D01*
X110929940Y-91815151D01*
X110929940Y-91889729D01*
X110944489Y-91962874D01*
X110973029Y-92031774D01*
X111014462Y-92093784D01*
X111067196Y-92146518D01*
X111074361Y-92151306D01*
X111057036Y-92162882D01*
X111004302Y-92215616D01*
X110962869Y-92277626D01*
X110934329Y-92346526D01*
X110919780Y-92419671D01*
X109015581Y-92419671D01*
X109015581Y-92413050D01*
X109000071Y-92335075D01*
X108969647Y-92261625D01*
X108925478Y-92195521D01*
X108869261Y-92139304D01*
X108803157Y-92095135D01*
X108729707Y-92064711D01*
X108651732Y-92049201D01*
X108572230Y-92049201D01*
X108494255Y-92064711D01*
X108420805Y-92095135D01*
X108354701Y-92139304D01*
X108298484Y-92195521D01*
X108254315Y-92261625D01*
X108223891Y-92335075D01*
X108208381Y-92413050D01*
X108192444Y-92413050D01*
X108186350Y-92382414D01*
X108155926Y-92308964D01*
X108111757Y-92242860D01*
X108055540Y-92186643D01*
X108041580Y-92177315D01*
X108068331Y-92112734D01*
X108082880Y-92039589D01*
X108082880Y-91965011D01*
X108068331Y-91891866D01*
X108039791Y-91822966D01*
X107998358Y-91760956D01*
X107945624Y-91708222D01*
X107883614Y-91666789D01*
X107814714Y-91638249D01*
X107741569Y-91623700D01*
X107666991Y-91623700D01*
X107593846Y-91638249D01*
X107524946Y-91666789D01*
X107462936Y-91708222D01*
X107410202Y-91760956D01*
X107368769Y-91822966D01*
X107340229Y-91891866D01*
X107325680Y-91965011D01*
X107325680Y-92039589D01*
X107340229Y-92112734D01*
X107368769Y-92181634D01*
X107410202Y-92243644D01*
X107454584Y-92288026D01*
X107440594Y-92308964D01*
X107429397Y-92335997D01*
X107406626Y-92281024D01*
X107362457Y-92214920D01*
X107306240Y-92158703D01*
X107240136Y-92114534D01*
X107166686Y-92084110D01*
X107088711Y-92068600D01*
X107009209Y-92068600D01*
X106931234Y-92084110D01*
X106857784Y-92114534D01*
X106791680Y-92158703D01*
X106735463Y-92214920D01*
X106691294Y-92281024D01*
X106660870Y-92354474D01*
X106658481Y-92366484D01*
X106630091Y-92297946D01*
X106588658Y-92235936D01*
X106535924Y-92183202D01*
X106473914Y-92141769D01*
X106440788Y-92128047D01*
X106447131Y-92112734D01*
X106461680Y-92039589D01*
X106461680Y-91965011D01*
X106447131Y-91891866D01*
X106418591Y-91822966D01*
X106377158Y-91760956D01*
X106324424Y-91708222D01*
X106262414Y-91666789D01*
X106193514Y-91638249D01*
X106120369Y-91623700D01*
X106045791Y-91623700D01*
X105972646Y-91638249D01*
X105903746Y-91666789D01*
X105841736Y-91708222D01*
X105789002Y-91760956D01*
X105747569Y-91822966D01*
X105719029Y-91891866D01*
X105704480Y-91965011D01*
X100323877Y-91965011D01*
X100330994Y-91248731D01*
X104566109Y-91248731D01*
X104566109Y-91323309D01*
X104580658Y-91396454D01*
X104609198Y-91465354D01*
X104650631Y-91527364D01*
X104703365Y-91580098D01*
X104765375Y-91621531D01*
X104834275Y-91650071D01*
X104907420Y-91664620D01*
X104981998Y-91664620D01*
X105055143Y-91650071D01*
X105124043Y-91621531D01*
X105186053Y-91580098D01*
X105238787Y-91527364D01*
X105280220Y-91465354D01*
X105308760Y-91396454D01*
X105323309Y-91323309D01*
X105323309Y-91248731D01*
X105308760Y-91175586D01*
X105280220Y-91106686D01*
X105238787Y-91044676D01*
X105186053Y-90991942D01*
X105124043Y-90950509D01*
X105055143Y-90921969D01*
X104981998Y-90907420D01*
X104907420Y-90907420D01*
X104834275Y-90921969D01*
X104765375Y-90950509D01*
X104703365Y-90991942D01*
X104650631Y-91044676D01*
X104609198Y-91106686D01*
X104580658Y-91175586D01*
X104566109Y-91248731D01*
X100330994Y-91248731D01*
X100337227Y-90621376D01*
X100366946Y-90665853D01*
X100430127Y-90729034D01*
X100504420Y-90778675D01*
X100586970Y-90812869D01*
X100674604Y-90830300D01*
X100763956Y-90830300D01*
X100851590Y-90812869D01*
X100934140Y-90778675D01*
X101008433Y-90729034D01*
X101071614Y-90665853D01*
X101121255Y-90591560D01*
X101155449Y-90509010D01*
X101172880Y-90421376D01*
X101172880Y-90332024D01*
X101155449Y-90244390D01*
X101147464Y-90225111D01*
X105428300Y-90225111D01*
X105428300Y-90299689D01*
X105442849Y-90372834D01*
X105471389Y-90441734D01*
X105512822Y-90503744D01*
X105525478Y-90516400D01*
X105520442Y-90521436D01*
X105479009Y-90583446D01*
X105450469Y-90652346D01*
X105435920Y-90725491D01*
X105435920Y-90800069D01*
X105450469Y-90873214D01*
X105479009Y-90942114D01*
X105520442Y-91004124D01*
X105573176Y-91056858D01*
X105635186Y-91098291D01*
X105704086Y-91126831D01*
X105777231Y-91141380D01*
X105851809Y-91141380D01*
X105924954Y-91126831D01*
X105993854Y-91098291D01*
X106055864Y-91056858D01*
X106108598Y-91004124D01*
X106150031Y-90942114D01*
X106178571Y-90873214D01*
X106193120Y-90800069D01*
X106193120Y-90725491D01*
X106178571Y-90652346D01*
X106150031Y-90583446D01*
X106108598Y-90521436D01*
X106095942Y-90508780D01*
X106100978Y-90503744D01*
X106142411Y-90441734D01*
X106170951Y-90372834D01*
X106185500Y-90299689D01*
X106185500Y-90228351D01*
X109795300Y-90228351D01*
X109795300Y-90302929D01*
X109809849Y-90376074D01*
X109838389Y-90444974D01*
X109879822Y-90506984D01*
X109888478Y-90515640D01*
X109879822Y-90524296D01*
X109838389Y-90586306D01*
X109809849Y-90655206D01*
X109795300Y-90728351D01*
X109795300Y-90802929D01*
X109809849Y-90876074D01*
X109838389Y-90944974D01*
X109879822Y-91006984D01*
X109888478Y-91015640D01*
X109879822Y-91024296D01*
X109838389Y-91086306D01*
X109809849Y-91155206D01*
X109795300Y-91228351D01*
X109795300Y-91302929D01*
X109809849Y-91376074D01*
X109838389Y-91444974D01*
X109879822Y-91506984D01*
X109932556Y-91559718D01*
X109994566Y-91601151D01*
X110063466Y-91629691D01*
X110136611Y-91644240D01*
X110211189Y-91644240D01*
X110284334Y-91629691D01*
X110353234Y-91601151D01*
X110415244Y-91559718D01*
X110467978Y-91506984D01*
X110509411Y-91444974D01*
X110537951Y-91376074D01*
X110552500Y-91302929D01*
X110552500Y-91228351D01*
X110537951Y-91155206D01*
X110509411Y-91086306D01*
X110467978Y-91024296D01*
X110459322Y-91015640D01*
X110467978Y-91006984D01*
X110509411Y-90944974D01*
X110537951Y-90876074D01*
X110552500Y-90802929D01*
X110552500Y-90728351D01*
X110537951Y-90655206D01*
X110509411Y-90586306D01*
X110467978Y-90524296D01*
X110459322Y-90515640D01*
X110467978Y-90506984D01*
X110509411Y-90444974D01*
X110537951Y-90376074D01*
X110552500Y-90302929D01*
X110552500Y-90228351D01*
X110537951Y-90155206D01*
X110509411Y-90086306D01*
X110467978Y-90024296D01*
X110459682Y-90016000D01*
X110468698Y-90006984D01*
X110510131Y-89944974D01*
X110538671Y-89876074D01*
X110553220Y-89802929D01*
X110553220Y-89728351D01*
X110538671Y-89655206D01*
X110510131Y-89586306D01*
X110468698Y-89524296D01*
X110415964Y-89471562D01*
X110353954Y-89430129D01*
X110285054Y-89401589D01*
X110211909Y-89387040D01*
X110137331Y-89387040D01*
X110064186Y-89401589D01*
X109995286Y-89430129D01*
X109933276Y-89471562D01*
X109880542Y-89524296D01*
X109839109Y-89586306D01*
X109810569Y-89655206D01*
X109796020Y-89728351D01*
X109796020Y-89802929D01*
X109810569Y-89876074D01*
X109839109Y-89944974D01*
X109880542Y-90006984D01*
X109888838Y-90015280D01*
X109879822Y-90024296D01*
X109838389Y-90086306D01*
X109809849Y-90155206D01*
X109795300Y-90228351D01*
X106185500Y-90228351D01*
X106185500Y-90225111D01*
X106170951Y-90151966D01*
X106142411Y-90083066D01*
X106100978Y-90021056D01*
X106099752Y-90019830D01*
X106111138Y-90008444D01*
X106152571Y-89946434D01*
X106181111Y-89877534D01*
X106195660Y-89804389D01*
X106195660Y-89729811D01*
X106181111Y-89656666D01*
X106152571Y-89587766D01*
X106111138Y-89525756D01*
X106058404Y-89473022D01*
X105996394Y-89431589D01*
X105927494Y-89403049D01*
X105854349Y-89388500D01*
X105779771Y-89388500D01*
X105706626Y-89403049D01*
X105637726Y-89431589D01*
X105575716Y-89473022D01*
X105522982Y-89525756D01*
X105481549Y-89587766D01*
X105453009Y-89656666D01*
X105438460Y-89729811D01*
X105438460Y-89804389D01*
X105453009Y-89877534D01*
X105481549Y-89946434D01*
X105522982Y-90008444D01*
X105524208Y-90009670D01*
X105512822Y-90021056D01*
X105471389Y-90083066D01*
X105442849Y-90151966D01*
X105428300Y-90225111D01*
X101147464Y-90225111D01*
X101121255Y-90161840D01*
X101071614Y-90087547D01*
X101008433Y-90024366D01*
X100934140Y-89974725D01*
X100851590Y-89940531D01*
X100763956Y-89923100D01*
X100674604Y-89923100D01*
X100586970Y-89940531D01*
X100504420Y-89974725D01*
X100430127Y-90024366D01*
X100366946Y-90087547D01*
X100342162Y-90124639D01*
X100355950Y-88736749D01*
X104403810Y-88736749D01*
X104403810Y-88816251D01*
X104419320Y-88894226D01*
X104449744Y-88967676D01*
X104493913Y-89033780D01*
X104529368Y-89069235D01*
X104493913Y-89104690D01*
X104449744Y-89170794D01*
X104419320Y-89244244D01*
X104403810Y-89322219D01*
X104403810Y-89401721D01*
X104419320Y-89479696D01*
X104449744Y-89553146D01*
X104493913Y-89619250D01*
X104550130Y-89675467D01*
X104616234Y-89719636D01*
X104689684Y-89750060D01*
X104767659Y-89765570D01*
X104847161Y-89765570D01*
X104925136Y-89750060D01*
X104998586Y-89719636D01*
X105064690Y-89675467D01*
X105120907Y-89619250D01*
X105165076Y-89553146D01*
X105195500Y-89479696D01*
X105211010Y-89401721D01*
X105211010Y-89322219D01*
X105195500Y-89244244D01*
X105165076Y-89170794D01*
X105146605Y-89143149D01*
X110501080Y-89143149D01*
X110501080Y-89222651D01*
X110516590Y-89300626D01*
X110547014Y-89374076D01*
X110591183Y-89440180D01*
X110647400Y-89496397D01*
X110713504Y-89540566D01*
X110786954Y-89570990D01*
X110864929Y-89586500D01*
X110944431Y-89586500D01*
X111022406Y-89570990D01*
X111029000Y-89568259D01*
X111029000Y-89629129D01*
X111043549Y-89702274D01*
X111072089Y-89771174D01*
X111113522Y-89833184D01*
X111166256Y-89885918D01*
X111228266Y-89927351D01*
X111297166Y-89955891D01*
X111370311Y-89970440D01*
X111444889Y-89970440D01*
X111518034Y-89955891D01*
X111586934Y-89927351D01*
X111648944Y-89885918D01*
X111688610Y-89846252D01*
X111725736Y-89883378D01*
X111787746Y-89924811D01*
X111856646Y-89953351D01*
X111929791Y-89967900D01*
X112004369Y-89967900D01*
X112077514Y-89953351D01*
X112146414Y-89924811D01*
X112208424Y-89883378D01*
X112261158Y-89830644D01*
X112302591Y-89768634D01*
X112331131Y-89699734D01*
X112345680Y-89626589D01*
X112345680Y-89552011D01*
X112331131Y-89478866D01*
X112302591Y-89409966D01*
X112261158Y-89347956D01*
X112208424Y-89295222D01*
X112146414Y-89253789D01*
X112077514Y-89225249D01*
X112004369Y-89210700D01*
X111929791Y-89210700D01*
X111856646Y-89225249D01*
X111787746Y-89253789D01*
X111725736Y-89295222D01*
X111686070Y-89334888D01*
X111648944Y-89297762D01*
X111586934Y-89256329D01*
X111518034Y-89227789D01*
X111444889Y-89213240D01*
X111370311Y-89213240D01*
X111307674Y-89225699D01*
X111308280Y-89222651D01*
X111308280Y-89143149D01*
X111292770Y-89065174D01*
X111262346Y-88991724D01*
X111218177Y-88925620D01*
X111161960Y-88869403D01*
X111095856Y-88825234D01*
X111022406Y-88794810D01*
X110944431Y-88779300D01*
X110864929Y-88779300D01*
X110786954Y-88794810D01*
X110713504Y-88825234D01*
X110647400Y-88869403D01*
X110591183Y-88925620D01*
X110547014Y-88991724D01*
X110516590Y-89065174D01*
X110501080Y-89143149D01*
X105146605Y-89143149D01*
X105120907Y-89104690D01*
X105085452Y-89069235D01*
X105120907Y-89033780D01*
X105165076Y-88967676D01*
X105195500Y-88894226D01*
X105211010Y-88816251D01*
X105211010Y-88736749D01*
X105195500Y-88658774D01*
X105165076Y-88585324D01*
X105120907Y-88519220D01*
X105064690Y-88463003D01*
X104998586Y-88418834D01*
X104925136Y-88388410D01*
X104847161Y-88372900D01*
X104767659Y-88372900D01*
X104689684Y-88388410D01*
X104616234Y-88418834D01*
X104550130Y-88463003D01*
X104493913Y-88519220D01*
X104449744Y-88585324D01*
X104419320Y-88658774D01*
X104403810Y-88736749D01*
X100355950Y-88736749D01*
X100370693Y-87252709D01*
X110346820Y-87252709D01*
X110346820Y-87332211D01*
X110362330Y-87410186D01*
X110392754Y-87483636D01*
X110436923Y-87549740D01*
X110493140Y-87605957D01*
X110559244Y-87650126D01*
X110632694Y-87680550D01*
X110710669Y-87696060D01*
X110790171Y-87696060D01*
X110868146Y-87680550D01*
X110941596Y-87650126D01*
X111007700Y-87605957D01*
X111063917Y-87549740D01*
X111083430Y-87520537D01*
X111111883Y-87563120D01*
X111134343Y-87585580D01*
X111114423Y-87605500D01*
X111070254Y-87671604D01*
X111039830Y-87745054D01*
X111024320Y-87823029D01*
X111024320Y-87902531D01*
X111039830Y-87980506D01*
X111070254Y-88053956D01*
X111114423Y-88120060D01*
X111170640Y-88176277D01*
X111236744Y-88220446D01*
X111310194Y-88250870D01*
X111388169Y-88266380D01*
X111467671Y-88266380D01*
X111545646Y-88250870D01*
X111619096Y-88220446D01*
X111685200Y-88176277D01*
X111741417Y-88120060D01*
X111785586Y-88053956D01*
X111816010Y-87980506D01*
X111831520Y-87902531D01*
X111831520Y-87823029D01*
X111816010Y-87745054D01*
X111785586Y-87671604D01*
X111741417Y-87605500D01*
X111718957Y-87583040D01*
X111738877Y-87563120D01*
X111783046Y-87497016D01*
X111813470Y-87423566D01*
X111828980Y-87345591D01*
X111828980Y-87266089D01*
X111813470Y-87188114D01*
X111783046Y-87114664D01*
X111738877Y-87048560D01*
X111682660Y-86992343D01*
X111616556Y-86948174D01*
X111543106Y-86917750D01*
X111465131Y-86902240D01*
X111385629Y-86902240D01*
X111307654Y-86917750D01*
X111234204Y-86948174D01*
X111168100Y-86992343D01*
X111111883Y-87048560D01*
X111092370Y-87077763D01*
X111063917Y-87035180D01*
X111007700Y-86978963D01*
X110941596Y-86934794D01*
X110868146Y-86904370D01*
X110790171Y-86888860D01*
X110710669Y-86888860D01*
X110632694Y-86904370D01*
X110559244Y-86934794D01*
X110493140Y-86978963D01*
X110436923Y-87035180D01*
X110392754Y-87101284D01*
X110362330Y-87174734D01*
X110346820Y-87252709D01*
X100370693Y-87252709D01*
X100377147Y-86603149D01*
X102246080Y-86603149D01*
X102246080Y-86682651D01*
X102261590Y-86760626D01*
X102292014Y-86834076D01*
X102336183Y-86900180D01*
X102392400Y-86956397D01*
X102458504Y-87000566D01*
X102531954Y-87030990D01*
X102609929Y-87046500D01*
X102689431Y-87046500D01*
X102767406Y-87030990D01*
X102840856Y-87000566D01*
X102906960Y-86956397D01*
X102963177Y-86900180D01*
X103007346Y-86834076D01*
X103037770Y-86760626D01*
X103043832Y-86730149D01*
X103358600Y-86730149D01*
X103358600Y-86809651D01*
X103374110Y-86887626D01*
X103404534Y-86961076D01*
X103448703Y-87027180D01*
X103504920Y-87083397D01*
X103571024Y-87127566D01*
X103644474Y-87157990D01*
X103722449Y-87173500D01*
X103801951Y-87173500D01*
X103879926Y-87157990D01*
X103953376Y-87127566D01*
X104002355Y-87094839D01*
X104051334Y-87127566D01*
X104124784Y-87157990D01*
X104202759Y-87173500D01*
X104282261Y-87173500D01*
X104360236Y-87157990D01*
X104433686Y-87127566D01*
X104499790Y-87083397D01*
X104556007Y-87027180D01*
X104600176Y-86961076D01*
X104630600Y-86887626D01*
X104646110Y-86809651D01*
X104646110Y-86730149D01*
X104630600Y-86652174D01*
X104600176Y-86578724D01*
X104556007Y-86512620D01*
X104499790Y-86456403D01*
X104433686Y-86412234D01*
X104360236Y-86381810D01*
X104282261Y-86366300D01*
X104202759Y-86366300D01*
X104124784Y-86381810D01*
X104051334Y-86412234D01*
X104002355Y-86444961D01*
X103953376Y-86412234D01*
X103879926Y-86381810D01*
X103801951Y-86366300D01*
X103722449Y-86366300D01*
X103644474Y-86381810D01*
X103571024Y-86412234D01*
X103504920Y-86456403D01*
X103448703Y-86512620D01*
X103404534Y-86578724D01*
X103374110Y-86652174D01*
X103358600Y-86730149D01*
X103043832Y-86730149D01*
X103053280Y-86682651D01*
X103053280Y-86603149D01*
X103037770Y-86525174D01*
X103007346Y-86451724D01*
X102963177Y-86385620D01*
X102906960Y-86329403D01*
X102840856Y-86285234D01*
X102767406Y-86254810D01*
X102689431Y-86239300D01*
X102609929Y-86239300D01*
X102531954Y-86254810D01*
X102458504Y-86285234D01*
X102392400Y-86329403D01*
X102336183Y-86385620D01*
X102292014Y-86451724D01*
X102261590Y-86525174D01*
X102246080Y-86603149D01*
X100377147Y-86603149D01*
X100381109Y-86204291D01*
X104986340Y-86204291D01*
X104986340Y-86278869D01*
X105000889Y-86352014D01*
X105029429Y-86420914D01*
X105070862Y-86482924D01*
X105123596Y-86535658D01*
X105185606Y-86577091D01*
X105254506Y-86605631D01*
X105327651Y-86620180D01*
X105402229Y-86620180D01*
X105475374Y-86605631D01*
X105544274Y-86577091D01*
X105596773Y-86542013D01*
X105645095Y-86574300D01*
X105713995Y-86602840D01*
X105787140Y-86617389D01*
X105861718Y-86617389D01*
X105934863Y-86602840D01*
X106003763Y-86574300D01*
X106065773Y-86532867D01*
X106118507Y-86480133D01*
X106159940Y-86418123D01*
X106188480Y-86349223D01*
X106203029Y-86276078D01*
X106203029Y-86275916D01*
X106538680Y-86275916D01*
X106538680Y-86355418D01*
X106554190Y-86433393D01*
X106584614Y-86506843D01*
X106628783Y-86572947D01*
X106685000Y-86629164D01*
X106751104Y-86673333D01*
X106824554Y-86703757D01*
X106902529Y-86719267D01*
X106982031Y-86719267D01*
X107060006Y-86703757D01*
X107133456Y-86673333D01*
X107199560Y-86629164D01*
X107255777Y-86572947D01*
X107299946Y-86506843D01*
X107330370Y-86433393D01*
X107345880Y-86355418D01*
X107345880Y-86275916D01*
X107344329Y-86268116D01*
X107406695Y-86268116D01*
X107406695Y-86347618D01*
X107422205Y-86425593D01*
X107452629Y-86499043D01*
X107496798Y-86565147D01*
X107553015Y-86621364D01*
X107619119Y-86665533D01*
X107692569Y-86695957D01*
X107770544Y-86711467D01*
X107850046Y-86711467D01*
X107928021Y-86695957D01*
X108001471Y-86665533D01*
X108067360Y-86621507D01*
X108075017Y-86629164D01*
X108141121Y-86673333D01*
X108214571Y-86703757D01*
X108292546Y-86719267D01*
X108372048Y-86719267D01*
X108450023Y-86703757D01*
X108523473Y-86673333D01*
X108588499Y-86629885D01*
X108653524Y-86673333D01*
X108726974Y-86703757D01*
X108804949Y-86719267D01*
X108884451Y-86719267D01*
X108962426Y-86703757D01*
X109035876Y-86673333D01*
X109089934Y-86637213D01*
X109143991Y-86673333D01*
X109217441Y-86703757D01*
X109295416Y-86719267D01*
X109374918Y-86719267D01*
X109452893Y-86703757D01*
X109526343Y-86673333D01*
X109592447Y-86629164D01*
X109648664Y-86572947D01*
X109692833Y-86506843D01*
X109723257Y-86433393D01*
X109738767Y-86355418D01*
X109738767Y-86285649D01*
X111285940Y-86285649D01*
X111285940Y-86365151D01*
X111301450Y-86443126D01*
X111331874Y-86516576D01*
X111376043Y-86582680D01*
X111432260Y-86638897D01*
X111498364Y-86683066D01*
X111571814Y-86713490D01*
X111649789Y-86729000D01*
X111729291Y-86729000D01*
X111807266Y-86713490D01*
X111880716Y-86683066D01*
X111946820Y-86638897D01*
X112003037Y-86582680D01*
X112047206Y-86516576D01*
X112077630Y-86443126D01*
X112093140Y-86365151D01*
X112093140Y-86285649D01*
X112093125Y-86285571D01*
X112202480Y-86285571D01*
X112202480Y-86360149D01*
X112217029Y-86433294D01*
X112245569Y-86502194D01*
X112287002Y-86564204D01*
X112339736Y-86616938D01*
X112401746Y-86658371D01*
X112470646Y-86686911D01*
X112543791Y-86701460D01*
X112618369Y-86701460D01*
X112691514Y-86686911D01*
X112760414Y-86658371D01*
X112822424Y-86616938D01*
X112875158Y-86564204D01*
X112916591Y-86502194D01*
X112945131Y-86433294D01*
X112959680Y-86360149D01*
X112959680Y-86285571D01*
X112945131Y-86212426D01*
X112916591Y-86143526D01*
X112875158Y-86081516D01*
X112822424Y-86028782D01*
X112760414Y-85987349D01*
X112691514Y-85958809D01*
X112618369Y-85944260D01*
X112543791Y-85944260D01*
X112470646Y-85958809D01*
X112401746Y-85987349D01*
X112339736Y-86028782D01*
X112287002Y-86081516D01*
X112245569Y-86143526D01*
X112217029Y-86212426D01*
X112202480Y-86285571D01*
X112093125Y-86285571D01*
X112077630Y-86207674D01*
X112047206Y-86134224D01*
X112003037Y-86068120D01*
X111946820Y-86011903D01*
X111880716Y-85967734D01*
X111807266Y-85937310D01*
X111729291Y-85921800D01*
X111649789Y-85921800D01*
X111571814Y-85937310D01*
X111498364Y-85967734D01*
X111432260Y-86011903D01*
X111376043Y-86068120D01*
X111331874Y-86134224D01*
X111301450Y-86207674D01*
X111285940Y-86285649D01*
X109738767Y-86285649D01*
X109738767Y-86275916D01*
X109723257Y-86197941D01*
X109692833Y-86124491D01*
X109648664Y-86058387D01*
X109592447Y-86002170D01*
X109526343Y-85958001D01*
X109452893Y-85927577D01*
X109374918Y-85912067D01*
X109295416Y-85912067D01*
X109217441Y-85927577D01*
X109143991Y-85958001D01*
X109089933Y-85994121D01*
X109035876Y-85958001D01*
X108962426Y-85927577D01*
X108884451Y-85912067D01*
X108804949Y-85912067D01*
X108726974Y-85927577D01*
X108653524Y-85958001D01*
X108588499Y-86001449D01*
X108523473Y-85958001D01*
X108450023Y-85927577D01*
X108372048Y-85912067D01*
X108292546Y-85912067D01*
X108214571Y-85927577D01*
X108141121Y-85958001D01*
X108075232Y-86002027D01*
X108067575Y-85994370D01*
X108001471Y-85950201D01*
X107928021Y-85919777D01*
X107850046Y-85904267D01*
X107770544Y-85904267D01*
X107692569Y-85919777D01*
X107619119Y-85950201D01*
X107553015Y-85994370D01*
X107496798Y-86050587D01*
X107452629Y-86116691D01*
X107422205Y-86190141D01*
X107406695Y-86268116D01*
X107344329Y-86268116D01*
X107330370Y-86197941D01*
X107299946Y-86124491D01*
X107255777Y-86058387D01*
X107199560Y-86002170D01*
X107133456Y-85958001D01*
X107060006Y-85927577D01*
X106982031Y-85912067D01*
X106902529Y-85912067D01*
X106824554Y-85927577D01*
X106751104Y-85958001D01*
X106685000Y-86002170D01*
X106628783Y-86058387D01*
X106584614Y-86124491D01*
X106554190Y-86197941D01*
X106538680Y-86275916D01*
X106203029Y-86275916D01*
X106203029Y-86201500D01*
X106188480Y-86128355D01*
X106159940Y-86059455D01*
X106118507Y-85997445D01*
X106065773Y-85944711D01*
X106003763Y-85903278D01*
X105934863Y-85874738D01*
X105861718Y-85860189D01*
X105787140Y-85860189D01*
X105713995Y-85874738D01*
X105645095Y-85903278D01*
X105592596Y-85938356D01*
X105544274Y-85906069D01*
X105475374Y-85877529D01*
X105402229Y-85862980D01*
X105327651Y-85862980D01*
X105254506Y-85877529D01*
X105185606Y-85906069D01*
X105123596Y-85947502D01*
X105070862Y-86000236D01*
X105029429Y-86062246D01*
X105000889Y-86131146D01*
X104986340Y-86204291D01*
X100381109Y-86204291D01*
X100385787Y-85733508D01*
X113619940Y-85720952D01*
X113619940Y-93757469D01*
D14*
G36*
X125225638Y-84616129D02*
G01*
X125141229Y-84700538D01*
X125074910Y-84799791D01*
X125029228Y-84910076D01*
X125005940Y-85027154D01*
X125005940Y-85146526D01*
X125029228Y-85263604D01*
X125074910Y-85373889D01*
X125141229Y-85473142D01*
X125194347Y-85526260D01*
X125141229Y-85579378D01*
X125074910Y-85678631D01*
X125029228Y-85788916D01*
X125005940Y-85905994D01*
X125005940Y-86025366D01*
X125029228Y-86142444D01*
X125074910Y-86252729D01*
X125141229Y-86351982D01*
X125194347Y-86405100D01*
X125141229Y-86458218D01*
X125074910Y-86557471D01*
X125029228Y-86667756D01*
X125005940Y-86784834D01*
X125005940Y-86904206D01*
X125029228Y-87021284D01*
X125074910Y-87131569D01*
X125141229Y-87230822D01*
X125225638Y-87315231D01*
X125324891Y-87381550D01*
X125435176Y-87427232D01*
X125552254Y-87450520D01*
X125671626Y-87450520D01*
X125788704Y-87427232D01*
X125898989Y-87381550D01*
X125998242Y-87315231D01*
X126082651Y-87230822D01*
X126148970Y-87131569D01*
X126194652Y-87021284D01*
X126217940Y-86904206D01*
X126217940Y-86784834D01*
X126194652Y-86667756D01*
X126148970Y-86557471D01*
X126082651Y-86458218D01*
X126029533Y-86405100D01*
X126082651Y-86351982D01*
X126148970Y-86252729D01*
X126194652Y-86142444D01*
X126217940Y-86025366D01*
X126217940Y-85905994D01*
X126194652Y-85788916D01*
X126148970Y-85678631D01*
X126082651Y-85579378D01*
X126029533Y-85526260D01*
X126082651Y-85473142D01*
X126148970Y-85373889D01*
X126194652Y-85263604D01*
X126217940Y-85146526D01*
X126217940Y-85027154D01*
X126194652Y-84910076D01*
X126148970Y-84799791D01*
X126082651Y-84700538D01*
X125998242Y-84616129D01*
X125929594Y-84570260D01*
X129573040Y-84570260D01*
X129824061Y-84648909D01*
X129824070Y-87510840D01*
X129825899Y-87529414D01*
X129825869Y-87533770D01*
X129826456Y-87539760D01*
X129856017Y-87821007D01*
X129863872Y-87859274D01*
X129871192Y-87897643D01*
X129872931Y-87903404D01*
X129956556Y-88173553D01*
X129971691Y-88209558D01*
X129986327Y-88245783D01*
X129989150Y-88251092D01*
X129989152Y-88251097D01*
X129989155Y-88251101D01*
X130123656Y-88499858D01*
X130145512Y-88532260D01*
X130166890Y-88564930D01*
X130170688Y-88569587D01*
X130170693Y-88569594D01*
X130170699Y-88569600D01*
X130180740Y-88581737D01*
X130180740Y-90537829D01*
X130150873Y-90493131D01*
X130073429Y-90415687D01*
X129982365Y-90354839D01*
X129881179Y-90312927D01*
X129773761Y-90291560D01*
X129664239Y-90291560D01*
X129556821Y-90312927D01*
X129455635Y-90354839D01*
X129364571Y-90415687D01*
X129287127Y-90493131D01*
X129226279Y-90584195D01*
X129184367Y-90685381D01*
X129163000Y-90792799D01*
X129163000Y-90902321D01*
X129184367Y-91009739D01*
X129226279Y-91110925D01*
X129287127Y-91201989D01*
X129364571Y-91279433D01*
X129455635Y-91340281D01*
X129556821Y-91382193D01*
X129664239Y-91403560D01*
X129773761Y-91403560D01*
X129881179Y-91382193D01*
X129982365Y-91340281D01*
X130073429Y-91279433D01*
X130150873Y-91201989D01*
X130180740Y-91157291D01*
X130180740Y-92054119D01*
X130168237Y-92069449D01*
X130146624Y-92101979D01*
X130124550Y-92134217D01*
X130121688Y-92139510D01*
X129988923Y-92389204D01*
X129974033Y-92425330D01*
X129958648Y-92461225D01*
X129956868Y-92466974D01*
X129875131Y-92737700D01*
X129867549Y-92775993D01*
X129859422Y-92814229D01*
X129858793Y-92820215D01*
X129831197Y-93101662D01*
X129831197Y-93101669D01*
X129829140Y-93122553D01*
X129829141Y-94760591D01*
X129807993Y-94764932D01*
X129769699Y-94772237D01*
X129763944Y-94773974D01*
X129658998Y-94806460D01*
X125157063Y-94806460D01*
X125044802Y-94772566D01*
X125006493Y-94764981D01*
X124990720Y-94761628D01*
X124990719Y-94521650D01*
X125031433Y-94529748D01*
X125136031Y-94529748D01*
X125238619Y-94509342D01*
X125335255Y-94469314D01*
X125336848Y-94468250D01*
X125430604Y-94507085D01*
X125533192Y-94527491D01*
X125637790Y-94527491D01*
X125740378Y-94507085D01*
X125837014Y-94467057D01*
X125923984Y-94408945D01*
X125997945Y-94334984D01*
X126056057Y-94248014D01*
X126096085Y-94151378D01*
X126116491Y-94048790D01*
X126116491Y-93944192D01*
X126096085Y-93841604D01*
X126056057Y-93744968D01*
X125997945Y-93657998D01*
X125923984Y-93584037D01*
X125837014Y-93525925D01*
X125740378Y-93485897D01*
X125637790Y-93465491D01*
X125533192Y-93465491D01*
X125430604Y-93485897D01*
X125333968Y-93525925D01*
X125332375Y-93526989D01*
X125238619Y-93488154D01*
X125136031Y-93467748D01*
X125031433Y-93467748D01*
X124990719Y-93475847D01*
X124990718Y-92857433D01*
X124988474Y-92834647D01*
X124988484Y-92833326D01*
X124987902Y-92827343D01*
X124985251Y-92801929D01*
X124984481Y-92794110D01*
X124984412Y-92793882D01*
X124962407Y-92582921D01*
X124954587Y-92544671D01*
X124947309Y-92506355D01*
X124945579Y-92500609D01*
X124945577Y-92500599D01*
X124945573Y-92500590D01*
X124907700Y-92377900D01*
X124907700Y-92159780D01*
X124905260Y-92135004D01*
X124898033Y-92111179D01*
X124886297Y-92089223D01*
X124870503Y-92069977D01*
X124786087Y-91985561D01*
X126858280Y-91985561D01*
X126858280Y-92090159D01*
X126878686Y-92192747D01*
X126918714Y-92289383D01*
X126976826Y-92376353D01*
X127050787Y-92450314D01*
X127137757Y-92508426D01*
X127234393Y-92548454D01*
X127336981Y-92568860D01*
X127441579Y-92568860D01*
X127544167Y-92548454D01*
X127640803Y-92508426D01*
X127641628Y-92507875D01*
X127727813Y-92543574D01*
X127830401Y-92563980D01*
X127934999Y-92563980D01*
X128037587Y-92543574D01*
X128134223Y-92503546D01*
X128221193Y-92445434D01*
X128295154Y-92371473D01*
X128353266Y-92284503D01*
X128393294Y-92187867D01*
X128413700Y-92085279D01*
X128413700Y-91980681D01*
X128393294Y-91878093D01*
X128355073Y-91785820D01*
X128361364Y-91776405D01*
X128401392Y-91679769D01*
X128421798Y-91577181D01*
X128421798Y-91472583D01*
X128401392Y-91369995D01*
X128361364Y-91273359D01*
X128303252Y-91186389D01*
X128229291Y-91112428D01*
X128142321Y-91054316D01*
X128045685Y-91014288D01*
X127943097Y-90993882D01*
X127838499Y-90993882D01*
X127735911Y-91014288D01*
X127639275Y-91054316D01*
X127552305Y-91112428D01*
X127478344Y-91186389D01*
X127420232Y-91273359D01*
X127380204Y-91369995D01*
X127359798Y-91472583D01*
X127359798Y-91506860D01*
X127336981Y-91506860D01*
X127234393Y-91527266D01*
X127137757Y-91567294D01*
X127050787Y-91625406D01*
X126976826Y-91699367D01*
X126918714Y-91786337D01*
X126878686Y-91882973D01*
X126858280Y-91985561D01*
X124786087Y-91985561D01*
X124553961Y-91753435D01*
X124520449Y-91712861D01*
X124492772Y-91685333D01*
X124465503Y-91657443D01*
X124460880Y-91653613D01*
X124460874Y-91653607D01*
X124460867Y-91653603D01*
X124424068Y-91623542D01*
X124098707Y-91298181D01*
X124640098Y-91298181D01*
X124640098Y-91402779D01*
X124660504Y-91505367D01*
X124700532Y-91602003D01*
X124758644Y-91688973D01*
X124832605Y-91762934D01*
X124919575Y-91821046D01*
X125016211Y-91861074D01*
X125118799Y-91881480D01*
X125223397Y-91881480D01*
X125325985Y-91861074D01*
X125422621Y-91821046D01*
X125509591Y-91762934D01*
X125583552Y-91688973D01*
X125641664Y-91602003D01*
X125681692Y-91505367D01*
X125702098Y-91402779D01*
X125702098Y-91298181D01*
X125681692Y-91195593D01*
X125641664Y-91098957D01*
X125583552Y-91011987D01*
X125509591Y-90938026D01*
X125422621Y-90879914D01*
X125325985Y-90839886D01*
X125223397Y-90819480D01*
X125118799Y-90819480D01*
X125016211Y-90839886D01*
X124919575Y-90879914D01*
X124832605Y-90938026D01*
X124758644Y-91011987D01*
X124700532Y-91098957D01*
X124660504Y-91195593D01*
X124640098Y-91298181D01*
X124098707Y-91298181D01*
X123957740Y-91157214D01*
X123957740Y-88653846D01*
X124006131Y-88605455D01*
X124031498Y-88591739D01*
X124031498Y-88648631D01*
X124052865Y-88756049D01*
X124094777Y-88857235D01*
X124155625Y-88948299D01*
X124233069Y-89025743D01*
X124324133Y-89086591D01*
X124425319Y-89128503D01*
X124532737Y-89149870D01*
X124642259Y-89149870D01*
X124749677Y-89128503D01*
X124850863Y-89086591D01*
X124941927Y-89025743D01*
X125019371Y-88948299D01*
X125080219Y-88857235D01*
X125122131Y-88756049D01*
X125143498Y-88648631D01*
X125143498Y-88539109D01*
X125122131Y-88431691D01*
X125080219Y-88330505D01*
X125019371Y-88239441D01*
X124941927Y-88161997D01*
X124850863Y-88101149D01*
X124749677Y-88059237D01*
X124680278Y-88045432D01*
X124683524Y-88041452D01*
X124705110Y-88008963D01*
X124727163Y-87976755D01*
X124730022Y-87971467D01*
X124832101Y-87779485D01*
X124838925Y-87772661D01*
X125715940Y-87772661D01*
X125715940Y-87877259D01*
X125736346Y-87979847D01*
X125776374Y-88076483D01*
X125834486Y-88163453D01*
X125908447Y-88237414D01*
X125995417Y-88295526D01*
X126092053Y-88335554D01*
X126194641Y-88355960D01*
X126299239Y-88355960D01*
X126401827Y-88335554D01*
X126498463Y-88295526D01*
X126585433Y-88237414D01*
X126659394Y-88163453D01*
X126717506Y-88076483D01*
X126757534Y-87979847D01*
X126777940Y-87877259D01*
X126777940Y-87772661D01*
X126757534Y-87670073D01*
X126717506Y-87573437D01*
X126659394Y-87486467D01*
X126585433Y-87412506D01*
X126498463Y-87354394D01*
X126401827Y-87314366D01*
X126299239Y-87293960D01*
X126194641Y-87293960D01*
X126092053Y-87314366D01*
X125995417Y-87354394D01*
X125908447Y-87412506D01*
X125834486Y-87486467D01*
X125776374Y-87573437D01*
X125736346Y-87670073D01*
X125715940Y-87772661D01*
X124838925Y-87772661D01*
X124875583Y-87736003D01*
X124891377Y-87716757D01*
X124903113Y-87694801D01*
X124910340Y-87670976D01*
X124912780Y-87646401D01*
X124912918Y-87559291D01*
X124948541Y-87441302D01*
X124956120Y-87403030D01*
X124964234Y-87364854D01*
X124964861Y-87358889D01*
X124964863Y-87358877D01*
X124964863Y-87358866D01*
X124984474Y-87158858D01*
X124985143Y-87156651D01*
X124991380Y-87093328D01*
X124991380Y-84646505D01*
X124996798Y-84644860D01*
X124996804Y-84644858D01*
X125236310Y-84570260D01*
X125294286Y-84570260D01*
X125225638Y-84616129D01*
X125225638Y-84616129D01*
G37*
X125225638Y-84616129D02*
X125141229Y-84700538D01*
X125074910Y-84799791D01*
X125029228Y-84910076D01*
X125005940Y-85027154D01*
X125005940Y-85146526D01*
X125029228Y-85263604D01*
X125074910Y-85373889D01*
X125141229Y-85473142D01*
X125194347Y-85526260D01*
X125141229Y-85579378D01*
X125074910Y-85678631D01*
X125029228Y-85788916D01*
X125005940Y-85905994D01*
X125005940Y-86025366D01*
X125029228Y-86142444D01*
X125074910Y-86252729D01*
X125141229Y-86351982D01*
X125194347Y-86405100D01*
X125141229Y-86458218D01*
X125074910Y-86557471D01*
X125029228Y-86667756D01*
X125005940Y-86784834D01*
X125005940Y-86904206D01*
X125029228Y-87021284D01*
X125074910Y-87131569D01*
X125141229Y-87230822D01*
X125225638Y-87315231D01*
X125324891Y-87381550D01*
X125435176Y-87427232D01*
X125552254Y-87450520D01*
X125671626Y-87450520D01*
X125788704Y-87427232D01*
X125898989Y-87381550D01*
X125998242Y-87315231D01*
X126082651Y-87230822D01*
X126148970Y-87131569D01*
X126194652Y-87021284D01*
X126217940Y-86904206D01*
X126217940Y-86784834D01*
X126194652Y-86667756D01*
X126148970Y-86557471D01*
X126082651Y-86458218D01*
X126029533Y-86405100D01*
X126082651Y-86351982D01*
X126148970Y-86252729D01*
X126194652Y-86142444D01*
X126217940Y-86025366D01*
X126217940Y-85905994D01*
X126194652Y-85788916D01*
X126148970Y-85678631D01*
X126082651Y-85579378D01*
X126029533Y-85526260D01*
X126082651Y-85473142D01*
X126148970Y-85373889D01*
X126194652Y-85263604D01*
X126217940Y-85146526D01*
X126217940Y-85027154D01*
X126194652Y-84910076D01*
X126148970Y-84799791D01*
X126082651Y-84700538D01*
X125998242Y-84616129D01*
X125929594Y-84570260D01*
X129573040Y-84570260D01*
X129824061Y-84648909D01*
X129824070Y-87510840D01*
X129825899Y-87529414D01*
X129825869Y-87533770D01*
X129826456Y-87539760D01*
X129856017Y-87821007D01*
X129863872Y-87859274D01*
X129871192Y-87897643D01*
X129872931Y-87903404D01*
X129956556Y-88173553D01*
X129971691Y-88209558D01*
X129986327Y-88245783D01*
X129989150Y-88251092D01*
X129989152Y-88251097D01*
X129989155Y-88251101D01*
X130123656Y-88499858D01*
X130145512Y-88532260D01*
X130166890Y-88564930D01*
X130170688Y-88569587D01*
X130170693Y-88569594D01*
X130170699Y-88569600D01*
X130180740Y-88581737D01*
X130180740Y-90537829D01*
X130150873Y-90493131D01*
X130073429Y-90415687D01*
X129982365Y-90354839D01*
X129881179Y-90312927D01*
X129773761Y-90291560D01*
X129664239Y-90291560D01*
X129556821Y-90312927D01*
X129455635Y-90354839D01*
X129364571Y-90415687D01*
X129287127Y-90493131D01*
X129226279Y-90584195D01*
X129184367Y-90685381D01*
X129163000Y-90792799D01*
X129163000Y-90902321D01*
X129184367Y-91009739D01*
X129226279Y-91110925D01*
X129287127Y-91201989D01*
X129364571Y-91279433D01*
X129455635Y-91340281D01*
X129556821Y-91382193D01*
X129664239Y-91403560D01*
X129773761Y-91403560D01*
X129881179Y-91382193D01*
X129982365Y-91340281D01*
X130073429Y-91279433D01*
X130150873Y-91201989D01*
X130180740Y-91157291D01*
X130180740Y-92054119D01*
X130168237Y-92069449D01*
X130146624Y-92101979D01*
X130124550Y-92134217D01*
X130121688Y-92139510D01*
X129988923Y-92389204D01*
X129974033Y-92425330D01*
X129958648Y-92461225D01*
X129956868Y-92466974D01*
X129875131Y-92737700D01*
X129867549Y-92775993D01*
X129859422Y-92814229D01*
X129858793Y-92820215D01*
X129831197Y-93101662D01*
X129831197Y-93101669D01*
X129829140Y-93122553D01*
X129829141Y-94760591D01*
X129807993Y-94764932D01*
X129769699Y-94772237D01*
X129763944Y-94773974D01*
X129658998Y-94806460D01*
X125157063Y-94806460D01*
X125044802Y-94772566D01*
X125006493Y-94764981D01*
X124990720Y-94761628D01*
X124990719Y-94521650D01*
X125031433Y-94529748D01*
X125136031Y-94529748D01*
X125238619Y-94509342D01*
X125335255Y-94469314D01*
X125336848Y-94468250D01*
X125430604Y-94507085D01*
X125533192Y-94527491D01*
X125637790Y-94527491D01*
X125740378Y-94507085D01*
X125837014Y-94467057D01*
X125923984Y-94408945D01*
X125997945Y-94334984D01*
X126056057Y-94248014D01*
X126096085Y-94151378D01*
X126116491Y-94048790D01*
X126116491Y-93944192D01*
X126096085Y-93841604D01*
X126056057Y-93744968D01*
X125997945Y-93657998D01*
X125923984Y-93584037D01*
X125837014Y-93525925D01*
X125740378Y-93485897D01*
X125637790Y-93465491D01*
X125533192Y-93465491D01*
X125430604Y-93485897D01*
X125333968Y-93525925D01*
X125332375Y-93526989D01*
X125238619Y-93488154D01*
X125136031Y-93467748D01*
X125031433Y-93467748D01*
X124990719Y-93475847D01*
X124990718Y-92857433D01*
X124988474Y-92834647D01*
X124988484Y-92833326D01*
X124987902Y-92827343D01*
X124985251Y-92801929D01*
X124984481Y-92794110D01*
X124984412Y-92793882D01*
X124962407Y-92582921D01*
X124954587Y-92544671D01*
X124947309Y-92506355D01*
X124945579Y-92500609D01*
X124945577Y-92500599D01*
X124945573Y-92500590D01*
X124907700Y-92377900D01*
X124907700Y-92159780D01*
X124905260Y-92135004D01*
X124898033Y-92111179D01*
X124886297Y-92089223D01*
X124870503Y-92069977D01*
X124786087Y-91985561D01*
X126858280Y-91985561D01*
X126858280Y-92090159D01*
X126878686Y-92192747D01*
X126918714Y-92289383D01*
X126976826Y-92376353D01*
X127050787Y-92450314D01*
X127137757Y-92508426D01*
X127234393Y-92548454D01*
X127336981Y-92568860D01*
X127441579Y-92568860D01*
X127544167Y-92548454D01*
X127640803Y-92508426D01*
X127641628Y-92507875D01*
X127727813Y-92543574D01*
X127830401Y-92563980D01*
X127934999Y-92563980D01*
X128037587Y-92543574D01*
X128134223Y-92503546D01*
X128221193Y-92445434D01*
X128295154Y-92371473D01*
X128353266Y-92284503D01*
X128393294Y-92187867D01*
X128413700Y-92085279D01*
X128413700Y-91980681D01*
X128393294Y-91878093D01*
X128355073Y-91785820D01*
X128361364Y-91776405D01*
X128401392Y-91679769D01*
X128421798Y-91577181D01*
X128421798Y-91472583D01*
X128401392Y-91369995D01*
X128361364Y-91273359D01*
X128303252Y-91186389D01*
X128229291Y-91112428D01*
X128142321Y-91054316D01*
X128045685Y-91014288D01*
X127943097Y-90993882D01*
X127838499Y-90993882D01*
X127735911Y-91014288D01*
X127639275Y-91054316D01*
X127552305Y-91112428D01*
X127478344Y-91186389D01*
X127420232Y-91273359D01*
X127380204Y-91369995D01*
X127359798Y-91472583D01*
X127359798Y-91506860D01*
X127336981Y-91506860D01*
X127234393Y-91527266D01*
X127137757Y-91567294D01*
X127050787Y-91625406D01*
X126976826Y-91699367D01*
X126918714Y-91786337D01*
X126878686Y-91882973D01*
X126858280Y-91985561D01*
X124786087Y-91985561D01*
X124553961Y-91753435D01*
X124520449Y-91712861D01*
X124492772Y-91685333D01*
X124465503Y-91657443D01*
X124460880Y-91653613D01*
X124460874Y-91653607D01*
X124460867Y-91653603D01*
X124424068Y-91623542D01*
X124098707Y-91298181D01*
X124640098Y-91298181D01*
X124640098Y-91402779D01*
X124660504Y-91505367D01*
X124700532Y-91602003D01*
X124758644Y-91688973D01*
X124832605Y-91762934D01*
X124919575Y-91821046D01*
X125016211Y-91861074D01*
X125118799Y-91881480D01*
X125223397Y-91881480D01*
X125325985Y-91861074D01*
X125422621Y-91821046D01*
X125509591Y-91762934D01*
X125583552Y-91688973D01*
X125641664Y-91602003D01*
X125681692Y-91505367D01*
X125702098Y-91402779D01*
X125702098Y-91298181D01*
X125681692Y-91195593D01*
X125641664Y-91098957D01*
X125583552Y-91011987D01*
X125509591Y-90938026D01*
X125422621Y-90879914D01*
X125325985Y-90839886D01*
X125223397Y-90819480D01*
X125118799Y-90819480D01*
X125016211Y-90839886D01*
X124919575Y-90879914D01*
X124832605Y-90938026D01*
X124758644Y-91011987D01*
X124700532Y-91098957D01*
X124660504Y-91195593D01*
X124640098Y-91298181D01*
X124098707Y-91298181D01*
X123957740Y-91157214D01*
X123957740Y-88653846D01*
X124006131Y-88605455D01*
X124031498Y-88591739D01*
X124031498Y-88648631D01*
X124052865Y-88756049D01*
X124094777Y-88857235D01*
X124155625Y-88948299D01*
X124233069Y-89025743D01*
X124324133Y-89086591D01*
X124425319Y-89128503D01*
X124532737Y-89149870D01*
X124642259Y-89149870D01*
X124749677Y-89128503D01*
X124850863Y-89086591D01*
X124941927Y-89025743D01*
X125019371Y-88948299D01*
X125080219Y-88857235D01*
X125122131Y-88756049D01*
X125143498Y-88648631D01*
X125143498Y-88539109D01*
X125122131Y-88431691D01*
X125080219Y-88330505D01*
X125019371Y-88239441D01*
X124941927Y-88161997D01*
X124850863Y-88101149D01*
X124749677Y-88059237D01*
X124680278Y-88045432D01*
X124683524Y-88041452D01*
X124705110Y-88008963D01*
X124727163Y-87976755D01*
X124730022Y-87971467D01*
X124832101Y-87779485D01*
X124838925Y-87772661D01*
X125715940Y-87772661D01*
X125715940Y-87877259D01*
X125736346Y-87979847D01*
X125776374Y-88076483D01*
X125834486Y-88163453D01*
X125908447Y-88237414D01*
X125995417Y-88295526D01*
X126092053Y-88335554D01*
X126194641Y-88355960D01*
X126299239Y-88355960D01*
X126401827Y-88335554D01*
X126498463Y-88295526D01*
X126585433Y-88237414D01*
X126659394Y-88163453D01*
X126717506Y-88076483D01*
X126757534Y-87979847D01*
X126777940Y-87877259D01*
X126777940Y-87772661D01*
X126757534Y-87670073D01*
X126717506Y-87573437D01*
X126659394Y-87486467D01*
X126585433Y-87412506D01*
X126498463Y-87354394D01*
X126401827Y-87314366D01*
X126299239Y-87293960D01*
X126194641Y-87293960D01*
X126092053Y-87314366D01*
X125995417Y-87354394D01*
X125908447Y-87412506D01*
X125834486Y-87486467D01*
X125776374Y-87573437D01*
X125736346Y-87670073D01*
X125715940Y-87772661D01*
X124838925Y-87772661D01*
X124875583Y-87736003D01*
X124891377Y-87716757D01*
X124903113Y-87694801D01*
X124910340Y-87670976D01*
X124912780Y-87646401D01*
X124912918Y-87559291D01*
X124948541Y-87441302D01*
X124956120Y-87403030D01*
X124964234Y-87364854D01*
X124964861Y-87358889D01*
X124964863Y-87358877D01*
X124964863Y-87358866D01*
X124984474Y-87158858D01*
X124985143Y-87156651D01*
X124991380Y-87093328D01*
X124991380Y-84646505D01*
X124996798Y-84644860D01*
X124996804Y-84644858D01*
X125236310Y-84570260D01*
X125294286Y-84570260D01*
X125225638Y-84616129D01*
G36*
X104695381Y-69591536D02*
G01*
X104620957Y-69641264D01*
X104557664Y-69704557D01*
X104507936Y-69778981D01*
X104473682Y-69861676D01*
X104456220Y-69949465D01*
X104456220Y-70038975D01*
X104473682Y-70126764D01*
X104507936Y-70209459D01*
X104557664Y-70283883D01*
X104620957Y-70347176D01*
X104695381Y-70396904D01*
X104778076Y-70431158D01*
X104865865Y-70448620D01*
X104955375Y-70448620D01*
X105043164Y-70431158D01*
X105125859Y-70396904D01*
X105200283Y-70347176D01*
X105263576Y-70283883D01*
X105313304Y-70209459D01*
X105347558Y-70126764D01*
X105365020Y-70038975D01*
X105365020Y-69949465D01*
X105347558Y-69861676D01*
X105313304Y-69778981D01*
X105263576Y-69704557D01*
X105200283Y-69641264D01*
X105125859Y-69591536D01*
X105071502Y-69569020D01*
X107165295Y-69569020D01*
X107158122Y-69586336D01*
X107140660Y-69674125D01*
X107140660Y-69684529D01*
X107072529Y-69698081D01*
X106994383Y-69730450D01*
X106924053Y-69777443D01*
X106864243Y-69837253D01*
X106817250Y-69907583D01*
X106784881Y-69985729D01*
X106768380Y-70068688D01*
X106768380Y-70153272D01*
X106784881Y-70236231D01*
X106817250Y-70314377D01*
X106864243Y-70384707D01*
X106924053Y-70444517D01*
X106994383Y-70491510D01*
X107072529Y-70523879D01*
X107155488Y-70540380D01*
X107240072Y-70540380D01*
X107323031Y-70523879D01*
X107401177Y-70491510D01*
X107471507Y-70444517D01*
X107531317Y-70384707D01*
X107578310Y-70314377D01*
X107610679Y-70236231D01*
X107623200Y-70173280D01*
X107639815Y-70173280D01*
X107727604Y-70155818D01*
X107810299Y-70121564D01*
X107884723Y-70071836D01*
X107948016Y-70008543D01*
X107997744Y-69934119D01*
X108031998Y-69851424D01*
X108049460Y-69763635D01*
X108049460Y-69674125D01*
X108031998Y-69586336D01*
X108024825Y-69569020D01*
X109763652Y-69569020D01*
X109701809Y-69581321D01*
X109623663Y-69613690D01*
X109553333Y-69660683D01*
X109493523Y-69720493D01*
X109446530Y-69790823D01*
X109414161Y-69868969D01*
X109397660Y-69951928D01*
X109397660Y-70036512D01*
X109414161Y-70119471D01*
X109446530Y-70197617D01*
X109493523Y-70267947D01*
X109553333Y-70327757D01*
X109623663Y-70374750D01*
X109701809Y-70407119D01*
X109784768Y-70423620D01*
X109869352Y-70423620D01*
X109952311Y-70407119D01*
X110030457Y-70374750D01*
X110100787Y-70327757D01*
X110160597Y-70267947D01*
X110207590Y-70197617D01*
X110239959Y-70119471D01*
X110256460Y-70036512D01*
X110256460Y-69951928D01*
X110239959Y-69868969D01*
X110207590Y-69790823D01*
X110160597Y-69720493D01*
X110100787Y-69660683D01*
X110030457Y-69613690D01*
X109952311Y-69581321D01*
X109890468Y-69569020D01*
X111016898Y-69569020D01*
X110962541Y-69591536D01*
X110888117Y-69641264D01*
X110824824Y-69704557D01*
X110775096Y-69778981D01*
X110740842Y-69861676D01*
X110723380Y-69949465D01*
X110723380Y-70038975D01*
X110740842Y-70126764D01*
X110775096Y-70209459D01*
X110824824Y-70283883D01*
X110888117Y-70347176D01*
X110962541Y-70396904D01*
X111045236Y-70431158D01*
X111133025Y-70448620D01*
X111222535Y-70448620D01*
X111310324Y-70431158D01*
X111393019Y-70396904D01*
X111443160Y-70363401D01*
X111443160Y-73357604D01*
X111415464Y-73290741D01*
X111365736Y-73216317D01*
X111302443Y-73153024D01*
X111228019Y-73103296D01*
X111145324Y-73069042D01*
X111057535Y-73051580D01*
X110968025Y-73051580D01*
X110880236Y-73069042D01*
X110797541Y-73103296D01*
X110723117Y-73153024D01*
X110659824Y-73216317D01*
X110610096Y-73290741D01*
X110575842Y-73373436D01*
X110558380Y-73461225D01*
X110558380Y-73550735D01*
X110575842Y-73638524D01*
X110610096Y-73721219D01*
X110659824Y-73795643D01*
X110723117Y-73858936D01*
X110797541Y-73908664D01*
X110880236Y-73942918D01*
X110968025Y-73960380D01*
X111057535Y-73960380D01*
X111145324Y-73942918D01*
X111228019Y-73908664D01*
X111302443Y-73858936D01*
X111365736Y-73795643D01*
X111415464Y-73721219D01*
X111443160Y-73654356D01*
X111443160Y-79005120D01*
X102751313Y-79005120D01*
X102751600Y-77908691D01*
X105368380Y-77908691D01*
X105368380Y-77998201D01*
X105385842Y-78085990D01*
X105420096Y-78168685D01*
X105469824Y-78243109D01*
X105533117Y-78306402D01*
X105607541Y-78356130D01*
X105690236Y-78390384D01*
X105778025Y-78407846D01*
X105867535Y-78407846D01*
X105955324Y-78390384D01*
X106038019Y-78356130D01*
X106112443Y-78306402D01*
X106175736Y-78243109D01*
X106225464Y-78168685D01*
X106259718Y-78085990D01*
X106277180Y-77998201D01*
X106277180Y-77908691D01*
X106259718Y-77820902D01*
X106225464Y-77738207D01*
X106175736Y-77663783D01*
X106112443Y-77600490D01*
X106038019Y-77550762D01*
X105955324Y-77516508D01*
X105867535Y-77499046D01*
X105778025Y-77499046D01*
X105690236Y-77516508D01*
X105607541Y-77550762D01*
X105533117Y-77600490D01*
X105469824Y-77663783D01*
X105420096Y-77738207D01*
X105385842Y-77820902D01*
X105368380Y-77908691D01*
X102751600Y-77908691D01*
X102751828Y-77036225D01*
X105768380Y-77036225D01*
X105768380Y-77125735D01*
X105785842Y-77213524D01*
X105820096Y-77296219D01*
X105869824Y-77370643D01*
X105933117Y-77433936D01*
X106007541Y-77483664D01*
X106090236Y-77517918D01*
X106178025Y-77535380D01*
X106267535Y-77535380D01*
X106355324Y-77517918D01*
X106438019Y-77483664D01*
X106494863Y-77445682D01*
X106515716Y-77466535D01*
X106590140Y-77516263D01*
X106672835Y-77550517D01*
X106760624Y-77567979D01*
X106850134Y-77567979D01*
X106937923Y-77550517D01*
X107020618Y-77516263D01*
X107095042Y-77466535D01*
X107158335Y-77403242D01*
X107166485Y-77391044D01*
X107225977Y-77450536D01*
X107300401Y-77500264D01*
X107383096Y-77534518D01*
X107470885Y-77551980D01*
X107560395Y-77551980D01*
X107648184Y-77534518D01*
X107730879Y-77500264D01*
X107790640Y-77460333D01*
X107850401Y-77500264D01*
X107933096Y-77534518D01*
X108020885Y-77551980D01*
X108110395Y-77551980D01*
X108198184Y-77534518D01*
X108280879Y-77500264D01*
X108355303Y-77450536D01*
X108418596Y-77387243D01*
X108468324Y-77312819D01*
X108468744Y-77311805D01*
X109248960Y-77311805D01*
X109248960Y-77401315D01*
X109266422Y-77489104D01*
X109300676Y-77571799D01*
X109350404Y-77646223D01*
X109413697Y-77709516D01*
X109488121Y-77759244D01*
X109570816Y-77793498D01*
X109658605Y-77810960D01*
X109748115Y-77810960D01*
X109835904Y-77793498D01*
X109918599Y-77759244D01*
X109993023Y-77709516D01*
X110056316Y-77646223D01*
X110106044Y-77571799D01*
X110140298Y-77489104D01*
X110157760Y-77401315D01*
X110157760Y-77311805D01*
X110140298Y-77224016D01*
X110106044Y-77141321D01*
X110056316Y-77066897D01*
X109993023Y-77003604D01*
X109918599Y-76953876D01*
X109835904Y-76919622D01*
X109748115Y-76902160D01*
X109658605Y-76902160D01*
X109570816Y-76919622D01*
X109488121Y-76953876D01*
X109413697Y-77003604D01*
X109350404Y-77066897D01*
X109300676Y-77141321D01*
X109266422Y-77224016D01*
X109248960Y-77311805D01*
X108468744Y-77311805D01*
X108502578Y-77230124D01*
X108520040Y-77142335D01*
X108520040Y-77052825D01*
X108502578Y-76965036D01*
X108468324Y-76882341D01*
X108418596Y-76807917D01*
X108355303Y-76744624D01*
X108280879Y-76694896D01*
X108198184Y-76660642D01*
X108110395Y-76643180D01*
X108020885Y-76643180D01*
X107933096Y-76660642D01*
X107850401Y-76694896D01*
X107790640Y-76734827D01*
X107730879Y-76694896D01*
X107648184Y-76660642D01*
X107560395Y-76643180D01*
X107470885Y-76643180D01*
X107383096Y-76660642D01*
X107300401Y-76694896D01*
X107225977Y-76744624D01*
X107162684Y-76807917D01*
X107154534Y-76820115D01*
X107095042Y-76760623D01*
X107020618Y-76710895D01*
X106937923Y-76676641D01*
X106850134Y-76659179D01*
X106760624Y-76659179D01*
X106672835Y-76676641D01*
X106590140Y-76710895D01*
X106533296Y-76748877D01*
X106512443Y-76728024D01*
X106438019Y-76678296D01*
X106355324Y-76644042D01*
X106267535Y-76626580D01*
X106178025Y-76626580D01*
X106090236Y-76644042D01*
X106007541Y-76678296D01*
X105933117Y-76728024D01*
X105869824Y-76791317D01*
X105820096Y-76865741D01*
X105785842Y-76948436D01*
X105768380Y-77036225D01*
X102751828Y-77036225D01*
X102752231Y-75503425D01*
X102817580Y-75503425D01*
X102817580Y-75592935D01*
X102835042Y-75680724D01*
X102869296Y-75763419D01*
X102919024Y-75837843D01*
X102982317Y-75901136D01*
X103056741Y-75950864D01*
X103139436Y-75985118D01*
X103227225Y-76002580D01*
X103316735Y-76002580D01*
X103404524Y-75985118D01*
X103487219Y-75950864D01*
X103561643Y-75901136D01*
X103624936Y-75837843D01*
X103674664Y-75763419D01*
X103708918Y-75680724D01*
X103726380Y-75592935D01*
X103726380Y-75503425D01*
X103720823Y-75475485D01*
X104557480Y-75475485D01*
X104557480Y-75564995D01*
X104574942Y-75652784D01*
X104609196Y-75735479D01*
X104658924Y-75809903D01*
X104722217Y-75873196D01*
X104796641Y-75922924D01*
X104879336Y-75957178D01*
X104967125Y-75974640D01*
X105056635Y-75974640D01*
X105144424Y-75957178D01*
X105227119Y-75922924D01*
X105301543Y-75873196D01*
X105364836Y-75809903D01*
X105414564Y-75735479D01*
X105448818Y-75652784D01*
X105466280Y-75564995D01*
X105466280Y-75475485D01*
X105448818Y-75387696D01*
X105442014Y-75371268D01*
X106731320Y-75371268D01*
X106731320Y-75455852D01*
X106747821Y-75538811D01*
X106780190Y-75616957D01*
X106827183Y-75687287D01*
X106886993Y-75747097D01*
X106957323Y-75794090D01*
X107035469Y-75826459D01*
X107118428Y-75842960D01*
X107203012Y-75842960D01*
X107285971Y-75826459D01*
X107364117Y-75794090D01*
X107434447Y-75747097D01*
X107494257Y-75687287D01*
X107541250Y-75616957D01*
X107573619Y-75538811D01*
X107589051Y-75461225D01*
X108878380Y-75461225D01*
X108878380Y-75550735D01*
X108895842Y-75638524D01*
X108930096Y-75721219D01*
X108979824Y-75795643D01*
X109043117Y-75858936D01*
X109117541Y-75908664D01*
X109200236Y-75942918D01*
X109288025Y-75960380D01*
X109377535Y-75960380D01*
X109465324Y-75942918D01*
X109548019Y-75908664D01*
X109622443Y-75858936D01*
X109685736Y-75795643D01*
X109735464Y-75721219D01*
X109769718Y-75638524D01*
X109787180Y-75550735D01*
X109787180Y-75461225D01*
X109769718Y-75373436D01*
X109735464Y-75290741D01*
X109685736Y-75216317D01*
X109622443Y-75153024D01*
X109548019Y-75103296D01*
X109465324Y-75069042D01*
X109377535Y-75051580D01*
X109288025Y-75051580D01*
X109200236Y-75069042D01*
X109117541Y-75103296D01*
X109043117Y-75153024D01*
X108979824Y-75216317D01*
X108930096Y-75290741D01*
X108895842Y-75373436D01*
X108878380Y-75461225D01*
X107589051Y-75461225D01*
X107590120Y-75455852D01*
X107590120Y-75371268D01*
X107573619Y-75288309D01*
X107541250Y-75210163D01*
X107494257Y-75139833D01*
X107434447Y-75080023D01*
X107364117Y-75033030D01*
X107285971Y-75000661D01*
X107203012Y-74984160D01*
X107118428Y-74984160D01*
X107035469Y-75000661D01*
X106957323Y-75033030D01*
X106886993Y-75080023D01*
X106827183Y-75139833D01*
X106780190Y-75210163D01*
X106747821Y-75288309D01*
X106731320Y-75371268D01*
X105442014Y-75371268D01*
X105414564Y-75305001D01*
X105364836Y-75230577D01*
X105301543Y-75167284D01*
X105227119Y-75117556D01*
X105144424Y-75083302D01*
X105056635Y-75065840D01*
X104967125Y-75065840D01*
X104879336Y-75083302D01*
X104796641Y-75117556D01*
X104722217Y-75167284D01*
X104658924Y-75230577D01*
X104609196Y-75305001D01*
X104574942Y-75387696D01*
X104557480Y-75475485D01*
X103720823Y-75475485D01*
X103708918Y-75415636D01*
X103674664Y-75332941D01*
X103624936Y-75258517D01*
X103561643Y-75195224D01*
X103487219Y-75145496D01*
X103404524Y-75111242D01*
X103316735Y-75093780D01*
X103227225Y-75093780D01*
X103139436Y-75111242D01*
X103056741Y-75145496D01*
X102982317Y-75195224D01*
X102919024Y-75258517D01*
X102869296Y-75332941D01*
X102835042Y-75415636D01*
X102817580Y-75503425D01*
X102752231Y-75503425D01*
X102752628Y-73986225D01*
X104583380Y-73986225D01*
X104583380Y-74075735D01*
X104600842Y-74163524D01*
X104635096Y-74246219D01*
X104684824Y-74320643D01*
X104748117Y-74383936D01*
X104822541Y-74433664D01*
X104905236Y-74467918D01*
X104993025Y-74485380D01*
X105082535Y-74485380D01*
X105170324Y-74467918D01*
X105253019Y-74433664D01*
X105327443Y-74383936D01*
X105390736Y-74320643D01*
X105440464Y-74246219D01*
X105474718Y-74163524D01*
X105492180Y-74075735D01*
X105492180Y-73986225D01*
X105487208Y-73961225D01*
X108878380Y-73961225D01*
X108878380Y-74050735D01*
X108895842Y-74138524D01*
X108930096Y-74221219D01*
X108979824Y-74295643D01*
X109043117Y-74358936D01*
X109117541Y-74408664D01*
X109200236Y-74442918D01*
X109288025Y-74460380D01*
X109377535Y-74460380D01*
X109465324Y-74442918D01*
X109548019Y-74408664D01*
X109622443Y-74358936D01*
X109685736Y-74295643D01*
X109735464Y-74221219D01*
X109769718Y-74138524D01*
X109787180Y-74050735D01*
X109787180Y-73961225D01*
X109769718Y-73873436D01*
X109735464Y-73790741D01*
X109685736Y-73716317D01*
X109622443Y-73653024D01*
X109548019Y-73603296D01*
X109465324Y-73569042D01*
X109377535Y-73551580D01*
X109288025Y-73551580D01*
X109200236Y-73569042D01*
X109117541Y-73603296D01*
X109043117Y-73653024D01*
X108979824Y-73716317D01*
X108930096Y-73790741D01*
X108895842Y-73873436D01*
X108878380Y-73961225D01*
X105487208Y-73961225D01*
X105474718Y-73898436D01*
X105440464Y-73815741D01*
X105390736Y-73741317D01*
X105327443Y-73678024D01*
X105253019Y-73628296D01*
X105170324Y-73594042D01*
X105082535Y-73576580D01*
X104993025Y-73576580D01*
X104905236Y-73594042D01*
X104822541Y-73628296D01*
X104748117Y-73678024D01*
X104684824Y-73741317D01*
X104635096Y-73815741D01*
X104600842Y-73898436D01*
X104583380Y-73986225D01*
X102752628Y-73986225D01*
X102752840Y-73176768D01*
X106782180Y-73176768D01*
X106782180Y-73261352D01*
X106798681Y-73344311D01*
X106831050Y-73422457D01*
X106878043Y-73492787D01*
X106937853Y-73552597D01*
X107008183Y-73599590D01*
X107086329Y-73631959D01*
X107169288Y-73648460D01*
X107253872Y-73648460D01*
X107336831Y-73631959D01*
X107414977Y-73599590D01*
X107485307Y-73552597D01*
X107545117Y-73492787D01*
X107592110Y-73422457D01*
X107624479Y-73344311D01*
X107640980Y-73261352D01*
X107640980Y-73176768D01*
X107624479Y-73093809D01*
X107592110Y-73015663D01*
X107545117Y-72945333D01*
X107485307Y-72885523D01*
X107414977Y-72838530D01*
X107336831Y-72806161D01*
X107253872Y-72789660D01*
X107169288Y-72789660D01*
X107086329Y-72806161D01*
X107008183Y-72838530D01*
X106937853Y-72885523D01*
X106878043Y-72945333D01*
X106831050Y-73015663D01*
X106798681Y-73093809D01*
X106782180Y-73176768D01*
X102752840Y-73176768D01*
X102753205Y-71786225D01*
X103191780Y-71786225D01*
X103191780Y-71875735D01*
X103209242Y-71963524D01*
X103243496Y-72046219D01*
X103293224Y-72120643D01*
X103356517Y-72183936D01*
X103430941Y-72233664D01*
X103513636Y-72267918D01*
X103601425Y-72285380D01*
X103690935Y-72285380D01*
X103778724Y-72267918D01*
X103861419Y-72233664D01*
X103935843Y-72183936D01*
X103999136Y-72120643D01*
X104048864Y-72046219D01*
X104083118Y-71963524D01*
X104100580Y-71875735D01*
X104100580Y-71811225D01*
X104456220Y-71811225D01*
X104456220Y-71900735D01*
X104473682Y-71988524D01*
X104507936Y-72071219D01*
X104557664Y-72145643D01*
X104620957Y-72208936D01*
X104695381Y-72258664D01*
X104778076Y-72292918D01*
X104865865Y-72310380D01*
X104955375Y-72310380D01*
X105043164Y-72292918D01*
X105125859Y-72258664D01*
X105200283Y-72208936D01*
X105263576Y-72145643D01*
X105313304Y-72071219D01*
X105347558Y-71988524D01*
X105365020Y-71900735D01*
X105365020Y-71811225D01*
X105347558Y-71723436D01*
X105313304Y-71640741D01*
X105263576Y-71566317D01*
X105200283Y-71503024D01*
X105125859Y-71453296D01*
X105043164Y-71419042D01*
X104955375Y-71401580D01*
X104865865Y-71401580D01*
X104778076Y-71419042D01*
X104695381Y-71453296D01*
X104620957Y-71503024D01*
X104557664Y-71566317D01*
X104507936Y-71640741D01*
X104473682Y-71723436D01*
X104456220Y-71811225D01*
X104100580Y-71811225D01*
X104100580Y-71786225D01*
X104083118Y-71698436D01*
X104048864Y-71615741D01*
X103999136Y-71541317D01*
X103935843Y-71478024D01*
X103861419Y-71428296D01*
X103778724Y-71394042D01*
X103690935Y-71376580D01*
X103601425Y-71376580D01*
X103513636Y-71394042D01*
X103430941Y-71428296D01*
X103356517Y-71478024D01*
X103293224Y-71541317D01*
X103243496Y-71615741D01*
X103209242Y-71698436D01*
X103191780Y-71786225D01*
X102753205Y-71786225D01*
X102753390Y-71081205D01*
X103901140Y-71081205D01*
X103901140Y-71170715D01*
X103918602Y-71258504D01*
X103952856Y-71341199D01*
X104002584Y-71415623D01*
X104065877Y-71478916D01*
X104140301Y-71528644D01*
X104222996Y-71562898D01*
X104310785Y-71580360D01*
X104400295Y-71580360D01*
X104488084Y-71562898D01*
X104570779Y-71528644D01*
X104645203Y-71478916D01*
X104708496Y-71415623D01*
X104758224Y-71341199D01*
X104792478Y-71258504D01*
X104809940Y-71170715D01*
X104809940Y-71111225D01*
X107639040Y-71111225D01*
X107639040Y-71200735D01*
X107656502Y-71288524D01*
X107690756Y-71371219D01*
X107740484Y-71445643D01*
X107803777Y-71508936D01*
X107878201Y-71558664D01*
X107960896Y-71592918D01*
X108048685Y-71610380D01*
X108138195Y-71610380D01*
X108225984Y-71592918D01*
X108308679Y-71558664D01*
X108383103Y-71508936D01*
X108446396Y-71445643D01*
X108496124Y-71371219D01*
X108530378Y-71288524D01*
X108547840Y-71200735D01*
X108547840Y-71111225D01*
X108530378Y-71023436D01*
X108496124Y-70940741D01*
X108446396Y-70866317D01*
X108383103Y-70803024D01*
X108308679Y-70753296D01*
X108225984Y-70719042D01*
X108138195Y-70701580D01*
X108048685Y-70701580D01*
X107960896Y-70719042D01*
X107878201Y-70753296D01*
X107803777Y-70803024D01*
X107740484Y-70866317D01*
X107690756Y-70940741D01*
X107656502Y-71023436D01*
X107639040Y-71111225D01*
X104809940Y-71111225D01*
X104809940Y-71081205D01*
X104792478Y-70993416D01*
X104758224Y-70910721D01*
X104708496Y-70836297D01*
X104645203Y-70773004D01*
X104570779Y-70723276D01*
X104488084Y-70689022D01*
X104400295Y-70671560D01*
X104310785Y-70671560D01*
X104222996Y-70689022D01*
X104140301Y-70723276D01*
X104065877Y-70773004D01*
X104002584Y-70836297D01*
X103952856Y-70910721D01*
X103918602Y-70993416D01*
X103901140Y-71081205D01*
X102753390Y-71081205D01*
X102753787Y-69569020D01*
X104749738Y-69569020D01*
X104695381Y-69591536D01*
X104695381Y-69591536D01*
G37*
X104695381Y-69591536D02*
X104620957Y-69641264D01*
X104557664Y-69704557D01*
X104507936Y-69778981D01*
X104473682Y-69861676D01*
X104456220Y-69949465D01*
X104456220Y-70038975D01*
X104473682Y-70126764D01*
X104507936Y-70209459D01*
X104557664Y-70283883D01*
X104620957Y-70347176D01*
X104695381Y-70396904D01*
X104778076Y-70431158D01*
X104865865Y-70448620D01*
X104955375Y-70448620D01*
X105043164Y-70431158D01*
X105125859Y-70396904D01*
X105200283Y-70347176D01*
X105263576Y-70283883D01*
X105313304Y-70209459D01*
X105347558Y-70126764D01*
X105365020Y-70038975D01*
X105365020Y-69949465D01*
X105347558Y-69861676D01*
X105313304Y-69778981D01*
X105263576Y-69704557D01*
X105200283Y-69641264D01*
X105125859Y-69591536D01*
X105071502Y-69569020D01*
X107165295Y-69569020D01*
X107158122Y-69586336D01*
X107140660Y-69674125D01*
X107140660Y-69684529D01*
X107072529Y-69698081D01*
X106994383Y-69730450D01*
X106924053Y-69777443D01*
X106864243Y-69837253D01*
X106817250Y-69907583D01*
X106784881Y-69985729D01*
X106768380Y-70068688D01*
X106768380Y-70153272D01*
X106784881Y-70236231D01*
X106817250Y-70314377D01*
X106864243Y-70384707D01*
X106924053Y-70444517D01*
X106994383Y-70491510D01*
X107072529Y-70523879D01*
X107155488Y-70540380D01*
X107240072Y-70540380D01*
X107323031Y-70523879D01*
X107401177Y-70491510D01*
X107471507Y-70444517D01*
X107531317Y-70384707D01*
X107578310Y-70314377D01*
X107610679Y-70236231D01*
X107623200Y-70173280D01*
X107639815Y-70173280D01*
X107727604Y-70155818D01*
X107810299Y-70121564D01*
X107884723Y-70071836D01*
X107948016Y-70008543D01*
X107997744Y-69934119D01*
X108031998Y-69851424D01*
X108049460Y-69763635D01*
X108049460Y-69674125D01*
X108031998Y-69586336D01*
X108024825Y-69569020D01*
X109763652Y-69569020D01*
X109701809Y-69581321D01*
X109623663Y-69613690D01*
X109553333Y-69660683D01*
X109493523Y-69720493D01*
X109446530Y-69790823D01*
X109414161Y-69868969D01*
X109397660Y-69951928D01*
X109397660Y-70036512D01*
X109414161Y-70119471D01*
X109446530Y-70197617D01*
X109493523Y-70267947D01*
X109553333Y-70327757D01*
X109623663Y-70374750D01*
X109701809Y-70407119D01*
X109784768Y-70423620D01*
X109869352Y-70423620D01*
X109952311Y-70407119D01*
X110030457Y-70374750D01*
X110100787Y-70327757D01*
X110160597Y-70267947D01*
X110207590Y-70197617D01*
X110239959Y-70119471D01*
X110256460Y-70036512D01*
X110256460Y-69951928D01*
X110239959Y-69868969D01*
X110207590Y-69790823D01*
X110160597Y-69720493D01*
X110100787Y-69660683D01*
X110030457Y-69613690D01*
X109952311Y-69581321D01*
X109890468Y-69569020D01*
X111016898Y-69569020D01*
X110962541Y-69591536D01*
X110888117Y-69641264D01*
X110824824Y-69704557D01*
X110775096Y-69778981D01*
X110740842Y-69861676D01*
X110723380Y-69949465D01*
X110723380Y-70038975D01*
X110740842Y-70126764D01*
X110775096Y-70209459D01*
X110824824Y-70283883D01*
X110888117Y-70347176D01*
X110962541Y-70396904D01*
X111045236Y-70431158D01*
X111133025Y-70448620D01*
X111222535Y-70448620D01*
X111310324Y-70431158D01*
X111393019Y-70396904D01*
X111443160Y-70363401D01*
X111443160Y-73357604D01*
X111415464Y-73290741D01*
X111365736Y-73216317D01*
X111302443Y-73153024D01*
X111228019Y-73103296D01*
X111145324Y-73069042D01*
X111057535Y-73051580D01*
X110968025Y-73051580D01*
X110880236Y-73069042D01*
X110797541Y-73103296D01*
X110723117Y-73153024D01*
X110659824Y-73216317D01*
X110610096Y-73290741D01*
X110575842Y-73373436D01*
X110558380Y-73461225D01*
X110558380Y-73550735D01*
X110575842Y-73638524D01*
X110610096Y-73721219D01*
X110659824Y-73795643D01*
X110723117Y-73858936D01*
X110797541Y-73908664D01*
X110880236Y-73942918D01*
X110968025Y-73960380D01*
X111057535Y-73960380D01*
X111145324Y-73942918D01*
X111228019Y-73908664D01*
X111302443Y-73858936D01*
X111365736Y-73795643D01*
X111415464Y-73721219D01*
X111443160Y-73654356D01*
X111443160Y-79005120D01*
X102751313Y-79005120D01*
X102751600Y-77908691D01*
X105368380Y-77908691D01*
X105368380Y-77998201D01*
X105385842Y-78085990D01*
X105420096Y-78168685D01*
X105469824Y-78243109D01*
X105533117Y-78306402D01*
X105607541Y-78356130D01*
X105690236Y-78390384D01*
X105778025Y-78407846D01*
X105867535Y-78407846D01*
X105955324Y-78390384D01*
X106038019Y-78356130D01*
X106112443Y-78306402D01*
X106175736Y-78243109D01*
X106225464Y-78168685D01*
X106259718Y-78085990D01*
X106277180Y-77998201D01*
X106277180Y-77908691D01*
X106259718Y-77820902D01*
X106225464Y-77738207D01*
X106175736Y-77663783D01*
X106112443Y-77600490D01*
X106038019Y-77550762D01*
X105955324Y-77516508D01*
X105867535Y-77499046D01*
X105778025Y-77499046D01*
X105690236Y-77516508D01*
X105607541Y-77550762D01*
X105533117Y-77600490D01*
X105469824Y-77663783D01*
X105420096Y-77738207D01*
X105385842Y-77820902D01*
X105368380Y-77908691D01*
X102751600Y-77908691D01*
X102751828Y-77036225D01*
X105768380Y-77036225D01*
X105768380Y-77125735D01*
X105785842Y-77213524D01*
X105820096Y-77296219D01*
X105869824Y-77370643D01*
X105933117Y-77433936D01*
X106007541Y-77483664D01*
X106090236Y-77517918D01*
X106178025Y-77535380D01*
X106267535Y-77535380D01*
X106355324Y-77517918D01*
X106438019Y-77483664D01*
X106494863Y-77445682D01*
X106515716Y-77466535D01*
X106590140Y-77516263D01*
X106672835Y-77550517D01*
X106760624Y-77567979D01*
X106850134Y-77567979D01*
X106937923Y-77550517D01*
X107020618Y-77516263D01*
X107095042Y-77466535D01*
X107158335Y-77403242D01*
X107166485Y-77391044D01*
X107225977Y-77450536D01*
X107300401Y-77500264D01*
X107383096Y-77534518D01*
X107470885Y-77551980D01*
X107560395Y-77551980D01*
X107648184Y-77534518D01*
X107730879Y-77500264D01*
X107790640Y-77460333D01*
X107850401Y-77500264D01*
X107933096Y-77534518D01*
X108020885Y-77551980D01*
X108110395Y-77551980D01*
X108198184Y-77534518D01*
X108280879Y-77500264D01*
X108355303Y-77450536D01*
X108418596Y-77387243D01*
X108468324Y-77312819D01*
X108468744Y-77311805D01*
X109248960Y-77311805D01*
X109248960Y-77401315D01*
X109266422Y-77489104D01*
X109300676Y-77571799D01*
X109350404Y-77646223D01*
X109413697Y-77709516D01*
X109488121Y-77759244D01*
X109570816Y-77793498D01*
X109658605Y-77810960D01*
X109748115Y-77810960D01*
X109835904Y-77793498D01*
X109918599Y-77759244D01*
X109993023Y-77709516D01*
X110056316Y-77646223D01*
X110106044Y-77571799D01*
X110140298Y-77489104D01*
X110157760Y-77401315D01*
X110157760Y-77311805D01*
X110140298Y-77224016D01*
X110106044Y-77141321D01*
X110056316Y-77066897D01*
X109993023Y-77003604D01*
X109918599Y-76953876D01*
X109835904Y-76919622D01*
X109748115Y-76902160D01*
X109658605Y-76902160D01*
X109570816Y-76919622D01*
X109488121Y-76953876D01*
X109413697Y-77003604D01*
X109350404Y-77066897D01*
X109300676Y-77141321D01*
X109266422Y-77224016D01*
X109248960Y-77311805D01*
X108468744Y-77311805D01*
X108502578Y-77230124D01*
X108520040Y-77142335D01*
X108520040Y-77052825D01*
X108502578Y-76965036D01*
X108468324Y-76882341D01*
X108418596Y-76807917D01*
X108355303Y-76744624D01*
X108280879Y-76694896D01*
X108198184Y-76660642D01*
X108110395Y-76643180D01*
X108020885Y-76643180D01*
X107933096Y-76660642D01*
X107850401Y-76694896D01*
X107790640Y-76734827D01*
X107730879Y-76694896D01*
X107648184Y-76660642D01*
X107560395Y-76643180D01*
X107470885Y-76643180D01*
X107383096Y-76660642D01*
X107300401Y-76694896D01*
X107225977Y-76744624D01*
X107162684Y-76807917D01*
X107154534Y-76820115D01*
X107095042Y-76760623D01*
X107020618Y-76710895D01*
X106937923Y-76676641D01*
X106850134Y-76659179D01*
X106760624Y-76659179D01*
X106672835Y-76676641D01*
X106590140Y-76710895D01*
X106533296Y-76748877D01*
X106512443Y-76728024D01*
X106438019Y-76678296D01*
X106355324Y-76644042D01*
X106267535Y-76626580D01*
X106178025Y-76626580D01*
X106090236Y-76644042D01*
X106007541Y-76678296D01*
X105933117Y-76728024D01*
X105869824Y-76791317D01*
X105820096Y-76865741D01*
X105785842Y-76948436D01*
X105768380Y-77036225D01*
X102751828Y-77036225D01*
X102752231Y-75503425D01*
X102817580Y-75503425D01*
X102817580Y-75592935D01*
X102835042Y-75680724D01*
X102869296Y-75763419D01*
X102919024Y-75837843D01*
X102982317Y-75901136D01*
X103056741Y-75950864D01*
X103139436Y-75985118D01*
X103227225Y-76002580D01*
X103316735Y-76002580D01*
X103404524Y-75985118D01*
X103487219Y-75950864D01*
X103561643Y-75901136D01*
X103624936Y-75837843D01*
X103674664Y-75763419D01*
X103708918Y-75680724D01*
X103726380Y-75592935D01*
X103726380Y-75503425D01*
X103720823Y-75475485D01*
X104557480Y-75475485D01*
X104557480Y-75564995D01*
X104574942Y-75652784D01*
X104609196Y-75735479D01*
X104658924Y-75809903D01*
X104722217Y-75873196D01*
X104796641Y-75922924D01*
X104879336Y-75957178D01*
X104967125Y-75974640D01*
X105056635Y-75974640D01*
X105144424Y-75957178D01*
X105227119Y-75922924D01*
X105301543Y-75873196D01*
X105364836Y-75809903D01*
X105414564Y-75735479D01*
X105448818Y-75652784D01*
X105466280Y-75564995D01*
X105466280Y-75475485D01*
X105448818Y-75387696D01*
X105442014Y-75371268D01*
X106731320Y-75371268D01*
X106731320Y-75455852D01*
X106747821Y-75538811D01*
X106780190Y-75616957D01*
X106827183Y-75687287D01*
X106886993Y-75747097D01*
X106957323Y-75794090D01*
X107035469Y-75826459D01*
X107118428Y-75842960D01*
X107203012Y-75842960D01*
X107285971Y-75826459D01*
X107364117Y-75794090D01*
X107434447Y-75747097D01*
X107494257Y-75687287D01*
X107541250Y-75616957D01*
X107573619Y-75538811D01*
X107589051Y-75461225D01*
X108878380Y-75461225D01*
X108878380Y-75550735D01*
X108895842Y-75638524D01*
X108930096Y-75721219D01*
X108979824Y-75795643D01*
X109043117Y-75858936D01*
X109117541Y-75908664D01*
X109200236Y-75942918D01*
X109288025Y-75960380D01*
X109377535Y-75960380D01*
X109465324Y-75942918D01*
X109548019Y-75908664D01*
X109622443Y-75858936D01*
X109685736Y-75795643D01*
X109735464Y-75721219D01*
X109769718Y-75638524D01*
X109787180Y-75550735D01*
X109787180Y-75461225D01*
X109769718Y-75373436D01*
X109735464Y-75290741D01*
X109685736Y-75216317D01*
X109622443Y-75153024D01*
X109548019Y-75103296D01*
X109465324Y-75069042D01*
X109377535Y-75051580D01*
X109288025Y-75051580D01*
X109200236Y-75069042D01*
X109117541Y-75103296D01*
X109043117Y-75153024D01*
X108979824Y-75216317D01*
X108930096Y-75290741D01*
X108895842Y-75373436D01*
X108878380Y-75461225D01*
X107589051Y-75461225D01*
X107590120Y-75455852D01*
X107590120Y-75371268D01*
X107573619Y-75288309D01*
X107541250Y-75210163D01*
X107494257Y-75139833D01*
X107434447Y-75080023D01*
X107364117Y-75033030D01*
X107285971Y-75000661D01*
X107203012Y-74984160D01*
X107118428Y-74984160D01*
X107035469Y-75000661D01*
X106957323Y-75033030D01*
X106886993Y-75080023D01*
X106827183Y-75139833D01*
X106780190Y-75210163D01*
X106747821Y-75288309D01*
X106731320Y-75371268D01*
X105442014Y-75371268D01*
X105414564Y-75305001D01*
X105364836Y-75230577D01*
X105301543Y-75167284D01*
X105227119Y-75117556D01*
X105144424Y-75083302D01*
X105056635Y-75065840D01*
X104967125Y-75065840D01*
X104879336Y-75083302D01*
X104796641Y-75117556D01*
X104722217Y-75167284D01*
X104658924Y-75230577D01*
X104609196Y-75305001D01*
X104574942Y-75387696D01*
X104557480Y-75475485D01*
X103720823Y-75475485D01*
X103708918Y-75415636D01*
X103674664Y-75332941D01*
X103624936Y-75258517D01*
X103561643Y-75195224D01*
X103487219Y-75145496D01*
X103404524Y-75111242D01*
X103316735Y-75093780D01*
X103227225Y-75093780D01*
X103139436Y-75111242D01*
X103056741Y-75145496D01*
X102982317Y-75195224D01*
X102919024Y-75258517D01*
X102869296Y-75332941D01*
X102835042Y-75415636D01*
X102817580Y-75503425D01*
X102752231Y-75503425D01*
X102752628Y-73986225D01*
X104583380Y-73986225D01*
X104583380Y-74075735D01*
X104600842Y-74163524D01*
X104635096Y-74246219D01*
X104684824Y-74320643D01*
X104748117Y-74383936D01*
X104822541Y-74433664D01*
X104905236Y-74467918D01*
X104993025Y-74485380D01*
X105082535Y-74485380D01*
X105170324Y-74467918D01*
X105253019Y-74433664D01*
X105327443Y-74383936D01*
X105390736Y-74320643D01*
X105440464Y-74246219D01*
X105474718Y-74163524D01*
X105492180Y-74075735D01*
X105492180Y-73986225D01*
X105487208Y-73961225D01*
X108878380Y-73961225D01*
X108878380Y-74050735D01*
X108895842Y-74138524D01*
X108930096Y-74221219D01*
X108979824Y-74295643D01*
X109043117Y-74358936D01*
X109117541Y-74408664D01*
X109200236Y-74442918D01*
X109288025Y-74460380D01*
X109377535Y-74460380D01*
X109465324Y-74442918D01*
X109548019Y-74408664D01*
X109622443Y-74358936D01*
X109685736Y-74295643D01*
X109735464Y-74221219D01*
X109769718Y-74138524D01*
X109787180Y-74050735D01*
X109787180Y-73961225D01*
X109769718Y-73873436D01*
X109735464Y-73790741D01*
X109685736Y-73716317D01*
X109622443Y-73653024D01*
X109548019Y-73603296D01*
X109465324Y-73569042D01*
X109377535Y-73551580D01*
X109288025Y-73551580D01*
X109200236Y-73569042D01*
X109117541Y-73603296D01*
X109043117Y-73653024D01*
X108979824Y-73716317D01*
X108930096Y-73790741D01*
X108895842Y-73873436D01*
X108878380Y-73961225D01*
X105487208Y-73961225D01*
X105474718Y-73898436D01*
X105440464Y-73815741D01*
X105390736Y-73741317D01*
X105327443Y-73678024D01*
X105253019Y-73628296D01*
X105170324Y-73594042D01*
X105082535Y-73576580D01*
X104993025Y-73576580D01*
X104905236Y-73594042D01*
X104822541Y-73628296D01*
X104748117Y-73678024D01*
X104684824Y-73741317D01*
X104635096Y-73815741D01*
X104600842Y-73898436D01*
X104583380Y-73986225D01*
X102752628Y-73986225D01*
X102752840Y-73176768D01*
X106782180Y-73176768D01*
X106782180Y-73261352D01*
X106798681Y-73344311D01*
X106831050Y-73422457D01*
X106878043Y-73492787D01*
X106937853Y-73552597D01*
X107008183Y-73599590D01*
X107086329Y-73631959D01*
X107169288Y-73648460D01*
X107253872Y-73648460D01*
X107336831Y-73631959D01*
X107414977Y-73599590D01*
X107485307Y-73552597D01*
X107545117Y-73492787D01*
X107592110Y-73422457D01*
X107624479Y-73344311D01*
X107640980Y-73261352D01*
X107640980Y-73176768D01*
X107624479Y-73093809D01*
X107592110Y-73015663D01*
X107545117Y-72945333D01*
X107485307Y-72885523D01*
X107414977Y-72838530D01*
X107336831Y-72806161D01*
X107253872Y-72789660D01*
X107169288Y-72789660D01*
X107086329Y-72806161D01*
X107008183Y-72838530D01*
X106937853Y-72885523D01*
X106878043Y-72945333D01*
X106831050Y-73015663D01*
X106798681Y-73093809D01*
X106782180Y-73176768D01*
X102752840Y-73176768D01*
X102753205Y-71786225D01*
X103191780Y-71786225D01*
X103191780Y-71875735D01*
X103209242Y-71963524D01*
X103243496Y-72046219D01*
X103293224Y-72120643D01*
X103356517Y-72183936D01*
X103430941Y-72233664D01*
X103513636Y-72267918D01*
X103601425Y-72285380D01*
X103690935Y-72285380D01*
X103778724Y-72267918D01*
X103861419Y-72233664D01*
X103935843Y-72183936D01*
X103999136Y-72120643D01*
X104048864Y-72046219D01*
X104083118Y-71963524D01*
X104100580Y-71875735D01*
X104100580Y-71811225D01*
X104456220Y-71811225D01*
X104456220Y-71900735D01*
X104473682Y-71988524D01*
X104507936Y-72071219D01*
X104557664Y-72145643D01*
X104620957Y-72208936D01*
X104695381Y-72258664D01*
X104778076Y-72292918D01*
X104865865Y-72310380D01*
X104955375Y-72310380D01*
X105043164Y-72292918D01*
X105125859Y-72258664D01*
X105200283Y-72208936D01*
X105263576Y-72145643D01*
X105313304Y-72071219D01*
X105347558Y-71988524D01*
X105365020Y-71900735D01*
X105365020Y-71811225D01*
X105347558Y-71723436D01*
X105313304Y-71640741D01*
X105263576Y-71566317D01*
X105200283Y-71503024D01*
X105125859Y-71453296D01*
X105043164Y-71419042D01*
X104955375Y-71401580D01*
X104865865Y-71401580D01*
X104778076Y-71419042D01*
X104695381Y-71453296D01*
X104620957Y-71503024D01*
X104557664Y-71566317D01*
X104507936Y-71640741D01*
X104473682Y-71723436D01*
X104456220Y-71811225D01*
X104100580Y-71811225D01*
X104100580Y-71786225D01*
X104083118Y-71698436D01*
X104048864Y-71615741D01*
X103999136Y-71541317D01*
X103935843Y-71478024D01*
X103861419Y-71428296D01*
X103778724Y-71394042D01*
X103690935Y-71376580D01*
X103601425Y-71376580D01*
X103513636Y-71394042D01*
X103430941Y-71428296D01*
X103356517Y-71478024D01*
X103293224Y-71541317D01*
X103243496Y-71615741D01*
X103209242Y-71698436D01*
X103191780Y-71786225D01*
X102753205Y-71786225D01*
X102753390Y-71081205D01*
X103901140Y-71081205D01*
X103901140Y-71170715D01*
X103918602Y-71258504D01*
X103952856Y-71341199D01*
X104002584Y-71415623D01*
X104065877Y-71478916D01*
X104140301Y-71528644D01*
X104222996Y-71562898D01*
X104310785Y-71580360D01*
X104400295Y-71580360D01*
X104488084Y-71562898D01*
X104570779Y-71528644D01*
X104645203Y-71478916D01*
X104708496Y-71415623D01*
X104758224Y-71341199D01*
X104792478Y-71258504D01*
X104809940Y-71170715D01*
X104809940Y-71111225D01*
X107639040Y-71111225D01*
X107639040Y-71200735D01*
X107656502Y-71288524D01*
X107690756Y-71371219D01*
X107740484Y-71445643D01*
X107803777Y-71508936D01*
X107878201Y-71558664D01*
X107960896Y-71592918D01*
X108048685Y-71610380D01*
X108138195Y-71610380D01*
X108225984Y-71592918D01*
X108308679Y-71558664D01*
X108383103Y-71508936D01*
X108446396Y-71445643D01*
X108496124Y-71371219D01*
X108530378Y-71288524D01*
X108547840Y-71200735D01*
X108547840Y-71111225D01*
X108530378Y-71023436D01*
X108496124Y-70940741D01*
X108446396Y-70866317D01*
X108383103Y-70803024D01*
X108308679Y-70753296D01*
X108225984Y-70719042D01*
X108138195Y-70701580D01*
X108048685Y-70701580D01*
X107960896Y-70719042D01*
X107878201Y-70753296D01*
X107803777Y-70803024D01*
X107740484Y-70866317D01*
X107690756Y-70940741D01*
X107656502Y-71023436D01*
X107639040Y-71111225D01*
X104809940Y-71111225D01*
X104809940Y-71081205D01*
X104792478Y-70993416D01*
X104758224Y-70910721D01*
X104708496Y-70836297D01*
X104645203Y-70773004D01*
X104570779Y-70723276D01*
X104488084Y-70689022D01*
X104400295Y-70671560D01*
X104310785Y-70671560D01*
X104222996Y-70689022D01*
X104140301Y-70723276D01*
X104065877Y-70773004D01*
X104002584Y-70836297D01*
X103952856Y-70910721D01*
X103918602Y-70993416D01*
X103901140Y-71081205D01*
X102753390Y-71081205D01*
X102753787Y-69569020D01*
X104749738Y-69569020D01*
X104695381Y-69591536D01*
M02*
