G04 #@! TF.GenerationSoftware,KiCad,Pcbnew,(5.1.4)-1*
G04 #@! TF.CreationDate,2020-08-13T23:55:03-07:00*
G04 #@! TF.ProjectId,Kicad_LFOV_RigidFlex_Assembly,4b696361-645f-44c4-964f-565f52696769,rev?*
G04 #@! TF.SameCoordinates,Original*
G04 #@! TF.FileFunction,Copper,L5,Inr*
G04 #@! TF.FilePolarity,Positive*
%FSLAX46Y46*%
G04 Gerber Fmt 4.6, Leading zero omitted, Abs format (unit mm)*
G04 Created by KiCad (PCBNEW (5.1.4)-1) date 2020-08-13 23:55:03*
%MOMM*%
%LPD*%
G04 APERTURE LIST*
%ADD10C,0.350000*%
%ADD11C,0.300000*%
%ADD12C,0.450000*%
%ADD13C,0.152400*%
%ADD14C,0.203200*%
%ADD15C,0.254000*%
G04 APERTURE END LIST*
D10*
X103973020Y-87867180D03*
D11*
X105753560Y-114910560D03*
X109113980Y-115428720D03*
X126876200Y-91532400D03*
D12*
X100897080Y-89259100D03*
D11*
X100541480Y-92357900D03*
D12*
X102545580Y-118999600D03*
X129147620Y-85086840D03*
X129147620Y-85965680D03*
X129147620Y-86844520D03*
D11*
X127943660Y-87824960D03*
D12*
X110172780Y-75255980D03*
X110172780Y-73755980D03*
X104197780Y-73780980D03*
X104197780Y-75280980D03*
D11*
X107221680Y-73960680D03*
D10*
X105378910Y-87314730D03*
X111962980Y-109913598D03*
D12*
X129394000Y-88547040D03*
X112835080Y-91697502D03*
D11*
X126881280Y-90028720D03*
D12*
X108821880Y-90032100D03*
X107602680Y-88878100D03*
D11*
X108463780Y-111621400D03*
X106881320Y-91081359D03*
X103139900Y-92431560D03*
X106406380Y-118046600D03*
X110876780Y-114999600D03*
X111703980Y-117526400D03*
X109403580Y-112458600D03*
X107532920Y-113365060D03*
X109592460Y-118973600D03*
X110793780Y-112407800D03*
D10*
X108538960Y-109803600D03*
X103091100Y-71125960D03*
X110617780Y-77380980D03*
D12*
X107169570Y-70955980D03*
D10*
X107997780Y-71800980D03*
X103091100Y-69999300D03*
X109850580Y-86297460D03*
X111012780Y-74505980D03*
X111012780Y-75005980D03*
D11*
X129544000Y-92926280D03*
X126995130Y-93462350D03*
D10*
X102449020Y-108900920D03*
D11*
X109827060Y-71820820D03*
D12*
X100719280Y-90376700D03*
D11*
X109131980Y-114468200D03*
X109431480Y-110686200D03*
X111298380Y-92456960D03*
X110859320Y-116739000D03*
X104052980Y-118127520D03*
D10*
X103271980Y-75548180D03*
D12*
X125611940Y-85086840D03*
X125611940Y-86844520D03*
X125611940Y-85965680D03*
D11*
X126246940Y-87824960D03*
D10*
X103762200Y-86769900D03*
D11*
X112581080Y-86322860D03*
X125171098Y-91350480D03*
D10*
X104910620Y-69994220D03*
D11*
X100541480Y-93369500D03*
X111967080Y-89589300D03*
D10*
X111012780Y-73505980D03*
X106222780Y-77080980D03*
X108065640Y-77097580D03*
X111177780Y-69994220D03*
X129719000Y-90847560D03*
D11*
X125585491Y-93996491D03*
X109827060Y-69994220D03*
X107160720Y-75413560D03*
X105824429Y-86238789D03*
D10*
X105822780Y-77953446D03*
D11*
X105364940Y-86241580D03*
D10*
X105037780Y-74030980D03*
X104910620Y-71855980D03*
X108093440Y-71155980D03*
D11*
X127890798Y-91524882D03*
X127882700Y-92032980D03*
D10*
X111425380Y-87305840D03*
X108844700Y-86315667D03*
D11*
X101735280Y-93018300D03*
X107523980Y-112484000D03*
X103396440Y-112756640D03*
X110885220Y-114109600D03*
X107704280Y-92002300D03*
D10*
X102649680Y-86642900D03*
X110750420Y-87292460D03*
X109335167Y-86315667D03*
X106942280Y-86315667D03*
X104807410Y-92436202D03*
X104807410Y-92436202D03*
X104807410Y-92436202D03*
X104807410Y-92436202D03*
D12*
X112835080Y-92662701D03*
D11*
X110173900Y-90265640D03*
D10*
X104897580Y-115459200D03*
D11*
X110173900Y-90765640D03*
D10*
X110687060Y-110693607D03*
D11*
X110173900Y-91265640D03*
D10*
X110282380Y-111243400D03*
X110904680Y-89182900D03*
D11*
X125083732Y-93998748D03*
D10*
X124587498Y-88593870D03*
D11*
X110281180Y-109803600D03*
D10*
X107515640Y-77097580D03*
X107595060Y-69718880D03*
X107810295Y-86307867D03*
D11*
X111407600Y-89591840D03*
X127389280Y-92037860D03*
X110174620Y-89765640D03*
X107197780Y-70110980D03*
D10*
X106805379Y-77113579D03*
X110500820Y-108885680D03*
X111427920Y-87862780D03*
D11*
X103332980Y-115443600D03*
D10*
X104807410Y-88776500D03*
X104807410Y-89361970D03*
X103644976Y-114738600D03*
D11*
X105817060Y-89767100D03*
X103637780Y-113970400D03*
X105806900Y-90262400D03*
D10*
X104275280Y-115035020D03*
D11*
X105814520Y-90762780D03*
D10*
X105705300Y-113970760D03*
D11*
X104944709Y-91286020D03*
D10*
X106088840Y-113577060D03*
D11*
X106294580Y-92477280D03*
D10*
X107564580Y-108875520D03*
X107048960Y-92472200D03*
X107048960Y-108882678D03*
X106609540Y-113150340D03*
X107798260Y-92500140D03*
X106091380Y-112721080D03*
X108611981Y-92452801D03*
X111689540Y-86325400D03*
D11*
X106083080Y-92002300D03*
X106931980Y-116368200D03*
X110851380Y-115826800D03*
X107494320Y-110731400D03*
X102520180Y-112609280D03*
X105761040Y-115787000D03*
X110839180Y-113335400D03*
X107516180Y-118936600D03*
D10*
X106781180Y-109803600D03*
D11*
X111308540Y-91852440D03*
D10*
X108332297Y-86315667D03*
X104242510Y-86769900D03*
X105011880Y-75520240D03*
X103646180Y-71830980D03*
X109332780Y-74005980D03*
X109703360Y-77356560D03*
D11*
X107211580Y-73219060D03*
D10*
X104355540Y-71125960D03*
X109332780Y-75505980D03*
D13*
X108923480Y-111194200D02*
X109431480Y-110686200D01*
X108923480Y-114044420D02*
X108923480Y-111194200D01*
X109131980Y-114252920D02*
X108923480Y-114044420D01*
X109131980Y-114468200D02*
X109131980Y-114252920D01*
X109681500Y-90265640D02*
X110173900Y-90265640D01*
X109512239Y-90434901D02*
X109681500Y-90265640D01*
X107042632Y-90434901D02*
X109512239Y-90434901D01*
X105041331Y-92436202D02*
X107042632Y-90434901D01*
X104807410Y-92436202D02*
X105041331Y-92436202D01*
X105966779Y-92634625D02*
X106207212Y-92875058D01*
X105966779Y-92319935D02*
X105966779Y-92634625D01*
X106083080Y-92203634D02*
X105966779Y-92319935D01*
X106083080Y-92002300D02*
X106083080Y-92203634D01*
D14*
X111158541Y-92002439D02*
X111308540Y-91852440D01*
X110282639Y-92878341D02*
X111158541Y-92002439D01*
X107512985Y-92878341D02*
X110282639Y-92878341D01*
X107509702Y-92875058D02*
X107512985Y-92878341D01*
X106207212Y-92875058D02*
X107509702Y-92875058D01*
X111458539Y-91702441D02*
X111308540Y-91852440D01*
X112320281Y-90840699D02*
X111458539Y-91702441D01*
X112320281Y-87334601D02*
X112320281Y-90840699D01*
X111689540Y-86325400D02*
X111689540Y-86703860D01*
X111689540Y-86703860D02*
X112320281Y-87334601D01*
D15*
G36*
X128761318Y-84616129D02*
G01*
X128676909Y-84700538D01*
X128610590Y-84799791D01*
X128564908Y-84910076D01*
X128541620Y-85027154D01*
X128541620Y-85146526D01*
X128564908Y-85263604D01*
X128610590Y-85373889D01*
X128676909Y-85473142D01*
X128730027Y-85526260D01*
X128676909Y-85579378D01*
X128610590Y-85678631D01*
X128564908Y-85788916D01*
X128541620Y-85905994D01*
X128541620Y-86025366D01*
X128564908Y-86142444D01*
X128610590Y-86252729D01*
X128676909Y-86351982D01*
X128730027Y-86405100D01*
X128676909Y-86458218D01*
X128610590Y-86557471D01*
X128564908Y-86667756D01*
X128541620Y-86784834D01*
X128541620Y-86904206D01*
X128564908Y-87021284D01*
X128610590Y-87131569D01*
X128676909Y-87230822D01*
X128761318Y-87315231D01*
X128860571Y-87381550D01*
X128970856Y-87427232D01*
X129087934Y-87450520D01*
X129207306Y-87450520D01*
X129324384Y-87427232D01*
X129434669Y-87381550D01*
X129533922Y-87315231D01*
X129618331Y-87230822D01*
X129684650Y-87131569D01*
X129730332Y-87021284D01*
X129753620Y-86904206D01*
X129753620Y-86784834D01*
X129730332Y-86667756D01*
X129684650Y-86557471D01*
X129618331Y-86458218D01*
X129565213Y-86405100D01*
X129618331Y-86351982D01*
X129684650Y-86252729D01*
X129730332Y-86142444D01*
X129753620Y-86025366D01*
X129753620Y-85905994D01*
X129730332Y-85788916D01*
X129684650Y-85678631D01*
X129618331Y-85579378D01*
X129565213Y-85526260D01*
X129618331Y-85473142D01*
X129684650Y-85373889D01*
X129730332Y-85263604D01*
X129753620Y-85146526D01*
X129753620Y-85027154D01*
X129730332Y-84910076D01*
X129684650Y-84799791D01*
X129618331Y-84700538D01*
X129533922Y-84616129D01*
X129447704Y-84558520D01*
X129543369Y-84558520D01*
X129562171Y-84566811D01*
X129567901Y-84568650D01*
X129824061Y-84648909D01*
X129824070Y-87510840D01*
X129825899Y-87529414D01*
X129825869Y-87533770D01*
X129826456Y-87539760D01*
X129856017Y-87821007D01*
X129863872Y-87859274D01*
X129871192Y-87897643D01*
X129872931Y-87903404D01*
X129956556Y-88173553D01*
X129971691Y-88209558D01*
X129986327Y-88245783D01*
X129989150Y-88251092D01*
X129989152Y-88251097D01*
X129989155Y-88251101D01*
X130123656Y-88499858D01*
X130145512Y-88532260D01*
X130157984Y-88551320D01*
X130155561Y-92088528D01*
X130146624Y-92101979D01*
X130124550Y-92134217D01*
X130121688Y-92139510D01*
X129988923Y-92389204D01*
X129974033Y-92425330D01*
X129958648Y-92461225D01*
X129956868Y-92466974D01*
X129928755Y-92560088D01*
X129882493Y-92513826D01*
X129795523Y-92455714D01*
X129698887Y-92415686D01*
X129596299Y-92395280D01*
X129491701Y-92395280D01*
X129389113Y-92415686D01*
X129292477Y-92455714D01*
X129205507Y-92513826D01*
X129131546Y-92587787D01*
X129073434Y-92674757D01*
X129033406Y-92771393D01*
X129013000Y-92873981D01*
X129013000Y-92978579D01*
X129033406Y-93081167D01*
X129073434Y-93177803D01*
X129131546Y-93264773D01*
X129205507Y-93338734D01*
X129292477Y-93396846D01*
X129389113Y-93436874D01*
X129491701Y-93457280D01*
X129596299Y-93457280D01*
X129698887Y-93436874D01*
X129795523Y-93396846D01*
X129829140Y-93374384D01*
X129829141Y-94760591D01*
X129807993Y-94764932D01*
X129769699Y-94772237D01*
X129763944Y-94773974D01*
X129421916Y-94879849D01*
X129385903Y-94894987D01*
X129349764Y-94909588D01*
X129344465Y-94912405D01*
X129344456Y-94912409D01*
X129344449Y-94912414D01*
X129133703Y-95026364D01*
X125677981Y-95020232D01*
X125469392Y-94909323D01*
X125433273Y-94894436D01*
X125397450Y-94879082D01*
X125391708Y-94877304D01*
X125044802Y-94772566D01*
X125006493Y-94764981D01*
X124990720Y-94761628D01*
X124990719Y-94521650D01*
X125031433Y-94529748D01*
X125136031Y-94529748D01*
X125238619Y-94509342D01*
X125335255Y-94469314D01*
X125422225Y-94411202D01*
X125496186Y-94337241D01*
X125554298Y-94250271D01*
X125594326Y-94153635D01*
X125614732Y-94051047D01*
X125614732Y-93946449D01*
X125594326Y-93843861D01*
X125554298Y-93747225D01*
X125496186Y-93660255D01*
X125422225Y-93586294D01*
X125335255Y-93528182D01*
X125238619Y-93488154D01*
X125136031Y-93467748D01*
X125031433Y-93467748D01*
X124990719Y-93475847D01*
X124990719Y-93410051D01*
X126464130Y-93410051D01*
X126464130Y-93514649D01*
X126484536Y-93617237D01*
X126524564Y-93713873D01*
X126582676Y-93800843D01*
X126656637Y-93874804D01*
X126743607Y-93932916D01*
X126840243Y-93972944D01*
X126942831Y-93993350D01*
X127047429Y-93993350D01*
X127150017Y-93972944D01*
X127246653Y-93932916D01*
X127333623Y-93874804D01*
X127407584Y-93800843D01*
X127465696Y-93713873D01*
X127505724Y-93617237D01*
X127526130Y-93514649D01*
X127526130Y-93410051D01*
X127505724Y-93307463D01*
X127465696Y-93210827D01*
X127407584Y-93123857D01*
X127333623Y-93049896D01*
X127246653Y-92991784D01*
X127150017Y-92951756D01*
X127047429Y-92931350D01*
X126942831Y-92931350D01*
X126840243Y-92951756D01*
X126743607Y-92991784D01*
X126656637Y-93049896D01*
X126582676Y-93123857D01*
X126524564Y-93210827D01*
X126484536Y-93307463D01*
X126464130Y-93410051D01*
X124990719Y-93410051D01*
X124990718Y-92857433D01*
X124988474Y-92834647D01*
X124988484Y-92833326D01*
X124987902Y-92827343D01*
X124985251Y-92801929D01*
X124984481Y-92794110D01*
X124984412Y-92793882D01*
X124962407Y-92582921D01*
X124954587Y-92544671D01*
X124947309Y-92506355D01*
X124945579Y-92500609D01*
X124945577Y-92500599D01*
X124945573Y-92500590D01*
X124873091Y-92265783D01*
X124858003Y-92229810D01*
X124843409Y-92193607D01*
X124840591Y-92188297D01*
X124723877Y-91972033D01*
X124702060Y-91939633D01*
X124680742Y-91906999D01*
X124676950Y-91902342D01*
X124676946Y-91902336D01*
X124676941Y-91902331D01*
X124520449Y-91712861D01*
X124492772Y-91685333D01*
X124465503Y-91657443D01*
X124460880Y-91653613D01*
X124460874Y-91653607D01*
X124460867Y-91653603D01*
X124270554Y-91498137D01*
X124243456Y-91480101D01*
X126345200Y-91480101D01*
X126345200Y-91584699D01*
X126365606Y-91687287D01*
X126405634Y-91783923D01*
X126463746Y-91870893D01*
X126537707Y-91944854D01*
X126624677Y-92002966D01*
X126721313Y-92042994D01*
X126823901Y-92063400D01*
X126858280Y-92063400D01*
X126858280Y-92090159D01*
X126878686Y-92192747D01*
X126918714Y-92289383D01*
X126976826Y-92376353D01*
X127050787Y-92450314D01*
X127137757Y-92508426D01*
X127234393Y-92548454D01*
X127336981Y-92568860D01*
X127441579Y-92568860D01*
X127544167Y-92548454D01*
X127640803Y-92508426D01*
X127641628Y-92507875D01*
X127727813Y-92543574D01*
X127830401Y-92563980D01*
X127934999Y-92563980D01*
X128037587Y-92543574D01*
X128134223Y-92503546D01*
X128221193Y-92445434D01*
X128295154Y-92371473D01*
X128353266Y-92284503D01*
X128393294Y-92187867D01*
X128413700Y-92085279D01*
X128413700Y-91980681D01*
X128393294Y-91878093D01*
X128355073Y-91785820D01*
X128361364Y-91776405D01*
X128401392Y-91679769D01*
X128421798Y-91577181D01*
X128421798Y-91472583D01*
X128401392Y-91369995D01*
X128361364Y-91273359D01*
X128303252Y-91186389D01*
X128229291Y-91112428D01*
X128142321Y-91054316D01*
X128045685Y-91014288D01*
X127943097Y-90993882D01*
X127838499Y-90993882D01*
X127735911Y-91014288D01*
X127639275Y-91054316D01*
X127552305Y-91112428D01*
X127478344Y-91186389D01*
X127420232Y-91273359D01*
X127381942Y-91365799D01*
X127346766Y-91280877D01*
X127288654Y-91193907D01*
X127214693Y-91119946D01*
X127127723Y-91061834D01*
X127031087Y-91021806D01*
X126928499Y-91001400D01*
X126823901Y-91001400D01*
X126721313Y-91021806D01*
X126624677Y-91061834D01*
X126537707Y-91119946D01*
X126463746Y-91193907D01*
X126405634Y-91280877D01*
X126365606Y-91377513D01*
X126345200Y-91480101D01*
X124243456Y-91480101D01*
X124238048Y-91476502D01*
X124205889Y-91454446D01*
X124200609Y-91451585D01*
X124200605Y-91451582D01*
X124200601Y-91451580D01*
X124082542Y-91388688D01*
X123961321Y-91099319D01*
X123965267Y-89976421D01*
X126350280Y-89976421D01*
X126350280Y-90081019D01*
X126370686Y-90183607D01*
X126410714Y-90280243D01*
X126468826Y-90367213D01*
X126542787Y-90441174D01*
X126629757Y-90499286D01*
X126726393Y-90539314D01*
X126828981Y-90559720D01*
X126933579Y-90559720D01*
X127036167Y-90539314D01*
X127132803Y-90499286D01*
X127219773Y-90441174D01*
X127293734Y-90367213D01*
X127351846Y-90280243D01*
X127391874Y-90183607D01*
X127412280Y-90081019D01*
X127412280Y-89976421D01*
X127391874Y-89873833D01*
X127351846Y-89777197D01*
X127293734Y-89690227D01*
X127219773Y-89616266D01*
X127132803Y-89558154D01*
X127036167Y-89518126D01*
X126933579Y-89497720D01*
X126828981Y-89497720D01*
X126726393Y-89518126D01*
X126629757Y-89558154D01*
X126542787Y-89616266D01*
X126468826Y-89690227D01*
X126410714Y-89777197D01*
X126370686Y-89873833D01*
X126350280Y-89976421D01*
X123965267Y-89976421D01*
X123969384Y-88805384D01*
X124036028Y-88671404D01*
X124052865Y-88756049D01*
X124094777Y-88857235D01*
X124155625Y-88948299D01*
X124233069Y-89025743D01*
X124324133Y-89086591D01*
X124425319Y-89128503D01*
X124532737Y-89149870D01*
X124642259Y-89149870D01*
X124749677Y-89128503D01*
X124850863Y-89086591D01*
X124941927Y-89025743D01*
X125019371Y-88948299D01*
X125080219Y-88857235D01*
X125122131Y-88756049D01*
X125143498Y-88648631D01*
X125143498Y-88539109D01*
X125133204Y-88487354D01*
X128788000Y-88487354D01*
X128788000Y-88606726D01*
X128811288Y-88723804D01*
X128856970Y-88834089D01*
X128923289Y-88933342D01*
X129007698Y-89017751D01*
X129106951Y-89084070D01*
X129217236Y-89129752D01*
X129334314Y-89153040D01*
X129453686Y-89153040D01*
X129570764Y-89129752D01*
X129681049Y-89084070D01*
X129780302Y-89017751D01*
X129864711Y-88933342D01*
X129931030Y-88834089D01*
X129976712Y-88723804D01*
X130000000Y-88606726D01*
X130000000Y-88487354D01*
X129976712Y-88370276D01*
X129931030Y-88259991D01*
X129864711Y-88160738D01*
X129780302Y-88076329D01*
X129681049Y-88010010D01*
X129570764Y-87964328D01*
X129453686Y-87941040D01*
X129334314Y-87941040D01*
X129217236Y-87964328D01*
X129106951Y-88010010D01*
X129007698Y-88076329D01*
X128923289Y-88160738D01*
X128856970Y-88259991D01*
X128811288Y-88370276D01*
X128788000Y-88487354D01*
X125133204Y-88487354D01*
X125122131Y-88431691D01*
X125080219Y-88330505D01*
X125019371Y-88239441D01*
X124941927Y-88161997D01*
X124850863Y-88101149D01*
X124749677Y-88059237D01*
X124680278Y-88045432D01*
X124683524Y-88041452D01*
X124705110Y-88008963D01*
X124727163Y-87976755D01*
X124730022Y-87971467D01*
X124835729Y-87772661D01*
X127412660Y-87772661D01*
X127412660Y-87877259D01*
X127433066Y-87979847D01*
X127473094Y-88076483D01*
X127531206Y-88163453D01*
X127605167Y-88237414D01*
X127692137Y-88295526D01*
X127788773Y-88335554D01*
X127891361Y-88355960D01*
X127995959Y-88355960D01*
X128098547Y-88335554D01*
X128195183Y-88295526D01*
X128282153Y-88237414D01*
X128356114Y-88163453D01*
X128414226Y-88076483D01*
X128454254Y-87979847D01*
X128474660Y-87877259D01*
X128474660Y-87772661D01*
X128454254Y-87670073D01*
X128414226Y-87573437D01*
X128356114Y-87486467D01*
X128282153Y-87412506D01*
X128195183Y-87354394D01*
X128098547Y-87314366D01*
X127995959Y-87293960D01*
X127891361Y-87293960D01*
X127788773Y-87314366D01*
X127692137Y-87354394D01*
X127605167Y-87412506D01*
X127531206Y-87486467D01*
X127473094Y-87573437D01*
X127433066Y-87670073D01*
X127412660Y-87772661D01*
X124835729Y-87772661D01*
X124845455Y-87754370D01*
X124860324Y-87718295D01*
X124875697Y-87682428D01*
X124877475Y-87676685D01*
X124948541Y-87441302D01*
X124956120Y-87403030D01*
X124964234Y-87364854D01*
X124964861Y-87358889D01*
X124964863Y-87358877D01*
X124964863Y-87358866D01*
X124984474Y-87158858D01*
X124985143Y-87156651D01*
X124991380Y-87093328D01*
X124991380Y-84646505D01*
X124996798Y-84644860D01*
X124996804Y-84644858D01*
X125270844Y-84559504D01*
X125273173Y-84558520D01*
X128847536Y-84558520D01*
X128761318Y-84616129D01*
X128761318Y-84616129D01*
G37*
X128761318Y-84616129D02*
X128676909Y-84700538D01*
X128610590Y-84799791D01*
X128564908Y-84910076D01*
X128541620Y-85027154D01*
X128541620Y-85146526D01*
X128564908Y-85263604D01*
X128610590Y-85373889D01*
X128676909Y-85473142D01*
X128730027Y-85526260D01*
X128676909Y-85579378D01*
X128610590Y-85678631D01*
X128564908Y-85788916D01*
X128541620Y-85905994D01*
X128541620Y-86025366D01*
X128564908Y-86142444D01*
X128610590Y-86252729D01*
X128676909Y-86351982D01*
X128730027Y-86405100D01*
X128676909Y-86458218D01*
X128610590Y-86557471D01*
X128564908Y-86667756D01*
X128541620Y-86784834D01*
X128541620Y-86904206D01*
X128564908Y-87021284D01*
X128610590Y-87131569D01*
X128676909Y-87230822D01*
X128761318Y-87315231D01*
X128860571Y-87381550D01*
X128970856Y-87427232D01*
X129087934Y-87450520D01*
X129207306Y-87450520D01*
X129324384Y-87427232D01*
X129434669Y-87381550D01*
X129533922Y-87315231D01*
X129618331Y-87230822D01*
X129684650Y-87131569D01*
X129730332Y-87021284D01*
X129753620Y-86904206D01*
X129753620Y-86784834D01*
X129730332Y-86667756D01*
X129684650Y-86557471D01*
X129618331Y-86458218D01*
X129565213Y-86405100D01*
X129618331Y-86351982D01*
X129684650Y-86252729D01*
X129730332Y-86142444D01*
X129753620Y-86025366D01*
X129753620Y-85905994D01*
X129730332Y-85788916D01*
X129684650Y-85678631D01*
X129618331Y-85579378D01*
X129565213Y-85526260D01*
X129618331Y-85473142D01*
X129684650Y-85373889D01*
X129730332Y-85263604D01*
X129753620Y-85146526D01*
X129753620Y-85027154D01*
X129730332Y-84910076D01*
X129684650Y-84799791D01*
X129618331Y-84700538D01*
X129533922Y-84616129D01*
X129447704Y-84558520D01*
X129543369Y-84558520D01*
X129562171Y-84566811D01*
X129567901Y-84568650D01*
X129824061Y-84648909D01*
X129824070Y-87510840D01*
X129825899Y-87529414D01*
X129825869Y-87533770D01*
X129826456Y-87539760D01*
X129856017Y-87821007D01*
X129863872Y-87859274D01*
X129871192Y-87897643D01*
X129872931Y-87903404D01*
X129956556Y-88173553D01*
X129971691Y-88209558D01*
X129986327Y-88245783D01*
X129989150Y-88251092D01*
X129989152Y-88251097D01*
X129989155Y-88251101D01*
X130123656Y-88499858D01*
X130145512Y-88532260D01*
X130157984Y-88551320D01*
X130155561Y-92088528D01*
X130146624Y-92101979D01*
X130124550Y-92134217D01*
X130121688Y-92139510D01*
X129988923Y-92389204D01*
X129974033Y-92425330D01*
X129958648Y-92461225D01*
X129956868Y-92466974D01*
X129928755Y-92560088D01*
X129882493Y-92513826D01*
X129795523Y-92455714D01*
X129698887Y-92415686D01*
X129596299Y-92395280D01*
X129491701Y-92395280D01*
X129389113Y-92415686D01*
X129292477Y-92455714D01*
X129205507Y-92513826D01*
X129131546Y-92587787D01*
X129073434Y-92674757D01*
X129033406Y-92771393D01*
X129013000Y-92873981D01*
X129013000Y-92978579D01*
X129033406Y-93081167D01*
X129073434Y-93177803D01*
X129131546Y-93264773D01*
X129205507Y-93338734D01*
X129292477Y-93396846D01*
X129389113Y-93436874D01*
X129491701Y-93457280D01*
X129596299Y-93457280D01*
X129698887Y-93436874D01*
X129795523Y-93396846D01*
X129829140Y-93374384D01*
X129829141Y-94760591D01*
X129807993Y-94764932D01*
X129769699Y-94772237D01*
X129763944Y-94773974D01*
X129421916Y-94879849D01*
X129385903Y-94894987D01*
X129349764Y-94909588D01*
X129344465Y-94912405D01*
X129344456Y-94912409D01*
X129344449Y-94912414D01*
X129133703Y-95026364D01*
X125677981Y-95020232D01*
X125469392Y-94909323D01*
X125433273Y-94894436D01*
X125397450Y-94879082D01*
X125391708Y-94877304D01*
X125044802Y-94772566D01*
X125006493Y-94764981D01*
X124990720Y-94761628D01*
X124990719Y-94521650D01*
X125031433Y-94529748D01*
X125136031Y-94529748D01*
X125238619Y-94509342D01*
X125335255Y-94469314D01*
X125422225Y-94411202D01*
X125496186Y-94337241D01*
X125554298Y-94250271D01*
X125594326Y-94153635D01*
X125614732Y-94051047D01*
X125614732Y-93946449D01*
X125594326Y-93843861D01*
X125554298Y-93747225D01*
X125496186Y-93660255D01*
X125422225Y-93586294D01*
X125335255Y-93528182D01*
X125238619Y-93488154D01*
X125136031Y-93467748D01*
X125031433Y-93467748D01*
X124990719Y-93475847D01*
X124990719Y-93410051D01*
X126464130Y-93410051D01*
X126464130Y-93514649D01*
X126484536Y-93617237D01*
X126524564Y-93713873D01*
X126582676Y-93800843D01*
X126656637Y-93874804D01*
X126743607Y-93932916D01*
X126840243Y-93972944D01*
X126942831Y-93993350D01*
X127047429Y-93993350D01*
X127150017Y-93972944D01*
X127246653Y-93932916D01*
X127333623Y-93874804D01*
X127407584Y-93800843D01*
X127465696Y-93713873D01*
X127505724Y-93617237D01*
X127526130Y-93514649D01*
X127526130Y-93410051D01*
X127505724Y-93307463D01*
X127465696Y-93210827D01*
X127407584Y-93123857D01*
X127333623Y-93049896D01*
X127246653Y-92991784D01*
X127150017Y-92951756D01*
X127047429Y-92931350D01*
X126942831Y-92931350D01*
X126840243Y-92951756D01*
X126743607Y-92991784D01*
X126656637Y-93049896D01*
X126582676Y-93123857D01*
X126524564Y-93210827D01*
X126484536Y-93307463D01*
X126464130Y-93410051D01*
X124990719Y-93410051D01*
X124990718Y-92857433D01*
X124988474Y-92834647D01*
X124988484Y-92833326D01*
X124987902Y-92827343D01*
X124985251Y-92801929D01*
X124984481Y-92794110D01*
X124984412Y-92793882D01*
X124962407Y-92582921D01*
X124954587Y-92544671D01*
X124947309Y-92506355D01*
X124945579Y-92500609D01*
X124945577Y-92500599D01*
X124945573Y-92500590D01*
X124873091Y-92265783D01*
X124858003Y-92229810D01*
X124843409Y-92193607D01*
X124840591Y-92188297D01*
X124723877Y-91972033D01*
X124702060Y-91939633D01*
X124680742Y-91906999D01*
X124676950Y-91902342D01*
X124676946Y-91902336D01*
X124676941Y-91902331D01*
X124520449Y-91712861D01*
X124492772Y-91685333D01*
X124465503Y-91657443D01*
X124460880Y-91653613D01*
X124460874Y-91653607D01*
X124460867Y-91653603D01*
X124270554Y-91498137D01*
X124243456Y-91480101D01*
X126345200Y-91480101D01*
X126345200Y-91584699D01*
X126365606Y-91687287D01*
X126405634Y-91783923D01*
X126463746Y-91870893D01*
X126537707Y-91944854D01*
X126624677Y-92002966D01*
X126721313Y-92042994D01*
X126823901Y-92063400D01*
X126858280Y-92063400D01*
X126858280Y-92090159D01*
X126878686Y-92192747D01*
X126918714Y-92289383D01*
X126976826Y-92376353D01*
X127050787Y-92450314D01*
X127137757Y-92508426D01*
X127234393Y-92548454D01*
X127336981Y-92568860D01*
X127441579Y-92568860D01*
X127544167Y-92548454D01*
X127640803Y-92508426D01*
X127641628Y-92507875D01*
X127727813Y-92543574D01*
X127830401Y-92563980D01*
X127934999Y-92563980D01*
X128037587Y-92543574D01*
X128134223Y-92503546D01*
X128221193Y-92445434D01*
X128295154Y-92371473D01*
X128353266Y-92284503D01*
X128393294Y-92187867D01*
X128413700Y-92085279D01*
X128413700Y-91980681D01*
X128393294Y-91878093D01*
X128355073Y-91785820D01*
X128361364Y-91776405D01*
X128401392Y-91679769D01*
X128421798Y-91577181D01*
X128421798Y-91472583D01*
X128401392Y-91369995D01*
X128361364Y-91273359D01*
X128303252Y-91186389D01*
X128229291Y-91112428D01*
X128142321Y-91054316D01*
X128045685Y-91014288D01*
X127943097Y-90993882D01*
X127838499Y-90993882D01*
X127735911Y-91014288D01*
X127639275Y-91054316D01*
X127552305Y-91112428D01*
X127478344Y-91186389D01*
X127420232Y-91273359D01*
X127381942Y-91365799D01*
X127346766Y-91280877D01*
X127288654Y-91193907D01*
X127214693Y-91119946D01*
X127127723Y-91061834D01*
X127031087Y-91021806D01*
X126928499Y-91001400D01*
X126823901Y-91001400D01*
X126721313Y-91021806D01*
X126624677Y-91061834D01*
X126537707Y-91119946D01*
X126463746Y-91193907D01*
X126405634Y-91280877D01*
X126365606Y-91377513D01*
X126345200Y-91480101D01*
X124243456Y-91480101D01*
X124238048Y-91476502D01*
X124205889Y-91454446D01*
X124200609Y-91451585D01*
X124200605Y-91451582D01*
X124200601Y-91451580D01*
X124082542Y-91388688D01*
X123961321Y-91099319D01*
X123965267Y-89976421D01*
X126350280Y-89976421D01*
X126350280Y-90081019D01*
X126370686Y-90183607D01*
X126410714Y-90280243D01*
X126468826Y-90367213D01*
X126542787Y-90441174D01*
X126629757Y-90499286D01*
X126726393Y-90539314D01*
X126828981Y-90559720D01*
X126933579Y-90559720D01*
X127036167Y-90539314D01*
X127132803Y-90499286D01*
X127219773Y-90441174D01*
X127293734Y-90367213D01*
X127351846Y-90280243D01*
X127391874Y-90183607D01*
X127412280Y-90081019D01*
X127412280Y-89976421D01*
X127391874Y-89873833D01*
X127351846Y-89777197D01*
X127293734Y-89690227D01*
X127219773Y-89616266D01*
X127132803Y-89558154D01*
X127036167Y-89518126D01*
X126933579Y-89497720D01*
X126828981Y-89497720D01*
X126726393Y-89518126D01*
X126629757Y-89558154D01*
X126542787Y-89616266D01*
X126468826Y-89690227D01*
X126410714Y-89777197D01*
X126370686Y-89873833D01*
X126350280Y-89976421D01*
X123965267Y-89976421D01*
X123969384Y-88805384D01*
X124036028Y-88671404D01*
X124052865Y-88756049D01*
X124094777Y-88857235D01*
X124155625Y-88948299D01*
X124233069Y-89025743D01*
X124324133Y-89086591D01*
X124425319Y-89128503D01*
X124532737Y-89149870D01*
X124642259Y-89149870D01*
X124749677Y-89128503D01*
X124850863Y-89086591D01*
X124941927Y-89025743D01*
X125019371Y-88948299D01*
X125080219Y-88857235D01*
X125122131Y-88756049D01*
X125143498Y-88648631D01*
X125143498Y-88539109D01*
X125133204Y-88487354D01*
X128788000Y-88487354D01*
X128788000Y-88606726D01*
X128811288Y-88723804D01*
X128856970Y-88834089D01*
X128923289Y-88933342D01*
X129007698Y-89017751D01*
X129106951Y-89084070D01*
X129217236Y-89129752D01*
X129334314Y-89153040D01*
X129453686Y-89153040D01*
X129570764Y-89129752D01*
X129681049Y-89084070D01*
X129780302Y-89017751D01*
X129864711Y-88933342D01*
X129931030Y-88834089D01*
X129976712Y-88723804D01*
X130000000Y-88606726D01*
X130000000Y-88487354D01*
X129976712Y-88370276D01*
X129931030Y-88259991D01*
X129864711Y-88160738D01*
X129780302Y-88076329D01*
X129681049Y-88010010D01*
X129570764Y-87964328D01*
X129453686Y-87941040D01*
X129334314Y-87941040D01*
X129217236Y-87964328D01*
X129106951Y-88010010D01*
X129007698Y-88076329D01*
X128923289Y-88160738D01*
X128856970Y-88259991D01*
X128811288Y-88370276D01*
X128788000Y-88487354D01*
X125133204Y-88487354D01*
X125122131Y-88431691D01*
X125080219Y-88330505D01*
X125019371Y-88239441D01*
X124941927Y-88161997D01*
X124850863Y-88101149D01*
X124749677Y-88059237D01*
X124680278Y-88045432D01*
X124683524Y-88041452D01*
X124705110Y-88008963D01*
X124727163Y-87976755D01*
X124730022Y-87971467D01*
X124835729Y-87772661D01*
X127412660Y-87772661D01*
X127412660Y-87877259D01*
X127433066Y-87979847D01*
X127473094Y-88076483D01*
X127531206Y-88163453D01*
X127605167Y-88237414D01*
X127692137Y-88295526D01*
X127788773Y-88335554D01*
X127891361Y-88355960D01*
X127995959Y-88355960D01*
X128098547Y-88335554D01*
X128195183Y-88295526D01*
X128282153Y-88237414D01*
X128356114Y-88163453D01*
X128414226Y-88076483D01*
X128454254Y-87979847D01*
X128474660Y-87877259D01*
X128474660Y-87772661D01*
X128454254Y-87670073D01*
X128414226Y-87573437D01*
X128356114Y-87486467D01*
X128282153Y-87412506D01*
X128195183Y-87354394D01*
X128098547Y-87314366D01*
X127995959Y-87293960D01*
X127891361Y-87293960D01*
X127788773Y-87314366D01*
X127692137Y-87354394D01*
X127605167Y-87412506D01*
X127531206Y-87486467D01*
X127473094Y-87573437D01*
X127433066Y-87670073D01*
X127412660Y-87772661D01*
X124835729Y-87772661D01*
X124845455Y-87754370D01*
X124860324Y-87718295D01*
X124875697Y-87682428D01*
X124877475Y-87676685D01*
X124948541Y-87441302D01*
X124956120Y-87403030D01*
X124964234Y-87364854D01*
X124964861Y-87358889D01*
X124964863Y-87358877D01*
X124964863Y-87358866D01*
X124984474Y-87158858D01*
X124985143Y-87156651D01*
X124991380Y-87093328D01*
X124991380Y-84646505D01*
X124996798Y-84644860D01*
X124996804Y-84644858D01*
X125270844Y-84559504D01*
X125273173Y-84558520D01*
X128847536Y-84558520D01*
X128761318Y-84616129D01*
D13*
G36*
X112110202Y-109537726D02*
G01*
X112080706Y-109525508D01*
X112002731Y-109509998D01*
X111923229Y-109509998D01*
X111845254Y-109525508D01*
X111771804Y-109555932D01*
X111705700Y-109600101D01*
X111649483Y-109656318D01*
X111605314Y-109722422D01*
X111574890Y-109795872D01*
X111559380Y-109873847D01*
X111559380Y-109953349D01*
X111574890Y-110031324D01*
X111605314Y-110104774D01*
X111649483Y-110170878D01*
X111705700Y-110227095D01*
X111771804Y-110271264D01*
X111845254Y-110301688D01*
X111923229Y-110317198D01*
X112002731Y-110317198D01*
X112080706Y-110301688D01*
X112109690Y-110289682D01*
X112103502Y-119369647D01*
X102804988Y-119371809D01*
X102834733Y-119351934D01*
X102897914Y-119288753D01*
X102947555Y-119214460D01*
X102981749Y-119131910D01*
X102999180Y-119044276D01*
X102999180Y-118954924D01*
X102988119Y-118899311D01*
X107137580Y-118899311D01*
X107137580Y-118973889D01*
X107152129Y-119047034D01*
X107180669Y-119115934D01*
X107222102Y-119177944D01*
X107274836Y-119230678D01*
X107336846Y-119272111D01*
X107405746Y-119300651D01*
X107478891Y-119315200D01*
X107553469Y-119315200D01*
X107626614Y-119300651D01*
X107695514Y-119272111D01*
X107757524Y-119230678D01*
X107810258Y-119177944D01*
X107851691Y-119115934D01*
X107880231Y-119047034D01*
X107894780Y-118973889D01*
X107894780Y-118936311D01*
X109213860Y-118936311D01*
X109213860Y-119010889D01*
X109228409Y-119084034D01*
X109256949Y-119152934D01*
X109298382Y-119214944D01*
X109351116Y-119267678D01*
X109413126Y-119309111D01*
X109482026Y-119337651D01*
X109555171Y-119352200D01*
X109629749Y-119352200D01*
X109702894Y-119337651D01*
X109771794Y-119309111D01*
X109833804Y-119267678D01*
X109886538Y-119214944D01*
X109927971Y-119152934D01*
X109956511Y-119084034D01*
X109971060Y-119010889D01*
X109971060Y-118936311D01*
X109956511Y-118863166D01*
X109927971Y-118794266D01*
X109886538Y-118732256D01*
X109833804Y-118679522D01*
X109771794Y-118638089D01*
X109702894Y-118609549D01*
X109629749Y-118595000D01*
X109555171Y-118595000D01*
X109482026Y-118609549D01*
X109413126Y-118638089D01*
X109351116Y-118679522D01*
X109298382Y-118732256D01*
X109256949Y-118794266D01*
X109228409Y-118863166D01*
X109213860Y-118936311D01*
X107894780Y-118936311D01*
X107894780Y-118899311D01*
X107880231Y-118826166D01*
X107851691Y-118757266D01*
X107810258Y-118695256D01*
X107757524Y-118642522D01*
X107695514Y-118601089D01*
X107626614Y-118572549D01*
X107553469Y-118558000D01*
X107478891Y-118558000D01*
X107405746Y-118572549D01*
X107336846Y-118601089D01*
X107274836Y-118642522D01*
X107222102Y-118695256D01*
X107180669Y-118757266D01*
X107152129Y-118826166D01*
X107137580Y-118899311D01*
X102988119Y-118899311D01*
X102981749Y-118867290D01*
X102947555Y-118784740D01*
X102897914Y-118710447D01*
X102834733Y-118647266D01*
X102760440Y-118597625D01*
X102677890Y-118563431D01*
X102590256Y-118546000D01*
X102500904Y-118546000D01*
X102413270Y-118563431D01*
X102330720Y-118597625D01*
X102256427Y-118647266D01*
X102193246Y-118710447D01*
X102177940Y-118733354D01*
X102173899Y-118090231D01*
X103674380Y-118090231D01*
X103674380Y-118164809D01*
X103688929Y-118237954D01*
X103717469Y-118306854D01*
X103758902Y-118368864D01*
X103811636Y-118421598D01*
X103873646Y-118463031D01*
X103942546Y-118491571D01*
X104015691Y-118506120D01*
X104090269Y-118506120D01*
X104163414Y-118491571D01*
X104232314Y-118463031D01*
X104294324Y-118421598D01*
X104347058Y-118368864D01*
X104388491Y-118306854D01*
X104417031Y-118237954D01*
X104431580Y-118164809D01*
X104431580Y-118090231D01*
X104417031Y-118017086D01*
X104413811Y-118009311D01*
X106027780Y-118009311D01*
X106027780Y-118083889D01*
X106042329Y-118157034D01*
X106070869Y-118225934D01*
X106112302Y-118287944D01*
X106165036Y-118340678D01*
X106227046Y-118382111D01*
X106295946Y-118410651D01*
X106369091Y-118425200D01*
X106443669Y-118425200D01*
X106516814Y-118410651D01*
X106585714Y-118382111D01*
X106647724Y-118340678D01*
X106700458Y-118287944D01*
X106741891Y-118225934D01*
X106770431Y-118157034D01*
X106784980Y-118083889D01*
X106784980Y-118009311D01*
X106770431Y-117936166D01*
X106741891Y-117867266D01*
X106700458Y-117805256D01*
X106647724Y-117752522D01*
X106585714Y-117711089D01*
X106516814Y-117682549D01*
X106443669Y-117668000D01*
X106369091Y-117668000D01*
X106295946Y-117682549D01*
X106227046Y-117711089D01*
X106165036Y-117752522D01*
X106112302Y-117805256D01*
X106070869Y-117867266D01*
X106042329Y-117936166D01*
X106027780Y-118009311D01*
X104413811Y-118009311D01*
X104388491Y-117948186D01*
X104347058Y-117886176D01*
X104294324Y-117833442D01*
X104232314Y-117792009D01*
X104163414Y-117763469D01*
X104090269Y-117748920D01*
X104015691Y-117748920D01*
X103942546Y-117763469D01*
X103873646Y-117792009D01*
X103811636Y-117833442D01*
X103758902Y-117886176D01*
X103717469Y-117948186D01*
X103688929Y-118017086D01*
X103674380Y-118090231D01*
X102173899Y-118090231D01*
X102170122Y-117489111D01*
X111325380Y-117489111D01*
X111325380Y-117563689D01*
X111339929Y-117636834D01*
X111368469Y-117705734D01*
X111409902Y-117767744D01*
X111462636Y-117820478D01*
X111524646Y-117861911D01*
X111593546Y-117890451D01*
X111666691Y-117905000D01*
X111741269Y-117905000D01*
X111814414Y-117890451D01*
X111883314Y-117861911D01*
X111945324Y-117820478D01*
X111998058Y-117767744D01*
X112039491Y-117705734D01*
X112068031Y-117636834D01*
X112082580Y-117563689D01*
X112082580Y-117489111D01*
X112068031Y-117415966D01*
X112039491Y-117347066D01*
X111998058Y-117285056D01*
X111945324Y-117232322D01*
X111883314Y-117190889D01*
X111814414Y-117162349D01*
X111741269Y-117147800D01*
X111666691Y-117147800D01*
X111593546Y-117162349D01*
X111524646Y-117190889D01*
X111462636Y-117232322D01*
X111409902Y-117285056D01*
X111368469Y-117347066D01*
X111339929Y-117415966D01*
X111325380Y-117489111D01*
X102170122Y-117489111D01*
X102162843Y-116330911D01*
X106553380Y-116330911D01*
X106553380Y-116405489D01*
X106567929Y-116478634D01*
X106596469Y-116547534D01*
X106637902Y-116609544D01*
X106690636Y-116662278D01*
X106752646Y-116703711D01*
X106821546Y-116732251D01*
X106894691Y-116746800D01*
X106969269Y-116746800D01*
X107042414Y-116732251D01*
X107111314Y-116703711D01*
X107114307Y-116701711D01*
X110480720Y-116701711D01*
X110480720Y-116776289D01*
X110495269Y-116849434D01*
X110523809Y-116918334D01*
X110565242Y-116980344D01*
X110617976Y-117033078D01*
X110679986Y-117074511D01*
X110748886Y-117103051D01*
X110822031Y-117117600D01*
X110896609Y-117117600D01*
X110969754Y-117103051D01*
X111038654Y-117074511D01*
X111100664Y-117033078D01*
X111153398Y-116980344D01*
X111194831Y-116918334D01*
X111223371Y-116849434D01*
X111237920Y-116776289D01*
X111237920Y-116701711D01*
X111223371Y-116628566D01*
X111194831Y-116559666D01*
X111153398Y-116497656D01*
X111100664Y-116444922D01*
X111038654Y-116403489D01*
X110969754Y-116374949D01*
X110896609Y-116360400D01*
X110822031Y-116360400D01*
X110748886Y-116374949D01*
X110679986Y-116403489D01*
X110617976Y-116444922D01*
X110565242Y-116497656D01*
X110523809Y-116559666D01*
X110495269Y-116628566D01*
X110480720Y-116701711D01*
X107114307Y-116701711D01*
X107173324Y-116662278D01*
X107226058Y-116609544D01*
X107267491Y-116547534D01*
X107296031Y-116478634D01*
X107310580Y-116405489D01*
X107310580Y-116330911D01*
X107296031Y-116257766D01*
X107267491Y-116188866D01*
X107226058Y-116126856D01*
X107173324Y-116074122D01*
X107111314Y-116032689D01*
X107042414Y-116004149D01*
X106969269Y-115989600D01*
X106894691Y-115989600D01*
X106821546Y-116004149D01*
X106752646Y-116032689D01*
X106690636Y-116074122D01*
X106637902Y-116126856D01*
X106596469Y-116188866D01*
X106567929Y-116257766D01*
X106553380Y-116330911D01*
X102162843Y-116330911D01*
X102157032Y-115406311D01*
X102954380Y-115406311D01*
X102954380Y-115480889D01*
X102968929Y-115554034D01*
X102997469Y-115622934D01*
X103038902Y-115684944D01*
X103091636Y-115737678D01*
X103153646Y-115779111D01*
X103222546Y-115807651D01*
X103295691Y-115822200D01*
X103370269Y-115822200D01*
X103443414Y-115807651D01*
X103512314Y-115779111D01*
X103574324Y-115737678D01*
X103627058Y-115684944D01*
X103668491Y-115622934D01*
X103697031Y-115554034D01*
X103711580Y-115480889D01*
X103711580Y-115406311D01*
X103697031Y-115333166D01*
X103668491Y-115264266D01*
X103627058Y-115202256D01*
X103574324Y-115149522D01*
X103545622Y-115130344D01*
X103605225Y-115142200D01*
X103684727Y-115142200D01*
X103762702Y-115126690D01*
X103836152Y-115096266D01*
X103871680Y-115072527D01*
X103871680Y-115074771D01*
X103887190Y-115152746D01*
X103917614Y-115226196D01*
X103961783Y-115292300D01*
X104018000Y-115348517D01*
X104084104Y-115392686D01*
X104157554Y-115423110D01*
X104235529Y-115438620D01*
X104315031Y-115438620D01*
X104393006Y-115423110D01*
X104466456Y-115392686D01*
X104504338Y-115367374D01*
X104493980Y-115419449D01*
X104493980Y-115498951D01*
X104509490Y-115576926D01*
X104539914Y-115650376D01*
X104584083Y-115716480D01*
X104640300Y-115772697D01*
X104706404Y-115816866D01*
X104779854Y-115847290D01*
X104857829Y-115862800D01*
X104937331Y-115862800D01*
X105015306Y-115847290D01*
X105088756Y-115816866D01*
X105154860Y-115772697D01*
X105177846Y-115749711D01*
X105382440Y-115749711D01*
X105382440Y-115824289D01*
X105396989Y-115897434D01*
X105425529Y-115966334D01*
X105466962Y-116028344D01*
X105519696Y-116081078D01*
X105581706Y-116122511D01*
X105650606Y-116151051D01*
X105723751Y-116165600D01*
X105798329Y-116165600D01*
X105871474Y-116151051D01*
X105940374Y-116122511D01*
X106002384Y-116081078D01*
X106055118Y-116028344D01*
X106096551Y-115966334D01*
X106125091Y-115897434D01*
X106139640Y-115824289D01*
X106139640Y-115749711D01*
X106125091Y-115676566D01*
X106096551Y-115607666D01*
X106055118Y-115545656D01*
X106002384Y-115492922D01*
X105940374Y-115451489D01*
X105871474Y-115422949D01*
X105798329Y-115408400D01*
X105723751Y-115408400D01*
X105650606Y-115422949D01*
X105581706Y-115451489D01*
X105519696Y-115492922D01*
X105466962Y-115545656D01*
X105425529Y-115607666D01*
X105396989Y-115676566D01*
X105382440Y-115749711D01*
X105177846Y-115749711D01*
X105211077Y-115716480D01*
X105255246Y-115650376D01*
X105285670Y-115576926D01*
X105301180Y-115498951D01*
X105301180Y-115419449D01*
X105295607Y-115391431D01*
X108735380Y-115391431D01*
X108735380Y-115466009D01*
X108749929Y-115539154D01*
X108778469Y-115608054D01*
X108819902Y-115670064D01*
X108872636Y-115722798D01*
X108934646Y-115764231D01*
X109003546Y-115792771D01*
X109076691Y-115807320D01*
X109151269Y-115807320D01*
X109224414Y-115792771D01*
X109232284Y-115789511D01*
X110472780Y-115789511D01*
X110472780Y-115864089D01*
X110487329Y-115937234D01*
X110515869Y-116006134D01*
X110557302Y-116068144D01*
X110610036Y-116120878D01*
X110672046Y-116162311D01*
X110740946Y-116190851D01*
X110814091Y-116205400D01*
X110888669Y-116205400D01*
X110961814Y-116190851D01*
X111030714Y-116162311D01*
X111092724Y-116120878D01*
X111145458Y-116068144D01*
X111186891Y-116006134D01*
X111215431Y-115937234D01*
X111229980Y-115864089D01*
X111229980Y-115789511D01*
X111215431Y-115716366D01*
X111186891Y-115647466D01*
X111145458Y-115585456D01*
X111092724Y-115532722D01*
X111030714Y-115491289D01*
X110961814Y-115462749D01*
X110888669Y-115448200D01*
X110814091Y-115448200D01*
X110740946Y-115462749D01*
X110672046Y-115491289D01*
X110610036Y-115532722D01*
X110557302Y-115585456D01*
X110515869Y-115647466D01*
X110487329Y-115716366D01*
X110472780Y-115789511D01*
X109232284Y-115789511D01*
X109293314Y-115764231D01*
X109355324Y-115722798D01*
X109408058Y-115670064D01*
X109449491Y-115608054D01*
X109478031Y-115539154D01*
X109492580Y-115466009D01*
X109492580Y-115391431D01*
X109478031Y-115318286D01*
X109449491Y-115249386D01*
X109408058Y-115187376D01*
X109355324Y-115134642D01*
X109293314Y-115093209D01*
X109224414Y-115064669D01*
X109151269Y-115050120D01*
X109076691Y-115050120D01*
X109003546Y-115064669D01*
X108934646Y-115093209D01*
X108872636Y-115134642D01*
X108819902Y-115187376D01*
X108778469Y-115249386D01*
X108749929Y-115318286D01*
X108735380Y-115391431D01*
X105295607Y-115391431D01*
X105285670Y-115341474D01*
X105255246Y-115268024D01*
X105211077Y-115201920D01*
X105154860Y-115145703D01*
X105088756Y-115101534D01*
X105015306Y-115071110D01*
X104937331Y-115055600D01*
X104857829Y-115055600D01*
X104779854Y-115071110D01*
X104706404Y-115101534D01*
X104668522Y-115126846D01*
X104678880Y-115074771D01*
X104678880Y-114995269D01*
X104663370Y-114917294D01*
X104645136Y-114873271D01*
X105374960Y-114873271D01*
X105374960Y-114947849D01*
X105389509Y-115020994D01*
X105418049Y-115089894D01*
X105459482Y-115151904D01*
X105512216Y-115204638D01*
X105574226Y-115246071D01*
X105643126Y-115274611D01*
X105716271Y-115289160D01*
X105790849Y-115289160D01*
X105863994Y-115274611D01*
X105932894Y-115246071D01*
X105994904Y-115204638D01*
X106047638Y-115151904D01*
X106089071Y-115089894D01*
X106117611Y-115020994D01*
X106129283Y-114962311D01*
X110498180Y-114962311D01*
X110498180Y-115036889D01*
X110512729Y-115110034D01*
X110541269Y-115178934D01*
X110582702Y-115240944D01*
X110635436Y-115293678D01*
X110697446Y-115335111D01*
X110766346Y-115363651D01*
X110839491Y-115378200D01*
X110914069Y-115378200D01*
X110987214Y-115363651D01*
X111056114Y-115335111D01*
X111118124Y-115293678D01*
X111170858Y-115240944D01*
X111212291Y-115178934D01*
X111240831Y-115110034D01*
X111255380Y-115036889D01*
X111255380Y-114962311D01*
X111240831Y-114889166D01*
X111212291Y-114820266D01*
X111170858Y-114758256D01*
X111118124Y-114705522D01*
X111056114Y-114664089D01*
X110987214Y-114635549D01*
X110914069Y-114621000D01*
X110839491Y-114621000D01*
X110766346Y-114635549D01*
X110697446Y-114664089D01*
X110635436Y-114705522D01*
X110582702Y-114758256D01*
X110541269Y-114820266D01*
X110512729Y-114889166D01*
X110498180Y-114962311D01*
X106129283Y-114962311D01*
X106132160Y-114947849D01*
X106132160Y-114873271D01*
X106117611Y-114800126D01*
X106089071Y-114731226D01*
X106047638Y-114669216D01*
X105994904Y-114616482D01*
X105932894Y-114575049D01*
X105863994Y-114546509D01*
X105790849Y-114531960D01*
X105716271Y-114531960D01*
X105643126Y-114546509D01*
X105574226Y-114575049D01*
X105512216Y-114616482D01*
X105459482Y-114669216D01*
X105418049Y-114731226D01*
X105389509Y-114800126D01*
X105374960Y-114873271D01*
X104645136Y-114873271D01*
X104632946Y-114843844D01*
X104588777Y-114777740D01*
X104532560Y-114721523D01*
X104466456Y-114677354D01*
X104393006Y-114646930D01*
X104315031Y-114631420D01*
X104235529Y-114631420D01*
X104157554Y-114646930D01*
X104084104Y-114677354D01*
X104048576Y-114701093D01*
X104048576Y-114698849D01*
X104033066Y-114620874D01*
X104002642Y-114547424D01*
X103958473Y-114481320D01*
X103902256Y-114425103D01*
X103836152Y-114380934D01*
X103762702Y-114350510D01*
X103715090Y-114341040D01*
X103748214Y-114334451D01*
X103817114Y-114305911D01*
X103879124Y-114264478D01*
X103931858Y-114211744D01*
X103973291Y-114149734D01*
X104001831Y-114080834D01*
X104016380Y-114007689D01*
X104016380Y-113933111D01*
X104015962Y-113931009D01*
X105301700Y-113931009D01*
X105301700Y-114010511D01*
X105317210Y-114088486D01*
X105347634Y-114161936D01*
X105391803Y-114228040D01*
X105448020Y-114284257D01*
X105514124Y-114328426D01*
X105587574Y-114358850D01*
X105665549Y-114374360D01*
X105745051Y-114374360D01*
X105823026Y-114358850D01*
X105896476Y-114328426D01*
X105962580Y-114284257D01*
X106018797Y-114228040D01*
X106062966Y-114161936D01*
X106093390Y-114088486D01*
X106108900Y-114010511D01*
X106108900Y-113980660D01*
X106128591Y-113980660D01*
X106206566Y-113965150D01*
X106280016Y-113934726D01*
X106346120Y-113890557D01*
X106402337Y-113834340D01*
X106446506Y-113768236D01*
X106476930Y-113694786D01*
X106492440Y-113616811D01*
X106492440Y-113538555D01*
X106569789Y-113553940D01*
X106649291Y-113553940D01*
X106727266Y-113538430D01*
X106800716Y-113508006D01*
X106866820Y-113463837D01*
X106923037Y-113407620D01*
X106967206Y-113341516D01*
X106972899Y-113327771D01*
X107154320Y-113327771D01*
X107154320Y-113402349D01*
X107168869Y-113475494D01*
X107197409Y-113544394D01*
X107238842Y-113606404D01*
X107291576Y-113659138D01*
X107353586Y-113700571D01*
X107422486Y-113729111D01*
X107495631Y-113743660D01*
X107570209Y-113743660D01*
X107643354Y-113729111D01*
X107712254Y-113700571D01*
X107774264Y-113659138D01*
X107826998Y-113606404D01*
X107868431Y-113544394D01*
X107896971Y-113475494D01*
X107911520Y-113402349D01*
X107911520Y-113327771D01*
X107896971Y-113254626D01*
X107868431Y-113185726D01*
X107826998Y-113123716D01*
X107774264Y-113070982D01*
X107712254Y-113029549D01*
X107643354Y-113001009D01*
X107570209Y-112986460D01*
X107495631Y-112986460D01*
X107422486Y-113001009D01*
X107353586Y-113029549D01*
X107291576Y-113070982D01*
X107238842Y-113123716D01*
X107197409Y-113185726D01*
X107168869Y-113254626D01*
X107154320Y-113327771D01*
X106972899Y-113327771D01*
X106997630Y-113268066D01*
X107013140Y-113190091D01*
X107013140Y-113110589D01*
X106997630Y-113032614D01*
X106967206Y-112959164D01*
X106923037Y-112893060D01*
X106866820Y-112836843D01*
X106800716Y-112792674D01*
X106727266Y-112762250D01*
X106649291Y-112746740D01*
X106569789Y-112746740D01*
X106494817Y-112761653D01*
X106494980Y-112760831D01*
X106494980Y-112681329D01*
X106479470Y-112603354D01*
X106449046Y-112529904D01*
X106404877Y-112463800D01*
X106348660Y-112407583D01*
X106282556Y-112363414D01*
X106209106Y-112332990D01*
X106131131Y-112317480D01*
X106051629Y-112317480D01*
X105973654Y-112332990D01*
X105900204Y-112363414D01*
X105834100Y-112407583D01*
X105777883Y-112463800D01*
X105733714Y-112529904D01*
X105703290Y-112603354D01*
X105687780Y-112681329D01*
X105687780Y-112760831D01*
X105703290Y-112838806D01*
X105733714Y-112912256D01*
X105777883Y-112978360D01*
X105834100Y-113034577D01*
X105900204Y-113078746D01*
X105973654Y-113109170D01*
X106051629Y-113124680D01*
X106131131Y-113124680D01*
X106206103Y-113109767D01*
X106205940Y-113110589D01*
X106205940Y-113188845D01*
X106128591Y-113173460D01*
X106049089Y-113173460D01*
X105971114Y-113188970D01*
X105897664Y-113219394D01*
X105831560Y-113263563D01*
X105775343Y-113319780D01*
X105731174Y-113385884D01*
X105700750Y-113459334D01*
X105685240Y-113537309D01*
X105685240Y-113567160D01*
X105665549Y-113567160D01*
X105587574Y-113582670D01*
X105514124Y-113613094D01*
X105448020Y-113657263D01*
X105391803Y-113713480D01*
X105347634Y-113779584D01*
X105317210Y-113853034D01*
X105301700Y-113931009D01*
X104015962Y-113931009D01*
X104001831Y-113859966D01*
X103973291Y-113791066D01*
X103931858Y-113729056D01*
X103879124Y-113676322D01*
X103817114Y-113634889D01*
X103748214Y-113606349D01*
X103675069Y-113591800D01*
X103600491Y-113591800D01*
X103527346Y-113606349D01*
X103458446Y-113634889D01*
X103396436Y-113676322D01*
X103343702Y-113729056D01*
X103302269Y-113791066D01*
X103273729Y-113859966D01*
X103259180Y-113933111D01*
X103259180Y-114007689D01*
X103273729Y-114080834D01*
X103302269Y-114149734D01*
X103343702Y-114211744D01*
X103396436Y-114264478D01*
X103458446Y-114305911D01*
X103527346Y-114334451D01*
X103567666Y-114342471D01*
X103527250Y-114350510D01*
X103453800Y-114380934D01*
X103387696Y-114425103D01*
X103331479Y-114481320D01*
X103287310Y-114547424D01*
X103256886Y-114620874D01*
X103241376Y-114698849D01*
X103241376Y-114778351D01*
X103256886Y-114856326D01*
X103287310Y-114929776D01*
X103331479Y-114995880D01*
X103387696Y-115052097D01*
X103422579Y-115075405D01*
X103370269Y-115065000D01*
X103295691Y-115065000D01*
X103222546Y-115079549D01*
X103153646Y-115108089D01*
X103091636Y-115149522D01*
X103038902Y-115202256D01*
X102997469Y-115264266D01*
X102968929Y-115333166D01*
X102954380Y-115406311D01*
X102157032Y-115406311D01*
X102151843Y-114580663D01*
X102177400Y-112771066D01*
X102184669Y-112788614D01*
X102226102Y-112850624D01*
X102278836Y-112903358D01*
X102340846Y-112944791D01*
X102409746Y-112973331D01*
X102482891Y-112987880D01*
X102557469Y-112987880D01*
X102630614Y-112973331D01*
X102699514Y-112944791D01*
X102761524Y-112903358D01*
X102814258Y-112850624D01*
X102855691Y-112788614D01*
X102884231Y-112719714D01*
X102898780Y-112646569D01*
X102898780Y-112571991D01*
X102884231Y-112498846D01*
X102855691Y-112429946D01*
X102814258Y-112367936D01*
X102761524Y-112315202D01*
X102699514Y-112273769D01*
X102630614Y-112245229D01*
X102557469Y-112230680D01*
X102482891Y-112230680D01*
X102409746Y-112245229D01*
X102340846Y-112273769D01*
X102278836Y-112315202D01*
X102226102Y-112367936D01*
X102184669Y-112429946D01*
X102182131Y-112436072D01*
X102194162Y-111584111D01*
X108085180Y-111584111D01*
X108085180Y-111658689D01*
X108099729Y-111731834D01*
X108128269Y-111800734D01*
X108169702Y-111862744D01*
X108222436Y-111915478D01*
X108284446Y-111956911D01*
X108353346Y-111985451D01*
X108426491Y-112000000D01*
X108501069Y-112000000D01*
X108574214Y-111985451D01*
X108618681Y-111967032D01*
X108618680Y-114029462D01*
X108617207Y-114044420D01*
X108618680Y-114059378D01*
X108618680Y-114059385D01*
X108623091Y-114104170D01*
X108640520Y-114161625D01*
X108668822Y-114214576D01*
X108706912Y-114260988D01*
X108718540Y-114270531D01*
X108779014Y-114331006D01*
X108767929Y-114357766D01*
X108753380Y-114430911D01*
X108753380Y-114505489D01*
X108767929Y-114578634D01*
X108796469Y-114647534D01*
X108837902Y-114709544D01*
X108890636Y-114762278D01*
X108952646Y-114803711D01*
X109021546Y-114832251D01*
X109094691Y-114846800D01*
X109169269Y-114846800D01*
X109242414Y-114832251D01*
X109311314Y-114803711D01*
X109373324Y-114762278D01*
X109426058Y-114709544D01*
X109467491Y-114647534D01*
X109496031Y-114578634D01*
X109510580Y-114505489D01*
X109510580Y-114430911D01*
X109496031Y-114357766D01*
X109467491Y-114288866D01*
X109437351Y-114243757D01*
X109436780Y-114237962D01*
X109436780Y-114237955D01*
X109432369Y-114193169D01*
X109414940Y-114135714D01*
X109386638Y-114082763D01*
X109372778Y-114065875D01*
X109358089Y-114047976D01*
X109358083Y-114047970D01*
X109348548Y-114036352D01*
X109336929Y-114026816D01*
X109228280Y-113918168D01*
X109228280Y-113298111D01*
X110460580Y-113298111D01*
X110460580Y-113372689D01*
X110475129Y-113445834D01*
X110503669Y-113514734D01*
X110545102Y-113576744D01*
X110597836Y-113629478D01*
X110659846Y-113670911D01*
X110728746Y-113699451D01*
X110801891Y-113714000D01*
X110876469Y-113714000D01*
X110949614Y-113699451D01*
X111018514Y-113670911D01*
X111080524Y-113629478D01*
X111133258Y-113576744D01*
X111174691Y-113514734D01*
X111203231Y-113445834D01*
X111217780Y-113372689D01*
X111217780Y-113298111D01*
X111203231Y-113224966D01*
X111174691Y-113156066D01*
X111133258Y-113094056D01*
X111080524Y-113041322D01*
X111018514Y-112999889D01*
X110949614Y-112971349D01*
X110876469Y-112956800D01*
X110801891Y-112956800D01*
X110728746Y-112971349D01*
X110659846Y-112999889D01*
X110597836Y-113041322D01*
X110545102Y-113094056D01*
X110503669Y-113156066D01*
X110475129Y-113224966D01*
X110460580Y-113298111D01*
X109228280Y-113298111D01*
X109228280Y-112795782D01*
X109293146Y-112822651D01*
X109366291Y-112837200D01*
X109440869Y-112837200D01*
X109514014Y-112822651D01*
X109582914Y-112794111D01*
X109644924Y-112752678D01*
X109697658Y-112699944D01*
X109739091Y-112637934D01*
X109767631Y-112569034D01*
X109782180Y-112495889D01*
X109782180Y-112421311D01*
X109772076Y-112370511D01*
X110415180Y-112370511D01*
X110415180Y-112445089D01*
X110429729Y-112518234D01*
X110458269Y-112587134D01*
X110499702Y-112649144D01*
X110552436Y-112701878D01*
X110614446Y-112743311D01*
X110683346Y-112771851D01*
X110756491Y-112786400D01*
X110831069Y-112786400D01*
X110904214Y-112771851D01*
X110973114Y-112743311D01*
X111035124Y-112701878D01*
X111087858Y-112649144D01*
X111129291Y-112587134D01*
X111157831Y-112518234D01*
X111172380Y-112445089D01*
X111172380Y-112370511D01*
X111157831Y-112297366D01*
X111129291Y-112228466D01*
X111087858Y-112166456D01*
X111035124Y-112113722D01*
X110973114Y-112072289D01*
X110904214Y-112043749D01*
X110831069Y-112029200D01*
X110756491Y-112029200D01*
X110683346Y-112043749D01*
X110614446Y-112072289D01*
X110552436Y-112113722D01*
X110499702Y-112166456D01*
X110458269Y-112228466D01*
X110429729Y-112297366D01*
X110415180Y-112370511D01*
X109772076Y-112370511D01*
X109767631Y-112348166D01*
X109739091Y-112279266D01*
X109697658Y-112217256D01*
X109644924Y-112164522D01*
X109582914Y-112123089D01*
X109514014Y-112094549D01*
X109440869Y-112080000D01*
X109366291Y-112080000D01*
X109293146Y-112094549D01*
X109228280Y-112121418D01*
X109228280Y-111320451D01*
X109345082Y-111203649D01*
X109878780Y-111203649D01*
X109878780Y-111283151D01*
X109894290Y-111361126D01*
X109924714Y-111434576D01*
X109968883Y-111500680D01*
X110025100Y-111556897D01*
X110091204Y-111601066D01*
X110164654Y-111631490D01*
X110242629Y-111647000D01*
X110322131Y-111647000D01*
X110400106Y-111631490D01*
X110473556Y-111601066D01*
X110539660Y-111556897D01*
X110595877Y-111500680D01*
X110640046Y-111434576D01*
X110670470Y-111361126D01*
X110685980Y-111283151D01*
X110685980Y-111203649D01*
X110670470Y-111125674D01*
X110658679Y-111097207D01*
X110726811Y-111097207D01*
X110804786Y-111081697D01*
X110878236Y-111051273D01*
X110944340Y-111007104D01*
X111000557Y-110950887D01*
X111044726Y-110884783D01*
X111075150Y-110811333D01*
X111090660Y-110733358D01*
X111090660Y-110653856D01*
X111075150Y-110575881D01*
X111044726Y-110502431D01*
X111000557Y-110436327D01*
X110944340Y-110380110D01*
X110878236Y-110335941D01*
X110804786Y-110305517D01*
X110726811Y-110290007D01*
X110647309Y-110290007D01*
X110569334Y-110305517D01*
X110495884Y-110335941D01*
X110429780Y-110380110D01*
X110373563Y-110436327D01*
X110329394Y-110502431D01*
X110298970Y-110575881D01*
X110283460Y-110653856D01*
X110283460Y-110733358D01*
X110298970Y-110811333D01*
X110310761Y-110839800D01*
X110242629Y-110839800D01*
X110164654Y-110855310D01*
X110091204Y-110885734D01*
X110025100Y-110929903D01*
X109968883Y-110986120D01*
X109924714Y-111052224D01*
X109894290Y-111125674D01*
X109878780Y-111203649D01*
X109345082Y-111203649D01*
X109487696Y-111061035D01*
X109541914Y-111050251D01*
X109610814Y-111021711D01*
X109672824Y-110980278D01*
X109725558Y-110927544D01*
X109766991Y-110865534D01*
X109795531Y-110796634D01*
X109810080Y-110723489D01*
X109810080Y-110648911D01*
X109795531Y-110575766D01*
X109766991Y-110506866D01*
X109725558Y-110444856D01*
X109672824Y-110392122D01*
X109610814Y-110350689D01*
X109541914Y-110322149D01*
X109468769Y-110307600D01*
X109394191Y-110307600D01*
X109321046Y-110322149D01*
X109252146Y-110350689D01*
X109190136Y-110392122D01*
X109137402Y-110444856D01*
X109095969Y-110506866D01*
X109067429Y-110575766D01*
X109056645Y-110629984D01*
X108718536Y-110968093D01*
X108706913Y-110977632D01*
X108668823Y-111024043D01*
X108654815Y-111050251D01*
X108640520Y-111076995D01*
X108623091Y-111134449D01*
X108617207Y-111194200D01*
X108618681Y-111209168D01*
X108618681Y-111275768D01*
X108574214Y-111257349D01*
X108501069Y-111242800D01*
X108426491Y-111242800D01*
X108353346Y-111257349D01*
X108284446Y-111285889D01*
X108222436Y-111327322D01*
X108169702Y-111380056D01*
X108128269Y-111442066D01*
X108099729Y-111510966D01*
X108085180Y-111584111D01*
X102194162Y-111584111D01*
X102206732Y-110694111D01*
X107115720Y-110694111D01*
X107115720Y-110768689D01*
X107130269Y-110841834D01*
X107158809Y-110910734D01*
X107200242Y-110972744D01*
X107252976Y-111025478D01*
X107314986Y-111066911D01*
X107383886Y-111095451D01*
X107457031Y-111110000D01*
X107531609Y-111110000D01*
X107604754Y-111095451D01*
X107673654Y-111066911D01*
X107735664Y-111025478D01*
X107788398Y-110972744D01*
X107829831Y-110910734D01*
X107858371Y-110841834D01*
X107872920Y-110768689D01*
X107872920Y-110694111D01*
X107858371Y-110620966D01*
X107829831Y-110552066D01*
X107788398Y-110490056D01*
X107735664Y-110437322D01*
X107673654Y-110395889D01*
X107604754Y-110367349D01*
X107531609Y-110352800D01*
X107457031Y-110352800D01*
X107383886Y-110367349D01*
X107314986Y-110395889D01*
X107252976Y-110437322D01*
X107200242Y-110490056D01*
X107158809Y-110552066D01*
X107130269Y-110620966D01*
X107115720Y-110694111D01*
X102206732Y-110694111D01*
X102219871Y-109763849D01*
X106377580Y-109763849D01*
X106377580Y-109843351D01*
X106393090Y-109921326D01*
X106423514Y-109994776D01*
X106467683Y-110060880D01*
X106523900Y-110117097D01*
X106590004Y-110161266D01*
X106663454Y-110191690D01*
X106741429Y-110207200D01*
X106820931Y-110207200D01*
X106898906Y-110191690D01*
X106972356Y-110161266D01*
X107038460Y-110117097D01*
X107094677Y-110060880D01*
X107138846Y-109994776D01*
X107169270Y-109921326D01*
X107184780Y-109843351D01*
X107184780Y-109763849D01*
X108135360Y-109763849D01*
X108135360Y-109843351D01*
X108150870Y-109921326D01*
X108181294Y-109994776D01*
X108225463Y-110060880D01*
X108281680Y-110117097D01*
X108347784Y-110161266D01*
X108421234Y-110191690D01*
X108499209Y-110207200D01*
X108578711Y-110207200D01*
X108656686Y-110191690D01*
X108730136Y-110161266D01*
X108796240Y-110117097D01*
X108852457Y-110060880D01*
X108896626Y-109994776D01*
X108927050Y-109921326D01*
X108942560Y-109843351D01*
X108942560Y-109766311D01*
X109902580Y-109766311D01*
X109902580Y-109840889D01*
X109917129Y-109914034D01*
X109945669Y-109982934D01*
X109987102Y-110044944D01*
X110039836Y-110097678D01*
X110101846Y-110139111D01*
X110170746Y-110167651D01*
X110243891Y-110182200D01*
X110318469Y-110182200D01*
X110391614Y-110167651D01*
X110460514Y-110139111D01*
X110522524Y-110097678D01*
X110575258Y-110044944D01*
X110616691Y-109982934D01*
X110645231Y-109914034D01*
X110659780Y-109840889D01*
X110659780Y-109766311D01*
X110645231Y-109693166D01*
X110616691Y-109624266D01*
X110575258Y-109562256D01*
X110522524Y-109509522D01*
X110460514Y-109468089D01*
X110391614Y-109439549D01*
X110318469Y-109425000D01*
X110243891Y-109425000D01*
X110170746Y-109439549D01*
X110101846Y-109468089D01*
X110039836Y-109509522D01*
X109987102Y-109562256D01*
X109945669Y-109624266D01*
X109917129Y-109693166D01*
X109902580Y-109766311D01*
X108942560Y-109766311D01*
X108942560Y-109763849D01*
X108927050Y-109685874D01*
X108896626Y-109612424D01*
X108852457Y-109546320D01*
X108796240Y-109490103D01*
X108730136Y-109445934D01*
X108656686Y-109415510D01*
X108578711Y-109400000D01*
X108499209Y-109400000D01*
X108421234Y-109415510D01*
X108347784Y-109445934D01*
X108281680Y-109490103D01*
X108225463Y-109546320D01*
X108181294Y-109612424D01*
X108150870Y-109685874D01*
X108135360Y-109763849D01*
X107184780Y-109763849D01*
X107169270Y-109685874D01*
X107138846Y-109612424D01*
X107094677Y-109546320D01*
X107038460Y-109490103D01*
X106972356Y-109445934D01*
X106898906Y-109415510D01*
X106820931Y-109400000D01*
X106741429Y-109400000D01*
X106663454Y-109415510D01*
X106590004Y-109445934D01*
X106523900Y-109490103D01*
X106467683Y-109546320D01*
X106423514Y-109612424D01*
X106393090Y-109685874D01*
X106377580Y-109763849D01*
X102219871Y-109763849D01*
X102227296Y-109238174D01*
X102257844Y-109258586D01*
X102331294Y-109289010D01*
X102409269Y-109304520D01*
X102488771Y-109304520D01*
X102566746Y-109289010D01*
X102640196Y-109258586D01*
X102706300Y-109214417D01*
X102762517Y-109158200D01*
X102806686Y-109092096D01*
X102837110Y-109018646D01*
X102852620Y-108940671D01*
X102852620Y-108861169D01*
X102848992Y-108842927D01*
X106645360Y-108842927D01*
X106645360Y-108922429D01*
X106660870Y-109000404D01*
X106691294Y-109073854D01*
X106735463Y-109139958D01*
X106791680Y-109196175D01*
X106857784Y-109240344D01*
X106931234Y-109270768D01*
X107009209Y-109286278D01*
X107088711Y-109286278D01*
X107166686Y-109270768D01*
X107240136Y-109240344D01*
X107306240Y-109196175D01*
X107310955Y-109191460D01*
X107373404Y-109233186D01*
X107446854Y-109263610D01*
X107524829Y-109279120D01*
X107604331Y-109279120D01*
X107682306Y-109263610D01*
X107755756Y-109233186D01*
X107821860Y-109189017D01*
X107878077Y-109132800D01*
X107922246Y-109066696D01*
X107952670Y-108993246D01*
X107968180Y-108915271D01*
X107968180Y-108845929D01*
X110097220Y-108845929D01*
X110097220Y-108925431D01*
X110112730Y-109003406D01*
X110143154Y-109076856D01*
X110187323Y-109142960D01*
X110243540Y-109199177D01*
X110309644Y-109243346D01*
X110383094Y-109273770D01*
X110461069Y-109289280D01*
X110540571Y-109289280D01*
X110618546Y-109273770D01*
X110691996Y-109243346D01*
X110758100Y-109199177D01*
X110814317Y-109142960D01*
X110858486Y-109076856D01*
X110888910Y-109003406D01*
X110904420Y-108925431D01*
X110904420Y-108845929D01*
X110888910Y-108767954D01*
X110858486Y-108694504D01*
X110814317Y-108628400D01*
X110758100Y-108572183D01*
X110691996Y-108528014D01*
X110618546Y-108497590D01*
X110540571Y-108482080D01*
X110461069Y-108482080D01*
X110383094Y-108497590D01*
X110309644Y-108528014D01*
X110243540Y-108572183D01*
X110187323Y-108628400D01*
X110143154Y-108694504D01*
X110112730Y-108767954D01*
X110097220Y-108845929D01*
X107968180Y-108845929D01*
X107968180Y-108835769D01*
X107952670Y-108757794D01*
X107922246Y-108684344D01*
X107878077Y-108618240D01*
X107821860Y-108562023D01*
X107755756Y-108517854D01*
X107682306Y-108487430D01*
X107604331Y-108471920D01*
X107524829Y-108471920D01*
X107446854Y-108487430D01*
X107373404Y-108517854D01*
X107307300Y-108562023D01*
X107302585Y-108566738D01*
X107240136Y-108525012D01*
X107166686Y-108494588D01*
X107088711Y-108479078D01*
X107009209Y-108479078D01*
X106931234Y-108494588D01*
X106857784Y-108525012D01*
X106791680Y-108569181D01*
X106735463Y-108625398D01*
X106691294Y-108691502D01*
X106660870Y-108764952D01*
X106645360Y-108842927D01*
X102848992Y-108842927D01*
X102837110Y-108783194D01*
X102806686Y-108709744D01*
X102762517Y-108643640D01*
X102706300Y-108587423D01*
X102640196Y-108543254D01*
X102566746Y-108512830D01*
X102488771Y-108497320D01*
X102409269Y-108497320D01*
X102331294Y-108512830D01*
X102257844Y-108543254D01*
X102236913Y-108557240D01*
X102242211Y-108182081D01*
X112111128Y-108179579D01*
X112110202Y-109537726D01*
X112110202Y-109537726D01*
G37*
X112110202Y-109537726D02*
X112080706Y-109525508D01*
X112002731Y-109509998D01*
X111923229Y-109509998D01*
X111845254Y-109525508D01*
X111771804Y-109555932D01*
X111705700Y-109600101D01*
X111649483Y-109656318D01*
X111605314Y-109722422D01*
X111574890Y-109795872D01*
X111559380Y-109873847D01*
X111559380Y-109953349D01*
X111574890Y-110031324D01*
X111605314Y-110104774D01*
X111649483Y-110170878D01*
X111705700Y-110227095D01*
X111771804Y-110271264D01*
X111845254Y-110301688D01*
X111923229Y-110317198D01*
X112002731Y-110317198D01*
X112080706Y-110301688D01*
X112109690Y-110289682D01*
X112103502Y-119369647D01*
X102804988Y-119371809D01*
X102834733Y-119351934D01*
X102897914Y-119288753D01*
X102947555Y-119214460D01*
X102981749Y-119131910D01*
X102999180Y-119044276D01*
X102999180Y-118954924D01*
X102988119Y-118899311D01*
X107137580Y-118899311D01*
X107137580Y-118973889D01*
X107152129Y-119047034D01*
X107180669Y-119115934D01*
X107222102Y-119177944D01*
X107274836Y-119230678D01*
X107336846Y-119272111D01*
X107405746Y-119300651D01*
X107478891Y-119315200D01*
X107553469Y-119315200D01*
X107626614Y-119300651D01*
X107695514Y-119272111D01*
X107757524Y-119230678D01*
X107810258Y-119177944D01*
X107851691Y-119115934D01*
X107880231Y-119047034D01*
X107894780Y-118973889D01*
X107894780Y-118936311D01*
X109213860Y-118936311D01*
X109213860Y-119010889D01*
X109228409Y-119084034D01*
X109256949Y-119152934D01*
X109298382Y-119214944D01*
X109351116Y-119267678D01*
X109413126Y-119309111D01*
X109482026Y-119337651D01*
X109555171Y-119352200D01*
X109629749Y-119352200D01*
X109702894Y-119337651D01*
X109771794Y-119309111D01*
X109833804Y-119267678D01*
X109886538Y-119214944D01*
X109927971Y-119152934D01*
X109956511Y-119084034D01*
X109971060Y-119010889D01*
X109971060Y-118936311D01*
X109956511Y-118863166D01*
X109927971Y-118794266D01*
X109886538Y-118732256D01*
X109833804Y-118679522D01*
X109771794Y-118638089D01*
X109702894Y-118609549D01*
X109629749Y-118595000D01*
X109555171Y-118595000D01*
X109482026Y-118609549D01*
X109413126Y-118638089D01*
X109351116Y-118679522D01*
X109298382Y-118732256D01*
X109256949Y-118794266D01*
X109228409Y-118863166D01*
X109213860Y-118936311D01*
X107894780Y-118936311D01*
X107894780Y-118899311D01*
X107880231Y-118826166D01*
X107851691Y-118757266D01*
X107810258Y-118695256D01*
X107757524Y-118642522D01*
X107695514Y-118601089D01*
X107626614Y-118572549D01*
X107553469Y-118558000D01*
X107478891Y-118558000D01*
X107405746Y-118572549D01*
X107336846Y-118601089D01*
X107274836Y-118642522D01*
X107222102Y-118695256D01*
X107180669Y-118757266D01*
X107152129Y-118826166D01*
X107137580Y-118899311D01*
X102988119Y-118899311D01*
X102981749Y-118867290D01*
X102947555Y-118784740D01*
X102897914Y-118710447D01*
X102834733Y-118647266D01*
X102760440Y-118597625D01*
X102677890Y-118563431D01*
X102590256Y-118546000D01*
X102500904Y-118546000D01*
X102413270Y-118563431D01*
X102330720Y-118597625D01*
X102256427Y-118647266D01*
X102193246Y-118710447D01*
X102177940Y-118733354D01*
X102173899Y-118090231D01*
X103674380Y-118090231D01*
X103674380Y-118164809D01*
X103688929Y-118237954D01*
X103717469Y-118306854D01*
X103758902Y-118368864D01*
X103811636Y-118421598D01*
X103873646Y-118463031D01*
X103942546Y-118491571D01*
X104015691Y-118506120D01*
X104090269Y-118506120D01*
X104163414Y-118491571D01*
X104232314Y-118463031D01*
X104294324Y-118421598D01*
X104347058Y-118368864D01*
X104388491Y-118306854D01*
X104417031Y-118237954D01*
X104431580Y-118164809D01*
X104431580Y-118090231D01*
X104417031Y-118017086D01*
X104413811Y-118009311D01*
X106027780Y-118009311D01*
X106027780Y-118083889D01*
X106042329Y-118157034D01*
X106070869Y-118225934D01*
X106112302Y-118287944D01*
X106165036Y-118340678D01*
X106227046Y-118382111D01*
X106295946Y-118410651D01*
X106369091Y-118425200D01*
X106443669Y-118425200D01*
X106516814Y-118410651D01*
X106585714Y-118382111D01*
X106647724Y-118340678D01*
X106700458Y-118287944D01*
X106741891Y-118225934D01*
X106770431Y-118157034D01*
X106784980Y-118083889D01*
X106784980Y-118009311D01*
X106770431Y-117936166D01*
X106741891Y-117867266D01*
X106700458Y-117805256D01*
X106647724Y-117752522D01*
X106585714Y-117711089D01*
X106516814Y-117682549D01*
X106443669Y-117668000D01*
X106369091Y-117668000D01*
X106295946Y-117682549D01*
X106227046Y-117711089D01*
X106165036Y-117752522D01*
X106112302Y-117805256D01*
X106070869Y-117867266D01*
X106042329Y-117936166D01*
X106027780Y-118009311D01*
X104413811Y-118009311D01*
X104388491Y-117948186D01*
X104347058Y-117886176D01*
X104294324Y-117833442D01*
X104232314Y-117792009D01*
X104163414Y-117763469D01*
X104090269Y-117748920D01*
X104015691Y-117748920D01*
X103942546Y-117763469D01*
X103873646Y-117792009D01*
X103811636Y-117833442D01*
X103758902Y-117886176D01*
X103717469Y-117948186D01*
X103688929Y-118017086D01*
X103674380Y-118090231D01*
X102173899Y-118090231D01*
X102170122Y-117489111D01*
X111325380Y-117489111D01*
X111325380Y-117563689D01*
X111339929Y-117636834D01*
X111368469Y-117705734D01*
X111409902Y-117767744D01*
X111462636Y-117820478D01*
X111524646Y-117861911D01*
X111593546Y-117890451D01*
X111666691Y-117905000D01*
X111741269Y-117905000D01*
X111814414Y-117890451D01*
X111883314Y-117861911D01*
X111945324Y-117820478D01*
X111998058Y-117767744D01*
X112039491Y-117705734D01*
X112068031Y-117636834D01*
X112082580Y-117563689D01*
X112082580Y-117489111D01*
X112068031Y-117415966D01*
X112039491Y-117347066D01*
X111998058Y-117285056D01*
X111945324Y-117232322D01*
X111883314Y-117190889D01*
X111814414Y-117162349D01*
X111741269Y-117147800D01*
X111666691Y-117147800D01*
X111593546Y-117162349D01*
X111524646Y-117190889D01*
X111462636Y-117232322D01*
X111409902Y-117285056D01*
X111368469Y-117347066D01*
X111339929Y-117415966D01*
X111325380Y-117489111D01*
X102170122Y-117489111D01*
X102162843Y-116330911D01*
X106553380Y-116330911D01*
X106553380Y-116405489D01*
X106567929Y-116478634D01*
X106596469Y-116547534D01*
X106637902Y-116609544D01*
X106690636Y-116662278D01*
X106752646Y-116703711D01*
X106821546Y-116732251D01*
X106894691Y-116746800D01*
X106969269Y-116746800D01*
X107042414Y-116732251D01*
X107111314Y-116703711D01*
X107114307Y-116701711D01*
X110480720Y-116701711D01*
X110480720Y-116776289D01*
X110495269Y-116849434D01*
X110523809Y-116918334D01*
X110565242Y-116980344D01*
X110617976Y-117033078D01*
X110679986Y-117074511D01*
X110748886Y-117103051D01*
X110822031Y-117117600D01*
X110896609Y-117117600D01*
X110969754Y-117103051D01*
X111038654Y-117074511D01*
X111100664Y-117033078D01*
X111153398Y-116980344D01*
X111194831Y-116918334D01*
X111223371Y-116849434D01*
X111237920Y-116776289D01*
X111237920Y-116701711D01*
X111223371Y-116628566D01*
X111194831Y-116559666D01*
X111153398Y-116497656D01*
X111100664Y-116444922D01*
X111038654Y-116403489D01*
X110969754Y-116374949D01*
X110896609Y-116360400D01*
X110822031Y-116360400D01*
X110748886Y-116374949D01*
X110679986Y-116403489D01*
X110617976Y-116444922D01*
X110565242Y-116497656D01*
X110523809Y-116559666D01*
X110495269Y-116628566D01*
X110480720Y-116701711D01*
X107114307Y-116701711D01*
X107173324Y-116662278D01*
X107226058Y-116609544D01*
X107267491Y-116547534D01*
X107296031Y-116478634D01*
X107310580Y-116405489D01*
X107310580Y-116330911D01*
X107296031Y-116257766D01*
X107267491Y-116188866D01*
X107226058Y-116126856D01*
X107173324Y-116074122D01*
X107111314Y-116032689D01*
X107042414Y-116004149D01*
X106969269Y-115989600D01*
X106894691Y-115989600D01*
X106821546Y-116004149D01*
X106752646Y-116032689D01*
X106690636Y-116074122D01*
X106637902Y-116126856D01*
X106596469Y-116188866D01*
X106567929Y-116257766D01*
X106553380Y-116330911D01*
X102162843Y-116330911D01*
X102157032Y-115406311D01*
X102954380Y-115406311D01*
X102954380Y-115480889D01*
X102968929Y-115554034D01*
X102997469Y-115622934D01*
X103038902Y-115684944D01*
X103091636Y-115737678D01*
X103153646Y-115779111D01*
X103222546Y-115807651D01*
X103295691Y-115822200D01*
X103370269Y-115822200D01*
X103443414Y-115807651D01*
X103512314Y-115779111D01*
X103574324Y-115737678D01*
X103627058Y-115684944D01*
X103668491Y-115622934D01*
X103697031Y-115554034D01*
X103711580Y-115480889D01*
X103711580Y-115406311D01*
X103697031Y-115333166D01*
X103668491Y-115264266D01*
X103627058Y-115202256D01*
X103574324Y-115149522D01*
X103545622Y-115130344D01*
X103605225Y-115142200D01*
X103684727Y-115142200D01*
X103762702Y-115126690D01*
X103836152Y-115096266D01*
X103871680Y-115072527D01*
X103871680Y-115074771D01*
X103887190Y-115152746D01*
X103917614Y-115226196D01*
X103961783Y-115292300D01*
X104018000Y-115348517D01*
X104084104Y-115392686D01*
X104157554Y-115423110D01*
X104235529Y-115438620D01*
X104315031Y-115438620D01*
X104393006Y-115423110D01*
X104466456Y-115392686D01*
X104504338Y-115367374D01*
X104493980Y-115419449D01*
X104493980Y-115498951D01*
X104509490Y-115576926D01*
X104539914Y-115650376D01*
X104584083Y-115716480D01*
X104640300Y-115772697D01*
X104706404Y-115816866D01*
X104779854Y-115847290D01*
X104857829Y-115862800D01*
X104937331Y-115862800D01*
X105015306Y-115847290D01*
X105088756Y-115816866D01*
X105154860Y-115772697D01*
X105177846Y-115749711D01*
X105382440Y-115749711D01*
X105382440Y-115824289D01*
X105396989Y-115897434D01*
X105425529Y-115966334D01*
X105466962Y-116028344D01*
X105519696Y-116081078D01*
X105581706Y-116122511D01*
X105650606Y-116151051D01*
X105723751Y-116165600D01*
X105798329Y-116165600D01*
X105871474Y-116151051D01*
X105940374Y-116122511D01*
X106002384Y-116081078D01*
X106055118Y-116028344D01*
X106096551Y-115966334D01*
X106125091Y-115897434D01*
X106139640Y-115824289D01*
X106139640Y-115749711D01*
X106125091Y-115676566D01*
X106096551Y-115607666D01*
X106055118Y-115545656D01*
X106002384Y-115492922D01*
X105940374Y-115451489D01*
X105871474Y-115422949D01*
X105798329Y-115408400D01*
X105723751Y-115408400D01*
X105650606Y-115422949D01*
X105581706Y-115451489D01*
X105519696Y-115492922D01*
X105466962Y-115545656D01*
X105425529Y-115607666D01*
X105396989Y-115676566D01*
X105382440Y-115749711D01*
X105177846Y-115749711D01*
X105211077Y-115716480D01*
X105255246Y-115650376D01*
X105285670Y-115576926D01*
X105301180Y-115498951D01*
X105301180Y-115419449D01*
X105295607Y-115391431D01*
X108735380Y-115391431D01*
X108735380Y-115466009D01*
X108749929Y-115539154D01*
X108778469Y-115608054D01*
X108819902Y-115670064D01*
X108872636Y-115722798D01*
X108934646Y-115764231D01*
X109003546Y-115792771D01*
X109076691Y-115807320D01*
X109151269Y-115807320D01*
X109224414Y-115792771D01*
X109232284Y-115789511D01*
X110472780Y-115789511D01*
X110472780Y-115864089D01*
X110487329Y-115937234D01*
X110515869Y-116006134D01*
X110557302Y-116068144D01*
X110610036Y-116120878D01*
X110672046Y-116162311D01*
X110740946Y-116190851D01*
X110814091Y-116205400D01*
X110888669Y-116205400D01*
X110961814Y-116190851D01*
X111030714Y-116162311D01*
X111092724Y-116120878D01*
X111145458Y-116068144D01*
X111186891Y-116006134D01*
X111215431Y-115937234D01*
X111229980Y-115864089D01*
X111229980Y-115789511D01*
X111215431Y-115716366D01*
X111186891Y-115647466D01*
X111145458Y-115585456D01*
X111092724Y-115532722D01*
X111030714Y-115491289D01*
X110961814Y-115462749D01*
X110888669Y-115448200D01*
X110814091Y-115448200D01*
X110740946Y-115462749D01*
X110672046Y-115491289D01*
X110610036Y-115532722D01*
X110557302Y-115585456D01*
X110515869Y-115647466D01*
X110487329Y-115716366D01*
X110472780Y-115789511D01*
X109232284Y-115789511D01*
X109293314Y-115764231D01*
X109355324Y-115722798D01*
X109408058Y-115670064D01*
X109449491Y-115608054D01*
X109478031Y-115539154D01*
X109492580Y-115466009D01*
X109492580Y-115391431D01*
X109478031Y-115318286D01*
X109449491Y-115249386D01*
X109408058Y-115187376D01*
X109355324Y-115134642D01*
X109293314Y-115093209D01*
X109224414Y-115064669D01*
X109151269Y-115050120D01*
X109076691Y-115050120D01*
X109003546Y-115064669D01*
X108934646Y-115093209D01*
X108872636Y-115134642D01*
X108819902Y-115187376D01*
X108778469Y-115249386D01*
X108749929Y-115318286D01*
X108735380Y-115391431D01*
X105295607Y-115391431D01*
X105285670Y-115341474D01*
X105255246Y-115268024D01*
X105211077Y-115201920D01*
X105154860Y-115145703D01*
X105088756Y-115101534D01*
X105015306Y-115071110D01*
X104937331Y-115055600D01*
X104857829Y-115055600D01*
X104779854Y-115071110D01*
X104706404Y-115101534D01*
X104668522Y-115126846D01*
X104678880Y-115074771D01*
X104678880Y-114995269D01*
X104663370Y-114917294D01*
X104645136Y-114873271D01*
X105374960Y-114873271D01*
X105374960Y-114947849D01*
X105389509Y-115020994D01*
X105418049Y-115089894D01*
X105459482Y-115151904D01*
X105512216Y-115204638D01*
X105574226Y-115246071D01*
X105643126Y-115274611D01*
X105716271Y-115289160D01*
X105790849Y-115289160D01*
X105863994Y-115274611D01*
X105932894Y-115246071D01*
X105994904Y-115204638D01*
X106047638Y-115151904D01*
X106089071Y-115089894D01*
X106117611Y-115020994D01*
X106129283Y-114962311D01*
X110498180Y-114962311D01*
X110498180Y-115036889D01*
X110512729Y-115110034D01*
X110541269Y-115178934D01*
X110582702Y-115240944D01*
X110635436Y-115293678D01*
X110697446Y-115335111D01*
X110766346Y-115363651D01*
X110839491Y-115378200D01*
X110914069Y-115378200D01*
X110987214Y-115363651D01*
X111056114Y-115335111D01*
X111118124Y-115293678D01*
X111170858Y-115240944D01*
X111212291Y-115178934D01*
X111240831Y-115110034D01*
X111255380Y-115036889D01*
X111255380Y-114962311D01*
X111240831Y-114889166D01*
X111212291Y-114820266D01*
X111170858Y-114758256D01*
X111118124Y-114705522D01*
X111056114Y-114664089D01*
X110987214Y-114635549D01*
X110914069Y-114621000D01*
X110839491Y-114621000D01*
X110766346Y-114635549D01*
X110697446Y-114664089D01*
X110635436Y-114705522D01*
X110582702Y-114758256D01*
X110541269Y-114820266D01*
X110512729Y-114889166D01*
X110498180Y-114962311D01*
X106129283Y-114962311D01*
X106132160Y-114947849D01*
X106132160Y-114873271D01*
X106117611Y-114800126D01*
X106089071Y-114731226D01*
X106047638Y-114669216D01*
X105994904Y-114616482D01*
X105932894Y-114575049D01*
X105863994Y-114546509D01*
X105790849Y-114531960D01*
X105716271Y-114531960D01*
X105643126Y-114546509D01*
X105574226Y-114575049D01*
X105512216Y-114616482D01*
X105459482Y-114669216D01*
X105418049Y-114731226D01*
X105389509Y-114800126D01*
X105374960Y-114873271D01*
X104645136Y-114873271D01*
X104632946Y-114843844D01*
X104588777Y-114777740D01*
X104532560Y-114721523D01*
X104466456Y-114677354D01*
X104393006Y-114646930D01*
X104315031Y-114631420D01*
X104235529Y-114631420D01*
X104157554Y-114646930D01*
X104084104Y-114677354D01*
X104048576Y-114701093D01*
X104048576Y-114698849D01*
X104033066Y-114620874D01*
X104002642Y-114547424D01*
X103958473Y-114481320D01*
X103902256Y-114425103D01*
X103836152Y-114380934D01*
X103762702Y-114350510D01*
X103715090Y-114341040D01*
X103748214Y-114334451D01*
X103817114Y-114305911D01*
X103879124Y-114264478D01*
X103931858Y-114211744D01*
X103973291Y-114149734D01*
X104001831Y-114080834D01*
X104016380Y-114007689D01*
X104016380Y-113933111D01*
X104015962Y-113931009D01*
X105301700Y-113931009D01*
X105301700Y-114010511D01*
X105317210Y-114088486D01*
X105347634Y-114161936D01*
X105391803Y-114228040D01*
X105448020Y-114284257D01*
X105514124Y-114328426D01*
X105587574Y-114358850D01*
X105665549Y-114374360D01*
X105745051Y-114374360D01*
X105823026Y-114358850D01*
X105896476Y-114328426D01*
X105962580Y-114284257D01*
X106018797Y-114228040D01*
X106062966Y-114161936D01*
X106093390Y-114088486D01*
X106108900Y-114010511D01*
X106108900Y-113980660D01*
X106128591Y-113980660D01*
X106206566Y-113965150D01*
X106280016Y-113934726D01*
X106346120Y-113890557D01*
X106402337Y-113834340D01*
X106446506Y-113768236D01*
X106476930Y-113694786D01*
X106492440Y-113616811D01*
X106492440Y-113538555D01*
X106569789Y-113553940D01*
X106649291Y-113553940D01*
X106727266Y-113538430D01*
X106800716Y-113508006D01*
X106866820Y-113463837D01*
X106923037Y-113407620D01*
X106967206Y-113341516D01*
X106972899Y-113327771D01*
X107154320Y-113327771D01*
X107154320Y-113402349D01*
X107168869Y-113475494D01*
X107197409Y-113544394D01*
X107238842Y-113606404D01*
X107291576Y-113659138D01*
X107353586Y-113700571D01*
X107422486Y-113729111D01*
X107495631Y-113743660D01*
X107570209Y-113743660D01*
X107643354Y-113729111D01*
X107712254Y-113700571D01*
X107774264Y-113659138D01*
X107826998Y-113606404D01*
X107868431Y-113544394D01*
X107896971Y-113475494D01*
X107911520Y-113402349D01*
X107911520Y-113327771D01*
X107896971Y-113254626D01*
X107868431Y-113185726D01*
X107826998Y-113123716D01*
X107774264Y-113070982D01*
X107712254Y-113029549D01*
X107643354Y-113001009D01*
X107570209Y-112986460D01*
X107495631Y-112986460D01*
X107422486Y-113001009D01*
X107353586Y-113029549D01*
X107291576Y-113070982D01*
X107238842Y-113123716D01*
X107197409Y-113185726D01*
X107168869Y-113254626D01*
X107154320Y-113327771D01*
X106972899Y-113327771D01*
X106997630Y-113268066D01*
X107013140Y-113190091D01*
X107013140Y-113110589D01*
X106997630Y-113032614D01*
X106967206Y-112959164D01*
X106923037Y-112893060D01*
X106866820Y-112836843D01*
X106800716Y-112792674D01*
X106727266Y-112762250D01*
X106649291Y-112746740D01*
X106569789Y-112746740D01*
X106494817Y-112761653D01*
X106494980Y-112760831D01*
X106494980Y-112681329D01*
X106479470Y-112603354D01*
X106449046Y-112529904D01*
X106404877Y-112463800D01*
X106348660Y-112407583D01*
X106282556Y-112363414D01*
X106209106Y-112332990D01*
X106131131Y-112317480D01*
X106051629Y-112317480D01*
X105973654Y-112332990D01*
X105900204Y-112363414D01*
X105834100Y-112407583D01*
X105777883Y-112463800D01*
X105733714Y-112529904D01*
X105703290Y-112603354D01*
X105687780Y-112681329D01*
X105687780Y-112760831D01*
X105703290Y-112838806D01*
X105733714Y-112912256D01*
X105777883Y-112978360D01*
X105834100Y-113034577D01*
X105900204Y-113078746D01*
X105973654Y-113109170D01*
X106051629Y-113124680D01*
X106131131Y-113124680D01*
X106206103Y-113109767D01*
X106205940Y-113110589D01*
X106205940Y-113188845D01*
X106128591Y-113173460D01*
X106049089Y-113173460D01*
X105971114Y-113188970D01*
X105897664Y-113219394D01*
X105831560Y-113263563D01*
X105775343Y-113319780D01*
X105731174Y-113385884D01*
X105700750Y-113459334D01*
X105685240Y-113537309D01*
X105685240Y-113567160D01*
X105665549Y-113567160D01*
X105587574Y-113582670D01*
X105514124Y-113613094D01*
X105448020Y-113657263D01*
X105391803Y-113713480D01*
X105347634Y-113779584D01*
X105317210Y-113853034D01*
X105301700Y-113931009D01*
X104015962Y-113931009D01*
X104001831Y-113859966D01*
X103973291Y-113791066D01*
X103931858Y-113729056D01*
X103879124Y-113676322D01*
X103817114Y-113634889D01*
X103748214Y-113606349D01*
X103675069Y-113591800D01*
X103600491Y-113591800D01*
X103527346Y-113606349D01*
X103458446Y-113634889D01*
X103396436Y-113676322D01*
X103343702Y-113729056D01*
X103302269Y-113791066D01*
X103273729Y-113859966D01*
X103259180Y-113933111D01*
X103259180Y-114007689D01*
X103273729Y-114080834D01*
X103302269Y-114149734D01*
X103343702Y-114211744D01*
X103396436Y-114264478D01*
X103458446Y-114305911D01*
X103527346Y-114334451D01*
X103567666Y-114342471D01*
X103527250Y-114350510D01*
X103453800Y-114380934D01*
X103387696Y-114425103D01*
X103331479Y-114481320D01*
X103287310Y-114547424D01*
X103256886Y-114620874D01*
X103241376Y-114698849D01*
X103241376Y-114778351D01*
X103256886Y-114856326D01*
X103287310Y-114929776D01*
X103331479Y-114995880D01*
X103387696Y-115052097D01*
X103422579Y-115075405D01*
X103370269Y-115065000D01*
X103295691Y-115065000D01*
X103222546Y-115079549D01*
X103153646Y-115108089D01*
X103091636Y-115149522D01*
X103038902Y-115202256D01*
X102997469Y-115264266D01*
X102968929Y-115333166D01*
X102954380Y-115406311D01*
X102157032Y-115406311D01*
X102151843Y-114580663D01*
X102177400Y-112771066D01*
X102184669Y-112788614D01*
X102226102Y-112850624D01*
X102278836Y-112903358D01*
X102340846Y-112944791D01*
X102409746Y-112973331D01*
X102482891Y-112987880D01*
X102557469Y-112987880D01*
X102630614Y-112973331D01*
X102699514Y-112944791D01*
X102761524Y-112903358D01*
X102814258Y-112850624D01*
X102855691Y-112788614D01*
X102884231Y-112719714D01*
X102898780Y-112646569D01*
X102898780Y-112571991D01*
X102884231Y-112498846D01*
X102855691Y-112429946D01*
X102814258Y-112367936D01*
X102761524Y-112315202D01*
X102699514Y-112273769D01*
X102630614Y-112245229D01*
X102557469Y-112230680D01*
X102482891Y-112230680D01*
X102409746Y-112245229D01*
X102340846Y-112273769D01*
X102278836Y-112315202D01*
X102226102Y-112367936D01*
X102184669Y-112429946D01*
X102182131Y-112436072D01*
X102194162Y-111584111D01*
X108085180Y-111584111D01*
X108085180Y-111658689D01*
X108099729Y-111731834D01*
X108128269Y-111800734D01*
X108169702Y-111862744D01*
X108222436Y-111915478D01*
X108284446Y-111956911D01*
X108353346Y-111985451D01*
X108426491Y-112000000D01*
X108501069Y-112000000D01*
X108574214Y-111985451D01*
X108618681Y-111967032D01*
X108618680Y-114029462D01*
X108617207Y-114044420D01*
X108618680Y-114059378D01*
X108618680Y-114059385D01*
X108623091Y-114104170D01*
X108640520Y-114161625D01*
X108668822Y-114214576D01*
X108706912Y-114260988D01*
X108718540Y-114270531D01*
X108779014Y-114331006D01*
X108767929Y-114357766D01*
X108753380Y-114430911D01*
X108753380Y-114505489D01*
X108767929Y-114578634D01*
X108796469Y-114647534D01*
X108837902Y-114709544D01*
X108890636Y-114762278D01*
X108952646Y-114803711D01*
X109021546Y-114832251D01*
X109094691Y-114846800D01*
X109169269Y-114846800D01*
X109242414Y-114832251D01*
X109311314Y-114803711D01*
X109373324Y-114762278D01*
X109426058Y-114709544D01*
X109467491Y-114647534D01*
X109496031Y-114578634D01*
X109510580Y-114505489D01*
X109510580Y-114430911D01*
X109496031Y-114357766D01*
X109467491Y-114288866D01*
X109437351Y-114243757D01*
X109436780Y-114237962D01*
X109436780Y-114237955D01*
X109432369Y-114193169D01*
X109414940Y-114135714D01*
X109386638Y-114082763D01*
X109372778Y-114065875D01*
X109358089Y-114047976D01*
X109358083Y-114047970D01*
X109348548Y-114036352D01*
X109336929Y-114026816D01*
X109228280Y-113918168D01*
X109228280Y-113298111D01*
X110460580Y-113298111D01*
X110460580Y-113372689D01*
X110475129Y-113445834D01*
X110503669Y-113514734D01*
X110545102Y-113576744D01*
X110597836Y-113629478D01*
X110659846Y-113670911D01*
X110728746Y-113699451D01*
X110801891Y-113714000D01*
X110876469Y-113714000D01*
X110949614Y-113699451D01*
X111018514Y-113670911D01*
X111080524Y-113629478D01*
X111133258Y-113576744D01*
X111174691Y-113514734D01*
X111203231Y-113445834D01*
X111217780Y-113372689D01*
X111217780Y-113298111D01*
X111203231Y-113224966D01*
X111174691Y-113156066D01*
X111133258Y-113094056D01*
X111080524Y-113041322D01*
X111018514Y-112999889D01*
X110949614Y-112971349D01*
X110876469Y-112956800D01*
X110801891Y-112956800D01*
X110728746Y-112971349D01*
X110659846Y-112999889D01*
X110597836Y-113041322D01*
X110545102Y-113094056D01*
X110503669Y-113156066D01*
X110475129Y-113224966D01*
X110460580Y-113298111D01*
X109228280Y-113298111D01*
X109228280Y-112795782D01*
X109293146Y-112822651D01*
X109366291Y-112837200D01*
X109440869Y-112837200D01*
X109514014Y-112822651D01*
X109582914Y-112794111D01*
X109644924Y-112752678D01*
X109697658Y-112699944D01*
X109739091Y-112637934D01*
X109767631Y-112569034D01*
X109782180Y-112495889D01*
X109782180Y-112421311D01*
X109772076Y-112370511D01*
X110415180Y-112370511D01*
X110415180Y-112445089D01*
X110429729Y-112518234D01*
X110458269Y-112587134D01*
X110499702Y-112649144D01*
X110552436Y-112701878D01*
X110614446Y-112743311D01*
X110683346Y-112771851D01*
X110756491Y-112786400D01*
X110831069Y-112786400D01*
X110904214Y-112771851D01*
X110973114Y-112743311D01*
X111035124Y-112701878D01*
X111087858Y-112649144D01*
X111129291Y-112587134D01*
X111157831Y-112518234D01*
X111172380Y-112445089D01*
X111172380Y-112370511D01*
X111157831Y-112297366D01*
X111129291Y-112228466D01*
X111087858Y-112166456D01*
X111035124Y-112113722D01*
X110973114Y-112072289D01*
X110904214Y-112043749D01*
X110831069Y-112029200D01*
X110756491Y-112029200D01*
X110683346Y-112043749D01*
X110614446Y-112072289D01*
X110552436Y-112113722D01*
X110499702Y-112166456D01*
X110458269Y-112228466D01*
X110429729Y-112297366D01*
X110415180Y-112370511D01*
X109772076Y-112370511D01*
X109767631Y-112348166D01*
X109739091Y-112279266D01*
X109697658Y-112217256D01*
X109644924Y-112164522D01*
X109582914Y-112123089D01*
X109514014Y-112094549D01*
X109440869Y-112080000D01*
X109366291Y-112080000D01*
X109293146Y-112094549D01*
X109228280Y-112121418D01*
X109228280Y-111320451D01*
X109345082Y-111203649D01*
X109878780Y-111203649D01*
X109878780Y-111283151D01*
X109894290Y-111361126D01*
X109924714Y-111434576D01*
X109968883Y-111500680D01*
X110025100Y-111556897D01*
X110091204Y-111601066D01*
X110164654Y-111631490D01*
X110242629Y-111647000D01*
X110322131Y-111647000D01*
X110400106Y-111631490D01*
X110473556Y-111601066D01*
X110539660Y-111556897D01*
X110595877Y-111500680D01*
X110640046Y-111434576D01*
X110670470Y-111361126D01*
X110685980Y-111283151D01*
X110685980Y-111203649D01*
X110670470Y-111125674D01*
X110658679Y-111097207D01*
X110726811Y-111097207D01*
X110804786Y-111081697D01*
X110878236Y-111051273D01*
X110944340Y-111007104D01*
X111000557Y-110950887D01*
X111044726Y-110884783D01*
X111075150Y-110811333D01*
X111090660Y-110733358D01*
X111090660Y-110653856D01*
X111075150Y-110575881D01*
X111044726Y-110502431D01*
X111000557Y-110436327D01*
X110944340Y-110380110D01*
X110878236Y-110335941D01*
X110804786Y-110305517D01*
X110726811Y-110290007D01*
X110647309Y-110290007D01*
X110569334Y-110305517D01*
X110495884Y-110335941D01*
X110429780Y-110380110D01*
X110373563Y-110436327D01*
X110329394Y-110502431D01*
X110298970Y-110575881D01*
X110283460Y-110653856D01*
X110283460Y-110733358D01*
X110298970Y-110811333D01*
X110310761Y-110839800D01*
X110242629Y-110839800D01*
X110164654Y-110855310D01*
X110091204Y-110885734D01*
X110025100Y-110929903D01*
X109968883Y-110986120D01*
X109924714Y-111052224D01*
X109894290Y-111125674D01*
X109878780Y-111203649D01*
X109345082Y-111203649D01*
X109487696Y-111061035D01*
X109541914Y-111050251D01*
X109610814Y-111021711D01*
X109672824Y-110980278D01*
X109725558Y-110927544D01*
X109766991Y-110865534D01*
X109795531Y-110796634D01*
X109810080Y-110723489D01*
X109810080Y-110648911D01*
X109795531Y-110575766D01*
X109766991Y-110506866D01*
X109725558Y-110444856D01*
X109672824Y-110392122D01*
X109610814Y-110350689D01*
X109541914Y-110322149D01*
X109468769Y-110307600D01*
X109394191Y-110307600D01*
X109321046Y-110322149D01*
X109252146Y-110350689D01*
X109190136Y-110392122D01*
X109137402Y-110444856D01*
X109095969Y-110506866D01*
X109067429Y-110575766D01*
X109056645Y-110629984D01*
X108718536Y-110968093D01*
X108706913Y-110977632D01*
X108668823Y-111024043D01*
X108654815Y-111050251D01*
X108640520Y-111076995D01*
X108623091Y-111134449D01*
X108617207Y-111194200D01*
X108618681Y-111209168D01*
X108618681Y-111275768D01*
X108574214Y-111257349D01*
X108501069Y-111242800D01*
X108426491Y-111242800D01*
X108353346Y-111257349D01*
X108284446Y-111285889D01*
X108222436Y-111327322D01*
X108169702Y-111380056D01*
X108128269Y-111442066D01*
X108099729Y-111510966D01*
X108085180Y-111584111D01*
X102194162Y-111584111D01*
X102206732Y-110694111D01*
X107115720Y-110694111D01*
X107115720Y-110768689D01*
X107130269Y-110841834D01*
X107158809Y-110910734D01*
X107200242Y-110972744D01*
X107252976Y-111025478D01*
X107314986Y-111066911D01*
X107383886Y-111095451D01*
X107457031Y-111110000D01*
X107531609Y-111110000D01*
X107604754Y-111095451D01*
X107673654Y-111066911D01*
X107735664Y-111025478D01*
X107788398Y-110972744D01*
X107829831Y-110910734D01*
X107858371Y-110841834D01*
X107872920Y-110768689D01*
X107872920Y-110694111D01*
X107858371Y-110620966D01*
X107829831Y-110552066D01*
X107788398Y-110490056D01*
X107735664Y-110437322D01*
X107673654Y-110395889D01*
X107604754Y-110367349D01*
X107531609Y-110352800D01*
X107457031Y-110352800D01*
X107383886Y-110367349D01*
X107314986Y-110395889D01*
X107252976Y-110437322D01*
X107200242Y-110490056D01*
X107158809Y-110552066D01*
X107130269Y-110620966D01*
X107115720Y-110694111D01*
X102206732Y-110694111D01*
X102219871Y-109763849D01*
X106377580Y-109763849D01*
X106377580Y-109843351D01*
X106393090Y-109921326D01*
X106423514Y-109994776D01*
X106467683Y-110060880D01*
X106523900Y-110117097D01*
X106590004Y-110161266D01*
X106663454Y-110191690D01*
X106741429Y-110207200D01*
X106820931Y-110207200D01*
X106898906Y-110191690D01*
X106972356Y-110161266D01*
X107038460Y-110117097D01*
X107094677Y-110060880D01*
X107138846Y-109994776D01*
X107169270Y-109921326D01*
X107184780Y-109843351D01*
X107184780Y-109763849D01*
X108135360Y-109763849D01*
X108135360Y-109843351D01*
X108150870Y-109921326D01*
X108181294Y-109994776D01*
X108225463Y-110060880D01*
X108281680Y-110117097D01*
X108347784Y-110161266D01*
X108421234Y-110191690D01*
X108499209Y-110207200D01*
X108578711Y-110207200D01*
X108656686Y-110191690D01*
X108730136Y-110161266D01*
X108796240Y-110117097D01*
X108852457Y-110060880D01*
X108896626Y-109994776D01*
X108927050Y-109921326D01*
X108942560Y-109843351D01*
X108942560Y-109766311D01*
X109902580Y-109766311D01*
X109902580Y-109840889D01*
X109917129Y-109914034D01*
X109945669Y-109982934D01*
X109987102Y-110044944D01*
X110039836Y-110097678D01*
X110101846Y-110139111D01*
X110170746Y-110167651D01*
X110243891Y-110182200D01*
X110318469Y-110182200D01*
X110391614Y-110167651D01*
X110460514Y-110139111D01*
X110522524Y-110097678D01*
X110575258Y-110044944D01*
X110616691Y-109982934D01*
X110645231Y-109914034D01*
X110659780Y-109840889D01*
X110659780Y-109766311D01*
X110645231Y-109693166D01*
X110616691Y-109624266D01*
X110575258Y-109562256D01*
X110522524Y-109509522D01*
X110460514Y-109468089D01*
X110391614Y-109439549D01*
X110318469Y-109425000D01*
X110243891Y-109425000D01*
X110170746Y-109439549D01*
X110101846Y-109468089D01*
X110039836Y-109509522D01*
X109987102Y-109562256D01*
X109945669Y-109624266D01*
X109917129Y-109693166D01*
X109902580Y-109766311D01*
X108942560Y-109766311D01*
X108942560Y-109763849D01*
X108927050Y-109685874D01*
X108896626Y-109612424D01*
X108852457Y-109546320D01*
X108796240Y-109490103D01*
X108730136Y-109445934D01*
X108656686Y-109415510D01*
X108578711Y-109400000D01*
X108499209Y-109400000D01*
X108421234Y-109415510D01*
X108347784Y-109445934D01*
X108281680Y-109490103D01*
X108225463Y-109546320D01*
X108181294Y-109612424D01*
X108150870Y-109685874D01*
X108135360Y-109763849D01*
X107184780Y-109763849D01*
X107169270Y-109685874D01*
X107138846Y-109612424D01*
X107094677Y-109546320D01*
X107038460Y-109490103D01*
X106972356Y-109445934D01*
X106898906Y-109415510D01*
X106820931Y-109400000D01*
X106741429Y-109400000D01*
X106663454Y-109415510D01*
X106590004Y-109445934D01*
X106523900Y-109490103D01*
X106467683Y-109546320D01*
X106423514Y-109612424D01*
X106393090Y-109685874D01*
X106377580Y-109763849D01*
X102219871Y-109763849D01*
X102227296Y-109238174D01*
X102257844Y-109258586D01*
X102331294Y-109289010D01*
X102409269Y-109304520D01*
X102488771Y-109304520D01*
X102566746Y-109289010D01*
X102640196Y-109258586D01*
X102706300Y-109214417D01*
X102762517Y-109158200D01*
X102806686Y-109092096D01*
X102837110Y-109018646D01*
X102852620Y-108940671D01*
X102852620Y-108861169D01*
X102848992Y-108842927D01*
X106645360Y-108842927D01*
X106645360Y-108922429D01*
X106660870Y-109000404D01*
X106691294Y-109073854D01*
X106735463Y-109139958D01*
X106791680Y-109196175D01*
X106857784Y-109240344D01*
X106931234Y-109270768D01*
X107009209Y-109286278D01*
X107088711Y-109286278D01*
X107166686Y-109270768D01*
X107240136Y-109240344D01*
X107306240Y-109196175D01*
X107310955Y-109191460D01*
X107373404Y-109233186D01*
X107446854Y-109263610D01*
X107524829Y-109279120D01*
X107604331Y-109279120D01*
X107682306Y-109263610D01*
X107755756Y-109233186D01*
X107821860Y-109189017D01*
X107878077Y-109132800D01*
X107922246Y-109066696D01*
X107952670Y-108993246D01*
X107968180Y-108915271D01*
X107968180Y-108845929D01*
X110097220Y-108845929D01*
X110097220Y-108925431D01*
X110112730Y-109003406D01*
X110143154Y-109076856D01*
X110187323Y-109142960D01*
X110243540Y-109199177D01*
X110309644Y-109243346D01*
X110383094Y-109273770D01*
X110461069Y-109289280D01*
X110540571Y-109289280D01*
X110618546Y-109273770D01*
X110691996Y-109243346D01*
X110758100Y-109199177D01*
X110814317Y-109142960D01*
X110858486Y-109076856D01*
X110888910Y-109003406D01*
X110904420Y-108925431D01*
X110904420Y-108845929D01*
X110888910Y-108767954D01*
X110858486Y-108694504D01*
X110814317Y-108628400D01*
X110758100Y-108572183D01*
X110691996Y-108528014D01*
X110618546Y-108497590D01*
X110540571Y-108482080D01*
X110461069Y-108482080D01*
X110383094Y-108497590D01*
X110309644Y-108528014D01*
X110243540Y-108572183D01*
X110187323Y-108628400D01*
X110143154Y-108694504D01*
X110112730Y-108767954D01*
X110097220Y-108845929D01*
X107968180Y-108845929D01*
X107968180Y-108835769D01*
X107952670Y-108757794D01*
X107922246Y-108684344D01*
X107878077Y-108618240D01*
X107821860Y-108562023D01*
X107755756Y-108517854D01*
X107682306Y-108487430D01*
X107604331Y-108471920D01*
X107524829Y-108471920D01*
X107446854Y-108487430D01*
X107373404Y-108517854D01*
X107307300Y-108562023D01*
X107302585Y-108566738D01*
X107240136Y-108525012D01*
X107166686Y-108494588D01*
X107088711Y-108479078D01*
X107009209Y-108479078D01*
X106931234Y-108494588D01*
X106857784Y-108525012D01*
X106791680Y-108569181D01*
X106735463Y-108625398D01*
X106691294Y-108691502D01*
X106660870Y-108764952D01*
X106645360Y-108842927D01*
X102848992Y-108842927D01*
X102837110Y-108783194D01*
X102806686Y-108709744D01*
X102762517Y-108643640D01*
X102706300Y-108587423D01*
X102640196Y-108543254D01*
X102566746Y-108512830D01*
X102488771Y-108497320D01*
X102409269Y-108497320D01*
X102331294Y-108512830D01*
X102257844Y-108543254D01*
X102236913Y-108557240D01*
X102242211Y-108182081D01*
X112111128Y-108179579D01*
X112110202Y-109537726D01*
G36*
X112291483Y-86077035D02*
G01*
X112287002Y-86081516D01*
X112245569Y-86143526D01*
X112217029Y-86212426D01*
X112202480Y-86285571D01*
X112202480Y-86360149D01*
X112217029Y-86433294D01*
X112245569Y-86502194D01*
X112287002Y-86564204D01*
X112288605Y-86565807D01*
X112287024Y-86834371D01*
X112019740Y-86567088D01*
X112019740Y-86557682D01*
X112047206Y-86516576D01*
X112077630Y-86443126D01*
X112093140Y-86365151D01*
X112093140Y-86285649D01*
X112077630Y-86207674D01*
X112047206Y-86134224D01*
X112003037Y-86068120D01*
X111946820Y-86011903D01*
X111880716Y-85967734D01*
X111807266Y-85937310D01*
X111729291Y-85921800D01*
X111649789Y-85921800D01*
X111571814Y-85937310D01*
X111498364Y-85967734D01*
X111432260Y-86011903D01*
X111376043Y-86068120D01*
X111331874Y-86134224D01*
X111301450Y-86207674D01*
X111285940Y-86285649D01*
X111285940Y-86365151D01*
X111301450Y-86443126D01*
X111331874Y-86516576D01*
X111359340Y-86557682D01*
X111359340Y-86687647D01*
X111357743Y-86703860D01*
X111359340Y-86720073D01*
X111359340Y-86720075D01*
X111364118Y-86768590D01*
X111376575Y-86809651D01*
X111383001Y-86830833D01*
X111413661Y-86888197D01*
X111437582Y-86917344D01*
X111454925Y-86938476D01*
X111467522Y-86948814D01*
X111990081Y-87471375D01*
X111990082Y-89210700D01*
X111929791Y-89210700D01*
X111856646Y-89225249D01*
X111787746Y-89253789D01*
X111725736Y-89295222D01*
X111686070Y-89334888D01*
X111648944Y-89297762D01*
X111586934Y-89256329D01*
X111518034Y-89227789D01*
X111444889Y-89213240D01*
X111370311Y-89213240D01*
X111307674Y-89225699D01*
X111308280Y-89222651D01*
X111308280Y-89143149D01*
X111292770Y-89065174D01*
X111262346Y-88991724D01*
X111218177Y-88925620D01*
X111161960Y-88869403D01*
X111095856Y-88825234D01*
X111022406Y-88794810D01*
X110944431Y-88779300D01*
X110864929Y-88779300D01*
X110786954Y-88794810D01*
X110713504Y-88825234D01*
X110647400Y-88869403D01*
X110591183Y-88925620D01*
X110547014Y-88991724D01*
X110516590Y-89065174D01*
X110501080Y-89143149D01*
X110501080Y-89222651D01*
X110516590Y-89300626D01*
X110547014Y-89374076D01*
X110591183Y-89440180D01*
X110647400Y-89496397D01*
X110713504Y-89540566D01*
X110786954Y-89570990D01*
X110864929Y-89586500D01*
X110944431Y-89586500D01*
X111022406Y-89570990D01*
X111029000Y-89568259D01*
X111029000Y-89629129D01*
X111043549Y-89702274D01*
X111072089Y-89771174D01*
X111113522Y-89833184D01*
X111166256Y-89885918D01*
X111228266Y-89927351D01*
X111297166Y-89955891D01*
X111370311Y-89970440D01*
X111444889Y-89970440D01*
X111518034Y-89955891D01*
X111586934Y-89927351D01*
X111648944Y-89885918D01*
X111688610Y-89846252D01*
X111725736Y-89883378D01*
X111787746Y-89924811D01*
X111856646Y-89953351D01*
X111929791Y-89967900D01*
X111990082Y-89967900D01*
X111990082Y-90703924D01*
X111236519Y-91457489D01*
X111207484Y-91486524D01*
X111198106Y-91488389D01*
X111129206Y-91516929D01*
X111067196Y-91558362D01*
X111014462Y-91611096D01*
X110973029Y-91673106D01*
X110944489Y-91742006D01*
X110942624Y-91751384D01*
X110936530Y-91757478D01*
X110936519Y-91757487D01*
X110145867Y-92548141D01*
X109004524Y-92548141D01*
X109015581Y-92492552D01*
X109015581Y-92413050D01*
X109000071Y-92335075D01*
X108969647Y-92261625D01*
X108925478Y-92195521D01*
X108869261Y-92139304D01*
X108803157Y-92095135D01*
X108729707Y-92064711D01*
X108651732Y-92049201D01*
X108572230Y-92049201D01*
X108494255Y-92064711D01*
X108420805Y-92095135D01*
X108354701Y-92139304D01*
X108298484Y-92195521D01*
X108254315Y-92261625D01*
X108223891Y-92335075D01*
X108208381Y-92413050D01*
X108208381Y-92492552D01*
X108219438Y-92548141D01*
X108200219Y-92548141D01*
X108201860Y-92539891D01*
X108201860Y-92460389D01*
X108186350Y-92382414D01*
X108155926Y-92308964D01*
X108111757Y-92242860D01*
X108055540Y-92186643D01*
X107989436Y-92142474D01*
X107915986Y-92112050D01*
X107838011Y-92096540D01*
X107758509Y-92096540D01*
X107680534Y-92112050D01*
X107607084Y-92142474D01*
X107540980Y-92186643D01*
X107484763Y-92242860D01*
X107440594Y-92308964D01*
X107429397Y-92335997D01*
X107406626Y-92281024D01*
X107362457Y-92214920D01*
X107306240Y-92158703D01*
X107240136Y-92114534D01*
X107166686Y-92084110D01*
X107088711Y-92068600D01*
X107009209Y-92068600D01*
X106931234Y-92084110D01*
X106857784Y-92114534D01*
X106791680Y-92158703D01*
X106735463Y-92214920D01*
X106691294Y-92281024D01*
X106660870Y-92354474D01*
X106658481Y-92366484D01*
X106630091Y-92297946D01*
X106588658Y-92235936D01*
X106535924Y-92183202D01*
X106473914Y-92141769D01*
X106440788Y-92128047D01*
X106447131Y-92112734D01*
X106461680Y-92039589D01*
X106461680Y-91965011D01*
X106447131Y-91891866D01*
X106418591Y-91822966D01*
X106377158Y-91760956D01*
X106324424Y-91708222D01*
X106262414Y-91666789D01*
X106247835Y-91660750D01*
X106586697Y-91321888D01*
X106587242Y-91322703D01*
X106639976Y-91375437D01*
X106701986Y-91416870D01*
X106770886Y-91445410D01*
X106844031Y-91459959D01*
X106918609Y-91459959D01*
X106991754Y-91445410D01*
X107060654Y-91416870D01*
X107122664Y-91375437D01*
X107175398Y-91322703D01*
X107216831Y-91260693D01*
X107245371Y-91191793D01*
X107259920Y-91118648D01*
X107259920Y-91044070D01*
X107245371Y-90970925D01*
X107216831Y-90902025D01*
X107175398Y-90840015D01*
X107122664Y-90787281D01*
X107121849Y-90786736D01*
X107168884Y-90739701D01*
X109497281Y-90739701D01*
X109512239Y-90741174D01*
X109527197Y-90739701D01*
X109527205Y-90739701D01*
X109571990Y-90735290D01*
X109629445Y-90717861D01*
X109682396Y-90689559D01*
X109728807Y-90651469D01*
X109738351Y-90639840D01*
X109807751Y-90570440D01*
X109848990Y-90570440D01*
X109838389Y-90586306D01*
X109809849Y-90655206D01*
X109795300Y-90728351D01*
X109795300Y-90802929D01*
X109809849Y-90876074D01*
X109838389Y-90944974D01*
X109879822Y-91006984D01*
X109888478Y-91015640D01*
X109879822Y-91024296D01*
X109838389Y-91086306D01*
X109809849Y-91155206D01*
X109795300Y-91228351D01*
X109795300Y-91302929D01*
X109809849Y-91376074D01*
X109838389Y-91444974D01*
X109879822Y-91506984D01*
X109932556Y-91559718D01*
X109994566Y-91601151D01*
X110063466Y-91629691D01*
X110136611Y-91644240D01*
X110211189Y-91644240D01*
X110284334Y-91629691D01*
X110353234Y-91601151D01*
X110415244Y-91559718D01*
X110467978Y-91506984D01*
X110509411Y-91444974D01*
X110537951Y-91376074D01*
X110552500Y-91302929D01*
X110552500Y-91228351D01*
X110537951Y-91155206D01*
X110509411Y-91086306D01*
X110467978Y-91024296D01*
X110459322Y-91015640D01*
X110467978Y-91006984D01*
X110509411Y-90944974D01*
X110537951Y-90876074D01*
X110552500Y-90802929D01*
X110552500Y-90728351D01*
X110537951Y-90655206D01*
X110509411Y-90586306D01*
X110467978Y-90524296D01*
X110459322Y-90515640D01*
X110467978Y-90506984D01*
X110509411Y-90444974D01*
X110537951Y-90376074D01*
X110552500Y-90302929D01*
X110552500Y-90228351D01*
X110537951Y-90155206D01*
X110509411Y-90086306D01*
X110467978Y-90024296D01*
X110459682Y-90016000D01*
X110468698Y-90006984D01*
X110510131Y-89944974D01*
X110538671Y-89876074D01*
X110553220Y-89802929D01*
X110553220Y-89728351D01*
X110538671Y-89655206D01*
X110510131Y-89586306D01*
X110468698Y-89524296D01*
X110415964Y-89471562D01*
X110353954Y-89430129D01*
X110285054Y-89401589D01*
X110211909Y-89387040D01*
X110137331Y-89387040D01*
X110064186Y-89401589D01*
X109995286Y-89430129D01*
X109933276Y-89471562D01*
X109880542Y-89524296D01*
X109839109Y-89586306D01*
X109810569Y-89655206D01*
X109796020Y-89728351D01*
X109796020Y-89802929D01*
X109810569Y-89876074D01*
X109839109Y-89944974D01*
X109849710Y-89960840D01*
X109696457Y-89960840D01*
X109681499Y-89959367D01*
X109666541Y-89960840D01*
X109666534Y-89960840D01*
X109627389Y-89964695D01*
X109621748Y-89965251D01*
X109611625Y-89968322D01*
X109564294Y-89982680D01*
X109511343Y-90010982D01*
X109464932Y-90049072D01*
X109455388Y-90060701D01*
X109385988Y-90130101D01*
X109264873Y-90130101D01*
X109275480Y-90076776D01*
X109275480Y-89987424D01*
X109258049Y-89899790D01*
X109223855Y-89817240D01*
X109174214Y-89742947D01*
X109111033Y-89679766D01*
X109036740Y-89630125D01*
X108954190Y-89595931D01*
X108866556Y-89578500D01*
X108777204Y-89578500D01*
X108689570Y-89595931D01*
X108607020Y-89630125D01*
X108532727Y-89679766D01*
X108469546Y-89742947D01*
X108419905Y-89817240D01*
X108385711Y-89899790D01*
X108368280Y-89987424D01*
X108368280Y-90076776D01*
X108378887Y-90130101D01*
X107057589Y-90130101D01*
X107042631Y-90128628D01*
X107027673Y-90130101D01*
X107027666Y-90130101D01*
X106988521Y-90133956D01*
X106982880Y-90134512D01*
X106925426Y-90151941D01*
X106872475Y-90180243D01*
X106826064Y-90218333D01*
X106816524Y-90229957D01*
X106179888Y-90866593D01*
X106193120Y-90800069D01*
X106193120Y-90725491D01*
X106178571Y-90652346D01*
X106150031Y-90583446D01*
X106108598Y-90521436D01*
X106095942Y-90508780D01*
X106100978Y-90503744D01*
X106142411Y-90441734D01*
X106170951Y-90372834D01*
X106185500Y-90299689D01*
X106185500Y-90225111D01*
X106170951Y-90151966D01*
X106142411Y-90083066D01*
X106100978Y-90021056D01*
X106099752Y-90019830D01*
X106111138Y-90008444D01*
X106152571Y-89946434D01*
X106181111Y-89877534D01*
X106195660Y-89804389D01*
X106195660Y-89729811D01*
X106181111Y-89656666D01*
X106152571Y-89587766D01*
X106111138Y-89525756D01*
X106058404Y-89473022D01*
X105996394Y-89431589D01*
X105927494Y-89403049D01*
X105854349Y-89388500D01*
X105779771Y-89388500D01*
X105706626Y-89403049D01*
X105637726Y-89431589D01*
X105575716Y-89473022D01*
X105522982Y-89525756D01*
X105481549Y-89587766D01*
X105453009Y-89656666D01*
X105438460Y-89729811D01*
X105438460Y-89804389D01*
X105453009Y-89877534D01*
X105481549Y-89946434D01*
X105522982Y-90008444D01*
X105524208Y-90009670D01*
X105512822Y-90021056D01*
X105471389Y-90083066D01*
X105442849Y-90151966D01*
X105428300Y-90225111D01*
X105428300Y-90299689D01*
X105442849Y-90372834D01*
X105471389Y-90441734D01*
X105512822Y-90503744D01*
X105525478Y-90516400D01*
X105520442Y-90521436D01*
X105479009Y-90583446D01*
X105450469Y-90652346D01*
X105435920Y-90725491D01*
X105435920Y-90800069D01*
X105450469Y-90873214D01*
X105479009Y-90942114D01*
X105520442Y-91004124D01*
X105573176Y-91056858D01*
X105635186Y-91098291D01*
X105704086Y-91126831D01*
X105777231Y-91141380D01*
X105851809Y-91141380D01*
X105918334Y-91128148D01*
X104976920Y-92069562D01*
X104925136Y-92048112D01*
X104847161Y-92032602D01*
X104767659Y-92032602D01*
X104689684Y-92048112D01*
X104616234Y-92078536D01*
X104550130Y-92122705D01*
X104493913Y-92178922D01*
X104449744Y-92245026D01*
X104419320Y-92318476D01*
X104403810Y-92396451D01*
X104403810Y-92475953D01*
X104419320Y-92553928D01*
X104449744Y-92627378D01*
X104493913Y-92693482D01*
X104550130Y-92749699D01*
X104616234Y-92793868D01*
X104689684Y-92824292D01*
X104767659Y-92839802D01*
X104847161Y-92839802D01*
X104925136Y-92824292D01*
X104998586Y-92793868D01*
X105064690Y-92749699D01*
X105075254Y-92739135D01*
X105101082Y-92736591D01*
X105158537Y-92719162D01*
X105211488Y-92690860D01*
X105257899Y-92652770D01*
X105267443Y-92641141D01*
X105674224Y-92234361D01*
X105671646Y-92242860D01*
X105666390Y-92260185D01*
X105661979Y-92304970D01*
X105661979Y-92304977D01*
X105660506Y-92319935D01*
X105661979Y-92334893D01*
X105661979Y-92619667D01*
X105660506Y-92634625D01*
X105661979Y-92649583D01*
X105661979Y-92649591D01*
X105666390Y-92694376D01*
X105683819Y-92751831D01*
X105712122Y-92804782D01*
X105750212Y-92851193D01*
X105761835Y-92860732D01*
X105899600Y-92998498D01*
X105900672Y-93002031D01*
X105931333Y-93059395D01*
X105972596Y-93109674D01*
X106022875Y-93150937D01*
X106080239Y-93181598D01*
X106142482Y-93200480D01*
X106190997Y-93205258D01*
X107463435Y-93205258D01*
X107496770Y-93208541D01*
X107496772Y-93208541D01*
X107512985Y-93210138D01*
X107529198Y-93208541D01*
X110266426Y-93208541D01*
X110282639Y-93210138D01*
X110298852Y-93208541D01*
X110298854Y-93208541D01*
X110347369Y-93203763D01*
X110409612Y-93184881D01*
X110466976Y-93154220D01*
X110517255Y-93112957D01*
X110527598Y-93100354D01*
X110974401Y-92653552D01*
X111004302Y-92698304D01*
X111057036Y-92751038D01*
X111119046Y-92792471D01*
X111187946Y-92821011D01*
X111261091Y-92835560D01*
X111335669Y-92835560D01*
X111408814Y-92821011D01*
X111477714Y-92792471D01*
X111539724Y-92751038D01*
X111592458Y-92698304D01*
X111633891Y-92636294D01*
X111662431Y-92567394D01*
X111676980Y-92494249D01*
X111676980Y-92419671D01*
X111662431Y-92346526D01*
X111633891Y-92277626D01*
X111592458Y-92215616D01*
X111539724Y-92162882D01*
X111532559Y-92158094D01*
X111549884Y-92146518D01*
X111602618Y-92093784D01*
X111644051Y-92031774D01*
X111672591Y-91962874D01*
X111674456Y-91953496D01*
X111703491Y-91924461D01*
X112260333Y-91367620D01*
X112246247Y-93759980D01*
X100336071Y-93759980D01*
X100336384Y-93687798D01*
X100362146Y-93705011D01*
X100431046Y-93733551D01*
X100504191Y-93748100D01*
X100578769Y-93748100D01*
X100651914Y-93733551D01*
X100720814Y-93705011D01*
X100782824Y-93663578D01*
X100835558Y-93610844D01*
X100876991Y-93548834D01*
X100905531Y-93479934D01*
X100920080Y-93406789D01*
X100920080Y-93332211D01*
X100905531Y-93259066D01*
X100876991Y-93190166D01*
X100835558Y-93128156D01*
X100782824Y-93075422D01*
X100720814Y-93033989D01*
X100651914Y-93005449D01*
X100578769Y-92990900D01*
X100504191Y-92990900D01*
X100431046Y-93005449D01*
X100362146Y-93033989D01*
X100339154Y-93049351D01*
X100340760Y-92679122D01*
X100362146Y-92693411D01*
X100431046Y-92721951D01*
X100504191Y-92736500D01*
X100578769Y-92736500D01*
X100651914Y-92721951D01*
X100720814Y-92693411D01*
X100782824Y-92651978D01*
X100835558Y-92599244D01*
X100876991Y-92537234D01*
X100905531Y-92468334D01*
X100920080Y-92395189D01*
X100920080Y-92394271D01*
X102761300Y-92394271D01*
X102761300Y-92468849D01*
X102775849Y-92541994D01*
X102804389Y-92610894D01*
X102845822Y-92672904D01*
X102898556Y-92725638D01*
X102960566Y-92767071D01*
X103029466Y-92795611D01*
X103102611Y-92810160D01*
X103177189Y-92810160D01*
X103250334Y-92795611D01*
X103319234Y-92767071D01*
X103381244Y-92725638D01*
X103433978Y-92672904D01*
X103475411Y-92610894D01*
X103503951Y-92541994D01*
X103518500Y-92468849D01*
X103518500Y-92394271D01*
X103503951Y-92321126D01*
X103475411Y-92252226D01*
X103433978Y-92190216D01*
X103381244Y-92137482D01*
X103319234Y-92096049D01*
X103250334Y-92067509D01*
X103177189Y-92052960D01*
X103102611Y-92052960D01*
X103029466Y-92067509D01*
X102960566Y-92096049D01*
X102898556Y-92137482D01*
X102845822Y-92190216D01*
X102804389Y-92252226D01*
X102775849Y-92321126D01*
X102761300Y-92394271D01*
X100920080Y-92394271D01*
X100920080Y-92320611D01*
X100905531Y-92247466D01*
X100876991Y-92178566D01*
X100835558Y-92116556D01*
X100782824Y-92063822D01*
X100720814Y-92022389D01*
X100651914Y-91993849D01*
X100578769Y-91979300D01*
X100504191Y-91979300D01*
X100431046Y-91993849D01*
X100362146Y-92022389D01*
X100343556Y-92034811D01*
X100346965Y-91248731D01*
X104566109Y-91248731D01*
X104566109Y-91323309D01*
X104580658Y-91396454D01*
X104609198Y-91465354D01*
X104650631Y-91527364D01*
X104703365Y-91580098D01*
X104765375Y-91621531D01*
X104834275Y-91650071D01*
X104907420Y-91664620D01*
X104981998Y-91664620D01*
X105055143Y-91650071D01*
X105124043Y-91621531D01*
X105186053Y-91580098D01*
X105238787Y-91527364D01*
X105280220Y-91465354D01*
X105308760Y-91396454D01*
X105323309Y-91323309D01*
X105323309Y-91248731D01*
X105308760Y-91175586D01*
X105280220Y-91106686D01*
X105238787Y-91044676D01*
X105186053Y-90991942D01*
X105124043Y-90950509D01*
X105055143Y-90921969D01*
X104981998Y-90907420D01*
X104907420Y-90907420D01*
X104834275Y-90921969D01*
X104765375Y-90950509D01*
X104703365Y-90991942D01*
X104650631Y-91044676D01*
X104609198Y-91106686D01*
X104580658Y-91175586D01*
X104566109Y-91248731D01*
X100346965Y-91248731D01*
X100349607Y-90639904D01*
X100366946Y-90665853D01*
X100430127Y-90729034D01*
X100504420Y-90778675D01*
X100586970Y-90812869D01*
X100674604Y-90830300D01*
X100763956Y-90830300D01*
X100851590Y-90812869D01*
X100934140Y-90778675D01*
X101008433Y-90729034D01*
X101071614Y-90665853D01*
X101121255Y-90591560D01*
X101155449Y-90509010D01*
X101172880Y-90421376D01*
X101172880Y-90332024D01*
X101155449Y-90244390D01*
X101121255Y-90161840D01*
X101071614Y-90087547D01*
X101008433Y-90024366D01*
X100934140Y-89974725D01*
X100851590Y-89940531D01*
X100763956Y-89923100D01*
X100674604Y-89923100D01*
X100586970Y-89940531D01*
X100504420Y-89974725D01*
X100430127Y-90024366D01*
X100366946Y-90087547D01*
X100351906Y-90110056D01*
X100355791Y-89214424D01*
X100443480Y-89214424D01*
X100443480Y-89303776D01*
X100460911Y-89391410D01*
X100495105Y-89473960D01*
X100544746Y-89548253D01*
X100607927Y-89611434D01*
X100682220Y-89661075D01*
X100764770Y-89695269D01*
X100852404Y-89712700D01*
X100941756Y-89712700D01*
X101029390Y-89695269D01*
X101111940Y-89661075D01*
X101186233Y-89611434D01*
X101249414Y-89548253D01*
X101299055Y-89473960D01*
X101333249Y-89391410D01*
X101350680Y-89303776D01*
X101350680Y-89214424D01*
X101333249Y-89126790D01*
X101299055Y-89044240D01*
X101249414Y-88969947D01*
X101186233Y-88906766D01*
X101111940Y-88857125D01*
X101029390Y-88822931D01*
X100941756Y-88805500D01*
X100852404Y-88805500D01*
X100764770Y-88822931D01*
X100682220Y-88857125D01*
X100607927Y-88906766D01*
X100544746Y-88969947D01*
X100495105Y-89044240D01*
X100460911Y-89126790D01*
X100443480Y-89214424D01*
X100355791Y-89214424D01*
X100357863Y-88736749D01*
X104403810Y-88736749D01*
X104403810Y-88816251D01*
X104419320Y-88894226D01*
X104449744Y-88967676D01*
X104493913Y-89033780D01*
X104529368Y-89069235D01*
X104493913Y-89104690D01*
X104449744Y-89170794D01*
X104419320Y-89244244D01*
X104403810Y-89322219D01*
X104403810Y-89401721D01*
X104419320Y-89479696D01*
X104449744Y-89553146D01*
X104493913Y-89619250D01*
X104550130Y-89675467D01*
X104616234Y-89719636D01*
X104689684Y-89750060D01*
X104767659Y-89765570D01*
X104847161Y-89765570D01*
X104925136Y-89750060D01*
X104998586Y-89719636D01*
X105064690Y-89675467D01*
X105120907Y-89619250D01*
X105165076Y-89553146D01*
X105195500Y-89479696D01*
X105211010Y-89401721D01*
X105211010Y-89322219D01*
X105195500Y-89244244D01*
X105165076Y-89170794D01*
X105120907Y-89104690D01*
X105085452Y-89069235D01*
X105120907Y-89033780D01*
X105165076Y-88967676D01*
X105195500Y-88894226D01*
X105207594Y-88833424D01*
X107149080Y-88833424D01*
X107149080Y-88922776D01*
X107166511Y-89010410D01*
X107200705Y-89092960D01*
X107250346Y-89167253D01*
X107313527Y-89230434D01*
X107387820Y-89280075D01*
X107470370Y-89314269D01*
X107558004Y-89331700D01*
X107647356Y-89331700D01*
X107734990Y-89314269D01*
X107817540Y-89280075D01*
X107891833Y-89230434D01*
X107955014Y-89167253D01*
X108004655Y-89092960D01*
X108038849Y-89010410D01*
X108056280Y-88922776D01*
X108056280Y-88833424D01*
X108038849Y-88745790D01*
X108004655Y-88663240D01*
X107955014Y-88588947D01*
X107891833Y-88525766D01*
X107817540Y-88476125D01*
X107734990Y-88441931D01*
X107647356Y-88424500D01*
X107558004Y-88424500D01*
X107470370Y-88441931D01*
X107387820Y-88476125D01*
X107313527Y-88525766D01*
X107250346Y-88588947D01*
X107200705Y-88663240D01*
X107166511Y-88745790D01*
X107149080Y-88833424D01*
X105207594Y-88833424D01*
X105211010Y-88816251D01*
X105211010Y-88736749D01*
X105195500Y-88658774D01*
X105165076Y-88585324D01*
X105120907Y-88519220D01*
X105064690Y-88463003D01*
X104998586Y-88418834D01*
X104925136Y-88388410D01*
X104847161Y-88372900D01*
X104767659Y-88372900D01*
X104689684Y-88388410D01*
X104616234Y-88418834D01*
X104550130Y-88463003D01*
X104493913Y-88519220D01*
X104449744Y-88585324D01*
X104419320Y-88658774D01*
X104403810Y-88736749D01*
X100357863Y-88736749D01*
X100361808Y-87827429D01*
X103569420Y-87827429D01*
X103569420Y-87906931D01*
X103584930Y-87984906D01*
X103615354Y-88058356D01*
X103659523Y-88124460D01*
X103715740Y-88180677D01*
X103781844Y-88224846D01*
X103855294Y-88255270D01*
X103933269Y-88270780D01*
X104012771Y-88270780D01*
X104090746Y-88255270D01*
X104164196Y-88224846D01*
X104230300Y-88180677D01*
X104286517Y-88124460D01*
X104330686Y-88058356D01*
X104361110Y-87984906D01*
X104376620Y-87906931D01*
X104376620Y-87827429D01*
X104375745Y-87823029D01*
X111024320Y-87823029D01*
X111024320Y-87902531D01*
X111039830Y-87980506D01*
X111070254Y-88053956D01*
X111114423Y-88120060D01*
X111170640Y-88176277D01*
X111236744Y-88220446D01*
X111310194Y-88250870D01*
X111388169Y-88266380D01*
X111467671Y-88266380D01*
X111545646Y-88250870D01*
X111619096Y-88220446D01*
X111685200Y-88176277D01*
X111741417Y-88120060D01*
X111785586Y-88053956D01*
X111816010Y-87980506D01*
X111831520Y-87902531D01*
X111831520Y-87823029D01*
X111816010Y-87745054D01*
X111785586Y-87671604D01*
X111741417Y-87605500D01*
X111685200Y-87549283D01*
X111619096Y-87505114D01*
X111545646Y-87474690D01*
X111467671Y-87459180D01*
X111388169Y-87459180D01*
X111310194Y-87474690D01*
X111236744Y-87505114D01*
X111170640Y-87549283D01*
X111114423Y-87605500D01*
X111070254Y-87671604D01*
X111039830Y-87745054D01*
X111024320Y-87823029D01*
X104375745Y-87823029D01*
X104361110Y-87749454D01*
X104330686Y-87676004D01*
X104286517Y-87609900D01*
X104230300Y-87553683D01*
X104164196Y-87509514D01*
X104090746Y-87479090D01*
X104012771Y-87463580D01*
X103933269Y-87463580D01*
X103855294Y-87479090D01*
X103781844Y-87509514D01*
X103715740Y-87553683D01*
X103659523Y-87609900D01*
X103615354Y-87676004D01*
X103584930Y-87749454D01*
X103569420Y-87827429D01*
X100361808Y-87827429D01*
X100364205Y-87274979D01*
X104975310Y-87274979D01*
X104975310Y-87354481D01*
X104990820Y-87432456D01*
X105021244Y-87505906D01*
X105065413Y-87572010D01*
X105121630Y-87628227D01*
X105187734Y-87672396D01*
X105261184Y-87702820D01*
X105339159Y-87718330D01*
X105418661Y-87718330D01*
X105496636Y-87702820D01*
X105570086Y-87672396D01*
X105636190Y-87628227D01*
X105692407Y-87572010D01*
X105736576Y-87505906D01*
X105767000Y-87432456D01*
X105782510Y-87354481D01*
X105782510Y-87274979D01*
X105778081Y-87252709D01*
X110346820Y-87252709D01*
X110346820Y-87332211D01*
X110362330Y-87410186D01*
X110392754Y-87483636D01*
X110436923Y-87549740D01*
X110493140Y-87605957D01*
X110559244Y-87650126D01*
X110632694Y-87680550D01*
X110710669Y-87696060D01*
X110790171Y-87696060D01*
X110868146Y-87680550D01*
X110941596Y-87650126D01*
X111007700Y-87605957D01*
X111063917Y-87549740D01*
X111108086Y-87483636D01*
X111138510Y-87410186D01*
X111154020Y-87332211D01*
X111154020Y-87252709D01*
X111138510Y-87174734D01*
X111108086Y-87101284D01*
X111063917Y-87035180D01*
X111007700Y-86978963D01*
X110941596Y-86934794D01*
X110868146Y-86904370D01*
X110790171Y-86888860D01*
X110710669Y-86888860D01*
X110632694Y-86904370D01*
X110559244Y-86934794D01*
X110493140Y-86978963D01*
X110436923Y-87035180D01*
X110392754Y-87101284D01*
X110362330Y-87174734D01*
X110346820Y-87252709D01*
X105778081Y-87252709D01*
X105767000Y-87197004D01*
X105736576Y-87123554D01*
X105692407Y-87057450D01*
X105636190Y-87001233D01*
X105570086Y-86957064D01*
X105496636Y-86926640D01*
X105418661Y-86911130D01*
X105339159Y-86911130D01*
X105261184Y-86926640D01*
X105187734Y-86957064D01*
X105121630Y-87001233D01*
X105065413Y-87057450D01*
X105021244Y-87123554D01*
X104990820Y-87197004D01*
X104975310Y-87274979D01*
X100364205Y-87274979D01*
X100367120Y-86603149D01*
X102246080Y-86603149D01*
X102246080Y-86682651D01*
X102261590Y-86760626D01*
X102292014Y-86834076D01*
X102336183Y-86900180D01*
X102392400Y-86956397D01*
X102458504Y-87000566D01*
X102531954Y-87030990D01*
X102609929Y-87046500D01*
X102689431Y-87046500D01*
X102767406Y-87030990D01*
X102840856Y-87000566D01*
X102906960Y-86956397D01*
X102963177Y-86900180D01*
X103007346Y-86834076D01*
X103037770Y-86760626D01*
X103043832Y-86730149D01*
X103358600Y-86730149D01*
X103358600Y-86809651D01*
X103374110Y-86887626D01*
X103404534Y-86961076D01*
X103448703Y-87027180D01*
X103504920Y-87083397D01*
X103571024Y-87127566D01*
X103644474Y-87157990D01*
X103722449Y-87173500D01*
X103801951Y-87173500D01*
X103879926Y-87157990D01*
X103953376Y-87127566D01*
X104002355Y-87094839D01*
X104051334Y-87127566D01*
X104124784Y-87157990D01*
X104202759Y-87173500D01*
X104282261Y-87173500D01*
X104360236Y-87157990D01*
X104433686Y-87127566D01*
X104499790Y-87083397D01*
X104556007Y-87027180D01*
X104600176Y-86961076D01*
X104630600Y-86887626D01*
X104646110Y-86809651D01*
X104646110Y-86730149D01*
X104630600Y-86652174D01*
X104600176Y-86578724D01*
X104556007Y-86512620D01*
X104499790Y-86456403D01*
X104433686Y-86412234D01*
X104360236Y-86381810D01*
X104282261Y-86366300D01*
X104202759Y-86366300D01*
X104124784Y-86381810D01*
X104051334Y-86412234D01*
X104002355Y-86444961D01*
X103953376Y-86412234D01*
X103879926Y-86381810D01*
X103801951Y-86366300D01*
X103722449Y-86366300D01*
X103644474Y-86381810D01*
X103571024Y-86412234D01*
X103504920Y-86456403D01*
X103448703Y-86512620D01*
X103404534Y-86578724D01*
X103374110Y-86652174D01*
X103358600Y-86730149D01*
X103043832Y-86730149D01*
X103053280Y-86682651D01*
X103053280Y-86603149D01*
X103037770Y-86525174D01*
X103007346Y-86451724D01*
X102963177Y-86385620D01*
X102906960Y-86329403D01*
X102840856Y-86285234D01*
X102767406Y-86254810D01*
X102689431Y-86239300D01*
X102609929Y-86239300D01*
X102531954Y-86254810D01*
X102458504Y-86285234D01*
X102392400Y-86329403D01*
X102336183Y-86385620D01*
X102292014Y-86451724D01*
X102261590Y-86525174D01*
X102246080Y-86603149D01*
X100367120Y-86603149D01*
X100368850Y-86204291D01*
X104986340Y-86204291D01*
X104986340Y-86278869D01*
X105000889Y-86352014D01*
X105029429Y-86420914D01*
X105070862Y-86482924D01*
X105123596Y-86535658D01*
X105185606Y-86577091D01*
X105254506Y-86605631D01*
X105327651Y-86620180D01*
X105402229Y-86620180D01*
X105475374Y-86605631D01*
X105544274Y-86577091D01*
X105596773Y-86542013D01*
X105645095Y-86574300D01*
X105713995Y-86602840D01*
X105787140Y-86617389D01*
X105861718Y-86617389D01*
X105934863Y-86602840D01*
X106003763Y-86574300D01*
X106065773Y-86532867D01*
X106118507Y-86480133D01*
X106159940Y-86418123D01*
X106188480Y-86349223D01*
X106203029Y-86276078D01*
X106203029Y-86275916D01*
X106538680Y-86275916D01*
X106538680Y-86355418D01*
X106554190Y-86433393D01*
X106584614Y-86506843D01*
X106628783Y-86572947D01*
X106685000Y-86629164D01*
X106751104Y-86673333D01*
X106824554Y-86703757D01*
X106902529Y-86719267D01*
X106982031Y-86719267D01*
X107060006Y-86703757D01*
X107133456Y-86673333D01*
X107199560Y-86629164D01*
X107255777Y-86572947D01*
X107299946Y-86506843D01*
X107330370Y-86433393D01*
X107345880Y-86355418D01*
X107345880Y-86275916D01*
X107344329Y-86268116D01*
X107406695Y-86268116D01*
X107406695Y-86347618D01*
X107422205Y-86425593D01*
X107452629Y-86499043D01*
X107496798Y-86565147D01*
X107553015Y-86621364D01*
X107619119Y-86665533D01*
X107692569Y-86695957D01*
X107770544Y-86711467D01*
X107850046Y-86711467D01*
X107928021Y-86695957D01*
X108001471Y-86665533D01*
X108067360Y-86621507D01*
X108075017Y-86629164D01*
X108141121Y-86673333D01*
X108214571Y-86703757D01*
X108292546Y-86719267D01*
X108372048Y-86719267D01*
X108450023Y-86703757D01*
X108523473Y-86673333D01*
X108589577Y-86629164D01*
X108645794Y-86572947D01*
X108689963Y-86506843D01*
X108720387Y-86433393D01*
X108735897Y-86355418D01*
X108735897Y-86275916D01*
X108931567Y-86275916D01*
X108931567Y-86355418D01*
X108947077Y-86433393D01*
X108977501Y-86506843D01*
X109021670Y-86572947D01*
X109077887Y-86629164D01*
X109143991Y-86673333D01*
X109217441Y-86703757D01*
X109295416Y-86719267D01*
X109374918Y-86719267D01*
X109452893Y-86703757D01*
X109526343Y-86673333D01*
X109592447Y-86629164D01*
X109603703Y-86617908D01*
X109659404Y-86655126D01*
X109732854Y-86685550D01*
X109810829Y-86701060D01*
X109890331Y-86701060D01*
X109968306Y-86685550D01*
X110041756Y-86655126D01*
X110107860Y-86610957D01*
X110164077Y-86554740D01*
X110208246Y-86488636D01*
X110238670Y-86415186D01*
X110254180Y-86337211D01*
X110254180Y-86257709D01*
X110238670Y-86179734D01*
X110208246Y-86106284D01*
X110164077Y-86040180D01*
X110107860Y-85983963D01*
X110041756Y-85939794D01*
X109968306Y-85909370D01*
X109890331Y-85893860D01*
X109810829Y-85893860D01*
X109732854Y-85909370D01*
X109659404Y-85939794D01*
X109593300Y-85983963D01*
X109582044Y-85995219D01*
X109526343Y-85958001D01*
X109452893Y-85927577D01*
X109374918Y-85912067D01*
X109295416Y-85912067D01*
X109217441Y-85927577D01*
X109143991Y-85958001D01*
X109077887Y-86002170D01*
X109021670Y-86058387D01*
X108977501Y-86124491D01*
X108947077Y-86197941D01*
X108931567Y-86275916D01*
X108735897Y-86275916D01*
X108720387Y-86197941D01*
X108689963Y-86124491D01*
X108645794Y-86058387D01*
X108589577Y-86002170D01*
X108523473Y-85958001D01*
X108450023Y-85927577D01*
X108372048Y-85912067D01*
X108292546Y-85912067D01*
X108214571Y-85927577D01*
X108141121Y-85958001D01*
X108075232Y-86002027D01*
X108067575Y-85994370D01*
X108001471Y-85950201D01*
X107928021Y-85919777D01*
X107850046Y-85904267D01*
X107770544Y-85904267D01*
X107692569Y-85919777D01*
X107619119Y-85950201D01*
X107553015Y-85994370D01*
X107496798Y-86050587D01*
X107452629Y-86116691D01*
X107422205Y-86190141D01*
X107406695Y-86268116D01*
X107344329Y-86268116D01*
X107330370Y-86197941D01*
X107299946Y-86124491D01*
X107255777Y-86058387D01*
X107199560Y-86002170D01*
X107133456Y-85958001D01*
X107060006Y-85927577D01*
X106982031Y-85912067D01*
X106902529Y-85912067D01*
X106824554Y-85927577D01*
X106751104Y-85958001D01*
X106685000Y-86002170D01*
X106628783Y-86058387D01*
X106584614Y-86124491D01*
X106554190Y-86197941D01*
X106538680Y-86275916D01*
X106203029Y-86275916D01*
X106203029Y-86201500D01*
X106188480Y-86128355D01*
X106159940Y-86059455D01*
X106118507Y-85997445D01*
X106065773Y-85944711D01*
X106003763Y-85903278D01*
X105934863Y-85874738D01*
X105861718Y-85860189D01*
X105787140Y-85860189D01*
X105713995Y-85874738D01*
X105645095Y-85903278D01*
X105592596Y-85938356D01*
X105544274Y-85906069D01*
X105475374Y-85877529D01*
X105402229Y-85862980D01*
X105327651Y-85862980D01*
X105254506Y-85877529D01*
X105185606Y-85906069D01*
X105123596Y-85947502D01*
X105070862Y-86000236D01*
X105029429Y-86062246D01*
X105000889Y-86131146D01*
X104986340Y-86204291D01*
X100368850Y-86204291D01*
X100370970Y-85715800D01*
X112293610Y-85715800D01*
X112291483Y-86077035D01*
X112291483Y-86077035D01*
G37*
X112291483Y-86077035D02*
X112287002Y-86081516D01*
X112245569Y-86143526D01*
X112217029Y-86212426D01*
X112202480Y-86285571D01*
X112202480Y-86360149D01*
X112217029Y-86433294D01*
X112245569Y-86502194D01*
X112287002Y-86564204D01*
X112288605Y-86565807D01*
X112287024Y-86834371D01*
X112019740Y-86567088D01*
X112019740Y-86557682D01*
X112047206Y-86516576D01*
X112077630Y-86443126D01*
X112093140Y-86365151D01*
X112093140Y-86285649D01*
X112077630Y-86207674D01*
X112047206Y-86134224D01*
X112003037Y-86068120D01*
X111946820Y-86011903D01*
X111880716Y-85967734D01*
X111807266Y-85937310D01*
X111729291Y-85921800D01*
X111649789Y-85921800D01*
X111571814Y-85937310D01*
X111498364Y-85967734D01*
X111432260Y-86011903D01*
X111376043Y-86068120D01*
X111331874Y-86134224D01*
X111301450Y-86207674D01*
X111285940Y-86285649D01*
X111285940Y-86365151D01*
X111301450Y-86443126D01*
X111331874Y-86516576D01*
X111359340Y-86557682D01*
X111359340Y-86687647D01*
X111357743Y-86703860D01*
X111359340Y-86720073D01*
X111359340Y-86720075D01*
X111364118Y-86768590D01*
X111376575Y-86809651D01*
X111383001Y-86830833D01*
X111413661Y-86888197D01*
X111437582Y-86917344D01*
X111454925Y-86938476D01*
X111467522Y-86948814D01*
X111990081Y-87471375D01*
X111990082Y-89210700D01*
X111929791Y-89210700D01*
X111856646Y-89225249D01*
X111787746Y-89253789D01*
X111725736Y-89295222D01*
X111686070Y-89334888D01*
X111648944Y-89297762D01*
X111586934Y-89256329D01*
X111518034Y-89227789D01*
X111444889Y-89213240D01*
X111370311Y-89213240D01*
X111307674Y-89225699D01*
X111308280Y-89222651D01*
X111308280Y-89143149D01*
X111292770Y-89065174D01*
X111262346Y-88991724D01*
X111218177Y-88925620D01*
X111161960Y-88869403D01*
X111095856Y-88825234D01*
X111022406Y-88794810D01*
X110944431Y-88779300D01*
X110864929Y-88779300D01*
X110786954Y-88794810D01*
X110713504Y-88825234D01*
X110647400Y-88869403D01*
X110591183Y-88925620D01*
X110547014Y-88991724D01*
X110516590Y-89065174D01*
X110501080Y-89143149D01*
X110501080Y-89222651D01*
X110516590Y-89300626D01*
X110547014Y-89374076D01*
X110591183Y-89440180D01*
X110647400Y-89496397D01*
X110713504Y-89540566D01*
X110786954Y-89570990D01*
X110864929Y-89586500D01*
X110944431Y-89586500D01*
X111022406Y-89570990D01*
X111029000Y-89568259D01*
X111029000Y-89629129D01*
X111043549Y-89702274D01*
X111072089Y-89771174D01*
X111113522Y-89833184D01*
X111166256Y-89885918D01*
X111228266Y-89927351D01*
X111297166Y-89955891D01*
X111370311Y-89970440D01*
X111444889Y-89970440D01*
X111518034Y-89955891D01*
X111586934Y-89927351D01*
X111648944Y-89885918D01*
X111688610Y-89846252D01*
X111725736Y-89883378D01*
X111787746Y-89924811D01*
X111856646Y-89953351D01*
X111929791Y-89967900D01*
X111990082Y-89967900D01*
X111990082Y-90703924D01*
X111236519Y-91457489D01*
X111207484Y-91486524D01*
X111198106Y-91488389D01*
X111129206Y-91516929D01*
X111067196Y-91558362D01*
X111014462Y-91611096D01*
X110973029Y-91673106D01*
X110944489Y-91742006D01*
X110942624Y-91751384D01*
X110936530Y-91757478D01*
X110936519Y-91757487D01*
X110145867Y-92548141D01*
X109004524Y-92548141D01*
X109015581Y-92492552D01*
X109015581Y-92413050D01*
X109000071Y-92335075D01*
X108969647Y-92261625D01*
X108925478Y-92195521D01*
X108869261Y-92139304D01*
X108803157Y-92095135D01*
X108729707Y-92064711D01*
X108651732Y-92049201D01*
X108572230Y-92049201D01*
X108494255Y-92064711D01*
X108420805Y-92095135D01*
X108354701Y-92139304D01*
X108298484Y-92195521D01*
X108254315Y-92261625D01*
X108223891Y-92335075D01*
X108208381Y-92413050D01*
X108208381Y-92492552D01*
X108219438Y-92548141D01*
X108200219Y-92548141D01*
X108201860Y-92539891D01*
X108201860Y-92460389D01*
X108186350Y-92382414D01*
X108155926Y-92308964D01*
X108111757Y-92242860D01*
X108055540Y-92186643D01*
X107989436Y-92142474D01*
X107915986Y-92112050D01*
X107838011Y-92096540D01*
X107758509Y-92096540D01*
X107680534Y-92112050D01*
X107607084Y-92142474D01*
X107540980Y-92186643D01*
X107484763Y-92242860D01*
X107440594Y-92308964D01*
X107429397Y-92335997D01*
X107406626Y-92281024D01*
X107362457Y-92214920D01*
X107306240Y-92158703D01*
X107240136Y-92114534D01*
X107166686Y-92084110D01*
X107088711Y-92068600D01*
X107009209Y-92068600D01*
X106931234Y-92084110D01*
X106857784Y-92114534D01*
X106791680Y-92158703D01*
X106735463Y-92214920D01*
X106691294Y-92281024D01*
X106660870Y-92354474D01*
X106658481Y-92366484D01*
X106630091Y-92297946D01*
X106588658Y-92235936D01*
X106535924Y-92183202D01*
X106473914Y-92141769D01*
X106440788Y-92128047D01*
X106447131Y-92112734D01*
X106461680Y-92039589D01*
X106461680Y-91965011D01*
X106447131Y-91891866D01*
X106418591Y-91822966D01*
X106377158Y-91760956D01*
X106324424Y-91708222D01*
X106262414Y-91666789D01*
X106247835Y-91660750D01*
X106586697Y-91321888D01*
X106587242Y-91322703D01*
X106639976Y-91375437D01*
X106701986Y-91416870D01*
X106770886Y-91445410D01*
X106844031Y-91459959D01*
X106918609Y-91459959D01*
X106991754Y-91445410D01*
X107060654Y-91416870D01*
X107122664Y-91375437D01*
X107175398Y-91322703D01*
X107216831Y-91260693D01*
X107245371Y-91191793D01*
X107259920Y-91118648D01*
X107259920Y-91044070D01*
X107245371Y-90970925D01*
X107216831Y-90902025D01*
X107175398Y-90840015D01*
X107122664Y-90787281D01*
X107121849Y-90786736D01*
X107168884Y-90739701D01*
X109497281Y-90739701D01*
X109512239Y-90741174D01*
X109527197Y-90739701D01*
X109527205Y-90739701D01*
X109571990Y-90735290D01*
X109629445Y-90717861D01*
X109682396Y-90689559D01*
X109728807Y-90651469D01*
X109738351Y-90639840D01*
X109807751Y-90570440D01*
X109848990Y-90570440D01*
X109838389Y-90586306D01*
X109809849Y-90655206D01*
X109795300Y-90728351D01*
X109795300Y-90802929D01*
X109809849Y-90876074D01*
X109838389Y-90944974D01*
X109879822Y-91006984D01*
X109888478Y-91015640D01*
X109879822Y-91024296D01*
X109838389Y-91086306D01*
X109809849Y-91155206D01*
X109795300Y-91228351D01*
X109795300Y-91302929D01*
X109809849Y-91376074D01*
X109838389Y-91444974D01*
X109879822Y-91506984D01*
X109932556Y-91559718D01*
X109994566Y-91601151D01*
X110063466Y-91629691D01*
X110136611Y-91644240D01*
X110211189Y-91644240D01*
X110284334Y-91629691D01*
X110353234Y-91601151D01*
X110415244Y-91559718D01*
X110467978Y-91506984D01*
X110509411Y-91444974D01*
X110537951Y-91376074D01*
X110552500Y-91302929D01*
X110552500Y-91228351D01*
X110537951Y-91155206D01*
X110509411Y-91086306D01*
X110467978Y-91024296D01*
X110459322Y-91015640D01*
X110467978Y-91006984D01*
X110509411Y-90944974D01*
X110537951Y-90876074D01*
X110552500Y-90802929D01*
X110552500Y-90728351D01*
X110537951Y-90655206D01*
X110509411Y-90586306D01*
X110467978Y-90524296D01*
X110459322Y-90515640D01*
X110467978Y-90506984D01*
X110509411Y-90444974D01*
X110537951Y-90376074D01*
X110552500Y-90302929D01*
X110552500Y-90228351D01*
X110537951Y-90155206D01*
X110509411Y-90086306D01*
X110467978Y-90024296D01*
X110459682Y-90016000D01*
X110468698Y-90006984D01*
X110510131Y-89944974D01*
X110538671Y-89876074D01*
X110553220Y-89802929D01*
X110553220Y-89728351D01*
X110538671Y-89655206D01*
X110510131Y-89586306D01*
X110468698Y-89524296D01*
X110415964Y-89471562D01*
X110353954Y-89430129D01*
X110285054Y-89401589D01*
X110211909Y-89387040D01*
X110137331Y-89387040D01*
X110064186Y-89401589D01*
X109995286Y-89430129D01*
X109933276Y-89471562D01*
X109880542Y-89524296D01*
X109839109Y-89586306D01*
X109810569Y-89655206D01*
X109796020Y-89728351D01*
X109796020Y-89802929D01*
X109810569Y-89876074D01*
X109839109Y-89944974D01*
X109849710Y-89960840D01*
X109696457Y-89960840D01*
X109681499Y-89959367D01*
X109666541Y-89960840D01*
X109666534Y-89960840D01*
X109627389Y-89964695D01*
X109621748Y-89965251D01*
X109611625Y-89968322D01*
X109564294Y-89982680D01*
X109511343Y-90010982D01*
X109464932Y-90049072D01*
X109455388Y-90060701D01*
X109385988Y-90130101D01*
X109264873Y-90130101D01*
X109275480Y-90076776D01*
X109275480Y-89987424D01*
X109258049Y-89899790D01*
X109223855Y-89817240D01*
X109174214Y-89742947D01*
X109111033Y-89679766D01*
X109036740Y-89630125D01*
X108954190Y-89595931D01*
X108866556Y-89578500D01*
X108777204Y-89578500D01*
X108689570Y-89595931D01*
X108607020Y-89630125D01*
X108532727Y-89679766D01*
X108469546Y-89742947D01*
X108419905Y-89817240D01*
X108385711Y-89899790D01*
X108368280Y-89987424D01*
X108368280Y-90076776D01*
X108378887Y-90130101D01*
X107057589Y-90130101D01*
X107042631Y-90128628D01*
X107027673Y-90130101D01*
X107027666Y-90130101D01*
X106988521Y-90133956D01*
X106982880Y-90134512D01*
X106925426Y-90151941D01*
X106872475Y-90180243D01*
X106826064Y-90218333D01*
X106816524Y-90229957D01*
X106179888Y-90866593D01*
X106193120Y-90800069D01*
X106193120Y-90725491D01*
X106178571Y-90652346D01*
X106150031Y-90583446D01*
X106108598Y-90521436D01*
X106095942Y-90508780D01*
X106100978Y-90503744D01*
X106142411Y-90441734D01*
X106170951Y-90372834D01*
X106185500Y-90299689D01*
X106185500Y-90225111D01*
X106170951Y-90151966D01*
X106142411Y-90083066D01*
X106100978Y-90021056D01*
X106099752Y-90019830D01*
X106111138Y-90008444D01*
X106152571Y-89946434D01*
X106181111Y-89877534D01*
X106195660Y-89804389D01*
X106195660Y-89729811D01*
X106181111Y-89656666D01*
X106152571Y-89587766D01*
X106111138Y-89525756D01*
X106058404Y-89473022D01*
X105996394Y-89431589D01*
X105927494Y-89403049D01*
X105854349Y-89388500D01*
X105779771Y-89388500D01*
X105706626Y-89403049D01*
X105637726Y-89431589D01*
X105575716Y-89473022D01*
X105522982Y-89525756D01*
X105481549Y-89587766D01*
X105453009Y-89656666D01*
X105438460Y-89729811D01*
X105438460Y-89804389D01*
X105453009Y-89877534D01*
X105481549Y-89946434D01*
X105522982Y-90008444D01*
X105524208Y-90009670D01*
X105512822Y-90021056D01*
X105471389Y-90083066D01*
X105442849Y-90151966D01*
X105428300Y-90225111D01*
X105428300Y-90299689D01*
X105442849Y-90372834D01*
X105471389Y-90441734D01*
X105512822Y-90503744D01*
X105525478Y-90516400D01*
X105520442Y-90521436D01*
X105479009Y-90583446D01*
X105450469Y-90652346D01*
X105435920Y-90725491D01*
X105435920Y-90800069D01*
X105450469Y-90873214D01*
X105479009Y-90942114D01*
X105520442Y-91004124D01*
X105573176Y-91056858D01*
X105635186Y-91098291D01*
X105704086Y-91126831D01*
X105777231Y-91141380D01*
X105851809Y-91141380D01*
X105918334Y-91128148D01*
X104976920Y-92069562D01*
X104925136Y-92048112D01*
X104847161Y-92032602D01*
X104767659Y-92032602D01*
X104689684Y-92048112D01*
X104616234Y-92078536D01*
X104550130Y-92122705D01*
X104493913Y-92178922D01*
X104449744Y-92245026D01*
X104419320Y-92318476D01*
X104403810Y-92396451D01*
X104403810Y-92475953D01*
X104419320Y-92553928D01*
X104449744Y-92627378D01*
X104493913Y-92693482D01*
X104550130Y-92749699D01*
X104616234Y-92793868D01*
X104689684Y-92824292D01*
X104767659Y-92839802D01*
X104847161Y-92839802D01*
X104925136Y-92824292D01*
X104998586Y-92793868D01*
X105064690Y-92749699D01*
X105075254Y-92739135D01*
X105101082Y-92736591D01*
X105158537Y-92719162D01*
X105211488Y-92690860D01*
X105257899Y-92652770D01*
X105267443Y-92641141D01*
X105674224Y-92234361D01*
X105671646Y-92242860D01*
X105666390Y-92260185D01*
X105661979Y-92304970D01*
X105661979Y-92304977D01*
X105660506Y-92319935D01*
X105661979Y-92334893D01*
X105661979Y-92619667D01*
X105660506Y-92634625D01*
X105661979Y-92649583D01*
X105661979Y-92649591D01*
X105666390Y-92694376D01*
X105683819Y-92751831D01*
X105712122Y-92804782D01*
X105750212Y-92851193D01*
X105761835Y-92860732D01*
X105899600Y-92998498D01*
X105900672Y-93002031D01*
X105931333Y-93059395D01*
X105972596Y-93109674D01*
X106022875Y-93150937D01*
X106080239Y-93181598D01*
X106142482Y-93200480D01*
X106190997Y-93205258D01*
X107463435Y-93205258D01*
X107496770Y-93208541D01*
X107496772Y-93208541D01*
X107512985Y-93210138D01*
X107529198Y-93208541D01*
X110266426Y-93208541D01*
X110282639Y-93210138D01*
X110298852Y-93208541D01*
X110298854Y-93208541D01*
X110347369Y-93203763D01*
X110409612Y-93184881D01*
X110466976Y-93154220D01*
X110517255Y-93112957D01*
X110527598Y-93100354D01*
X110974401Y-92653552D01*
X111004302Y-92698304D01*
X111057036Y-92751038D01*
X111119046Y-92792471D01*
X111187946Y-92821011D01*
X111261091Y-92835560D01*
X111335669Y-92835560D01*
X111408814Y-92821011D01*
X111477714Y-92792471D01*
X111539724Y-92751038D01*
X111592458Y-92698304D01*
X111633891Y-92636294D01*
X111662431Y-92567394D01*
X111676980Y-92494249D01*
X111676980Y-92419671D01*
X111662431Y-92346526D01*
X111633891Y-92277626D01*
X111592458Y-92215616D01*
X111539724Y-92162882D01*
X111532559Y-92158094D01*
X111549884Y-92146518D01*
X111602618Y-92093784D01*
X111644051Y-92031774D01*
X111672591Y-91962874D01*
X111674456Y-91953496D01*
X111703491Y-91924461D01*
X112260333Y-91367620D01*
X112246247Y-93759980D01*
X100336071Y-93759980D01*
X100336384Y-93687798D01*
X100362146Y-93705011D01*
X100431046Y-93733551D01*
X100504191Y-93748100D01*
X100578769Y-93748100D01*
X100651914Y-93733551D01*
X100720814Y-93705011D01*
X100782824Y-93663578D01*
X100835558Y-93610844D01*
X100876991Y-93548834D01*
X100905531Y-93479934D01*
X100920080Y-93406789D01*
X100920080Y-93332211D01*
X100905531Y-93259066D01*
X100876991Y-93190166D01*
X100835558Y-93128156D01*
X100782824Y-93075422D01*
X100720814Y-93033989D01*
X100651914Y-93005449D01*
X100578769Y-92990900D01*
X100504191Y-92990900D01*
X100431046Y-93005449D01*
X100362146Y-93033989D01*
X100339154Y-93049351D01*
X100340760Y-92679122D01*
X100362146Y-92693411D01*
X100431046Y-92721951D01*
X100504191Y-92736500D01*
X100578769Y-92736500D01*
X100651914Y-92721951D01*
X100720814Y-92693411D01*
X100782824Y-92651978D01*
X100835558Y-92599244D01*
X100876991Y-92537234D01*
X100905531Y-92468334D01*
X100920080Y-92395189D01*
X100920080Y-92394271D01*
X102761300Y-92394271D01*
X102761300Y-92468849D01*
X102775849Y-92541994D01*
X102804389Y-92610894D01*
X102845822Y-92672904D01*
X102898556Y-92725638D01*
X102960566Y-92767071D01*
X103029466Y-92795611D01*
X103102611Y-92810160D01*
X103177189Y-92810160D01*
X103250334Y-92795611D01*
X103319234Y-92767071D01*
X103381244Y-92725638D01*
X103433978Y-92672904D01*
X103475411Y-92610894D01*
X103503951Y-92541994D01*
X103518500Y-92468849D01*
X103518500Y-92394271D01*
X103503951Y-92321126D01*
X103475411Y-92252226D01*
X103433978Y-92190216D01*
X103381244Y-92137482D01*
X103319234Y-92096049D01*
X103250334Y-92067509D01*
X103177189Y-92052960D01*
X103102611Y-92052960D01*
X103029466Y-92067509D01*
X102960566Y-92096049D01*
X102898556Y-92137482D01*
X102845822Y-92190216D01*
X102804389Y-92252226D01*
X102775849Y-92321126D01*
X102761300Y-92394271D01*
X100920080Y-92394271D01*
X100920080Y-92320611D01*
X100905531Y-92247466D01*
X100876991Y-92178566D01*
X100835558Y-92116556D01*
X100782824Y-92063822D01*
X100720814Y-92022389D01*
X100651914Y-91993849D01*
X100578769Y-91979300D01*
X100504191Y-91979300D01*
X100431046Y-91993849D01*
X100362146Y-92022389D01*
X100343556Y-92034811D01*
X100346965Y-91248731D01*
X104566109Y-91248731D01*
X104566109Y-91323309D01*
X104580658Y-91396454D01*
X104609198Y-91465354D01*
X104650631Y-91527364D01*
X104703365Y-91580098D01*
X104765375Y-91621531D01*
X104834275Y-91650071D01*
X104907420Y-91664620D01*
X104981998Y-91664620D01*
X105055143Y-91650071D01*
X105124043Y-91621531D01*
X105186053Y-91580098D01*
X105238787Y-91527364D01*
X105280220Y-91465354D01*
X105308760Y-91396454D01*
X105323309Y-91323309D01*
X105323309Y-91248731D01*
X105308760Y-91175586D01*
X105280220Y-91106686D01*
X105238787Y-91044676D01*
X105186053Y-90991942D01*
X105124043Y-90950509D01*
X105055143Y-90921969D01*
X104981998Y-90907420D01*
X104907420Y-90907420D01*
X104834275Y-90921969D01*
X104765375Y-90950509D01*
X104703365Y-90991942D01*
X104650631Y-91044676D01*
X104609198Y-91106686D01*
X104580658Y-91175586D01*
X104566109Y-91248731D01*
X100346965Y-91248731D01*
X100349607Y-90639904D01*
X100366946Y-90665853D01*
X100430127Y-90729034D01*
X100504420Y-90778675D01*
X100586970Y-90812869D01*
X100674604Y-90830300D01*
X100763956Y-90830300D01*
X100851590Y-90812869D01*
X100934140Y-90778675D01*
X101008433Y-90729034D01*
X101071614Y-90665853D01*
X101121255Y-90591560D01*
X101155449Y-90509010D01*
X101172880Y-90421376D01*
X101172880Y-90332024D01*
X101155449Y-90244390D01*
X101121255Y-90161840D01*
X101071614Y-90087547D01*
X101008433Y-90024366D01*
X100934140Y-89974725D01*
X100851590Y-89940531D01*
X100763956Y-89923100D01*
X100674604Y-89923100D01*
X100586970Y-89940531D01*
X100504420Y-89974725D01*
X100430127Y-90024366D01*
X100366946Y-90087547D01*
X100351906Y-90110056D01*
X100355791Y-89214424D01*
X100443480Y-89214424D01*
X100443480Y-89303776D01*
X100460911Y-89391410D01*
X100495105Y-89473960D01*
X100544746Y-89548253D01*
X100607927Y-89611434D01*
X100682220Y-89661075D01*
X100764770Y-89695269D01*
X100852404Y-89712700D01*
X100941756Y-89712700D01*
X101029390Y-89695269D01*
X101111940Y-89661075D01*
X101186233Y-89611434D01*
X101249414Y-89548253D01*
X101299055Y-89473960D01*
X101333249Y-89391410D01*
X101350680Y-89303776D01*
X101350680Y-89214424D01*
X101333249Y-89126790D01*
X101299055Y-89044240D01*
X101249414Y-88969947D01*
X101186233Y-88906766D01*
X101111940Y-88857125D01*
X101029390Y-88822931D01*
X100941756Y-88805500D01*
X100852404Y-88805500D01*
X100764770Y-88822931D01*
X100682220Y-88857125D01*
X100607927Y-88906766D01*
X100544746Y-88969947D01*
X100495105Y-89044240D01*
X100460911Y-89126790D01*
X100443480Y-89214424D01*
X100355791Y-89214424D01*
X100357863Y-88736749D01*
X104403810Y-88736749D01*
X104403810Y-88816251D01*
X104419320Y-88894226D01*
X104449744Y-88967676D01*
X104493913Y-89033780D01*
X104529368Y-89069235D01*
X104493913Y-89104690D01*
X104449744Y-89170794D01*
X104419320Y-89244244D01*
X104403810Y-89322219D01*
X104403810Y-89401721D01*
X104419320Y-89479696D01*
X104449744Y-89553146D01*
X104493913Y-89619250D01*
X104550130Y-89675467D01*
X104616234Y-89719636D01*
X104689684Y-89750060D01*
X104767659Y-89765570D01*
X104847161Y-89765570D01*
X104925136Y-89750060D01*
X104998586Y-89719636D01*
X105064690Y-89675467D01*
X105120907Y-89619250D01*
X105165076Y-89553146D01*
X105195500Y-89479696D01*
X105211010Y-89401721D01*
X105211010Y-89322219D01*
X105195500Y-89244244D01*
X105165076Y-89170794D01*
X105120907Y-89104690D01*
X105085452Y-89069235D01*
X105120907Y-89033780D01*
X105165076Y-88967676D01*
X105195500Y-88894226D01*
X105207594Y-88833424D01*
X107149080Y-88833424D01*
X107149080Y-88922776D01*
X107166511Y-89010410D01*
X107200705Y-89092960D01*
X107250346Y-89167253D01*
X107313527Y-89230434D01*
X107387820Y-89280075D01*
X107470370Y-89314269D01*
X107558004Y-89331700D01*
X107647356Y-89331700D01*
X107734990Y-89314269D01*
X107817540Y-89280075D01*
X107891833Y-89230434D01*
X107955014Y-89167253D01*
X108004655Y-89092960D01*
X108038849Y-89010410D01*
X108056280Y-88922776D01*
X108056280Y-88833424D01*
X108038849Y-88745790D01*
X108004655Y-88663240D01*
X107955014Y-88588947D01*
X107891833Y-88525766D01*
X107817540Y-88476125D01*
X107734990Y-88441931D01*
X107647356Y-88424500D01*
X107558004Y-88424500D01*
X107470370Y-88441931D01*
X107387820Y-88476125D01*
X107313527Y-88525766D01*
X107250346Y-88588947D01*
X107200705Y-88663240D01*
X107166511Y-88745790D01*
X107149080Y-88833424D01*
X105207594Y-88833424D01*
X105211010Y-88816251D01*
X105211010Y-88736749D01*
X105195500Y-88658774D01*
X105165076Y-88585324D01*
X105120907Y-88519220D01*
X105064690Y-88463003D01*
X104998586Y-88418834D01*
X104925136Y-88388410D01*
X104847161Y-88372900D01*
X104767659Y-88372900D01*
X104689684Y-88388410D01*
X104616234Y-88418834D01*
X104550130Y-88463003D01*
X104493913Y-88519220D01*
X104449744Y-88585324D01*
X104419320Y-88658774D01*
X104403810Y-88736749D01*
X100357863Y-88736749D01*
X100361808Y-87827429D01*
X103569420Y-87827429D01*
X103569420Y-87906931D01*
X103584930Y-87984906D01*
X103615354Y-88058356D01*
X103659523Y-88124460D01*
X103715740Y-88180677D01*
X103781844Y-88224846D01*
X103855294Y-88255270D01*
X103933269Y-88270780D01*
X104012771Y-88270780D01*
X104090746Y-88255270D01*
X104164196Y-88224846D01*
X104230300Y-88180677D01*
X104286517Y-88124460D01*
X104330686Y-88058356D01*
X104361110Y-87984906D01*
X104376620Y-87906931D01*
X104376620Y-87827429D01*
X104375745Y-87823029D01*
X111024320Y-87823029D01*
X111024320Y-87902531D01*
X111039830Y-87980506D01*
X111070254Y-88053956D01*
X111114423Y-88120060D01*
X111170640Y-88176277D01*
X111236744Y-88220446D01*
X111310194Y-88250870D01*
X111388169Y-88266380D01*
X111467671Y-88266380D01*
X111545646Y-88250870D01*
X111619096Y-88220446D01*
X111685200Y-88176277D01*
X111741417Y-88120060D01*
X111785586Y-88053956D01*
X111816010Y-87980506D01*
X111831520Y-87902531D01*
X111831520Y-87823029D01*
X111816010Y-87745054D01*
X111785586Y-87671604D01*
X111741417Y-87605500D01*
X111685200Y-87549283D01*
X111619096Y-87505114D01*
X111545646Y-87474690D01*
X111467671Y-87459180D01*
X111388169Y-87459180D01*
X111310194Y-87474690D01*
X111236744Y-87505114D01*
X111170640Y-87549283D01*
X111114423Y-87605500D01*
X111070254Y-87671604D01*
X111039830Y-87745054D01*
X111024320Y-87823029D01*
X104375745Y-87823029D01*
X104361110Y-87749454D01*
X104330686Y-87676004D01*
X104286517Y-87609900D01*
X104230300Y-87553683D01*
X104164196Y-87509514D01*
X104090746Y-87479090D01*
X104012771Y-87463580D01*
X103933269Y-87463580D01*
X103855294Y-87479090D01*
X103781844Y-87509514D01*
X103715740Y-87553683D01*
X103659523Y-87609900D01*
X103615354Y-87676004D01*
X103584930Y-87749454D01*
X103569420Y-87827429D01*
X100361808Y-87827429D01*
X100364205Y-87274979D01*
X104975310Y-87274979D01*
X104975310Y-87354481D01*
X104990820Y-87432456D01*
X105021244Y-87505906D01*
X105065413Y-87572010D01*
X105121630Y-87628227D01*
X105187734Y-87672396D01*
X105261184Y-87702820D01*
X105339159Y-87718330D01*
X105418661Y-87718330D01*
X105496636Y-87702820D01*
X105570086Y-87672396D01*
X105636190Y-87628227D01*
X105692407Y-87572010D01*
X105736576Y-87505906D01*
X105767000Y-87432456D01*
X105782510Y-87354481D01*
X105782510Y-87274979D01*
X105778081Y-87252709D01*
X110346820Y-87252709D01*
X110346820Y-87332211D01*
X110362330Y-87410186D01*
X110392754Y-87483636D01*
X110436923Y-87549740D01*
X110493140Y-87605957D01*
X110559244Y-87650126D01*
X110632694Y-87680550D01*
X110710669Y-87696060D01*
X110790171Y-87696060D01*
X110868146Y-87680550D01*
X110941596Y-87650126D01*
X111007700Y-87605957D01*
X111063917Y-87549740D01*
X111108086Y-87483636D01*
X111138510Y-87410186D01*
X111154020Y-87332211D01*
X111154020Y-87252709D01*
X111138510Y-87174734D01*
X111108086Y-87101284D01*
X111063917Y-87035180D01*
X111007700Y-86978963D01*
X110941596Y-86934794D01*
X110868146Y-86904370D01*
X110790171Y-86888860D01*
X110710669Y-86888860D01*
X110632694Y-86904370D01*
X110559244Y-86934794D01*
X110493140Y-86978963D01*
X110436923Y-87035180D01*
X110392754Y-87101284D01*
X110362330Y-87174734D01*
X110346820Y-87252709D01*
X105778081Y-87252709D01*
X105767000Y-87197004D01*
X105736576Y-87123554D01*
X105692407Y-87057450D01*
X105636190Y-87001233D01*
X105570086Y-86957064D01*
X105496636Y-86926640D01*
X105418661Y-86911130D01*
X105339159Y-86911130D01*
X105261184Y-86926640D01*
X105187734Y-86957064D01*
X105121630Y-87001233D01*
X105065413Y-87057450D01*
X105021244Y-87123554D01*
X104990820Y-87197004D01*
X104975310Y-87274979D01*
X100364205Y-87274979D01*
X100367120Y-86603149D01*
X102246080Y-86603149D01*
X102246080Y-86682651D01*
X102261590Y-86760626D01*
X102292014Y-86834076D01*
X102336183Y-86900180D01*
X102392400Y-86956397D01*
X102458504Y-87000566D01*
X102531954Y-87030990D01*
X102609929Y-87046500D01*
X102689431Y-87046500D01*
X102767406Y-87030990D01*
X102840856Y-87000566D01*
X102906960Y-86956397D01*
X102963177Y-86900180D01*
X103007346Y-86834076D01*
X103037770Y-86760626D01*
X103043832Y-86730149D01*
X103358600Y-86730149D01*
X103358600Y-86809651D01*
X103374110Y-86887626D01*
X103404534Y-86961076D01*
X103448703Y-87027180D01*
X103504920Y-87083397D01*
X103571024Y-87127566D01*
X103644474Y-87157990D01*
X103722449Y-87173500D01*
X103801951Y-87173500D01*
X103879926Y-87157990D01*
X103953376Y-87127566D01*
X104002355Y-87094839D01*
X104051334Y-87127566D01*
X104124784Y-87157990D01*
X104202759Y-87173500D01*
X104282261Y-87173500D01*
X104360236Y-87157990D01*
X104433686Y-87127566D01*
X104499790Y-87083397D01*
X104556007Y-87027180D01*
X104600176Y-86961076D01*
X104630600Y-86887626D01*
X104646110Y-86809651D01*
X104646110Y-86730149D01*
X104630600Y-86652174D01*
X104600176Y-86578724D01*
X104556007Y-86512620D01*
X104499790Y-86456403D01*
X104433686Y-86412234D01*
X104360236Y-86381810D01*
X104282261Y-86366300D01*
X104202759Y-86366300D01*
X104124784Y-86381810D01*
X104051334Y-86412234D01*
X104002355Y-86444961D01*
X103953376Y-86412234D01*
X103879926Y-86381810D01*
X103801951Y-86366300D01*
X103722449Y-86366300D01*
X103644474Y-86381810D01*
X103571024Y-86412234D01*
X103504920Y-86456403D01*
X103448703Y-86512620D01*
X103404534Y-86578724D01*
X103374110Y-86652174D01*
X103358600Y-86730149D01*
X103043832Y-86730149D01*
X103053280Y-86682651D01*
X103053280Y-86603149D01*
X103037770Y-86525174D01*
X103007346Y-86451724D01*
X102963177Y-86385620D01*
X102906960Y-86329403D01*
X102840856Y-86285234D01*
X102767406Y-86254810D01*
X102689431Y-86239300D01*
X102609929Y-86239300D01*
X102531954Y-86254810D01*
X102458504Y-86285234D01*
X102392400Y-86329403D01*
X102336183Y-86385620D01*
X102292014Y-86451724D01*
X102261590Y-86525174D01*
X102246080Y-86603149D01*
X100367120Y-86603149D01*
X100368850Y-86204291D01*
X104986340Y-86204291D01*
X104986340Y-86278869D01*
X105000889Y-86352014D01*
X105029429Y-86420914D01*
X105070862Y-86482924D01*
X105123596Y-86535658D01*
X105185606Y-86577091D01*
X105254506Y-86605631D01*
X105327651Y-86620180D01*
X105402229Y-86620180D01*
X105475374Y-86605631D01*
X105544274Y-86577091D01*
X105596773Y-86542013D01*
X105645095Y-86574300D01*
X105713995Y-86602840D01*
X105787140Y-86617389D01*
X105861718Y-86617389D01*
X105934863Y-86602840D01*
X106003763Y-86574300D01*
X106065773Y-86532867D01*
X106118507Y-86480133D01*
X106159940Y-86418123D01*
X106188480Y-86349223D01*
X106203029Y-86276078D01*
X106203029Y-86275916D01*
X106538680Y-86275916D01*
X106538680Y-86355418D01*
X106554190Y-86433393D01*
X106584614Y-86506843D01*
X106628783Y-86572947D01*
X106685000Y-86629164D01*
X106751104Y-86673333D01*
X106824554Y-86703757D01*
X106902529Y-86719267D01*
X106982031Y-86719267D01*
X107060006Y-86703757D01*
X107133456Y-86673333D01*
X107199560Y-86629164D01*
X107255777Y-86572947D01*
X107299946Y-86506843D01*
X107330370Y-86433393D01*
X107345880Y-86355418D01*
X107345880Y-86275916D01*
X107344329Y-86268116D01*
X107406695Y-86268116D01*
X107406695Y-86347618D01*
X107422205Y-86425593D01*
X107452629Y-86499043D01*
X107496798Y-86565147D01*
X107553015Y-86621364D01*
X107619119Y-86665533D01*
X107692569Y-86695957D01*
X107770544Y-86711467D01*
X107850046Y-86711467D01*
X107928021Y-86695957D01*
X108001471Y-86665533D01*
X108067360Y-86621507D01*
X108075017Y-86629164D01*
X108141121Y-86673333D01*
X108214571Y-86703757D01*
X108292546Y-86719267D01*
X108372048Y-86719267D01*
X108450023Y-86703757D01*
X108523473Y-86673333D01*
X108589577Y-86629164D01*
X108645794Y-86572947D01*
X108689963Y-86506843D01*
X108720387Y-86433393D01*
X108735897Y-86355418D01*
X108735897Y-86275916D01*
X108931567Y-86275916D01*
X108931567Y-86355418D01*
X108947077Y-86433393D01*
X108977501Y-86506843D01*
X109021670Y-86572947D01*
X109077887Y-86629164D01*
X109143991Y-86673333D01*
X109217441Y-86703757D01*
X109295416Y-86719267D01*
X109374918Y-86719267D01*
X109452893Y-86703757D01*
X109526343Y-86673333D01*
X109592447Y-86629164D01*
X109603703Y-86617908D01*
X109659404Y-86655126D01*
X109732854Y-86685550D01*
X109810829Y-86701060D01*
X109890331Y-86701060D01*
X109968306Y-86685550D01*
X110041756Y-86655126D01*
X110107860Y-86610957D01*
X110164077Y-86554740D01*
X110208246Y-86488636D01*
X110238670Y-86415186D01*
X110254180Y-86337211D01*
X110254180Y-86257709D01*
X110238670Y-86179734D01*
X110208246Y-86106284D01*
X110164077Y-86040180D01*
X110107860Y-85983963D01*
X110041756Y-85939794D01*
X109968306Y-85909370D01*
X109890331Y-85893860D01*
X109810829Y-85893860D01*
X109732854Y-85909370D01*
X109659404Y-85939794D01*
X109593300Y-85983963D01*
X109582044Y-85995219D01*
X109526343Y-85958001D01*
X109452893Y-85927577D01*
X109374918Y-85912067D01*
X109295416Y-85912067D01*
X109217441Y-85927577D01*
X109143991Y-85958001D01*
X109077887Y-86002170D01*
X109021670Y-86058387D01*
X108977501Y-86124491D01*
X108947077Y-86197941D01*
X108931567Y-86275916D01*
X108735897Y-86275916D01*
X108720387Y-86197941D01*
X108689963Y-86124491D01*
X108645794Y-86058387D01*
X108589577Y-86002170D01*
X108523473Y-85958001D01*
X108450023Y-85927577D01*
X108372048Y-85912067D01*
X108292546Y-85912067D01*
X108214571Y-85927577D01*
X108141121Y-85958001D01*
X108075232Y-86002027D01*
X108067575Y-85994370D01*
X108001471Y-85950201D01*
X107928021Y-85919777D01*
X107850046Y-85904267D01*
X107770544Y-85904267D01*
X107692569Y-85919777D01*
X107619119Y-85950201D01*
X107553015Y-85994370D01*
X107496798Y-86050587D01*
X107452629Y-86116691D01*
X107422205Y-86190141D01*
X107406695Y-86268116D01*
X107344329Y-86268116D01*
X107330370Y-86197941D01*
X107299946Y-86124491D01*
X107255777Y-86058387D01*
X107199560Y-86002170D01*
X107133456Y-85958001D01*
X107060006Y-85927577D01*
X106982031Y-85912067D01*
X106902529Y-85912067D01*
X106824554Y-85927577D01*
X106751104Y-85958001D01*
X106685000Y-86002170D01*
X106628783Y-86058387D01*
X106584614Y-86124491D01*
X106554190Y-86197941D01*
X106538680Y-86275916D01*
X106203029Y-86275916D01*
X106203029Y-86201500D01*
X106188480Y-86128355D01*
X106159940Y-86059455D01*
X106118507Y-85997445D01*
X106065773Y-85944711D01*
X106003763Y-85903278D01*
X105934863Y-85874738D01*
X105861718Y-85860189D01*
X105787140Y-85860189D01*
X105713995Y-85874738D01*
X105645095Y-85903278D01*
X105592596Y-85938356D01*
X105544274Y-85906069D01*
X105475374Y-85877529D01*
X105402229Y-85862980D01*
X105327651Y-85862980D01*
X105254506Y-85877529D01*
X105185606Y-85906069D01*
X105123596Y-85947502D01*
X105070862Y-86000236D01*
X105029429Y-86062246D01*
X105000889Y-86131146D01*
X104986340Y-86204291D01*
X100368850Y-86204291D01*
X100370970Y-85715800D01*
X112293610Y-85715800D01*
X112291483Y-86077035D01*
D15*
G36*
X107158122Y-69586336D02*
G01*
X107140660Y-69674125D01*
X107140660Y-69684529D01*
X107072529Y-69698081D01*
X106994383Y-69730450D01*
X106924053Y-69777443D01*
X106864243Y-69837253D01*
X106817250Y-69907583D01*
X106784881Y-69985729D01*
X106768380Y-70068688D01*
X106768380Y-70153272D01*
X106784881Y-70236231D01*
X106817250Y-70314377D01*
X106864243Y-70384707D01*
X106924053Y-70444517D01*
X106986138Y-70486001D01*
X106930647Y-70508986D01*
X106848033Y-70564187D01*
X106777777Y-70634443D01*
X106722576Y-70717057D01*
X106684553Y-70808852D01*
X106665170Y-70906301D01*
X106665170Y-71005659D01*
X106684553Y-71103108D01*
X106722576Y-71194903D01*
X106777777Y-71277517D01*
X106848033Y-71347773D01*
X106930647Y-71402974D01*
X107022442Y-71440997D01*
X107119891Y-71460380D01*
X107219249Y-71460380D01*
X107316698Y-71440997D01*
X107408493Y-71402974D01*
X107491107Y-71347773D01*
X107561363Y-71277517D01*
X107616564Y-71194903D01*
X107639040Y-71140642D01*
X107639040Y-71200735D01*
X107656502Y-71288524D01*
X107690756Y-71371219D01*
X107731594Y-71432338D01*
X107708117Y-71448024D01*
X107644824Y-71511317D01*
X107595096Y-71585741D01*
X107560842Y-71668436D01*
X107543380Y-71756225D01*
X107543380Y-71845735D01*
X107560842Y-71933524D01*
X107595096Y-72016219D01*
X107644824Y-72090643D01*
X107708117Y-72153936D01*
X107782541Y-72203664D01*
X107865236Y-72237918D01*
X107953025Y-72255380D01*
X108042535Y-72255380D01*
X108130324Y-72237918D01*
X108213019Y-72203664D01*
X108287443Y-72153936D01*
X108350736Y-72090643D01*
X108400464Y-72016219D01*
X108434718Y-71933524D01*
X108452180Y-71845735D01*
X108452180Y-71778528D01*
X109397660Y-71778528D01*
X109397660Y-71863112D01*
X109414161Y-71946071D01*
X109446530Y-72024217D01*
X109493523Y-72094547D01*
X109553333Y-72154357D01*
X109623663Y-72201350D01*
X109701809Y-72233719D01*
X109784768Y-72250220D01*
X109869352Y-72250220D01*
X109952311Y-72233719D01*
X110030457Y-72201350D01*
X110100787Y-72154357D01*
X110160597Y-72094547D01*
X110207590Y-72024217D01*
X110239959Y-71946071D01*
X110256460Y-71863112D01*
X110256460Y-71778528D01*
X110239959Y-71695569D01*
X110207590Y-71617423D01*
X110160597Y-71547093D01*
X110100787Y-71487283D01*
X110030457Y-71440290D01*
X109952311Y-71407921D01*
X109869352Y-71391420D01*
X109784768Y-71391420D01*
X109701809Y-71407921D01*
X109623663Y-71440290D01*
X109553333Y-71487283D01*
X109493523Y-71547093D01*
X109446530Y-71617423D01*
X109414161Y-71695569D01*
X109397660Y-71778528D01*
X108452180Y-71778528D01*
X108452180Y-71756225D01*
X108434718Y-71668436D01*
X108400464Y-71585741D01*
X108359626Y-71524622D01*
X108383103Y-71508936D01*
X108446396Y-71445643D01*
X108496124Y-71371219D01*
X108530378Y-71288524D01*
X108547840Y-71200735D01*
X108547840Y-71111225D01*
X108530378Y-71023436D01*
X108496124Y-70940741D01*
X108446396Y-70866317D01*
X108383103Y-70803024D01*
X108308679Y-70753296D01*
X108225984Y-70719042D01*
X108138195Y-70701580D01*
X108048685Y-70701580D01*
X107960896Y-70719042D01*
X107878201Y-70753296D01*
X107803777Y-70803024D01*
X107740484Y-70866317D01*
X107690756Y-70940741D01*
X107673970Y-70981265D01*
X107673970Y-70906301D01*
X107654587Y-70808852D01*
X107616564Y-70717057D01*
X107561363Y-70634443D01*
X107491107Y-70564187D01*
X107408493Y-70508986D01*
X107383740Y-70498733D01*
X107401177Y-70491510D01*
X107471507Y-70444517D01*
X107531317Y-70384707D01*
X107578310Y-70314377D01*
X107610679Y-70236231D01*
X107623200Y-70173280D01*
X107639815Y-70173280D01*
X107727604Y-70155818D01*
X107810299Y-70121564D01*
X107884723Y-70071836D01*
X107948016Y-70008543D01*
X107997744Y-69934119D01*
X108031998Y-69851424D01*
X108049460Y-69763635D01*
X108049460Y-69674125D01*
X108031998Y-69586336D01*
X108024825Y-69569020D01*
X111443160Y-69569020D01*
X111443160Y-74357604D01*
X111415464Y-74290741D01*
X111365736Y-74216317D01*
X111302443Y-74153024D01*
X111228019Y-74103296D01*
X111145324Y-74069042D01*
X111057535Y-74051580D01*
X110968025Y-74051580D01*
X110880236Y-74069042D01*
X110797541Y-74103296D01*
X110723117Y-74153024D01*
X110659824Y-74216317D01*
X110610096Y-74290741D01*
X110575842Y-74373436D01*
X110558380Y-74461225D01*
X110558380Y-74550735D01*
X110575842Y-74638524D01*
X110610096Y-74721219D01*
X110633322Y-74755980D01*
X110610096Y-74790741D01*
X110575842Y-74873436D01*
X110563851Y-74933721D01*
X110494317Y-74864187D01*
X110411703Y-74808986D01*
X110319908Y-74770963D01*
X110222459Y-74751580D01*
X110123101Y-74751580D01*
X110025652Y-74770963D01*
X109933857Y-74808986D01*
X109851243Y-74864187D01*
X109780987Y-74934443D01*
X109725786Y-75017057D01*
X109687763Y-75108852D01*
X109669598Y-75200179D01*
X109622443Y-75153024D01*
X109548019Y-75103296D01*
X109465324Y-75069042D01*
X109377535Y-75051580D01*
X109288025Y-75051580D01*
X109200236Y-75069042D01*
X109117541Y-75103296D01*
X109043117Y-75153024D01*
X108979824Y-75216317D01*
X108930096Y-75290741D01*
X108895842Y-75373436D01*
X108878380Y-75461225D01*
X108878380Y-75550735D01*
X108895842Y-75638524D01*
X108930096Y-75721219D01*
X108979824Y-75795643D01*
X109043117Y-75858936D01*
X109117541Y-75908664D01*
X109200236Y-75942918D01*
X109288025Y-75960380D01*
X109377535Y-75960380D01*
X109465324Y-75942918D01*
X109548019Y-75908664D01*
X109622443Y-75858936D01*
X109685736Y-75795643D01*
X109735464Y-75721219D01*
X109769718Y-75638524D01*
X109781709Y-75578239D01*
X109851243Y-75647773D01*
X109933857Y-75702974D01*
X110025652Y-75740997D01*
X110123101Y-75760380D01*
X110222459Y-75760380D01*
X110319908Y-75740997D01*
X110411703Y-75702974D01*
X110494317Y-75647773D01*
X110564573Y-75577517D01*
X110619774Y-75494903D01*
X110657797Y-75403108D01*
X110675962Y-75311781D01*
X110723117Y-75358936D01*
X110797541Y-75408664D01*
X110880236Y-75442918D01*
X110968025Y-75460380D01*
X111057535Y-75460380D01*
X111145324Y-75442918D01*
X111228019Y-75408664D01*
X111302443Y-75358936D01*
X111365736Y-75295643D01*
X111415464Y-75221219D01*
X111443160Y-75154356D01*
X111443160Y-79002580D01*
X102753820Y-79002580D01*
X102753820Y-77908691D01*
X105368380Y-77908691D01*
X105368380Y-77998201D01*
X105385842Y-78085990D01*
X105420096Y-78168685D01*
X105469824Y-78243109D01*
X105533117Y-78306402D01*
X105607541Y-78356130D01*
X105690236Y-78390384D01*
X105778025Y-78407846D01*
X105867535Y-78407846D01*
X105955324Y-78390384D01*
X106038019Y-78356130D01*
X106112443Y-78306402D01*
X106175736Y-78243109D01*
X106225464Y-78168685D01*
X106259718Y-78085990D01*
X106277180Y-77998201D01*
X106277180Y-77908691D01*
X106259718Y-77820902D01*
X106225464Y-77738207D01*
X106175736Y-77663783D01*
X106112443Y-77600490D01*
X106038019Y-77550762D01*
X105955324Y-77516508D01*
X105867535Y-77499046D01*
X105778025Y-77499046D01*
X105690236Y-77516508D01*
X105607541Y-77550762D01*
X105533117Y-77600490D01*
X105469824Y-77663783D01*
X105420096Y-77738207D01*
X105385842Y-77820902D01*
X105368380Y-77908691D01*
X102753820Y-77908691D01*
X102753820Y-77068824D01*
X106350979Y-77068824D01*
X106350979Y-77158334D01*
X106368441Y-77246123D01*
X106402695Y-77328818D01*
X106452423Y-77403242D01*
X106515716Y-77466535D01*
X106590140Y-77516263D01*
X106672835Y-77550517D01*
X106760624Y-77567979D01*
X106850134Y-77567979D01*
X106937923Y-77550517D01*
X107020618Y-77516263D01*
X107095042Y-77466535D01*
X107158335Y-77403242D01*
X107166485Y-77391044D01*
X107225977Y-77450536D01*
X107300401Y-77500264D01*
X107383096Y-77534518D01*
X107470885Y-77551980D01*
X107560395Y-77551980D01*
X107648184Y-77534518D01*
X107730879Y-77500264D01*
X107805303Y-77450536D01*
X107868596Y-77387243D01*
X107918324Y-77312819D01*
X107918744Y-77311805D01*
X109248960Y-77311805D01*
X109248960Y-77401315D01*
X109266422Y-77489104D01*
X109300676Y-77571799D01*
X109350404Y-77646223D01*
X109413697Y-77709516D01*
X109488121Y-77759244D01*
X109570816Y-77793498D01*
X109658605Y-77810960D01*
X109748115Y-77810960D01*
X109835904Y-77793498D01*
X109918599Y-77759244D01*
X109993023Y-77709516D01*
X110056316Y-77646223D01*
X110106044Y-77571799D01*
X110140298Y-77489104D01*
X110157760Y-77401315D01*
X110157760Y-77336225D01*
X110163380Y-77336225D01*
X110163380Y-77425735D01*
X110180842Y-77513524D01*
X110215096Y-77596219D01*
X110264824Y-77670643D01*
X110328117Y-77733936D01*
X110402541Y-77783664D01*
X110485236Y-77817918D01*
X110573025Y-77835380D01*
X110662535Y-77835380D01*
X110750324Y-77817918D01*
X110833019Y-77783664D01*
X110907443Y-77733936D01*
X110970736Y-77670643D01*
X111020464Y-77596219D01*
X111054718Y-77513524D01*
X111072180Y-77425735D01*
X111072180Y-77336225D01*
X111054718Y-77248436D01*
X111020464Y-77165741D01*
X110970736Y-77091317D01*
X110907443Y-77028024D01*
X110833019Y-76978296D01*
X110750324Y-76944042D01*
X110662535Y-76926580D01*
X110573025Y-76926580D01*
X110485236Y-76944042D01*
X110402541Y-76978296D01*
X110328117Y-77028024D01*
X110264824Y-77091317D01*
X110215096Y-77165741D01*
X110180842Y-77248436D01*
X110163380Y-77336225D01*
X110157760Y-77336225D01*
X110157760Y-77311805D01*
X110140298Y-77224016D01*
X110106044Y-77141321D01*
X110056316Y-77066897D01*
X109993023Y-77003604D01*
X109918599Y-76953876D01*
X109835904Y-76919622D01*
X109748115Y-76902160D01*
X109658605Y-76902160D01*
X109570816Y-76919622D01*
X109488121Y-76953876D01*
X109413697Y-77003604D01*
X109350404Y-77066897D01*
X109300676Y-77141321D01*
X109266422Y-77224016D01*
X109248960Y-77311805D01*
X107918744Y-77311805D01*
X107952578Y-77230124D01*
X107970040Y-77142335D01*
X107970040Y-77052825D01*
X107952578Y-76965036D01*
X107918324Y-76882341D01*
X107868596Y-76807917D01*
X107805303Y-76744624D01*
X107730879Y-76694896D01*
X107648184Y-76660642D01*
X107560395Y-76643180D01*
X107470885Y-76643180D01*
X107383096Y-76660642D01*
X107300401Y-76694896D01*
X107225977Y-76744624D01*
X107162684Y-76807917D01*
X107154534Y-76820115D01*
X107095042Y-76760623D01*
X107020618Y-76710895D01*
X106937923Y-76676641D01*
X106850134Y-76659179D01*
X106760624Y-76659179D01*
X106672835Y-76676641D01*
X106590140Y-76710895D01*
X106515716Y-76760623D01*
X106452423Y-76823916D01*
X106402695Y-76898340D01*
X106368441Y-76981035D01*
X106350979Y-77068824D01*
X102753820Y-77068824D01*
X102753820Y-75231301D01*
X103693380Y-75231301D01*
X103693380Y-75330659D01*
X103712763Y-75428108D01*
X103750786Y-75519903D01*
X103805987Y-75602517D01*
X103876243Y-75672773D01*
X103958857Y-75727974D01*
X104050652Y-75765997D01*
X104148101Y-75785380D01*
X104247459Y-75785380D01*
X104344908Y-75765997D01*
X104436703Y-75727974D01*
X104519317Y-75672773D01*
X104569030Y-75623060D01*
X104574942Y-75652784D01*
X104609196Y-75735479D01*
X104658924Y-75809903D01*
X104722217Y-75873196D01*
X104796641Y-75922924D01*
X104879336Y-75957178D01*
X104967125Y-75974640D01*
X105056635Y-75974640D01*
X105144424Y-75957178D01*
X105227119Y-75922924D01*
X105301543Y-75873196D01*
X105364836Y-75809903D01*
X105414564Y-75735479D01*
X105448818Y-75652784D01*
X105466280Y-75564995D01*
X105466280Y-75475485D01*
X105448818Y-75387696D01*
X105442014Y-75371268D01*
X106731320Y-75371268D01*
X106731320Y-75455852D01*
X106747821Y-75538811D01*
X106780190Y-75616957D01*
X106827183Y-75687287D01*
X106886993Y-75747097D01*
X106957323Y-75794090D01*
X107035469Y-75826459D01*
X107118428Y-75842960D01*
X107203012Y-75842960D01*
X107285971Y-75826459D01*
X107364117Y-75794090D01*
X107434447Y-75747097D01*
X107494257Y-75687287D01*
X107541250Y-75616957D01*
X107573619Y-75538811D01*
X107590120Y-75455852D01*
X107590120Y-75371268D01*
X107573619Y-75288309D01*
X107541250Y-75210163D01*
X107494257Y-75139833D01*
X107434447Y-75080023D01*
X107364117Y-75033030D01*
X107285971Y-75000661D01*
X107203012Y-74984160D01*
X107118428Y-74984160D01*
X107035469Y-75000661D01*
X106957323Y-75033030D01*
X106886993Y-75080023D01*
X106827183Y-75139833D01*
X106780190Y-75210163D01*
X106747821Y-75288309D01*
X106731320Y-75371268D01*
X105442014Y-75371268D01*
X105414564Y-75305001D01*
X105364836Y-75230577D01*
X105301543Y-75167284D01*
X105227119Y-75117556D01*
X105144424Y-75083302D01*
X105056635Y-75065840D01*
X104967125Y-75065840D01*
X104879336Y-75083302D01*
X104796641Y-75117556D01*
X104722217Y-75167284D01*
X104694884Y-75194617D01*
X104682797Y-75133852D01*
X104644774Y-75042057D01*
X104589573Y-74959443D01*
X104519317Y-74889187D01*
X104436703Y-74833986D01*
X104344908Y-74795963D01*
X104247459Y-74776580D01*
X104148101Y-74776580D01*
X104050652Y-74795963D01*
X103958857Y-74833986D01*
X103876243Y-74889187D01*
X103805987Y-74959443D01*
X103750786Y-75042057D01*
X103712763Y-75133852D01*
X103693380Y-75231301D01*
X102753820Y-75231301D01*
X102753820Y-73731301D01*
X103693380Y-73731301D01*
X103693380Y-73830659D01*
X103712763Y-73928108D01*
X103750786Y-74019903D01*
X103805987Y-74102517D01*
X103876243Y-74172773D01*
X103958857Y-74227974D01*
X104050652Y-74265997D01*
X104148101Y-74285380D01*
X104247459Y-74285380D01*
X104344908Y-74265997D01*
X104436703Y-74227974D01*
X104519317Y-74172773D01*
X104588851Y-74103239D01*
X104600842Y-74163524D01*
X104635096Y-74246219D01*
X104684824Y-74320643D01*
X104748117Y-74383936D01*
X104822541Y-74433664D01*
X104905236Y-74467918D01*
X104993025Y-74485380D01*
X105082535Y-74485380D01*
X105170324Y-74467918D01*
X105253019Y-74433664D01*
X105327443Y-74383936D01*
X105390736Y-74320643D01*
X105440464Y-74246219D01*
X105474718Y-74163524D01*
X105492180Y-74075735D01*
X105492180Y-73986225D01*
X105474718Y-73898436D01*
X105440464Y-73815741D01*
X105390736Y-73741317D01*
X105327443Y-73678024D01*
X105253019Y-73628296D01*
X105170324Y-73594042D01*
X105082535Y-73576580D01*
X104993025Y-73576580D01*
X104905236Y-73594042D01*
X104822541Y-73628296D01*
X104748117Y-73678024D01*
X104700962Y-73725179D01*
X104682797Y-73633852D01*
X104644774Y-73542057D01*
X104589573Y-73459443D01*
X104519317Y-73389187D01*
X104436703Y-73333986D01*
X104344908Y-73295963D01*
X104247459Y-73276580D01*
X104148101Y-73276580D01*
X104050652Y-73295963D01*
X103958857Y-73333986D01*
X103876243Y-73389187D01*
X103805987Y-73459443D01*
X103750786Y-73542057D01*
X103712763Y-73633852D01*
X103693380Y-73731301D01*
X102753820Y-73731301D01*
X102753820Y-73176768D01*
X106782180Y-73176768D01*
X106782180Y-73261352D01*
X106798681Y-73344311D01*
X106831050Y-73422457D01*
X106878043Y-73492787D01*
X106937853Y-73552597D01*
X106998686Y-73593244D01*
X106947953Y-73627143D01*
X106888143Y-73686953D01*
X106841150Y-73757283D01*
X106808781Y-73835429D01*
X106792280Y-73918388D01*
X106792280Y-74002972D01*
X106808781Y-74085931D01*
X106841150Y-74164077D01*
X106888143Y-74234407D01*
X106947953Y-74294217D01*
X107018283Y-74341210D01*
X107096429Y-74373579D01*
X107179388Y-74390080D01*
X107263972Y-74390080D01*
X107346931Y-74373579D01*
X107425077Y-74341210D01*
X107495407Y-74294217D01*
X107555217Y-74234407D01*
X107602210Y-74164077D01*
X107634579Y-74085931D01*
X107651080Y-74002972D01*
X107651080Y-73961225D01*
X108878380Y-73961225D01*
X108878380Y-74050735D01*
X108895842Y-74138524D01*
X108930096Y-74221219D01*
X108979824Y-74295643D01*
X109043117Y-74358936D01*
X109117541Y-74408664D01*
X109200236Y-74442918D01*
X109288025Y-74460380D01*
X109377535Y-74460380D01*
X109465324Y-74442918D01*
X109548019Y-74408664D01*
X109622443Y-74358936D01*
X109685736Y-74295643D01*
X109735464Y-74221219D01*
X109769718Y-74138524D01*
X109781709Y-74078239D01*
X109851243Y-74147773D01*
X109933857Y-74202974D01*
X110025652Y-74240997D01*
X110123101Y-74260380D01*
X110222459Y-74260380D01*
X110319908Y-74240997D01*
X110411703Y-74202974D01*
X110494317Y-74147773D01*
X110564573Y-74077517D01*
X110619774Y-73994903D01*
X110657797Y-73903108D01*
X110677180Y-73805659D01*
X110677180Y-73706301D01*
X110657797Y-73608852D01*
X110619774Y-73517057D01*
X110564573Y-73434443D01*
X110494317Y-73364187D01*
X110411703Y-73308986D01*
X110319908Y-73270963D01*
X110222459Y-73251580D01*
X110123101Y-73251580D01*
X110025652Y-73270963D01*
X109933857Y-73308986D01*
X109851243Y-73364187D01*
X109780987Y-73434443D01*
X109725786Y-73517057D01*
X109687763Y-73608852D01*
X109669598Y-73700179D01*
X109622443Y-73653024D01*
X109548019Y-73603296D01*
X109465324Y-73569042D01*
X109377535Y-73551580D01*
X109288025Y-73551580D01*
X109200236Y-73569042D01*
X109117541Y-73603296D01*
X109043117Y-73653024D01*
X108979824Y-73716317D01*
X108930096Y-73790741D01*
X108895842Y-73873436D01*
X108878380Y-73961225D01*
X107651080Y-73961225D01*
X107651080Y-73918388D01*
X107634579Y-73835429D01*
X107602210Y-73757283D01*
X107555217Y-73686953D01*
X107495407Y-73627143D01*
X107434574Y-73586496D01*
X107485307Y-73552597D01*
X107545117Y-73492787D01*
X107592110Y-73422457D01*
X107624479Y-73344311D01*
X107640980Y-73261352D01*
X107640980Y-73176768D01*
X107624479Y-73093809D01*
X107592110Y-73015663D01*
X107545117Y-72945333D01*
X107485307Y-72885523D01*
X107414977Y-72838530D01*
X107336831Y-72806161D01*
X107253872Y-72789660D01*
X107169288Y-72789660D01*
X107086329Y-72806161D01*
X107008183Y-72838530D01*
X106937853Y-72885523D01*
X106878043Y-72945333D01*
X106831050Y-73015663D01*
X106798681Y-73093809D01*
X106782180Y-73176768D01*
X102753820Y-73176768D01*
X102753820Y-71431299D01*
X102801437Y-71478916D01*
X102875861Y-71528644D01*
X102958556Y-71562898D01*
X103046345Y-71580360D01*
X103135855Y-71580360D01*
X103223644Y-71562898D01*
X103305584Y-71528957D01*
X103293224Y-71541317D01*
X103243496Y-71615741D01*
X103209242Y-71698436D01*
X103191780Y-71786225D01*
X103191780Y-71875735D01*
X103209242Y-71963524D01*
X103243496Y-72046219D01*
X103293224Y-72120643D01*
X103356517Y-72183936D01*
X103430941Y-72233664D01*
X103513636Y-72267918D01*
X103601425Y-72285380D01*
X103690935Y-72285380D01*
X103778724Y-72267918D01*
X103861419Y-72233664D01*
X103935843Y-72183936D01*
X103999136Y-72120643D01*
X104048864Y-72046219D01*
X104083118Y-71963524D01*
X104100580Y-71875735D01*
X104100580Y-71811225D01*
X104456220Y-71811225D01*
X104456220Y-71900735D01*
X104473682Y-71988524D01*
X104507936Y-72071219D01*
X104557664Y-72145643D01*
X104620957Y-72208936D01*
X104695381Y-72258664D01*
X104778076Y-72292918D01*
X104865865Y-72310380D01*
X104955375Y-72310380D01*
X105043164Y-72292918D01*
X105125859Y-72258664D01*
X105200283Y-72208936D01*
X105263576Y-72145643D01*
X105313304Y-72071219D01*
X105347558Y-71988524D01*
X105365020Y-71900735D01*
X105365020Y-71811225D01*
X105347558Y-71723436D01*
X105313304Y-71640741D01*
X105263576Y-71566317D01*
X105200283Y-71503024D01*
X105125859Y-71453296D01*
X105043164Y-71419042D01*
X104955375Y-71401580D01*
X104865865Y-71401580D01*
X104778076Y-71419042D01*
X104695381Y-71453296D01*
X104620957Y-71503024D01*
X104557664Y-71566317D01*
X104507936Y-71640741D01*
X104473682Y-71723436D01*
X104456220Y-71811225D01*
X104100580Y-71811225D01*
X104100580Y-71786225D01*
X104083118Y-71698436D01*
X104048864Y-71615741D01*
X103999136Y-71541317D01*
X103935843Y-71478024D01*
X103861419Y-71428296D01*
X103778724Y-71394042D01*
X103690935Y-71376580D01*
X103601425Y-71376580D01*
X103513636Y-71394042D01*
X103431696Y-71427983D01*
X103444056Y-71415623D01*
X103493784Y-71341199D01*
X103528038Y-71258504D01*
X103545500Y-71170715D01*
X103545500Y-71081205D01*
X103901140Y-71081205D01*
X103901140Y-71170715D01*
X103918602Y-71258504D01*
X103952856Y-71341199D01*
X104002584Y-71415623D01*
X104065877Y-71478916D01*
X104140301Y-71528644D01*
X104222996Y-71562898D01*
X104310785Y-71580360D01*
X104400295Y-71580360D01*
X104488084Y-71562898D01*
X104570779Y-71528644D01*
X104645203Y-71478916D01*
X104708496Y-71415623D01*
X104758224Y-71341199D01*
X104792478Y-71258504D01*
X104809940Y-71170715D01*
X104809940Y-71081205D01*
X104792478Y-70993416D01*
X104758224Y-70910721D01*
X104708496Y-70836297D01*
X104645203Y-70773004D01*
X104570779Y-70723276D01*
X104488084Y-70689022D01*
X104400295Y-70671560D01*
X104310785Y-70671560D01*
X104222996Y-70689022D01*
X104140301Y-70723276D01*
X104065877Y-70773004D01*
X104002584Y-70836297D01*
X103952856Y-70910721D01*
X103918602Y-70993416D01*
X103901140Y-71081205D01*
X103545500Y-71081205D01*
X103528038Y-70993416D01*
X103493784Y-70910721D01*
X103444056Y-70836297D01*
X103380763Y-70773004D01*
X103306339Y-70723276D01*
X103223644Y-70689022D01*
X103135855Y-70671560D01*
X103046345Y-70671560D01*
X102958556Y-70689022D01*
X102875861Y-70723276D01*
X102801437Y-70773004D01*
X102753820Y-70820621D01*
X102753820Y-70304639D01*
X102801437Y-70352256D01*
X102875861Y-70401984D01*
X102958556Y-70436238D01*
X103046345Y-70453700D01*
X103135855Y-70453700D01*
X103223644Y-70436238D01*
X103306339Y-70401984D01*
X103380763Y-70352256D01*
X103444056Y-70288963D01*
X103493784Y-70214539D01*
X103528038Y-70131844D01*
X103545500Y-70044055D01*
X103545500Y-69954545D01*
X103528038Y-69866756D01*
X103493784Y-69784061D01*
X103444056Y-69709637D01*
X103380763Y-69646344D01*
X103306339Y-69596616D01*
X103239718Y-69569020D01*
X107165295Y-69569020D01*
X107158122Y-69586336D01*
X107158122Y-69586336D01*
G37*
X107158122Y-69586336D02*
X107140660Y-69674125D01*
X107140660Y-69684529D01*
X107072529Y-69698081D01*
X106994383Y-69730450D01*
X106924053Y-69777443D01*
X106864243Y-69837253D01*
X106817250Y-69907583D01*
X106784881Y-69985729D01*
X106768380Y-70068688D01*
X106768380Y-70153272D01*
X106784881Y-70236231D01*
X106817250Y-70314377D01*
X106864243Y-70384707D01*
X106924053Y-70444517D01*
X106986138Y-70486001D01*
X106930647Y-70508986D01*
X106848033Y-70564187D01*
X106777777Y-70634443D01*
X106722576Y-70717057D01*
X106684553Y-70808852D01*
X106665170Y-70906301D01*
X106665170Y-71005659D01*
X106684553Y-71103108D01*
X106722576Y-71194903D01*
X106777777Y-71277517D01*
X106848033Y-71347773D01*
X106930647Y-71402974D01*
X107022442Y-71440997D01*
X107119891Y-71460380D01*
X107219249Y-71460380D01*
X107316698Y-71440997D01*
X107408493Y-71402974D01*
X107491107Y-71347773D01*
X107561363Y-71277517D01*
X107616564Y-71194903D01*
X107639040Y-71140642D01*
X107639040Y-71200735D01*
X107656502Y-71288524D01*
X107690756Y-71371219D01*
X107731594Y-71432338D01*
X107708117Y-71448024D01*
X107644824Y-71511317D01*
X107595096Y-71585741D01*
X107560842Y-71668436D01*
X107543380Y-71756225D01*
X107543380Y-71845735D01*
X107560842Y-71933524D01*
X107595096Y-72016219D01*
X107644824Y-72090643D01*
X107708117Y-72153936D01*
X107782541Y-72203664D01*
X107865236Y-72237918D01*
X107953025Y-72255380D01*
X108042535Y-72255380D01*
X108130324Y-72237918D01*
X108213019Y-72203664D01*
X108287443Y-72153936D01*
X108350736Y-72090643D01*
X108400464Y-72016219D01*
X108434718Y-71933524D01*
X108452180Y-71845735D01*
X108452180Y-71778528D01*
X109397660Y-71778528D01*
X109397660Y-71863112D01*
X109414161Y-71946071D01*
X109446530Y-72024217D01*
X109493523Y-72094547D01*
X109553333Y-72154357D01*
X109623663Y-72201350D01*
X109701809Y-72233719D01*
X109784768Y-72250220D01*
X109869352Y-72250220D01*
X109952311Y-72233719D01*
X110030457Y-72201350D01*
X110100787Y-72154357D01*
X110160597Y-72094547D01*
X110207590Y-72024217D01*
X110239959Y-71946071D01*
X110256460Y-71863112D01*
X110256460Y-71778528D01*
X110239959Y-71695569D01*
X110207590Y-71617423D01*
X110160597Y-71547093D01*
X110100787Y-71487283D01*
X110030457Y-71440290D01*
X109952311Y-71407921D01*
X109869352Y-71391420D01*
X109784768Y-71391420D01*
X109701809Y-71407921D01*
X109623663Y-71440290D01*
X109553333Y-71487283D01*
X109493523Y-71547093D01*
X109446530Y-71617423D01*
X109414161Y-71695569D01*
X109397660Y-71778528D01*
X108452180Y-71778528D01*
X108452180Y-71756225D01*
X108434718Y-71668436D01*
X108400464Y-71585741D01*
X108359626Y-71524622D01*
X108383103Y-71508936D01*
X108446396Y-71445643D01*
X108496124Y-71371219D01*
X108530378Y-71288524D01*
X108547840Y-71200735D01*
X108547840Y-71111225D01*
X108530378Y-71023436D01*
X108496124Y-70940741D01*
X108446396Y-70866317D01*
X108383103Y-70803024D01*
X108308679Y-70753296D01*
X108225984Y-70719042D01*
X108138195Y-70701580D01*
X108048685Y-70701580D01*
X107960896Y-70719042D01*
X107878201Y-70753296D01*
X107803777Y-70803024D01*
X107740484Y-70866317D01*
X107690756Y-70940741D01*
X107673970Y-70981265D01*
X107673970Y-70906301D01*
X107654587Y-70808852D01*
X107616564Y-70717057D01*
X107561363Y-70634443D01*
X107491107Y-70564187D01*
X107408493Y-70508986D01*
X107383740Y-70498733D01*
X107401177Y-70491510D01*
X107471507Y-70444517D01*
X107531317Y-70384707D01*
X107578310Y-70314377D01*
X107610679Y-70236231D01*
X107623200Y-70173280D01*
X107639815Y-70173280D01*
X107727604Y-70155818D01*
X107810299Y-70121564D01*
X107884723Y-70071836D01*
X107948016Y-70008543D01*
X107997744Y-69934119D01*
X108031998Y-69851424D01*
X108049460Y-69763635D01*
X108049460Y-69674125D01*
X108031998Y-69586336D01*
X108024825Y-69569020D01*
X111443160Y-69569020D01*
X111443160Y-74357604D01*
X111415464Y-74290741D01*
X111365736Y-74216317D01*
X111302443Y-74153024D01*
X111228019Y-74103296D01*
X111145324Y-74069042D01*
X111057535Y-74051580D01*
X110968025Y-74051580D01*
X110880236Y-74069042D01*
X110797541Y-74103296D01*
X110723117Y-74153024D01*
X110659824Y-74216317D01*
X110610096Y-74290741D01*
X110575842Y-74373436D01*
X110558380Y-74461225D01*
X110558380Y-74550735D01*
X110575842Y-74638524D01*
X110610096Y-74721219D01*
X110633322Y-74755980D01*
X110610096Y-74790741D01*
X110575842Y-74873436D01*
X110563851Y-74933721D01*
X110494317Y-74864187D01*
X110411703Y-74808986D01*
X110319908Y-74770963D01*
X110222459Y-74751580D01*
X110123101Y-74751580D01*
X110025652Y-74770963D01*
X109933857Y-74808986D01*
X109851243Y-74864187D01*
X109780987Y-74934443D01*
X109725786Y-75017057D01*
X109687763Y-75108852D01*
X109669598Y-75200179D01*
X109622443Y-75153024D01*
X109548019Y-75103296D01*
X109465324Y-75069042D01*
X109377535Y-75051580D01*
X109288025Y-75051580D01*
X109200236Y-75069042D01*
X109117541Y-75103296D01*
X109043117Y-75153024D01*
X108979824Y-75216317D01*
X108930096Y-75290741D01*
X108895842Y-75373436D01*
X108878380Y-75461225D01*
X108878380Y-75550735D01*
X108895842Y-75638524D01*
X108930096Y-75721219D01*
X108979824Y-75795643D01*
X109043117Y-75858936D01*
X109117541Y-75908664D01*
X109200236Y-75942918D01*
X109288025Y-75960380D01*
X109377535Y-75960380D01*
X109465324Y-75942918D01*
X109548019Y-75908664D01*
X109622443Y-75858936D01*
X109685736Y-75795643D01*
X109735464Y-75721219D01*
X109769718Y-75638524D01*
X109781709Y-75578239D01*
X109851243Y-75647773D01*
X109933857Y-75702974D01*
X110025652Y-75740997D01*
X110123101Y-75760380D01*
X110222459Y-75760380D01*
X110319908Y-75740997D01*
X110411703Y-75702974D01*
X110494317Y-75647773D01*
X110564573Y-75577517D01*
X110619774Y-75494903D01*
X110657797Y-75403108D01*
X110675962Y-75311781D01*
X110723117Y-75358936D01*
X110797541Y-75408664D01*
X110880236Y-75442918D01*
X110968025Y-75460380D01*
X111057535Y-75460380D01*
X111145324Y-75442918D01*
X111228019Y-75408664D01*
X111302443Y-75358936D01*
X111365736Y-75295643D01*
X111415464Y-75221219D01*
X111443160Y-75154356D01*
X111443160Y-79002580D01*
X102753820Y-79002580D01*
X102753820Y-77908691D01*
X105368380Y-77908691D01*
X105368380Y-77998201D01*
X105385842Y-78085990D01*
X105420096Y-78168685D01*
X105469824Y-78243109D01*
X105533117Y-78306402D01*
X105607541Y-78356130D01*
X105690236Y-78390384D01*
X105778025Y-78407846D01*
X105867535Y-78407846D01*
X105955324Y-78390384D01*
X106038019Y-78356130D01*
X106112443Y-78306402D01*
X106175736Y-78243109D01*
X106225464Y-78168685D01*
X106259718Y-78085990D01*
X106277180Y-77998201D01*
X106277180Y-77908691D01*
X106259718Y-77820902D01*
X106225464Y-77738207D01*
X106175736Y-77663783D01*
X106112443Y-77600490D01*
X106038019Y-77550762D01*
X105955324Y-77516508D01*
X105867535Y-77499046D01*
X105778025Y-77499046D01*
X105690236Y-77516508D01*
X105607541Y-77550762D01*
X105533117Y-77600490D01*
X105469824Y-77663783D01*
X105420096Y-77738207D01*
X105385842Y-77820902D01*
X105368380Y-77908691D01*
X102753820Y-77908691D01*
X102753820Y-77068824D01*
X106350979Y-77068824D01*
X106350979Y-77158334D01*
X106368441Y-77246123D01*
X106402695Y-77328818D01*
X106452423Y-77403242D01*
X106515716Y-77466535D01*
X106590140Y-77516263D01*
X106672835Y-77550517D01*
X106760624Y-77567979D01*
X106850134Y-77567979D01*
X106937923Y-77550517D01*
X107020618Y-77516263D01*
X107095042Y-77466535D01*
X107158335Y-77403242D01*
X107166485Y-77391044D01*
X107225977Y-77450536D01*
X107300401Y-77500264D01*
X107383096Y-77534518D01*
X107470885Y-77551980D01*
X107560395Y-77551980D01*
X107648184Y-77534518D01*
X107730879Y-77500264D01*
X107805303Y-77450536D01*
X107868596Y-77387243D01*
X107918324Y-77312819D01*
X107918744Y-77311805D01*
X109248960Y-77311805D01*
X109248960Y-77401315D01*
X109266422Y-77489104D01*
X109300676Y-77571799D01*
X109350404Y-77646223D01*
X109413697Y-77709516D01*
X109488121Y-77759244D01*
X109570816Y-77793498D01*
X109658605Y-77810960D01*
X109748115Y-77810960D01*
X109835904Y-77793498D01*
X109918599Y-77759244D01*
X109993023Y-77709516D01*
X110056316Y-77646223D01*
X110106044Y-77571799D01*
X110140298Y-77489104D01*
X110157760Y-77401315D01*
X110157760Y-77336225D01*
X110163380Y-77336225D01*
X110163380Y-77425735D01*
X110180842Y-77513524D01*
X110215096Y-77596219D01*
X110264824Y-77670643D01*
X110328117Y-77733936D01*
X110402541Y-77783664D01*
X110485236Y-77817918D01*
X110573025Y-77835380D01*
X110662535Y-77835380D01*
X110750324Y-77817918D01*
X110833019Y-77783664D01*
X110907443Y-77733936D01*
X110970736Y-77670643D01*
X111020464Y-77596219D01*
X111054718Y-77513524D01*
X111072180Y-77425735D01*
X111072180Y-77336225D01*
X111054718Y-77248436D01*
X111020464Y-77165741D01*
X110970736Y-77091317D01*
X110907443Y-77028024D01*
X110833019Y-76978296D01*
X110750324Y-76944042D01*
X110662535Y-76926580D01*
X110573025Y-76926580D01*
X110485236Y-76944042D01*
X110402541Y-76978296D01*
X110328117Y-77028024D01*
X110264824Y-77091317D01*
X110215096Y-77165741D01*
X110180842Y-77248436D01*
X110163380Y-77336225D01*
X110157760Y-77336225D01*
X110157760Y-77311805D01*
X110140298Y-77224016D01*
X110106044Y-77141321D01*
X110056316Y-77066897D01*
X109993023Y-77003604D01*
X109918599Y-76953876D01*
X109835904Y-76919622D01*
X109748115Y-76902160D01*
X109658605Y-76902160D01*
X109570816Y-76919622D01*
X109488121Y-76953876D01*
X109413697Y-77003604D01*
X109350404Y-77066897D01*
X109300676Y-77141321D01*
X109266422Y-77224016D01*
X109248960Y-77311805D01*
X107918744Y-77311805D01*
X107952578Y-77230124D01*
X107970040Y-77142335D01*
X107970040Y-77052825D01*
X107952578Y-76965036D01*
X107918324Y-76882341D01*
X107868596Y-76807917D01*
X107805303Y-76744624D01*
X107730879Y-76694896D01*
X107648184Y-76660642D01*
X107560395Y-76643180D01*
X107470885Y-76643180D01*
X107383096Y-76660642D01*
X107300401Y-76694896D01*
X107225977Y-76744624D01*
X107162684Y-76807917D01*
X107154534Y-76820115D01*
X107095042Y-76760623D01*
X107020618Y-76710895D01*
X106937923Y-76676641D01*
X106850134Y-76659179D01*
X106760624Y-76659179D01*
X106672835Y-76676641D01*
X106590140Y-76710895D01*
X106515716Y-76760623D01*
X106452423Y-76823916D01*
X106402695Y-76898340D01*
X106368441Y-76981035D01*
X106350979Y-77068824D01*
X102753820Y-77068824D01*
X102753820Y-75231301D01*
X103693380Y-75231301D01*
X103693380Y-75330659D01*
X103712763Y-75428108D01*
X103750786Y-75519903D01*
X103805987Y-75602517D01*
X103876243Y-75672773D01*
X103958857Y-75727974D01*
X104050652Y-75765997D01*
X104148101Y-75785380D01*
X104247459Y-75785380D01*
X104344908Y-75765997D01*
X104436703Y-75727974D01*
X104519317Y-75672773D01*
X104569030Y-75623060D01*
X104574942Y-75652784D01*
X104609196Y-75735479D01*
X104658924Y-75809903D01*
X104722217Y-75873196D01*
X104796641Y-75922924D01*
X104879336Y-75957178D01*
X104967125Y-75974640D01*
X105056635Y-75974640D01*
X105144424Y-75957178D01*
X105227119Y-75922924D01*
X105301543Y-75873196D01*
X105364836Y-75809903D01*
X105414564Y-75735479D01*
X105448818Y-75652784D01*
X105466280Y-75564995D01*
X105466280Y-75475485D01*
X105448818Y-75387696D01*
X105442014Y-75371268D01*
X106731320Y-75371268D01*
X106731320Y-75455852D01*
X106747821Y-75538811D01*
X106780190Y-75616957D01*
X106827183Y-75687287D01*
X106886993Y-75747097D01*
X106957323Y-75794090D01*
X107035469Y-75826459D01*
X107118428Y-75842960D01*
X107203012Y-75842960D01*
X107285971Y-75826459D01*
X107364117Y-75794090D01*
X107434447Y-75747097D01*
X107494257Y-75687287D01*
X107541250Y-75616957D01*
X107573619Y-75538811D01*
X107590120Y-75455852D01*
X107590120Y-75371268D01*
X107573619Y-75288309D01*
X107541250Y-75210163D01*
X107494257Y-75139833D01*
X107434447Y-75080023D01*
X107364117Y-75033030D01*
X107285971Y-75000661D01*
X107203012Y-74984160D01*
X107118428Y-74984160D01*
X107035469Y-75000661D01*
X106957323Y-75033030D01*
X106886993Y-75080023D01*
X106827183Y-75139833D01*
X106780190Y-75210163D01*
X106747821Y-75288309D01*
X106731320Y-75371268D01*
X105442014Y-75371268D01*
X105414564Y-75305001D01*
X105364836Y-75230577D01*
X105301543Y-75167284D01*
X105227119Y-75117556D01*
X105144424Y-75083302D01*
X105056635Y-75065840D01*
X104967125Y-75065840D01*
X104879336Y-75083302D01*
X104796641Y-75117556D01*
X104722217Y-75167284D01*
X104694884Y-75194617D01*
X104682797Y-75133852D01*
X104644774Y-75042057D01*
X104589573Y-74959443D01*
X104519317Y-74889187D01*
X104436703Y-74833986D01*
X104344908Y-74795963D01*
X104247459Y-74776580D01*
X104148101Y-74776580D01*
X104050652Y-74795963D01*
X103958857Y-74833986D01*
X103876243Y-74889187D01*
X103805987Y-74959443D01*
X103750786Y-75042057D01*
X103712763Y-75133852D01*
X103693380Y-75231301D01*
X102753820Y-75231301D01*
X102753820Y-73731301D01*
X103693380Y-73731301D01*
X103693380Y-73830659D01*
X103712763Y-73928108D01*
X103750786Y-74019903D01*
X103805987Y-74102517D01*
X103876243Y-74172773D01*
X103958857Y-74227974D01*
X104050652Y-74265997D01*
X104148101Y-74285380D01*
X104247459Y-74285380D01*
X104344908Y-74265997D01*
X104436703Y-74227974D01*
X104519317Y-74172773D01*
X104588851Y-74103239D01*
X104600842Y-74163524D01*
X104635096Y-74246219D01*
X104684824Y-74320643D01*
X104748117Y-74383936D01*
X104822541Y-74433664D01*
X104905236Y-74467918D01*
X104993025Y-74485380D01*
X105082535Y-74485380D01*
X105170324Y-74467918D01*
X105253019Y-74433664D01*
X105327443Y-74383936D01*
X105390736Y-74320643D01*
X105440464Y-74246219D01*
X105474718Y-74163524D01*
X105492180Y-74075735D01*
X105492180Y-73986225D01*
X105474718Y-73898436D01*
X105440464Y-73815741D01*
X105390736Y-73741317D01*
X105327443Y-73678024D01*
X105253019Y-73628296D01*
X105170324Y-73594042D01*
X105082535Y-73576580D01*
X104993025Y-73576580D01*
X104905236Y-73594042D01*
X104822541Y-73628296D01*
X104748117Y-73678024D01*
X104700962Y-73725179D01*
X104682797Y-73633852D01*
X104644774Y-73542057D01*
X104589573Y-73459443D01*
X104519317Y-73389187D01*
X104436703Y-73333986D01*
X104344908Y-73295963D01*
X104247459Y-73276580D01*
X104148101Y-73276580D01*
X104050652Y-73295963D01*
X103958857Y-73333986D01*
X103876243Y-73389187D01*
X103805987Y-73459443D01*
X103750786Y-73542057D01*
X103712763Y-73633852D01*
X103693380Y-73731301D01*
X102753820Y-73731301D01*
X102753820Y-73176768D01*
X106782180Y-73176768D01*
X106782180Y-73261352D01*
X106798681Y-73344311D01*
X106831050Y-73422457D01*
X106878043Y-73492787D01*
X106937853Y-73552597D01*
X106998686Y-73593244D01*
X106947953Y-73627143D01*
X106888143Y-73686953D01*
X106841150Y-73757283D01*
X106808781Y-73835429D01*
X106792280Y-73918388D01*
X106792280Y-74002972D01*
X106808781Y-74085931D01*
X106841150Y-74164077D01*
X106888143Y-74234407D01*
X106947953Y-74294217D01*
X107018283Y-74341210D01*
X107096429Y-74373579D01*
X107179388Y-74390080D01*
X107263972Y-74390080D01*
X107346931Y-74373579D01*
X107425077Y-74341210D01*
X107495407Y-74294217D01*
X107555217Y-74234407D01*
X107602210Y-74164077D01*
X107634579Y-74085931D01*
X107651080Y-74002972D01*
X107651080Y-73961225D01*
X108878380Y-73961225D01*
X108878380Y-74050735D01*
X108895842Y-74138524D01*
X108930096Y-74221219D01*
X108979824Y-74295643D01*
X109043117Y-74358936D01*
X109117541Y-74408664D01*
X109200236Y-74442918D01*
X109288025Y-74460380D01*
X109377535Y-74460380D01*
X109465324Y-74442918D01*
X109548019Y-74408664D01*
X109622443Y-74358936D01*
X109685736Y-74295643D01*
X109735464Y-74221219D01*
X109769718Y-74138524D01*
X109781709Y-74078239D01*
X109851243Y-74147773D01*
X109933857Y-74202974D01*
X110025652Y-74240997D01*
X110123101Y-74260380D01*
X110222459Y-74260380D01*
X110319908Y-74240997D01*
X110411703Y-74202974D01*
X110494317Y-74147773D01*
X110564573Y-74077517D01*
X110619774Y-73994903D01*
X110657797Y-73903108D01*
X110677180Y-73805659D01*
X110677180Y-73706301D01*
X110657797Y-73608852D01*
X110619774Y-73517057D01*
X110564573Y-73434443D01*
X110494317Y-73364187D01*
X110411703Y-73308986D01*
X110319908Y-73270963D01*
X110222459Y-73251580D01*
X110123101Y-73251580D01*
X110025652Y-73270963D01*
X109933857Y-73308986D01*
X109851243Y-73364187D01*
X109780987Y-73434443D01*
X109725786Y-73517057D01*
X109687763Y-73608852D01*
X109669598Y-73700179D01*
X109622443Y-73653024D01*
X109548019Y-73603296D01*
X109465324Y-73569042D01*
X109377535Y-73551580D01*
X109288025Y-73551580D01*
X109200236Y-73569042D01*
X109117541Y-73603296D01*
X109043117Y-73653024D01*
X108979824Y-73716317D01*
X108930096Y-73790741D01*
X108895842Y-73873436D01*
X108878380Y-73961225D01*
X107651080Y-73961225D01*
X107651080Y-73918388D01*
X107634579Y-73835429D01*
X107602210Y-73757283D01*
X107555217Y-73686953D01*
X107495407Y-73627143D01*
X107434574Y-73586496D01*
X107485307Y-73552597D01*
X107545117Y-73492787D01*
X107592110Y-73422457D01*
X107624479Y-73344311D01*
X107640980Y-73261352D01*
X107640980Y-73176768D01*
X107624479Y-73093809D01*
X107592110Y-73015663D01*
X107545117Y-72945333D01*
X107485307Y-72885523D01*
X107414977Y-72838530D01*
X107336831Y-72806161D01*
X107253872Y-72789660D01*
X107169288Y-72789660D01*
X107086329Y-72806161D01*
X107008183Y-72838530D01*
X106937853Y-72885523D01*
X106878043Y-72945333D01*
X106831050Y-73015663D01*
X106798681Y-73093809D01*
X106782180Y-73176768D01*
X102753820Y-73176768D01*
X102753820Y-71431299D01*
X102801437Y-71478916D01*
X102875861Y-71528644D01*
X102958556Y-71562898D01*
X103046345Y-71580360D01*
X103135855Y-71580360D01*
X103223644Y-71562898D01*
X103305584Y-71528957D01*
X103293224Y-71541317D01*
X103243496Y-71615741D01*
X103209242Y-71698436D01*
X103191780Y-71786225D01*
X103191780Y-71875735D01*
X103209242Y-71963524D01*
X103243496Y-72046219D01*
X103293224Y-72120643D01*
X103356517Y-72183936D01*
X103430941Y-72233664D01*
X103513636Y-72267918D01*
X103601425Y-72285380D01*
X103690935Y-72285380D01*
X103778724Y-72267918D01*
X103861419Y-72233664D01*
X103935843Y-72183936D01*
X103999136Y-72120643D01*
X104048864Y-72046219D01*
X104083118Y-71963524D01*
X104100580Y-71875735D01*
X104100580Y-71811225D01*
X104456220Y-71811225D01*
X104456220Y-71900735D01*
X104473682Y-71988524D01*
X104507936Y-72071219D01*
X104557664Y-72145643D01*
X104620957Y-72208936D01*
X104695381Y-72258664D01*
X104778076Y-72292918D01*
X104865865Y-72310380D01*
X104955375Y-72310380D01*
X105043164Y-72292918D01*
X105125859Y-72258664D01*
X105200283Y-72208936D01*
X105263576Y-72145643D01*
X105313304Y-72071219D01*
X105347558Y-71988524D01*
X105365020Y-71900735D01*
X105365020Y-71811225D01*
X105347558Y-71723436D01*
X105313304Y-71640741D01*
X105263576Y-71566317D01*
X105200283Y-71503024D01*
X105125859Y-71453296D01*
X105043164Y-71419042D01*
X104955375Y-71401580D01*
X104865865Y-71401580D01*
X104778076Y-71419042D01*
X104695381Y-71453296D01*
X104620957Y-71503024D01*
X104557664Y-71566317D01*
X104507936Y-71640741D01*
X104473682Y-71723436D01*
X104456220Y-71811225D01*
X104100580Y-71811225D01*
X104100580Y-71786225D01*
X104083118Y-71698436D01*
X104048864Y-71615741D01*
X103999136Y-71541317D01*
X103935843Y-71478024D01*
X103861419Y-71428296D01*
X103778724Y-71394042D01*
X103690935Y-71376580D01*
X103601425Y-71376580D01*
X103513636Y-71394042D01*
X103431696Y-71427983D01*
X103444056Y-71415623D01*
X103493784Y-71341199D01*
X103528038Y-71258504D01*
X103545500Y-71170715D01*
X103545500Y-71081205D01*
X103901140Y-71081205D01*
X103901140Y-71170715D01*
X103918602Y-71258504D01*
X103952856Y-71341199D01*
X104002584Y-71415623D01*
X104065877Y-71478916D01*
X104140301Y-71528644D01*
X104222996Y-71562898D01*
X104310785Y-71580360D01*
X104400295Y-71580360D01*
X104488084Y-71562898D01*
X104570779Y-71528644D01*
X104645203Y-71478916D01*
X104708496Y-71415623D01*
X104758224Y-71341199D01*
X104792478Y-71258504D01*
X104809940Y-71170715D01*
X104809940Y-71081205D01*
X104792478Y-70993416D01*
X104758224Y-70910721D01*
X104708496Y-70836297D01*
X104645203Y-70773004D01*
X104570779Y-70723276D01*
X104488084Y-70689022D01*
X104400295Y-70671560D01*
X104310785Y-70671560D01*
X104222996Y-70689022D01*
X104140301Y-70723276D01*
X104065877Y-70773004D01*
X104002584Y-70836297D01*
X103952856Y-70910721D01*
X103918602Y-70993416D01*
X103901140Y-71081205D01*
X103545500Y-71081205D01*
X103528038Y-70993416D01*
X103493784Y-70910721D01*
X103444056Y-70836297D01*
X103380763Y-70773004D01*
X103306339Y-70723276D01*
X103223644Y-70689022D01*
X103135855Y-70671560D01*
X103046345Y-70671560D01*
X102958556Y-70689022D01*
X102875861Y-70723276D01*
X102801437Y-70773004D01*
X102753820Y-70820621D01*
X102753820Y-70304639D01*
X102801437Y-70352256D01*
X102875861Y-70401984D01*
X102958556Y-70436238D01*
X103046345Y-70453700D01*
X103135855Y-70453700D01*
X103223644Y-70436238D01*
X103306339Y-70401984D01*
X103380763Y-70352256D01*
X103444056Y-70288963D01*
X103493784Y-70214539D01*
X103528038Y-70131844D01*
X103545500Y-70044055D01*
X103545500Y-69954545D01*
X103528038Y-69866756D01*
X103493784Y-69784061D01*
X103444056Y-69709637D01*
X103380763Y-69646344D01*
X103306339Y-69596616D01*
X103239718Y-69569020D01*
X107165295Y-69569020D01*
X107158122Y-69586336D01*
M02*
