G04 #@! TF.GenerationSoftware,KiCad,Pcbnew,(5.1.4)-1*
G04 #@! TF.CreationDate,2020-08-13T23:55:05-07:00*
G04 #@! TF.ProjectId,Kicad_LFOV_RigidFlex_Assembly,4b696361-645f-44c4-964f-565f52696769,rev?*
G04 #@! TF.SameCoordinates,Original*
G04 #@! TF.FileFunction,Paste,Bot*
G04 #@! TF.FilePolarity,Positive*
%FSLAX46Y46*%
G04 Gerber Fmt 4.6, Leading zero omitted, Abs format (unit mm)*
G04 Created by KiCad (PCBNEW (5.1.4)-1) date 2020-08-13 23:55:05*
%MOMM*%
%LPD*%
G04 APERTURE LIST*
%ADD10R,0.500000X0.740000*%
%ADD11R,0.740000X0.500000*%
%ADD12R,0.500000X1.248000*%
%ADD13R,0.525000X0.300000*%
%ADD14R,0.300000X0.425000*%
%ADD15R,0.340000X0.310000*%
%ADD16R,2.620000X0.870000*%
%ADD17R,0.630000X0.580000*%
%ADD18R,0.580000X0.630000*%
%ADD19R,0.310000X0.340000*%
%ADD20C,0.100000*%
%ADD21C,0.590000*%
%ADD22R,0.270000X0.820000*%
%ADD23R,0.270000X0.740000*%
%ADD24R,1.320000X0.930000*%
%ADD25R,1.500000X0.450000*%
G04 APERTURE END LIST*
D10*
X110981180Y-118973600D03*
X110281180Y-118973600D03*
X109581180Y-118973600D03*
X108881180Y-118973600D03*
X108181180Y-118973600D03*
X107481180Y-118973600D03*
X106781180Y-118973600D03*
X106081180Y-118973600D03*
X105381180Y-118973600D03*
X104681180Y-118973600D03*
X103981180Y-118973600D03*
X103281180Y-118973600D03*
D11*
X102546180Y-118238600D03*
X102546180Y-117538600D03*
X102546180Y-116838600D03*
X102546180Y-116138600D03*
X102546180Y-115438600D03*
X102546180Y-114738600D03*
X102546180Y-114038600D03*
X102546180Y-113338600D03*
X102546180Y-112638600D03*
X102546180Y-111938600D03*
X102546180Y-111238600D03*
X102546180Y-110538600D03*
D10*
X103281180Y-109803600D03*
X103981180Y-109803600D03*
X104681180Y-109803600D03*
X105381180Y-109803600D03*
X106081180Y-109803600D03*
X106781180Y-109803600D03*
D12*
X107481180Y-110057600D03*
D10*
X108181180Y-109803600D03*
X108881180Y-109803600D03*
X109581180Y-109803600D03*
X110281180Y-109803600D03*
X110981180Y-109803600D03*
D11*
X111716180Y-110538600D03*
X111716180Y-111238600D03*
X111716180Y-111938600D03*
X111716180Y-112638600D03*
X111716180Y-113338600D03*
X111716180Y-114038600D03*
X111716180Y-114738600D03*
X111716180Y-115438600D03*
X111716180Y-116138600D03*
X111716180Y-116838600D03*
X111716180Y-117538600D03*
X111716180Y-118238600D03*
D13*
X125685200Y-89397280D03*
X125685200Y-89897280D03*
X125685200Y-90397280D03*
X125685200Y-90897280D03*
X125685200Y-91397280D03*
X125685200Y-91897280D03*
X125685200Y-92397280D03*
X125685200Y-92897280D03*
X125685200Y-93397280D03*
D14*
X126497700Y-93459780D03*
X126997700Y-93459780D03*
X127497700Y-93459780D03*
X127997700Y-93459780D03*
D13*
X128810200Y-93397280D03*
X128810200Y-92897280D03*
X128810200Y-92397280D03*
X128810200Y-91897280D03*
X128810200Y-91397280D03*
X128810200Y-90897280D03*
X128810200Y-90397280D03*
X128810200Y-89897280D03*
X128810200Y-89397280D03*
X128810200Y-88897280D03*
D14*
X127997700Y-88834780D03*
X127497700Y-88834780D03*
X126997700Y-88834780D03*
X126497700Y-88834780D03*
D13*
X125685200Y-88897280D03*
D15*
X103470100Y-90169100D03*
X103470100Y-89619100D03*
D16*
X101684480Y-90504700D03*
X101684480Y-87454700D03*
D17*
X103132280Y-92421900D03*
X103132280Y-91531900D03*
D18*
X105913080Y-88090700D03*
X106803080Y-88090700D03*
D19*
X102162680Y-93500900D03*
X101612680Y-93500900D03*
D17*
X104021280Y-91531900D03*
X104021280Y-92421900D03*
D15*
X100541480Y-93369500D03*
X100541480Y-92819500D03*
X100541480Y-91320900D03*
X100541480Y-91870900D03*
D18*
X108504880Y-88090700D03*
X107614880Y-88090700D03*
D19*
X108038880Y-86744500D03*
X108588880Y-86744500D03*
X108588880Y-87328700D03*
X108038880Y-87328700D03*
X106628680Y-91443500D03*
X106078680Y-91443500D03*
X106083080Y-92002300D03*
X106633080Y-92002300D03*
D18*
X109291280Y-88065300D03*
X110181280Y-88065300D03*
D19*
X109655680Y-86769900D03*
X109105680Y-86769900D03*
X109105680Y-87328700D03*
X109655680Y-87328700D03*
X107496680Y-86719100D03*
X106946680Y-86719100D03*
X106946680Y-87328700D03*
X107496680Y-87328700D03*
X107175280Y-92002300D03*
X107725280Y-92002300D03*
X107725280Y-91443500D03*
X107175280Y-91443500D03*
D20*
G36*
X101848838Y-86018810D02*
G01*
X101863156Y-86020934D01*
X101877197Y-86024451D01*
X101890826Y-86029328D01*
X101903911Y-86035517D01*
X101916327Y-86042958D01*
X101927953Y-86051581D01*
X101938678Y-86061302D01*
X101948399Y-86072027D01*
X101957022Y-86083653D01*
X101964463Y-86096069D01*
X101970652Y-86109154D01*
X101975529Y-86122783D01*
X101979046Y-86136824D01*
X101981170Y-86151142D01*
X101981880Y-86165600D01*
X101981880Y-86510600D01*
X101981170Y-86525058D01*
X101979046Y-86539376D01*
X101975529Y-86553417D01*
X101970652Y-86567046D01*
X101964463Y-86580131D01*
X101957022Y-86592547D01*
X101948399Y-86604173D01*
X101938678Y-86614898D01*
X101927953Y-86624619D01*
X101916327Y-86633242D01*
X101903911Y-86640683D01*
X101890826Y-86646872D01*
X101877197Y-86651749D01*
X101863156Y-86655266D01*
X101848838Y-86657390D01*
X101834380Y-86658100D01*
X101539380Y-86658100D01*
X101524922Y-86657390D01*
X101510604Y-86655266D01*
X101496563Y-86651749D01*
X101482934Y-86646872D01*
X101469849Y-86640683D01*
X101457433Y-86633242D01*
X101445807Y-86624619D01*
X101435082Y-86614898D01*
X101425361Y-86604173D01*
X101416738Y-86592547D01*
X101409297Y-86580131D01*
X101403108Y-86567046D01*
X101398231Y-86553417D01*
X101394714Y-86539376D01*
X101392590Y-86525058D01*
X101391880Y-86510600D01*
X101391880Y-86165600D01*
X101392590Y-86151142D01*
X101394714Y-86136824D01*
X101398231Y-86122783D01*
X101403108Y-86109154D01*
X101409297Y-86096069D01*
X101416738Y-86083653D01*
X101425361Y-86072027D01*
X101435082Y-86061302D01*
X101445807Y-86051581D01*
X101457433Y-86042958D01*
X101469849Y-86035517D01*
X101482934Y-86029328D01*
X101496563Y-86024451D01*
X101510604Y-86020934D01*
X101524922Y-86018810D01*
X101539380Y-86018100D01*
X101834380Y-86018100D01*
X101848838Y-86018810D01*
X101848838Y-86018810D01*
G37*
D21*
X101686880Y-86338100D03*
D20*
G36*
X100878838Y-86018810D02*
G01*
X100893156Y-86020934D01*
X100907197Y-86024451D01*
X100920826Y-86029328D01*
X100933911Y-86035517D01*
X100946327Y-86042958D01*
X100957953Y-86051581D01*
X100968678Y-86061302D01*
X100978399Y-86072027D01*
X100987022Y-86083653D01*
X100994463Y-86096069D01*
X101000652Y-86109154D01*
X101005529Y-86122783D01*
X101009046Y-86136824D01*
X101011170Y-86151142D01*
X101011880Y-86165600D01*
X101011880Y-86510600D01*
X101011170Y-86525058D01*
X101009046Y-86539376D01*
X101005529Y-86553417D01*
X101000652Y-86567046D01*
X100994463Y-86580131D01*
X100987022Y-86592547D01*
X100978399Y-86604173D01*
X100968678Y-86614898D01*
X100957953Y-86624619D01*
X100946327Y-86633242D01*
X100933911Y-86640683D01*
X100920826Y-86646872D01*
X100907197Y-86651749D01*
X100893156Y-86655266D01*
X100878838Y-86657390D01*
X100864380Y-86658100D01*
X100569380Y-86658100D01*
X100554922Y-86657390D01*
X100540604Y-86655266D01*
X100526563Y-86651749D01*
X100512934Y-86646872D01*
X100499849Y-86640683D01*
X100487433Y-86633242D01*
X100475807Y-86624619D01*
X100465082Y-86614898D01*
X100455361Y-86604173D01*
X100446738Y-86592547D01*
X100439297Y-86580131D01*
X100433108Y-86567046D01*
X100428231Y-86553417D01*
X100424714Y-86539376D01*
X100422590Y-86525058D01*
X100421880Y-86510600D01*
X100421880Y-86165600D01*
X100422590Y-86151142D01*
X100424714Y-86136824D01*
X100428231Y-86122783D01*
X100433108Y-86109154D01*
X100439297Y-86096069D01*
X100446738Y-86083653D01*
X100455361Y-86072027D01*
X100465082Y-86061302D01*
X100475807Y-86051581D01*
X100487433Y-86042958D01*
X100499849Y-86035517D01*
X100512934Y-86029328D01*
X100526563Y-86024451D01*
X100540604Y-86020934D01*
X100554922Y-86018810D01*
X100569380Y-86018100D01*
X100864380Y-86018100D01*
X100878838Y-86018810D01*
X100878838Y-86018810D01*
G37*
D21*
X100716880Y-86338100D03*
D20*
G36*
X110383238Y-88660410D02*
G01*
X110397556Y-88662534D01*
X110411597Y-88666051D01*
X110425226Y-88670928D01*
X110438311Y-88677117D01*
X110450727Y-88684558D01*
X110462353Y-88693181D01*
X110473078Y-88702902D01*
X110482799Y-88713627D01*
X110491422Y-88725253D01*
X110498863Y-88737669D01*
X110505052Y-88750754D01*
X110509929Y-88764383D01*
X110513446Y-88778424D01*
X110515570Y-88792742D01*
X110516280Y-88807200D01*
X110516280Y-89152200D01*
X110515570Y-89166658D01*
X110513446Y-89180976D01*
X110509929Y-89195017D01*
X110505052Y-89208646D01*
X110498863Y-89221731D01*
X110491422Y-89234147D01*
X110482799Y-89245773D01*
X110473078Y-89256498D01*
X110462353Y-89266219D01*
X110450727Y-89274842D01*
X110438311Y-89282283D01*
X110425226Y-89288472D01*
X110411597Y-89293349D01*
X110397556Y-89296866D01*
X110383238Y-89298990D01*
X110368780Y-89299700D01*
X110073780Y-89299700D01*
X110059322Y-89298990D01*
X110045004Y-89296866D01*
X110030963Y-89293349D01*
X110017334Y-89288472D01*
X110004249Y-89282283D01*
X109991833Y-89274842D01*
X109980207Y-89266219D01*
X109969482Y-89256498D01*
X109959761Y-89245773D01*
X109951138Y-89234147D01*
X109943697Y-89221731D01*
X109937508Y-89208646D01*
X109932631Y-89195017D01*
X109929114Y-89180976D01*
X109926990Y-89166658D01*
X109926280Y-89152200D01*
X109926280Y-88807200D01*
X109926990Y-88792742D01*
X109929114Y-88778424D01*
X109932631Y-88764383D01*
X109937508Y-88750754D01*
X109943697Y-88737669D01*
X109951138Y-88725253D01*
X109959761Y-88713627D01*
X109969482Y-88702902D01*
X109980207Y-88693181D01*
X109991833Y-88684558D01*
X110004249Y-88677117D01*
X110017334Y-88670928D01*
X110030963Y-88666051D01*
X110045004Y-88662534D01*
X110059322Y-88660410D01*
X110073780Y-88659700D01*
X110368780Y-88659700D01*
X110383238Y-88660410D01*
X110383238Y-88660410D01*
G37*
D21*
X110221280Y-88979700D03*
D20*
G36*
X109413238Y-88660410D02*
G01*
X109427556Y-88662534D01*
X109441597Y-88666051D01*
X109455226Y-88670928D01*
X109468311Y-88677117D01*
X109480727Y-88684558D01*
X109492353Y-88693181D01*
X109503078Y-88702902D01*
X109512799Y-88713627D01*
X109521422Y-88725253D01*
X109528863Y-88737669D01*
X109535052Y-88750754D01*
X109539929Y-88764383D01*
X109543446Y-88778424D01*
X109545570Y-88792742D01*
X109546280Y-88807200D01*
X109546280Y-89152200D01*
X109545570Y-89166658D01*
X109543446Y-89180976D01*
X109539929Y-89195017D01*
X109535052Y-89208646D01*
X109528863Y-89221731D01*
X109521422Y-89234147D01*
X109512799Y-89245773D01*
X109503078Y-89256498D01*
X109492353Y-89266219D01*
X109480727Y-89274842D01*
X109468311Y-89282283D01*
X109455226Y-89288472D01*
X109441597Y-89293349D01*
X109427556Y-89296866D01*
X109413238Y-89298990D01*
X109398780Y-89299700D01*
X109103780Y-89299700D01*
X109089322Y-89298990D01*
X109075004Y-89296866D01*
X109060963Y-89293349D01*
X109047334Y-89288472D01*
X109034249Y-89282283D01*
X109021833Y-89274842D01*
X109010207Y-89266219D01*
X108999482Y-89256498D01*
X108989761Y-89245773D01*
X108981138Y-89234147D01*
X108973697Y-89221731D01*
X108967508Y-89208646D01*
X108962631Y-89195017D01*
X108959114Y-89180976D01*
X108956990Y-89166658D01*
X108956280Y-89152200D01*
X108956280Y-88807200D01*
X108956990Y-88792742D01*
X108959114Y-88778424D01*
X108962631Y-88764383D01*
X108967508Y-88750754D01*
X108973697Y-88737669D01*
X108981138Y-88725253D01*
X108989761Y-88713627D01*
X108999482Y-88702902D01*
X109010207Y-88693181D01*
X109021833Y-88684558D01*
X109034249Y-88677117D01*
X109047334Y-88670928D01*
X109060963Y-88666051D01*
X109075004Y-88662534D01*
X109089322Y-88660410D01*
X109103780Y-88659700D01*
X109398780Y-88659700D01*
X109413238Y-88660410D01*
X109413238Y-88660410D01*
G37*
D21*
X109251280Y-88979700D03*
D20*
G36*
X107005038Y-88660410D02*
G01*
X107019356Y-88662534D01*
X107033397Y-88666051D01*
X107047026Y-88670928D01*
X107060111Y-88677117D01*
X107072527Y-88684558D01*
X107084153Y-88693181D01*
X107094878Y-88702902D01*
X107104599Y-88713627D01*
X107113222Y-88725253D01*
X107120663Y-88737669D01*
X107126852Y-88750754D01*
X107131729Y-88764383D01*
X107135246Y-88778424D01*
X107137370Y-88792742D01*
X107138080Y-88807200D01*
X107138080Y-89152200D01*
X107137370Y-89166658D01*
X107135246Y-89180976D01*
X107131729Y-89195017D01*
X107126852Y-89208646D01*
X107120663Y-89221731D01*
X107113222Y-89234147D01*
X107104599Y-89245773D01*
X107094878Y-89256498D01*
X107084153Y-89266219D01*
X107072527Y-89274842D01*
X107060111Y-89282283D01*
X107047026Y-89288472D01*
X107033397Y-89293349D01*
X107019356Y-89296866D01*
X107005038Y-89298990D01*
X106990580Y-89299700D01*
X106695580Y-89299700D01*
X106681122Y-89298990D01*
X106666804Y-89296866D01*
X106652763Y-89293349D01*
X106639134Y-89288472D01*
X106626049Y-89282283D01*
X106613633Y-89274842D01*
X106602007Y-89266219D01*
X106591282Y-89256498D01*
X106581561Y-89245773D01*
X106572938Y-89234147D01*
X106565497Y-89221731D01*
X106559308Y-89208646D01*
X106554431Y-89195017D01*
X106550914Y-89180976D01*
X106548790Y-89166658D01*
X106548080Y-89152200D01*
X106548080Y-88807200D01*
X106548790Y-88792742D01*
X106550914Y-88778424D01*
X106554431Y-88764383D01*
X106559308Y-88750754D01*
X106565497Y-88737669D01*
X106572938Y-88725253D01*
X106581561Y-88713627D01*
X106591282Y-88702902D01*
X106602007Y-88693181D01*
X106613633Y-88684558D01*
X106626049Y-88677117D01*
X106639134Y-88670928D01*
X106652763Y-88666051D01*
X106666804Y-88662534D01*
X106681122Y-88660410D01*
X106695580Y-88659700D01*
X106990580Y-88659700D01*
X107005038Y-88660410D01*
X107005038Y-88660410D01*
G37*
D21*
X106843080Y-88979700D03*
D20*
G36*
X106035038Y-88660410D02*
G01*
X106049356Y-88662534D01*
X106063397Y-88666051D01*
X106077026Y-88670928D01*
X106090111Y-88677117D01*
X106102527Y-88684558D01*
X106114153Y-88693181D01*
X106124878Y-88702902D01*
X106134599Y-88713627D01*
X106143222Y-88725253D01*
X106150663Y-88737669D01*
X106156852Y-88750754D01*
X106161729Y-88764383D01*
X106165246Y-88778424D01*
X106167370Y-88792742D01*
X106168080Y-88807200D01*
X106168080Y-89152200D01*
X106167370Y-89166658D01*
X106165246Y-89180976D01*
X106161729Y-89195017D01*
X106156852Y-89208646D01*
X106150663Y-89221731D01*
X106143222Y-89234147D01*
X106134599Y-89245773D01*
X106124878Y-89256498D01*
X106114153Y-89266219D01*
X106102527Y-89274842D01*
X106090111Y-89282283D01*
X106077026Y-89288472D01*
X106063397Y-89293349D01*
X106049356Y-89296866D01*
X106035038Y-89298990D01*
X106020580Y-89299700D01*
X105725580Y-89299700D01*
X105711122Y-89298990D01*
X105696804Y-89296866D01*
X105682763Y-89293349D01*
X105669134Y-89288472D01*
X105656049Y-89282283D01*
X105643633Y-89274842D01*
X105632007Y-89266219D01*
X105621282Y-89256498D01*
X105611561Y-89245773D01*
X105602938Y-89234147D01*
X105595497Y-89221731D01*
X105589308Y-89208646D01*
X105584431Y-89195017D01*
X105580914Y-89180976D01*
X105578790Y-89166658D01*
X105578080Y-89152200D01*
X105578080Y-88807200D01*
X105578790Y-88792742D01*
X105580914Y-88778424D01*
X105584431Y-88764383D01*
X105589308Y-88750754D01*
X105595497Y-88737669D01*
X105602938Y-88725253D01*
X105611561Y-88713627D01*
X105621282Y-88702902D01*
X105632007Y-88693181D01*
X105643633Y-88684558D01*
X105656049Y-88677117D01*
X105669134Y-88670928D01*
X105682763Y-88666051D01*
X105696804Y-88662534D01*
X105711122Y-88660410D01*
X105725580Y-88659700D01*
X106020580Y-88659700D01*
X106035038Y-88660410D01*
X106035038Y-88660410D01*
G37*
D21*
X105873080Y-88979700D03*
D22*
X101235280Y-91715500D03*
D23*
X101735280Y-91675500D03*
X102235280Y-91675500D03*
X102235280Y-92735500D03*
X101735280Y-92735500D03*
X101235280Y-92735500D03*
D19*
X127519500Y-94186700D03*
X126969500Y-94186700D03*
X125831740Y-87824960D03*
X125281740Y-87824960D03*
X105854480Y-86744500D03*
X106404480Y-86744500D03*
X128743780Y-94184160D03*
X128193780Y-94184160D03*
X110197880Y-87303300D03*
X110747880Y-87303300D03*
D15*
X129704000Y-90044640D03*
X129704000Y-89494640D03*
D24*
X108821880Y-91672100D03*
X108821880Y-90032100D03*
D25*
X107186780Y-74721100D03*
X107186780Y-75421100D03*
X107186780Y-73243860D03*
X107186780Y-73943860D03*
D19*
X106404480Y-87328700D03*
X105854480Y-87328700D03*
X111967080Y-89589300D03*
X111417080Y-89589300D03*
D15*
X111427920Y-87312780D03*
X111427920Y-87862780D03*
D19*
X110883680Y-88420900D03*
X111433680Y-88420900D03*
X110200420Y-86741960D03*
X110750420Y-86741960D03*
X111417080Y-89005100D03*
X111967080Y-89005100D03*
D15*
X129705760Y-90830680D03*
X129705760Y-91380680D03*
D19*
X127222980Y-87819880D03*
X126672980Y-87819880D03*
M02*
