G04 #@! TF.GenerationSoftware,KiCad,Pcbnew,(5.1.4)-1*
G04 #@! TF.CreationDate,2020-08-13T23:55:06-07:00*
G04 #@! TF.ProjectId,Kicad_LFOV_RigidFlex_Assembly,4b696361-645f-44c4-964f-565f52696769,rev?*
G04 #@! TF.SameCoordinates,Original*
G04 #@! TF.FileFunction,Soldermask,Bot*
G04 #@! TF.FilePolarity,Negative*
%FSLAX46Y46*%
G04 Gerber Fmt 4.6, Leading zero omitted, Abs format (unit mm)*
G04 Created by KiCad (PCBNEW (5.1.4)-1) date 2020-08-13 23:55:06*
%MOMM*%
%LPD*%
G04 APERTURE LIST*
%ADD10C,0.100000*%
G04 APERTURE END LIST*
D10*
G36*
X103556580Y-119369000D02*
G01*
X103005780Y-119369000D01*
X103005780Y-118578200D01*
X103556580Y-118578200D01*
X103556580Y-119369000D01*
X103556580Y-119369000D01*
G37*
G36*
X110556580Y-119369000D02*
G01*
X110005780Y-119369000D01*
X110005780Y-118578200D01*
X110556580Y-118578200D01*
X110556580Y-119369000D01*
X110556580Y-119369000D01*
G37*
G36*
X111256580Y-119369000D02*
G01*
X110705780Y-119369000D01*
X110705780Y-118578200D01*
X111256580Y-118578200D01*
X111256580Y-119369000D01*
X111256580Y-119369000D01*
G37*
G36*
X109856580Y-119369000D02*
G01*
X109305780Y-119369000D01*
X109305780Y-118578200D01*
X109856580Y-118578200D01*
X109856580Y-119369000D01*
X109856580Y-119369000D01*
G37*
G36*
X109156580Y-119369000D02*
G01*
X108605780Y-119369000D01*
X108605780Y-118578200D01*
X109156580Y-118578200D01*
X109156580Y-119369000D01*
X109156580Y-119369000D01*
G37*
G36*
X108456580Y-119369000D02*
G01*
X107905780Y-119369000D01*
X107905780Y-118578200D01*
X108456580Y-118578200D01*
X108456580Y-119369000D01*
X108456580Y-119369000D01*
G37*
G36*
X107756580Y-119369000D02*
G01*
X107205780Y-119369000D01*
X107205780Y-118578200D01*
X107756580Y-118578200D01*
X107756580Y-119369000D01*
X107756580Y-119369000D01*
G37*
G36*
X106356580Y-119369000D02*
G01*
X105805780Y-119369000D01*
X105805780Y-118578200D01*
X106356580Y-118578200D01*
X106356580Y-119369000D01*
X106356580Y-119369000D01*
G37*
G36*
X107056580Y-119369000D02*
G01*
X106505780Y-119369000D01*
X106505780Y-118578200D01*
X107056580Y-118578200D01*
X107056580Y-119369000D01*
X107056580Y-119369000D01*
G37*
G36*
X104256580Y-119369000D02*
G01*
X103705780Y-119369000D01*
X103705780Y-118578200D01*
X104256580Y-118578200D01*
X104256580Y-119369000D01*
X104256580Y-119369000D01*
G37*
G36*
X104956580Y-119369000D02*
G01*
X104405780Y-119369000D01*
X104405780Y-118578200D01*
X104956580Y-118578200D01*
X104956580Y-119369000D01*
X104956580Y-119369000D01*
G37*
G36*
X105656580Y-119369000D02*
G01*
X105105780Y-119369000D01*
X105105780Y-118578200D01*
X105656580Y-118578200D01*
X105656580Y-119369000D01*
X105656580Y-119369000D01*
G37*
G36*
X112111580Y-118514000D02*
G01*
X111320780Y-118514000D01*
X111320780Y-117963200D01*
X112111580Y-117963200D01*
X112111580Y-118514000D01*
X112111580Y-118514000D01*
G37*
G36*
X102941580Y-118514000D02*
G01*
X102150780Y-118514000D01*
X102150780Y-117963200D01*
X102941580Y-117963200D01*
X102941580Y-118514000D01*
X102941580Y-118514000D01*
G37*
G36*
X102941580Y-117814000D02*
G01*
X102150780Y-117814000D01*
X102150780Y-117263200D01*
X102941580Y-117263200D01*
X102941580Y-117814000D01*
X102941580Y-117814000D01*
G37*
G36*
X112111580Y-117814000D02*
G01*
X111320780Y-117814000D01*
X111320780Y-117263200D01*
X112111580Y-117263200D01*
X112111580Y-117814000D01*
X112111580Y-117814000D01*
G37*
G36*
X112111580Y-117114000D02*
G01*
X111320780Y-117114000D01*
X111320780Y-116563200D01*
X112111580Y-116563200D01*
X112111580Y-117114000D01*
X112111580Y-117114000D01*
G37*
G36*
X102941580Y-117114000D02*
G01*
X102150780Y-117114000D01*
X102150780Y-116563200D01*
X102941580Y-116563200D01*
X102941580Y-117114000D01*
X102941580Y-117114000D01*
G37*
G36*
X102941580Y-116414000D02*
G01*
X102150780Y-116414000D01*
X102150780Y-115863200D01*
X102941580Y-115863200D01*
X102941580Y-116414000D01*
X102941580Y-116414000D01*
G37*
G36*
X112111580Y-116414000D02*
G01*
X111320780Y-116414000D01*
X111320780Y-115863200D01*
X112111580Y-115863200D01*
X112111580Y-116414000D01*
X112111580Y-116414000D01*
G37*
G36*
X102941580Y-115714000D02*
G01*
X102150780Y-115714000D01*
X102150780Y-115163200D01*
X102941580Y-115163200D01*
X102941580Y-115714000D01*
X102941580Y-115714000D01*
G37*
G36*
X112111580Y-115714000D02*
G01*
X111320780Y-115714000D01*
X111320780Y-115163200D01*
X112111580Y-115163200D01*
X112111580Y-115714000D01*
X112111580Y-115714000D01*
G37*
G36*
X112111580Y-115014000D02*
G01*
X111320780Y-115014000D01*
X111320780Y-114463200D01*
X112111580Y-114463200D01*
X112111580Y-115014000D01*
X112111580Y-115014000D01*
G37*
G36*
X102941580Y-115014000D02*
G01*
X102150780Y-115014000D01*
X102150780Y-114463200D01*
X102941580Y-114463200D01*
X102941580Y-115014000D01*
X102941580Y-115014000D01*
G37*
G36*
X114253254Y-113328391D02*
G01*
X114348868Y-113367995D01*
X114383291Y-113390996D01*
X114434923Y-113425495D01*
X114508105Y-113498677D01*
X114542604Y-113550309D01*
X114565605Y-113584732D01*
X114605209Y-113680346D01*
X114625400Y-113781852D01*
X114625400Y-113885348D01*
X114605209Y-113986854D01*
X114565605Y-114082468D01*
X114542604Y-114116891D01*
X114508105Y-114168523D01*
X114434923Y-114241705D01*
X114383291Y-114276204D01*
X114348868Y-114299205D01*
X114253254Y-114338809D01*
X114151748Y-114359000D01*
X114048252Y-114359000D01*
X113946746Y-114338809D01*
X113851132Y-114299205D01*
X113816709Y-114276204D01*
X113765077Y-114241705D01*
X113691895Y-114168523D01*
X113657396Y-114116891D01*
X113634395Y-114082468D01*
X113594791Y-113986854D01*
X113574600Y-113885348D01*
X113574600Y-113781852D01*
X113594791Y-113680346D01*
X113634395Y-113584732D01*
X113657396Y-113550309D01*
X113691895Y-113498677D01*
X113765077Y-113425495D01*
X113816709Y-113390996D01*
X113851132Y-113367995D01*
X113946746Y-113328391D01*
X114048252Y-113308200D01*
X114151748Y-113308200D01*
X114253254Y-113328391D01*
X114253254Y-113328391D01*
G37*
G36*
X100306114Y-113328391D02*
G01*
X100401728Y-113367995D01*
X100436151Y-113390996D01*
X100487783Y-113425495D01*
X100560965Y-113498677D01*
X100595464Y-113550309D01*
X100618465Y-113584732D01*
X100658069Y-113680346D01*
X100678260Y-113781852D01*
X100678260Y-113885348D01*
X100658069Y-113986854D01*
X100618465Y-114082468D01*
X100595464Y-114116891D01*
X100560965Y-114168523D01*
X100487783Y-114241705D01*
X100436151Y-114276204D01*
X100401728Y-114299205D01*
X100306114Y-114338809D01*
X100204608Y-114359000D01*
X100101112Y-114359000D01*
X99999606Y-114338809D01*
X99903992Y-114299205D01*
X99869569Y-114276204D01*
X99817937Y-114241705D01*
X99744755Y-114168523D01*
X99710256Y-114116891D01*
X99687255Y-114082468D01*
X99647651Y-113986854D01*
X99627460Y-113885348D01*
X99627460Y-113781852D01*
X99647651Y-113680346D01*
X99687255Y-113584732D01*
X99710256Y-113550309D01*
X99744755Y-113498677D01*
X99817937Y-113425495D01*
X99869569Y-113390996D01*
X99903992Y-113367995D01*
X99999606Y-113328391D01*
X100101112Y-113308200D01*
X100204608Y-113308200D01*
X100306114Y-113328391D01*
X100306114Y-113328391D01*
G37*
G36*
X102941580Y-114314000D02*
G01*
X102150780Y-114314000D01*
X102150780Y-113763200D01*
X102941580Y-113763200D01*
X102941580Y-114314000D01*
X102941580Y-114314000D01*
G37*
G36*
X112111580Y-114314000D02*
G01*
X111320780Y-114314000D01*
X111320780Y-113763200D01*
X112111580Y-113763200D01*
X112111580Y-114314000D01*
X112111580Y-114314000D01*
G37*
G36*
X102941580Y-113614000D02*
G01*
X102150780Y-113614000D01*
X102150780Y-113063200D01*
X102941580Y-113063200D01*
X102941580Y-113614000D01*
X102941580Y-113614000D01*
G37*
G36*
X112111580Y-113614000D02*
G01*
X111320780Y-113614000D01*
X111320780Y-113063200D01*
X112111580Y-113063200D01*
X112111580Y-113614000D01*
X112111580Y-113614000D01*
G37*
G36*
X112111580Y-112914000D02*
G01*
X111320780Y-112914000D01*
X111320780Y-112363200D01*
X112111580Y-112363200D01*
X112111580Y-112914000D01*
X112111580Y-112914000D01*
G37*
G36*
X102941580Y-112914000D02*
G01*
X102150780Y-112914000D01*
X102150780Y-112363200D01*
X102941580Y-112363200D01*
X102941580Y-112914000D01*
X102941580Y-112914000D01*
G37*
G36*
X102941580Y-112214000D02*
G01*
X102150780Y-112214000D01*
X102150780Y-111663200D01*
X102941580Y-111663200D01*
X102941580Y-112214000D01*
X102941580Y-112214000D01*
G37*
G36*
X112111580Y-112214000D02*
G01*
X111320780Y-112214000D01*
X111320780Y-111663200D01*
X112111580Y-111663200D01*
X112111580Y-112214000D01*
X112111580Y-112214000D01*
G37*
G36*
X112111580Y-111514000D02*
G01*
X111320780Y-111514000D01*
X111320780Y-110963200D01*
X112111580Y-110963200D01*
X112111580Y-111514000D01*
X112111580Y-111514000D01*
G37*
G36*
X102941580Y-111514000D02*
G01*
X102150780Y-111514000D01*
X102150780Y-110963200D01*
X102941580Y-110963200D01*
X102941580Y-111514000D01*
X102941580Y-111514000D01*
G37*
G36*
X112111580Y-110814000D02*
G01*
X111320780Y-110814000D01*
X111320780Y-110263200D01*
X112111580Y-110263200D01*
X112111580Y-110814000D01*
X112111580Y-110814000D01*
G37*
G36*
X102941580Y-110814000D02*
G01*
X102150780Y-110814000D01*
X102150780Y-110263200D01*
X102941580Y-110263200D01*
X102941580Y-110814000D01*
X102941580Y-110814000D01*
G37*
G36*
X107756580Y-110707000D02*
G01*
X107205780Y-110707000D01*
X107205780Y-109408200D01*
X107756580Y-109408200D01*
X107756580Y-110707000D01*
X107756580Y-110707000D01*
G37*
G36*
X103556580Y-110199000D02*
G01*
X103005780Y-110199000D01*
X103005780Y-109408200D01*
X103556580Y-109408200D01*
X103556580Y-110199000D01*
X103556580Y-110199000D01*
G37*
G36*
X104256580Y-110199000D02*
G01*
X103705780Y-110199000D01*
X103705780Y-109408200D01*
X104256580Y-109408200D01*
X104256580Y-110199000D01*
X104256580Y-110199000D01*
G37*
G36*
X104956580Y-110199000D02*
G01*
X104405780Y-110199000D01*
X104405780Y-109408200D01*
X104956580Y-109408200D01*
X104956580Y-110199000D01*
X104956580Y-110199000D01*
G37*
G36*
X105656580Y-110199000D02*
G01*
X105105780Y-110199000D01*
X105105780Y-109408200D01*
X105656580Y-109408200D01*
X105656580Y-110199000D01*
X105656580Y-110199000D01*
G37*
G36*
X106356580Y-110199000D02*
G01*
X105805780Y-110199000D01*
X105805780Y-109408200D01*
X106356580Y-109408200D01*
X106356580Y-110199000D01*
X106356580Y-110199000D01*
G37*
G36*
X108456580Y-110199000D02*
G01*
X107905780Y-110199000D01*
X107905780Y-109408200D01*
X108456580Y-109408200D01*
X108456580Y-110199000D01*
X108456580Y-110199000D01*
G37*
G36*
X107056580Y-110199000D02*
G01*
X106505780Y-110199000D01*
X106505780Y-109408200D01*
X107056580Y-109408200D01*
X107056580Y-110199000D01*
X107056580Y-110199000D01*
G37*
G36*
X111256580Y-110199000D02*
G01*
X110705780Y-110199000D01*
X110705780Y-109408200D01*
X111256580Y-109408200D01*
X111256580Y-110199000D01*
X111256580Y-110199000D01*
G37*
G36*
X109156580Y-110199000D02*
G01*
X108605780Y-110199000D01*
X108605780Y-109408200D01*
X109156580Y-109408200D01*
X109156580Y-110199000D01*
X109156580Y-110199000D01*
G37*
G36*
X109856580Y-110199000D02*
G01*
X109305780Y-110199000D01*
X109305780Y-109408200D01*
X109856580Y-109408200D01*
X109856580Y-110199000D01*
X109856580Y-110199000D01*
G37*
G36*
X110556580Y-110199000D02*
G01*
X110005780Y-110199000D01*
X110005780Y-109408200D01*
X110556580Y-109408200D01*
X110556580Y-110199000D01*
X110556580Y-110199000D01*
G37*
G36*
X127699900Y-94382100D02*
G01*
X127339100Y-94382100D01*
X127339100Y-93991300D01*
X127699900Y-93991300D01*
X127699900Y-94382100D01*
X127699900Y-94382100D01*
G37*
G36*
X127149900Y-94382100D02*
G01*
X126789100Y-94382100D01*
X126789100Y-93991300D01*
X127149900Y-93991300D01*
X127149900Y-94382100D01*
X127149900Y-94382100D01*
G37*
G36*
X128924180Y-94379560D02*
G01*
X128563380Y-94379560D01*
X128563380Y-93988760D01*
X128924180Y-93988760D01*
X128924180Y-94379560D01*
X128924180Y-94379560D01*
G37*
G36*
X128374180Y-94379560D02*
G01*
X128013380Y-94379560D01*
X128013380Y-93988760D01*
X128374180Y-93988760D01*
X128374180Y-94379560D01*
X128374180Y-94379560D01*
G37*
G36*
X127173100Y-93697680D02*
G01*
X126822300Y-93697680D01*
X126822300Y-93221880D01*
X127173100Y-93221880D01*
X127173100Y-93697680D01*
X127173100Y-93697680D01*
G37*
G36*
X128173100Y-93697680D02*
G01*
X127822300Y-93697680D01*
X127822300Y-93221880D01*
X128173100Y-93221880D01*
X128173100Y-93697680D01*
X128173100Y-93697680D01*
G37*
G36*
X126673100Y-93697680D02*
G01*
X126322300Y-93697680D01*
X126322300Y-93221880D01*
X126673100Y-93221880D01*
X126673100Y-93697680D01*
X126673100Y-93697680D01*
G37*
G36*
X127673100Y-93697680D02*
G01*
X127322300Y-93697680D01*
X127322300Y-93221880D01*
X127673100Y-93221880D01*
X127673100Y-93697680D01*
X127673100Y-93697680D01*
G37*
G36*
X101793080Y-93696300D02*
G01*
X101432280Y-93696300D01*
X101432280Y-93305500D01*
X101793080Y-93305500D01*
X101793080Y-93696300D01*
X101793080Y-93696300D01*
G37*
G36*
X102343080Y-93696300D02*
G01*
X101982280Y-93696300D01*
X101982280Y-93305500D01*
X102343080Y-93305500D01*
X102343080Y-93696300D01*
X102343080Y-93696300D01*
G37*
G36*
X129098100Y-93572680D02*
G01*
X128522300Y-93572680D01*
X128522300Y-93221880D01*
X129098100Y-93221880D01*
X129098100Y-93572680D01*
X129098100Y-93572680D01*
G37*
G36*
X125973100Y-93572680D02*
G01*
X125397300Y-93572680D01*
X125397300Y-93221880D01*
X125973100Y-93221880D01*
X125973100Y-93572680D01*
X125973100Y-93572680D01*
G37*
G36*
X100736880Y-93549900D02*
G01*
X100346080Y-93549900D01*
X100346080Y-93189100D01*
X100736880Y-93189100D01*
X100736880Y-93549900D01*
X100736880Y-93549900D01*
G37*
G36*
X101395680Y-93130900D02*
G01*
X101074880Y-93130900D01*
X101074880Y-92340100D01*
X101395680Y-92340100D01*
X101395680Y-93130900D01*
X101395680Y-93130900D01*
G37*
G36*
X101895680Y-93130900D02*
G01*
X101574880Y-93130900D01*
X101574880Y-92340100D01*
X101895680Y-92340100D01*
X101895680Y-93130900D01*
X101895680Y-93130900D01*
G37*
G36*
X102395680Y-93130900D02*
G01*
X102074880Y-93130900D01*
X102074880Y-92340100D01*
X102395680Y-92340100D01*
X102395680Y-93130900D01*
X102395680Y-93130900D01*
G37*
G36*
X129098100Y-93072680D02*
G01*
X128522300Y-93072680D01*
X128522300Y-92721880D01*
X129098100Y-92721880D01*
X129098100Y-93072680D01*
X129098100Y-93072680D01*
G37*
G36*
X125973100Y-93072680D02*
G01*
X125397300Y-93072680D01*
X125397300Y-92721880D01*
X125973100Y-92721880D01*
X125973100Y-93072680D01*
X125973100Y-93072680D01*
G37*
G36*
X100736880Y-92999900D02*
G01*
X100346080Y-92999900D01*
X100346080Y-92639100D01*
X100736880Y-92639100D01*
X100736880Y-92999900D01*
X100736880Y-92999900D01*
G37*
G36*
X103472680Y-92737300D02*
G01*
X102791880Y-92737300D01*
X102791880Y-92106500D01*
X103472680Y-92106500D01*
X103472680Y-92737300D01*
X103472680Y-92737300D01*
G37*
G36*
X104361680Y-92737300D02*
G01*
X103680880Y-92737300D01*
X103680880Y-92106500D01*
X104361680Y-92106500D01*
X104361680Y-92737300D01*
X104361680Y-92737300D01*
G37*
G36*
X129098100Y-92572680D02*
G01*
X128522300Y-92572680D01*
X128522300Y-92221880D01*
X129098100Y-92221880D01*
X129098100Y-92572680D01*
X129098100Y-92572680D01*
G37*
G36*
X125973100Y-92572680D02*
G01*
X125397300Y-92572680D01*
X125397300Y-92221880D01*
X125973100Y-92221880D01*
X125973100Y-92572680D01*
X125973100Y-92572680D01*
G37*
G36*
X106813480Y-92197700D02*
G01*
X106452680Y-92197700D01*
X106452680Y-91806900D01*
X106813480Y-91806900D01*
X106813480Y-92197700D01*
X106813480Y-92197700D01*
G37*
G36*
X107905680Y-92197700D02*
G01*
X107544880Y-92197700D01*
X107544880Y-91806900D01*
X107905680Y-91806900D01*
X107905680Y-92197700D01*
X107905680Y-92197700D01*
G37*
G36*
X106263480Y-92197700D02*
G01*
X105902680Y-92197700D01*
X105902680Y-91806900D01*
X106263480Y-91806900D01*
X106263480Y-92197700D01*
X106263480Y-92197700D01*
G37*
G36*
X107355680Y-92197700D02*
G01*
X106994880Y-92197700D01*
X106994880Y-91806900D01*
X107355680Y-91806900D01*
X107355680Y-92197700D01*
X107355680Y-92197700D01*
G37*
G36*
X109507280Y-92162500D02*
G01*
X108136480Y-92162500D01*
X108136480Y-91181700D01*
X109507280Y-91181700D01*
X109507280Y-92162500D01*
X109507280Y-92162500D01*
G37*
G36*
X101395680Y-92150900D02*
G01*
X101074880Y-92150900D01*
X101074880Y-91280100D01*
X101395680Y-91280100D01*
X101395680Y-92150900D01*
X101395680Y-92150900D01*
G37*
G36*
X125973100Y-92072680D02*
G01*
X125397300Y-92072680D01*
X125397300Y-91721880D01*
X125973100Y-91721880D01*
X125973100Y-92072680D01*
X125973100Y-92072680D01*
G37*
G36*
X129098100Y-92072680D02*
G01*
X128522300Y-92072680D01*
X128522300Y-91721880D01*
X129098100Y-91721880D01*
X129098100Y-92072680D01*
X129098100Y-92072680D01*
G37*
G36*
X101895680Y-92070900D02*
G01*
X101574880Y-92070900D01*
X101574880Y-91280100D01*
X101895680Y-91280100D01*
X101895680Y-92070900D01*
X101895680Y-92070900D01*
G37*
G36*
X102395680Y-92070900D02*
G01*
X102074880Y-92070900D01*
X102074880Y-91280100D01*
X102395680Y-91280100D01*
X102395680Y-92070900D01*
X102395680Y-92070900D01*
G37*
G36*
X100736880Y-92051300D02*
G01*
X100346080Y-92051300D01*
X100346080Y-91690500D01*
X100736880Y-91690500D01*
X100736880Y-92051300D01*
X100736880Y-92051300D01*
G37*
G36*
X103472680Y-91847300D02*
G01*
X102791880Y-91847300D01*
X102791880Y-91216500D01*
X103472680Y-91216500D01*
X103472680Y-91847300D01*
X103472680Y-91847300D01*
G37*
G36*
X104361680Y-91847300D02*
G01*
X103680880Y-91847300D01*
X103680880Y-91216500D01*
X104361680Y-91216500D01*
X104361680Y-91847300D01*
X104361680Y-91847300D01*
G37*
G36*
X107355680Y-91638900D02*
G01*
X106994880Y-91638900D01*
X106994880Y-91248100D01*
X107355680Y-91248100D01*
X107355680Y-91638900D01*
X107355680Y-91638900D01*
G37*
G36*
X107905680Y-91638900D02*
G01*
X107544880Y-91638900D01*
X107544880Y-91248100D01*
X107905680Y-91248100D01*
X107905680Y-91638900D01*
X107905680Y-91638900D01*
G37*
G36*
X106259080Y-91638900D02*
G01*
X105898280Y-91638900D01*
X105898280Y-91248100D01*
X106259080Y-91248100D01*
X106259080Y-91638900D01*
X106259080Y-91638900D01*
G37*
G36*
X106809080Y-91638900D02*
G01*
X106448280Y-91638900D01*
X106448280Y-91248100D01*
X106809080Y-91248100D01*
X106809080Y-91638900D01*
X106809080Y-91638900D01*
G37*
G36*
X129098100Y-91572680D02*
G01*
X128522300Y-91572680D01*
X128522300Y-91221880D01*
X129098100Y-91221880D01*
X129098100Y-91572680D01*
X129098100Y-91572680D01*
G37*
G36*
X125973100Y-91572680D02*
G01*
X125397300Y-91572680D01*
X125397300Y-91221880D01*
X125973100Y-91221880D01*
X125973100Y-91572680D01*
X125973100Y-91572680D01*
G37*
G36*
X129901160Y-91561080D02*
G01*
X129510360Y-91561080D01*
X129510360Y-91200280D01*
X129901160Y-91200280D01*
X129901160Y-91561080D01*
X129901160Y-91561080D01*
G37*
G36*
X100736880Y-91501300D02*
G01*
X100346080Y-91501300D01*
X100346080Y-91140500D01*
X100736880Y-91140500D01*
X100736880Y-91501300D01*
X100736880Y-91501300D01*
G37*
G36*
X129098100Y-91072680D02*
G01*
X128522300Y-91072680D01*
X128522300Y-90721880D01*
X129098100Y-90721880D01*
X129098100Y-91072680D01*
X129098100Y-91072680D01*
G37*
G36*
X125973100Y-91072680D02*
G01*
X125397300Y-91072680D01*
X125397300Y-90721880D01*
X125973100Y-90721880D01*
X125973100Y-91072680D01*
X125973100Y-91072680D01*
G37*
G36*
X129901160Y-91011080D02*
G01*
X129510360Y-91011080D01*
X129510360Y-90650280D01*
X129901160Y-90650280D01*
X129901160Y-91011080D01*
X129901160Y-91011080D01*
G37*
G36*
X103019880Y-90965100D02*
G01*
X100349080Y-90965100D01*
X100349080Y-90044300D01*
X103019880Y-90044300D01*
X103019880Y-90965100D01*
X103019880Y-90965100D01*
G37*
G36*
X131913874Y-89810531D02*
G01*
X132009488Y-89850135D01*
X132030597Y-89864240D01*
X132095543Y-89907635D01*
X132168725Y-89980817D01*
X132203224Y-90032449D01*
X132226225Y-90066872D01*
X132265829Y-90162486D01*
X132286020Y-90263992D01*
X132286020Y-90367488D01*
X132265829Y-90468994D01*
X132226225Y-90564608D01*
X132220831Y-90572680D01*
X132168725Y-90650663D01*
X132095543Y-90723845D01*
X132043911Y-90758344D01*
X132009488Y-90781345D01*
X131913874Y-90820949D01*
X131812368Y-90841140D01*
X131708872Y-90841140D01*
X131607366Y-90820949D01*
X131511752Y-90781345D01*
X131477329Y-90758344D01*
X131425697Y-90723845D01*
X131352515Y-90650663D01*
X131300409Y-90572680D01*
X131295015Y-90564608D01*
X131255411Y-90468994D01*
X131235220Y-90367488D01*
X131235220Y-90263992D01*
X131255411Y-90162486D01*
X131295015Y-90066872D01*
X131318016Y-90032449D01*
X131352515Y-89980817D01*
X131425697Y-89907635D01*
X131490643Y-89864240D01*
X131511752Y-89850135D01*
X131607366Y-89810531D01*
X131708872Y-89790340D01*
X131812368Y-89790340D01*
X131913874Y-89810531D01*
X131913874Y-89810531D01*
G37*
G36*
X125973100Y-90572680D02*
G01*
X125397300Y-90572680D01*
X125397300Y-90221880D01*
X125973100Y-90221880D01*
X125973100Y-90572680D01*
X125973100Y-90572680D01*
G37*
G36*
X129098100Y-90572680D02*
G01*
X128522300Y-90572680D01*
X128522300Y-90221880D01*
X129098100Y-90221880D01*
X129098100Y-90572680D01*
X129098100Y-90572680D01*
G37*
G36*
X109507280Y-90522500D02*
G01*
X108136480Y-90522500D01*
X108136480Y-89541700D01*
X109507280Y-89541700D01*
X109507280Y-90522500D01*
X109507280Y-90522500D01*
G37*
G36*
X103665500Y-90349500D02*
G01*
X103274700Y-90349500D01*
X103274700Y-89988700D01*
X103665500Y-89988700D01*
X103665500Y-90349500D01*
X103665500Y-90349500D01*
G37*
G36*
X129899400Y-90225040D02*
G01*
X129508600Y-90225040D01*
X129508600Y-89864240D01*
X129899400Y-89864240D01*
X129899400Y-90225040D01*
X129899400Y-90225040D01*
G37*
G36*
X98609394Y-89129811D02*
G01*
X98705008Y-89169415D01*
X98732536Y-89187809D01*
X98791063Y-89226915D01*
X98864245Y-89300097D01*
X98880951Y-89325100D01*
X98921745Y-89386152D01*
X98961349Y-89481766D01*
X98981540Y-89583272D01*
X98981540Y-89686768D01*
X98961349Y-89788274D01*
X98921745Y-89883888D01*
X98898744Y-89918311D01*
X98864245Y-89969943D01*
X98791063Y-90043125D01*
X98746830Y-90072680D01*
X98705008Y-90100625D01*
X98609394Y-90140229D01*
X98507888Y-90160420D01*
X98404392Y-90160420D01*
X98302886Y-90140229D01*
X98207272Y-90100625D01*
X98165450Y-90072680D01*
X98121217Y-90043125D01*
X98048035Y-89969943D01*
X98013536Y-89918311D01*
X97990535Y-89883888D01*
X97950931Y-89788274D01*
X97930740Y-89686768D01*
X97930740Y-89583272D01*
X97950931Y-89481766D01*
X97990535Y-89386152D01*
X98031329Y-89325100D01*
X98048035Y-89300097D01*
X98121217Y-89226915D01*
X98179744Y-89187809D01*
X98207272Y-89169415D01*
X98302886Y-89129811D01*
X98404392Y-89109620D01*
X98507888Y-89109620D01*
X98609394Y-89129811D01*
X98609394Y-89129811D01*
G37*
G36*
X129098100Y-90072680D02*
G01*
X128522300Y-90072680D01*
X128522300Y-89721880D01*
X129098100Y-89721880D01*
X129098100Y-90072680D01*
X129098100Y-90072680D01*
G37*
G36*
X125973100Y-90072680D02*
G01*
X125397300Y-90072680D01*
X125397300Y-89721880D01*
X125973100Y-89721880D01*
X125973100Y-90072680D01*
X125973100Y-90072680D01*
G37*
G36*
X103665500Y-89799500D02*
G01*
X103274700Y-89799500D01*
X103274700Y-89438700D01*
X103665500Y-89438700D01*
X103665500Y-89799500D01*
X103665500Y-89799500D01*
G37*
G36*
X111597480Y-89784700D02*
G01*
X111236680Y-89784700D01*
X111236680Y-89393900D01*
X111597480Y-89393900D01*
X111597480Y-89784700D01*
X111597480Y-89784700D01*
G37*
G36*
X112147480Y-89784700D02*
G01*
X111786680Y-89784700D01*
X111786680Y-89393900D01*
X112147480Y-89393900D01*
X112147480Y-89784700D01*
X112147480Y-89784700D01*
G37*
G36*
X129899400Y-89675040D02*
G01*
X129508600Y-89675040D01*
X129508600Y-89314240D01*
X129899400Y-89314240D01*
X129899400Y-89675040D01*
X129899400Y-89675040D01*
G37*
G36*
X129098100Y-89572680D02*
G01*
X128522300Y-89572680D01*
X128522300Y-89221880D01*
X129098100Y-89221880D01*
X129098100Y-89572680D01*
X129098100Y-89572680D01*
G37*
G36*
X125973100Y-89572680D02*
G01*
X125397300Y-89572680D01*
X125397300Y-89221880D01*
X125973100Y-89221880D01*
X125973100Y-89572680D01*
X125973100Y-89572680D01*
G37*
G36*
X106084930Y-88637131D02*
G01*
X106110168Y-88644787D01*
X106133435Y-88657223D01*
X106153824Y-88673956D01*
X106170557Y-88694345D01*
X106182993Y-88717612D01*
X106190649Y-88742850D01*
X106193480Y-88771591D01*
X106193480Y-89187809D01*
X106190649Y-89216550D01*
X106182993Y-89241788D01*
X106170557Y-89265055D01*
X106153824Y-89285444D01*
X106133435Y-89302177D01*
X106110168Y-89314613D01*
X106084930Y-89322269D01*
X106056189Y-89325100D01*
X105689971Y-89325100D01*
X105661230Y-89322269D01*
X105635992Y-89314613D01*
X105612725Y-89302177D01*
X105592336Y-89285444D01*
X105575603Y-89265055D01*
X105563167Y-89241788D01*
X105555511Y-89216550D01*
X105552680Y-89187809D01*
X105552680Y-88771591D01*
X105555511Y-88742850D01*
X105563167Y-88717612D01*
X105575603Y-88694345D01*
X105592336Y-88673956D01*
X105612725Y-88657223D01*
X105635992Y-88644787D01*
X105661230Y-88637131D01*
X105689971Y-88634300D01*
X106056189Y-88634300D01*
X106084930Y-88637131D01*
X106084930Y-88637131D01*
G37*
G36*
X107054930Y-88637131D02*
G01*
X107080168Y-88644787D01*
X107103435Y-88657223D01*
X107123824Y-88673956D01*
X107140557Y-88694345D01*
X107152993Y-88717612D01*
X107160649Y-88742850D01*
X107163480Y-88771591D01*
X107163480Y-89187809D01*
X107160649Y-89216550D01*
X107152993Y-89241788D01*
X107140557Y-89265055D01*
X107123824Y-89285444D01*
X107103435Y-89302177D01*
X107080168Y-89314613D01*
X107054930Y-89322269D01*
X107026189Y-89325100D01*
X106659971Y-89325100D01*
X106631230Y-89322269D01*
X106605992Y-89314613D01*
X106582725Y-89302177D01*
X106562336Y-89285444D01*
X106545603Y-89265055D01*
X106533167Y-89241788D01*
X106525511Y-89216550D01*
X106522680Y-89187809D01*
X106522680Y-88771591D01*
X106525511Y-88742850D01*
X106533167Y-88717612D01*
X106545603Y-88694345D01*
X106562336Y-88673956D01*
X106582725Y-88657223D01*
X106605992Y-88644787D01*
X106631230Y-88637131D01*
X106659971Y-88634300D01*
X107026189Y-88634300D01*
X107054930Y-88637131D01*
X107054930Y-88637131D01*
G37*
G36*
X109463130Y-88637131D02*
G01*
X109488368Y-88644787D01*
X109511635Y-88657223D01*
X109532024Y-88673956D01*
X109548757Y-88694345D01*
X109561193Y-88717612D01*
X109568849Y-88742850D01*
X109571680Y-88771591D01*
X109571680Y-89187809D01*
X109568849Y-89216550D01*
X109561193Y-89241788D01*
X109548757Y-89265055D01*
X109532024Y-89285444D01*
X109511635Y-89302177D01*
X109488368Y-89314613D01*
X109463130Y-89322269D01*
X109434389Y-89325100D01*
X109068171Y-89325100D01*
X109039430Y-89322269D01*
X109014192Y-89314613D01*
X108990925Y-89302177D01*
X108970536Y-89285444D01*
X108953803Y-89265055D01*
X108941367Y-89241788D01*
X108933711Y-89216550D01*
X108930880Y-89187809D01*
X108930880Y-88771591D01*
X108933711Y-88742850D01*
X108941367Y-88717612D01*
X108953803Y-88694345D01*
X108970536Y-88673956D01*
X108990925Y-88657223D01*
X109014192Y-88644787D01*
X109039430Y-88637131D01*
X109068171Y-88634300D01*
X109434389Y-88634300D01*
X109463130Y-88637131D01*
X109463130Y-88637131D01*
G37*
G36*
X110433130Y-88637131D02*
G01*
X110458368Y-88644787D01*
X110481635Y-88657223D01*
X110502024Y-88673956D01*
X110518757Y-88694345D01*
X110531193Y-88717612D01*
X110538849Y-88742850D01*
X110541680Y-88771591D01*
X110541680Y-89187809D01*
X110538849Y-89216550D01*
X110531193Y-89241788D01*
X110518757Y-89265055D01*
X110502024Y-89285444D01*
X110481635Y-89302177D01*
X110458368Y-89314613D01*
X110433130Y-89322269D01*
X110404389Y-89325100D01*
X110038171Y-89325100D01*
X110009430Y-89322269D01*
X109984192Y-89314613D01*
X109960925Y-89302177D01*
X109940536Y-89285444D01*
X109923803Y-89265055D01*
X109911367Y-89241788D01*
X109903711Y-89216550D01*
X109900880Y-89187809D01*
X109900880Y-88771591D01*
X109903711Y-88742850D01*
X109911367Y-88717612D01*
X109923803Y-88694345D01*
X109940536Y-88673956D01*
X109960925Y-88657223D01*
X109984192Y-88644787D01*
X110009430Y-88637131D01*
X110038171Y-88634300D01*
X110404389Y-88634300D01*
X110433130Y-88637131D01*
X110433130Y-88637131D01*
G37*
G36*
X111597480Y-89200500D02*
G01*
X111236680Y-89200500D01*
X111236680Y-88809700D01*
X111597480Y-88809700D01*
X111597480Y-89200500D01*
X111597480Y-89200500D01*
G37*
G36*
X112147480Y-89200500D02*
G01*
X111786680Y-89200500D01*
X111786680Y-88809700D01*
X112147480Y-88809700D01*
X112147480Y-89200500D01*
X112147480Y-89200500D01*
G37*
G36*
X127673100Y-89072680D02*
G01*
X127322300Y-89072680D01*
X127322300Y-88596880D01*
X127673100Y-88596880D01*
X127673100Y-89072680D01*
X127673100Y-89072680D01*
G37*
G36*
X128173100Y-89072680D02*
G01*
X127822300Y-89072680D01*
X127822300Y-88596880D01*
X128173100Y-88596880D01*
X128173100Y-89072680D01*
X128173100Y-89072680D01*
G37*
G36*
X129098100Y-89072680D02*
G01*
X128522300Y-89072680D01*
X128522300Y-88721880D01*
X129098100Y-88721880D01*
X129098100Y-89072680D01*
X129098100Y-89072680D01*
G37*
G36*
X127173100Y-89072680D02*
G01*
X126822300Y-89072680D01*
X126822300Y-88596880D01*
X127173100Y-88596880D01*
X127173100Y-89072680D01*
X127173100Y-89072680D01*
G37*
G36*
X126673100Y-89072680D02*
G01*
X126322300Y-89072680D01*
X126322300Y-88596880D01*
X126673100Y-88596880D01*
X126673100Y-89072680D01*
X126673100Y-89072680D01*
G37*
G36*
X125973100Y-89072680D02*
G01*
X125397300Y-89072680D01*
X125397300Y-88721880D01*
X125973100Y-88721880D01*
X125973100Y-89072680D01*
X125973100Y-89072680D01*
G37*
G36*
X111064080Y-88616300D02*
G01*
X110703280Y-88616300D01*
X110703280Y-88225500D01*
X111064080Y-88225500D01*
X111064080Y-88616300D01*
X111064080Y-88616300D01*
G37*
G36*
X111614080Y-88616300D02*
G01*
X111253280Y-88616300D01*
X111253280Y-88225500D01*
X111614080Y-88225500D01*
X111614080Y-88616300D01*
X111614080Y-88616300D01*
G37*
G36*
X107930280Y-88431100D02*
G01*
X107299480Y-88431100D01*
X107299480Y-87750300D01*
X107930280Y-87750300D01*
X107930280Y-88431100D01*
X107930280Y-88431100D01*
G37*
G36*
X107118480Y-88431100D02*
G01*
X106487680Y-88431100D01*
X106487680Y-87750300D01*
X107118480Y-87750300D01*
X107118480Y-88431100D01*
X107118480Y-88431100D01*
G37*
G36*
X108820280Y-88431100D02*
G01*
X108189480Y-88431100D01*
X108189480Y-87750300D01*
X108820280Y-87750300D01*
X108820280Y-88431100D01*
X108820280Y-88431100D01*
G37*
G36*
X106228480Y-88431100D02*
G01*
X105597680Y-88431100D01*
X105597680Y-87750300D01*
X106228480Y-87750300D01*
X106228480Y-88431100D01*
X106228480Y-88431100D01*
G37*
G36*
X110496680Y-88405700D02*
G01*
X109865880Y-88405700D01*
X109865880Y-87724900D01*
X110496680Y-87724900D01*
X110496680Y-88405700D01*
X110496680Y-88405700D01*
G37*
G36*
X109606680Y-88405700D02*
G01*
X108975880Y-88405700D01*
X108975880Y-87724900D01*
X109606680Y-87724900D01*
X109606680Y-88405700D01*
X109606680Y-88405700D01*
G37*
G36*
X111623320Y-88043180D02*
G01*
X111232520Y-88043180D01*
X111232520Y-87682380D01*
X111623320Y-87682380D01*
X111623320Y-88043180D01*
X111623320Y-88043180D01*
G37*
G36*
X125462140Y-88020360D02*
G01*
X125101340Y-88020360D01*
X125101340Y-87629560D01*
X125462140Y-87629560D01*
X125462140Y-88020360D01*
X125462140Y-88020360D01*
G37*
G36*
X126012140Y-88020360D02*
G01*
X125651340Y-88020360D01*
X125651340Y-87629560D01*
X126012140Y-87629560D01*
X126012140Y-88020360D01*
X126012140Y-88020360D01*
G37*
G36*
X127403380Y-88015280D02*
G01*
X127042580Y-88015280D01*
X127042580Y-87624480D01*
X127403380Y-87624480D01*
X127403380Y-88015280D01*
X127403380Y-88015280D01*
G37*
G36*
X126853380Y-88015280D02*
G01*
X126492580Y-88015280D01*
X126492580Y-87624480D01*
X126853380Y-87624480D01*
X126853380Y-88015280D01*
X126853380Y-88015280D01*
G37*
G36*
X103019880Y-87915100D02*
G01*
X100349080Y-87915100D01*
X100349080Y-86994300D01*
X103019880Y-86994300D01*
X103019880Y-87915100D01*
X103019880Y-87915100D01*
G37*
G36*
X106034880Y-87524100D02*
G01*
X105674080Y-87524100D01*
X105674080Y-87133300D01*
X106034880Y-87133300D01*
X106034880Y-87524100D01*
X106034880Y-87524100D01*
G37*
G36*
X108219280Y-87524100D02*
G01*
X107858480Y-87524100D01*
X107858480Y-87133300D01*
X108219280Y-87133300D01*
X108219280Y-87524100D01*
X108219280Y-87524100D01*
G37*
G36*
X108769280Y-87524100D02*
G01*
X108408480Y-87524100D01*
X108408480Y-87133300D01*
X108769280Y-87133300D01*
X108769280Y-87524100D01*
X108769280Y-87524100D01*
G37*
G36*
X109286080Y-87524100D02*
G01*
X108925280Y-87524100D01*
X108925280Y-87133300D01*
X109286080Y-87133300D01*
X109286080Y-87524100D01*
X109286080Y-87524100D01*
G37*
G36*
X107127080Y-87524100D02*
G01*
X106766280Y-87524100D01*
X106766280Y-87133300D01*
X107127080Y-87133300D01*
X107127080Y-87524100D01*
X107127080Y-87524100D01*
G37*
G36*
X107677080Y-87524100D02*
G01*
X107316280Y-87524100D01*
X107316280Y-87133300D01*
X107677080Y-87133300D01*
X107677080Y-87524100D01*
X107677080Y-87524100D01*
G37*
G36*
X109836080Y-87524100D02*
G01*
X109475280Y-87524100D01*
X109475280Y-87133300D01*
X109836080Y-87133300D01*
X109836080Y-87524100D01*
X109836080Y-87524100D01*
G37*
G36*
X106584880Y-87524100D02*
G01*
X106224080Y-87524100D01*
X106224080Y-87133300D01*
X106584880Y-87133300D01*
X106584880Y-87524100D01*
X106584880Y-87524100D01*
G37*
G36*
X110928280Y-87498700D02*
G01*
X110567480Y-87498700D01*
X110567480Y-87107900D01*
X110928280Y-87107900D01*
X110928280Y-87498700D01*
X110928280Y-87498700D01*
G37*
G36*
X110378280Y-87498700D02*
G01*
X110017480Y-87498700D01*
X110017480Y-87107900D01*
X110378280Y-87107900D01*
X110378280Y-87498700D01*
X110378280Y-87498700D01*
G37*
G36*
X111623320Y-87493180D02*
G01*
X111232520Y-87493180D01*
X111232520Y-87132380D01*
X111623320Y-87132380D01*
X111623320Y-87493180D01*
X111623320Y-87493180D01*
G37*
G36*
X109836080Y-86965300D02*
G01*
X109475280Y-86965300D01*
X109475280Y-86574500D01*
X109836080Y-86574500D01*
X109836080Y-86965300D01*
X109836080Y-86965300D01*
G37*
G36*
X109286080Y-86965300D02*
G01*
X108925280Y-86965300D01*
X108925280Y-86574500D01*
X109286080Y-86574500D01*
X109286080Y-86965300D01*
X109286080Y-86965300D01*
G37*
G36*
X106034880Y-86939900D02*
G01*
X105674080Y-86939900D01*
X105674080Y-86549100D01*
X106034880Y-86549100D01*
X106034880Y-86939900D01*
X106034880Y-86939900D01*
G37*
G36*
X108219280Y-86939900D02*
G01*
X107858480Y-86939900D01*
X107858480Y-86549100D01*
X108219280Y-86549100D01*
X108219280Y-86939900D01*
X108219280Y-86939900D01*
G37*
G36*
X106584880Y-86939900D02*
G01*
X106224080Y-86939900D01*
X106224080Y-86549100D01*
X106584880Y-86549100D01*
X106584880Y-86939900D01*
X106584880Y-86939900D01*
G37*
G36*
X108769280Y-86939900D02*
G01*
X108408480Y-86939900D01*
X108408480Y-86549100D01*
X108769280Y-86549100D01*
X108769280Y-86939900D01*
X108769280Y-86939900D01*
G37*
G36*
X110380820Y-86937360D02*
G01*
X110020020Y-86937360D01*
X110020020Y-86546560D01*
X110380820Y-86546560D01*
X110380820Y-86937360D01*
X110380820Y-86937360D01*
G37*
G36*
X110930820Y-86937360D02*
G01*
X110570020Y-86937360D01*
X110570020Y-86546560D01*
X110930820Y-86546560D01*
X110930820Y-86937360D01*
X110930820Y-86937360D01*
G37*
G36*
X107677080Y-86914500D02*
G01*
X107316280Y-86914500D01*
X107316280Y-86523700D01*
X107677080Y-86523700D01*
X107677080Y-86914500D01*
X107677080Y-86914500D01*
G37*
G36*
X107127080Y-86914500D02*
G01*
X106766280Y-86914500D01*
X106766280Y-86523700D01*
X107127080Y-86523700D01*
X107127080Y-86914500D01*
X107127080Y-86914500D01*
G37*
G36*
X101898730Y-85995531D02*
G01*
X101923968Y-86003187D01*
X101947235Y-86015623D01*
X101967624Y-86032356D01*
X101984357Y-86052745D01*
X101996793Y-86076012D01*
X102004449Y-86101250D01*
X102007280Y-86129991D01*
X102007280Y-86546209D01*
X102004449Y-86574950D01*
X101996793Y-86600188D01*
X101984357Y-86623455D01*
X101967624Y-86643844D01*
X101947235Y-86660577D01*
X101923968Y-86673013D01*
X101898730Y-86680669D01*
X101869989Y-86683500D01*
X101503771Y-86683500D01*
X101475030Y-86680669D01*
X101449792Y-86673013D01*
X101426525Y-86660577D01*
X101406136Y-86643844D01*
X101389403Y-86623455D01*
X101376967Y-86600188D01*
X101369311Y-86574950D01*
X101366480Y-86546209D01*
X101366480Y-86129991D01*
X101369311Y-86101250D01*
X101376967Y-86076012D01*
X101389403Y-86052745D01*
X101406136Y-86032356D01*
X101426525Y-86015623D01*
X101449792Y-86003187D01*
X101475030Y-85995531D01*
X101503771Y-85992700D01*
X101869989Y-85992700D01*
X101898730Y-85995531D01*
X101898730Y-85995531D01*
G37*
G36*
X100928730Y-85995531D02*
G01*
X100953968Y-86003187D01*
X100977235Y-86015623D01*
X100997624Y-86032356D01*
X101014357Y-86052745D01*
X101026793Y-86076012D01*
X101034449Y-86101250D01*
X101037280Y-86129991D01*
X101037280Y-86546209D01*
X101034449Y-86574950D01*
X101026793Y-86600188D01*
X101014357Y-86623455D01*
X100997624Y-86643844D01*
X100977235Y-86660577D01*
X100953968Y-86673013D01*
X100928730Y-86680669D01*
X100899989Y-86683500D01*
X100533771Y-86683500D01*
X100505030Y-86680669D01*
X100479792Y-86673013D01*
X100456525Y-86660577D01*
X100436136Y-86643844D01*
X100419403Y-86623455D01*
X100406967Y-86600188D01*
X100399311Y-86574950D01*
X100396480Y-86546209D01*
X100396480Y-86129991D01*
X100399311Y-86101250D01*
X100406967Y-86076012D01*
X100419403Y-86052745D01*
X100436136Y-86032356D01*
X100456525Y-86015623D01*
X100479792Y-86003187D01*
X100505030Y-85995531D01*
X100533771Y-85992700D01*
X100899989Y-85992700D01*
X100928730Y-85995531D01*
X100928730Y-85995531D01*
G37*
G36*
X127578094Y-82655351D02*
G01*
X127673708Y-82694955D01*
X127708131Y-82717956D01*
X127759763Y-82752455D01*
X127832945Y-82825637D01*
X127867444Y-82877269D01*
X127890445Y-82911692D01*
X127930049Y-83007306D01*
X127950240Y-83108812D01*
X127950240Y-83212308D01*
X127930049Y-83313814D01*
X127890445Y-83409428D01*
X127867444Y-83443851D01*
X127832945Y-83495483D01*
X127759763Y-83568665D01*
X127708131Y-83603164D01*
X127673708Y-83626165D01*
X127578094Y-83665769D01*
X127476588Y-83685960D01*
X127373092Y-83685960D01*
X127271586Y-83665769D01*
X127175972Y-83626165D01*
X127141549Y-83603164D01*
X127089917Y-83568665D01*
X127016735Y-83495483D01*
X126982236Y-83443851D01*
X126959235Y-83409428D01*
X126919631Y-83313814D01*
X126899440Y-83212308D01*
X126899440Y-83108812D01*
X126919631Y-83007306D01*
X126959235Y-82911692D01*
X126982236Y-82877269D01*
X127016735Y-82825637D01*
X127089917Y-82752455D01*
X127141549Y-82717956D01*
X127175972Y-82694955D01*
X127271586Y-82655351D01*
X127373092Y-82635160D01*
X127476588Y-82635160D01*
X127578094Y-82655351D01*
X127578094Y-82655351D01*
G37*
G36*
X107962180Y-75671500D02*
G01*
X106411380Y-75671500D01*
X106411380Y-75170700D01*
X107962180Y-75170700D01*
X107962180Y-75671500D01*
X107962180Y-75671500D01*
G37*
G36*
X107962180Y-74971500D02*
G01*
X106411380Y-74971500D01*
X106411380Y-74470700D01*
X107962180Y-74470700D01*
X107962180Y-74971500D01*
X107962180Y-74971500D01*
G37*
G36*
X113597934Y-73790751D02*
G01*
X113693548Y-73830355D01*
X113727971Y-73853356D01*
X113779603Y-73887855D01*
X113852785Y-73961037D01*
X113887284Y-74012669D01*
X113910285Y-74047092D01*
X113949889Y-74142706D01*
X113970080Y-74244212D01*
X113970080Y-74347708D01*
X113949889Y-74449214D01*
X113910285Y-74544828D01*
X113887284Y-74579251D01*
X113852785Y-74630883D01*
X113779603Y-74704065D01*
X113727971Y-74738564D01*
X113693548Y-74761565D01*
X113597934Y-74801169D01*
X113496428Y-74821360D01*
X113392932Y-74821360D01*
X113291426Y-74801169D01*
X113195812Y-74761565D01*
X113161389Y-74738564D01*
X113109757Y-74704065D01*
X113036575Y-74630883D01*
X113002076Y-74579251D01*
X112979075Y-74544828D01*
X112939471Y-74449214D01*
X112919280Y-74347708D01*
X112919280Y-74244212D01*
X112939471Y-74142706D01*
X112979075Y-74047092D01*
X113002076Y-74012669D01*
X113036575Y-73961037D01*
X113109757Y-73887855D01*
X113161389Y-73853356D01*
X113195812Y-73830355D01*
X113291426Y-73790751D01*
X113392932Y-73770560D01*
X113496428Y-73770560D01*
X113597934Y-73790751D01*
X113597934Y-73790751D01*
G37*
G36*
X100913174Y-73790751D02*
G01*
X101008788Y-73830355D01*
X101043211Y-73853356D01*
X101094843Y-73887855D01*
X101168025Y-73961037D01*
X101202524Y-74012669D01*
X101225525Y-74047092D01*
X101265129Y-74142706D01*
X101285320Y-74244212D01*
X101285320Y-74347708D01*
X101265129Y-74449214D01*
X101225525Y-74544828D01*
X101202524Y-74579251D01*
X101168025Y-74630883D01*
X101094843Y-74704065D01*
X101043211Y-74738564D01*
X101008788Y-74761565D01*
X100913174Y-74801169D01*
X100811668Y-74821360D01*
X100708172Y-74821360D01*
X100606666Y-74801169D01*
X100511052Y-74761565D01*
X100476629Y-74738564D01*
X100424997Y-74704065D01*
X100351815Y-74630883D01*
X100317316Y-74579251D01*
X100294315Y-74544828D01*
X100254711Y-74449214D01*
X100234520Y-74347708D01*
X100234520Y-74244212D01*
X100254711Y-74142706D01*
X100294315Y-74047092D01*
X100317316Y-74012669D01*
X100351815Y-73961037D01*
X100424997Y-73887855D01*
X100476629Y-73853356D01*
X100511052Y-73830355D01*
X100606666Y-73790751D01*
X100708172Y-73770560D01*
X100811668Y-73770560D01*
X100913174Y-73790751D01*
X100913174Y-73790751D01*
G37*
G36*
X107962180Y-74194260D02*
G01*
X106411380Y-74194260D01*
X106411380Y-73693460D01*
X107962180Y-73693460D01*
X107962180Y-74194260D01*
X107962180Y-74194260D01*
G37*
G36*
X107962180Y-73494260D02*
G01*
X106411380Y-73494260D01*
X106411380Y-72993460D01*
X107962180Y-72993460D01*
X107962180Y-73494260D01*
X107962180Y-73494260D01*
G37*
M02*
