G04 #@! TF.GenerationSoftware,KiCad,Pcbnew,(5.1.4)-1*
G04 #@! TF.CreationDate,2020-08-13T23:55:03-07:00*
G04 #@! TF.ProjectId,Kicad_LFOV_RigidFlex_Assembly,4b696361-645f-44c4-964f-565f52696769,rev?*
G04 #@! TF.SameCoordinates,Original*
G04 #@! TF.FileFunction,Copper,L4,Inr*
G04 #@! TF.FilePolarity,Positive*
%FSLAX46Y46*%
G04 Gerber Fmt 4.6, Leading zero omitted, Abs format (unit mm)*
G04 Created by KiCad (PCBNEW (5.1.4)-1) date 2020-08-13 23:55:03*
%MOMM*%
%LPD*%
G04 APERTURE LIST*
%ADD10C,0.635000*%
%ADD11C,0.300000*%
%ADD12C,0.850000*%
%ADD13C,0.400000*%
%ADD14C,0.350000*%
%ADD15C,0.300000*%
%ADD16C,0.450000*%
%ADD17C,0.304800*%
%ADD18C,0.203200*%
%ADD19C,0.254000*%
%ADD20C,0.152400*%
%ADD21C,0.381000*%
G04 APERTURE END LIST*
D10*
X126348762Y-116504222D02*
G75*
G02X126919380Y-105405880I1040518J5510342D01*
G01*
D11*
X132327289Y-109213739D02*
G75*
G02X132316880Y-109185400I-4914107J-1788999D01*
G01*
X127864263Y-105200103D02*
G75*
G02X127456818Y-116806702I-474983J-5793777D01*
G01*
D12*
X132346304Y-124217436D02*
G75*
G02X132306720Y-124110440I-4990044J-1785304D01*
G01*
D13*
X127480720Y-116815560D02*
X127483260Y-120490940D01*
D14*
X103973020Y-87867180D03*
D15*
X105753560Y-114910560D03*
X109113980Y-115428720D03*
X126876200Y-91532400D03*
D16*
X100897080Y-89259100D03*
D15*
X100541480Y-92357900D03*
D16*
X102545580Y-118999600D03*
X129147620Y-85086840D03*
X129147620Y-85965680D03*
X129147620Y-86844520D03*
D15*
X127943660Y-87824960D03*
D16*
X110172780Y-75255980D03*
X110172780Y-73755980D03*
X104197780Y-73780980D03*
X104197780Y-75280980D03*
D15*
X107221680Y-73960680D03*
D14*
X105378910Y-87314730D03*
X111962980Y-109913598D03*
D16*
X129394000Y-88547040D03*
X112835080Y-91697502D03*
D15*
X126881280Y-90028720D03*
D16*
X108821880Y-90032100D03*
X107602680Y-88878100D03*
D15*
X108463780Y-111621400D03*
X106881320Y-91081359D03*
X103139900Y-92431560D03*
X106406380Y-118046600D03*
X110876780Y-114999600D03*
X111703980Y-117526400D03*
X109403580Y-112458600D03*
X107532920Y-113365060D03*
X109592460Y-118973600D03*
X110793780Y-112407800D03*
D14*
X108538960Y-109803600D03*
X103091100Y-71125960D03*
X110617780Y-77380980D03*
D16*
X107169570Y-70955980D03*
D14*
X107997780Y-71800980D03*
X103091100Y-69999300D03*
X109850580Y-86297460D03*
X111012780Y-74505980D03*
X111012780Y-75005980D03*
D15*
X129544000Y-92926280D03*
X126995130Y-93462350D03*
D14*
X102449020Y-108900920D03*
D15*
X109827060Y-71820820D03*
D16*
X100719280Y-90376700D03*
D15*
X109131980Y-114468200D03*
X109431480Y-110686200D03*
X111298380Y-92456960D03*
X110859320Y-116739000D03*
X104052980Y-118127520D03*
D14*
X103271980Y-75548180D03*
D16*
X125611940Y-85086840D03*
X125611940Y-86844520D03*
X125611940Y-85965680D03*
D15*
X126246940Y-87824960D03*
D14*
X103762200Y-86769900D03*
D15*
X112581080Y-86322860D03*
X125171098Y-91350480D03*
D14*
X104910620Y-69994220D03*
D15*
X100541480Y-93369500D03*
X111967080Y-89589300D03*
D14*
X111012780Y-73505980D03*
X106222780Y-77080980D03*
X108065640Y-77097580D03*
X111177780Y-69994220D03*
X129719000Y-90847560D03*
D15*
X125585491Y-93996491D03*
X109827060Y-69994220D03*
X107160720Y-75413560D03*
X105824429Y-86238789D03*
D14*
X105822780Y-77953446D03*
D15*
X105364940Y-86241580D03*
D14*
X105037780Y-74030980D03*
X104910620Y-71855980D03*
X108093440Y-71155980D03*
D15*
X127890798Y-91524882D03*
X127882700Y-92032980D03*
D14*
X111425380Y-87305840D03*
X108844700Y-86315667D03*
D15*
X101735280Y-93018300D03*
X107523980Y-112484000D03*
X103396440Y-112756640D03*
X110885220Y-114109600D03*
X107704280Y-92002300D03*
D14*
X102649680Y-86642900D03*
X110750420Y-87292460D03*
X109335167Y-86315667D03*
X106942280Y-86315667D03*
X104807410Y-92436202D03*
X104807410Y-92436202D03*
X104807410Y-92436202D03*
X104807410Y-92436202D03*
D16*
X112835080Y-92662701D03*
D15*
X110173900Y-90265640D03*
D14*
X104897580Y-115459200D03*
D15*
X110173900Y-90765640D03*
D14*
X110687060Y-110693607D03*
D15*
X110173900Y-91265640D03*
D14*
X110282380Y-111243400D03*
X110904680Y-89182900D03*
D15*
X125083732Y-93998748D03*
D14*
X124587498Y-88593870D03*
D15*
X110281180Y-109803600D03*
D14*
X107515640Y-77097580D03*
X107595060Y-69718880D03*
X107810295Y-86307867D03*
D15*
X111407600Y-89591840D03*
X127389280Y-92037860D03*
X110174620Y-89765640D03*
X107197780Y-70110980D03*
D14*
X106805379Y-77113579D03*
X110500820Y-108885680D03*
X111427920Y-87862780D03*
D15*
X103332980Y-115443600D03*
D14*
X104807410Y-88776500D03*
X104807410Y-89361970D03*
X103644976Y-114738600D03*
D15*
X105817060Y-89767100D03*
X103637780Y-113970400D03*
X105806900Y-90262400D03*
D14*
X104275280Y-115035020D03*
D15*
X105814520Y-90762780D03*
D14*
X105705300Y-113970760D03*
D15*
X104944709Y-91286020D03*
D14*
X106088840Y-113577060D03*
D15*
X106294580Y-92477280D03*
D14*
X107564580Y-108875520D03*
X107048960Y-92472200D03*
X107048960Y-108882678D03*
X106609540Y-113150340D03*
X107798260Y-92500140D03*
X106091380Y-112721080D03*
X108611981Y-92452801D03*
X111689540Y-86325400D03*
D15*
X106083080Y-92002300D03*
X106931980Y-116368200D03*
X110851380Y-115826800D03*
X107494320Y-110731400D03*
X102520180Y-112609280D03*
X105761040Y-115787000D03*
X110839180Y-113335400D03*
X107516180Y-118936600D03*
D14*
X106781180Y-109803600D03*
D15*
X111308540Y-91852440D03*
D14*
X108332297Y-86315667D03*
X104242510Y-86769900D03*
X105011880Y-75520240D03*
X103646180Y-71830980D03*
X109332780Y-74005980D03*
X109703360Y-77356560D03*
D15*
X107211580Y-73219060D03*
D14*
X104355540Y-71125960D03*
X109332780Y-75505980D03*
D17*
X112581081Y-91951501D02*
X112835080Y-91697502D01*
X111962980Y-109913598D02*
X111962980Y-108786617D01*
X111962980Y-108786617D02*
X111724248Y-108547885D01*
X111724248Y-108547885D02*
X111724248Y-93755260D01*
X111724248Y-93755260D02*
X112257679Y-93221829D01*
X112257679Y-93221829D02*
X112257679Y-92274903D01*
X112257679Y-92274903D02*
X112581081Y-91951501D01*
X125535080Y-90191280D02*
X126876200Y-91532400D01*
X113307764Y-90191280D02*
X125535080Y-90191280D01*
X112835080Y-91697502D02*
X112835080Y-90663964D01*
X112835080Y-90663964D02*
X113307764Y-90191280D01*
D18*
X110988495Y-93808240D02*
X110988495Y-93808240D01*
D17*
X111417760Y-108955306D02*
X110994585Y-108532131D01*
X110994585Y-93483584D02*
X110994585Y-93236097D01*
X111417760Y-111080240D02*
X111417760Y-108955306D01*
X109131980Y-113366020D02*
X111417760Y-111080240D01*
X109131980Y-114468200D02*
X109131980Y-113366020D01*
X110994585Y-108532131D02*
X110994585Y-93483584D01*
X110994585Y-93236097D02*
X110994585Y-92760755D01*
X110994585Y-92760755D02*
X111298380Y-92456960D01*
D18*
X103741880Y-86769900D02*
X103762200Y-86790220D01*
D19*
X109932788Y-85782901D02*
X111898881Y-85782901D01*
D17*
X111898881Y-85782901D02*
X112041121Y-85782901D01*
X112041121Y-85782901D02*
X112581080Y-86322860D01*
X109203941Y-85782901D02*
X111898881Y-85782901D01*
X108745680Y-85324640D02*
X109203941Y-85782901D01*
X108745680Y-77317820D02*
X108745680Y-85324640D01*
X108525440Y-77097580D02*
X108745680Y-77317820D01*
X108065640Y-77097580D02*
X108525440Y-77097580D01*
X105822780Y-77953446D02*
X105822780Y-85771467D01*
X105824429Y-85773116D02*
X105824429Y-86238789D01*
X105822780Y-85771467D02*
X105824429Y-85773116D01*
D20*
X107918441Y-71330979D02*
X108093440Y-71155980D01*
X107568439Y-71680981D02*
X107918441Y-71330979D01*
X105085619Y-71680981D02*
X107568439Y-71680981D01*
X104910620Y-71855980D02*
X105085619Y-71680981D01*
D21*
X127897280Y-105169660D02*
X127897280Y-94250136D01*
D17*
X127906830Y-94191106D02*
X128379230Y-93718706D01*
X128379230Y-91801182D02*
X128379230Y-91950850D01*
X128102930Y-91524882D02*
X128379230Y-91801182D01*
X127890798Y-91524882D02*
X128102930Y-91524882D01*
X128379230Y-93718706D02*
X128379230Y-91950850D01*
D21*
X126957480Y-94181620D02*
X126957480Y-105138494D01*
D17*
X126957480Y-94181620D02*
X127874420Y-93264680D01*
X127874420Y-93264680D02*
X127874420Y-92627140D01*
X127882700Y-92618860D02*
X127882700Y-92032980D01*
X127874420Y-92627140D02*
X127882700Y-92618860D01*
D18*
X103266903Y-93808240D02*
X103266903Y-108875123D01*
D19*
X103266903Y-93808240D02*
X103266903Y-93330723D01*
D17*
X103266903Y-93330723D02*
X103266903Y-108875123D01*
X103266903Y-108875123D02*
X103266903Y-110115791D01*
X102957020Y-93020840D02*
X103266903Y-93330723D01*
X101735280Y-93018300D02*
X101737820Y-93020840D01*
X101737820Y-93020840D02*
X102957020Y-93020840D01*
X103231371Y-112591571D02*
X103396440Y-112756640D01*
X103266903Y-110115791D02*
X103231371Y-110151323D01*
X103231371Y-110151323D02*
X103231371Y-112591571D01*
X109058097Y-93619180D02*
X109058097Y-93691022D01*
X109963900Y-90765640D02*
X110173900Y-90765640D01*
X109058097Y-91671443D02*
X109963900Y-90765640D01*
X109058097Y-93619180D02*
X109058097Y-91671443D01*
X109058097Y-93619180D02*
X109058097Y-109607037D01*
X109058097Y-109607037D02*
X110144860Y-110693800D01*
X110144860Y-110693800D02*
X110686511Y-110693800D01*
D18*
X110015680Y-108877503D02*
X110015680Y-108877503D01*
X110015680Y-108877503D02*
X110026777Y-108888600D01*
D17*
X110729681Y-89357899D02*
X110904680Y-89182900D01*
X110729681Y-92361536D02*
X110729681Y-89357899D01*
X110015680Y-93075537D02*
X110729681Y-92361536D01*
X110015680Y-108877503D02*
X110015680Y-93075537D01*
X110015680Y-109538100D02*
X110281180Y-109803600D01*
X110015680Y-108877503D02*
X110015680Y-109538100D01*
X107348680Y-85846252D02*
X107810295Y-86307867D01*
X107348680Y-77739340D02*
X107348680Y-85846252D01*
X107515640Y-77097580D02*
X107515640Y-77572380D01*
X107515640Y-77572380D02*
X107348680Y-77739340D01*
X127389280Y-91326660D02*
X127389280Y-92037860D01*
X125085500Y-89022880D02*
X127389280Y-91326660D01*
X111720020Y-89022880D02*
X125085500Y-89022880D01*
X111407600Y-89335300D02*
X111720020Y-89022880D01*
X111407600Y-89591840D02*
X111407600Y-89335300D01*
D18*
X103868859Y-93444997D02*
X104247340Y-93823478D01*
D17*
X103814481Y-93390619D02*
X104247340Y-93823478D01*
X104247340Y-113360840D02*
X103637780Y-113970400D01*
X104247340Y-93823478D02*
X104247340Y-113360840D01*
X103727890Y-93304028D02*
X103814481Y-93390619D01*
X103727890Y-90755419D02*
X103727890Y-93304028D01*
X104627316Y-89855991D02*
X103727890Y-90755419D01*
X104948312Y-89855990D02*
X104627316Y-89855991D01*
X105037202Y-89767100D02*
X104948312Y-89855990D01*
X105817060Y-89767100D02*
X105037202Y-89767100D01*
X105806900Y-90262400D02*
X104795657Y-90262400D01*
X104795657Y-90262400D02*
X104134299Y-90923758D01*
X104134299Y-90923758D02*
X104134298Y-92773178D01*
X104134298Y-92773178D02*
X105187140Y-93826020D01*
X105187140Y-93826020D02*
X105187140Y-110680944D01*
X104450279Y-114860021D02*
X104275280Y-115035020D01*
X104653750Y-114656550D02*
X104450279Y-114860021D01*
X104653750Y-111214334D02*
X104653750Y-114656550D01*
X105187140Y-110680944D02*
X104653750Y-111214334D01*
X105814520Y-90762780D02*
X104870027Y-90762780D01*
X104870027Y-90762780D02*
X104540708Y-91092099D01*
X104540708Y-91092099D02*
X104540708Y-91479941D01*
X106162500Y-93182641D02*
X106162500Y-110280334D01*
X104540708Y-91479941D02*
X105138880Y-92078113D01*
X105138880Y-92078113D02*
X105138880Y-92159021D01*
X105138880Y-92159021D02*
X106162500Y-93182641D01*
X105530301Y-113795761D02*
X105705300Y-113970760D01*
X105530301Y-110912533D02*
X105530301Y-113795761D01*
X106162500Y-110280334D02*
X105530301Y-110912533D01*
D18*
X107048960Y-92436202D02*
X107048960Y-92472200D01*
D17*
X107048960Y-92472200D02*
X107048960Y-108882678D01*
X108034221Y-108893559D02*
X108034221Y-108976285D01*
X106609540Y-112902853D02*
X106609540Y-113150340D01*
X106609540Y-111018258D02*
X106609540Y-112902853D01*
X108034221Y-109593577D02*
X106609540Y-111018258D01*
X108034221Y-108893559D02*
X108034221Y-109593577D01*
X108034221Y-92736101D02*
X107798260Y-92500140D01*
X108034221Y-108893559D02*
X108034221Y-92736101D01*
D20*
X103646180Y-71830980D02*
X103726640Y-71911440D01*
X103646180Y-75534380D02*
X103646180Y-71830980D01*
X104020660Y-75908860D02*
X103646180Y-75534380D01*
X105011880Y-75520240D02*
X104623260Y-75908860D01*
X104623260Y-75908860D02*
X104020660Y-75908860D01*
X104355540Y-72009886D02*
X104355540Y-71125960D01*
X107431413Y-75085759D02*
X104355540Y-72009886D01*
X108440159Y-75085759D02*
X107431413Y-75085759D01*
X109332780Y-75505980D02*
X108860380Y-75505980D01*
X108860380Y-75505980D02*
X108440159Y-75085759D01*
M02*
