M48
; DRILL file {KiCad (5.1.4)-1} date 2020/8/13 23:55:59
; FORMAT={-:-/ absolute / inch / decimal}
; #@! TF.CreationDate,2020-08-13T23:55:59-07:00
; #@! TF.GenerationSoftware,Kicad,Pcbnew,(5.1.4)-1
FMAT,2
INCH
T1C0.0059
T2C0.0079
T3C0.0394
%
G90
G05
T1
X3.9583Y-3.6361
X3.9583Y-3.676
X4.0053Y-3.6621
X4.0334Y-4.2874
X4.0362Y-4.4334
X4.0413Y-3.4111
X4.0587Y-2.7559
X4.0587Y-2.8002
X4.0606Y-3.639
X4.0658Y-2.9743
X4.0682Y-4.545
X4.0707Y-4.4392
X4.0802Y-4.487
X4.0805Y-4.5173
X4.0806Y-2.828
X4.0851Y-3.4161
X4.0934Y-3.4593
X4.0966Y-4.6507
X4.104Y-3.4161
X4.1053Y-4.5289
X4.1085Y-2.8002
X4.1263Y-3.4951
X4.1263Y-3.5182
X4.1263Y-3.6392
X4.1263Y-3.6392
X4.1263Y-3.6392
X4.1263Y-3.6392
X4.1298Y-4.5456
X4.1303Y-2.7557
X4.1303Y-2.829
X4.1317Y-3.5939
X4.1343Y-2.9732
X4.1353Y-2.9146
X4.1482Y-3.3953
X4.1488Y-3.4376
X4.1616Y-4.487
X4.1635Y-4.524
X4.1638Y-4.5585
X4.1656Y-3.5536
X4.1659Y-3.5733
X4.166Y-3.5341
X4.1663Y-3.069
X4.1663Y-3.3952
X4.1765Y-3.6221
X4.1767Y-4.4715
X4.1768Y-4.4378
X4.182Y-3.0347
X4.1848Y-3.6408
X4.1892Y-4.6475
X4.1972Y-4.4547
X4.204Y-4.323
X4.2049Y-3.036
X4.2079Y-3.5859
X4.2099Y-4.5814
X4.2103Y-3.3983
X4.2145Y-3.6406
X4.2145Y-4.2867
X4.2189Y-2.969
X4.2204Y-2.7603
X4.2209Y-2.8826
X4.2213Y-2.9118
X4.2321Y-4.3595
X4.2329Y-3.0353
X4.2329Y-4.6825
X4.2332Y-4.4285
X4.2336Y-4.4632
X4.2348Y-4.2864
X4.236Y-2.7448
X4.2403Y-3.6221
X4.244Y-3.6417
X4.2445Y-3.3979
X4.2519Y-2.8268
X4.2546Y-3.0353
X4.2556Y-2.8014
X4.2651Y-3.3983
X4.2702Y-4.3945
X4.2732Y-4.323
X4.2761Y-3.6399
X4.2852Y-3.3983
X4.2958Y-4.5444
X4.2965Y-4.5066
X4.3044Y-2.9136
X4.3044Y-2.9727
X4.3045Y-3.3983
X4.3072Y-4.4275
X4.3083Y-4.3577
X4.3147Y-4.684
X4.319Y-3.0455
X4.3239Y-2.7557
X4.3239Y-2.8276
X4.3248Y-3.3975
X4.3376Y-3.5538
X4.3376Y-3.5735
X4.3376Y-3.5931
X4.3376Y-3.5341
X4.3418Y-4.323
X4.3418Y-4.3797
X4.3504Y-4.2868
X4.355Y-3.0465
X4.3578Y-4.358
X4.3603Y-3.4367
X4.362Y-4.4255
X4.3637Y-4.462
X4.3642Y-4.5601
X4.3645Y-4.596
X4.3652Y-4.5275
X4.3656Y-4.4925
X4.3663Y-3.5111
X4.3706Y-2.8939
X4.3706Y-2.9333
X4.3706Y-2.953
X4.3771Y-2.7557
X4.3818Y-3.64
X4.3822Y-3.6162
X4.3861Y-3.5272
X4.3868Y-3.4372
X4.3869Y-3.4592
X4.3972Y-3.3986
X4.3978Y-4.627
X4.408Y-4.3273
X4.4082Y-3.5271
X4.4323Y-3.3985
X4.905Y-3.4879
X4.9246Y-3.7007
X4.928Y-3.5965
X4.9443Y-3.7006
X4.9704Y-3.4577
X4.9951Y-3.6036
X4.9953Y-3.5444
X4.9998Y-3.6796
X5.0153Y-3.6235
X5.0348Y-3.6233
X5.0351Y-3.6033
X5.0372Y-3.4577
X5.1002Y-3.6585
X5.107Y-3.5767
T2
X3.9653Y-3.5581
X3.9723Y-3.5141
X4.0372Y-4.685
X4.1023Y-2.9048
X4.1023Y-2.9638
X4.2193Y-2.7935
X4.2363Y-3.4991
X4.2843Y-3.5446
X4.3375Y-2.9038
X4.3375Y-2.9628
X4.4423Y-3.6101
X4.4423Y-3.6481
X4.9454Y-3.3499
X4.9454Y-3.3845
X4.9454Y-3.4191
X5.0846Y-3.3499
X5.0846Y-3.3845
X5.0846Y-3.4191
X5.0943Y-3.4861
T3
X3.9669Y-2.925
X5.0167Y-3.274
X3.943Y-4.4816
X4.4921Y-4.4816
X5.1874Y-3.5557
X3.8762Y-3.5289
X4.4663Y-2.925
T0
M30
