G04 #@! TF.GenerationSoftware,KiCad,Pcbnew,(5.1.4)-1*
G04 #@! TF.CreationDate,2020-08-13T23:55:05-07:00*
G04 #@! TF.ProjectId,Kicad_LFOV_RigidFlex_Assembly,4b696361-645f-44c4-964f-565f52696769,rev?*
G04 #@! TF.SameCoordinates,Original*
G04 #@! TF.FileFunction,Legend,Top*
G04 #@! TF.FilePolarity,Positive*
%FSLAX46Y46*%
G04 Gerber Fmt 4.6, Leading zero omitted, Abs format (unit mm)*
G04 Created by KiCad (PCBNEW (5.1.4)-1) date 2020-08-13 23:55:05*
%MOMM*%
%LPD*%
G04 APERTURE LIST*
%ADD10C,0.050000*%
%ADD11C,0.025000*%
G04 APERTURE END LIST*
D10*
X128362340Y-83161120D02*
G75*
G03X128362340Y-83161120I-937500J0D01*
G01*
X132697353Y-90315740D02*
G75*
G03X132697353Y-90315740I-937500J0D01*
G01*
X101090838Y-113829044D02*
G75*
G03X101090838Y-113829044I-937500J0D01*
G01*
X115039642Y-113832356D02*
G75*
G03X115039642Y-113832356I-937500J0D01*
G01*
X99391100Y-89640100D02*
G75*
G03X99391100Y-89640100I-937500J0D01*
G01*
X114380169Y-74297358D02*
G75*
G03X114380169Y-74297358I-937500J0D01*
G01*
X101693637Y-74302362D02*
G75*
G03X101693637Y-74302362I-937500J0D01*
G01*
D11*
G36*
X110418900Y-92095640D02*
G01*
X109868900Y-92095640D01*
X109868900Y-91513700D01*
X110418900Y-91513700D01*
X110418900Y-92095640D01*
G37*
X110418900Y-92095640D02*
X109868900Y-92095640D01*
X109868900Y-91513700D01*
X110418900Y-91513700D01*
X110418900Y-92095640D01*
G36*
X102847800Y-89886480D02*
G01*
X102062940Y-89889020D01*
X102062940Y-89170200D01*
X102847800Y-89170200D01*
X102847800Y-89886480D01*
G37*
X102847800Y-89886480D02*
X102062940Y-89889020D01*
X102062940Y-89170200D01*
X102847800Y-89170200D01*
X102847800Y-89886480D01*
D10*
X110418900Y-91545640D02*
X110418900Y-92095640D01*
X110418900Y-92095640D02*
X109868900Y-92095640D01*
X110418900Y-87485640D02*
X110418900Y-86935640D01*
X110418900Y-86935640D02*
X109868900Y-86935640D01*
X105258900Y-87485640D02*
X105258900Y-86935640D01*
X105258900Y-86935640D02*
X105808900Y-86935640D01*
X105258900Y-91545640D02*
X105258900Y-92095640D01*
X105258900Y-92095640D02*
X105808900Y-92095640D01*
X107131980Y-117028200D02*
X109581980Y-117028200D01*
X108931980Y-113808200D02*
X107131980Y-113808200D01*
X126962700Y-92372980D02*
X126542700Y-92372980D01*
X126542700Y-92372980D02*
X126542700Y-91952980D01*
X127802700Y-92372980D02*
X128222700Y-92372980D01*
X128222700Y-92372980D02*
X128222700Y-91952980D01*
X127802700Y-89692980D02*
X128222700Y-89692980D01*
X128222700Y-89692980D02*
X128222700Y-90112980D01*
X126962700Y-89692980D02*
X126542700Y-89692980D01*
X126542700Y-89692980D02*
X126542700Y-90112980D01*
X126799860Y-84666480D02*
X127969860Y-84666480D01*
X126799860Y-87366480D02*
X127969860Y-87366480D01*
X128914000Y-89352040D02*
X128914000Y-89102040D01*
X129874000Y-89352040D02*
X129874000Y-89102040D01*
X127422500Y-88961240D02*
X127422500Y-89221240D01*
X125622500Y-88121240D02*
X125622500Y-87861240D01*
X125622500Y-87861240D02*
X127422500Y-87861240D01*
X127422500Y-87861240D02*
X127422500Y-88121240D01*
X127422500Y-89221240D02*
X125622500Y-89221240D01*
X125622500Y-89221240D02*
X125622500Y-88961240D01*
X128232500Y-88381240D02*
X128232500Y-88701240D01*
X111264980Y-110939600D02*
X111264980Y-110549600D01*
X112164980Y-110939600D02*
X112164980Y-110549600D01*
X100795680Y-86875040D02*
X100795680Y-87375040D01*
X100795680Y-86875040D02*
X101295680Y-86875040D01*
X103995680Y-86875040D02*
X103495680Y-86875040D01*
X103995680Y-86875040D02*
X103995680Y-87375040D01*
X103995680Y-90175040D02*
X103995680Y-89675040D01*
X103995680Y-90175040D02*
X103495680Y-90175040D01*
X100795680Y-90175040D02*
X100795680Y-89675040D01*
X100795680Y-90175040D02*
X101295680Y-90175040D01*
X103147780Y-76080980D02*
X103147780Y-75815980D01*
X105247780Y-76080980D02*
X103147780Y-76080980D01*
X105247780Y-75815980D02*
X105247780Y-76080980D01*
X103147780Y-72980980D02*
X103147780Y-73245980D01*
X105247780Y-72980980D02*
X103147780Y-72980980D01*
X105247780Y-73245980D02*
X105247780Y-72980980D01*
X109122780Y-75790980D02*
X109122780Y-76055980D01*
X109122780Y-76055980D02*
X111222780Y-76055980D01*
X111222780Y-76055980D02*
X111222780Y-75790980D01*
X109122780Y-73220980D02*
X109122780Y-72955980D01*
X109122780Y-72955980D02*
X111222780Y-72955980D01*
X111222780Y-72955980D02*
X111222780Y-73220980D01*
X106137780Y-71985980D02*
X106137780Y-71415980D01*
X108257780Y-71985980D02*
X108257780Y-71415980D01*
X108257780Y-69925980D02*
X108257780Y-70495980D01*
X106137780Y-69925980D02*
X106137780Y-70495980D01*
X103203380Y-115891600D02*
X103513380Y-115891600D01*
X103203380Y-118551600D02*
X103513380Y-118551600D01*
X102278380Y-116866600D02*
X102278380Y-117576600D01*
X104438380Y-117576600D02*
X104438380Y-116866600D01*
X103358380Y-115946600D02*
X103358380Y-117221600D01*
X103358380Y-117221600D02*
X102308380Y-117221600D01*
X107635723Y-85556035D02*
X107635723Y-85758416D01*
X107647628Y-85782225D01*
X107659533Y-85794130D01*
X107683342Y-85806035D01*
X107730961Y-85806035D01*
X107754771Y-85794130D01*
X107766676Y-85782225D01*
X107778580Y-85758416D01*
X107778580Y-85556035D01*
X107885723Y-85579844D02*
X107897628Y-85567940D01*
X107921438Y-85556035D01*
X107980961Y-85556035D01*
X108004771Y-85567940D01*
X108016676Y-85579844D01*
X108028580Y-85603654D01*
X108028580Y-85627463D01*
X108016676Y-85663178D01*
X107873819Y-85806035D01*
X108028580Y-85806035D01*
X98791443Y-113951775D02*
X98791443Y-113701775D01*
X98791443Y-113820822D02*
X98934300Y-113820822D01*
X98934300Y-113951775D02*
X98934300Y-113701775D01*
X99184300Y-113951775D02*
X99041443Y-113951775D01*
X99112872Y-113951775D02*
X99112872Y-113701775D01*
X99089062Y-113737489D01*
X99065253Y-113761299D01*
X99041443Y-113773203D01*
X99357863Y-74457315D02*
X99357863Y-74207315D01*
X99357863Y-74326362D02*
X99500720Y-74326362D01*
X99500720Y-74457315D02*
X99500720Y-74207315D01*
X99595959Y-74207315D02*
X99762625Y-74207315D01*
X99655482Y-74457315D01*
X107900155Y-115608676D02*
X108102536Y-115608676D01*
X108126345Y-115596771D01*
X108138250Y-115584866D01*
X108150155Y-115561057D01*
X108150155Y-115513438D01*
X108138250Y-115489628D01*
X108126345Y-115477723D01*
X108102536Y-115465819D01*
X107900155Y-115465819D01*
X108150155Y-115334866D02*
X108150155Y-115287247D01*
X108138250Y-115263438D01*
X108126345Y-115251533D01*
X108090631Y-115227723D01*
X108043012Y-115215819D01*
X107947774Y-115215819D01*
X107923964Y-115227723D01*
X107912060Y-115239628D01*
X107900155Y-115263438D01*
X107900155Y-115311057D01*
X107912060Y-115334866D01*
X107923964Y-115346771D01*
X107947774Y-115358676D01*
X108007298Y-115358676D01*
X108031107Y-115346771D01*
X108043012Y-115334866D01*
X108054917Y-115311057D01*
X108054917Y-115263438D01*
X108043012Y-115239628D01*
X108031107Y-115227723D01*
X108007298Y-115215819D01*
X126205895Y-91118356D02*
X126408276Y-91118356D01*
X126432085Y-91106451D01*
X126443990Y-91094546D01*
X126455895Y-91070737D01*
X126455895Y-91023118D01*
X126443990Y-90999308D01*
X126432085Y-90987403D01*
X126408276Y-90975499D01*
X126205895Y-90975499D01*
X126455895Y-90725499D02*
X126455895Y-90868356D01*
X126455895Y-90796927D02*
X126205895Y-90796927D01*
X126241609Y-90820737D01*
X126265419Y-90844546D01*
X126277323Y-90868356D01*
X128939065Y-92463066D02*
X128950970Y-92474971D01*
X128962875Y-92510685D01*
X128962875Y-92534495D01*
X128950970Y-92570209D01*
X128927160Y-92594019D01*
X128903351Y-92605923D01*
X128855732Y-92617828D01*
X128820018Y-92617828D01*
X128772399Y-92605923D01*
X128748589Y-92594019D01*
X128724780Y-92570209D01*
X128712875Y-92534495D01*
X128712875Y-92510685D01*
X128724780Y-92474971D01*
X128736684Y-92463066D01*
X128962875Y-92224971D02*
X128962875Y-92367828D01*
X128962875Y-92296400D02*
X128712875Y-92296400D01*
X128748589Y-92320209D01*
X128772399Y-92344019D01*
X128784303Y-92367828D01*
X128650633Y-90940965D02*
X128638728Y-90952870D01*
X128603014Y-90964775D01*
X128579204Y-90964775D01*
X128543490Y-90952870D01*
X128519680Y-90929060D01*
X128507776Y-90905251D01*
X128495871Y-90857632D01*
X128495871Y-90821918D01*
X128507776Y-90774299D01*
X128519680Y-90750489D01*
X128543490Y-90726680D01*
X128579204Y-90714775D01*
X128603014Y-90714775D01*
X128638728Y-90726680D01*
X128650633Y-90738584D01*
X128745871Y-90738584D02*
X128757776Y-90726680D01*
X128781585Y-90714775D01*
X128841109Y-90714775D01*
X128864919Y-90726680D01*
X128876823Y-90738584D01*
X128888728Y-90762394D01*
X128888728Y-90786203D01*
X128876823Y-90821918D01*
X128733966Y-90964775D01*
X128888728Y-90964775D01*
X127355233Y-84476665D02*
X127343328Y-84488570D01*
X127307614Y-84500475D01*
X127283804Y-84500475D01*
X127248090Y-84488570D01*
X127224280Y-84464760D01*
X127212376Y-84440951D01*
X127200471Y-84393332D01*
X127200471Y-84357618D01*
X127212376Y-84309999D01*
X127224280Y-84286189D01*
X127248090Y-84262380D01*
X127283804Y-84250475D01*
X127307614Y-84250475D01*
X127343328Y-84262380D01*
X127355233Y-84274284D01*
X127438566Y-84250475D02*
X127593328Y-84250475D01*
X127509995Y-84345713D01*
X127545709Y-84345713D01*
X127569519Y-84357618D01*
X127581423Y-84369522D01*
X127593328Y-84393332D01*
X127593328Y-84452856D01*
X127581423Y-84476665D01*
X127569519Y-84488570D01*
X127545709Y-84500475D01*
X127474280Y-84500475D01*
X127450471Y-84488570D01*
X127438566Y-84476665D01*
X128720625Y-89282986D02*
X128732530Y-89294891D01*
X128744435Y-89330605D01*
X128744435Y-89354415D01*
X128732530Y-89390129D01*
X128708720Y-89413939D01*
X128684911Y-89425843D01*
X128637292Y-89437748D01*
X128601578Y-89437748D01*
X128553959Y-89425843D01*
X128530149Y-89413939D01*
X128506340Y-89390129D01*
X128494435Y-89354415D01*
X128494435Y-89330605D01*
X128506340Y-89294891D01*
X128518244Y-89282986D01*
X128494435Y-89068700D02*
X128494435Y-89116320D01*
X128506340Y-89140129D01*
X128518244Y-89152034D01*
X128553959Y-89175843D01*
X128601578Y-89187748D01*
X128696816Y-89187748D01*
X128720625Y-89175843D01*
X128732530Y-89163939D01*
X128744435Y-89140129D01*
X128744435Y-89092510D01*
X128732530Y-89068700D01*
X128720625Y-89056796D01*
X128696816Y-89044891D01*
X128637292Y-89044891D01*
X128613482Y-89056796D01*
X128601578Y-89068700D01*
X128589673Y-89092510D01*
X128589673Y-89140129D01*
X128601578Y-89163939D01*
X128613482Y-89175843D01*
X128637292Y-89187748D01*
X103006793Y-85962565D02*
X102994888Y-85974470D01*
X102959174Y-85986375D01*
X102935364Y-85986375D01*
X102899650Y-85974470D01*
X102875840Y-85950660D01*
X102863936Y-85926851D01*
X102852031Y-85879232D01*
X102852031Y-85843518D01*
X102863936Y-85795899D01*
X102875840Y-85772089D01*
X102899650Y-85748280D01*
X102935364Y-85736375D01*
X102959174Y-85736375D01*
X102994888Y-85748280D01*
X103006793Y-85760184D01*
X103090126Y-85736375D02*
X103256793Y-85736375D01*
X103149650Y-85986375D01*
X112451925Y-116427634D02*
X112463830Y-116439539D01*
X112475735Y-116475253D01*
X112475735Y-116499062D01*
X112463830Y-116534777D01*
X112440020Y-116558586D01*
X112416211Y-116570491D01*
X112368592Y-116582396D01*
X112332878Y-116582396D01*
X112285259Y-116570491D01*
X112261449Y-116558586D01*
X112237640Y-116534777D01*
X112225735Y-116499062D01*
X112225735Y-116475253D01*
X112237640Y-116439539D01*
X112249544Y-116427634D01*
X112225735Y-116344300D02*
X112225735Y-116189539D01*
X112320973Y-116272872D01*
X112320973Y-116237158D01*
X112332878Y-116213348D01*
X112344782Y-116201443D01*
X112368592Y-116189539D01*
X112428116Y-116189539D01*
X112451925Y-116201443D01*
X112463830Y-116213348D01*
X112475735Y-116237158D01*
X112475735Y-116308586D01*
X112463830Y-116332396D01*
X112451925Y-116344300D01*
X112475735Y-115951443D02*
X112475735Y-116094300D01*
X112475735Y-116022872D02*
X112225735Y-116022872D01*
X112261449Y-116046681D01*
X112285259Y-116070491D01*
X112297163Y-116094300D01*
X108075505Y-111345094D02*
X108087410Y-111356999D01*
X108099315Y-111392713D01*
X108099315Y-111416522D01*
X108087410Y-111452237D01*
X108063600Y-111476046D01*
X108039791Y-111487951D01*
X107992172Y-111499856D01*
X107956458Y-111499856D01*
X107908839Y-111487951D01*
X107885029Y-111476046D01*
X107861220Y-111452237D01*
X107849315Y-111416522D01*
X107849315Y-111392713D01*
X107861220Y-111356999D01*
X107873124Y-111345094D01*
X107849315Y-111261760D02*
X107849315Y-111106999D01*
X107944553Y-111190332D01*
X107944553Y-111154618D01*
X107956458Y-111130808D01*
X107968362Y-111118903D01*
X107992172Y-111106999D01*
X108051696Y-111106999D01*
X108075505Y-111118903D01*
X108087410Y-111130808D01*
X108099315Y-111154618D01*
X108099315Y-111226046D01*
X108087410Y-111249856D01*
X108075505Y-111261760D01*
X107873124Y-111011760D02*
X107861220Y-110999856D01*
X107849315Y-110976046D01*
X107849315Y-110916522D01*
X107861220Y-110892713D01*
X107873124Y-110880808D01*
X107896934Y-110868903D01*
X107920743Y-110868903D01*
X107956458Y-110880808D01*
X108099315Y-111023665D01*
X108099315Y-110868903D01*
X108083125Y-113069754D02*
X108095030Y-113081659D01*
X108106935Y-113117373D01*
X108106935Y-113141182D01*
X108095030Y-113176897D01*
X108071220Y-113200706D01*
X108047411Y-113212611D01*
X107999792Y-113224516D01*
X107964078Y-113224516D01*
X107916459Y-113212611D01*
X107892649Y-113200706D01*
X107868840Y-113176897D01*
X107856935Y-113141182D01*
X107856935Y-113117373D01*
X107868840Y-113081659D01*
X107880744Y-113069754D01*
X107856935Y-112986420D02*
X107856935Y-112831659D01*
X107952173Y-112914992D01*
X107952173Y-112879278D01*
X107964078Y-112855468D01*
X107975982Y-112843563D01*
X107999792Y-112831659D01*
X108059316Y-112831659D01*
X108083125Y-112843563D01*
X108095030Y-112855468D01*
X108106935Y-112879278D01*
X108106935Y-112950706D01*
X108095030Y-112974516D01*
X108083125Y-112986420D01*
X107856935Y-112748325D02*
X107856935Y-112593563D01*
X107952173Y-112676897D01*
X107952173Y-112641182D01*
X107964078Y-112617373D01*
X107975982Y-112605468D01*
X107999792Y-112593563D01*
X108059316Y-112593563D01*
X108083125Y-112605468D01*
X108095030Y-112617373D01*
X108106935Y-112641182D01*
X108106935Y-112712611D01*
X108095030Y-112736420D01*
X108083125Y-112748325D01*
X110718565Y-70806385D02*
X110706660Y-70818290D01*
X110670946Y-70830195D01*
X110647137Y-70830195D01*
X110611422Y-70818290D01*
X110587613Y-70794480D01*
X110575708Y-70770671D01*
X110563803Y-70723052D01*
X110563803Y-70687338D01*
X110575708Y-70639719D01*
X110587613Y-70615909D01*
X110611422Y-70592100D01*
X110647137Y-70580195D01*
X110670946Y-70580195D01*
X110706660Y-70592100D01*
X110718565Y-70604004D01*
X110801899Y-70580195D02*
X110956660Y-70580195D01*
X110873327Y-70675433D01*
X110909041Y-70675433D01*
X110932851Y-70687338D01*
X110944756Y-70699242D01*
X110956660Y-70723052D01*
X110956660Y-70782576D01*
X110944756Y-70806385D01*
X110932851Y-70818290D01*
X110909041Y-70830195D01*
X110837613Y-70830195D01*
X110813803Y-70818290D01*
X110801899Y-70806385D01*
X111170946Y-70663528D02*
X111170946Y-70830195D01*
X111111422Y-70568290D02*
X111051899Y-70746861D01*
X111206660Y-70746861D01*
X107107765Y-111342554D02*
X107119670Y-111354459D01*
X107131575Y-111390173D01*
X107131575Y-111413982D01*
X107119670Y-111449697D01*
X107095860Y-111473506D01*
X107072051Y-111485411D01*
X107024432Y-111497316D01*
X106988718Y-111497316D01*
X106941099Y-111485411D01*
X106917289Y-111473506D01*
X106893480Y-111449697D01*
X106881575Y-111413982D01*
X106881575Y-111390173D01*
X106893480Y-111354459D01*
X106905384Y-111342554D01*
X106881575Y-111259220D02*
X106881575Y-111104459D01*
X106976813Y-111187792D01*
X106976813Y-111152078D01*
X106988718Y-111128268D01*
X107000622Y-111116363D01*
X107024432Y-111104459D01*
X107083956Y-111104459D01*
X107107765Y-111116363D01*
X107119670Y-111128268D01*
X107131575Y-111152078D01*
X107131575Y-111223506D01*
X107119670Y-111247316D01*
X107107765Y-111259220D01*
X106881575Y-110878268D02*
X106881575Y-110997316D01*
X107000622Y-111009220D01*
X106988718Y-110997316D01*
X106976813Y-110973506D01*
X106976813Y-110913982D01*
X106988718Y-110890173D01*
X107000622Y-110878268D01*
X107024432Y-110866363D01*
X107083956Y-110866363D01*
X107107765Y-110878268D01*
X107119670Y-110890173D01*
X107131575Y-110913982D01*
X107131575Y-110973506D01*
X107119670Y-110997316D01*
X107107765Y-111009220D01*
X107095065Y-113090074D02*
X107106970Y-113101979D01*
X107118875Y-113137693D01*
X107118875Y-113161502D01*
X107106970Y-113197217D01*
X107083160Y-113221026D01*
X107059351Y-113232931D01*
X107011732Y-113244836D01*
X106976018Y-113244836D01*
X106928399Y-113232931D01*
X106904589Y-113221026D01*
X106880780Y-113197217D01*
X106868875Y-113161502D01*
X106868875Y-113137693D01*
X106880780Y-113101979D01*
X106892684Y-113090074D01*
X106868875Y-113006740D02*
X106868875Y-112851979D01*
X106964113Y-112935312D01*
X106964113Y-112899598D01*
X106976018Y-112875788D01*
X106987922Y-112863883D01*
X107011732Y-112851979D01*
X107071256Y-112851979D01*
X107095065Y-112863883D01*
X107106970Y-112875788D01*
X107118875Y-112899598D01*
X107118875Y-112971026D01*
X107106970Y-112994836D01*
X107095065Y-113006740D01*
X106868875Y-112637693D02*
X106868875Y-112685312D01*
X106880780Y-112709121D01*
X106892684Y-112721026D01*
X106928399Y-112744836D01*
X106976018Y-112756740D01*
X107071256Y-112756740D01*
X107095065Y-112744836D01*
X107106970Y-112732931D01*
X107118875Y-112709121D01*
X107118875Y-112661502D01*
X107106970Y-112637693D01*
X107095065Y-112625788D01*
X107071256Y-112613883D01*
X107011732Y-112613883D01*
X106987922Y-112625788D01*
X106976018Y-112637693D01*
X106964113Y-112661502D01*
X106964113Y-112709121D01*
X106976018Y-112732931D01*
X106987922Y-112744836D01*
X107011732Y-112756740D01*
X106066365Y-118624734D02*
X106078270Y-118636639D01*
X106090175Y-118672353D01*
X106090175Y-118696162D01*
X106078270Y-118731877D01*
X106054460Y-118755686D01*
X106030651Y-118767591D01*
X105983032Y-118779496D01*
X105947318Y-118779496D01*
X105899699Y-118767591D01*
X105875889Y-118755686D01*
X105852080Y-118731877D01*
X105840175Y-118696162D01*
X105840175Y-118672353D01*
X105852080Y-118636639D01*
X105863984Y-118624734D01*
X105840175Y-118541400D02*
X105840175Y-118386639D01*
X105935413Y-118469972D01*
X105935413Y-118434258D01*
X105947318Y-118410448D01*
X105959222Y-118398543D01*
X105983032Y-118386639D01*
X106042556Y-118386639D01*
X106066365Y-118398543D01*
X106078270Y-118410448D01*
X106090175Y-118434258D01*
X106090175Y-118505686D01*
X106078270Y-118529496D01*
X106066365Y-118541400D01*
X105840175Y-118303305D02*
X105840175Y-118136639D01*
X106090175Y-118243781D01*
X111349565Y-114713134D02*
X111361470Y-114725039D01*
X111373375Y-114760753D01*
X111373375Y-114784562D01*
X111361470Y-114820277D01*
X111337660Y-114844086D01*
X111313851Y-114855991D01*
X111266232Y-114867896D01*
X111230518Y-114867896D01*
X111182899Y-114855991D01*
X111159089Y-114844086D01*
X111135280Y-114820277D01*
X111123375Y-114784562D01*
X111123375Y-114760753D01*
X111135280Y-114725039D01*
X111147184Y-114713134D01*
X111123375Y-114629800D02*
X111123375Y-114475039D01*
X111218613Y-114558372D01*
X111218613Y-114522658D01*
X111230518Y-114498848D01*
X111242422Y-114486943D01*
X111266232Y-114475039D01*
X111325756Y-114475039D01*
X111349565Y-114486943D01*
X111361470Y-114498848D01*
X111373375Y-114522658D01*
X111373375Y-114594086D01*
X111361470Y-114617896D01*
X111349565Y-114629800D01*
X111230518Y-114332181D02*
X111218613Y-114355991D01*
X111206708Y-114367896D01*
X111182899Y-114379800D01*
X111170994Y-114379800D01*
X111147184Y-114367896D01*
X111135280Y-114355991D01*
X111123375Y-114332181D01*
X111123375Y-114284562D01*
X111135280Y-114260753D01*
X111147184Y-114248848D01*
X111170994Y-114236943D01*
X111182899Y-114236943D01*
X111206708Y-114248848D01*
X111218613Y-114260753D01*
X111230518Y-114284562D01*
X111230518Y-114332181D01*
X111242422Y-114355991D01*
X111254327Y-114367896D01*
X111278137Y-114379800D01*
X111325756Y-114379800D01*
X111349565Y-114367896D01*
X111361470Y-114355991D01*
X111373375Y-114332181D01*
X111373375Y-114284562D01*
X111361470Y-114260753D01*
X111349565Y-114248848D01*
X111325756Y-114236943D01*
X111278137Y-114236943D01*
X111254327Y-114248848D01*
X111242422Y-114260753D01*
X111230518Y-114284562D01*
X103235725Y-72452305D02*
X103223820Y-72464210D01*
X103188106Y-72476115D01*
X103164297Y-72476115D01*
X103128582Y-72464210D01*
X103104773Y-72440400D01*
X103092868Y-72416591D01*
X103080963Y-72368972D01*
X103080963Y-72333258D01*
X103092868Y-72285639D01*
X103104773Y-72261829D01*
X103128582Y-72238020D01*
X103164297Y-72226115D01*
X103188106Y-72226115D01*
X103223820Y-72238020D01*
X103235725Y-72249924D01*
X103319059Y-72226115D02*
X103473820Y-72226115D01*
X103390487Y-72321353D01*
X103426201Y-72321353D01*
X103450011Y-72333258D01*
X103461916Y-72345162D01*
X103473820Y-72368972D01*
X103473820Y-72428496D01*
X103461916Y-72452305D01*
X103450011Y-72464210D01*
X103426201Y-72476115D01*
X103354773Y-72476115D01*
X103330963Y-72464210D01*
X103319059Y-72452305D01*
X103592868Y-72476115D02*
X103640487Y-72476115D01*
X103664297Y-72464210D01*
X103676201Y-72452305D01*
X103700011Y-72416591D01*
X103711916Y-72368972D01*
X103711916Y-72273734D01*
X103700011Y-72249924D01*
X103688106Y-72238020D01*
X103664297Y-72226115D01*
X103616678Y-72226115D01*
X103592868Y-72238020D01*
X103580963Y-72249924D01*
X103569059Y-72273734D01*
X103569059Y-72333258D01*
X103580963Y-72357067D01*
X103592868Y-72368972D01*
X103616678Y-72380877D01*
X103664297Y-72380877D01*
X103688106Y-72368972D01*
X103700011Y-72357067D01*
X103711916Y-72333258D01*
X106945205Y-118634894D02*
X106957110Y-118646799D01*
X106969015Y-118682513D01*
X106969015Y-118706322D01*
X106957110Y-118742037D01*
X106933300Y-118765846D01*
X106909491Y-118777751D01*
X106861872Y-118789656D01*
X106826158Y-118789656D01*
X106778539Y-118777751D01*
X106754729Y-118765846D01*
X106730920Y-118742037D01*
X106719015Y-118706322D01*
X106719015Y-118682513D01*
X106730920Y-118646799D01*
X106742824Y-118634894D01*
X106802348Y-118420608D02*
X106969015Y-118420608D01*
X106707110Y-118480132D02*
X106885681Y-118539656D01*
X106885681Y-118384894D01*
X106719015Y-118242037D02*
X106719015Y-118218227D01*
X106730920Y-118194418D01*
X106742824Y-118182513D01*
X106766634Y-118170608D01*
X106814253Y-118158703D01*
X106873777Y-118158703D01*
X106921396Y-118170608D01*
X106945205Y-118182513D01*
X106957110Y-118194418D01*
X106969015Y-118218227D01*
X106969015Y-118242037D01*
X106957110Y-118265846D01*
X106945205Y-118277751D01*
X106921396Y-118289656D01*
X106873777Y-118301560D01*
X106814253Y-118301560D01*
X106766634Y-118289656D01*
X106742824Y-118277751D01*
X106730920Y-118265846D01*
X106719015Y-118242037D01*
X112505265Y-114708054D02*
X112517170Y-114719959D01*
X112529075Y-114755673D01*
X112529075Y-114779482D01*
X112517170Y-114815197D01*
X112493360Y-114839006D01*
X112469551Y-114850911D01*
X112421932Y-114862816D01*
X112386218Y-114862816D01*
X112338599Y-114850911D01*
X112314789Y-114839006D01*
X112290980Y-114815197D01*
X112279075Y-114779482D01*
X112279075Y-114755673D01*
X112290980Y-114719959D01*
X112302884Y-114708054D01*
X112362408Y-114493768D02*
X112529075Y-114493768D01*
X112267170Y-114553292D02*
X112445741Y-114612816D01*
X112445741Y-114458054D01*
X112529075Y-114231863D02*
X112529075Y-114374720D01*
X112529075Y-114303292D02*
X112279075Y-114303292D01*
X112314789Y-114327101D01*
X112338599Y-114350911D01*
X112350503Y-114374720D01*
X111390205Y-113011334D02*
X111402110Y-113023239D01*
X111414015Y-113058953D01*
X111414015Y-113082762D01*
X111402110Y-113118477D01*
X111378300Y-113142286D01*
X111354491Y-113154191D01*
X111306872Y-113166096D01*
X111271158Y-113166096D01*
X111223539Y-113154191D01*
X111199729Y-113142286D01*
X111175920Y-113118477D01*
X111164015Y-113082762D01*
X111164015Y-113058953D01*
X111175920Y-113023239D01*
X111187824Y-113011334D01*
X111247348Y-112797048D02*
X111414015Y-112797048D01*
X111152110Y-112856572D02*
X111330681Y-112916096D01*
X111330681Y-112761334D01*
X111187824Y-112678000D02*
X111175920Y-112666096D01*
X111164015Y-112642286D01*
X111164015Y-112582762D01*
X111175920Y-112558953D01*
X111187824Y-112547048D01*
X111211634Y-112535143D01*
X111235443Y-112535143D01*
X111271158Y-112547048D01*
X111414015Y-112689905D01*
X111414015Y-112535143D01*
X112464625Y-113013514D02*
X112476530Y-113025419D01*
X112488435Y-113061133D01*
X112488435Y-113084942D01*
X112476530Y-113120657D01*
X112452720Y-113144466D01*
X112428911Y-113156371D01*
X112381292Y-113168276D01*
X112345578Y-113168276D01*
X112297959Y-113156371D01*
X112274149Y-113144466D01*
X112250340Y-113120657D01*
X112238435Y-113084942D01*
X112238435Y-113061133D01*
X112250340Y-113025419D01*
X112262244Y-113013514D01*
X112321768Y-112799228D02*
X112488435Y-112799228D01*
X112226530Y-112858752D02*
X112405101Y-112918276D01*
X112405101Y-112763514D01*
X112238435Y-112692085D02*
X112238435Y-112537323D01*
X112333673Y-112620657D01*
X112333673Y-112584942D01*
X112345578Y-112561133D01*
X112357482Y-112549228D01*
X112381292Y-112537323D01*
X112440816Y-112537323D01*
X112464625Y-112549228D01*
X112476530Y-112561133D01*
X112488435Y-112584942D01*
X112488435Y-112656371D01*
X112476530Y-112680180D01*
X112464625Y-112692085D01*
X101938865Y-111606714D02*
X101950770Y-111618619D01*
X101962675Y-111654333D01*
X101962675Y-111678142D01*
X101950770Y-111713857D01*
X101926960Y-111737666D01*
X101903151Y-111749571D01*
X101855532Y-111761476D01*
X101819818Y-111761476D01*
X101772199Y-111749571D01*
X101748389Y-111737666D01*
X101724580Y-111713857D01*
X101712675Y-111678142D01*
X101712675Y-111654333D01*
X101724580Y-111618619D01*
X101736484Y-111606714D01*
X101796008Y-111392428D02*
X101962675Y-111392428D01*
X101700770Y-111451952D02*
X101879341Y-111511476D01*
X101879341Y-111356714D01*
X101796008Y-111154333D02*
X101962675Y-111154333D01*
X101700770Y-111213857D02*
X101879341Y-111273380D01*
X101879341Y-111118619D01*
X103954545Y-78251125D02*
X103942640Y-78263030D01*
X103906926Y-78274935D01*
X103883117Y-78274935D01*
X103847402Y-78263030D01*
X103823593Y-78239220D01*
X103811688Y-78215411D01*
X103799783Y-78167792D01*
X103799783Y-78132078D01*
X103811688Y-78084459D01*
X103823593Y-78060649D01*
X103847402Y-78036840D01*
X103883117Y-78024935D01*
X103906926Y-78024935D01*
X103942640Y-78036840D01*
X103954545Y-78048744D01*
X104168831Y-78108268D02*
X104168831Y-78274935D01*
X104109307Y-78013030D02*
X104049783Y-78191601D01*
X104204545Y-78191601D01*
X104418831Y-78024935D02*
X104299783Y-78024935D01*
X104287879Y-78143982D01*
X104299783Y-78132078D01*
X104323593Y-78120173D01*
X104383117Y-78120173D01*
X104406926Y-78132078D01*
X104418831Y-78143982D01*
X104430736Y-78167792D01*
X104430736Y-78227316D01*
X104418831Y-78251125D01*
X104406926Y-78263030D01*
X104383117Y-78274935D01*
X104323593Y-78274935D01*
X104299783Y-78263030D01*
X104287879Y-78251125D01*
X104235025Y-111560994D02*
X104246930Y-111572899D01*
X104258835Y-111608613D01*
X104258835Y-111632422D01*
X104246930Y-111668137D01*
X104223120Y-111691946D01*
X104199311Y-111703851D01*
X104151692Y-111715756D01*
X104115978Y-111715756D01*
X104068359Y-111703851D01*
X104044549Y-111691946D01*
X104020740Y-111668137D01*
X104008835Y-111632422D01*
X104008835Y-111608613D01*
X104020740Y-111572899D01*
X104032644Y-111560994D01*
X104092168Y-111346708D02*
X104258835Y-111346708D01*
X103996930Y-111406232D02*
X104175501Y-111465756D01*
X104175501Y-111310994D01*
X104008835Y-111108613D02*
X104008835Y-111156232D01*
X104020740Y-111180041D01*
X104032644Y-111191946D01*
X104068359Y-111215756D01*
X104115978Y-111227660D01*
X104211216Y-111227660D01*
X104235025Y-111215756D01*
X104246930Y-111203851D01*
X104258835Y-111180041D01*
X104258835Y-111132422D01*
X104246930Y-111108613D01*
X104235025Y-111096708D01*
X104211216Y-111084803D01*
X104151692Y-111084803D01*
X104127882Y-111096708D01*
X104115978Y-111108613D01*
X104104073Y-111132422D01*
X104104073Y-111180041D01*
X104115978Y-111203851D01*
X104127882Y-111215756D01*
X104151692Y-111227660D01*
X110657605Y-69526225D02*
X110645700Y-69538130D01*
X110609986Y-69550035D01*
X110586177Y-69550035D01*
X110550462Y-69538130D01*
X110526653Y-69514320D01*
X110514748Y-69490511D01*
X110502843Y-69442892D01*
X110502843Y-69407178D01*
X110514748Y-69359559D01*
X110526653Y-69335749D01*
X110550462Y-69311940D01*
X110586177Y-69300035D01*
X110609986Y-69300035D01*
X110645700Y-69311940D01*
X110657605Y-69323844D01*
X110871891Y-69383368D02*
X110871891Y-69550035D01*
X110812367Y-69288130D02*
X110752843Y-69466701D01*
X110907605Y-69466701D01*
X110979034Y-69300035D02*
X111145700Y-69300035D01*
X111038558Y-69550035D01*
X110677925Y-72452305D02*
X110666020Y-72464210D01*
X110630306Y-72476115D01*
X110606497Y-72476115D01*
X110570782Y-72464210D01*
X110546973Y-72440400D01*
X110535068Y-72416591D01*
X110523163Y-72368972D01*
X110523163Y-72333258D01*
X110535068Y-72285639D01*
X110546973Y-72261829D01*
X110570782Y-72238020D01*
X110606497Y-72226115D01*
X110630306Y-72226115D01*
X110666020Y-72238020D01*
X110677925Y-72249924D01*
X110892211Y-72309448D02*
X110892211Y-72476115D01*
X110832687Y-72214210D02*
X110773163Y-72392781D01*
X110927925Y-72392781D01*
X111058878Y-72333258D02*
X111035068Y-72321353D01*
X111023163Y-72309448D01*
X111011259Y-72285639D01*
X111011259Y-72273734D01*
X111023163Y-72249924D01*
X111035068Y-72238020D01*
X111058878Y-72226115D01*
X111106497Y-72226115D01*
X111130306Y-72238020D01*
X111142211Y-72249924D01*
X111154116Y-72273734D01*
X111154116Y-72285639D01*
X111142211Y-72309448D01*
X111130306Y-72321353D01*
X111106497Y-72333258D01*
X111058878Y-72333258D01*
X111035068Y-72345162D01*
X111023163Y-72357067D01*
X111011259Y-72380877D01*
X111011259Y-72428496D01*
X111023163Y-72452305D01*
X111035068Y-72464210D01*
X111058878Y-72476115D01*
X111106497Y-72476115D01*
X111130306Y-72464210D01*
X111142211Y-72452305D01*
X111154116Y-72428496D01*
X111154116Y-72380877D01*
X111142211Y-72357067D01*
X111130306Y-72345162D01*
X111106497Y-72333258D01*
X106488005Y-115482754D02*
X106499910Y-115494659D01*
X106511815Y-115530373D01*
X106511815Y-115554182D01*
X106499910Y-115589897D01*
X106476100Y-115613706D01*
X106452291Y-115625611D01*
X106404672Y-115637516D01*
X106368958Y-115637516D01*
X106321339Y-115625611D01*
X106297529Y-115613706D01*
X106273720Y-115589897D01*
X106261815Y-115554182D01*
X106261815Y-115530373D01*
X106273720Y-115494659D01*
X106285624Y-115482754D01*
X106345148Y-115268468D02*
X106511815Y-115268468D01*
X106249910Y-115327992D02*
X106428481Y-115387516D01*
X106428481Y-115232754D01*
X106511815Y-115125611D02*
X106511815Y-115077992D01*
X106499910Y-115054182D01*
X106488005Y-115042278D01*
X106452291Y-115018468D01*
X106404672Y-115006563D01*
X106309434Y-115006563D01*
X106285624Y-115018468D01*
X106273720Y-115030373D01*
X106261815Y-115054182D01*
X106261815Y-115101801D01*
X106273720Y-115125611D01*
X106285624Y-115137516D01*
X106309434Y-115149420D01*
X106368958Y-115149420D01*
X106392767Y-115137516D01*
X106404672Y-115125611D01*
X106416577Y-115101801D01*
X106416577Y-115054182D01*
X106404672Y-115030373D01*
X106392767Y-115018468D01*
X106368958Y-115006563D01*
X108174565Y-118655214D02*
X108186470Y-118667119D01*
X108198375Y-118702833D01*
X108198375Y-118726642D01*
X108186470Y-118762357D01*
X108162660Y-118786166D01*
X108138851Y-118798071D01*
X108091232Y-118809976D01*
X108055518Y-118809976D01*
X108007899Y-118798071D01*
X107984089Y-118786166D01*
X107960280Y-118762357D01*
X107948375Y-118726642D01*
X107948375Y-118702833D01*
X107960280Y-118667119D01*
X107972184Y-118655214D01*
X107948375Y-118429023D02*
X107948375Y-118548071D01*
X108067422Y-118559976D01*
X108055518Y-118548071D01*
X108043613Y-118524261D01*
X108043613Y-118464738D01*
X108055518Y-118440928D01*
X108067422Y-118429023D01*
X108091232Y-118417119D01*
X108150756Y-118417119D01*
X108174565Y-118429023D01*
X108186470Y-118440928D01*
X108198375Y-118464738D01*
X108198375Y-118524261D01*
X108186470Y-118548071D01*
X108174565Y-118559976D01*
X107948375Y-118262357D02*
X107948375Y-118238547D01*
X107960280Y-118214738D01*
X107972184Y-118202833D01*
X107995994Y-118190928D01*
X108043613Y-118179023D01*
X108103137Y-118179023D01*
X108150756Y-118190928D01*
X108174565Y-118202833D01*
X108186470Y-118214738D01*
X108198375Y-118238547D01*
X108198375Y-118262357D01*
X108186470Y-118286166D01*
X108174565Y-118298071D01*
X108150756Y-118309976D01*
X108103137Y-118321880D01*
X108043613Y-118321880D01*
X107995994Y-118309976D01*
X107972184Y-118298071D01*
X107960280Y-118286166D01*
X107948375Y-118262357D01*
X110009905Y-78149525D02*
X109998000Y-78161430D01*
X109962286Y-78173335D01*
X109938477Y-78173335D01*
X109902762Y-78161430D01*
X109878953Y-78137620D01*
X109867048Y-78113811D01*
X109855143Y-78066192D01*
X109855143Y-78030478D01*
X109867048Y-77982859D01*
X109878953Y-77959049D01*
X109902762Y-77935240D01*
X109938477Y-77923335D01*
X109962286Y-77923335D01*
X109998000Y-77935240D01*
X110009905Y-77947144D01*
X110236096Y-77923335D02*
X110117048Y-77923335D01*
X110105143Y-78042382D01*
X110117048Y-78030478D01*
X110140858Y-78018573D01*
X110200381Y-78018573D01*
X110224191Y-78030478D01*
X110236096Y-78042382D01*
X110248000Y-78066192D01*
X110248000Y-78125716D01*
X110236096Y-78149525D01*
X110224191Y-78161430D01*
X110200381Y-78173335D01*
X110140858Y-78173335D01*
X110117048Y-78161430D01*
X110105143Y-78149525D01*
X110486096Y-78173335D02*
X110343239Y-78173335D01*
X110414667Y-78173335D02*
X110414667Y-77923335D01*
X110390858Y-77959049D01*
X110367048Y-77982859D01*
X110343239Y-77994763D01*
X103235725Y-70806385D02*
X103223820Y-70818290D01*
X103188106Y-70830195D01*
X103164297Y-70830195D01*
X103128582Y-70818290D01*
X103104773Y-70794480D01*
X103092868Y-70770671D01*
X103080963Y-70723052D01*
X103080963Y-70687338D01*
X103092868Y-70639719D01*
X103104773Y-70615909D01*
X103128582Y-70592100D01*
X103164297Y-70580195D01*
X103188106Y-70580195D01*
X103223820Y-70592100D01*
X103235725Y-70604004D01*
X103461916Y-70580195D02*
X103342868Y-70580195D01*
X103330963Y-70699242D01*
X103342868Y-70687338D01*
X103366678Y-70675433D01*
X103426201Y-70675433D01*
X103450011Y-70687338D01*
X103461916Y-70699242D01*
X103473820Y-70723052D01*
X103473820Y-70782576D01*
X103461916Y-70806385D01*
X103450011Y-70818290D01*
X103426201Y-70830195D01*
X103366678Y-70830195D01*
X103342868Y-70818290D01*
X103330963Y-70806385D01*
X103569059Y-70604004D02*
X103580963Y-70592100D01*
X103604773Y-70580195D01*
X103664297Y-70580195D01*
X103688106Y-70592100D01*
X103700011Y-70604004D01*
X103711916Y-70627814D01*
X103711916Y-70651623D01*
X103700011Y-70687338D01*
X103557154Y-70830195D01*
X103711916Y-70830195D01*
X109017845Y-113067214D02*
X109029750Y-113079119D01*
X109041655Y-113114833D01*
X109041655Y-113138642D01*
X109029750Y-113174357D01*
X109005940Y-113198166D01*
X108982131Y-113210071D01*
X108934512Y-113221976D01*
X108898798Y-113221976D01*
X108851179Y-113210071D01*
X108827369Y-113198166D01*
X108803560Y-113174357D01*
X108791655Y-113138642D01*
X108791655Y-113114833D01*
X108803560Y-113079119D01*
X108815464Y-113067214D01*
X108791655Y-112841023D02*
X108791655Y-112960071D01*
X108910702Y-112971976D01*
X108898798Y-112960071D01*
X108886893Y-112936261D01*
X108886893Y-112876738D01*
X108898798Y-112852928D01*
X108910702Y-112841023D01*
X108934512Y-112829119D01*
X108994036Y-112829119D01*
X109017845Y-112841023D01*
X109029750Y-112852928D01*
X109041655Y-112876738D01*
X109041655Y-112936261D01*
X109029750Y-112960071D01*
X109017845Y-112971976D01*
X108874988Y-112614833D02*
X109041655Y-112614833D01*
X108779750Y-112674357D02*
X108958321Y-112733880D01*
X108958321Y-112579119D01*
X104941145Y-118617114D02*
X104953050Y-118629019D01*
X104964955Y-118664733D01*
X104964955Y-118688542D01*
X104953050Y-118724257D01*
X104929240Y-118748066D01*
X104905431Y-118759971D01*
X104857812Y-118771876D01*
X104822098Y-118771876D01*
X104774479Y-118759971D01*
X104750669Y-118748066D01*
X104726860Y-118724257D01*
X104714955Y-118688542D01*
X104714955Y-118664733D01*
X104726860Y-118629019D01*
X104738764Y-118617114D01*
X104714955Y-118390923D02*
X104714955Y-118509971D01*
X104834002Y-118521876D01*
X104822098Y-118509971D01*
X104810193Y-118486161D01*
X104810193Y-118426638D01*
X104822098Y-118402828D01*
X104834002Y-118390923D01*
X104857812Y-118379019D01*
X104917336Y-118379019D01*
X104941145Y-118390923D01*
X104953050Y-118402828D01*
X104964955Y-118426638D01*
X104964955Y-118486161D01*
X104953050Y-118509971D01*
X104941145Y-118521876D01*
X104714955Y-118152828D02*
X104714955Y-118271876D01*
X104834002Y-118283780D01*
X104822098Y-118271876D01*
X104810193Y-118248066D01*
X104810193Y-118188542D01*
X104822098Y-118164733D01*
X104834002Y-118152828D01*
X104857812Y-118140923D01*
X104917336Y-118140923D01*
X104941145Y-118152828D01*
X104953050Y-118164733D01*
X104964955Y-118188542D01*
X104964955Y-118248066D01*
X104953050Y-118271876D01*
X104941145Y-118283780D01*
X126651036Y-87982815D02*
X126651036Y-87732815D01*
X126710560Y-87732815D01*
X126746274Y-87744720D01*
X126770083Y-87768529D01*
X126781988Y-87792339D01*
X126793893Y-87839958D01*
X126793893Y-87875672D01*
X126781988Y-87923291D01*
X126770083Y-87947100D01*
X126746274Y-87970910D01*
X126710560Y-87982815D01*
X126651036Y-87982815D01*
X127031988Y-87982815D02*
X126889131Y-87982815D01*
X126960560Y-87982815D02*
X126960560Y-87732815D01*
X126936750Y-87768529D01*
X126912940Y-87792339D01*
X126889131Y-87804243D01*
X112422395Y-110916783D02*
X112172395Y-110916783D01*
X112172395Y-110857260D01*
X112184300Y-110821545D01*
X112208109Y-110797736D01*
X112231919Y-110785831D01*
X112279538Y-110773926D01*
X112315252Y-110773926D01*
X112362871Y-110785831D01*
X112386680Y-110797736D01*
X112410490Y-110821545D01*
X112422395Y-110857260D01*
X112422395Y-110916783D01*
X112196204Y-110678688D02*
X112184300Y-110666783D01*
X112172395Y-110642974D01*
X112172395Y-110583450D01*
X112184300Y-110559640D01*
X112196204Y-110547736D01*
X112220014Y-110535831D01*
X112243823Y-110535831D01*
X112279538Y-110547736D01*
X112422395Y-110690593D01*
X112422395Y-110535831D01*
X99685755Y-88957795D02*
X99864326Y-88957795D01*
X99900040Y-88969700D01*
X99923850Y-88993509D01*
X99935755Y-89029223D01*
X99935755Y-89053033D01*
X99959564Y-88898271D02*
X99959564Y-88707795D01*
X99923850Y-88541128D02*
X99935755Y-88564938D01*
X99935755Y-88612557D01*
X99923850Y-88636366D01*
X99911945Y-88648271D01*
X99888136Y-88660176D01*
X99816707Y-88660176D01*
X99792898Y-88648271D01*
X99780993Y-88636366D01*
X99769088Y-88612557D01*
X99769088Y-88564938D01*
X99780993Y-88541128D01*
X99935755Y-88398271D02*
X99923850Y-88422080D01*
X99911945Y-88433985D01*
X99888136Y-88445890D01*
X99816707Y-88445890D01*
X99792898Y-88433985D01*
X99780993Y-88422080D01*
X99769088Y-88398271D01*
X99769088Y-88362557D01*
X99780993Y-88338747D01*
X99792898Y-88326842D01*
X99816707Y-88314938D01*
X99888136Y-88314938D01*
X99911945Y-88326842D01*
X99923850Y-88338747D01*
X99935755Y-88362557D01*
X99935755Y-88398271D01*
X99935755Y-88100652D02*
X99804802Y-88100652D01*
X99780993Y-88112557D01*
X99769088Y-88136366D01*
X99769088Y-88183985D01*
X99780993Y-88207795D01*
X99923850Y-88100652D02*
X99935755Y-88124461D01*
X99935755Y-88183985D01*
X99923850Y-88207795D01*
X99900040Y-88219700D01*
X99876231Y-88219700D01*
X99852421Y-88207795D01*
X99840517Y-88183985D01*
X99840517Y-88124461D01*
X99828612Y-88100652D01*
X99935755Y-88005414D02*
X99769088Y-87874461D01*
X99769088Y-88005414D02*
X99935755Y-87874461D01*
X99935755Y-87648271D02*
X99935755Y-87791128D01*
X99935755Y-87719700D02*
X99685755Y-87719700D01*
X99721469Y-87743509D01*
X99745279Y-87767319D01*
X99757183Y-87791128D01*
X99657815Y-91475119D02*
X99836386Y-91475119D01*
X99872100Y-91487023D01*
X99895910Y-91510833D01*
X99907815Y-91546547D01*
X99907815Y-91570357D01*
X99931624Y-91415595D02*
X99931624Y-91225119D01*
X99895910Y-91058452D02*
X99907815Y-91082261D01*
X99907815Y-91129880D01*
X99895910Y-91153690D01*
X99884005Y-91165595D01*
X99860196Y-91177500D01*
X99788767Y-91177500D01*
X99764958Y-91165595D01*
X99753053Y-91153690D01*
X99741148Y-91129880D01*
X99741148Y-91082261D01*
X99753053Y-91058452D01*
X99907815Y-90915595D02*
X99895910Y-90939404D01*
X99884005Y-90951309D01*
X99860196Y-90963214D01*
X99788767Y-90963214D01*
X99764958Y-90951309D01*
X99753053Y-90939404D01*
X99741148Y-90915595D01*
X99741148Y-90879880D01*
X99753053Y-90856071D01*
X99764958Y-90844166D01*
X99788767Y-90832261D01*
X99860196Y-90832261D01*
X99884005Y-90844166D01*
X99895910Y-90856071D01*
X99907815Y-90879880D01*
X99907815Y-90915595D01*
X99907815Y-90617976D02*
X99776862Y-90617976D01*
X99753053Y-90629880D01*
X99741148Y-90653690D01*
X99741148Y-90701309D01*
X99753053Y-90725119D01*
X99895910Y-90617976D02*
X99907815Y-90641785D01*
X99907815Y-90701309D01*
X99895910Y-90725119D01*
X99872100Y-90737023D01*
X99848291Y-90737023D01*
X99824481Y-90725119D01*
X99812577Y-90701309D01*
X99812577Y-90641785D01*
X99800672Y-90617976D01*
X99907815Y-90522738D02*
X99741148Y-90391785D01*
X99741148Y-90522738D02*
X99907815Y-90391785D01*
X99931624Y-90356071D02*
X99931624Y-90165595D01*
X99741148Y-89998928D02*
X99943529Y-89998928D01*
X99967339Y-90010833D01*
X99979243Y-90022738D01*
X99991148Y-90046547D01*
X99991148Y-90082261D01*
X99979243Y-90106071D01*
X99895910Y-89998928D02*
X99907815Y-90022738D01*
X99907815Y-90070357D01*
X99895910Y-90094166D01*
X99884005Y-90106071D01*
X99860196Y-90117976D01*
X99788767Y-90117976D01*
X99764958Y-90106071D01*
X99753053Y-90094166D01*
X99741148Y-90070357D01*
X99741148Y-90022738D01*
X99753053Y-89998928D01*
X99741148Y-89879880D02*
X99907815Y-89879880D01*
X99764958Y-89879880D02*
X99753053Y-89867976D01*
X99741148Y-89844166D01*
X99741148Y-89808452D01*
X99753053Y-89784642D01*
X99776862Y-89772738D01*
X99907815Y-89772738D01*
X99907815Y-89546547D02*
X99657815Y-89546547D01*
X99895910Y-89546547D02*
X99907815Y-89570357D01*
X99907815Y-89617976D01*
X99895910Y-89641785D01*
X99884005Y-89653690D01*
X99860196Y-89665595D01*
X99788767Y-89665595D01*
X99764958Y-89653690D01*
X99753053Y-89641785D01*
X99741148Y-89617976D01*
X99741148Y-89570357D01*
X99753053Y-89546547D01*
X99907815Y-89296547D02*
X99907815Y-89439404D01*
X99907815Y-89367976D02*
X99657815Y-89367976D01*
X99693529Y-89391785D01*
X99717339Y-89415595D01*
X99729243Y-89439404D01*
X124634715Y-90710466D02*
X124634715Y-90829514D01*
X124384715Y-90829514D01*
X124634715Y-90496180D02*
X124634715Y-90639038D01*
X124634715Y-90567609D02*
X124384715Y-90567609D01*
X124420429Y-90591419D01*
X124444239Y-90615228D01*
X124456143Y-90639038D01*
X124977615Y-92534186D02*
X124858567Y-92617520D01*
X124977615Y-92677043D02*
X124727615Y-92677043D01*
X124727615Y-92581805D01*
X124739520Y-92557996D01*
X124751424Y-92546091D01*
X124775234Y-92534186D01*
X124810948Y-92534186D01*
X124834758Y-92546091D01*
X124846662Y-92557996D01*
X124858567Y-92581805D01*
X124858567Y-92677043D01*
X124977615Y-92296091D02*
X124977615Y-92438948D01*
X124977615Y-92367520D02*
X124727615Y-92367520D01*
X124763329Y-92391329D01*
X124787139Y-92415139D01*
X124799043Y-92438948D01*
X124995395Y-93697506D02*
X124876347Y-93780840D01*
X124995395Y-93840363D02*
X124745395Y-93840363D01*
X124745395Y-93745125D01*
X124757300Y-93721316D01*
X124769204Y-93709411D01*
X124793014Y-93697506D01*
X124828728Y-93697506D01*
X124852538Y-93709411D01*
X124864442Y-93721316D01*
X124876347Y-93745125D01*
X124876347Y-93840363D01*
X124769204Y-93602268D02*
X124757300Y-93590363D01*
X124745395Y-93566554D01*
X124745395Y-93507030D01*
X124757300Y-93483220D01*
X124769204Y-93471316D01*
X124793014Y-93459411D01*
X124816823Y-93459411D01*
X124852538Y-93471316D01*
X124995395Y-93614173D01*
X124995395Y-93459411D01*
X111388615Y-116440334D02*
X111269567Y-116523667D01*
X111388615Y-116583191D02*
X111138615Y-116583191D01*
X111138615Y-116487953D01*
X111150520Y-116464143D01*
X111162424Y-116452239D01*
X111186234Y-116440334D01*
X111221948Y-116440334D01*
X111245758Y-116452239D01*
X111257662Y-116464143D01*
X111269567Y-116487953D01*
X111269567Y-116583191D01*
X111388615Y-116202239D02*
X111388615Y-116345096D01*
X111388615Y-116273667D02*
X111138615Y-116273667D01*
X111174329Y-116297477D01*
X111198139Y-116321286D01*
X111210043Y-116345096D01*
X111162424Y-116107000D02*
X111150520Y-116095096D01*
X111138615Y-116071286D01*
X111138615Y-116011762D01*
X111150520Y-115987953D01*
X111162424Y-115976048D01*
X111186234Y-115964143D01*
X111210043Y-115964143D01*
X111245758Y-115976048D01*
X111388615Y-116118905D01*
X111388615Y-115964143D01*
X109041615Y-111304814D02*
X108922567Y-111388147D01*
X109041615Y-111447671D02*
X108791615Y-111447671D01*
X108791615Y-111352433D01*
X108803520Y-111328623D01*
X108815424Y-111316719D01*
X108839234Y-111304814D01*
X108874948Y-111304814D01*
X108898758Y-111316719D01*
X108910662Y-111328623D01*
X108922567Y-111352433D01*
X108922567Y-111447671D01*
X109041615Y-111066719D02*
X109041615Y-111209576D01*
X109041615Y-111138147D02*
X108791615Y-111138147D01*
X108827329Y-111161957D01*
X108851139Y-111185766D01*
X108863043Y-111209576D01*
X108791615Y-110983385D02*
X108791615Y-110828623D01*
X108886853Y-110911957D01*
X108886853Y-110876242D01*
X108898758Y-110852433D01*
X108910662Y-110840528D01*
X108934472Y-110828623D01*
X108993996Y-110828623D01*
X109017805Y-110840528D01*
X109029710Y-110852433D01*
X109041615Y-110876242D01*
X109041615Y-110947671D01*
X109029710Y-110971480D01*
X109017805Y-110983385D01*
X101952515Y-113308514D02*
X101833467Y-113391847D01*
X101952515Y-113451371D02*
X101702515Y-113451371D01*
X101702515Y-113356133D01*
X101714420Y-113332323D01*
X101726324Y-113320419D01*
X101750134Y-113308514D01*
X101785848Y-113308514D01*
X101809658Y-113320419D01*
X101821562Y-113332323D01*
X101833467Y-113356133D01*
X101833467Y-113451371D01*
X101952515Y-113070419D02*
X101952515Y-113213276D01*
X101952515Y-113141847D02*
X101702515Y-113141847D01*
X101738229Y-113165657D01*
X101762039Y-113189466D01*
X101773943Y-113213276D01*
X101702515Y-112987085D02*
X101702515Y-112820419D01*
X101952515Y-112927561D01*
X104437145Y-70830195D02*
X104353812Y-70711147D01*
X104294288Y-70830195D02*
X104294288Y-70580195D01*
X104389526Y-70580195D01*
X104413336Y-70592100D01*
X104425240Y-70604004D01*
X104437145Y-70627814D01*
X104437145Y-70663528D01*
X104425240Y-70687338D01*
X104413336Y-70699242D01*
X104389526Y-70711147D01*
X104294288Y-70711147D01*
X104675240Y-70830195D02*
X104532383Y-70830195D01*
X104603812Y-70830195D02*
X104603812Y-70580195D01*
X104580002Y-70615909D01*
X104556193Y-70639719D01*
X104532383Y-70651623D01*
X104818098Y-70687338D02*
X104794288Y-70675433D01*
X104782383Y-70663528D01*
X104770479Y-70639719D01*
X104770479Y-70627814D01*
X104782383Y-70604004D01*
X104794288Y-70592100D01*
X104818098Y-70580195D01*
X104865717Y-70580195D01*
X104889526Y-70592100D01*
X104901431Y-70604004D01*
X104913336Y-70627814D01*
X104913336Y-70639719D01*
X104901431Y-70663528D01*
X104889526Y-70675433D01*
X104865717Y-70687338D01*
X104818098Y-70687338D01*
X104794288Y-70699242D01*
X104782383Y-70711147D01*
X104770479Y-70734957D01*
X104770479Y-70782576D01*
X104782383Y-70806385D01*
X104794288Y-70818290D01*
X104818098Y-70830195D01*
X104865717Y-70830195D01*
X104889526Y-70818290D01*
X104901431Y-70806385D01*
X104913336Y-70782576D01*
X104913336Y-70734957D01*
X104901431Y-70711147D01*
X104889526Y-70699242D01*
X104865717Y-70687338D01*
X104437145Y-69550035D02*
X104353812Y-69430987D01*
X104294288Y-69550035D02*
X104294288Y-69300035D01*
X104389526Y-69300035D01*
X104413336Y-69311940D01*
X104425240Y-69323844D01*
X104437145Y-69347654D01*
X104437145Y-69383368D01*
X104425240Y-69407178D01*
X104413336Y-69419082D01*
X104389526Y-69430987D01*
X104294288Y-69430987D01*
X104675240Y-69550035D02*
X104532383Y-69550035D01*
X104603812Y-69550035D02*
X104603812Y-69300035D01*
X104580002Y-69335749D01*
X104556193Y-69359559D01*
X104532383Y-69371463D01*
X104794288Y-69550035D02*
X104841907Y-69550035D01*
X104865717Y-69538130D01*
X104877621Y-69526225D01*
X104901431Y-69490511D01*
X104913336Y-69442892D01*
X104913336Y-69347654D01*
X104901431Y-69323844D01*
X104889526Y-69311940D01*
X104865717Y-69300035D01*
X104818098Y-69300035D01*
X104794288Y-69311940D01*
X104782383Y-69323844D01*
X104770479Y-69347654D01*
X104770479Y-69407178D01*
X104782383Y-69430987D01*
X104794288Y-69442892D01*
X104818098Y-69454797D01*
X104865717Y-69454797D01*
X104889526Y-69442892D01*
X104901431Y-69430987D01*
X104913336Y-69407178D01*
X103235725Y-69550035D02*
X103152392Y-69430987D01*
X103092868Y-69550035D02*
X103092868Y-69300035D01*
X103188106Y-69300035D01*
X103211916Y-69311940D01*
X103223820Y-69323844D01*
X103235725Y-69347654D01*
X103235725Y-69383368D01*
X103223820Y-69407178D01*
X103211916Y-69419082D01*
X103188106Y-69430987D01*
X103092868Y-69430987D01*
X103330963Y-69323844D02*
X103342868Y-69311940D01*
X103366678Y-69300035D01*
X103426201Y-69300035D01*
X103450011Y-69311940D01*
X103461916Y-69323844D01*
X103473820Y-69347654D01*
X103473820Y-69371463D01*
X103461916Y-69407178D01*
X103319059Y-69550035D01*
X103473820Y-69550035D01*
X103628582Y-69300035D02*
X103652392Y-69300035D01*
X103676201Y-69311940D01*
X103688106Y-69323844D01*
X103700011Y-69347654D01*
X103711916Y-69395273D01*
X103711916Y-69454797D01*
X103700011Y-69502416D01*
X103688106Y-69526225D01*
X103676201Y-69538130D01*
X103652392Y-69550035D01*
X103628582Y-69550035D01*
X103604773Y-69538130D01*
X103592868Y-69526225D01*
X103580963Y-69502416D01*
X103569059Y-69454797D01*
X103569059Y-69395273D01*
X103580963Y-69347654D01*
X103592868Y-69323844D01*
X103604773Y-69311940D01*
X103628582Y-69300035D01*
X109400305Y-69550035D02*
X109316972Y-69430987D01*
X109257448Y-69550035D02*
X109257448Y-69300035D01*
X109352686Y-69300035D01*
X109376496Y-69311940D01*
X109388400Y-69323844D01*
X109400305Y-69347654D01*
X109400305Y-69383368D01*
X109388400Y-69407178D01*
X109376496Y-69419082D01*
X109352686Y-69430987D01*
X109257448Y-69430987D01*
X109495543Y-69323844D02*
X109507448Y-69311940D01*
X109531258Y-69300035D01*
X109590781Y-69300035D01*
X109614591Y-69311940D01*
X109626496Y-69323844D01*
X109638400Y-69347654D01*
X109638400Y-69371463D01*
X109626496Y-69407178D01*
X109483639Y-69550035D01*
X109638400Y-69550035D01*
X109876496Y-69550035D02*
X109733639Y-69550035D01*
X109805067Y-69550035D02*
X109805067Y-69300035D01*
X109781258Y-69335749D01*
X109757448Y-69359559D01*
X109733639Y-69371463D01*
X109385065Y-70830195D02*
X109301732Y-70711147D01*
X109242208Y-70830195D02*
X109242208Y-70580195D01*
X109337446Y-70580195D01*
X109361256Y-70592100D01*
X109373160Y-70604004D01*
X109385065Y-70627814D01*
X109385065Y-70663528D01*
X109373160Y-70687338D01*
X109361256Y-70699242D01*
X109337446Y-70711147D01*
X109242208Y-70711147D01*
X109480303Y-70604004D02*
X109492208Y-70592100D01*
X109516018Y-70580195D01*
X109575541Y-70580195D01*
X109599351Y-70592100D01*
X109611256Y-70604004D01*
X109623160Y-70627814D01*
X109623160Y-70651623D01*
X109611256Y-70687338D01*
X109468399Y-70830195D01*
X109623160Y-70830195D01*
X109718399Y-70604004D02*
X109730303Y-70592100D01*
X109754113Y-70580195D01*
X109813637Y-70580195D01*
X109837446Y-70592100D01*
X109849351Y-70604004D01*
X109861256Y-70627814D01*
X109861256Y-70651623D01*
X109849351Y-70687338D01*
X109706494Y-70830195D01*
X109861256Y-70830195D01*
X102578815Y-74605816D02*
X102781196Y-74605816D01*
X102805005Y-74593911D01*
X102816910Y-74582006D01*
X102828815Y-74558197D01*
X102828815Y-74510578D01*
X102816910Y-74486768D01*
X102805005Y-74474863D01*
X102781196Y-74462959D01*
X102578815Y-74462959D01*
X102578815Y-74224863D02*
X102578815Y-74343911D01*
X102697862Y-74355816D01*
X102685958Y-74343911D01*
X102674053Y-74320101D01*
X102674053Y-74260578D01*
X102685958Y-74236768D01*
X102697862Y-74224863D01*
X102721672Y-74212959D01*
X102781196Y-74212959D01*
X102805005Y-74224863D01*
X102816910Y-74236768D01*
X102828815Y-74260578D01*
X102828815Y-74320101D01*
X102816910Y-74343911D01*
X102805005Y-74355816D01*
X111603435Y-74646456D02*
X111805816Y-74646456D01*
X111829625Y-74634551D01*
X111841530Y-74622646D01*
X111853435Y-74598837D01*
X111853435Y-74551218D01*
X111841530Y-74527408D01*
X111829625Y-74515503D01*
X111805816Y-74503599D01*
X111603435Y-74503599D01*
X111603435Y-74408360D02*
X111603435Y-74241694D01*
X111853435Y-74348837D01*
X106947383Y-69300035D02*
X106947383Y-69502416D01*
X106959288Y-69526225D01*
X106971193Y-69538130D01*
X106995002Y-69550035D01*
X107042621Y-69550035D01*
X107066431Y-69538130D01*
X107078336Y-69526225D01*
X107090240Y-69502416D01*
X107090240Y-69300035D01*
X107245002Y-69407178D02*
X107221193Y-69395273D01*
X107209288Y-69383368D01*
X107197383Y-69359559D01*
X107197383Y-69347654D01*
X107209288Y-69323844D01*
X107221193Y-69311940D01*
X107245002Y-69300035D01*
X107292621Y-69300035D01*
X107316431Y-69311940D01*
X107328336Y-69323844D01*
X107340240Y-69347654D01*
X107340240Y-69359559D01*
X107328336Y-69383368D01*
X107316431Y-69395273D01*
X107292621Y-69407178D01*
X107245002Y-69407178D01*
X107221193Y-69419082D01*
X107209288Y-69430987D01*
X107197383Y-69454797D01*
X107197383Y-69502416D01*
X107209288Y-69526225D01*
X107221193Y-69538130D01*
X107245002Y-69550035D01*
X107292621Y-69550035D01*
X107316431Y-69538130D01*
X107328336Y-69526225D01*
X107340240Y-69502416D01*
X107340240Y-69454797D01*
X107328336Y-69430987D01*
X107316431Y-69419082D01*
X107292621Y-69407178D01*
X103046276Y-118916395D02*
X103046276Y-119118776D01*
X103058180Y-119142585D01*
X103070085Y-119154490D01*
X103093895Y-119166395D01*
X103141514Y-119166395D01*
X103165323Y-119154490D01*
X103177228Y-119142585D01*
X103189133Y-119118776D01*
X103189133Y-118916395D01*
X103439133Y-119166395D02*
X103296276Y-119166395D01*
X103367704Y-119166395D02*
X103367704Y-118916395D01*
X103343895Y-118952109D01*
X103320085Y-118975919D01*
X103296276Y-118987823D01*
X103593895Y-118916395D02*
X103617704Y-118916395D01*
X103641514Y-118928300D01*
X103653419Y-118940204D01*
X103665323Y-118964014D01*
X103677228Y-119011633D01*
X103677228Y-119071157D01*
X103665323Y-119118776D01*
X103653419Y-119142585D01*
X103641514Y-119154490D01*
X103617704Y-119166395D01*
X103593895Y-119166395D01*
X103570085Y-119154490D01*
X103558180Y-119142585D01*
X103546276Y-119118776D01*
X103534371Y-119071157D01*
X103534371Y-119011633D01*
X103546276Y-118964014D01*
X103558180Y-118940204D01*
X103570085Y-118928300D01*
X103593895Y-118916395D01*
X107601985Y-77736455D02*
X107518652Y-77617407D01*
X107459128Y-77736455D02*
X107459128Y-77486455D01*
X107554366Y-77486455D01*
X107578176Y-77498360D01*
X107590080Y-77510264D01*
X107601985Y-77534074D01*
X107601985Y-77569788D01*
X107590080Y-77593598D01*
X107578176Y-77605502D01*
X107554366Y-77617407D01*
X107459128Y-77617407D01*
X107840080Y-77736455D02*
X107697223Y-77736455D01*
X107768652Y-77736455D02*
X107768652Y-77486455D01*
X107744842Y-77522169D01*
X107721033Y-77545979D01*
X107697223Y-77557883D01*
X108054366Y-77569788D02*
X108054366Y-77736455D01*
X107994842Y-77474550D02*
X107935319Y-77653121D01*
X108090080Y-77653121D01*
X106395485Y-77736455D02*
X106312152Y-77617407D01*
X106252628Y-77736455D02*
X106252628Y-77486455D01*
X106347866Y-77486455D01*
X106371676Y-77498360D01*
X106383580Y-77510264D01*
X106395485Y-77534074D01*
X106395485Y-77569788D01*
X106383580Y-77593598D01*
X106371676Y-77605502D01*
X106347866Y-77617407D01*
X106252628Y-77617407D01*
X106633580Y-77736455D02*
X106490723Y-77736455D01*
X106562152Y-77736455D02*
X106562152Y-77486455D01*
X106538342Y-77522169D01*
X106514533Y-77545979D01*
X106490723Y-77557883D01*
X106859771Y-77486455D02*
X106740723Y-77486455D01*
X106728819Y-77605502D01*
X106740723Y-77593598D01*
X106764533Y-77581693D01*
X106824057Y-77581693D01*
X106847866Y-77593598D01*
X106859771Y-77605502D01*
X106871676Y-77629312D01*
X106871676Y-77688836D01*
X106859771Y-77712645D01*
X106847866Y-77724550D01*
X106824057Y-77736455D01*
X106764533Y-77736455D01*
X106740723Y-77724550D01*
X106728819Y-77712645D01*
X109379985Y-72452305D02*
X109368080Y-72464210D01*
X109332366Y-72476115D01*
X109308557Y-72476115D01*
X109272842Y-72464210D01*
X109249033Y-72440400D01*
X109237128Y-72416591D01*
X109225223Y-72368972D01*
X109225223Y-72333258D01*
X109237128Y-72285639D01*
X109249033Y-72261829D01*
X109272842Y-72238020D01*
X109308557Y-72226115D01*
X109332366Y-72226115D01*
X109368080Y-72238020D01*
X109379985Y-72249924D01*
X109606176Y-72226115D02*
X109487128Y-72226115D01*
X109475223Y-72345162D01*
X109487128Y-72333258D01*
X109510938Y-72321353D01*
X109570461Y-72321353D01*
X109594271Y-72333258D01*
X109606176Y-72345162D01*
X109618080Y-72368972D01*
X109618080Y-72428496D01*
X109606176Y-72452305D01*
X109594271Y-72464210D01*
X109570461Y-72476115D01*
X109510938Y-72476115D01*
X109487128Y-72464210D01*
X109475223Y-72452305D01*
X109701414Y-72226115D02*
X109856176Y-72226115D01*
X109772842Y-72321353D01*
X109808557Y-72321353D01*
X109832366Y-72333258D01*
X109844271Y-72345162D01*
X109856176Y-72368972D01*
X109856176Y-72428496D01*
X109844271Y-72452305D01*
X109832366Y-72464210D01*
X109808557Y-72476115D01*
X109737128Y-72476115D01*
X109713319Y-72464210D01*
X109701414Y-72452305D01*
X104437145Y-72476115D02*
X104353812Y-72357067D01*
X104294288Y-72476115D02*
X104294288Y-72226115D01*
X104389526Y-72226115D01*
X104413336Y-72238020D01*
X104425240Y-72249924D01*
X104437145Y-72273734D01*
X104437145Y-72309448D01*
X104425240Y-72333258D01*
X104413336Y-72345162D01*
X104389526Y-72357067D01*
X104294288Y-72357067D01*
X104675240Y-72476115D02*
X104532383Y-72476115D01*
X104603812Y-72476115D02*
X104603812Y-72226115D01*
X104580002Y-72261829D01*
X104556193Y-72285639D01*
X104532383Y-72297543D01*
X104889526Y-72226115D02*
X104841907Y-72226115D01*
X104818098Y-72238020D01*
X104806193Y-72249924D01*
X104782383Y-72285639D01*
X104770479Y-72333258D01*
X104770479Y-72428496D01*
X104782383Y-72452305D01*
X104794288Y-72464210D01*
X104818098Y-72476115D01*
X104865717Y-72476115D01*
X104889526Y-72464210D01*
X104901431Y-72452305D01*
X104913336Y-72428496D01*
X104913336Y-72368972D01*
X104901431Y-72345162D01*
X104889526Y-72333258D01*
X104865717Y-72321353D01*
X104818098Y-72321353D01*
X104794288Y-72333258D01*
X104782383Y-72345162D01*
X104770479Y-72368972D01*
X112063175Y-93265789D02*
X112241746Y-93265789D01*
X112277460Y-93277694D01*
X112301270Y-93301503D01*
X112313175Y-93337218D01*
X112313175Y-93361027D01*
X112336984Y-93206265D02*
X112336984Y-93015789D01*
X112301270Y-92861027D02*
X112313175Y-92884837D01*
X112313175Y-92932456D01*
X112301270Y-92956265D01*
X112277460Y-92968170D01*
X112182222Y-92968170D01*
X112158413Y-92956265D01*
X112146508Y-92932456D01*
X112146508Y-92884837D01*
X112158413Y-92861027D01*
X112182222Y-92849122D01*
X112206032Y-92849122D01*
X112229841Y-92968170D01*
X112313175Y-92765789D02*
X112146508Y-92634837D01*
X112146508Y-92765789D02*
X112313175Y-92634837D01*
X112146508Y-92575313D02*
X112146508Y-92480075D01*
X112063175Y-92539599D02*
X112277460Y-92539599D01*
X112301270Y-92527694D01*
X112313175Y-92503884D01*
X112313175Y-92480075D01*
X112313175Y-92396741D02*
X112146508Y-92396741D01*
X112194127Y-92396741D02*
X112170318Y-92384837D01*
X112158413Y-92372932D01*
X112146508Y-92349122D01*
X112146508Y-92325313D01*
X112313175Y-92134837D02*
X112182222Y-92134837D01*
X112158413Y-92146741D01*
X112146508Y-92170551D01*
X112146508Y-92218170D01*
X112158413Y-92241980D01*
X112301270Y-92134837D02*
X112313175Y-92158646D01*
X112313175Y-92218170D01*
X112301270Y-92241980D01*
X112277460Y-92253884D01*
X112253651Y-92253884D01*
X112229841Y-92241980D01*
X112217937Y-92218170D01*
X112217937Y-92158646D01*
X112206032Y-92134837D01*
X112313175Y-91884837D02*
X112313175Y-92027694D01*
X112313175Y-91956265D02*
X112063175Y-91956265D01*
X112098889Y-91980075D01*
X112122699Y-92003884D01*
X112134603Y-92027694D01*
X112636983Y-113949235D02*
X112636983Y-113699235D01*
X112636983Y-113818282D02*
X112779840Y-113818282D01*
X112779840Y-113949235D02*
X112779840Y-113699235D01*
X112886983Y-113723044D02*
X112898888Y-113711140D01*
X112922698Y-113699235D01*
X112982221Y-113699235D01*
X113006031Y-113711140D01*
X113017936Y-113723044D01*
X113029840Y-113746854D01*
X113029840Y-113770663D01*
X113017936Y-113806378D01*
X112875079Y-113949235D01*
X113029840Y-113949235D01*
X127224203Y-82102715D02*
X127224203Y-81852715D01*
X127224203Y-81971762D02*
X127367060Y-81971762D01*
X127367060Y-82102715D02*
X127367060Y-81852715D01*
X127462299Y-81852715D02*
X127617060Y-81852715D01*
X127533727Y-81947953D01*
X127569441Y-81947953D01*
X127593251Y-81959858D01*
X127605156Y-81971762D01*
X127617060Y-81995572D01*
X127617060Y-82055096D01*
X127605156Y-82078905D01*
X127593251Y-82090810D01*
X127569441Y-82102715D01*
X127498013Y-82102715D01*
X127474203Y-82090810D01*
X127462299Y-82078905D01*
X130340783Y-90428835D02*
X130340783Y-90178835D01*
X130340783Y-90297882D02*
X130483640Y-90297882D01*
X130483640Y-90428835D02*
X130483640Y-90178835D01*
X130709831Y-90262168D02*
X130709831Y-90428835D01*
X130650307Y-90166930D02*
X130590783Y-90345501D01*
X130745545Y-90345501D01*
X97059163Y-89735415D02*
X97059163Y-89485415D01*
X97059163Y-89604462D02*
X97202020Y-89604462D01*
X97202020Y-89735415D02*
X97202020Y-89485415D01*
X97440116Y-89485415D02*
X97321068Y-89485415D01*
X97309163Y-89604462D01*
X97321068Y-89592558D01*
X97344878Y-89580653D01*
X97404401Y-89580653D01*
X97428211Y-89592558D01*
X97440116Y-89604462D01*
X97452020Y-89628272D01*
X97452020Y-89687796D01*
X97440116Y-89711605D01*
X97428211Y-89723510D01*
X97404401Y-89735415D01*
X97344878Y-89735415D01*
X97321068Y-89723510D01*
X97309163Y-89711605D01*
X114442923Y-74409055D02*
X114442923Y-74159055D01*
X114442923Y-74278102D02*
X114585780Y-74278102D01*
X114585780Y-74409055D02*
X114585780Y-74159055D01*
X114811971Y-74159055D02*
X114764352Y-74159055D01*
X114740542Y-74170960D01*
X114728638Y-74182864D01*
X114704828Y-74218579D01*
X114692923Y-74266198D01*
X114692923Y-74361436D01*
X114704828Y-74385245D01*
X114716733Y-74397150D01*
X114740542Y-74409055D01*
X114788161Y-74409055D01*
X114811971Y-74397150D01*
X114823876Y-74385245D01*
X114835780Y-74361436D01*
X114835780Y-74301912D01*
X114823876Y-74278102D01*
X114811971Y-74266198D01*
X114788161Y-74254293D01*
X114740542Y-74254293D01*
X114716733Y-74266198D01*
X114704828Y-74278102D01*
X114692923Y-74301912D01*
M02*
