G04 #@! TF.GenerationSoftware,KiCad,Pcbnew,(5.1.4)-1*
G04 #@! TF.CreationDate,2020-08-13T23:55:04-07:00*
G04 #@! TF.ProjectId,Kicad_LFOV_RigidFlex_Assembly,4b696361-645f-44c4-964f-565f52696769,rev?*
G04 #@! TF.SameCoordinates,Original*
G04 #@! TF.FileFunction,Copper,L6,Bot*
G04 #@! TF.FilePolarity,Positive*
%FSLAX46Y46*%
G04 Gerber Fmt 4.6, Leading zero omitted, Abs format (unit mm)*
G04 Created by KiCad (PCBNEW (5.1.4)-1) date 2020-08-13 23:55:04*
%MOMM*%
%LPD*%
G04 APERTURE LIST*
%ADD10R,0.500000X0.740000*%
%ADD11R,0.740000X0.500000*%
%ADD12R,0.500000X1.248000*%
%ADD13R,0.525000X0.300000*%
%ADD14R,0.300000X0.425000*%
%ADD15R,0.340000X0.310000*%
%ADD16R,2.620000X0.870000*%
%ADD17R,0.630000X0.580000*%
%ADD18R,0.580000X0.630000*%
%ADD19R,0.310000X0.340000*%
%ADD20C,0.100000*%
%ADD21C,0.590000*%
%ADD22R,0.270000X0.820000*%
%ADD23R,0.270000X0.740000*%
%ADD24R,1.320000X0.930000*%
%ADD25R,1.500000X0.450000*%
%ADD26C,0.350000*%
%ADD27C,0.300000*%
%ADD28C,0.450000*%
%ADD29C,0.152400*%
%ADD30C,0.203200*%
%ADD31C,0.152000*%
%ADD32C,0.088900*%
%ADD33C,0.381000*%
%ADD34C,0.254000*%
%ADD35C,0.304800*%
%ADD36C,0.101600*%
G04 APERTURE END LIST*
D10*
X110981180Y-118973600D03*
X110281180Y-118973600D03*
X109581180Y-118973600D03*
X108881180Y-118973600D03*
X108181180Y-118973600D03*
X107481180Y-118973600D03*
X106781180Y-118973600D03*
X106081180Y-118973600D03*
X105381180Y-118973600D03*
X104681180Y-118973600D03*
X103981180Y-118973600D03*
X103281180Y-118973600D03*
D11*
X102546180Y-118238600D03*
X102546180Y-117538600D03*
X102546180Y-116838600D03*
X102546180Y-116138600D03*
X102546180Y-115438600D03*
X102546180Y-114738600D03*
X102546180Y-114038600D03*
X102546180Y-113338600D03*
X102546180Y-112638600D03*
X102546180Y-111938600D03*
X102546180Y-111238600D03*
X102546180Y-110538600D03*
D10*
X103281180Y-109803600D03*
X103981180Y-109803600D03*
X104681180Y-109803600D03*
X105381180Y-109803600D03*
X106081180Y-109803600D03*
X106781180Y-109803600D03*
D12*
X107481180Y-110057600D03*
D10*
X108181180Y-109803600D03*
X108881180Y-109803600D03*
X109581180Y-109803600D03*
X110281180Y-109803600D03*
X110981180Y-109803600D03*
D11*
X111716180Y-110538600D03*
X111716180Y-111238600D03*
X111716180Y-111938600D03*
X111716180Y-112638600D03*
X111716180Y-113338600D03*
X111716180Y-114038600D03*
X111716180Y-114738600D03*
X111716180Y-115438600D03*
X111716180Y-116138600D03*
X111716180Y-116838600D03*
X111716180Y-117538600D03*
X111716180Y-118238600D03*
D13*
X125685200Y-89397280D03*
X125685200Y-89897280D03*
X125685200Y-90397280D03*
X125685200Y-90897280D03*
X125685200Y-91397280D03*
X125685200Y-91897280D03*
X125685200Y-92397280D03*
X125685200Y-92897280D03*
X125685200Y-93397280D03*
D14*
X126497700Y-93459780D03*
X126997700Y-93459780D03*
X127497700Y-93459780D03*
X127997700Y-93459780D03*
D13*
X128810200Y-93397280D03*
X128810200Y-92897280D03*
X128810200Y-92397280D03*
X128810200Y-91897280D03*
X128810200Y-91397280D03*
X128810200Y-90897280D03*
X128810200Y-90397280D03*
X128810200Y-89897280D03*
X128810200Y-89397280D03*
X128810200Y-88897280D03*
D14*
X127997700Y-88834780D03*
X127497700Y-88834780D03*
X126997700Y-88834780D03*
X126497700Y-88834780D03*
D13*
X125685200Y-88897280D03*
D15*
X103470100Y-90169100D03*
X103470100Y-89619100D03*
D16*
X101684480Y-90504700D03*
X101684480Y-87454700D03*
D17*
X103132280Y-92421900D03*
X103132280Y-91531900D03*
D18*
X105913080Y-88090700D03*
X106803080Y-88090700D03*
D19*
X102162680Y-93500900D03*
X101612680Y-93500900D03*
D17*
X104021280Y-91531900D03*
X104021280Y-92421900D03*
D15*
X100541480Y-93369500D03*
X100541480Y-92819500D03*
X100541480Y-91320900D03*
X100541480Y-91870900D03*
D18*
X108504880Y-88090700D03*
X107614880Y-88090700D03*
D19*
X108038880Y-86744500D03*
X108588880Y-86744500D03*
X108588880Y-87328700D03*
X108038880Y-87328700D03*
X106628680Y-91443500D03*
X106078680Y-91443500D03*
X106083080Y-92002300D03*
X106633080Y-92002300D03*
D18*
X109291280Y-88065300D03*
X110181280Y-88065300D03*
D19*
X109655680Y-86769900D03*
X109105680Y-86769900D03*
X109105680Y-87328700D03*
X109655680Y-87328700D03*
X107496680Y-86719100D03*
X106946680Y-86719100D03*
X106946680Y-87328700D03*
X107496680Y-87328700D03*
X107175280Y-92002300D03*
X107725280Y-92002300D03*
X107725280Y-91443500D03*
X107175280Y-91443500D03*
D20*
G36*
X101848838Y-86018810D02*
G01*
X101863156Y-86020934D01*
X101877197Y-86024451D01*
X101890826Y-86029328D01*
X101903911Y-86035517D01*
X101916327Y-86042958D01*
X101927953Y-86051581D01*
X101938678Y-86061302D01*
X101948399Y-86072027D01*
X101957022Y-86083653D01*
X101964463Y-86096069D01*
X101970652Y-86109154D01*
X101975529Y-86122783D01*
X101979046Y-86136824D01*
X101981170Y-86151142D01*
X101981880Y-86165600D01*
X101981880Y-86510600D01*
X101981170Y-86525058D01*
X101979046Y-86539376D01*
X101975529Y-86553417D01*
X101970652Y-86567046D01*
X101964463Y-86580131D01*
X101957022Y-86592547D01*
X101948399Y-86604173D01*
X101938678Y-86614898D01*
X101927953Y-86624619D01*
X101916327Y-86633242D01*
X101903911Y-86640683D01*
X101890826Y-86646872D01*
X101877197Y-86651749D01*
X101863156Y-86655266D01*
X101848838Y-86657390D01*
X101834380Y-86658100D01*
X101539380Y-86658100D01*
X101524922Y-86657390D01*
X101510604Y-86655266D01*
X101496563Y-86651749D01*
X101482934Y-86646872D01*
X101469849Y-86640683D01*
X101457433Y-86633242D01*
X101445807Y-86624619D01*
X101435082Y-86614898D01*
X101425361Y-86604173D01*
X101416738Y-86592547D01*
X101409297Y-86580131D01*
X101403108Y-86567046D01*
X101398231Y-86553417D01*
X101394714Y-86539376D01*
X101392590Y-86525058D01*
X101391880Y-86510600D01*
X101391880Y-86165600D01*
X101392590Y-86151142D01*
X101394714Y-86136824D01*
X101398231Y-86122783D01*
X101403108Y-86109154D01*
X101409297Y-86096069D01*
X101416738Y-86083653D01*
X101425361Y-86072027D01*
X101435082Y-86061302D01*
X101445807Y-86051581D01*
X101457433Y-86042958D01*
X101469849Y-86035517D01*
X101482934Y-86029328D01*
X101496563Y-86024451D01*
X101510604Y-86020934D01*
X101524922Y-86018810D01*
X101539380Y-86018100D01*
X101834380Y-86018100D01*
X101848838Y-86018810D01*
X101848838Y-86018810D01*
G37*
D21*
X101686880Y-86338100D03*
D20*
G36*
X100878838Y-86018810D02*
G01*
X100893156Y-86020934D01*
X100907197Y-86024451D01*
X100920826Y-86029328D01*
X100933911Y-86035517D01*
X100946327Y-86042958D01*
X100957953Y-86051581D01*
X100968678Y-86061302D01*
X100978399Y-86072027D01*
X100987022Y-86083653D01*
X100994463Y-86096069D01*
X101000652Y-86109154D01*
X101005529Y-86122783D01*
X101009046Y-86136824D01*
X101011170Y-86151142D01*
X101011880Y-86165600D01*
X101011880Y-86510600D01*
X101011170Y-86525058D01*
X101009046Y-86539376D01*
X101005529Y-86553417D01*
X101000652Y-86567046D01*
X100994463Y-86580131D01*
X100987022Y-86592547D01*
X100978399Y-86604173D01*
X100968678Y-86614898D01*
X100957953Y-86624619D01*
X100946327Y-86633242D01*
X100933911Y-86640683D01*
X100920826Y-86646872D01*
X100907197Y-86651749D01*
X100893156Y-86655266D01*
X100878838Y-86657390D01*
X100864380Y-86658100D01*
X100569380Y-86658100D01*
X100554922Y-86657390D01*
X100540604Y-86655266D01*
X100526563Y-86651749D01*
X100512934Y-86646872D01*
X100499849Y-86640683D01*
X100487433Y-86633242D01*
X100475807Y-86624619D01*
X100465082Y-86614898D01*
X100455361Y-86604173D01*
X100446738Y-86592547D01*
X100439297Y-86580131D01*
X100433108Y-86567046D01*
X100428231Y-86553417D01*
X100424714Y-86539376D01*
X100422590Y-86525058D01*
X100421880Y-86510600D01*
X100421880Y-86165600D01*
X100422590Y-86151142D01*
X100424714Y-86136824D01*
X100428231Y-86122783D01*
X100433108Y-86109154D01*
X100439297Y-86096069D01*
X100446738Y-86083653D01*
X100455361Y-86072027D01*
X100465082Y-86061302D01*
X100475807Y-86051581D01*
X100487433Y-86042958D01*
X100499849Y-86035517D01*
X100512934Y-86029328D01*
X100526563Y-86024451D01*
X100540604Y-86020934D01*
X100554922Y-86018810D01*
X100569380Y-86018100D01*
X100864380Y-86018100D01*
X100878838Y-86018810D01*
X100878838Y-86018810D01*
G37*
D21*
X100716880Y-86338100D03*
D20*
G36*
X110383238Y-88660410D02*
G01*
X110397556Y-88662534D01*
X110411597Y-88666051D01*
X110425226Y-88670928D01*
X110438311Y-88677117D01*
X110450727Y-88684558D01*
X110462353Y-88693181D01*
X110473078Y-88702902D01*
X110482799Y-88713627D01*
X110491422Y-88725253D01*
X110498863Y-88737669D01*
X110505052Y-88750754D01*
X110509929Y-88764383D01*
X110513446Y-88778424D01*
X110515570Y-88792742D01*
X110516280Y-88807200D01*
X110516280Y-89152200D01*
X110515570Y-89166658D01*
X110513446Y-89180976D01*
X110509929Y-89195017D01*
X110505052Y-89208646D01*
X110498863Y-89221731D01*
X110491422Y-89234147D01*
X110482799Y-89245773D01*
X110473078Y-89256498D01*
X110462353Y-89266219D01*
X110450727Y-89274842D01*
X110438311Y-89282283D01*
X110425226Y-89288472D01*
X110411597Y-89293349D01*
X110397556Y-89296866D01*
X110383238Y-89298990D01*
X110368780Y-89299700D01*
X110073780Y-89299700D01*
X110059322Y-89298990D01*
X110045004Y-89296866D01*
X110030963Y-89293349D01*
X110017334Y-89288472D01*
X110004249Y-89282283D01*
X109991833Y-89274842D01*
X109980207Y-89266219D01*
X109969482Y-89256498D01*
X109959761Y-89245773D01*
X109951138Y-89234147D01*
X109943697Y-89221731D01*
X109937508Y-89208646D01*
X109932631Y-89195017D01*
X109929114Y-89180976D01*
X109926990Y-89166658D01*
X109926280Y-89152200D01*
X109926280Y-88807200D01*
X109926990Y-88792742D01*
X109929114Y-88778424D01*
X109932631Y-88764383D01*
X109937508Y-88750754D01*
X109943697Y-88737669D01*
X109951138Y-88725253D01*
X109959761Y-88713627D01*
X109969482Y-88702902D01*
X109980207Y-88693181D01*
X109991833Y-88684558D01*
X110004249Y-88677117D01*
X110017334Y-88670928D01*
X110030963Y-88666051D01*
X110045004Y-88662534D01*
X110059322Y-88660410D01*
X110073780Y-88659700D01*
X110368780Y-88659700D01*
X110383238Y-88660410D01*
X110383238Y-88660410D01*
G37*
D21*
X110221280Y-88979700D03*
D20*
G36*
X109413238Y-88660410D02*
G01*
X109427556Y-88662534D01*
X109441597Y-88666051D01*
X109455226Y-88670928D01*
X109468311Y-88677117D01*
X109480727Y-88684558D01*
X109492353Y-88693181D01*
X109503078Y-88702902D01*
X109512799Y-88713627D01*
X109521422Y-88725253D01*
X109528863Y-88737669D01*
X109535052Y-88750754D01*
X109539929Y-88764383D01*
X109543446Y-88778424D01*
X109545570Y-88792742D01*
X109546280Y-88807200D01*
X109546280Y-89152200D01*
X109545570Y-89166658D01*
X109543446Y-89180976D01*
X109539929Y-89195017D01*
X109535052Y-89208646D01*
X109528863Y-89221731D01*
X109521422Y-89234147D01*
X109512799Y-89245773D01*
X109503078Y-89256498D01*
X109492353Y-89266219D01*
X109480727Y-89274842D01*
X109468311Y-89282283D01*
X109455226Y-89288472D01*
X109441597Y-89293349D01*
X109427556Y-89296866D01*
X109413238Y-89298990D01*
X109398780Y-89299700D01*
X109103780Y-89299700D01*
X109089322Y-89298990D01*
X109075004Y-89296866D01*
X109060963Y-89293349D01*
X109047334Y-89288472D01*
X109034249Y-89282283D01*
X109021833Y-89274842D01*
X109010207Y-89266219D01*
X108999482Y-89256498D01*
X108989761Y-89245773D01*
X108981138Y-89234147D01*
X108973697Y-89221731D01*
X108967508Y-89208646D01*
X108962631Y-89195017D01*
X108959114Y-89180976D01*
X108956990Y-89166658D01*
X108956280Y-89152200D01*
X108956280Y-88807200D01*
X108956990Y-88792742D01*
X108959114Y-88778424D01*
X108962631Y-88764383D01*
X108967508Y-88750754D01*
X108973697Y-88737669D01*
X108981138Y-88725253D01*
X108989761Y-88713627D01*
X108999482Y-88702902D01*
X109010207Y-88693181D01*
X109021833Y-88684558D01*
X109034249Y-88677117D01*
X109047334Y-88670928D01*
X109060963Y-88666051D01*
X109075004Y-88662534D01*
X109089322Y-88660410D01*
X109103780Y-88659700D01*
X109398780Y-88659700D01*
X109413238Y-88660410D01*
X109413238Y-88660410D01*
G37*
D21*
X109251280Y-88979700D03*
D20*
G36*
X107005038Y-88660410D02*
G01*
X107019356Y-88662534D01*
X107033397Y-88666051D01*
X107047026Y-88670928D01*
X107060111Y-88677117D01*
X107072527Y-88684558D01*
X107084153Y-88693181D01*
X107094878Y-88702902D01*
X107104599Y-88713627D01*
X107113222Y-88725253D01*
X107120663Y-88737669D01*
X107126852Y-88750754D01*
X107131729Y-88764383D01*
X107135246Y-88778424D01*
X107137370Y-88792742D01*
X107138080Y-88807200D01*
X107138080Y-89152200D01*
X107137370Y-89166658D01*
X107135246Y-89180976D01*
X107131729Y-89195017D01*
X107126852Y-89208646D01*
X107120663Y-89221731D01*
X107113222Y-89234147D01*
X107104599Y-89245773D01*
X107094878Y-89256498D01*
X107084153Y-89266219D01*
X107072527Y-89274842D01*
X107060111Y-89282283D01*
X107047026Y-89288472D01*
X107033397Y-89293349D01*
X107019356Y-89296866D01*
X107005038Y-89298990D01*
X106990580Y-89299700D01*
X106695580Y-89299700D01*
X106681122Y-89298990D01*
X106666804Y-89296866D01*
X106652763Y-89293349D01*
X106639134Y-89288472D01*
X106626049Y-89282283D01*
X106613633Y-89274842D01*
X106602007Y-89266219D01*
X106591282Y-89256498D01*
X106581561Y-89245773D01*
X106572938Y-89234147D01*
X106565497Y-89221731D01*
X106559308Y-89208646D01*
X106554431Y-89195017D01*
X106550914Y-89180976D01*
X106548790Y-89166658D01*
X106548080Y-89152200D01*
X106548080Y-88807200D01*
X106548790Y-88792742D01*
X106550914Y-88778424D01*
X106554431Y-88764383D01*
X106559308Y-88750754D01*
X106565497Y-88737669D01*
X106572938Y-88725253D01*
X106581561Y-88713627D01*
X106591282Y-88702902D01*
X106602007Y-88693181D01*
X106613633Y-88684558D01*
X106626049Y-88677117D01*
X106639134Y-88670928D01*
X106652763Y-88666051D01*
X106666804Y-88662534D01*
X106681122Y-88660410D01*
X106695580Y-88659700D01*
X106990580Y-88659700D01*
X107005038Y-88660410D01*
X107005038Y-88660410D01*
G37*
D21*
X106843080Y-88979700D03*
D20*
G36*
X106035038Y-88660410D02*
G01*
X106049356Y-88662534D01*
X106063397Y-88666051D01*
X106077026Y-88670928D01*
X106090111Y-88677117D01*
X106102527Y-88684558D01*
X106114153Y-88693181D01*
X106124878Y-88702902D01*
X106134599Y-88713627D01*
X106143222Y-88725253D01*
X106150663Y-88737669D01*
X106156852Y-88750754D01*
X106161729Y-88764383D01*
X106165246Y-88778424D01*
X106167370Y-88792742D01*
X106168080Y-88807200D01*
X106168080Y-89152200D01*
X106167370Y-89166658D01*
X106165246Y-89180976D01*
X106161729Y-89195017D01*
X106156852Y-89208646D01*
X106150663Y-89221731D01*
X106143222Y-89234147D01*
X106134599Y-89245773D01*
X106124878Y-89256498D01*
X106114153Y-89266219D01*
X106102527Y-89274842D01*
X106090111Y-89282283D01*
X106077026Y-89288472D01*
X106063397Y-89293349D01*
X106049356Y-89296866D01*
X106035038Y-89298990D01*
X106020580Y-89299700D01*
X105725580Y-89299700D01*
X105711122Y-89298990D01*
X105696804Y-89296866D01*
X105682763Y-89293349D01*
X105669134Y-89288472D01*
X105656049Y-89282283D01*
X105643633Y-89274842D01*
X105632007Y-89266219D01*
X105621282Y-89256498D01*
X105611561Y-89245773D01*
X105602938Y-89234147D01*
X105595497Y-89221731D01*
X105589308Y-89208646D01*
X105584431Y-89195017D01*
X105580914Y-89180976D01*
X105578790Y-89166658D01*
X105578080Y-89152200D01*
X105578080Y-88807200D01*
X105578790Y-88792742D01*
X105580914Y-88778424D01*
X105584431Y-88764383D01*
X105589308Y-88750754D01*
X105595497Y-88737669D01*
X105602938Y-88725253D01*
X105611561Y-88713627D01*
X105621282Y-88702902D01*
X105632007Y-88693181D01*
X105643633Y-88684558D01*
X105656049Y-88677117D01*
X105669134Y-88670928D01*
X105682763Y-88666051D01*
X105696804Y-88662534D01*
X105711122Y-88660410D01*
X105725580Y-88659700D01*
X106020580Y-88659700D01*
X106035038Y-88660410D01*
X106035038Y-88660410D01*
G37*
D21*
X105873080Y-88979700D03*
D22*
X101235280Y-91715500D03*
D23*
X101735280Y-91675500D03*
X102235280Y-91675500D03*
X102235280Y-92735500D03*
X101735280Y-92735500D03*
X101235280Y-92735500D03*
D19*
X127519500Y-94186700D03*
X126969500Y-94186700D03*
X125831740Y-87824960D03*
X125281740Y-87824960D03*
X105854480Y-86744500D03*
X106404480Y-86744500D03*
X128743780Y-94184160D03*
X128193780Y-94184160D03*
X110197880Y-87303300D03*
X110747880Y-87303300D03*
D15*
X129704000Y-90044640D03*
X129704000Y-89494640D03*
D24*
X108821880Y-91672100D03*
X108821880Y-90032100D03*
D25*
X107186780Y-74721100D03*
X107186780Y-75421100D03*
X107186780Y-73243860D03*
X107186780Y-73943860D03*
D19*
X106404480Y-87328700D03*
X105854480Y-87328700D03*
X111967080Y-89589300D03*
X111417080Y-89589300D03*
D15*
X111427920Y-87312780D03*
X111427920Y-87862780D03*
D19*
X110883680Y-88420900D03*
X111433680Y-88420900D03*
X110200420Y-86741960D03*
X110750420Y-86741960D03*
X111417080Y-89005100D03*
X111967080Y-89005100D03*
D15*
X129705760Y-90830680D03*
X129705760Y-91380680D03*
D19*
X127222980Y-87819880D03*
X126672980Y-87819880D03*
D26*
X103973020Y-87867180D03*
D27*
X105753560Y-114910560D03*
X109113980Y-115428720D03*
X126876200Y-91532400D03*
D28*
X100897080Y-89259100D03*
D27*
X100541480Y-92357900D03*
D28*
X102545580Y-118999600D03*
X129147620Y-85086840D03*
X129147620Y-85965680D03*
X129147620Y-86844520D03*
D27*
X127943660Y-87824960D03*
D28*
X110172780Y-75255980D03*
X110172780Y-73755980D03*
X104197780Y-73780980D03*
X104197780Y-75280980D03*
D27*
X107221680Y-73960680D03*
D26*
X105378910Y-87314730D03*
X111962980Y-109913598D03*
D28*
X129394000Y-88547040D03*
X112835080Y-91697502D03*
D27*
X126881280Y-90028720D03*
D28*
X108821880Y-90032100D03*
X107602680Y-88878100D03*
D27*
X108463780Y-111621400D03*
X106881320Y-91081359D03*
X103139900Y-92431560D03*
X106406380Y-118046600D03*
X110876780Y-114999600D03*
X111703980Y-117526400D03*
X109403580Y-112458600D03*
X107532920Y-113365060D03*
X109592460Y-118973600D03*
X110793780Y-112407800D03*
D26*
X108538960Y-109803600D03*
X103091100Y-71125960D03*
X110617780Y-77380980D03*
D28*
X107169570Y-70955980D03*
D26*
X107997780Y-71800980D03*
X103091100Y-69999300D03*
X109850580Y-86297460D03*
X111012780Y-74505980D03*
X111012780Y-75005980D03*
D27*
X129544000Y-92926280D03*
X126995130Y-93462350D03*
D26*
X102449020Y-108900920D03*
D27*
X109827060Y-71820820D03*
D28*
X100719280Y-90376700D03*
D27*
X109131980Y-114468200D03*
X109431480Y-110686200D03*
X111298380Y-92456960D03*
X110859320Y-116739000D03*
X104052980Y-118127520D03*
D26*
X103271980Y-75548180D03*
D28*
X125611940Y-85086840D03*
X125611940Y-86844520D03*
X125611940Y-85965680D03*
D27*
X126246940Y-87824960D03*
D26*
X103762200Y-86769900D03*
D27*
X112581080Y-86322860D03*
X125171098Y-91350480D03*
D26*
X104910620Y-69994220D03*
D27*
X100541480Y-93369500D03*
X111967080Y-89589300D03*
D26*
X111012780Y-73505980D03*
X106222780Y-77080980D03*
X108065640Y-77097580D03*
X111177780Y-69994220D03*
X129719000Y-90847560D03*
D27*
X125585491Y-93996491D03*
X109827060Y-69994220D03*
X107160720Y-75413560D03*
X105824429Y-86238789D03*
D26*
X105822780Y-77953446D03*
D27*
X105364940Y-86241580D03*
D26*
X105037780Y-74030980D03*
X104910620Y-71855980D03*
X108093440Y-71155980D03*
D27*
X127890798Y-91524882D03*
X127882700Y-92032980D03*
D26*
X111425380Y-87305840D03*
X108844700Y-86315667D03*
D27*
X101735280Y-93018300D03*
X107523980Y-112484000D03*
X103396440Y-112756640D03*
X110885220Y-114109600D03*
X107704280Y-92002300D03*
D26*
X102649680Y-86642900D03*
X110750420Y-87292460D03*
X109335167Y-86315667D03*
X106942280Y-86315667D03*
X104807410Y-92436202D03*
X104807410Y-92436202D03*
X104807410Y-92436202D03*
X104807410Y-92436202D03*
D28*
X112835080Y-92662701D03*
D27*
X110173900Y-90265640D03*
D26*
X104897580Y-115459200D03*
D27*
X110173900Y-90765640D03*
D26*
X110687060Y-110693607D03*
D27*
X110173900Y-91265640D03*
D26*
X110282380Y-111243400D03*
X110904680Y-89182900D03*
D27*
X125083732Y-93998748D03*
D26*
X124587498Y-88593870D03*
D27*
X110281180Y-109803600D03*
D26*
X107515640Y-77097580D03*
X107595060Y-69718880D03*
X107810295Y-86307867D03*
D27*
X111407600Y-89591840D03*
X127389280Y-92037860D03*
X110174620Y-89765640D03*
X107197780Y-70110980D03*
D26*
X106805379Y-77113579D03*
X110500820Y-108885680D03*
X111427920Y-87862780D03*
D27*
X103332980Y-115443600D03*
D26*
X104807410Y-88776500D03*
X104807410Y-89361970D03*
X103644976Y-114738600D03*
D27*
X105817060Y-89767100D03*
X103637780Y-113970400D03*
X105806900Y-90262400D03*
D26*
X104275280Y-115035020D03*
D27*
X105814520Y-90762780D03*
D26*
X105705300Y-113970760D03*
D27*
X104944709Y-91286020D03*
D26*
X106088840Y-113577060D03*
D27*
X106294580Y-92477280D03*
D26*
X107564580Y-108875520D03*
X107048960Y-92472200D03*
X107048960Y-108882678D03*
X106609540Y-113150340D03*
X107798260Y-92500140D03*
X106091380Y-112721080D03*
X108611981Y-92452801D03*
X111689540Y-86325400D03*
D27*
X106083080Y-92002300D03*
X106931980Y-116368200D03*
X110851380Y-115826800D03*
X107494320Y-110731400D03*
X102520180Y-112609280D03*
X105761040Y-115787000D03*
X110839180Y-113335400D03*
X107516180Y-118936600D03*
D26*
X106781180Y-109803600D03*
D27*
X111308540Y-91852440D03*
D26*
X108332297Y-86315667D03*
X104242510Y-86769900D03*
X105011880Y-75520240D03*
X103646180Y-71830980D03*
X109332780Y-74005980D03*
X109703360Y-77356560D03*
D27*
X107211580Y-73219060D03*
D26*
X104355540Y-71125960D03*
X109332780Y-75505980D03*
D29*
X106633080Y-91447900D02*
X106628680Y-91443500D01*
X106633080Y-92002300D02*
X106633080Y-91447900D01*
X100541480Y-92819500D02*
X100541480Y-92357900D01*
X100541480Y-91870900D02*
X100541480Y-92357900D01*
D30*
X110536880Y-88420900D02*
X110181280Y-88065300D01*
X110883680Y-88420900D02*
X110536880Y-88420900D01*
X110181280Y-87319900D02*
X110197880Y-87303300D01*
X110181280Y-88065300D02*
X110181280Y-87319900D01*
X109681080Y-87303300D02*
X109655680Y-87328700D01*
X110197880Y-87303300D02*
X109681080Y-87303300D01*
X109655680Y-87328700D02*
X109655680Y-86769900D01*
X105854480Y-88032100D02*
X105913080Y-88090700D01*
X105854480Y-87328700D02*
X105854480Y-88032100D01*
X108038880Y-86744500D02*
X108038880Y-87328700D01*
X107522080Y-86744500D02*
X107496680Y-86719100D01*
X108038880Y-86744500D02*
X107522080Y-86744500D01*
X107496680Y-86719100D02*
X107496680Y-87328700D01*
X107496680Y-87972500D02*
X107614880Y-88090700D01*
X107496680Y-87328700D02*
X107496680Y-87972500D01*
X107614880Y-88865900D02*
X107602680Y-88878100D01*
D29*
X107175280Y-92002300D02*
X107175280Y-91443500D01*
D30*
X105392880Y-87328700D02*
X105378910Y-87314730D01*
X105854480Y-87328700D02*
X105392880Y-87328700D01*
X107614880Y-88090700D02*
X107614880Y-88865900D01*
D29*
X108181180Y-109803600D02*
X108538960Y-109803600D01*
X111703980Y-117526400D02*
X111716180Y-117538600D01*
X110281180Y-118973600D02*
X109592460Y-118973600D01*
X110981180Y-109803600D02*
X111055780Y-109803600D01*
D31*
X128060200Y-88897280D02*
X127997700Y-88834780D01*
X128810200Y-88897280D02*
X128060200Y-88897280D01*
X126974900Y-93482580D02*
X126995130Y-93462350D01*
X126997700Y-93459780D02*
X127497700Y-93459780D01*
X128747700Y-93459780D02*
X128810200Y-93397280D01*
X127997700Y-93459780D02*
X128747700Y-93459780D01*
X127948740Y-87819880D02*
X127943660Y-87824960D01*
X127997700Y-87879000D02*
X127943660Y-87824960D01*
X127997700Y-88834780D02*
X127997700Y-87879000D01*
X126497700Y-88834780D02*
X125995880Y-88332960D01*
X125995880Y-88332960D02*
X125774740Y-88332960D01*
D32*
X107197780Y-73995980D02*
X106672780Y-73995980D01*
D33*
X107197780Y-74505980D02*
X107197780Y-73995980D01*
D30*
X127718661Y-87599961D02*
X127943660Y-87824960D01*
X127528159Y-87409459D02*
X127718661Y-87599961D01*
X125579339Y-87409459D02*
X127528159Y-87409459D01*
X125281740Y-87707058D02*
X125579339Y-87409459D01*
X125281740Y-87824960D02*
X125281740Y-87707058D01*
X105378910Y-87314730D02*
X105376630Y-87312450D01*
D29*
X111852982Y-109803600D02*
X111962980Y-109913598D01*
X110981180Y-109803600D02*
X111852982Y-109803600D01*
D31*
X127497700Y-93459780D02*
X127997700Y-93459780D01*
D34*
X129704000Y-89494640D02*
X129704000Y-88857040D01*
X129704000Y-88857040D02*
X129394000Y-88547040D01*
D35*
X126241080Y-90897280D02*
X126876200Y-91532400D01*
X125685200Y-90897280D02*
X126241080Y-90897280D01*
D30*
X106633080Y-92002300D02*
X107175280Y-92002300D01*
D29*
X106628680Y-91443500D02*
X106628680Y-91333999D01*
X106628680Y-91333999D02*
X106881320Y-91081359D01*
D30*
X106628680Y-91443500D02*
X107175280Y-91443500D01*
D29*
X106081180Y-118973600D02*
X106081180Y-118371800D01*
X106081180Y-118371800D02*
X106406380Y-118046600D01*
X111703980Y-117526400D02*
X111703980Y-117526400D01*
X105381180Y-111213320D02*
X107532920Y-113365060D01*
X105381180Y-109803600D02*
X105381180Y-111213320D01*
X109592460Y-118973600D02*
X108881180Y-118973600D01*
X111024580Y-112638600D02*
X110793780Y-112407800D01*
X111716180Y-112638600D02*
X111024580Y-112638600D01*
X108538960Y-109803600D02*
X108538960Y-109803600D01*
X108538960Y-109803600D02*
X108881180Y-109803600D01*
D35*
X108181180Y-109803600D02*
X108881180Y-109803600D01*
D29*
X125281740Y-88147360D02*
X125281740Y-87824960D01*
X125467340Y-88332960D02*
X125281740Y-88147360D01*
X125774740Y-88332960D02*
X125467340Y-88332960D01*
X109655680Y-86492360D02*
X109850580Y-86297460D01*
X109655680Y-86769900D02*
X109655680Y-86492360D01*
X128810200Y-93397280D02*
X129073000Y-93397280D01*
X129073000Y-93397280D02*
X129544000Y-92926280D01*
D31*
X126995130Y-93462350D02*
X126997700Y-93459780D01*
D29*
X126995130Y-94161070D02*
X126969500Y-94186700D01*
X126995130Y-93462350D02*
X126995130Y-94161070D01*
X128743780Y-93463700D02*
X128810200Y-93397280D01*
X128743780Y-94184160D02*
X128743780Y-93463700D01*
D30*
X101235280Y-91715500D02*
X101235280Y-90892700D01*
X101235280Y-90892700D02*
X100719280Y-90376700D01*
X110994585Y-92760755D02*
X111298380Y-92456960D01*
X110994585Y-93236097D02*
X110994585Y-92760755D01*
X110624622Y-93606060D02*
X110994585Y-93236097D01*
X106613640Y-93606060D02*
X110624622Y-93606060D01*
X104021280Y-91531900D02*
X104539480Y-91531900D01*
X104539480Y-91531900D02*
X106613640Y-93606060D01*
D29*
X111616580Y-116739000D02*
X111716180Y-116838600D01*
X110958920Y-116838600D02*
X110859320Y-116739000D01*
X111716180Y-116838600D02*
X110958920Y-116838600D01*
X103941900Y-118238600D02*
X104052980Y-118127520D01*
X102546180Y-118238600D02*
X103941900Y-118238600D01*
X100601280Y-93369500D02*
X100541480Y-93369500D01*
X111967080Y-89589300D02*
X111967080Y-89589300D01*
X108821880Y-91672100D02*
X108821880Y-91519700D01*
X108626880Y-91672100D02*
X108288480Y-92010500D01*
D31*
X125685200Y-89397280D02*
X125860800Y-89397280D01*
X126955850Y-88792930D02*
X126997700Y-88834780D01*
X126997700Y-88675458D02*
X126997700Y-88834780D01*
X126672980Y-88141880D02*
X126672980Y-87819880D01*
X126672980Y-88145560D02*
X126672980Y-88141880D01*
X126997700Y-88470280D02*
X126672980Y-88145560D01*
X126997700Y-88834780D02*
X126997700Y-88470280D01*
X126667900Y-87824960D02*
X126672980Y-87819880D01*
X126672980Y-87819880D02*
X126252020Y-87819880D01*
X126252020Y-87819880D02*
X126246940Y-87824960D01*
X126246940Y-87824960D02*
X125831740Y-87824960D01*
D29*
X108821880Y-91672100D02*
X108626880Y-91672100D01*
D30*
X103762200Y-86790220D02*
X103762200Y-86542733D01*
X111923909Y-85665689D02*
X112431081Y-86172861D01*
X112431081Y-86172861D02*
X112581080Y-86322860D01*
X104639244Y-85665689D02*
X111923909Y-85665689D01*
X103762200Y-86542733D02*
X104639244Y-85665689D01*
D29*
X100541480Y-93369500D02*
X100541480Y-93369500D01*
X111967080Y-89589300D02*
X111967080Y-89005100D01*
X111967080Y-89911700D02*
X111967080Y-89589300D01*
X111967080Y-89957606D02*
X111967080Y-89911700D01*
X110252586Y-91672100D02*
X111967080Y-89957606D01*
X108821880Y-91672100D02*
X110252586Y-91672100D01*
D30*
X112581080Y-86534992D02*
X112581080Y-86322860D01*
X112581080Y-88017900D02*
X112581080Y-86534992D01*
X111967080Y-88631900D02*
X112581080Y-88017900D01*
X111967080Y-89005100D02*
X111967080Y-88631900D01*
X126997700Y-89040182D02*
X126997700Y-88834780D01*
X125685200Y-89397280D02*
X126640602Y-89397280D01*
X126640602Y-89397280D02*
X126997700Y-89040182D01*
D29*
X101235280Y-92970500D02*
X100836960Y-93368820D01*
X101235280Y-92735500D02*
X101235280Y-92970500D01*
X100542160Y-93368820D02*
X100541480Y-93369500D01*
X100836960Y-93368820D02*
X100542160Y-93368820D01*
X128191240Y-94186700D02*
X128193780Y-94184160D01*
X127519500Y-94186700D02*
X128191240Y-94186700D01*
X126123501Y-94534501D02*
X125585491Y-93996491D01*
X127494099Y-94534501D02*
X126123501Y-94534501D01*
X127519500Y-94186700D02*
X127519500Y-94509100D01*
X127519500Y-94509100D02*
X127494099Y-94534501D01*
D34*
X129351360Y-90397280D02*
X129704000Y-90044640D01*
X128810200Y-90397280D02*
X129351360Y-90397280D01*
D29*
X107725280Y-91443500D02*
X107725280Y-92002300D01*
X107704280Y-92002300D02*
X107704280Y-92002300D01*
X101612680Y-93140900D02*
X101735280Y-93018300D01*
X101612680Y-93500900D02*
X101612680Y-93140900D01*
X108644080Y-86689300D02*
X108588880Y-86744500D01*
X108588880Y-87328700D02*
X108588880Y-86744500D01*
X108588880Y-88006700D02*
X108504880Y-88090700D01*
X108588880Y-87328700D02*
X108588880Y-88006700D01*
X108588880Y-86744500D02*
X108588880Y-86599117D01*
X108588880Y-86599117D02*
X108844700Y-86343297D01*
X101735280Y-93018300D02*
X101735280Y-93018300D01*
X107498980Y-112484000D02*
X107523980Y-112484000D01*
X106081180Y-111066200D02*
X107498980Y-112484000D01*
X106081180Y-109803600D02*
X106081180Y-111066200D01*
X110956220Y-114038600D02*
X110885220Y-114109600D01*
X111716180Y-114038600D02*
X110956220Y-114038600D01*
X107704280Y-92002300D02*
X107729680Y-91976900D01*
D35*
X102649680Y-86642900D02*
X102649680Y-86617500D01*
D34*
X101991680Y-86642900D02*
X101686880Y-86338100D01*
X102649680Y-86642900D02*
X101991680Y-86642900D01*
D29*
X110750420Y-87300760D02*
X110747880Y-87303300D01*
X110750420Y-86741960D02*
X110750420Y-87292460D01*
X110750420Y-87292460D02*
X110750420Y-87300760D01*
X109105680Y-87328700D02*
X109105680Y-86769900D01*
X109105680Y-87879700D02*
X109291280Y-88065300D01*
X109105680Y-87328700D02*
X109105680Y-87879700D01*
X109291280Y-88939700D02*
X109251280Y-88979700D01*
X109291280Y-88065300D02*
X109291280Y-88939700D01*
X109105680Y-86769900D02*
X109105680Y-86563233D01*
X109105680Y-86563233D02*
X109335167Y-86333746D01*
X106843080Y-88130700D02*
X106803080Y-88090700D01*
X106843080Y-88979700D02*
X106843080Y-88130700D01*
X106946680Y-87947100D02*
X106803080Y-88090700D01*
X106946680Y-87328700D02*
X106946680Y-87947100D01*
X106946680Y-87328700D02*
X106946680Y-86719100D01*
X106946680Y-86719100D02*
X106946680Y-86240900D01*
X106946680Y-86240900D02*
X106942280Y-86236500D01*
X104897580Y-115709600D02*
X104897580Y-115459200D01*
X102546180Y-117538600D02*
X103068580Y-117538600D01*
X103068580Y-117538600D02*
X104897580Y-115709600D01*
X111560980Y-110693800D02*
X111716180Y-110538600D01*
X111716180Y-110538600D02*
X110842067Y-110538600D01*
X110842067Y-110538600D02*
X110687060Y-110693607D01*
X111716180Y-111238600D02*
X110287180Y-111238600D01*
X110287180Y-111238600D02*
X110282380Y-111243400D01*
X110267180Y-109789600D02*
X110281180Y-109803600D01*
D36*
X125685200Y-93397280D02*
X125797700Y-93397280D01*
D29*
X111158680Y-89005100D02*
X111417080Y-89005100D01*
X110904680Y-89182900D02*
X110980880Y-89182900D01*
X110980880Y-89182900D02*
X111158680Y-89005100D01*
D30*
X125685200Y-93397280D02*
X125083732Y-93998748D01*
D29*
X110281180Y-109803600D02*
X110281180Y-109803600D01*
D30*
X126497700Y-92929440D02*
X127389280Y-92037860D01*
X126497700Y-93459780D02*
X126497700Y-92929440D01*
D29*
X110348420Y-89591840D02*
X110174620Y-89765640D01*
X111407600Y-89591840D02*
X110348420Y-89591840D01*
D30*
X110288688Y-108885680D02*
X110500820Y-108885680D01*
X110213338Y-108885680D02*
X110288688Y-108885680D01*
X109581180Y-109517838D02*
X110213338Y-108885680D01*
X109581180Y-109803600D02*
X109581180Y-109517838D01*
D29*
X111433680Y-87868540D02*
X111427920Y-87862780D01*
X111433680Y-88420900D02*
X111433680Y-87868540D01*
X102546180Y-115438600D02*
X103327980Y-115438600D01*
X103327980Y-115438600D02*
X103332980Y-115443600D01*
X102546180Y-114738600D02*
X103644976Y-114738600D01*
X102546180Y-114038600D02*
X103569580Y-114038600D01*
X103569580Y-114038600D02*
X103637780Y-113970400D01*
X104275280Y-113961200D02*
X104275280Y-115035020D01*
X102546180Y-113338600D02*
X103652680Y-113338600D01*
X103652680Y-113338600D02*
X104275280Y-113961200D01*
X102546180Y-111938600D02*
X103219574Y-111938600D01*
X103219574Y-111938600D02*
X105004260Y-113723286D01*
X105004260Y-113723286D02*
X105251734Y-113970760D01*
X105251734Y-113970760D02*
X105705300Y-113970760D01*
X103068580Y-111238600D02*
X105392880Y-113562900D01*
X102546180Y-111238600D02*
X103068580Y-111238600D01*
X105392880Y-113562900D02*
X106074680Y-113562900D01*
X106074680Y-113562900D02*
X106088840Y-113577060D01*
X102546180Y-109621418D02*
X103637721Y-108529877D01*
X102546180Y-110538600D02*
X102546180Y-109621418D01*
D30*
X107564580Y-108838560D02*
X107564580Y-108875520D01*
X107564580Y-108875520D02*
X107564580Y-108875520D01*
D29*
X107218937Y-108529877D02*
X107564580Y-108875520D01*
X103637721Y-108529877D02*
X107218937Y-108529877D01*
X103281180Y-109475600D02*
X103281180Y-109803600D01*
X103281180Y-109803600D02*
X103281180Y-109281200D01*
X103281180Y-109281200D02*
X103392682Y-109169698D01*
X103392682Y-109169698D02*
X106761940Y-109169698D01*
X106761940Y-109169698D02*
X107048960Y-108882678D01*
X103981180Y-109803600D02*
X103981180Y-111202649D01*
X103981180Y-111202649D02*
X103981180Y-111377960D01*
X103981180Y-111377960D02*
X105756100Y-113152880D01*
X105756100Y-113152880D02*
X106607000Y-113152880D01*
X106607000Y-113152880D02*
X106609540Y-113150340D01*
X104681180Y-109803600D02*
X104681180Y-111153000D01*
X104681180Y-111153000D02*
X104681180Y-111310880D01*
X104681180Y-111310880D02*
X106091380Y-112721080D01*
X107227180Y-109803600D02*
X107481180Y-110057600D01*
X106781180Y-109803600D02*
X106781180Y-109803600D01*
X107481180Y-110057600D02*
X107481180Y-110431600D01*
X111716180Y-114738600D02*
X111716180Y-115438600D01*
X108181180Y-118973600D02*
X106781180Y-118973600D01*
X106106502Y-92025722D02*
X106083080Y-92002300D01*
X106078680Y-91997900D02*
X106083080Y-92002300D01*
X106078680Y-91443500D02*
X106078680Y-91997900D01*
D30*
X111676840Y-86312700D02*
X111689540Y-86325400D01*
D29*
X111239580Y-115438600D02*
X110851380Y-115826800D01*
X111716180Y-115438600D02*
X111239580Y-115438600D01*
X107481180Y-110718260D02*
X107494320Y-110731400D01*
X107481180Y-110057600D02*
X107481180Y-110718260D01*
D35*
X110842380Y-113338600D02*
X110839180Y-113335400D01*
X111716180Y-113338600D02*
X110842380Y-113338600D01*
D29*
X106781180Y-109803600D02*
X107227180Y-109803600D01*
X111442053Y-86325400D02*
X111689540Y-86325400D01*
X110294580Y-86325400D02*
X111442053Y-86325400D01*
X110200420Y-86419560D02*
X110294580Y-86325400D01*
X110200420Y-86741960D02*
X110200420Y-86419560D01*
X104351480Y-86769900D02*
X104351480Y-86769900D01*
X108157298Y-86155934D02*
X108332297Y-86330933D01*
X107946463Y-85945099D02*
X108157298Y-86155934D01*
X106581699Y-85945099D02*
X107946463Y-85945099D01*
X105854480Y-86672318D02*
X106581699Y-85945099D01*
X105854480Y-86744500D02*
X105854480Y-86672318D01*
X105854480Y-86744500D02*
X104267910Y-86744500D01*
X104267910Y-86744500D02*
X104242510Y-86769900D01*
X106404480Y-86744500D02*
X106404480Y-87328700D01*
D32*
X107722780Y-73295980D02*
X107197780Y-73295980D01*
D30*
X107257900Y-73172740D02*
X107211580Y-73219060D01*
X107211580Y-73219060D02*
X107186780Y-73243860D01*
X129689160Y-91397280D02*
X129705760Y-91380680D01*
X128810200Y-91397280D02*
X129689160Y-91397280D01*
D31*
X127505850Y-88826630D02*
X127497700Y-88834780D01*
X127497700Y-88094600D02*
X127222980Y-87819880D01*
X127497700Y-88834780D02*
X127497700Y-88094600D01*
D36*
G36*
X104300680Y-92662700D02*
G01*
X103513280Y-92662700D01*
X103503369Y-92663676D01*
X103493840Y-92666567D01*
X103485057Y-92671261D01*
X103477359Y-92677579D01*
X103223359Y-92931579D01*
X103217041Y-92939277D01*
X103212347Y-92948060D01*
X103209456Y-92957589D01*
X103208480Y-92967500D01*
X103208480Y-93175058D01*
X102755638Y-93627900D01*
X102040080Y-93627900D01*
X102040080Y-93242542D01*
X102126801Y-93155821D01*
X102133119Y-93148123D01*
X102137813Y-93139340D01*
X102140704Y-93129811D01*
X102141680Y-93119900D01*
X102141680Y-92434100D01*
X102497280Y-92434100D01*
X102507191Y-92433124D01*
X102516720Y-92430233D01*
X102525503Y-92425539D01*
X102533201Y-92419221D01*
X102797722Y-92154700D01*
X104300680Y-92154700D01*
X104300680Y-92662700D01*
X104300680Y-92662700D01*
G37*
X104300680Y-92662700D02*
X103513280Y-92662700D01*
X103503369Y-92663676D01*
X103493840Y-92666567D01*
X103485057Y-92671261D01*
X103477359Y-92677579D01*
X103223359Y-92931579D01*
X103217041Y-92939277D01*
X103212347Y-92948060D01*
X103209456Y-92957589D01*
X103208480Y-92967500D01*
X103208480Y-93175058D01*
X102755638Y-93627900D01*
X102040080Y-93627900D01*
X102040080Y-93242542D01*
X102126801Y-93155821D01*
X102133119Y-93148123D01*
X102137813Y-93139340D01*
X102140704Y-93129811D01*
X102141680Y-93119900D01*
X102141680Y-92434100D01*
X102497280Y-92434100D01*
X102507191Y-92433124D01*
X102516720Y-92430233D01*
X102525503Y-92425539D01*
X102533201Y-92419221D01*
X102797722Y-92154700D01*
X104300680Y-92154700D01*
X104300680Y-92662700D01*
G36*
X104275280Y-90321542D02*
G01*
X104275280Y-91773700D01*
X102675080Y-91773700D01*
X102665169Y-91774676D01*
X102655640Y-91777567D01*
X102646857Y-91782261D01*
X102639159Y-91788579D01*
X102349238Y-92078500D01*
X101151080Y-92078500D01*
X101151080Y-91849900D01*
X101150104Y-91839989D01*
X101147213Y-91830460D01*
X101142519Y-91821677D01*
X101136201Y-91813979D01*
X100780601Y-91458379D01*
X100772903Y-91452061D01*
X100764120Y-91447367D01*
X100754591Y-91444476D01*
X100744680Y-91443500D01*
X100439880Y-91443500D01*
X100439880Y-90046500D01*
X104000238Y-90046500D01*
X104275280Y-90321542D01*
X104275280Y-90321542D01*
G37*
X104275280Y-90321542D02*
X104275280Y-91773700D01*
X102675080Y-91773700D01*
X102665169Y-91774676D01*
X102655640Y-91777567D01*
X102646857Y-91782261D01*
X102639159Y-91788579D01*
X102349238Y-92078500D01*
X101151080Y-92078500D01*
X101151080Y-91849900D01*
X101150104Y-91839989D01*
X101147213Y-91830460D01*
X101142519Y-91821677D01*
X101136201Y-91813979D01*
X100780601Y-91458379D01*
X100772903Y-91452061D01*
X100764120Y-91447367D01*
X100754591Y-91444476D01*
X100744680Y-91443500D01*
X100439880Y-91443500D01*
X100439880Y-90046500D01*
X104000238Y-90046500D01*
X104275280Y-90321542D01*
G36*
X100947880Y-86465100D02*
G01*
X100948856Y-86475011D01*
X100951747Y-86484540D01*
X100956441Y-86493323D01*
X100962759Y-86501021D01*
X101470759Y-87009021D01*
X101478457Y-87015339D01*
X101487240Y-87020033D01*
X101496769Y-87022924D01*
X101506680Y-87023900D01*
X103030680Y-87023900D01*
X103030680Y-88903500D01*
X103031656Y-88913411D01*
X103034547Y-88922940D01*
X103039241Y-88931723D01*
X103045559Y-88939421D01*
X103589480Y-89483342D01*
X103589480Y-89716300D01*
X102365922Y-89716300D01*
X100465280Y-87815658D01*
X100465280Y-86058700D01*
X100947880Y-86058700D01*
X100947880Y-86465100D01*
X100947880Y-86465100D01*
G37*
X100947880Y-86465100D02*
X100948856Y-86475011D01*
X100951747Y-86484540D01*
X100956441Y-86493323D01*
X100962759Y-86501021D01*
X101470759Y-87009021D01*
X101478457Y-87015339D01*
X101487240Y-87020033D01*
X101496769Y-87022924D01*
X101506680Y-87023900D01*
X103030680Y-87023900D01*
X103030680Y-88903500D01*
X103031656Y-88913411D01*
X103034547Y-88922940D01*
X103039241Y-88931723D01*
X103045559Y-88939421D01*
X103589480Y-89483342D01*
X103589480Y-89716300D01*
X102365922Y-89716300D01*
X100465280Y-87815658D01*
X100465280Y-86058700D01*
X100947880Y-86058700D01*
X100947880Y-86465100D01*
D30*
G36*
X108750956Y-87700507D02*
G01*
X108746052Y-87750300D01*
X108746052Y-88380300D01*
X108750956Y-88430093D01*
X108765480Y-88477972D01*
X108789066Y-88522097D01*
X108804173Y-88540505D01*
X108768924Y-88583456D01*
X108731708Y-88653083D01*
X108708790Y-88728632D01*
X108701052Y-88807200D01*
X108701052Y-89152200D01*
X108708790Y-89230768D01*
X108731708Y-89306317D01*
X108734677Y-89311872D01*
X108161880Y-89311872D01*
X108112087Y-89316776D01*
X108064208Y-89331300D01*
X108020083Y-89354886D01*
X107981407Y-89386627D01*
X107949666Y-89425303D01*
X107926080Y-89469428D01*
X107911556Y-89517307D01*
X107906652Y-89567100D01*
X107906652Y-90497100D01*
X107911556Y-90546893D01*
X107926080Y-90594772D01*
X107949666Y-90638897D01*
X107981407Y-90677573D01*
X108020083Y-90709314D01*
X108064208Y-90732900D01*
X108112087Y-90747424D01*
X108161880Y-90752328D01*
X109481880Y-90752328D01*
X109531673Y-90747424D01*
X109579552Y-90732900D01*
X109623677Y-90709314D01*
X109662353Y-90677573D01*
X109694094Y-90638897D01*
X109717680Y-90594772D01*
X109732204Y-90546893D01*
X109737108Y-90497100D01*
X109737108Y-89567100D01*
X109732204Y-89517307D01*
X109717680Y-89469428D01*
X109694094Y-89425303D01*
X109693611Y-89424715D01*
X109733636Y-89375944D01*
X109770852Y-89306317D01*
X109793770Y-89230768D01*
X109801508Y-89152200D01*
X109801508Y-88807200D01*
X109793770Y-88728632D01*
X109770852Y-88653083D01*
X109733782Y-88583729D01*
X109736280Y-88581678D01*
X109749483Y-88592514D01*
X109793608Y-88616100D01*
X109841487Y-88630624D01*
X109891280Y-88635528D01*
X110248613Y-88635528D01*
X110273090Y-88660005D01*
X110284217Y-88673563D01*
X110297775Y-88684690D01*
X110297780Y-88684695D01*
X110322625Y-88705084D01*
X110338364Y-88718001D01*
X110400140Y-88751021D01*
X110444940Y-88764611D01*
X110444940Y-89261640D01*
X110364624Y-89261640D01*
X110348419Y-89260044D01*
X110332214Y-89261640D01*
X110332205Y-89261640D01*
X110283690Y-89266418D01*
X110221447Y-89285300D01*
X110164083Y-89315961D01*
X110113804Y-89357224D01*
X110105371Y-89367499D01*
X110056777Y-89377165D01*
X109983254Y-89407620D01*
X109917085Y-89451833D01*
X109860813Y-89508105D01*
X109816600Y-89574274D01*
X109786145Y-89647797D01*
X109770620Y-89725849D01*
X109770620Y-89805431D01*
X109786145Y-89883483D01*
X109816600Y-89957006D01*
X109855418Y-90015101D01*
X109815880Y-90074274D01*
X109785425Y-90147797D01*
X109769900Y-90225849D01*
X109769900Y-90305431D01*
X109785425Y-90383483D01*
X109815880Y-90457006D01*
X109855058Y-90515640D01*
X109815880Y-90574274D01*
X109785425Y-90647797D01*
X109769900Y-90725849D01*
X109769900Y-90805431D01*
X109785425Y-90883483D01*
X109815880Y-90957006D01*
X109855058Y-91015640D01*
X109815880Y-91074274D01*
X109785425Y-91147797D01*
X109769900Y-91225849D01*
X109769900Y-91305431D01*
X109777154Y-91341900D01*
X109737108Y-91341900D01*
X109737108Y-91207100D01*
X109732204Y-91157307D01*
X109717680Y-91109428D01*
X109694094Y-91065303D01*
X109662353Y-91026627D01*
X109623677Y-90994886D01*
X109579552Y-90971300D01*
X109531673Y-90956776D01*
X109481880Y-90951872D01*
X108161880Y-90951872D01*
X108112087Y-90956776D01*
X108064208Y-90971300D01*
X108020083Y-90994886D01*
X107981407Y-91026627D01*
X107949666Y-91065303D01*
X107926080Y-91109428D01*
X107911556Y-91157307D01*
X107906652Y-91207100D01*
X107906652Y-91996740D01*
X107585508Y-91998227D01*
X107585508Y-91832300D01*
X107580604Y-91782507D01*
X107566080Y-91734628D01*
X107559811Y-91722900D01*
X107566080Y-91711172D01*
X107580604Y-91663293D01*
X107585508Y-91613500D01*
X107585508Y-91273500D01*
X107580604Y-91223707D01*
X107566080Y-91175828D01*
X107542494Y-91131703D01*
X107510753Y-91093027D01*
X107472077Y-91061286D01*
X107427952Y-91037700D01*
X107380073Y-91023176D01*
X107330280Y-91018272D01*
X107280686Y-91018272D01*
X107269795Y-90963516D01*
X107239340Y-90889993D01*
X107195127Y-90823824D01*
X107138855Y-90767552D01*
X107072686Y-90723339D01*
X106999163Y-90692884D01*
X106921111Y-90677359D01*
X106841529Y-90677359D01*
X106763477Y-90692884D01*
X106689954Y-90723339D01*
X106623785Y-90767552D01*
X106567513Y-90823824D01*
X106523300Y-90889993D01*
X106492845Y-90963516D01*
X106483076Y-91012631D01*
X106477435Y-91018272D01*
X106473680Y-91018272D01*
X106423887Y-91023176D01*
X106376008Y-91037700D01*
X106353680Y-91049635D01*
X106331352Y-91037700D01*
X106283473Y-91023176D01*
X106233680Y-91018272D01*
X106129692Y-91018272D01*
X106172540Y-90954146D01*
X106202995Y-90880623D01*
X106218520Y-90802571D01*
X106218520Y-90722989D01*
X106202995Y-90644937D01*
X106172540Y-90571414D01*
X106129425Y-90506888D01*
X106164920Y-90453766D01*
X106195375Y-90380243D01*
X106210900Y-90302191D01*
X106210900Y-90222609D01*
X106195375Y-90144557D01*
X106164920Y-90071034D01*
X106132392Y-90022353D01*
X106175080Y-89958466D01*
X106205535Y-89884943D01*
X106221060Y-89806891D01*
X106221060Y-89727309D01*
X106205535Y-89649257D01*
X106175080Y-89575734D01*
X106130867Y-89509565D01*
X106074595Y-89453293D01*
X106008426Y-89409080D01*
X105934903Y-89378625D01*
X105856851Y-89363100D01*
X105777269Y-89363100D01*
X105699217Y-89378625D01*
X105625694Y-89409080D01*
X105559525Y-89453293D01*
X105503253Y-89509565D01*
X105459040Y-89575734D01*
X105428585Y-89649257D01*
X105413060Y-89727309D01*
X105413060Y-89806891D01*
X105428585Y-89884943D01*
X105459040Y-89958466D01*
X105491568Y-90007147D01*
X105448880Y-90071034D01*
X105418425Y-90144557D01*
X105402900Y-90222609D01*
X105402900Y-90302191D01*
X105418425Y-90380243D01*
X105448880Y-90453766D01*
X105491995Y-90518292D01*
X105456500Y-90571414D01*
X105426045Y-90644937D01*
X105410520Y-90722989D01*
X105410520Y-90802571D01*
X105426045Y-90880623D01*
X105456500Y-90954146D01*
X105500713Y-91020315D01*
X105556985Y-91076587D01*
X105623154Y-91120800D01*
X105696677Y-91151255D01*
X105700598Y-91152035D01*
X105687880Y-91175828D01*
X105673356Y-91223707D01*
X105668452Y-91273500D01*
X105668452Y-91613500D01*
X105673356Y-91663293D01*
X105687880Y-91711172D01*
X105696349Y-91727016D01*
X105692280Y-91734628D01*
X105677756Y-91782507D01*
X105672852Y-91832300D01*
X105672852Y-92007082D01*
X105518271Y-92007797D01*
X105161740Y-91651267D01*
X105161740Y-91626891D01*
X105202244Y-91599827D01*
X105258516Y-91543555D01*
X105302729Y-91477386D01*
X105333184Y-91403863D01*
X105348709Y-91325811D01*
X105348709Y-91246229D01*
X105333184Y-91168177D01*
X105302729Y-91094654D01*
X105258516Y-91028485D01*
X105202244Y-90972213D01*
X105161740Y-90945149D01*
X105161740Y-89603858D01*
X105187585Y-89565178D01*
X105219924Y-89487105D01*
X105236410Y-89404223D01*
X105236410Y-89319717D01*
X105219924Y-89236835D01*
X105187585Y-89158762D01*
X105161740Y-89120082D01*
X105161740Y-89018388D01*
X105187585Y-88979708D01*
X105219924Y-88901635D01*
X105236410Y-88818753D01*
X105236410Y-88734247D01*
X105219924Y-88651365D01*
X105187585Y-88573292D01*
X105161740Y-88534612D01*
X105161740Y-88504720D01*
X105159788Y-88484899D01*
X105154006Y-88465839D01*
X105144617Y-88448274D01*
X105136340Y-88438188D01*
X105136340Y-87691453D01*
X105170301Y-87691296D01*
X105175702Y-87694905D01*
X105253775Y-87727244D01*
X105336657Y-87743730D01*
X105371001Y-87743730D01*
X105367852Y-87775700D01*
X105367852Y-88405700D01*
X105372756Y-88455493D01*
X105387280Y-88503372D01*
X105410866Y-88547497D01*
X105442607Y-88586173D01*
X105481283Y-88617914D01*
X105525408Y-88641500D01*
X105573287Y-88656024D01*
X105623080Y-88660928D01*
X106203080Y-88660928D01*
X106252873Y-88656024D01*
X106300752Y-88641500D01*
X106341278Y-88619838D01*
X106323508Y-88653083D01*
X106300590Y-88728632D01*
X106292852Y-88807200D01*
X106292852Y-89152200D01*
X106300590Y-89230768D01*
X106323508Y-89306317D01*
X106360724Y-89375944D01*
X106410808Y-89436972D01*
X106471836Y-89487056D01*
X106541463Y-89524272D01*
X106617012Y-89547190D01*
X106695580Y-89554928D01*
X106990580Y-89554928D01*
X107069148Y-89547190D01*
X107144697Y-89524272D01*
X107214324Y-89487056D01*
X107275352Y-89436972D01*
X107325436Y-89375944D01*
X107362652Y-89306317D01*
X107365807Y-89295916D01*
X107375788Y-89302585D01*
X107462961Y-89338693D01*
X107555503Y-89357100D01*
X107649857Y-89357100D01*
X107742399Y-89338693D01*
X107829572Y-89302585D01*
X107908025Y-89250164D01*
X107974744Y-89183445D01*
X108027165Y-89104992D01*
X108063273Y-89017819D01*
X108081680Y-88925277D01*
X108081680Y-88830923D01*
X108063273Y-88738381D01*
X108027165Y-88651208D01*
X108015908Y-88634361D01*
X108046677Y-88617914D01*
X108085353Y-88586173D01*
X108117094Y-88547497D01*
X108140680Y-88503372D01*
X108155204Y-88455493D01*
X108160108Y-88405700D01*
X108160108Y-87775700D01*
X108157964Y-87753928D01*
X108193880Y-87753928D01*
X108243673Y-87749024D01*
X108291552Y-87734500D01*
X108335677Y-87710914D01*
X108374353Y-87679173D01*
X108376529Y-87676521D01*
X108758766Y-87674760D01*
X108750956Y-87700507D01*
X108750956Y-87700507D01*
G37*
X108750956Y-87700507D02*
X108746052Y-87750300D01*
X108746052Y-88380300D01*
X108750956Y-88430093D01*
X108765480Y-88477972D01*
X108789066Y-88522097D01*
X108804173Y-88540505D01*
X108768924Y-88583456D01*
X108731708Y-88653083D01*
X108708790Y-88728632D01*
X108701052Y-88807200D01*
X108701052Y-89152200D01*
X108708790Y-89230768D01*
X108731708Y-89306317D01*
X108734677Y-89311872D01*
X108161880Y-89311872D01*
X108112087Y-89316776D01*
X108064208Y-89331300D01*
X108020083Y-89354886D01*
X107981407Y-89386627D01*
X107949666Y-89425303D01*
X107926080Y-89469428D01*
X107911556Y-89517307D01*
X107906652Y-89567100D01*
X107906652Y-90497100D01*
X107911556Y-90546893D01*
X107926080Y-90594772D01*
X107949666Y-90638897D01*
X107981407Y-90677573D01*
X108020083Y-90709314D01*
X108064208Y-90732900D01*
X108112087Y-90747424D01*
X108161880Y-90752328D01*
X109481880Y-90752328D01*
X109531673Y-90747424D01*
X109579552Y-90732900D01*
X109623677Y-90709314D01*
X109662353Y-90677573D01*
X109694094Y-90638897D01*
X109717680Y-90594772D01*
X109732204Y-90546893D01*
X109737108Y-90497100D01*
X109737108Y-89567100D01*
X109732204Y-89517307D01*
X109717680Y-89469428D01*
X109694094Y-89425303D01*
X109693611Y-89424715D01*
X109733636Y-89375944D01*
X109770852Y-89306317D01*
X109793770Y-89230768D01*
X109801508Y-89152200D01*
X109801508Y-88807200D01*
X109793770Y-88728632D01*
X109770852Y-88653083D01*
X109733782Y-88583729D01*
X109736280Y-88581678D01*
X109749483Y-88592514D01*
X109793608Y-88616100D01*
X109841487Y-88630624D01*
X109891280Y-88635528D01*
X110248613Y-88635528D01*
X110273090Y-88660005D01*
X110284217Y-88673563D01*
X110297775Y-88684690D01*
X110297780Y-88684695D01*
X110322625Y-88705084D01*
X110338364Y-88718001D01*
X110400140Y-88751021D01*
X110444940Y-88764611D01*
X110444940Y-89261640D01*
X110364624Y-89261640D01*
X110348419Y-89260044D01*
X110332214Y-89261640D01*
X110332205Y-89261640D01*
X110283690Y-89266418D01*
X110221447Y-89285300D01*
X110164083Y-89315961D01*
X110113804Y-89357224D01*
X110105371Y-89367499D01*
X110056777Y-89377165D01*
X109983254Y-89407620D01*
X109917085Y-89451833D01*
X109860813Y-89508105D01*
X109816600Y-89574274D01*
X109786145Y-89647797D01*
X109770620Y-89725849D01*
X109770620Y-89805431D01*
X109786145Y-89883483D01*
X109816600Y-89957006D01*
X109855418Y-90015101D01*
X109815880Y-90074274D01*
X109785425Y-90147797D01*
X109769900Y-90225849D01*
X109769900Y-90305431D01*
X109785425Y-90383483D01*
X109815880Y-90457006D01*
X109855058Y-90515640D01*
X109815880Y-90574274D01*
X109785425Y-90647797D01*
X109769900Y-90725849D01*
X109769900Y-90805431D01*
X109785425Y-90883483D01*
X109815880Y-90957006D01*
X109855058Y-91015640D01*
X109815880Y-91074274D01*
X109785425Y-91147797D01*
X109769900Y-91225849D01*
X109769900Y-91305431D01*
X109777154Y-91341900D01*
X109737108Y-91341900D01*
X109737108Y-91207100D01*
X109732204Y-91157307D01*
X109717680Y-91109428D01*
X109694094Y-91065303D01*
X109662353Y-91026627D01*
X109623677Y-90994886D01*
X109579552Y-90971300D01*
X109531673Y-90956776D01*
X109481880Y-90951872D01*
X108161880Y-90951872D01*
X108112087Y-90956776D01*
X108064208Y-90971300D01*
X108020083Y-90994886D01*
X107981407Y-91026627D01*
X107949666Y-91065303D01*
X107926080Y-91109428D01*
X107911556Y-91157307D01*
X107906652Y-91207100D01*
X107906652Y-91996740D01*
X107585508Y-91998227D01*
X107585508Y-91832300D01*
X107580604Y-91782507D01*
X107566080Y-91734628D01*
X107559811Y-91722900D01*
X107566080Y-91711172D01*
X107580604Y-91663293D01*
X107585508Y-91613500D01*
X107585508Y-91273500D01*
X107580604Y-91223707D01*
X107566080Y-91175828D01*
X107542494Y-91131703D01*
X107510753Y-91093027D01*
X107472077Y-91061286D01*
X107427952Y-91037700D01*
X107380073Y-91023176D01*
X107330280Y-91018272D01*
X107280686Y-91018272D01*
X107269795Y-90963516D01*
X107239340Y-90889993D01*
X107195127Y-90823824D01*
X107138855Y-90767552D01*
X107072686Y-90723339D01*
X106999163Y-90692884D01*
X106921111Y-90677359D01*
X106841529Y-90677359D01*
X106763477Y-90692884D01*
X106689954Y-90723339D01*
X106623785Y-90767552D01*
X106567513Y-90823824D01*
X106523300Y-90889993D01*
X106492845Y-90963516D01*
X106483076Y-91012631D01*
X106477435Y-91018272D01*
X106473680Y-91018272D01*
X106423887Y-91023176D01*
X106376008Y-91037700D01*
X106353680Y-91049635D01*
X106331352Y-91037700D01*
X106283473Y-91023176D01*
X106233680Y-91018272D01*
X106129692Y-91018272D01*
X106172540Y-90954146D01*
X106202995Y-90880623D01*
X106218520Y-90802571D01*
X106218520Y-90722989D01*
X106202995Y-90644937D01*
X106172540Y-90571414D01*
X106129425Y-90506888D01*
X106164920Y-90453766D01*
X106195375Y-90380243D01*
X106210900Y-90302191D01*
X106210900Y-90222609D01*
X106195375Y-90144557D01*
X106164920Y-90071034D01*
X106132392Y-90022353D01*
X106175080Y-89958466D01*
X106205535Y-89884943D01*
X106221060Y-89806891D01*
X106221060Y-89727309D01*
X106205535Y-89649257D01*
X106175080Y-89575734D01*
X106130867Y-89509565D01*
X106074595Y-89453293D01*
X106008426Y-89409080D01*
X105934903Y-89378625D01*
X105856851Y-89363100D01*
X105777269Y-89363100D01*
X105699217Y-89378625D01*
X105625694Y-89409080D01*
X105559525Y-89453293D01*
X105503253Y-89509565D01*
X105459040Y-89575734D01*
X105428585Y-89649257D01*
X105413060Y-89727309D01*
X105413060Y-89806891D01*
X105428585Y-89884943D01*
X105459040Y-89958466D01*
X105491568Y-90007147D01*
X105448880Y-90071034D01*
X105418425Y-90144557D01*
X105402900Y-90222609D01*
X105402900Y-90302191D01*
X105418425Y-90380243D01*
X105448880Y-90453766D01*
X105491995Y-90518292D01*
X105456500Y-90571414D01*
X105426045Y-90644937D01*
X105410520Y-90722989D01*
X105410520Y-90802571D01*
X105426045Y-90880623D01*
X105456500Y-90954146D01*
X105500713Y-91020315D01*
X105556985Y-91076587D01*
X105623154Y-91120800D01*
X105696677Y-91151255D01*
X105700598Y-91152035D01*
X105687880Y-91175828D01*
X105673356Y-91223707D01*
X105668452Y-91273500D01*
X105668452Y-91613500D01*
X105673356Y-91663293D01*
X105687880Y-91711172D01*
X105696349Y-91727016D01*
X105692280Y-91734628D01*
X105677756Y-91782507D01*
X105672852Y-91832300D01*
X105672852Y-92007082D01*
X105518271Y-92007797D01*
X105161740Y-91651267D01*
X105161740Y-91626891D01*
X105202244Y-91599827D01*
X105258516Y-91543555D01*
X105302729Y-91477386D01*
X105333184Y-91403863D01*
X105348709Y-91325811D01*
X105348709Y-91246229D01*
X105333184Y-91168177D01*
X105302729Y-91094654D01*
X105258516Y-91028485D01*
X105202244Y-90972213D01*
X105161740Y-90945149D01*
X105161740Y-89603858D01*
X105187585Y-89565178D01*
X105219924Y-89487105D01*
X105236410Y-89404223D01*
X105236410Y-89319717D01*
X105219924Y-89236835D01*
X105187585Y-89158762D01*
X105161740Y-89120082D01*
X105161740Y-89018388D01*
X105187585Y-88979708D01*
X105219924Y-88901635D01*
X105236410Y-88818753D01*
X105236410Y-88734247D01*
X105219924Y-88651365D01*
X105187585Y-88573292D01*
X105161740Y-88534612D01*
X105161740Y-88504720D01*
X105159788Y-88484899D01*
X105154006Y-88465839D01*
X105144617Y-88448274D01*
X105136340Y-88438188D01*
X105136340Y-87691453D01*
X105170301Y-87691296D01*
X105175702Y-87694905D01*
X105253775Y-87727244D01*
X105336657Y-87743730D01*
X105371001Y-87743730D01*
X105367852Y-87775700D01*
X105367852Y-88405700D01*
X105372756Y-88455493D01*
X105387280Y-88503372D01*
X105410866Y-88547497D01*
X105442607Y-88586173D01*
X105481283Y-88617914D01*
X105525408Y-88641500D01*
X105573287Y-88656024D01*
X105623080Y-88660928D01*
X106203080Y-88660928D01*
X106252873Y-88656024D01*
X106300752Y-88641500D01*
X106341278Y-88619838D01*
X106323508Y-88653083D01*
X106300590Y-88728632D01*
X106292852Y-88807200D01*
X106292852Y-89152200D01*
X106300590Y-89230768D01*
X106323508Y-89306317D01*
X106360724Y-89375944D01*
X106410808Y-89436972D01*
X106471836Y-89487056D01*
X106541463Y-89524272D01*
X106617012Y-89547190D01*
X106695580Y-89554928D01*
X106990580Y-89554928D01*
X107069148Y-89547190D01*
X107144697Y-89524272D01*
X107214324Y-89487056D01*
X107275352Y-89436972D01*
X107325436Y-89375944D01*
X107362652Y-89306317D01*
X107365807Y-89295916D01*
X107375788Y-89302585D01*
X107462961Y-89338693D01*
X107555503Y-89357100D01*
X107649857Y-89357100D01*
X107742399Y-89338693D01*
X107829572Y-89302585D01*
X107908025Y-89250164D01*
X107974744Y-89183445D01*
X108027165Y-89104992D01*
X108063273Y-89017819D01*
X108081680Y-88925277D01*
X108081680Y-88830923D01*
X108063273Y-88738381D01*
X108027165Y-88651208D01*
X108015908Y-88634361D01*
X108046677Y-88617914D01*
X108085353Y-88586173D01*
X108117094Y-88547497D01*
X108140680Y-88503372D01*
X108155204Y-88455493D01*
X108160108Y-88405700D01*
X108160108Y-87775700D01*
X108157964Y-87753928D01*
X108193880Y-87753928D01*
X108243673Y-87749024D01*
X108291552Y-87734500D01*
X108335677Y-87710914D01*
X108374353Y-87679173D01*
X108376529Y-87676521D01*
X108758766Y-87674760D01*
X108750956Y-87700507D01*
D29*
G36*
X111488880Y-75061405D02*
G01*
X109010500Y-75091023D01*
X109010500Y-74746500D01*
X109009036Y-74731634D01*
X109004700Y-74717340D01*
X108997658Y-74704166D01*
X108988182Y-74692618D01*
X108976634Y-74683142D01*
X108963460Y-74676100D01*
X108949166Y-74671764D01*
X108933872Y-74670301D01*
X108029810Y-74675380D01*
X105901540Y-74675380D01*
X105886674Y-74676844D01*
X105872380Y-74681180D01*
X105859206Y-74688222D01*
X105847658Y-74697698D01*
X105838182Y-74709246D01*
X105831140Y-74722420D01*
X105826804Y-74736714D01*
X105825340Y-74751580D01*
X105825340Y-75102313D01*
X102697940Y-75111086D01*
X102697940Y-73820769D01*
X104696562Y-73815188D01*
X104680114Y-73839804D01*
X104649690Y-73913254D01*
X104634180Y-73991229D01*
X104634180Y-74070731D01*
X104649690Y-74148706D01*
X104680114Y-74222156D01*
X104724283Y-74288260D01*
X104780500Y-74344477D01*
X104846604Y-74388646D01*
X104920054Y-74419070D01*
X104998029Y-74434580D01*
X105077531Y-74434580D01*
X105155506Y-74419070D01*
X105228956Y-74388646D01*
X105295060Y-74344477D01*
X105351277Y-74288260D01*
X105395446Y-74222156D01*
X105425870Y-74148706D01*
X105441380Y-74070731D01*
X105441380Y-73991229D01*
X105425870Y-73913254D01*
X105395446Y-73839804D01*
X105377727Y-73813286D01*
X105840580Y-73811993D01*
X105840580Y-73943860D01*
X105842044Y-73958726D01*
X105846380Y-73973020D01*
X105853422Y-73986194D01*
X105862898Y-73997742D01*
X105874446Y-74007218D01*
X105887620Y-74014260D01*
X105901914Y-74018596D01*
X105916780Y-74020060D01*
X108929180Y-74020060D01*
X108929180Y-74045731D01*
X108944690Y-74123706D01*
X108975114Y-74197156D01*
X109019283Y-74263260D01*
X109075500Y-74319477D01*
X109141604Y-74363646D01*
X109215054Y-74394070D01*
X109293029Y-74409580D01*
X109372531Y-74409580D01*
X109450506Y-74394070D01*
X109523956Y-74363646D01*
X109590060Y-74319477D01*
X109646277Y-74263260D01*
X109690446Y-74197156D01*
X109720870Y-74123706D01*
X109736380Y-74045731D01*
X109736380Y-73966229D01*
X109720870Y-73888254D01*
X109690446Y-73814804D01*
X109682513Y-73802932D01*
X110726430Y-73790407D01*
X110755500Y-73819477D01*
X110821604Y-73863646D01*
X110895054Y-73894070D01*
X110973029Y-73909580D01*
X111052531Y-73909580D01*
X111130506Y-73894070D01*
X111203956Y-73863646D01*
X111270060Y-73819477D01*
X111306084Y-73783453D01*
X111488880Y-73781260D01*
X111488880Y-75061405D01*
X111488880Y-75061405D01*
G37*
X111488880Y-75061405D02*
X109010500Y-75091023D01*
X109010500Y-74746500D01*
X109009036Y-74731634D01*
X109004700Y-74717340D01*
X108997658Y-74704166D01*
X108988182Y-74692618D01*
X108976634Y-74683142D01*
X108963460Y-74676100D01*
X108949166Y-74671764D01*
X108933872Y-74670301D01*
X108029810Y-74675380D01*
X105901540Y-74675380D01*
X105886674Y-74676844D01*
X105872380Y-74681180D01*
X105859206Y-74688222D01*
X105847658Y-74697698D01*
X105838182Y-74709246D01*
X105831140Y-74722420D01*
X105826804Y-74736714D01*
X105825340Y-74751580D01*
X105825340Y-75102313D01*
X102697940Y-75111086D01*
X102697940Y-73820769D01*
X104696562Y-73815188D01*
X104680114Y-73839804D01*
X104649690Y-73913254D01*
X104634180Y-73991229D01*
X104634180Y-74070731D01*
X104649690Y-74148706D01*
X104680114Y-74222156D01*
X104724283Y-74288260D01*
X104780500Y-74344477D01*
X104846604Y-74388646D01*
X104920054Y-74419070D01*
X104998029Y-74434580D01*
X105077531Y-74434580D01*
X105155506Y-74419070D01*
X105228956Y-74388646D01*
X105295060Y-74344477D01*
X105351277Y-74288260D01*
X105395446Y-74222156D01*
X105425870Y-74148706D01*
X105441380Y-74070731D01*
X105441380Y-73991229D01*
X105425870Y-73913254D01*
X105395446Y-73839804D01*
X105377727Y-73813286D01*
X105840580Y-73811993D01*
X105840580Y-73943860D01*
X105842044Y-73958726D01*
X105846380Y-73973020D01*
X105853422Y-73986194D01*
X105862898Y-73997742D01*
X105874446Y-74007218D01*
X105887620Y-74014260D01*
X105901914Y-74018596D01*
X105916780Y-74020060D01*
X108929180Y-74020060D01*
X108929180Y-74045731D01*
X108944690Y-74123706D01*
X108975114Y-74197156D01*
X109019283Y-74263260D01*
X109075500Y-74319477D01*
X109141604Y-74363646D01*
X109215054Y-74394070D01*
X109293029Y-74409580D01*
X109372531Y-74409580D01*
X109450506Y-74394070D01*
X109523956Y-74363646D01*
X109590060Y-74319477D01*
X109646277Y-74263260D01*
X109690446Y-74197156D01*
X109720870Y-74123706D01*
X109736380Y-74045731D01*
X109736380Y-73966229D01*
X109720870Y-73888254D01*
X109690446Y-73814804D01*
X109682513Y-73802932D01*
X110726430Y-73790407D01*
X110755500Y-73819477D01*
X110821604Y-73863646D01*
X110895054Y-73894070D01*
X110973029Y-73909580D01*
X111052531Y-73909580D01*
X111130506Y-73894070D01*
X111203956Y-73863646D01*
X111270060Y-73819477D01*
X111306084Y-73783453D01*
X111488880Y-73781260D01*
X111488880Y-75061405D01*
D34*
G36*
X104695570Y-69591890D02*
G01*
X104621212Y-69641575D01*
X104557975Y-69704812D01*
X104508290Y-69779170D01*
X104474067Y-69861793D01*
X104456620Y-69949505D01*
X104456620Y-70038935D01*
X104474067Y-70126647D01*
X104508290Y-70209270D01*
X104557975Y-70283628D01*
X104621212Y-70346865D01*
X104695570Y-70396550D01*
X104778193Y-70430773D01*
X104865905Y-70448220D01*
X104955335Y-70448220D01*
X105043047Y-70430773D01*
X105125670Y-70396550D01*
X105200028Y-70346865D01*
X105263265Y-70283628D01*
X105312950Y-70209270D01*
X105347173Y-70126647D01*
X105364620Y-70038935D01*
X105364620Y-69949505D01*
X105347173Y-69861793D01*
X105312950Y-69779170D01*
X105263265Y-69704812D01*
X105200028Y-69641575D01*
X105125670Y-69591890D01*
X105070456Y-69569020D01*
X107165728Y-69569020D01*
X107158507Y-69586453D01*
X107141060Y-69674165D01*
X107141060Y-69684858D01*
X107072645Y-69698466D01*
X106994572Y-69730805D01*
X106924308Y-69777754D01*
X106864554Y-69837508D01*
X106817605Y-69907772D01*
X106785266Y-69985845D01*
X106768780Y-70068727D01*
X106768780Y-70153233D01*
X106785266Y-70236115D01*
X106817605Y-70314188D01*
X106864554Y-70384452D01*
X106924308Y-70444206D01*
X106986983Y-70486084D01*
X106930836Y-70509341D01*
X106848288Y-70564497D01*
X106778087Y-70634698D01*
X106722931Y-70717246D01*
X106684938Y-70808969D01*
X106665570Y-70906340D01*
X106665570Y-71005620D01*
X106684938Y-71102991D01*
X106722931Y-71194714D01*
X106778087Y-71277262D01*
X106848288Y-71347463D01*
X106930836Y-71402619D01*
X107022559Y-71440612D01*
X107119930Y-71459980D01*
X107219210Y-71459980D01*
X107316581Y-71440612D01*
X107408304Y-71402619D01*
X107490852Y-71347463D01*
X107561053Y-71277262D01*
X107616209Y-71194714D01*
X107639440Y-71138630D01*
X107639440Y-71200695D01*
X107656887Y-71288407D01*
X107691110Y-71371030D01*
X107732149Y-71432448D01*
X107708372Y-71448335D01*
X107645135Y-71511572D01*
X107595450Y-71585930D01*
X107561227Y-71668553D01*
X107543780Y-71756265D01*
X107543780Y-71845695D01*
X107561227Y-71933407D01*
X107595450Y-72016030D01*
X107645135Y-72090388D01*
X107708372Y-72153625D01*
X107782730Y-72203310D01*
X107865353Y-72237533D01*
X107953065Y-72254980D01*
X108042495Y-72254980D01*
X108130207Y-72237533D01*
X108212830Y-72203310D01*
X108287188Y-72153625D01*
X108350425Y-72090388D01*
X108400110Y-72016030D01*
X108434333Y-71933407D01*
X108451780Y-71845695D01*
X108451780Y-71778567D01*
X109398060Y-71778567D01*
X109398060Y-71863073D01*
X109414546Y-71945955D01*
X109446885Y-72024028D01*
X109493834Y-72094292D01*
X109553588Y-72154046D01*
X109623852Y-72200995D01*
X109701925Y-72233334D01*
X109784807Y-72249820D01*
X109869313Y-72249820D01*
X109952195Y-72233334D01*
X110030268Y-72200995D01*
X110100532Y-72154046D01*
X110160286Y-72094292D01*
X110207235Y-72024028D01*
X110239574Y-71945955D01*
X110256060Y-71863073D01*
X110256060Y-71778567D01*
X110239574Y-71695685D01*
X110207235Y-71617612D01*
X110160286Y-71547348D01*
X110100532Y-71487594D01*
X110030268Y-71440645D01*
X109952195Y-71408306D01*
X109869313Y-71391820D01*
X109784807Y-71391820D01*
X109701925Y-71408306D01*
X109623852Y-71440645D01*
X109553588Y-71487594D01*
X109493834Y-71547348D01*
X109446885Y-71617612D01*
X109414546Y-71695685D01*
X109398060Y-71778567D01*
X108451780Y-71778567D01*
X108451780Y-71756265D01*
X108434333Y-71668553D01*
X108400110Y-71585930D01*
X108359071Y-71524512D01*
X108382848Y-71508625D01*
X108446085Y-71445388D01*
X108495770Y-71371030D01*
X108529993Y-71288407D01*
X108547440Y-71200695D01*
X108547440Y-71111265D01*
X108529993Y-71023553D01*
X108495770Y-70940930D01*
X108446085Y-70866572D01*
X108382848Y-70803335D01*
X108308490Y-70753650D01*
X108225867Y-70719427D01*
X108138155Y-70701980D01*
X108048725Y-70701980D01*
X107961013Y-70719427D01*
X107878390Y-70753650D01*
X107804032Y-70803335D01*
X107740795Y-70866572D01*
X107691110Y-70940930D01*
X107673570Y-70983276D01*
X107673570Y-70906340D01*
X107654202Y-70808969D01*
X107616209Y-70717246D01*
X107561053Y-70634698D01*
X107490852Y-70564497D01*
X107408304Y-70509341D01*
X107382694Y-70498733D01*
X107400988Y-70491155D01*
X107471252Y-70444206D01*
X107531006Y-70384452D01*
X107577955Y-70314188D01*
X107610294Y-70236115D01*
X107622872Y-70172880D01*
X107639775Y-70172880D01*
X107727487Y-70155433D01*
X107810110Y-70121210D01*
X107884468Y-70071525D01*
X107947705Y-70008288D01*
X107997390Y-69933930D01*
X108031613Y-69851307D01*
X108049060Y-69763595D01*
X108049060Y-69674165D01*
X108031613Y-69586453D01*
X108024392Y-69569020D01*
X109765703Y-69569020D01*
X109701925Y-69581706D01*
X109623852Y-69614045D01*
X109553588Y-69660994D01*
X109493834Y-69720748D01*
X109446885Y-69791012D01*
X109414546Y-69869085D01*
X109398060Y-69951967D01*
X109398060Y-70036473D01*
X109414546Y-70119355D01*
X109446885Y-70197428D01*
X109493834Y-70267692D01*
X109553588Y-70327446D01*
X109623852Y-70374395D01*
X109701925Y-70406734D01*
X109784807Y-70423220D01*
X109869313Y-70423220D01*
X109952195Y-70406734D01*
X110030268Y-70374395D01*
X110100532Y-70327446D01*
X110160286Y-70267692D01*
X110207235Y-70197428D01*
X110239574Y-70119355D01*
X110256060Y-70036473D01*
X110256060Y-69951967D01*
X110239574Y-69869085D01*
X110207235Y-69791012D01*
X110160286Y-69720748D01*
X110100532Y-69660994D01*
X110030268Y-69614045D01*
X109952195Y-69581706D01*
X109888417Y-69569020D01*
X111017944Y-69569020D01*
X110962730Y-69591890D01*
X110888372Y-69641575D01*
X110825135Y-69704812D01*
X110775450Y-69779170D01*
X110741227Y-69861793D01*
X110723780Y-69949505D01*
X110723780Y-70038935D01*
X110741227Y-70126647D01*
X110775450Y-70209270D01*
X110825135Y-70283628D01*
X110888372Y-70346865D01*
X110962730Y-70396550D01*
X111045353Y-70430773D01*
X111133065Y-70448220D01*
X111222495Y-70448220D01*
X111310207Y-70430773D01*
X111392830Y-70396550D01*
X111440620Y-70364617D01*
X111440620Y-73145340D01*
X111290223Y-73145340D01*
X111227830Y-73103650D01*
X111145207Y-73069427D01*
X111057495Y-73051980D01*
X110968065Y-73051980D01*
X110880353Y-73069427D01*
X110797730Y-73103650D01*
X110735337Y-73145340D01*
X108571780Y-73145340D01*
X108571780Y-73116858D01*
X108442032Y-73116858D01*
X108571780Y-72987110D01*
X108560671Y-72885087D01*
X108522586Y-72765942D01*
X108461988Y-72656517D01*
X108381206Y-72561016D01*
X108283346Y-72483110D01*
X108172167Y-72425793D01*
X108051942Y-72391267D01*
X107927292Y-72380859D01*
X107472530Y-72383860D01*
X107313780Y-72542610D01*
X107313780Y-73145340D01*
X107059780Y-73145340D01*
X107059780Y-72542610D01*
X106901030Y-72383860D01*
X106446268Y-72380859D01*
X106321618Y-72391267D01*
X106201393Y-72425793D01*
X106090214Y-72483110D01*
X105992354Y-72561016D01*
X105911572Y-72656517D01*
X105850974Y-72765942D01*
X105812889Y-72885087D01*
X105801780Y-72987110D01*
X105931528Y-73116858D01*
X105801780Y-73116858D01*
X105801780Y-73145340D01*
X102753820Y-73145340D01*
X102753820Y-71430733D01*
X102801692Y-71478605D01*
X102876050Y-71528290D01*
X102958673Y-71562513D01*
X103046385Y-71579960D01*
X103135815Y-71579960D01*
X103223527Y-71562513D01*
X103306150Y-71528290D01*
X103308160Y-71526947D01*
X103293535Y-71541572D01*
X103243850Y-71615930D01*
X103209627Y-71698553D01*
X103192180Y-71786265D01*
X103192180Y-71875695D01*
X103209627Y-71963407D01*
X103243850Y-72046030D01*
X103293535Y-72120388D01*
X103356772Y-72183625D01*
X103431130Y-72233310D01*
X103513753Y-72267533D01*
X103601465Y-72284980D01*
X103690895Y-72284980D01*
X103778607Y-72267533D01*
X103861230Y-72233310D01*
X103935588Y-72183625D01*
X103998825Y-72120388D01*
X104048510Y-72046030D01*
X104082733Y-71963407D01*
X104100180Y-71875695D01*
X104100180Y-71811265D01*
X104456620Y-71811265D01*
X104456620Y-71900695D01*
X104474067Y-71988407D01*
X104508290Y-72071030D01*
X104557975Y-72145388D01*
X104621212Y-72208625D01*
X104695570Y-72258310D01*
X104778193Y-72292533D01*
X104865905Y-72309980D01*
X104955335Y-72309980D01*
X105043047Y-72292533D01*
X105125670Y-72258310D01*
X105200028Y-72208625D01*
X105263265Y-72145388D01*
X105312950Y-72071030D01*
X105347173Y-71988407D01*
X105364620Y-71900695D01*
X105364620Y-71811265D01*
X105347173Y-71723553D01*
X105312950Y-71640930D01*
X105263265Y-71566572D01*
X105200028Y-71503335D01*
X105125670Y-71453650D01*
X105043047Y-71419427D01*
X104955335Y-71401980D01*
X104865905Y-71401980D01*
X104778193Y-71419427D01*
X104695570Y-71453650D01*
X104621212Y-71503335D01*
X104557975Y-71566572D01*
X104508290Y-71640930D01*
X104474067Y-71723553D01*
X104456620Y-71811265D01*
X104100180Y-71811265D01*
X104100180Y-71786265D01*
X104082733Y-71698553D01*
X104048510Y-71615930D01*
X103998825Y-71541572D01*
X103935588Y-71478335D01*
X103861230Y-71428650D01*
X103778607Y-71394427D01*
X103690895Y-71376980D01*
X103601465Y-71376980D01*
X103513753Y-71394427D01*
X103431130Y-71428650D01*
X103429120Y-71429993D01*
X103443745Y-71415368D01*
X103493430Y-71341010D01*
X103527653Y-71258387D01*
X103545100Y-71170675D01*
X103545100Y-71081245D01*
X103901540Y-71081245D01*
X103901540Y-71170675D01*
X103918987Y-71258387D01*
X103953210Y-71341010D01*
X104002895Y-71415368D01*
X104066132Y-71478605D01*
X104140490Y-71528290D01*
X104223113Y-71562513D01*
X104310825Y-71579960D01*
X104400255Y-71579960D01*
X104487967Y-71562513D01*
X104570590Y-71528290D01*
X104644948Y-71478605D01*
X104708185Y-71415368D01*
X104757870Y-71341010D01*
X104792093Y-71258387D01*
X104809540Y-71170675D01*
X104809540Y-71081245D01*
X104792093Y-70993533D01*
X104757870Y-70910910D01*
X104708185Y-70836552D01*
X104644948Y-70773315D01*
X104570590Y-70723630D01*
X104487967Y-70689407D01*
X104400255Y-70671960D01*
X104310825Y-70671960D01*
X104223113Y-70689407D01*
X104140490Y-70723630D01*
X104066132Y-70773315D01*
X104002895Y-70836552D01*
X103953210Y-70910910D01*
X103918987Y-70993533D01*
X103901540Y-71081245D01*
X103545100Y-71081245D01*
X103527653Y-70993533D01*
X103493430Y-70910910D01*
X103443745Y-70836552D01*
X103380508Y-70773315D01*
X103306150Y-70723630D01*
X103223527Y-70689407D01*
X103135815Y-70671960D01*
X103046385Y-70671960D01*
X102958673Y-70689407D01*
X102876050Y-70723630D01*
X102801692Y-70773315D01*
X102753820Y-70821187D01*
X102753820Y-70304073D01*
X102801692Y-70351945D01*
X102876050Y-70401630D01*
X102958673Y-70435853D01*
X103046385Y-70453300D01*
X103135815Y-70453300D01*
X103223527Y-70435853D01*
X103306150Y-70401630D01*
X103380508Y-70351945D01*
X103443745Y-70288708D01*
X103493430Y-70214350D01*
X103527653Y-70131727D01*
X103545100Y-70044015D01*
X103545100Y-69954585D01*
X103527653Y-69866873D01*
X103493430Y-69784250D01*
X103443745Y-69709892D01*
X103380508Y-69646655D01*
X103306150Y-69596970D01*
X103238672Y-69569020D01*
X104750784Y-69569020D01*
X104695570Y-69591890D01*
X104695570Y-69591890D01*
G37*
X104695570Y-69591890D02*
X104621212Y-69641575D01*
X104557975Y-69704812D01*
X104508290Y-69779170D01*
X104474067Y-69861793D01*
X104456620Y-69949505D01*
X104456620Y-70038935D01*
X104474067Y-70126647D01*
X104508290Y-70209270D01*
X104557975Y-70283628D01*
X104621212Y-70346865D01*
X104695570Y-70396550D01*
X104778193Y-70430773D01*
X104865905Y-70448220D01*
X104955335Y-70448220D01*
X105043047Y-70430773D01*
X105125670Y-70396550D01*
X105200028Y-70346865D01*
X105263265Y-70283628D01*
X105312950Y-70209270D01*
X105347173Y-70126647D01*
X105364620Y-70038935D01*
X105364620Y-69949505D01*
X105347173Y-69861793D01*
X105312950Y-69779170D01*
X105263265Y-69704812D01*
X105200028Y-69641575D01*
X105125670Y-69591890D01*
X105070456Y-69569020D01*
X107165728Y-69569020D01*
X107158507Y-69586453D01*
X107141060Y-69674165D01*
X107141060Y-69684858D01*
X107072645Y-69698466D01*
X106994572Y-69730805D01*
X106924308Y-69777754D01*
X106864554Y-69837508D01*
X106817605Y-69907772D01*
X106785266Y-69985845D01*
X106768780Y-70068727D01*
X106768780Y-70153233D01*
X106785266Y-70236115D01*
X106817605Y-70314188D01*
X106864554Y-70384452D01*
X106924308Y-70444206D01*
X106986983Y-70486084D01*
X106930836Y-70509341D01*
X106848288Y-70564497D01*
X106778087Y-70634698D01*
X106722931Y-70717246D01*
X106684938Y-70808969D01*
X106665570Y-70906340D01*
X106665570Y-71005620D01*
X106684938Y-71102991D01*
X106722931Y-71194714D01*
X106778087Y-71277262D01*
X106848288Y-71347463D01*
X106930836Y-71402619D01*
X107022559Y-71440612D01*
X107119930Y-71459980D01*
X107219210Y-71459980D01*
X107316581Y-71440612D01*
X107408304Y-71402619D01*
X107490852Y-71347463D01*
X107561053Y-71277262D01*
X107616209Y-71194714D01*
X107639440Y-71138630D01*
X107639440Y-71200695D01*
X107656887Y-71288407D01*
X107691110Y-71371030D01*
X107732149Y-71432448D01*
X107708372Y-71448335D01*
X107645135Y-71511572D01*
X107595450Y-71585930D01*
X107561227Y-71668553D01*
X107543780Y-71756265D01*
X107543780Y-71845695D01*
X107561227Y-71933407D01*
X107595450Y-72016030D01*
X107645135Y-72090388D01*
X107708372Y-72153625D01*
X107782730Y-72203310D01*
X107865353Y-72237533D01*
X107953065Y-72254980D01*
X108042495Y-72254980D01*
X108130207Y-72237533D01*
X108212830Y-72203310D01*
X108287188Y-72153625D01*
X108350425Y-72090388D01*
X108400110Y-72016030D01*
X108434333Y-71933407D01*
X108451780Y-71845695D01*
X108451780Y-71778567D01*
X109398060Y-71778567D01*
X109398060Y-71863073D01*
X109414546Y-71945955D01*
X109446885Y-72024028D01*
X109493834Y-72094292D01*
X109553588Y-72154046D01*
X109623852Y-72200995D01*
X109701925Y-72233334D01*
X109784807Y-72249820D01*
X109869313Y-72249820D01*
X109952195Y-72233334D01*
X110030268Y-72200995D01*
X110100532Y-72154046D01*
X110160286Y-72094292D01*
X110207235Y-72024028D01*
X110239574Y-71945955D01*
X110256060Y-71863073D01*
X110256060Y-71778567D01*
X110239574Y-71695685D01*
X110207235Y-71617612D01*
X110160286Y-71547348D01*
X110100532Y-71487594D01*
X110030268Y-71440645D01*
X109952195Y-71408306D01*
X109869313Y-71391820D01*
X109784807Y-71391820D01*
X109701925Y-71408306D01*
X109623852Y-71440645D01*
X109553588Y-71487594D01*
X109493834Y-71547348D01*
X109446885Y-71617612D01*
X109414546Y-71695685D01*
X109398060Y-71778567D01*
X108451780Y-71778567D01*
X108451780Y-71756265D01*
X108434333Y-71668553D01*
X108400110Y-71585930D01*
X108359071Y-71524512D01*
X108382848Y-71508625D01*
X108446085Y-71445388D01*
X108495770Y-71371030D01*
X108529993Y-71288407D01*
X108547440Y-71200695D01*
X108547440Y-71111265D01*
X108529993Y-71023553D01*
X108495770Y-70940930D01*
X108446085Y-70866572D01*
X108382848Y-70803335D01*
X108308490Y-70753650D01*
X108225867Y-70719427D01*
X108138155Y-70701980D01*
X108048725Y-70701980D01*
X107961013Y-70719427D01*
X107878390Y-70753650D01*
X107804032Y-70803335D01*
X107740795Y-70866572D01*
X107691110Y-70940930D01*
X107673570Y-70983276D01*
X107673570Y-70906340D01*
X107654202Y-70808969D01*
X107616209Y-70717246D01*
X107561053Y-70634698D01*
X107490852Y-70564497D01*
X107408304Y-70509341D01*
X107382694Y-70498733D01*
X107400988Y-70491155D01*
X107471252Y-70444206D01*
X107531006Y-70384452D01*
X107577955Y-70314188D01*
X107610294Y-70236115D01*
X107622872Y-70172880D01*
X107639775Y-70172880D01*
X107727487Y-70155433D01*
X107810110Y-70121210D01*
X107884468Y-70071525D01*
X107947705Y-70008288D01*
X107997390Y-69933930D01*
X108031613Y-69851307D01*
X108049060Y-69763595D01*
X108049060Y-69674165D01*
X108031613Y-69586453D01*
X108024392Y-69569020D01*
X109765703Y-69569020D01*
X109701925Y-69581706D01*
X109623852Y-69614045D01*
X109553588Y-69660994D01*
X109493834Y-69720748D01*
X109446885Y-69791012D01*
X109414546Y-69869085D01*
X109398060Y-69951967D01*
X109398060Y-70036473D01*
X109414546Y-70119355D01*
X109446885Y-70197428D01*
X109493834Y-70267692D01*
X109553588Y-70327446D01*
X109623852Y-70374395D01*
X109701925Y-70406734D01*
X109784807Y-70423220D01*
X109869313Y-70423220D01*
X109952195Y-70406734D01*
X110030268Y-70374395D01*
X110100532Y-70327446D01*
X110160286Y-70267692D01*
X110207235Y-70197428D01*
X110239574Y-70119355D01*
X110256060Y-70036473D01*
X110256060Y-69951967D01*
X110239574Y-69869085D01*
X110207235Y-69791012D01*
X110160286Y-69720748D01*
X110100532Y-69660994D01*
X110030268Y-69614045D01*
X109952195Y-69581706D01*
X109888417Y-69569020D01*
X111017944Y-69569020D01*
X110962730Y-69591890D01*
X110888372Y-69641575D01*
X110825135Y-69704812D01*
X110775450Y-69779170D01*
X110741227Y-69861793D01*
X110723780Y-69949505D01*
X110723780Y-70038935D01*
X110741227Y-70126647D01*
X110775450Y-70209270D01*
X110825135Y-70283628D01*
X110888372Y-70346865D01*
X110962730Y-70396550D01*
X111045353Y-70430773D01*
X111133065Y-70448220D01*
X111222495Y-70448220D01*
X111310207Y-70430773D01*
X111392830Y-70396550D01*
X111440620Y-70364617D01*
X111440620Y-73145340D01*
X111290223Y-73145340D01*
X111227830Y-73103650D01*
X111145207Y-73069427D01*
X111057495Y-73051980D01*
X110968065Y-73051980D01*
X110880353Y-73069427D01*
X110797730Y-73103650D01*
X110735337Y-73145340D01*
X108571780Y-73145340D01*
X108571780Y-73116858D01*
X108442032Y-73116858D01*
X108571780Y-72987110D01*
X108560671Y-72885087D01*
X108522586Y-72765942D01*
X108461988Y-72656517D01*
X108381206Y-72561016D01*
X108283346Y-72483110D01*
X108172167Y-72425793D01*
X108051942Y-72391267D01*
X107927292Y-72380859D01*
X107472530Y-72383860D01*
X107313780Y-72542610D01*
X107313780Y-73145340D01*
X107059780Y-73145340D01*
X107059780Y-72542610D01*
X106901030Y-72383860D01*
X106446268Y-72380859D01*
X106321618Y-72391267D01*
X106201393Y-72425793D01*
X106090214Y-72483110D01*
X105992354Y-72561016D01*
X105911572Y-72656517D01*
X105850974Y-72765942D01*
X105812889Y-72885087D01*
X105801780Y-72987110D01*
X105931528Y-73116858D01*
X105801780Y-73116858D01*
X105801780Y-73145340D01*
X102753820Y-73145340D01*
X102753820Y-71430733D01*
X102801692Y-71478605D01*
X102876050Y-71528290D01*
X102958673Y-71562513D01*
X103046385Y-71579960D01*
X103135815Y-71579960D01*
X103223527Y-71562513D01*
X103306150Y-71528290D01*
X103308160Y-71526947D01*
X103293535Y-71541572D01*
X103243850Y-71615930D01*
X103209627Y-71698553D01*
X103192180Y-71786265D01*
X103192180Y-71875695D01*
X103209627Y-71963407D01*
X103243850Y-72046030D01*
X103293535Y-72120388D01*
X103356772Y-72183625D01*
X103431130Y-72233310D01*
X103513753Y-72267533D01*
X103601465Y-72284980D01*
X103690895Y-72284980D01*
X103778607Y-72267533D01*
X103861230Y-72233310D01*
X103935588Y-72183625D01*
X103998825Y-72120388D01*
X104048510Y-72046030D01*
X104082733Y-71963407D01*
X104100180Y-71875695D01*
X104100180Y-71811265D01*
X104456620Y-71811265D01*
X104456620Y-71900695D01*
X104474067Y-71988407D01*
X104508290Y-72071030D01*
X104557975Y-72145388D01*
X104621212Y-72208625D01*
X104695570Y-72258310D01*
X104778193Y-72292533D01*
X104865905Y-72309980D01*
X104955335Y-72309980D01*
X105043047Y-72292533D01*
X105125670Y-72258310D01*
X105200028Y-72208625D01*
X105263265Y-72145388D01*
X105312950Y-72071030D01*
X105347173Y-71988407D01*
X105364620Y-71900695D01*
X105364620Y-71811265D01*
X105347173Y-71723553D01*
X105312950Y-71640930D01*
X105263265Y-71566572D01*
X105200028Y-71503335D01*
X105125670Y-71453650D01*
X105043047Y-71419427D01*
X104955335Y-71401980D01*
X104865905Y-71401980D01*
X104778193Y-71419427D01*
X104695570Y-71453650D01*
X104621212Y-71503335D01*
X104557975Y-71566572D01*
X104508290Y-71640930D01*
X104474067Y-71723553D01*
X104456620Y-71811265D01*
X104100180Y-71811265D01*
X104100180Y-71786265D01*
X104082733Y-71698553D01*
X104048510Y-71615930D01*
X103998825Y-71541572D01*
X103935588Y-71478335D01*
X103861230Y-71428650D01*
X103778607Y-71394427D01*
X103690895Y-71376980D01*
X103601465Y-71376980D01*
X103513753Y-71394427D01*
X103431130Y-71428650D01*
X103429120Y-71429993D01*
X103443745Y-71415368D01*
X103493430Y-71341010D01*
X103527653Y-71258387D01*
X103545100Y-71170675D01*
X103545100Y-71081245D01*
X103901540Y-71081245D01*
X103901540Y-71170675D01*
X103918987Y-71258387D01*
X103953210Y-71341010D01*
X104002895Y-71415368D01*
X104066132Y-71478605D01*
X104140490Y-71528290D01*
X104223113Y-71562513D01*
X104310825Y-71579960D01*
X104400255Y-71579960D01*
X104487967Y-71562513D01*
X104570590Y-71528290D01*
X104644948Y-71478605D01*
X104708185Y-71415368D01*
X104757870Y-71341010D01*
X104792093Y-71258387D01*
X104809540Y-71170675D01*
X104809540Y-71081245D01*
X104792093Y-70993533D01*
X104757870Y-70910910D01*
X104708185Y-70836552D01*
X104644948Y-70773315D01*
X104570590Y-70723630D01*
X104487967Y-70689407D01*
X104400255Y-70671960D01*
X104310825Y-70671960D01*
X104223113Y-70689407D01*
X104140490Y-70723630D01*
X104066132Y-70773315D01*
X104002895Y-70836552D01*
X103953210Y-70910910D01*
X103918987Y-70993533D01*
X103901540Y-71081245D01*
X103545100Y-71081245D01*
X103527653Y-70993533D01*
X103493430Y-70910910D01*
X103443745Y-70836552D01*
X103380508Y-70773315D01*
X103306150Y-70723630D01*
X103223527Y-70689407D01*
X103135815Y-70671960D01*
X103046385Y-70671960D01*
X102958673Y-70689407D01*
X102876050Y-70723630D01*
X102801692Y-70773315D01*
X102753820Y-70821187D01*
X102753820Y-70304073D01*
X102801692Y-70351945D01*
X102876050Y-70401630D01*
X102958673Y-70435853D01*
X103046385Y-70453300D01*
X103135815Y-70453300D01*
X103223527Y-70435853D01*
X103306150Y-70401630D01*
X103380508Y-70351945D01*
X103443745Y-70288708D01*
X103493430Y-70214350D01*
X103527653Y-70131727D01*
X103545100Y-70044015D01*
X103545100Y-69954585D01*
X103527653Y-69866873D01*
X103493430Y-69784250D01*
X103443745Y-69709892D01*
X103380508Y-69646655D01*
X103306150Y-69596970D01*
X103238672Y-69569020D01*
X104750784Y-69569020D01*
X104695570Y-69591890D01*
G36*
X102817980Y-75592895D02*
G01*
X102835427Y-75680607D01*
X102869650Y-75763230D01*
X102919335Y-75837588D01*
X102982572Y-75900825D01*
X103056930Y-75950510D01*
X103139553Y-75984733D01*
X103227265Y-76002180D01*
X103316695Y-76002180D01*
X103404407Y-75984733D01*
X103487030Y-75950510D01*
X103561388Y-75900825D01*
X103624625Y-75837588D01*
X103674310Y-75763230D01*
X103708533Y-75680607D01*
X103725980Y-75592895D01*
X103725980Y-75581200D01*
X103792224Y-75581200D01*
X103806297Y-75602262D01*
X103876498Y-75672463D01*
X103959046Y-75727619D01*
X104050769Y-75765612D01*
X104148140Y-75784980D01*
X104247420Y-75784980D01*
X104344791Y-75765612D01*
X104436514Y-75727619D01*
X104519062Y-75672463D01*
X104569276Y-75622249D01*
X104575327Y-75652667D01*
X104609550Y-75735290D01*
X104659235Y-75809648D01*
X104722472Y-75872885D01*
X104796830Y-75922570D01*
X104879453Y-75956793D01*
X104967165Y-75974240D01*
X105056595Y-75974240D01*
X105144307Y-75956793D01*
X105226930Y-75922570D01*
X105301288Y-75872885D01*
X105364525Y-75809648D01*
X105414210Y-75735290D01*
X105448433Y-75652667D01*
X105462649Y-75581200D01*
X105898430Y-75581200D01*
X105801780Y-75677850D01*
X105812889Y-75779873D01*
X105850974Y-75899018D01*
X105911572Y-76008443D01*
X105992354Y-76103944D01*
X106090214Y-76181850D01*
X106201393Y-76239167D01*
X106321618Y-76273693D01*
X106446268Y-76284101D01*
X106901030Y-76281100D01*
X107059780Y-76122350D01*
X107059780Y-75581200D01*
X107313780Y-75581200D01*
X107313780Y-76122350D01*
X107472530Y-76281100D01*
X107927292Y-76284101D01*
X108051942Y-76273693D01*
X108172167Y-76239167D01*
X108283346Y-76181850D01*
X108381206Y-76103944D01*
X108461988Y-76008443D01*
X108522586Y-75899018D01*
X108560671Y-75779873D01*
X108571780Y-75677850D01*
X108475130Y-75581200D01*
X108884848Y-75581200D01*
X108896227Y-75638407D01*
X108930450Y-75721030D01*
X108980135Y-75795388D01*
X109043372Y-75858625D01*
X109117730Y-75908310D01*
X109200353Y-75942533D01*
X109288065Y-75959980D01*
X109377495Y-75959980D01*
X109465207Y-75942533D01*
X109547830Y-75908310D01*
X109622188Y-75858625D01*
X109685425Y-75795388D01*
X109735110Y-75721030D01*
X109769333Y-75638407D01*
X109780713Y-75581200D01*
X109785235Y-75581200D01*
X109851498Y-75647463D01*
X109934046Y-75702619D01*
X110025769Y-75740612D01*
X110123140Y-75759980D01*
X110222420Y-75759980D01*
X110319791Y-75740612D01*
X110411514Y-75702619D01*
X110494062Y-75647463D01*
X110560325Y-75581200D01*
X111443160Y-75581200D01*
X111443160Y-79005120D01*
X102751280Y-79005120D01*
X102751280Y-77908731D01*
X105368780Y-77908731D01*
X105368780Y-77998161D01*
X105386227Y-78085873D01*
X105420450Y-78168496D01*
X105470135Y-78242854D01*
X105533372Y-78306091D01*
X105607730Y-78355776D01*
X105690353Y-78389999D01*
X105778065Y-78407446D01*
X105867495Y-78407446D01*
X105955207Y-78389999D01*
X106037830Y-78355776D01*
X106112188Y-78306091D01*
X106175425Y-78242854D01*
X106225110Y-78168496D01*
X106259333Y-78085873D01*
X106276780Y-77998161D01*
X106276780Y-77908731D01*
X106259333Y-77821019D01*
X106225110Y-77738396D01*
X106175425Y-77664038D01*
X106112188Y-77600801D01*
X106037830Y-77551116D01*
X105955207Y-77516893D01*
X105867495Y-77499446D01*
X105778065Y-77499446D01*
X105690353Y-77516893D01*
X105607730Y-77551116D01*
X105533372Y-77600801D01*
X105470135Y-77664038D01*
X105420450Y-77738396D01*
X105386227Y-77821019D01*
X105368780Y-77908731D01*
X102751280Y-77908731D01*
X102751280Y-77036265D01*
X105768780Y-77036265D01*
X105768780Y-77125695D01*
X105786227Y-77213407D01*
X105820450Y-77296030D01*
X105870135Y-77370388D01*
X105933372Y-77433625D01*
X106007730Y-77483310D01*
X106090353Y-77517533D01*
X106178065Y-77534980D01*
X106267495Y-77534980D01*
X106355207Y-77517533D01*
X106437830Y-77483310D01*
X106494914Y-77445167D01*
X106515971Y-77466224D01*
X106590329Y-77515909D01*
X106672952Y-77550132D01*
X106760664Y-77567579D01*
X106850094Y-77567579D01*
X106937806Y-77550132D01*
X107020429Y-77515909D01*
X107094787Y-77466224D01*
X107158024Y-77402987D01*
X107166423Y-77390416D01*
X107226232Y-77450225D01*
X107300590Y-77499910D01*
X107383213Y-77534133D01*
X107470925Y-77551580D01*
X107560355Y-77551580D01*
X107648067Y-77534133D01*
X107730690Y-77499910D01*
X107790640Y-77459852D01*
X107850590Y-77499910D01*
X107933213Y-77534133D01*
X108020925Y-77551580D01*
X108110355Y-77551580D01*
X108198067Y-77534133D01*
X108280690Y-77499910D01*
X108355048Y-77450225D01*
X108418285Y-77386988D01*
X108467970Y-77312630D01*
X108468295Y-77311845D01*
X109249360Y-77311845D01*
X109249360Y-77401275D01*
X109266807Y-77488987D01*
X109301030Y-77571610D01*
X109350715Y-77645968D01*
X109413952Y-77709205D01*
X109488310Y-77758890D01*
X109570933Y-77793113D01*
X109658645Y-77810560D01*
X109748075Y-77810560D01*
X109835787Y-77793113D01*
X109918410Y-77758890D01*
X109992768Y-77709205D01*
X110056005Y-77645968D01*
X110105690Y-77571610D01*
X110139913Y-77488987D01*
X110157360Y-77401275D01*
X110157360Y-77336265D01*
X110163780Y-77336265D01*
X110163780Y-77425695D01*
X110181227Y-77513407D01*
X110215450Y-77596030D01*
X110265135Y-77670388D01*
X110328372Y-77733625D01*
X110402730Y-77783310D01*
X110485353Y-77817533D01*
X110573065Y-77834980D01*
X110662495Y-77834980D01*
X110750207Y-77817533D01*
X110832830Y-77783310D01*
X110907188Y-77733625D01*
X110970425Y-77670388D01*
X111020110Y-77596030D01*
X111054333Y-77513407D01*
X111071780Y-77425695D01*
X111071780Y-77336265D01*
X111054333Y-77248553D01*
X111020110Y-77165930D01*
X110970425Y-77091572D01*
X110907188Y-77028335D01*
X110832830Y-76978650D01*
X110750207Y-76944427D01*
X110662495Y-76926980D01*
X110573065Y-76926980D01*
X110485353Y-76944427D01*
X110402730Y-76978650D01*
X110328372Y-77028335D01*
X110265135Y-77091572D01*
X110215450Y-77165930D01*
X110181227Y-77248553D01*
X110163780Y-77336265D01*
X110157360Y-77336265D01*
X110157360Y-77311845D01*
X110139913Y-77224133D01*
X110105690Y-77141510D01*
X110056005Y-77067152D01*
X109992768Y-77003915D01*
X109918410Y-76954230D01*
X109835787Y-76920007D01*
X109748075Y-76902560D01*
X109658645Y-76902560D01*
X109570933Y-76920007D01*
X109488310Y-76954230D01*
X109413952Y-77003915D01*
X109350715Y-77067152D01*
X109301030Y-77141510D01*
X109266807Y-77224133D01*
X109249360Y-77311845D01*
X108468295Y-77311845D01*
X108502193Y-77230007D01*
X108519640Y-77142295D01*
X108519640Y-77052865D01*
X108502193Y-76965153D01*
X108467970Y-76882530D01*
X108418285Y-76808172D01*
X108355048Y-76744935D01*
X108280690Y-76695250D01*
X108198067Y-76661027D01*
X108110355Y-76643580D01*
X108020925Y-76643580D01*
X107933213Y-76661027D01*
X107850590Y-76695250D01*
X107790640Y-76735308D01*
X107730690Y-76695250D01*
X107648067Y-76661027D01*
X107560355Y-76643580D01*
X107470925Y-76643580D01*
X107383213Y-76661027D01*
X107300590Y-76695250D01*
X107226232Y-76744935D01*
X107162995Y-76808172D01*
X107154596Y-76820743D01*
X107094787Y-76760934D01*
X107020429Y-76711249D01*
X106937806Y-76677026D01*
X106850094Y-76659579D01*
X106760664Y-76659579D01*
X106672952Y-76677026D01*
X106590329Y-76711249D01*
X106533245Y-76749392D01*
X106512188Y-76728335D01*
X106437830Y-76678650D01*
X106355207Y-76644427D01*
X106267495Y-76626980D01*
X106178065Y-76626980D01*
X106090353Y-76644427D01*
X106007730Y-76678650D01*
X105933372Y-76728335D01*
X105870135Y-76791572D01*
X105820450Y-76865930D01*
X105786227Y-76948553D01*
X105768780Y-77036265D01*
X102751280Y-77036265D01*
X102751280Y-75581200D01*
X102817980Y-75581200D01*
X102817980Y-75592895D01*
X102817980Y-75592895D01*
G37*
X102817980Y-75592895D02*
X102835427Y-75680607D01*
X102869650Y-75763230D01*
X102919335Y-75837588D01*
X102982572Y-75900825D01*
X103056930Y-75950510D01*
X103139553Y-75984733D01*
X103227265Y-76002180D01*
X103316695Y-76002180D01*
X103404407Y-75984733D01*
X103487030Y-75950510D01*
X103561388Y-75900825D01*
X103624625Y-75837588D01*
X103674310Y-75763230D01*
X103708533Y-75680607D01*
X103725980Y-75592895D01*
X103725980Y-75581200D01*
X103792224Y-75581200D01*
X103806297Y-75602262D01*
X103876498Y-75672463D01*
X103959046Y-75727619D01*
X104050769Y-75765612D01*
X104148140Y-75784980D01*
X104247420Y-75784980D01*
X104344791Y-75765612D01*
X104436514Y-75727619D01*
X104519062Y-75672463D01*
X104569276Y-75622249D01*
X104575327Y-75652667D01*
X104609550Y-75735290D01*
X104659235Y-75809648D01*
X104722472Y-75872885D01*
X104796830Y-75922570D01*
X104879453Y-75956793D01*
X104967165Y-75974240D01*
X105056595Y-75974240D01*
X105144307Y-75956793D01*
X105226930Y-75922570D01*
X105301288Y-75872885D01*
X105364525Y-75809648D01*
X105414210Y-75735290D01*
X105448433Y-75652667D01*
X105462649Y-75581200D01*
X105898430Y-75581200D01*
X105801780Y-75677850D01*
X105812889Y-75779873D01*
X105850974Y-75899018D01*
X105911572Y-76008443D01*
X105992354Y-76103944D01*
X106090214Y-76181850D01*
X106201393Y-76239167D01*
X106321618Y-76273693D01*
X106446268Y-76284101D01*
X106901030Y-76281100D01*
X107059780Y-76122350D01*
X107059780Y-75581200D01*
X107313780Y-75581200D01*
X107313780Y-76122350D01*
X107472530Y-76281100D01*
X107927292Y-76284101D01*
X108051942Y-76273693D01*
X108172167Y-76239167D01*
X108283346Y-76181850D01*
X108381206Y-76103944D01*
X108461988Y-76008443D01*
X108522586Y-75899018D01*
X108560671Y-75779873D01*
X108571780Y-75677850D01*
X108475130Y-75581200D01*
X108884848Y-75581200D01*
X108896227Y-75638407D01*
X108930450Y-75721030D01*
X108980135Y-75795388D01*
X109043372Y-75858625D01*
X109117730Y-75908310D01*
X109200353Y-75942533D01*
X109288065Y-75959980D01*
X109377495Y-75959980D01*
X109465207Y-75942533D01*
X109547830Y-75908310D01*
X109622188Y-75858625D01*
X109685425Y-75795388D01*
X109735110Y-75721030D01*
X109769333Y-75638407D01*
X109780713Y-75581200D01*
X109785235Y-75581200D01*
X109851498Y-75647463D01*
X109934046Y-75702619D01*
X110025769Y-75740612D01*
X110123140Y-75759980D01*
X110222420Y-75759980D01*
X110319791Y-75740612D01*
X110411514Y-75702619D01*
X110494062Y-75647463D01*
X110560325Y-75581200D01*
X111443160Y-75581200D01*
X111443160Y-79005120D01*
X102751280Y-79005120D01*
X102751280Y-77908731D01*
X105368780Y-77908731D01*
X105368780Y-77998161D01*
X105386227Y-78085873D01*
X105420450Y-78168496D01*
X105470135Y-78242854D01*
X105533372Y-78306091D01*
X105607730Y-78355776D01*
X105690353Y-78389999D01*
X105778065Y-78407446D01*
X105867495Y-78407446D01*
X105955207Y-78389999D01*
X106037830Y-78355776D01*
X106112188Y-78306091D01*
X106175425Y-78242854D01*
X106225110Y-78168496D01*
X106259333Y-78085873D01*
X106276780Y-77998161D01*
X106276780Y-77908731D01*
X106259333Y-77821019D01*
X106225110Y-77738396D01*
X106175425Y-77664038D01*
X106112188Y-77600801D01*
X106037830Y-77551116D01*
X105955207Y-77516893D01*
X105867495Y-77499446D01*
X105778065Y-77499446D01*
X105690353Y-77516893D01*
X105607730Y-77551116D01*
X105533372Y-77600801D01*
X105470135Y-77664038D01*
X105420450Y-77738396D01*
X105386227Y-77821019D01*
X105368780Y-77908731D01*
X102751280Y-77908731D01*
X102751280Y-77036265D01*
X105768780Y-77036265D01*
X105768780Y-77125695D01*
X105786227Y-77213407D01*
X105820450Y-77296030D01*
X105870135Y-77370388D01*
X105933372Y-77433625D01*
X106007730Y-77483310D01*
X106090353Y-77517533D01*
X106178065Y-77534980D01*
X106267495Y-77534980D01*
X106355207Y-77517533D01*
X106437830Y-77483310D01*
X106494914Y-77445167D01*
X106515971Y-77466224D01*
X106590329Y-77515909D01*
X106672952Y-77550132D01*
X106760664Y-77567579D01*
X106850094Y-77567579D01*
X106937806Y-77550132D01*
X107020429Y-77515909D01*
X107094787Y-77466224D01*
X107158024Y-77402987D01*
X107166423Y-77390416D01*
X107226232Y-77450225D01*
X107300590Y-77499910D01*
X107383213Y-77534133D01*
X107470925Y-77551580D01*
X107560355Y-77551580D01*
X107648067Y-77534133D01*
X107730690Y-77499910D01*
X107790640Y-77459852D01*
X107850590Y-77499910D01*
X107933213Y-77534133D01*
X108020925Y-77551580D01*
X108110355Y-77551580D01*
X108198067Y-77534133D01*
X108280690Y-77499910D01*
X108355048Y-77450225D01*
X108418285Y-77386988D01*
X108467970Y-77312630D01*
X108468295Y-77311845D01*
X109249360Y-77311845D01*
X109249360Y-77401275D01*
X109266807Y-77488987D01*
X109301030Y-77571610D01*
X109350715Y-77645968D01*
X109413952Y-77709205D01*
X109488310Y-77758890D01*
X109570933Y-77793113D01*
X109658645Y-77810560D01*
X109748075Y-77810560D01*
X109835787Y-77793113D01*
X109918410Y-77758890D01*
X109992768Y-77709205D01*
X110056005Y-77645968D01*
X110105690Y-77571610D01*
X110139913Y-77488987D01*
X110157360Y-77401275D01*
X110157360Y-77336265D01*
X110163780Y-77336265D01*
X110163780Y-77425695D01*
X110181227Y-77513407D01*
X110215450Y-77596030D01*
X110265135Y-77670388D01*
X110328372Y-77733625D01*
X110402730Y-77783310D01*
X110485353Y-77817533D01*
X110573065Y-77834980D01*
X110662495Y-77834980D01*
X110750207Y-77817533D01*
X110832830Y-77783310D01*
X110907188Y-77733625D01*
X110970425Y-77670388D01*
X111020110Y-77596030D01*
X111054333Y-77513407D01*
X111071780Y-77425695D01*
X111071780Y-77336265D01*
X111054333Y-77248553D01*
X111020110Y-77165930D01*
X110970425Y-77091572D01*
X110907188Y-77028335D01*
X110832830Y-76978650D01*
X110750207Y-76944427D01*
X110662495Y-76926980D01*
X110573065Y-76926980D01*
X110485353Y-76944427D01*
X110402730Y-76978650D01*
X110328372Y-77028335D01*
X110265135Y-77091572D01*
X110215450Y-77165930D01*
X110181227Y-77248553D01*
X110163780Y-77336265D01*
X110157360Y-77336265D01*
X110157360Y-77311845D01*
X110139913Y-77224133D01*
X110105690Y-77141510D01*
X110056005Y-77067152D01*
X109992768Y-77003915D01*
X109918410Y-76954230D01*
X109835787Y-76920007D01*
X109748075Y-76902560D01*
X109658645Y-76902560D01*
X109570933Y-76920007D01*
X109488310Y-76954230D01*
X109413952Y-77003915D01*
X109350715Y-77067152D01*
X109301030Y-77141510D01*
X109266807Y-77224133D01*
X109249360Y-77311845D01*
X108468295Y-77311845D01*
X108502193Y-77230007D01*
X108519640Y-77142295D01*
X108519640Y-77052865D01*
X108502193Y-76965153D01*
X108467970Y-76882530D01*
X108418285Y-76808172D01*
X108355048Y-76744935D01*
X108280690Y-76695250D01*
X108198067Y-76661027D01*
X108110355Y-76643580D01*
X108020925Y-76643580D01*
X107933213Y-76661027D01*
X107850590Y-76695250D01*
X107790640Y-76735308D01*
X107730690Y-76695250D01*
X107648067Y-76661027D01*
X107560355Y-76643580D01*
X107470925Y-76643580D01*
X107383213Y-76661027D01*
X107300590Y-76695250D01*
X107226232Y-76744935D01*
X107162995Y-76808172D01*
X107154596Y-76820743D01*
X107094787Y-76760934D01*
X107020429Y-76711249D01*
X106937806Y-76677026D01*
X106850094Y-76659579D01*
X106760664Y-76659579D01*
X106672952Y-76677026D01*
X106590329Y-76711249D01*
X106533245Y-76749392D01*
X106512188Y-76728335D01*
X106437830Y-76678650D01*
X106355207Y-76644427D01*
X106267495Y-76626980D01*
X106178065Y-76626980D01*
X106090353Y-76644427D01*
X106007730Y-76678650D01*
X105933372Y-76728335D01*
X105870135Y-76791572D01*
X105820450Y-76865930D01*
X105786227Y-76948553D01*
X105768780Y-77036265D01*
X102751280Y-77036265D01*
X102751280Y-75581200D01*
X102817980Y-75581200D01*
X102817980Y-75592895D01*
M02*
